<?xml version="1.0" encoding="UTF-8" standalone="no"?>
<svg
   version="1.1"
   x="0px"
   y="0px"
   viewBox="0 0 72.888527 72.708069"
   xml:space="preserve"
   id="svg2"
   sodipodi:docname="pointer_icon.svg"
   inkscape:version="1.3.1 (91b66b0783, 2023-11-16)"
   width="72.888527"
   height="72.708069"
   xmlns:inkscape="http://www.inkscape.org/namespaces/inkscape"
   xmlns:sodipodi="http://sodipodi.sourceforge.net/DTD/sodipodi-0.dtd"
   xmlns="http://www.w3.org/2000/svg"
   xmlns:svg="http://www.w3.org/2000/svg"><defs
     id="defs2" /><sodipodi:namedview
     id="namedview2"
     pagecolor="#ffffff"
     bordercolor="#000000"
     borderopacity="0.25"
     inkscape:showpageshadow="2"
     inkscape:pageopacity="0.0"
     inkscape:pagecheckerboard="0"
     inkscape:deskcolor="#d1d1d1"
     inkscape:zoom="8.888"
     inkscape:cx="37.184968"
     inkscape:cy="38.985149"
     inkscape:window-width="2560"
     inkscape:window-height="1346"
     inkscape:window-x="-11"
     inkscape:window-y="-11"
     inkscape:window-maximized="1"
     inkscape:current-layer="svg2" /><path
     id="path1"
     style="opacity:1;fill:#090235;fill-opacity:1"
     d="m 8.9998573,0.0010344 c -1.261772,-0.02139 -2.807014,0.285157 -4.539063,1.285156 -2.857881,1.649998 -3.85323097,3.725889 -4.25585897,5.228515 -0.668653,3.041855 0.83164097,5.6398766 1.18164097,6.2460936 L 15.685404,37.528377 c -2.645446,-0.78205 -5.562724,-1.635695 -7.0019527,-1.728515 -3.11506,-0.395449 -6.687124,2.820295 -8.02539097,5.902343 -1.301665,2.945445 -0.629304,5.907163 1.63671897,7.832032 4.058842,3.430123 10.4551857,5.508817 12.0078117,5.998047 1.816024,1.145446 9.862076,6.083564 14.826172,6.68164 2.618652,0.33564 7.305545,5.25215 9.751953,8.689453 l 1.273438,1.804688 32.734375,-18.900391 -4.949219,-8.572266 c -0.266987,-1.462434 -0.728567,-4.661004 -0.302734,-6.523437 1.134677,-4.234675 -1.897658,-11.4899 -3.097657,-13.568359 l -8.351562,-14.462891 0.123047,-0.185547 c -0.2,-0.34641 -1.372798,-1.9784966 -3.931641,-2.8105466 -2.745446,-0.955255 -5.943208,-0.494878 -9.470703,1.195313 -0.646409,-0.319615 -1.378275,-0.589369 -2.371094,-0.708985 -2.755253,-0.372242 -6.15121,0.548714 -10.011719,2.6621096 -0.596409,-0.233013 -1.501321,-0.403823 -2.49414,-0.523438 -2.432049,-0.212436 -4.997355,0.344575 -7.832031,1.634766 L 16.148294,4.9307214 C 15.748295,4.2379024 14.135071,1.2439474 10.943216,0.3154874 10.412207,0.1457514 9.7569203,0.0138704 8.9998573,0.0010344 Z m -0.08008,4.789062 c 0.202126,-0.003 0.399393,0.01167 0.591797,0.04492 1.1428177,0.379422 2.0300777,1.716714 2.3300777,2.236328 l 5.349609,9.2656246 7.59961,13.164063 4.24414,-2.451172 -6.300781,-10.910157 c 4.14711,-1.816986 6.22367,-0.821916 6.546875,-0.662109 l 0.42383,0.332033 4.699219,8.140625 4.24414,-2.449218 -4.15039,-7.1875 c 3.837303,-1.753589 5.873121,-1.42899 6.519531,-1.109376 l 4.75,8.228516 4.244141,-2.451172 -3.650391,-6.322265 c 4.023905,-1.630384 5.780585,0.01151 6.117188,0.394531 l 8.148437,14.117187 -0.259766,0.150391 c 1.449999,2.51147 3.162319,7.872839 2.613282,9.921875 -0.951665,3.551662 0.162775,8.683003 0.326171,9.166016 l 0.0625,0.308593 2.900391,5.023438 -24.769531,14.300781 C 40.776653,65.189422 39.90486,64.076633 38.808451,62.977596 35.369223,59.420678 32.432961,57.535893 29.81431,57.200252 26.202841,56.744997 19.101469,52.645667 16.675638,51.044002 l -0.322265,-0.158203 -0.324219,-0.160156 c -0.05,-0.0866 -6.7922137,-1.967849 -10.5644527,-5.101563 -0.473206,-0.419614 -0.723015,-0.852376 -0.466797,-1.808593 0.525832,-1.689229 2.540542,-3.199377 3.160156,-3.326172 1.8990357,0.28923 8.3315407,2.233839 12.0332027,3.445312 l 6.125,2.00586 -20.6503897,-35.765625 -0.05078,-0.08789 -0.04883,-0.08594 c -0.2,-0.3464106 -0.76403,-1.5222996 -0.507812,-2.4785156 0.133011,-0.769615 0.76284,-1.478907 1.888672,-2.128906 0.71447,-0.4125 1.366277,-0.59442 1.972656,-0.603516 z" /><path
     style="opacity:1;fill:#ffffff;fill-opacity:0.8"
     d="m 60.367785,27.320498 c 1.45,2.511473 3.160769,7.874613 2.611731,9.923651 -0.951666,3.551666 0.162694,8.681793 0.326091,9.164806 l 0.0634,0.309808 2.9,5.022947 -24.768327,14.3 c -0.723205,-0.852628 -1.59641,-1.965064 -2.69282,-3.064102 -3.439231,-3.556922 -6.374871,-5.4416 -8.993525,-5.777241 -3.611473,-0.455256 -10.712178,-4.554036 -13.138011,-6.155702 l -0.323205,-0.159808 -0.323205,-0.159808 c -0.05,-0.0866 -6.7935237,-1.966729 -10.5657667,-5.100446 -0.473206,-0.419615 -0.723206,-0.852628 -0.466988,-1.808846 0.525833,-1.68923 2.540897,-3.199038 3.160512,-3.325833 1.8990377,0.289231 8.3327547,2.232755 12.0344207,3.444229 l 6.123909,2.006922 -20.6499997,-35.766849 -0.05,-0.0866 -0.05,-0.0866 c -0.2,-0.3464106 -0.763397,-1.5222436 -0.507179,-2.4784606 0.133012,-0.769616 0.762435,-1.479423 1.888268,-2.129423 0.952628,-0.55 1.795448,-0.690193 2.565064,-0.55718 1.1428197,0.379423 2.0294227,1.715064 2.3294227,2.234679 l 5.35,9.2664716 v 0 l 7.6,13.163586 4.243524,-2.45 -6.3,-10.91192 c 4.147114,-1.816988 6.222947,-0.821539 6.546152,-0.661732 l 0.423206,0.333013 4.7,8.140639 4.243524,-2.45 -4.15,-7.188011 c 3.837307,-1.75359 5.872947,-1.427757 6.519358,-1.108142 l 4.75,8.227242 4.243524,-2.45 -3.65,-6.321986 c 4.023909,-1.630385 5.780127,0.01147 6.11673,0.394487 l 8.15,14.116214 z"
     id="path2" /></svg>
