<?xml version="1.0" encoding="UTF-8" standalone="no"?>
<svg
   version="1.1"
   viewBox="-5 -10 72.359497 88.029266"
   id="svg2"
   sodipodi:docname="noun-cursor-7236656.svg"
   width="72.359497"
   height="88.029266"
   inkscape:version="1.4 (86a8ad7, 2024-10-11)"
   xmlns:inkscape="http://www.inkscape.org/namespaces/inkscape"
   xmlns:sodipodi="http://sodipodi.sourceforge.net/DTD/sodipodi-0.dtd"
   xmlns="http://www.w3.org/2000/svg"
   xmlns:svg="http://www.w3.org/2000/svg">
  <defs
     id="defs2" />
  <sodipodi:namedview
     id="namedview2"
     pagecolor="#ffffff"
     bordercolor="#000000"
     borderopacity="0.25"
     inkscape:showpageshadow="2"
     inkscape:pageopacity="0.0"
     inkscape:pagecheckerboard="0"
     inkscape:deskcolor="#d1d1d1"
     inkscape:zoom="8.362963"
     inkscape:cx="36.231178"
     inkscape:cy="45.498229"
     inkscape:window-width="2560"
     inkscape:window-height="1346"
     inkscape:window-x="-11"
     inkscape:window-y="-11"
     inkscape:window-maximized="1"
     inkscape:current-layer="svg2" />
  <path
     d="m 67.3595,28.170265 v 18.734 c 0,17.188 -13.938,31.125 -31.125,31.125 -5.0312,0 -9.9062,-1.2188 -14.266,-3.4531 -4.3438,-2.2344 -8.1719,-5.5156 -11.094,-9.6094 l -14.562,-20.438 C -4.5625,43.309965 -5,41.872565 -5,40.419365 c 0,-1.9219 0.78125,-3.8438 2.2812,-5.2656 2.7656,-2.5625 7.125,-2.5 9.8281,0.14062 l 6.4844,6.3594 V -3.2992148 c 0,-1.875 0.75,-3.5312 1.9531,-4.75 1.3281,-1.2969 3.1406,-2.0625002 5.1875,-1.9375 3.6094,0.21875 6.2969,3.4531 6.2969,7.0625 L 27.01558,29.434785 c 0,0.78125 0.65625,1.4062 1.4219,1.4062 0.78125,0 1.4062,-0.625 1.4062,-1.4062 v -13.969 c 1.2812,-0.9375 2.875,-1.4531 4.6094,-1.2656 3.5156,0.35938 6.0312,3.5938 6.0312,7.1406 v 11.531 c 0,0.78125 0.625,1.4062 1.4062,1.4062 0.76562,0 1.4062,-0.625 1.4062,-1.4062 v -14 c 1.2656,-0.90625 2.8594,-1.3906 4.5625,-1.2344 3.5156,0.3125 6.0625,3.5469 6.0625,7.0781 v 11.625 c 0,0.78125 0.625,1.4062 1.4062,1.4062 0.76562,0 1.4062,-0.625 1.4062,-1.4062 v -14.031 c 1.2656,-0.90625 2.8594,-1.3906 4.5625,-1.2344 3.5156,0.3125 6.0625,3.5469 6.0625,7.0938 z"
     id="path1"
     style="fill:#ffffff" />
</svg>
