<?xml version="1.0" encoding="UTF-8" standalone="no"?>
<svg
   version="1.1"
   viewBox="-5 -10 110 110"
   id="svg3"
   sodipodi:docname="search.svg"
   xml:space="preserve"
   width="110"
   height="110"
   inkscape:version="1.3.1 (91b66b0783, 2023-11-16)"
   xmlns:inkscape="http://www.inkscape.org/namespaces/inkscape"
   xmlns:sodipodi="http://sodipodi.sourceforge.net/DTD/sodipodi-0.dtd"
   xmlns="http://www.w3.org/2000/svg"
   xmlns:svg="http://www.w3.org/2000/svg"><defs
     id="defs3" /><sodipodi:namedview
     id="namedview3"
     pagecolor="#ffffff"
     bordercolor="#000000"
     borderopacity="0.25"
     inkscape:showpageshadow="2"
     inkscape:pageopacity="0.0"
     inkscape:pagecheckerboard="0"
     inkscape:deskcolor="#d1d1d1"
     inkscape:zoom="4.1148148"
     inkscape:cx="79.590459"
     inkscape:cy="98.546355"
     inkscape:window-width="2560"
     inkscape:window-height="1346"
     inkscape:window-x="-11"
     inkscape:window-y="-11"
     inkscape:window-maximized="1"
     inkscape:current-layer="svg3" /><circle
     style="fill:#3b3560;fill-opacity:1;stroke-width:6;stroke-linecap:round;stroke-miterlimit:3.4;stroke-dashoffset:19.8539"
     id="path3"
     cx="50"
     cy="45"
     r="55" /><path
     d="m 29.362872,23.741625 c 7.662569,-7.493068 19.996017,-7.356337 27.490781,0.306781 7.099827,7.261417 7.345037,18.706682 0.83869,26.263596 l 3.067796,3.138421 0.918131,-0.898241 c 0.662126,-0.648851 1.72371,-0.635628 2.370356,0.02649 L 75.999568,64.80138 c 0.646646,0.662127 0.635628,1.721507 -0.02649,2.370357 l -4.233114,4.140398 c -0.662123,0.646641 -1.721504,0.635624 -2.370353,-0.02649 l -11.9532,-12.222708 c -0.646648,-0.662128 -0.635629,-1.72151 0.02648,-2.370358 l 0.91813,-0.898241 -3.067797,-3.138421 C 47.592797,58.994683 36.153747,58.493526 29.053921,51.232391 21.560849,43.569822 21.69758,31.236373 29.362909,23.74161 Z m 2.090059,25.14941 c 6.202037,6.343289 16.409379,6.455725 22.750407,0.253811 6.343287,-6.202037 6.455722,-16.409379 0.25381,-22.752667 -6.202037,-6.341028 -16.409379,-6.455724 -22.750407,-0.25381 -6.343288,6.202037 -6.455723,16.409379 -0.25381,22.752666 z"
     id="path1"
     style="fill:#ffffff;stroke-width:0.999999" /></svg>
