<?xml version="1.0" encoding="UTF-8" standalone="no"?>
<svg
   version="1.1"
   viewBox="-5 -10 52.954426 53.579544"
   id="svg3"
   sodipodi:docname="search_no_bg.svg"
   xml:space="preserve"
   width="52.954426"
   height="53.579544"
   inkscape:version="1.3.1 (91b66b0783, 2023-11-16)"
   xmlns:inkscape="http://www.inkscape.org/namespaces/inkscape"
   xmlns:sodipodi="http://sodipodi.sourceforge.net/DTD/sodipodi-0.dtd"
   xmlns="http://www.w3.org/2000/svg"
   xmlns:svg="http://www.w3.org/2000/svg"><defs
     id="defs3" /><sodipodi:namedview
     id="namedview3"
     pagecolor="#ffffff"
     bordercolor="#000000"
     borderopacity="0.25"
     inkscape:showpageshadow="2"
     inkscape:pageopacity="0.0"
     inkscape:pagecheckerboard="0"
     inkscape:deskcolor="#d1d1d1"
     inkscape:zoom="4.1148148"
     inkscape:cx="51.156616"
     inkscape:cy="70.355536"
     inkscape:window-width="2560"
     inkscape:window-height="1346"
     inkscape:window-x="-11"
     inkscape:window-y="-11"
     inkscape:window-maximized="1"
     inkscape:current-layer="svg3" /><path
     d="M 0.84008602,-4.4686041 C 8.502655,-11.961672 20.836103,-11.824941 28.330867,-4.1618231 c 7.099827,7.261417 7.345037,18.7066821 0.83869,26.2635961 l 3.067796,3.138421 0.918131,-0.898241 c 0.662126,-0.648851 1.72371,-0.635628 2.370356,0.02649 l 11.950942,12.222708 c 0.646646,0.662127 0.635628,1.721507 -0.02649,2.370357 l -4.233114,4.140398 c -0.662123,0.646641 -1.721504,0.635624 -2.370353,-0.02649 l -11.9532,-12.222708 c -0.646648,-0.662128 -0.635629,-1.72151 0.02648,-2.370358 l 0.91813,-0.898241 -3.067797,-3.138421 C 19.070011,30.784454 7.630961,30.283297 0.53113502,23.022162 -6.961937,15.359593 -6.825206,3.0261439 0.84012302,-4.4686191 Z M 2.930145,20.680806 c 6.202037,6.343289 16.409379,6.455725 22.750407,0.253811 6.343287,-6.202037 6.455722,-16.4093791 0.25381,-22.7526671 -6.202037,-6.341028 -16.409379,-6.455724 -22.750407,-0.25381 -6.343288,6.202037 -6.455723,16.4093791 -0.25381,22.7526661 z"
     id="path1"
     style="fill:#ffffff;stroke-width:0.999999" /></svg>
