<?xml version="1.0" encoding="UTF-8" standalone="no"?>
<!-- Generator: Adobe Illustrator 24.1.2, SVG Export Plug-In . SVG Version: 6.00 Build 0)  -->

<svg
   version="1.1"
   id="Layer_1"
   x="0px"
   y="0px"
   viewBox="0 0 685.4 161.60473"
   xml:space="preserve"
   sodipodi:docname="tu_delft_library12cf34694bc4.31feec7dc4fa.svg"
   width="685.40002"
   height="161.60474"
   inkscape:export-filename="..\Desktop\Github\Twin Shelves 2\src\res\tud_library_logo.svg"
   inkscape:export-xdpi="28.012838"
   inkscape:export-ydpi="28.012838"
   inkscape:version="1.3.1 (91b66b0783, 2023-11-16)"
   xmlns:inkscape="http://www.inkscape.org/namespaces/inkscape"
   xmlns:sodipodi="http://sodipodi.sourceforge.net/DTD/sodipodi-0.dtd"
   xmlns="http://www.w3.org/2000/svg"
   xmlns:svg="http://www.w3.org/2000/svg"><defs
   id="defs13" /><sodipodi:namedview
   id="namedview13"
   pagecolor="#ffffff"
   bordercolor="#000000"
   borderopacity="0.25"
   inkscape:showpageshadow="2"
   inkscape:pageopacity="0.0"
   inkscape:pagecheckerboard="0"
   inkscape:deskcolor="#d1d1d1"
   inkscape:zoom="1.3164112"
   inkscape:cx="318.66943"
   inkscape:cy="191.04973"
   inkscape:window-width="2560"
   inkscape:window-height="1346"
   inkscape:window-x="-11"
   inkscape:window-y="-11"
   inkscape:window-maximized="1"
   inkscape:current-layer="Layer_1" />
<style
   type="text/css"
   id="style1">
	.st0{fill:none;stroke:#000000;stroke-width:0.8;}
</style>
<g
   id="g6"
   style="fill:#ffffff"
   transform="translate(0,-59.195272)">
	<path
   d="m 89.9,168.2 c 7.8,0 12,-5.2 12,-12.4 v -36.9 h 16.5 v 37.8 c -0.2,16.6 -13.5,23.2 -28.5,23.2 -15.1,0 -28.4,-6.5 -28.5,-23.2 v -37.8 h 16.5 v 36.9 c 0,7.2 4.2,12.4 12,12.4 z"
   id="path1"
   style="fill:#ffffff" />
	<polygon
   points="53.6,118.9 0,118.9 0,130.4 18.5,130.4 18.5,178.5 35.1,178.5 35.1,130.4 53.6,130.4 "
   id="polygon1"
   style="fill:#ffffff" />
	<path
   d="m 58.2,89.8 c -4,1.3 -8.2,0.3 -8.2,-5.1 0,-8.2 19.3,-15.1 22,-22.3 0.7,-1.8 0.7,-3.3 -0.2,-3.2 -0.6,0 -0.1,0.9 -1.5,2.3 -8,8 -21.4,8 -31.7,12.6 -6.7,3 -26.5,12.3 -22,33.1 0.2,1 0.8,4.3 1.4,4.3 0.7,0 0.7,-2 0.7,-4.3 -0.2,-12.4 14.5,-15.8 19.2,-23.9 0.6,-1 1.6,-2.3 1.8,-1.7 0.1,0.3 0,0.8 -0.2,1.6 -1.5,6.6 -8.4,10.9 -6.5,15.6 2.5,6.2 9.9,1.6 12.2,-2.4 0.6,-1.1 0.9,-1.8 1.3,-1.6 0.3,0.1 0.3,1.4 0.1,2.5 -1.2,7.1 -2.8,11.1 -8.1,15.2 -1.7,1.3 -4.3,1.6 -4,2.6 0.1,0.3 1.2,0.2 2.1,0.1 13.9,-0.9 25.5,-17.3 28.6,-28 0.3,-0.8 0.4,-1.5 0.1,-1.7 -0.4,-0.3 -1,0.4 -1.7,1 -1.2,1.2 -3.3,2.7 -5.4,3.3 z"
   id="path2"
   style="fill:#ffffff" />
	<path
   d="m 199.4,153.8 c 0.1,-6.5 4,-12.3 10.5,-12.3 7.6,0 10.6,5.2 10.6,12.3 z m 29.4,5.5 v -3.9 c 0,-11.5 -6.5,-19.6 -18.3,-19.6 -13.1,0 -19.3,10.2 -19.3,22.3 0,12.2 5.3,21.7 18.6,21.7 9.9,0 17.2,-4.7 18.4,-14.1 H 220 c -0.9,6 -4,8.4 -10.1,8.4 -8,0 -10.7,-7.1 -10.7,-14.8 z"
   id="path3"
   style="fill:#ffffff" />
	<rect
   x="238.3"
   y="118.9"
   width="7.9000001"
   height="59.700001"
   id="rect3"
   style="fill:#ffffff" />
	<path
   d="m 270.8,178.5 v -36 h 9.6 V 137 h -9.6 v -6.7 c 0,-4.8 2.3,-5.6 6.8,-5.6 1.3,0 2.6,0.2 4,0.2 v -6.5 c -1.8,-0.4 -3.7,-0.8 -5.6,-0.8 -7.4,0 -13,3.7 -13,11.7 v 7.8 h -8.1 v 5.5 h 8.1 v 36 h 7.8 z"
   id="path4"
   style="fill:#ffffff" />
	<path
   d="m 284.9,137 v 5.5 H 292 V 169 c 0,5.5 0.1,10.8 11.7,10.8 1.8,0 3.5,-0.2 5.4,-0.5 v -6 c -1.3,0.3 -2.9,0.5 -4.1,0.5 -2.8,0 -5.1,-1.4 -5.1,-4.4 v -26.9 h 9.6 V 137 h -9.6 v -11.3 l -7.9,2.5 v 8.9 z"
   id="path5"
   style="fill:#ffffff" />
	<path
   d="m 135,178.5 h 20.5 c 25.5,0 28.2,-21.6 28.2,-29.8 0,-8.2 -2.7,-29.8 -28.2,-29.8 H 135 Z m 8.2,-52.5 h 12.2 c 13.8,0 19.5,10.4 19.5,22.7 0,12.3 -5.7,22.7 -19.5,22.7 h -12.2 z"
   id="path6"
   style="fill:#ffffff" />
</g>
<line
   class="st0"
   x1="384.60001"
   y1="18.004725"
   x2="384.60001"
   y2="161.60474"
   id="line6"
   style="fill:#ff5555;stroke:#ffffff;stroke-width:6;stroke-dasharray:none" />
<g
   id="g13"
   style="fill:#ffffff"
   transform="translate(0,-59.195272)">
	<path
   d="m 462.7,178.8 v -53.6 h 7.1 v 47.3 h 26.4 v 6.3 z"
   id="path7"
   style="fill:#ffffff" />
	<path
   d="m 503.8,132.8 v -7.6 h 6.6 v 7.6 z m 0,46 V 140 h 6.6 v 38.8 z"
   id="path8"
   style="fill:#ffffff" />
	<path
   d="m 526.5,178.8 h -6.1 v -53.6 h 6.6 v 19.1 c 2.8,-3.5 6.3,-5.2 10.6,-5.2 2.4,0 4.6,0.5 6.8,1.4 2.1,1 3.9,2.3 5.3,4.1 1.4,1.7 2.5,3.8 3.2,6.3 0.8,2.5 1.2,5.1 1.2,7.9 0,6.7 -1.6,11.8 -4.9,15.4 -3.3,3.6 -7.2,5.4 -11.8,5.4 -4.6,0 -8.2,-1.9 -10.8,-5.7 z m -0.1,-19.7 c 0,4.7 0.6,8 1.9,10.1 2.1,3.4 4.9,5.1 8.4,5.1 2.9,0 5.4,-1.2 7.5,-3.7 2.1,-2.5 3.1,-6.2 3.1,-11.2 0,-5.1 -1,-8.8 -3,-11.2 -2,-2.4 -4.4,-3.6 -7.3,-3.6 -2.9,0 -5.4,1.2 -7.5,3.7 -2.1,2.5 -3.1,6.1 -3.1,10.8 z"
   id="path9"
   style="fill:#ffffff" />
	<path
   d="M 562,178.8 V 140 h 5.9 v 5.9 c 1.5,-2.8 2.9,-4.6 4.2,-5.4 1.3,-0.9 2.7,-1.3 4.2,-1.3 2.2,0 4.5,0.7 6.8,2.1 l -2.3,6.1 c -1.6,-1 -3.2,-1.4 -4.8,-1.4 -1.4,0 -2.7,0.4 -3.9,1.3 -1.1,0.9 -2,2.1 -2.4,3.6 -0.7,2.3 -1.1,4.9 -1.1,7.7 v 20.3 H 562 Z"
   id="path10"
   style="fill:#ffffff" />
	<path
   d="m 612.3,174 c -2.4,2.1 -4.8,3.5 -7,4.4 -2.2,0.9 -4.7,1.3 -7.3,1.3 -4.3,0 -7.5,-1 -9.8,-3.1 -2.3,-2.1 -3.4,-4.7 -3.4,-8 0,-1.9 0.4,-3.6 1.3,-5.2 0.9,-1.6 2,-2.8 3.4,-3.8 1.4,-1 3,-1.7 4.7,-2.2 1.3,-0.3 3.2,-0.7 5.8,-1 5.3,-0.6 9.2,-1.4 11.7,-2.3 0,-0.9 0,-1.5 0,-1.7 0,-2.7 -0.6,-4.6 -1.9,-5.7 -1.7,-1.5 -4.2,-2.2 -7.5,-2.2 -3.1,0 -5.4,0.5 -6.9,1.6 -1.5,1.1 -2.6,3 -3.3,5.8 l -6.4,-0.9 c 0.6,-2.8 1.5,-5 2.9,-6.7 1.3,-1.7 3.3,-3 5.8,-3.9 2.5,-0.9 5.5,-1.4 8.8,-1.4 3.3,0 6,0.4 8.1,1.2 2.1,0.8 3.6,1.8 4.6,2.9 1,1.2 1.7,2.7 2,4.5 0.2,1.1 0.3,3.1 0.3,6.1 v 8.8 c 0,6.1 0.1,10 0.4,11.6 0.3,1.6 0.8,3.2 1.7,4.7 h -6.9 c -0.5,-1.4 -0.9,-3 -1.1,-4.8 z m -0.5,-14.7 c -2.4,1 -6,1.8 -10.7,2.5 -2.7,0.4 -4.6,0.8 -5.7,1.3 -1.1,0.5 -2,1.2 -2.6,2.1 -0.6,0.9 -0.9,2 -0.9,3.1 0,1.8 0.7,3.2 2,4.4 1.3,1.2 3.3,1.8 5.8,1.8 2.5,0 4.8,-0.6 6.8,-1.7 2,-1.1 3.4,-2.6 4.4,-4.6 0.7,-1.5 1.1,-3.7 1.1,-6.6 v -2.3 z"
   id="path11"
   style="fill:#ffffff" />
	<path
   d="M 628.5,178.8 V 140 h 5.9 v 5.9 c 1.5,-2.8 2.9,-4.6 4.2,-5.4 1.3,-0.9 2.7,-1.3 4.2,-1.3 2.2,0 4.5,0.7 6.8,2.1 l -2.3,6.1 c -1.6,-1 -3.2,-1.4 -4.8,-1.4 -1.4,0 -2.7,0.4 -3.9,1.3 -1.1,0.9 -2,2.1 -2.4,3.6 -0.7,2.3 -1.1,4.9 -1.1,7.7 v 20.3 h -6.6 z"
   id="path12"
   style="fill:#ffffff" />
	<path
   d="m 653.2,193.7 -0.7,-6.2 c 1.4,0.4 2.7,0.6 3.8,0.6 1.5,0 2.6,-0.2 3.5,-0.7 0.9,-0.5 1.6,-1.2 2.2,-2 0.4,-0.7 1.1,-2.3 2,-4.9 0.1,-0.4 0.3,-0.9 0.6,-1.6 L 649.8,140 h 7.1 l 8.1,22.5 c 1,2.9 2,5.8 2.8,9 0.8,-3 1.7,-6 2.7,-8.8 l 8.3,-22.6 h 6.6 l -14.8,39.5 c -1.6,4.3 -2.8,7.2 -3.7,8.8 -1.2,2.2 -2.5,3.8 -4,4.8 -1.5,1 -3.3,1.5 -5.4,1.5 -1.3,-0.2 -2.7,-0.4 -4.3,-1 z"
   id="path13"
   style="fill:#ffffff" />
</g>
</svg>
