<?xml version="1.0" encoding="UTF-8" standalone="no"?>
<svg
   xml:space="preserve"
   inkscape:version="1.3.2 (091e20e, 2023-11-25, custom)"
   sodipodi:docname="wall_vector.svg"
   id="svg3367"
   overflow="visible"
   viewBox="0 0 1003.3557 225.91679"
   height="225.66992"
   width="1002.8164"
   version="1.1"
   xmlns:inkscape="http://www.inkscape.org/namespaces/inkscape"
   xmlns:sodipodi="http://sodipodi.sourceforge.net/DTD/sodipodi-0.dtd"
   xmlns="http://www.w3.org/2000/svg"
   xmlns:svg="http://www.w3.org/2000/svg"
   xmlns:rdf="http://www.w3.org/1999/02/22-rdf-syntax-ns#"
   xmlns:cc="http://creativecommons.org/ns#"
   xmlns:dc="http://purl.org/dc/elements/1.1/"><metadata
     id="metadata8"><rdf:RDF><cc:Work
         rdf:about=""><dc:format>image/svg+xml</dc:format><dc:type
           rdf:resource="http://purl.org/dc/dcmitype/StillImage" /></cc:Work></rdf:RDF></metadata><defs
     id="defs3367" /><sodipodi:namedview
     showgrid="false"
     inkscape:document-rotation="0"
     inkscape:current-layer="svg3367"
     inkscape:window-maximized="1"
     inkscape:window-y="-9"
     inkscape:window-x="-9"
     inkscape:window-height="1001"
     inkscape:window-width="1920"
     inkscape:cy="81.431333"
     inkscape:cx="503.26031"
     inkscape:zoom="0.68155583"
     inkscape:deskcolor="#d1d1d1"
     inkscape:pagecheckerboard="0"
     inkscape:pageopacity="0.0"
     inkscape:showpageshadow="2"
     borderopacity="0.25"
     bordercolor="#000000"
     pagecolor="#ffffff"
     id="namedview3367" /><path
     id="path13649"
     d="m 580.45024,108.5494 v 32.602 h 15.87672 v -32.602 z m 0,36.712 v 32.602 h 15.87672 v -32.602 z M 19.473947,186.2261 v 32.602 h 26.93373 v -32.602 z m 560.976293,0 v 32.602 h 15.87672 v -32.602 z m 22.39752,0 v 32.602 h 15.87477 v -32.602 z m 236.65118,0 v 32.602 h 18.70989 v -32.602 z m 30.61744,0 v 32.602 h 17.01077 v -32.602 z"
     style="fill:#ffffff;fill-opacity:0.2" /><path
     id="rect2513"
     style="fill:#ffffff;fill-opacity:0.40000001;stroke:none;stroke-width:1.1351;stroke-linejoin:round;stroke-miterlimit:3.4;stroke-dashoffset:19.8539"
     d="M 766.83674 182.61166 L 766.83674 187.07552 L 779.12751 187.07552 L 779.12751 182.61166 L 766.83674 182.61166 z M 779.67694 182.61166 L 779.67694 187.07552 L 791.99705 187.07552 L 791.99705 182.61166 L 779.67694 182.61166 z M 766.83674 187.43138 L 766.83674 191.89524 L 779.12751 191.89524 L 779.12751 187.43138 L 766.83674 187.43138 z M 779.67499 187.43138 L 779.67499 191.89524 L 791.99705 191.89524 L 791.99705 187.43138 L 779.67499 187.43138 z M 792.35095 187.43138 L 792.35095 191.89524 L 804.75513 191.89524 L 804.75513 187.43138 L 792.35095 187.43138 z M 805.10903 187.43138 L 805.10903 191.89524 L 817.43109 191.89524 L 817.43109 187.43138 L 805.10903 187.43138 z M 766.83674 192.24914 L 766.83674 196.713 L 779.12751 196.713 L 779.12751 192.24914 L 766.83674 192.24914 z M 779.67499 192.24914 L 779.67499 196.71496 L 791.99705 196.71496 L 791.99705 192.24914 L 779.67499 192.24914 z M 793.14283 192.2511 L 793.14283 196.71496 L 798.75443 196.71496 L 798.75443 192.2511 L 793.14283 192.2511 z " /><rect
     style="fill:#ffffff;stroke-width:0.756733;stroke-linecap:round;stroke-linejoin:round;stroke-miterlimit:3.4;stroke-dashoffset:75.0384;fill-opacity:0.40000001"
     id="rect1"
     width="12.40426"
     height="9.2835493"
     x="243.77492"
     y="187.28867" /><path
     id="path3370"
     style="fill:#ffffff;stroke-width:1"
     d="M 1003.0656,1.7e-5 6.5215375,80.390663 h -6.80043 V 225.91677 H 962.38441 L 1003.6346,7.064436 Z M 996.31208,7.654881 956.50879,218.82903 H 6.8069495 V 87.478403 L 77.48578,81.776873 v 22.661457 h -1.828197 v 3.11671 h 1.828197 v 33.59531 h -1.830099 v 3.11861 h 1.830099 v 33.5934 h -1.834004 v 3.11861 h 1.834004 v 33.59341 h -1.836006 v 3.11861 H 577.368 v -3.11861 h -1.8302 v -33.59341 h 50.52591 v 33.59341 h -1.8281 v 3.11861 h 195.52415 v -3.11861 h -1.82819 v -33.59341 h 1.82819 v -3.11861 h -1.82819 v -33.5934 h 1.82819 v -3.11861 h -1.82819 v -33.59531 h 1.82819 v -3.11671 h -1.82819 V 70.843027 h 1.82819 v -3.118608 h -1.82819 V 22.043604 Z M 817.43102,22.084749 v 45.63967 h -37.73063 l 0.01,-42.595344 z m -38.30355,3.091277 V 67.724419 H 728.6387 V 29.248777 Z m -50.99903,4.113796 v 38.434597 h -50.5201 V 33.364574 Z m -51.03437,4.115897 v 34.3187 h -50.518 V 37.480472 Z m -51.02055,4.115797 V 67.724419 H 575.54761 V 41.598271 Z m -51.03626,4.1178 V 67.724419 H 524.53097 V 45.714068 Z m -51.03817,4.117699 V 67.724419 H 473.4986 V 49.829866 Z m -51.03037,4.115898 v 17.851506 h -50.522 V 53.947665 Z m -51.03036,4.117799 v 13.733707 h -50.5201 V 58.065465 Z M 370.908,58.10651 v 9.617909 h -2.2935 v 3.118608 h 2.2935 V 104.43833 H 358.58984 V 71.693656 h -0.35388 v 0.426167 H 345.8337 v -0.426167 h -0.35388 v 0.426167 h -12.40416 v -0.426167 h -0.35398 v 0.426167 H 320.3879 v -9.938561 z m -51.02846,4.115797 V 104.43833 H 269.36735 V 66.29706 Z M 268.8687,66.338104 V 104.43833 H 218.34279 V 70.414859 Z m -51.04007,4.1178 V 104.43833 H 167.30072 V 74.530653 Z m 153.58963,0.387123 h 50.52201 v 1.276796 h -12.31806 v -0.426167 h -0.35399 v 0.426167 h -12.40215 v -0.426167 h -0.35589 v 0.426167 h -12.40225 v -0.426167 h -0.35389 v 0.426167 h -12.33578 z m 51.03236,0 h 50.52001 v 1.276796 h -12.31806 v -0.426167 h -0.35399 v 0.426167 h -12.40415 v -0.426167 h -0.35389 v 0.426167 h -12.40225 v -0.426167 h -0.35579 v 0.426167 h -12.33188 z m 51.04989,0 h 50.50058 V 104.43833 H 498.92288 V 71.693656 H 498.569 v 0.426167 h -12.40225 v -0.426167 h -0.35389 v 0.426167 h -12.31235 z m 51.03046,0 h 50.50629 v 33.595303 h -50.5083 z m 51.01664,0 h 50.52591 v 1.276796 h -12.34359 v -0.426167 h -0.35388 v 0.426167 h -12.40416 v -0.426167 h -0.35388 v 0.426167 h -12.40225 v -0.412552 h -0.35589 v 32.731059 h -12.31226 z m 51.03036,0 h 50.51811 v 1.276796 H 664.7603 v -0.426167 h -0.35389 v 0.426167 h -12.40415 v -0.426167 h -0.35389 v 0.426167 h -12.40416 v -0.426167 h -0.35398 v 0.426167 h -12.31226 z m 51.03037,0 h 50.5201 v 1.276796 h -12.33778 v -0.426167 h -0.35579 v 0.426167 h -12.40225 v -0.426167 h -0.35389 v 0.426167 h -12.40415 v -0.426167 h -0.35399 v 0.426167 h -12.31225 z m 51.03036,0 h 50.48877 V 104.43833 H 766.81912 V 71.693656 h -0.35389 v 0.426167 h -12.40225 v -0.426167 h -0.35389 v 0.426167 h -12.40415 v -0.426167 h -0.35389 v 0.426167 H 728.6387 Z m 51.06169,0 h 37.73063 v 1.276796 h -2.68644 -9.65124 v -0.426167 h -0.35579 v 0.426167 h -2.39722 -10.00503 v -0.426167 h -0.35389 v 0.426167 H 779.70039 Z M 320.3899,72.473713 h 12.33378 v 4.46387 H 320.3899 Z m 12.68766,0 h 12.40416 v 4.46387 h -12.40416 z m 12.75815,0 h 12.40215 v 4.46387 h -12.40215 z m 25.58255,0 h 12.33578 v 4.46387 h -12.33578 z m 12.68967,0 h 12.40225 v 4.46387 h -12.40225 z m 12.75814,0 h 12.40215 v 4.46387 h -12.40215 z m 12.75614,0 h 12.31806 v 4.46387 h -12.31806 z m 12.82841,0 h 12.33188 v 4.46387 h -12.33188 z m 12.68767,0 h 12.40225 v 4.46387 h -12.40225 z m 12.75614,0 h 12.40415 v 4.46387 h -12.40415 z m 12.75814,0 h 12.31806 v 4.46387 h -12.31806 z m 12.84794,0 h 12.31235 v 4.46387 h -12.31235 z m 12.66814,0 h 12.40225 v 4.46387 h -12.40225 z m 102.04711,0 h 12.40225 v 4.46387 h -12.40225 z m 12.75613,0 h 12.40416 v 4.46387 h -12.40416 z m 12.75804,0 h 12.34359 v 4.46387 h -12.34359 z m 12.84804,0 h 12.31226 v 4.46387 h -12.31226 z m 12.66624,0 h 12.40416 v 4.46387 h -12.40416 z m 12.75805,0 h 12.40415 v 4.46387 h -12.40415 z m 12.75804,0 h 12.33578 v 4.46387 H 664.7603 Z m 12.84804,0 h 12.31225 v 4.46387 h -12.31225 z m 12.66624,0 h 12.40415 v 4.46387 h -12.40415 z m 12.75804,0 h 12.40225 v 4.46387 h -12.40225 z m 12.75804,0 h 12.33778 v 4.46387 h -12.33778 z m 12.84804,0 h 12.31235 v 4.46387 H 728.6387 Z m 12.66624,0 h 12.40415 v 4.46387 h -12.40415 z m 12.75804,0 h 12.40225 v 4.46387 h -12.40225 z m 25.63741,0 h 12.28102 v 4.46387 h -12.28302 z m 12.63491,0 h 10.00503 2.39722 v 4.46387 H 792.3353 Z m 12.75804,0 h 9.65124 2.68644 v 4.46387 h -12.33768 z m -638.30488,2.09809 v 29.866527 h -50.5201 V 78.648453 Z m 153.60144,2.72167 h 12.33378 v 4.46388 H 320.3899 Z m 12.68766,0 h 12.40416 v 4.46388 h -12.40416 z m 12.75815,0 h 12.40215 v 4.46388 h -12.40215 z m 25.58255,0 h 12.33578 v 4.46388 h -12.33578 z m 12.68967,0 h 12.40225 v 4.46388 h -12.40225 z m 12.75814,0 h 12.40215 v 4.46388 h -12.40215 z m 12.75614,0 h 12.31806 v 4.46388 h -12.31806 z m 12.82841,0 h 12.33188 v 4.46388 h -12.33188 z m 12.68767,0 h 12.40225 v 4.46388 h -12.40225 z m 12.75614,0 h 12.40415 v 4.46388 h -12.40415 z m 12.75814,0 h 12.31806 v 4.46388 h -12.31806 z m 12.84794,0 h 12.31235 v 4.46388 h -12.31235 z m 12.66814,0 h 12.40225 v 4.46388 h -12.40225 z m 102.04711,0 h 12.40225 v 4.46388 h -12.40225 z m 12.75613,0 h 12.40416 v 4.46388 h -12.40416 z m 12.75804,0 h 12.34359 v 4.46388 h -12.34359 z m 12.84804,0 h 12.31226 v 4.46388 h -12.31226 z m 12.66624,0 h 12.40416 v 4.46388 h -12.40416 z m 12.75805,0 h 12.40415 v 4.46388 h -12.40415 z m 12.75804,0 h 12.33578 v 4.46388 H 664.7603 Z m 12.84804,0 h 12.31225 v 4.46388 h -12.31225 z m 12.66624,0 h 12.40415 v 4.46388 h -12.40415 z m 12.75804,0 h 12.40225 v 4.46388 h -12.40225 z m 12.75804,0 h 12.33778 v 4.46388 h -12.33778 z m 12.84804,0 h 12.31235 v 4.46388 H 728.6387 Z m 12.66624,0 h 12.40415 v 4.46388 h -12.40415 z m 12.75804,0 h 12.40225 v 4.46388 h -12.40225 z m 25.63541,0 h 12.28302 v 4.46388 h -12.28302 z m 12.63691,0 h 12.40225 v 4.46388 H 792.3353 Z m 12.75804,0 h 12.33768 v 4.46388 h -12.33768 z m -689.01459,1.3706 -0.26979,0.024 -0.01,25.750727 H 77.995938 V 81.736303 Z m 204.31115,3.44917 h 12.33378 v 4.46378 H 320.3918 Z m 12.68766,0 h 12.40416 v 4.46378 h -12.40416 z m 12.75815,0 h 12.40215 v 4.46378 h -12.40215 z m 25.58255,0 h 12.33578 v 4.46378 h -12.33578 z m 12.68967,0 h 12.40225 v 4.46378 h -12.40225 z m 12.75814,0 h 12.40215 v 4.46378 h -12.40215 z m 12.75614,0 h 12.31806 v 4.46378 h -12.31806 z m 12.82841,0 h 12.33188 v 4.46378 h -12.33188 z m 12.68767,0 h 12.40225 v 4.46378 h -12.40225 z m 12.75614,0 h 12.40415 v 4.46378 h -12.40415 z m 12.75814,0 h 12.31806 v 4.46378 h -12.31806 z m 12.84794,0 h 12.31235 v 4.46378 h -12.31235 z m 12.66814,0 h 12.40225 v 4.46378 h -12.40225 z m 102.04711,0 h 12.40225 v 4.46378 h -12.40225 z m 12.75613,0 h 12.40416 v 4.46378 h -12.40416 z m 12.75804,0 h 12.34359 v 4.46378 h -12.34359 z m 12.84804,0 h 12.31226 v 4.46378 h -12.31226 z m 12.66624,0 h 12.40416 v 4.46378 h -12.40416 z m 12.75805,0 h 12.40415 v 4.46378 h -12.40415 z m 12.75804,0 h 12.33578 v 4.46378 H 664.7603 Z m 12.84804,0 h 12.31225 v 4.46378 h -12.31225 z m 12.66624,0 h 12.40415 v 4.46378 h -12.40415 z m 12.75804,0 h 12.40225 v 4.46378 h -12.40225 z m 12.75804,0 h 12.33778 v 4.46378 h -12.33778 z m 12.84804,0 h 12.31235 v 4.46378 H 728.6387 Z m 12.66624,0 h 12.40415 v 4.46378 h -12.40415 z m 12.75804,0 h 12.40225 v 4.46378 h -12.40225 z m 25.63541,0 h 12.28302 v 4.46378 h -12.28492 z m 12.63691,0 h 12.40225 v 4.46378 H 792.3353 Z m 12.75804,0 h 12.33768 v 4.46378 h -12.33768 z m -484.70154,4.81776 h 12.33188 v 4.46578 H 320.3918 Z m 12.68576,0 h 12.40416 v 4.46578 h -12.40416 z m 12.75815,0 h 12.40215 v 4.46578 h -12.40215 z m 25.58255,0 h 12.33578 v 4.46578 h -12.33378 z m 12.68967,0 h 12.40225 v 4.46578 h -12.40225 z m 12.75814,0 h 12.40215 v 4.46578 h -12.40215 z m 12.75614,0 h 12.31806 v 4.46578 H 409.6202 Z m 12.82841,0 h 12.33188 v 4.46578 h -12.32987 z m 12.68767,0 h 12.40225 v 4.46578 h -12.40225 z m 12.75614,0 h 12.40415 v 4.46578 h -12.40415 z m 12.75814,0 h 12.31806 v 4.46578 h -12.32007 z m 12.84794,0 h 12.31235 v 4.46578 H 473.4986 Z m 12.66814,0 h 12.40225 v 4.46578 h -12.40225 z m 102.04711,0 h 12.40225 v 4.46578 h -12.40225 z m 12.75613,0 h 12.40416 v 4.46578 h -12.40416 z m 12.75804,0 h 12.34359 v 4.46578 h -12.34359 z m 12.84804,0 h 12.31226 v 4.46578 h -12.31226 z m 12.66624,0 h 12.40416 v 4.46578 h -12.40416 z m 12.75805,0 h 12.40415 v 4.46578 h -12.40415 z m 12.75804,0 h 12.33578 v 4.46578 h -12.33769 z m 12.84804,0 h 12.31225 v 4.46578 h -12.31225 z m 12.66624,0 h 12.40415 v 4.46578 h -12.40415 z m 12.75804,0 h 12.40225 v 4.46578 h -12.40225 z m 12.75804,0 h 12.33778 v 4.46578 h -12.33778 z m 12.84804,0 h 12.31235 v 4.46578 H 728.6387 Z m 12.66624,0 h 12.40415 v 4.46578 h -12.40415 z m 12.75804,0 h 12.40225 v 4.46578 h -12.40225 z m 25.63351,0 h 12.28492 v 4.46578 h -12.28492 z m 12.63881,0 h 12.40225 v 4.46578 H 792.3353 Z m 12.75804,0 h 12.33768 v 4.46578 h -12.33768 z m -484.70154,4.81967 h 12.33188 v 4.46578 H 320.3918 Z m 12.68576,0 h 12.40416 v 4.46578 h -12.40416 z m 12.75815,0 h 12.40215 v 4.46578 h -12.40215 z m 25.58455,0 h 12.33378 v 4.46578 h -12.33378 z m 12.68767,0 h 12.40225 v 4.46578 h -12.40225 z m 12.75814,0 h 12.40215 v 4.46578 h -12.40215 z m 12.75614,0 h 12.32006 v 4.46578 h -12.32006 z m 12.83042,0 h 12.32987 v 4.46578 h -12.32987 z m 12.68566,0 h 12.40225 v 4.46578 h -12.40225 z m 12.75614,0 h 12.40415 v 4.46578 h -12.40415 z m 12.75814,0 h 12.32006 v 4.46578 h -12.32006 z m 12.84603,0 h 12.31426 v 4.46578 H 473.4986 Z m 12.67005,0 h 12.40225 v 4.46578 h -12.40225 z m 102.04711,0 h 12.40225 v 4.46578 h -12.40225 z m 12.75613,0 h 12.40416 v 4.46578 h -12.40416 z m 12.75804,0 h 12.34359 v 4.46578 h -12.34359 z m 12.84804,0 h 12.31226 v 4.46578 h -12.31226 z m 12.66624,0 h 12.40416 v 4.46578 h -12.40416 z m 12.75805,0 h 12.40415 v 4.46578 h -12.40415 z m 12.75804,0 h 12.33778 v 4.46578 H 664.7603 Z m 12.84804,0 h 12.31225 v 4.46578 h -12.31225 z m 12.66624,0 h 12.40415 v 4.46578 h -12.40415 z m 12.75804,0 h 12.40225 v 4.46578 h -12.40225 z m 12.75804,0 h 12.33778 v 4.46578 h -12.33778 z m 12.84804,0 h 12.31235 v 4.46578 H 728.6387 Z m 12.66624,0 h 12.40415 v 4.46578 h -12.40415 z m 12.75804,0 h 12.40225 v 4.46578 h -12.40225 z m 25.63351,0 h 12.28492 v 4.46578 h -12.28692 z m 12.63881,0 h 12.40225 v 4.46578 H 792.3353 Z m 12.75804,0 h 12.33768 v 4.46578 h -12.33768 z m -484.70154,4.81977 h 12.33188 v 4.465777 H 320.3918 Z m 12.68576,0 h 12.40416 v 4.465777 h -12.40416 z m 12.75815,0 h 12.40215 v 4.465777 h -12.40215 z m 25.58455,0 h 12.33378 v 4.465777 h -12.33378 z m 12.68767,0 h 12.40225 v 4.465777 h -12.40225 z m 12.75814,0 h 12.40215 v 4.465777 h -12.40215 z m 12.75614,0 h 12.32006 v 4.465777 h -12.32006 z m 12.83042,0 h 12.32987 v 4.465777 h -12.32987 z m 12.68566,0 h 12.40225 v 4.465777 h -12.40225 z m 12.75614,0 h 12.40415 v 4.465777 h -12.40415 z m 12.75814,0 h 12.32006 v 4.465777 h -12.32006 z m 12.84603,0 h 12.31426 v 4.465777 H 473.4986 Z m 12.67005,0 h 12.40225 v 4.465777 h -12.40225 z m 102.04711,0 h 12.40225 v 4.465777 h -12.40225 z m 12.75613,0 h 12.40416 v 4.465777 h -12.40416 z m 12.75804,0 h 12.34359 v 4.465777 h -12.34359 z m 12.84804,0 h 12.31226 v 4.465777 h -12.31226 z m 12.66624,0 h 12.40416 v 4.465777 h -12.40416 z m 12.75805,0 h 12.40415 v 4.465777 h -12.40415 z m 12.75804,0 h 12.33778 v 4.465777 H 664.7603 Z m 12.84804,0 h 12.31225 v 4.465777 h -12.31225 z m 12.66624,0 h 12.40415 v 4.465777 h -12.40415 z m 12.75804,0 h 12.40225 v 4.465777 h -12.40225 z m 12.75804,0 h 12.33778 v 4.465777 h -12.33778 z m 12.84804,0 h 12.31235 v 4.465777 H 728.6387 Z m 12.66624,0 h 12.40415 v 4.465777 h -12.40415 z m 12.75804,0 h 12.40225 v 4.465777 h -12.40225 z m 25.63151,0 h 12.28692 v 4.465777 h -12.28883 z m 12.64081,0 h 12.40225 v 4.465777 H 792.3353 Z m 12.75804,0 h 12.33768 v 4.465777 H 805.09334 Z M 320.3918,101.3901 h 12.33188 v 3.04823 H 320.3918 Z m 12.68576,0 h 12.40416 v 3.04823 h -12.40416 z m 12.75815,0 h 12.40215 v 3.04823 h -12.40215 z m 25.58455,0 h 12.33378 v 3.04823 h -12.33378 z m 12.68767,0 h 12.40225 v 3.04823 h -12.40225 z m 12.75814,0 h 12.40215 v 3.04823 h -12.40215 z m 12.75614,0 h 12.32006 v 3.04823 h -12.32006 z m 12.83042,0 h 12.32987 v 3.04823 h -12.32987 z m 12.68566,0 h 12.40225 v 3.04823 h -12.40225 z m 12.75614,0 h 12.40415 v 3.04823 h -12.40415 z m 12.75814,0 h 12.32006 v 3.04823 h -12.32006 z m 12.84603,0 h 12.31426 v 3.04823 H 473.4986 Z m 12.67005,0 h 12.40225 v 3.04823 h -12.40225 z m 102.04711,0 h 12.40225 v 3.04823 h -12.40225 z m 12.75613,0 h 12.40416 v 3.04823 h -12.40416 z m 12.75804,0 h 12.34359 v 3.04823 h -12.34359 z m 12.84804,0 h 12.31226 v 3.04823 h -12.31226 z m 12.66624,0 h 12.40416 v 3.04823 h -12.40416 z m 12.75805,0 h 12.40415 v 3.04823 h -12.40415 z m 12.75804,0 h 12.33778 v 3.04823 H 664.7603 Z m 12.84804,0 h 12.31225 v 3.04823 h -12.31225 z m 12.66624,0 h 12.40415 v 3.04823 h -12.40415 z m 12.75804,0 h 12.40225 v 3.04823 h -12.40225 z m 12.75804,0 h 12.33778 v 3.04823 h -12.33778 z m 12.84804,0 h 12.31235 v 3.04823 H 728.6387 Z m 12.66624,0 h 12.40415 v 3.04823 h -12.40415 z m 12.75804,0 h 12.40225 v 3.04823 h -12.40225 z m 25.6296,0 h 12.28883 v 3.04823 h -12.28883 z m 12.64272,0 h 12.40225 v 3.04823 H 792.3353 Z m 12.75804,0 h 12.33768 v 3.04823 h -12.33768 z m -727.095299,6.16494 h 37.803009 v 1.13404 h -12.35921 v -0.42427 h -0.35388 v 0.42427 H 90.685704 v -0.42427 h -0.355789 v 0.42427 H 77.99804 Z m 38.272319,0 h 50.52 v 1.13404 H 154.4722 v -0.42427 h -0.35388 v 0.42427 h -12.40216 v -0.42427 h -0.35589 v 0.42427 h -12.40225 v -0.42427 h -0.35388 v 0.42427 h -12.33378 z m 51.03036,0 h 50.52791 v 1.13404 h -12.32597 v -0.42427 h -0.35398 v 32.74278 h 0.35398 v -3.04623 h 12.32597 v 3.18899 h -50.52591 v -3.18899 h 12.32987 v 3.04623 h 0.35579 v -3.04623 h 12.40226 v 3.04623 h 0.35388 v -32.74278 h -0.35388 v 0.42427 h -12.40226 v -0.42427 h -0.35579 v 0.42427 h -12.33187 z m 51.03817,0 h 50.52591 v 1.13404 h -12.33178 v -0.42427 h -0.35388 v 0.42427 h -12.40426 v -0.42427 H 243.421 v 0.42427 h -12.40416 v -0.42427 h -0.35388 v 0.42427 h -12.32407 z m 51.03036,0 h 50.5123 v 1.13404 h -12.31816 v -0.42427 h -0.35589 v 0.42427 h -12.40226 v -0.42427 h -0.35388 v 0.42427 H 282.0472 v -0.42427 h -0.35388 v 0.42427 h -12.32407 z m 51.02255,0 h 50.52011 v 1.13404 h -12.32017 v -0.42427 h -0.35388 v 0.42427 h -12.40215 v -0.42427 h -0.35399 v 0.42427 h -12.40416 v -0.42427 h -0.35388 v 0.42427 H 320.3918 Z m 51.03036,0 h 50.52011 v 1.13404 h -12.32006 v -0.42427 h -0.35399 v 0.42427 h -12.40215 v -0.42427 h -0.35589 v 32.74278 h 0.35589 v -3.04623 h 12.40215 v 3.04623 h 0.35399 v -3.04623 h 12.32196 v 3.18899 h -50.52 v -3.18899 h 12.32987 v 3.04623 h 0.35389 v -32.74278 h -0.35389 v 0.42427 h -12.33188 z m 51.03047,0 h 50.52 v 1.13404 h -12.32006 v -0.42427 h -0.35399 v 0.42427 h -12.40415 v -0.42427 h -0.35389 v 0.42427 h -12.40225 v -0.42427 h -0.35579 v 0.42427 h -12.32987 z m 51.04597,0 h 50.50439 v 1.13404 h -12.32006 v -0.42427 h -0.35389 v 0.42427 h -12.40425 v -0.42427 h -0.35389 v 0.42427 h -12.40225 v -0.42427 h -0.35389 v 0.42427 h -12.31425 z m 51.02846,0 h 50.5102 v 33.59531 h -50.5122 z m 51.02055,0 h 50.52591 v 1.27679 h -12.32797 v -0.42626 h -0.35388 v 0.42626 h -12.40216 v -0.42626 h -0.35398 v 32.74478 h -25.08792 z m 51.03036,0 h 50.52011 v 1.27679 h -12.32207 v -0.42626 h -0.35398 v 0.42626 h -12.40216 v -0.42626 h -0.35588 v 0.42626 h -12.40226 v -0.42626 h -0.35388 v 0.42626 h -12.32988 z m 51.03037,0 h 50.5201 v 1.27679 h -12.32207 v -0.42626 h -0.35388 v 0.42626 h -12.40426 v -0.42626 h -0.35388 v 0.42626 h -12.40226 v -0.42626 h -0.35578 v 0.42626 h -12.32797 z m 51.03036,0 h 50.48877 v 1.27679 h -12.29073 v -0.42626 h -0.35389 v 0.42626 h -12.40426 v -0.42626 h -0.35388 v 0.42626 h -12.40416 v -0.42626 h -0.35388 v 32.74478 H 728.6387 Z m 51.05388,0 h 37.73844 v 1.27679 h -12.32196 v -0.42626 h -0.35399 v 0.42626 h -12.40416 v -0.42626 h -0.35388 v 0.42626 h -12.30445 z m -701.694539,1.48993 h 12.331875 v 4.46388 H 77.99804 Z m 12.687664,0 h 12.402255 v 4.46388 H 90.685704 Z m 12.756135,0 h 12.35921 v 4.46388 h -12.3572 z m 12.82852,0 h 12.33378 v 4.46388 h -12.33378 z m 12.68766,0 h 12.40225 v 4.46388 h -12.40225 z m 12.75814,0 h 12.40216 v 4.46388 h -12.40216 z m 12.75604,0 h 12.31816 v 4.46388 H 154.4722 Z m 12.82852,0 h 12.33187 v 4.46388 h -12.33187 z m 12.68766,0 h 12.40226 v 4.46388 h -12.40226 z m 25.51428,0 h 12.32597 v 4.46388 h -12.32597 z m 12.83623,0 h 12.32407 v 4.46388 h -12.32407 z m 12.67795,0 H 243.421 v 4.46388 h -12.40416 z m 12.75804,0 h 12.40426 v 4.46388 h -12.40426 z m 12.75814,0 h 12.33178 v 4.46388 h -12.33178 z m 12.83623,0 h 12.32407 v 4.46388 h -12.32407 z m 12.67795,0 h 12.40416 v 4.46388 H 282.0472 Z m 12.75804,0 h 12.40226 v 4.46388 h -12.40226 z m 12.75815,0 h 12.31816 v 4.46388 h -12.31816 z m 12.82841,0 h 12.33188 v 4.46388 H 320.3918 Z m 12.68576,0 h 12.40416 v 4.46388 h -12.40416 z m 12.75815,0 h 12.40215 v 4.46388 h -12.40215 z m 12.75603,0 h 12.32017 v 4.46388 h -12.32017 z m 12.83042,0 h 12.33188 v 4.46388 h -12.33188 z m 25.44391,0 h 12.40215 v 4.46388 h -12.40215 z m 12.75614,0 h 12.32006 v 4.46388 h -12.32006 z m 12.83042,0 h 12.32987 v 4.46388 h -12.32987 z m 12.68566,0 h 12.40225 v 4.46388 h -12.40225 z m 12.75614,0 h 12.40415 v 4.46388 h -12.40415 z m 12.75814,0 h 12.32006 v 4.46388 h -12.32006 z m 12.84603,0 h 12.31426 v 4.46388 H 473.4986 Z m 12.67005,0 h 12.40225 v 4.46388 h -12.40225 z m 12.75614,0 h 12.40425 v 4.46388 h -12.40425 z m 12.75814,0 h 12.32006 v 4.46388 h -12.32006 z m 89.30658,0.14075 h 12.40216 v 4.46588 h -12.40216 z m 12.75604,0 h 12.32797 v 4.46588 h -12.32797 z m 12.83242,0 h 12.32988 v 4.46588 h -12.32988 z m 12.68376,0 h 12.40226 v 4.46588 h -12.40226 z m 12.75814,0 h 12.40216 v 4.46588 h -12.40216 z m 12.75614,0 h 12.32207 v 4.46588 h -12.32207 z m 12.83233,0 h 12.32797 v 4.46588 h -12.32797 z m 12.68375,0 h 12.40226 v 4.46588 h -12.40226 z m 12.75614,0 h 12.40426 v 4.46588 h -12.40426 z m 12.75814,0 h 12.32207 v 4.46588 h -12.32207 z m 25.51418,0 h 12.40416 v 4.46588 h -12.40416 z m 12.75804,0 h 12.40426 v 4.46588 h -12.40426 z m 12.75815,0 h 12.29073 v 4.46588 h -12.29073 z m 12.85584,0 h 12.30445 v 4.46588 h -12.30645 z m 12.65833,0 h 12.40416 v 4.46588 h -12.40416 z m 12.75815,0 h 12.32196 v 4.46588 h -12.32196 z m -727.111019,4.67901 h 12.331875 v 4.46378 H 77.99804 Z m 12.687664,0 h 12.402255 v 4.46378 H 90.685704 Z m 12.756135,0 h 12.35731 v 4.46378 h -12.3553 z m 12.82852,0 h 12.33378 v 4.46378 h -12.33378 z m 12.68766,0 h 12.40225 v 4.46378 h -12.40225 z m 12.75814,0 h 12.40216 v 4.46378 h -12.40216 z m 12.75604,0 h 12.31816 v 4.46378 H 154.4722 Z m 12.82852,0 h 12.33187 v 4.46378 h -12.33187 z m 12.68766,0 h 12.40226 v 4.46378 h -12.40226 z m 25.51428,0 h 12.32597 v 4.46378 h -12.32597 z m 12.83623,0 h 12.32407 v 4.46378 h -12.32407 z m 12.67795,0 H 243.421 v 4.46378 h -12.40416 z m 12.75804,0 h 12.40426 v 4.46378 h -12.40426 z m 12.75814,0 h 12.33178 v 4.46378 h -12.33178 z m 12.83623,0 h 12.32407 v 4.46378 h -12.32407 z m 12.67795,0 h 12.40416 v 4.46378 H 282.0472 Z m 12.75804,0 h 12.40226 v 4.46378 h -12.40226 z m 12.75815,0 h 12.31816 v 4.46378 h -12.31816 z m 12.82841,0 h 12.33188 v 4.46378 H 320.3918 Z m 12.68576,0 h 12.40416 v 4.46378 h -12.40416 z m 12.75815,0 h 12.40215 v 4.46378 h -12.40215 z m 12.75603,0 h 12.32017 v 4.46378 h -12.32017 z m 12.83042,0 h 12.33188 v 4.46378 h -12.33188 z m 25.44391,0 h 12.40215 v 4.46378 h -12.40215 z m 12.75614,0 h 12.32006 v 4.46378 h -12.32006 z m 12.83042,0 h 12.32987 v 4.46378 h -12.32987 z m 12.68566,0 h 12.40225 v 4.46378 h -12.40225 z m 12.75614,0 h 12.40415 v 4.46378 h -12.40415 z m 12.75814,0 h 12.32006 v 4.46378 h -12.32006 z m 12.84603,0 h 12.31426 v 4.46378 H 473.4966 Z m 12.67005,0 h 12.40225 v 4.46378 h -12.40225 z m 12.75614,0 h 12.40425 v 4.46378 h -12.40425 z m 12.75814,0 h 12.32006 v 4.46378 h -12.32006 z m 89.30658,0.14076 h 12.40216 v 4.46578 h -12.40216 z m 12.75604,0 h 12.32797 v 4.46578 h -12.32797 z m 12.83242,0 h 12.32988 v 4.46578 h -12.32988 z m 12.68376,0 h 12.40226 v 4.46578 h -12.40226 z m 12.75814,0 h 12.40216 v 4.46578 h -12.40216 z m 12.75614,0 h 12.32207 v 4.46578 h -12.32207 z m 12.83233,0 h 12.32797 v 4.46578 h -12.32797 z m 12.68375,0 h 12.40226 v 4.46578 h -12.40226 z m 12.75614,0 h 12.40426 v 4.46578 h -12.40426 z m 12.75814,0 h 12.32207 v 4.46578 h -12.32207 z m 25.51418,0 h 12.40416 v 4.46578 h -12.40416 z m 12.75804,0 h 12.40426 v 4.46578 h -12.40426 z m 12.75815,0 h 12.29073 v 4.46578 h -12.29073 z m 12.85384,0 h 12.30645 v 4.46578 h -12.30645 z m 12.66033,0 h 12.40416 v 4.46578 h -12.40416 z m 12.75815,0 h 12.32196 v 4.46578 H 805.10906 Z M 77.998041,118.6825 h 12.331875 v 4.46578 H 77.99804 Z m 12.687664,0 h 12.402255 v 4.46578 H 90.685704 Z m 12.756135,0 h 12.3553 v 4.46578 h -12.35329 z m 12.82852,0 h 12.33378 v 4.46578 h -12.33378 z m 12.68766,0 h 12.40225 v 4.46578 h -12.40225 z m 12.75814,0 h 12.40216 v 4.46578 h -12.40216 z m 12.75604,0 h 12.31816 v 4.46578 H 154.4722 Z m 12.82852,0 h 12.33187 v 4.46578 h -12.33187 z m 12.68766,0 h 12.40226 v 4.46578 h -12.40226 z m 25.51428,0 h 12.32597 v 4.46578 h -12.32597 z m 12.83623,0 h 12.32407 v 4.46578 h -12.32407 z m 12.67795,0 H 243.421 v 4.46578 h -12.40416 z m 12.75804,0 h 12.40426 v 4.46578 h -12.40426 z m 12.75814,0 h 12.33178 v 4.46578 h -12.33178 z m 12.83623,0 h 12.32407 v 4.46578 h -12.32407 z m 12.67795,0 h 12.40416 v 4.46578 H 282.0472 Z m 12.75804,0 h 12.40226 v 4.46578 h -12.40226 z m 12.75815,0 h 12.31816 v 4.46578 h -12.31816 z m 12.82841,0 h 12.33188 v 4.46578 H 320.3918 Z m 12.68576,0 h 12.40416 v 4.46578 h -12.40416 z m 12.75815,0 h 12.40215 v 4.46578 h -12.40215 z m 12.75603,0 h 12.32017 v 4.46578 h -12.32017 z m 12.83042,0 h 12.33188 v 4.46578 h -12.33188 z m 25.44391,0 h 12.40215 v 4.46578 h -12.40215 z m 12.75614,0 h 12.32006 v 4.46578 h -12.32006 z m 12.83042,0 h 12.32987 v 4.46578 h -12.32987 z m 12.68566,0 h 12.40225 v 4.46578 h -12.40225 z m 12.75614,0 h 12.40415 v 4.46578 h -12.40415 z m 12.75814,0 h 12.32006 v 4.46578 h -12.32006 z m 12.84403,0 h 12.31626 v 4.46578 H 473.4966 Z m 12.67205,0 h 12.40225 v 4.46578 h -12.40225 z m 12.75614,0 h 12.40425 v 4.46578 h -12.40425 z m 12.75814,0 h 12.32006 v 4.46578 h -12.32006 z m 89.30658,0.14265 h 12.40216 v 4.46388 h -12.40216 z m 12.75604,0 h 12.32797 v 4.46388 h -12.32797 z m 12.83242,0 h 12.32988 v 4.46388 h -12.32988 z m 12.68376,0 h 12.40226 v 4.46388 h -12.40226 z m 12.75814,0 h 12.40216 v 4.46388 h -12.40216 z m 12.75614,0 h 12.32207 v 4.46388 h -12.32207 z m 12.83233,0 h 12.32797 v 4.46388 h -12.32797 z m 12.68375,0 h 12.40226 v 4.46388 h -12.40226 z m 12.75614,0 h 12.40426 v 4.46388 h -12.40426 z m 12.75814,0 h 12.32207 v 4.46388 h -12.32207 z m 25.51418,0 h 12.40416 v 4.46388 h -12.40416 z m 12.75804,0 h 12.40426 v 4.46388 h -12.40426 z m 12.75815,0 h 12.29073 v 4.46388 h -12.29073 z m 12.85384,0 h 12.30645 v 4.46388 h -12.30835 z m 12.66033,0 h 12.40416 v 4.46388 h -12.40416 z m 12.75815,0 h 12.32196 v 4.46388 h -12.32196 z m -727.111019,4.67701 h 12.331875 v 4.46578 H 78.000042 Z m 12.687664,0 h 12.402255 v 4.46578 H 90.685704 Z m 12.756135,0 h 12.3534 v 4.46578 h -12.35139 z m 12.82852,0 h 12.33378 v 4.46578 h -12.33188 z m 12.68766,0 h 12.40225 v 4.46578 h -12.40225 z m 12.75814,0 h 12.40216 v 4.46578 h -12.40216 z m 12.75604,0 h 12.31816 v 4.46578 H 154.4703 Z m 12.82852,0 h 12.33187 v 4.46578 h -12.32987 z m 12.68766,0 h 12.40226 v 4.46578 h -12.40226 z m 25.51428,0 h 12.32597 v 4.46578 h -12.32597 z m 12.83623,0 h 12.32407 v 4.46578 h -12.32407 z m 12.67795,0 H 243.421 v 4.46578 h -12.40416 z m 12.75804,0 h 12.40426 v 4.46578 h -12.40426 z m 12.75814,0 h 12.33178 v 4.46578 h -12.32987 z m 12.83623,0 h 12.32407 v 4.46578 h -12.32597 z m 12.67795,0 h 12.40416 v 4.46578 H 282.0472 Z m 12.75804,0 h 12.40226 v 4.46578 h -12.40226 z m 12.75815,0 h 12.31816 v 4.46578 h -12.32017 z m 12.82841,0 h 12.33188 v 4.46578 h -12.32987 z m 12.68576,0 h 12.40416 v 4.46578 h -12.40416 z m 12.75815,0 h 12.40215 v 4.46578 h -12.40215 z m 12.75603,0 h 12.32017 v 4.46578 h -12.32207 z m 12.83042,0 h 12.33188 v 4.46578 h -12.32987 z m 25.44391,0 h 12.40215 v 4.46578 h -12.40215 z m 12.75614,0 h 12.32006 v 4.46578 H 409.6202 Z m 12.83042,0 h 12.32987 v 4.46578 h -12.32797 z m 12.68566,0 h 12.40225 v 4.46578 h -12.40225 z m 12.75614,0 h 12.40415 v 4.46578 h -12.40415 z m 12.75814,0 h 12.32006 v 4.46578 h -12.32207 z m 12.84403,0 h 12.31626 v 4.46578 H 473.4966 Z m 12.67205,0 h 12.40225 v 4.46578 h -12.40225 z m 12.75614,0 h 12.40425 v 4.46578 h -12.40425 z m 12.75814,0 h 12.32006 v 4.46578 h -12.32206 z m 89.30658,0.14276 h 12.40216 v 4.46388 h -12.40216 z m 12.75604,0 h 12.32797 v 4.46388 h -12.32797 z m 12.83242,0 h 12.32988 v 4.46388 h -12.32988 z m 12.68376,0 h 12.40226 v 4.46388 h -12.40226 z m 12.75814,0 h 12.40216 v 4.46388 h -12.40216 z m 12.75614,0 h 12.32207 v 4.46388 h -12.32407 z m 12.83233,0 h 12.32797 v 4.46388 h -12.32797 z m 12.68375,0 h 12.40226 v 4.46388 h -12.40226 z m 12.75614,0 h 12.40426 v 4.46388 h -12.40426 z m 12.75814,0 h 12.32207 v 4.46388 h -12.32207 z m 25.51418,0 h 12.40416 v 4.46388 h -12.40416 z m 12.75804,0 h 12.40426 v 4.46388 h -12.40426 z m 12.75815,0 h 12.29073 v 4.46388 h -12.29073 z m 12.85194,0 h 12.30835 v 4.46388 h -12.30835 z m 12.66223,0 h 12.40416 v 4.46388 h -12.40416 z m 12.75815,0 h 12.32196 v 4.46388 h -12.32196 z m -727.109017,4.67701 h 12.329873 v 4.46578 H 78.000042 Z m 12.685662,0 h 12.402255 v 4.46578 H 90.685704 Z m 12.756135,0 h 12.3514 v 4.46578 h -12.34939 z m 12.83042,0 h 12.33188 v 4.46578 h -12.33188 z m 12.68576,0 h 12.40225 v 4.46578 h -12.40225 z m 12.75814,0 h 12.40216 v 4.46578 h -12.40216 z m 12.75604,0 h 12.32016 v 4.46578 H 154.4722 Z m 12.83052,0 h 12.32987 v 4.46578 h -12.32987 z m 12.68566,0 h 12.40226 v 4.46578 h -12.40226 z m 25.51428,0 h 12.32597 v 4.46578 h -12.32597 z m 12.83623,0 h 12.32407 v 4.46578 h -12.32407 z m 12.67795,0 H 243.421 v 4.46578 h -12.40416 z m 12.75804,0 h 12.40426 v 4.46578 h -12.40426 z m 12.75814,0 h 12.32988 v 4.46578 h -12.32988 z m 12.83433,0 h 12.32597 v 4.46578 h -12.32597 z m 12.67985,0 h 12.40416 v 4.46578 H 282.0472 Z m 12.75804,0 h 12.40226 v 4.46578 h -12.40226 z m 12.75815,0 h 12.32006 v 4.46578 h -12.32006 z m 12.83042,0 h 12.32987 v 4.46578 h -12.32987 z m 12.68375,0 h 12.40416 v 4.46578 h -12.40416 z m 12.75815,0 h 12.40215 v 4.46578 h -12.40215 z m 12.75603,0 h 12.32207 v 4.46578 h -12.32207 z m 12.83243,0 h 12.32987 v 4.46578 h -12.32987 z m 25.4419,0 h 12.40215 v 4.46578 h -12.40215 z m 12.75614,0 h 12.32196 v 4.46578 h -12.32196 z m 12.83232,0 h 12.32797 v 4.46578 h -12.32797 z m 12.68376,0 h 12.40225 v 4.46578 h -12.40225 z m 12.75614,0 h 12.40415 v 4.46578 h -12.40415 z m 12.75814,0 h 12.32206 v 4.46578 h -12.32206 z m 12.84403,0 h 12.31626 v 4.46578 H 473.4947 Z m 12.67205,0 h 12.40225 v 4.46578 h -12.40225 z m 12.75614,0 h 12.40425 v 4.46578 h -12.40425 z m 12.75814,0 h 12.32206 v 4.46578 h -12.32206 z m 89.30658,0.14266 h 12.40216 v 4.46388 h -12.40216 z m 12.75604,0 h 12.32797 v 4.46388 h -12.32797 z m 12.83242,0 h 12.32988 v 4.46388 h -12.32988 z m 12.68376,0 h 12.40226 v 4.46388 h -12.40226 z m 12.75814,0 h 12.40216 v 4.46388 h -12.40216 z m 12.75614,0 h 12.32397 v 4.46388 h -12.32397 z m 12.83233,0 h 12.32797 v 4.46388 h -12.32797 z m 12.68375,0 h 12.40226 v 4.46388 h -12.40226 z m 12.75614,0 h 12.40426 v 4.46388 h -12.40426 z m 12.75814,0 h 12.32207 v 4.46388 h -12.32207 z m 25.51418,0 h 12.40416 v 4.46388 h -12.40416 z m 12.75804,0 h 12.40426 v 4.46388 h -12.40426 z m 12.75815,0 h 12.29073 v 4.46388 h -12.29073 z m 12.85194,0 h 12.30835 v 4.46388 h -12.31035 z m 12.66223,0 h 12.40416 v 4.46388 h -12.40416 z m 12.75815,0 h 12.32196 v 4.46388 H 805.10906 Z M 78.000043,133.1416 h 12.329873 v 4.46388 H 78.000042 Z m 12.685662,0 h 12.402255 v 4.46388 H 90.685704 Z m 12.756135,0 h 12.3495 v 4.46388 h -12.3495 z m 12.83042,0 h 12.33188 v 4.46388 h -12.33188 z m 12.68576,0 h 12.40225 v 4.46388 h -12.40225 z m 12.75814,0 h 12.40216 v 4.46388 h -12.40216 z m 12.75604,0 h 12.32016 v 4.46388 H 154.4722 Z m 12.83052,0 h 12.32987 v 4.46388 h -12.32987 z m 12.68566,0 h 12.40226 v 4.46388 h -12.40226 z m 25.51428,0 h 12.32597 v 4.46388 h -12.32597 z m 12.83623,0 h 12.32407 v 4.46388 h -12.32407 z m 12.67795,0 H 243.421 v 4.46388 h -12.40416 z m 12.75804,0 h 12.40426 v 4.46388 h -12.40426 z m 12.75814,0 h 12.32988 v 4.46388 h -12.32988 z m 12.83433,0 h 12.32597 v 4.46388 h -12.32597 z m 12.67985,0 h 12.40416 v 4.46388 H 282.0472 Z m 12.75804,0 h 12.40226 v 4.46388 h -12.40226 z m 12.75815,0 h 12.32006 v 4.46388 h -12.32006 z m 12.83042,0 h 12.32987 v 4.46388 h -12.32987 z m 12.68375,0 h 12.40416 v 4.46388 h -12.40416 z m 12.75815,0 h 12.40215 v 4.46388 h -12.40215 z m 12.75603,0 h 12.32207 v 4.46388 h -12.32207 z m 12.83243,0 h 12.32987 v 4.46388 h -12.32987 z m 25.4419,0 h 12.40215 v 4.46388 h -12.40215 z m 12.75614,0 h 12.32196 v 4.46388 h -12.32196 z m 12.83232,0 h 12.32797 v 4.46388 h -12.32797 z m 12.68376,0 h 12.40225 v 4.46388 h -12.40225 z m 12.75614,0 h 12.40415 v 4.46388 h -12.40415 z m 12.75814,0 h 12.32206 v 4.46388 h -12.32206 z m 12.84213,0 h 12.31816 v 4.46388 H 473.4947 Z m 12.67395,0 h 12.40225 v 4.46388 h -12.40225 z m 12.75614,0 h 12.40425 v 4.46388 h -12.40425 z m 12.75814,0 h 12.32206 v 4.46388 h -12.32206 z m 89.30658,0.14075 h 12.40216 v 4.46588 h -12.40216 z m 12.75604,0 h 12.32797 v 4.46588 h -12.32797 z m 12.83242,0 h 12.32988 v 4.46588 h -12.32988 z m 12.68376,0 h 12.40226 v 4.46588 h -12.40226 z m 12.75814,0 h 12.40216 v 4.46588 h -12.40216 z m 12.75614,0 h 12.32397 v 4.46588 h -12.32397 z m 12.83233,0 h 12.32797 v 4.46588 h -12.32797 z m 12.68375,0 h 12.40226 v 4.46588 h -12.40226 z m 12.75614,0 h 12.40426 v 4.46588 h -12.40426 z m 12.75814,0 h 12.32207 v 4.46588 h -12.32207 z m 25.51418,0 h 12.40416 v 4.46588 h -12.40416 z m 12.75804,0 h 12.40426 v 4.46588 h -12.40426 z m 12.75815,0 h 12.29073 v 4.46588 h -12.29073 z m 12.84994,0 h 12.31035 v 4.46588 h -12.31226 z m 12.66423,0 h 12.40416 v 4.46588 h -12.40416 z m 12.75815,0 h 12.32196 v 4.46588 h -12.32196 z m -727.109017,4.67901 h 12.329873 v 3.04623 h 0.355789 v -3.04623 h 12.402255 v 3.04623 h 0.35388 v -3.04623 h 12.3495 v 3.18899 H 78.001944 Z m 38.272217,0 h 12.33188 v 3.04623 h 0.35388 v -3.04623 h 12.40225 v 3.04623 h 0.35589 v -3.04623 h 12.40216 v 3.04623 h 0.35388 v -3.04623 h 12.32016 v 3.18899 h -50.5201 z m 102.06663,0 h 12.32407 v 3.04623 h 0.35388 v -3.04623 H 243.421 v 3.04623 h 0.35388 v -3.04623 h 12.40426 v 3.04623 h 0.35388 v -3.04623 h 12.32988 v 3.18899 h -50.52401 z m 51.02846,0 h 12.32597 v 3.04623 h 0.35388 v -3.04623 h 12.40416 v 3.04623 h 0.35388 v -3.04623 h 12.40226 v 3.04623 h 0.35589 v -3.04623 h 12.32006 v 3.18899 h -50.5161 z m 51.02646,0 h 12.32987 v 3.04623 h 0.35388 v -3.04623 h 12.40416 v 3.04623 h 0.35399 v -3.04623 h 12.40215 v 3.04623 h 0.35388 v -3.04623 h 12.32207 v 3.18899 h -50.52 z m 102.06072,0 h 12.32797 v 3.04623 h 0.35579 v -3.04623 h 12.40225 v 3.04623 h 0.35389 v -3.04623 h 12.40415 v 3.04623 h 0.35399 v -3.04623 h 12.32206 v 3.18899 h -50.5201 z m 51.04017,0 h 12.31816 v 3.04623 h 0.35389 v -3.04623 H 498.569 v 3.04623 h 0.35388 v -3.04623 h 12.40416 v 3.04623 h 0.35389 v -3.04623 h 12.32206 v 3.18899 H 473.4927 Z m 127.49481,0.14076 h 12.40216 v 3.04823 h -12.40216 z m 12.75604,0 h 12.32797 v 3.04823 h -12.32797 z m 12.83242,0 h 12.32988 v 3.04823 h -12.32988 z m 12.68376,0 h 12.40226 v 3.04823 h -12.40226 z m 12.75814,0 h 12.40216 v 3.04823 h -12.40216 z m 12.75614,0 h 12.32397 v 3.04823 h -12.32397 z m 12.83233,0 h 12.32797 v 3.04823 h -12.32797 z m 12.68375,0 h 12.40226 v 3.04823 h -12.40226 z m 12.75614,0 h 12.40426 v 3.04823 h -12.40426 z m 12.75814,0 h 12.32207 v 3.04823 h -12.32207 z m 25.51418,0 h 12.40416 v 3.04823 h -12.40416 z m 12.75804,0 h 12.40426 v 3.04823 h -12.40426 z m 12.75815,0 h 12.29073 v 3.04823 h -12.29073 z m 12.84803,0 h 12.31226 v 3.04823 h -12.31226 z m 12.66614,0 h 12.40416 v 3.04823 h -12.40416 z m 12.75815,0 h 12.32196 v 3.04823 h -12.32196 z m -727.109017,6.16684 h 37.789297 l -0.01,33.5934 H 78.003646 v -3.18908 h 12.325969 v 3.04833 h 0.355789 v -3.04833 h 12.402256 v 3.04833 h 0.35388 v -32.74478 h -0.35388 v 0.42627 H 90.685404 v -0.42627 h -0.355789 v 0.42627 H 77.999742 Z m 38.272217,0 h 50.5201 v 1.13414 H 154.4722 v -0.42627 h -0.35388 v 0.42627 h -12.40216 v -0.42627 h -0.35589 v 0.42627 h -12.40225 v -0.42627 h -0.35388 v 0.42627 h -12.33188 z m 51.03046,0 h 50.52591 v 1.13414 h -12.32597 v -0.42627 h -0.35398 v 0.42627 h -12.40416 v -0.42627 h -0.35388 v 0.42627 h -12.40226 v -0.42627 h -0.35579 v 0.42627 h -12.32987 z m 51.03617,0 h 50.52401 v 1.13414 h -12.32988 v -0.42627 h -0.35388 v 0.42627 h -12.40426 v -0.42627 H 243.421 v 0.42627 h -12.40416 v -0.42627 h -0.35388 v 0.42627 h -12.32407 z m 51.02846,0 h 50.5161 v 1.13414 h -12.32006 v -0.42627 h -0.35589 v 0.42627 h -12.40226 v -0.42627 h -0.35388 v 0.42627 H 282.0472 v -0.42627 h -0.35388 v 32.74478 h 0.35388 v -3.04833 h 12.40416 v 3.04833 h 0.35388 v -3.04833 h 12.40226 v 3.04833 h 0.35589 v -3.04833 h 12.32206 v 3.18908 h -50.5181 z m 51.02646,0 h 50.52 v 1.13414 h -12.32207 v -0.42627 h -0.35388 v 0.42627 h -12.40215 v -0.42627 h -0.35399 v 0.42627 h -12.40416 v -0.42627 h -0.35388 v 0.42627 h -12.32987 z m 51.03036,0 h 50.52 v 1.13414 h -12.32196 v -0.42627 h -0.35399 v 0.42627 h -12.40215 v -0.42627 h -0.35589 v 0.42627 h -12.40225 v -0.42627 h -0.35389 v 0.42627 h -12.32987 z m 51.03036,0 h 50.5201 v 1.13414 h -12.32206 v -0.42627 h -0.35399 v 0.42627 h -12.40415 v -0.42627 h -0.35389 v 32.74478 h 0.35389 v -3.04833 h 12.40415 v 3.04833 h 0.35399 v -3.04833 h 12.32396 v 3.18908 h -50.52 v -3.18908 h 12.32597 v 3.04833 h 0.35579 v -32.74478 h -0.35579 v 0.42627 h -12.32797 z m 51.04017,0 h 50.51029 v 1.13414 h -12.32206 v -0.42627 h -0.35389 v 0.42627 h -12.40425 v -0.42627 h -0.35389 v 0.42627 h -12.40225 v -0.42627 h -0.35389 v 0.42627 H 473.4966 Z m 51.03036,0 h 50.5122 v 33.5934 h -50.5142 v -3.18908 h 12.32016 v 3.04833 h 0.35389 v -3.04833 h 12.40415 v 3.04833 h 0.35389 v -3.04833 h 12.40225 v 3.04833 h 0.35589 v -32.74478 h -0.35589 v 0.42627 h -12.40225 v -0.42627 h -0.35389 v 0.42627 h -12.40415 v -0.42627 h -0.35389 v 0.42627 h -12.31816 z m 51.02255,0 h 50.52591 v 1.27489 h -12.32797 v -0.42426 h -0.35388 v 32.74277 h -37.84406 z m 51.03036,0 h 50.52201 v 1.27489 h -12.32397 v -0.42426 h -0.35398 v 0.42426 h -12.40216 v -0.42426 h -0.35588 v 0.42426 h -12.40226 v -0.42426 h -0.35388 v 0.42426 h -12.32988 z m 51.03037,0 h 50.5201 v 1.27489 h -12.32207 v -0.42426 h -0.35388 v 0.42426 h -12.40426 v -0.42426 h -0.35388 v 0.42426 h -12.40226 v -0.42426 h -0.35578 v 0.42426 h -12.32797 z m 51.03036,0 h 50.48877 v 1.27489 h -12.29073 v -0.42426 h -0.35389 v 32.74277 h -12.40426 v -32.74277 h -0.35388 v 0.42426 h -12.40416 v -0.42426 h -0.35388 v 0.42426 H 728.6387 Z m 51.04607,0 h 37.74625 v 1.27489 h -12.32196 v -0.42426 h -0.35399 v 0.42426 h -12.40416 v -0.42426 h -0.35388 v 0.42426 h -12.31226 z m -701.684727,1.48802 h 12.329873 v 4.46578 H 78.000042 Z m 12.685662,0 h 12.402255 v 4.46578 H 90.685704 Z m 25.586555,0 h 12.33188 v 4.46578 0.35389 4.46388 h -12.32987 v -4.46388 -0.35389 z m 12.68576,0 h 12.40225 v 4.46578 h -12.40024 v 0.35389 h 12.40024 v 4.46588 h -12.40225 v -4.46588 -0.35389 z m 12.75814,0 h 12.40216 v 3.10299 h 0.018 v 6.18056 h -0.018 v 0.35589 h 0.018 v 4.46387 h -12.41977 v -4.46387 -0.35589 -4.46388 h 12.40216 v -0.35389 h -12.40216 v -1.36279 z m 12.75604,0 h 12.32016 v 4.46578 H 154.4722 Z m 12.83052,0 h 12.32987 v 4.46578 h -12.32987 z m 12.68566,0 h 12.40226 v 4.46578 h -12.40226 z m 12.75614,0 h 12.40416 v 4.46578 h -12.40416 z m 12.75814,0 h 12.32597 v 4.46578 h -12.32597 z m 12.83623,0 h 12.32407 v 4.46578 h -12.32407 z m 12.67795,0 H 243.421 v 4.46578 h -12.40416 z m 12.75804,0 h 12.40426 v 4.46578 h -12.40426 z m 12.75814,0 h 12.32988 v 4.46578 h -12.32988 z m 25.51418,0 h 12.40416 v 4.46578 H 282.0472 Z m 12.75804,0 h 12.40226 v 4.46578 h -12.40226 z m 12.75815,0 h 12.32006 v 4.46578 h -12.32006 z m 12.83042,0 h 12.32987 v 4.46578 h -12.32987 z m 12.68375,0 h 12.40416 v 4.46578 h -12.40416 z m 12.75815,0 h 12.40215 v 4.46578 h -12.40215 z m 12.75603,0 h 12.32207 v 4.46578 h -12.32207 z m 12.83243,0 h 12.32987 v 4.46578 h -12.32987 z m 12.68376,0 h 12.40225 v 4.46578 h -12.40225 z m 12.75814,0 h 12.40215 v 4.46578 h -12.40215 z m 12.75614,0 h 12.32196 v 4.46578 h -12.32196 z m 12.83232,0 h 12.32797 v 4.46578 h -12.32797 z m 25.4399,0 h 12.40415 v 4.46578 h -12.40415 z m 12.75814,0 h 12.32206 v 4.46578 h -12.32206 z m 12.84213,0 h 12.31816 v 4.46578 H 473.4947 Z m 12.67395,0 h 12.40225 v 4.46578 h -12.40225 z m 12.75614,0 h 12.40425 v 4.46578 h -12.40425 z m 12.75814,0 h 12.32206 v 4.46578 h -12.32206 z m 12.84213,0 h 12.31816 v 4.46578 h -12.31816 z m 12.67205,0 h 12.40415 v 4.46578 h -12.40415 z m 12.75804,0 h 12.40225 v 4.46578 h -12.40225 z m 63.7904,0.14076 h 12.32797 v 4.46578 h -12.32797 z m 12.83242,0 h 12.32988 v 4.46578 h -12.32988 z m 12.68376,0 h 12.40226 v 4.46578 h -12.40226 z m 12.75814,0 h 12.40216 v 4.46578 h -12.40216 z m 12.75614,0 h 12.32397 v 4.46578 h -12.32397 z m 12.83233,0 h 12.32797 v 4.46578 h -12.32797 z m 12.68375,0 h 12.40226 v 4.46578 h -12.40226 z m 12.75614,0 h 12.40426 v 4.46578 h -12.40426 z m 12.75814,0 h 12.32207 v 4.46578 h -12.32207 z m 12.83233,0 h 12.32797 v 4.46578 H 728.6387 Z m 12.68185,0 h 12.40416 v 4.46578 h -12.40416 z m 25.51619,0 h 12.29073 v 4.46578 h -12.29073 z m 12.84803,0 h 12.31226 v 4.46578 h -12.31426 z m 12.66614,0 h 12.40416 v 4.46578 h -12.40416 z m 12.75815,0 h 12.32196 v 4.46578 h -12.32196 z m -727.109017,4.67891 h 12.329873 v 4.46388 H 78.001944 Z m 12.685662,0 h 12.402255 v 4.46388 H 90.685704 Z m 63.786495,0 h 12.32016 v 4.46388 H 154.4703 Z m 12.83052,0 h 12.32987 v 4.46388 h -12.32797 z m 12.68566,0 h 12.40226 v 4.46388 h -12.40226 z m 12.75614,0 h 12.40416 v 4.46388 h -12.40416 z m 12.75814,0 h 12.32597 v 4.46388 h -12.32597 z m 12.83623,0 h 12.32407 v 4.46388 h -12.32407 z m 12.67795,0 H 243.421 v 4.46388 h -12.40416 z m 12.75804,0 h 12.40426 v 4.46388 h -12.40426 z m 12.75814,0 h 12.32988 v 4.46388 h -12.32797 z m 25.51418,0 h 12.40416 v 4.46388 H 282.0472 Z m 12.75804,0 h 12.40226 v 4.46388 h -12.40226 z m 12.75815,0 h 12.32006 v 4.46388 h -12.32006 z m 12.83042,0 h 12.32987 v 4.46388 h -12.32987 z m 12.68375,0 h 12.40416 v 4.46388 h -12.40416 z m 12.75815,0 h 12.40215 v 4.46388 h -12.40215 z m 12.75603,0 h 12.32207 v 4.46388 h -12.32207 z m 12.83243,0 h 12.32987 v 4.46388 h -12.32987 z m 12.68376,0 h 12.40225 v 4.46388 h -12.40225 z m 12.75814,0 h 12.40215 v 4.46388 h -12.40215 z m 12.75614,0 h 12.32196 v 4.46388 h -12.32196 z m 12.83232,0 h 12.32797 v 4.46388 h -12.32797 z m 25.4399,0 h 12.40415 v 4.46388 h -12.40415 z m 12.75814,0 h 12.32206 v 4.46388 h -12.32206 z m 12.84213,0 h 12.31816 v 4.46388 H 473.4947 Z m 12.67395,0 h 12.40225 v 4.46388 h -12.40225 z m 12.75614,0 h 12.40425 v 4.46388 h -12.40425 z m 12.75814,0 h 12.32206 v 4.46388 h -12.32206 z m 12.84213,0 h 12.31816 v 4.46388 h -12.31816 z m 12.67205,0 h 12.40415 v 4.46388 h -12.40415 z m 12.75804,0 h 12.40225 v 4.46388 h -12.40225 z m 63.7904,0.14085 h 12.32797 v 4.46578 h -12.32797 z m 12.83242,0 h 12.32988 v 4.46578 h -12.32988 z m 12.68376,0 h 12.40226 v 4.46578 h -12.40226 z m 12.75814,0 h 12.40216 v 4.46578 h -12.40216 z m 12.75614,0 h 12.32397 v 4.46578 h -12.32397 z m 12.83233,0 h 12.32797 v 4.46578 h -12.32797 z m 12.68375,0 h 12.40226 v 4.46578 h -12.40226 z m 12.75614,0 h 12.40426 v 4.46578 h -12.40426 z m 12.75814,0 h 12.32207 v 4.46578 h -12.32207 z m 12.83233,0 h 12.32797 v 4.46578 H 728.6387 Z m 12.68185,0 h 12.40416 v 4.46578 h -12.40416 z m 25.51619,0 h 12.29073 v 4.46578 h -12.29073 z m 12.84603,0 h 12.31426 v 4.46578 h -12.31426 z m 12.66814,0 h 12.40416 v 4.46578 h -12.40416 z m 12.75815,0 h 12.32196 v 4.46578 h -12.32196 z m -727.107115,4.67892 h 12.327971 v 4.46387 H 78.001944 Z m 12.68376,0 h 12.402255 v 4.46387 H 90.685704 Z m 25.588565,0 h 12.32987 v 4.46387 0.35389 4.46578 h -12.32987 v -4.46578 -0.35389 z m 12.68375,0 h 12.40225 v 4.46387 0.35389 3.58201 0 0.88377 0 0.35389 0 9.28554 0 h -12.40225 v -9.28554 -0.35389 -0.88377 -3.58201 z m 25.51418,0 h 12.32207 v 4.46387 H 154.4722 Z m 12.83242,0 h 12.32797 v 4.46387 h -12.32797 z m 12.68376,0 h 12.40226 v 4.46387 h -12.40226 z m 12.75614,0 h 12.40416 v 4.46387 h -12.40416 z m 12.75814,0 h 12.32597 v 4.46387 h -12.32597 z m 12.83623,0 h 12.32407 v 4.46387 h -12.32407 z m 12.67795,0 H 243.421 v 4.46387 h -12.40416 z m 12.75804,0 h 12.40426 v 4.46387 h -12.40426 z m 12.75814,0 h 12.32787 v 4.46387 h -12.32787 z m 25.51418,0 h 12.40416 v 4.46387 H 282.0472 Z m 12.75804,0 h 12.40226 v 4.46387 h -12.40226 z m 12.75815,0 h 12.32006 v 4.46387 h -12.32006 z m 12.83042,0 h 12.32987 v 4.46387 h -12.32987 z m 12.68375,0 h 12.40416 v 4.46387 h -12.40416 z m 12.75815,0 h 12.40215 v 4.46387 h -12.40215 z m 12.75603,0 h 12.32207 v 4.46387 h -12.32207 z m 12.83243,0 h 12.32987 v 4.46387 h -12.32987 z m 12.68376,0 h 12.40225 v 4.46387 h -12.40225 z m 12.75814,0 h 12.40215 v 4.46387 h -12.40215 z m 12.75614,0 h 12.32196 v 4.46387 h -12.32196 z m 12.83232,0 h 12.32797 v 4.46387 h -12.32797 z m 25.4399,0 h 12.40415 v 4.46387 h -12.40415 z m 12.75814,0 h 12.32206 v 4.46387 h -12.32206 z m 12.84213,0 h 12.31816 v 4.46387 H 473.4947 Z m 12.67395,0 h 12.40225 v 4.46387 h -12.40225 z m 12.75614,0 h 12.40425 v 4.46387 h -12.40425 z m 12.75814,0 h 12.32206 v 4.46387 h -12.32206 z m 12.84213,0 h 12.31816 v 4.46387 h -12.31816 z m 12.67205,0 h 12.40415 v 4.46387 h -12.40415 z m 12.75804,0 h 12.40225 v 4.46387 h -12.40225 z m 63.7904,0.14075 h 12.32797 v 4.46578 h -12.32797 z m 12.83242,0 h 12.32988 v 4.46578 h -12.32988 z m 12.68376,0 h 12.40226 v 4.46578 h -12.40226 z m 12.75814,0 h 12.40216 v 4.46578 h -12.40216 z m 12.75614,0 h 12.32397 v 4.46578 h -12.32397 z m 12.83233,0 h 12.32797 v 4.46578 h -12.32797 z m 12.68375,0 h 12.40226 v 4.46578 h -12.40226 z m 12.75614,0 h 12.40426 v 4.46578 h -12.40426 z m 12.75814,0 h 12.32207 v 4.46578 h -12.32207 z m 12.83233,0 h 12.32797 v 4.46578 H 728.6387 Z m 12.68185,0 h 12.40416 v 4.46578 h -12.40416 z m 25.51619,0 h 12.29073 v 4.46578 h -12.29073 z m 12.84603,0 h 12.31426 v 4.46578 h -12.31616 z m 12.66814,0 h 12.40416 v 4.46578 h -12.40416 z m 12.75815,0 h 12.32196 v 4.46578 h -12.32196 z m -727.107115,4.67701 h 12.327971 v 4.46578 H 78.001944 Z m 12.68376,0 h 12.402255 v 4.46578 H 90.685704 Z m 51.030455,0 h 12.41977 v 4.46388 h -0.018 v 0.35579 h 0.018 v 4.81976 h -0.018 v 4.46578 h -12.40215 v -4.46578 h 12.40025 v -0.35388 h -12.40025 v -2.79215 -1.67373 -0.35579 z m 12.75604,0 h 12.32207 v 4.46578 H 154.4722 Z m 12.83242,0 h 12.32797 v 4.46578 h -12.32797 z m 12.68376,0 h 12.40226 v 4.46578 h -12.40226 z m 12.75614,0 h 12.40416 v 4.46578 h -12.40416 z m 12.75814,0 h 12.32597 v 4.46578 h -12.32597 z m 12.83623,0 h 12.32407 v 4.46578 h -12.32407 z m 12.67795,0 H 243.421 v 4.46578 h -12.40416 z m 12.75804,0 h 12.40426 v 4.46578 h -12.40426 z m 12.75814,0 h 12.32787 v 4.46578 h -12.32787 z m 25.51418,0 h 12.40416 v 4.46578 H 282.0472 Z m 12.75804,0 h 12.40226 v 4.46578 h -12.40226 z m 12.75815,0 h 12.32006 v 4.46578 h -12.32207 z m 12.83042,0 h 12.32987 v 4.46578 h -12.32797 z m 12.68375,0 h 12.40416 v 4.46578 h -12.40416 z m 12.75815,0 h 12.40215 v 4.46578 h -12.40215 z m 12.75603,0 h 12.32207 v 4.46578 h -12.32397 z m 12.83243,0 h 12.32987 v 4.46578 h -12.32787 z m 12.68376,0 h 12.40225 v 4.46578 h -12.40225 z m 12.75814,0 h 12.40215 v 4.46578 h -12.40215 z m 12.75614,0 h 12.32196 v 4.46578 H 409.6202 Z m 12.83232,0 h 12.32797 v 4.46578 h -12.32597 z m 25.4399,0 h 12.40415 v 4.46578 h -12.40415 z m 12.75814,0 h 12.32206 v 4.46578 h -12.32407 z m 12.84213,0 h 12.31816 v 4.46578 H 473.4927 Z m 12.67395,0 h 12.40225 v 4.46578 h -12.40225 z m 12.75614,0 h 12.40425 v 4.46578 h -12.40425 z m 12.75814,0 h 12.32206 v 4.46578 h -12.32406 z m 12.84213,0 h 12.31816 v 4.46578 h -12.32016 z m 12.67205,0 h 12.40415 v 4.46578 h -12.40415 z m 12.75804,0 h 12.40225 v 4.46578 h -12.40225 z m 63.7904,0.14276 h 12.32797 v 4.46578 h -12.32797 z m 12.83242,0 h 12.32988 v 4.46578 h -12.32988 z m 12.68376,0 h 12.40226 v 4.46578 h -12.40226 z m 12.75814,0 h 12.40216 v 4.46578 h -12.40216 z m 12.75614,0 h 12.32397 v 4.46578 h -12.32597 z m 12.83233,0 h 12.32797 v 4.46578 h -12.32797 z m 12.68375,0 h 12.40226 v 4.46578 h -12.40226 z m 12.75614,0 h 12.40426 v 4.46578 h -12.40426 z m 12.75814,0 h 12.32207 v 4.46578 h -12.32207 z m 12.83233,0 h 12.32797 v 4.46578 H 728.6387 Z m 12.68185,0 h 12.40416 v 4.46578 h -12.40416 z m 25.51619,0 h 12.29073 v 4.46578 h -12.29073 z m 12.84413,0 h 12.31616 v 4.46578 h -12.31616 z m 12.67004,0 h 12.40416 v 4.46578 h -12.40416 z m 12.75815,0 h 12.32196 v 4.46578 h -12.32196 z m -727.107115,4.67691 h 12.327971 v 4.46588 H 78.003947 Z m 12.68376,0 h 12.402255 v 4.46588 H 90.685704 Z m 25.588565,0 h 12.32987 v 4.46588 0.35388 4.46578 h -12.32797 z m 38.19793,0 h 12.32207 v 4.46588 H 154.4703 Z m 12.83242,0 h 12.32797 v 4.46588 h -12.32596 z m 12.68376,0 h 12.40226 v 4.46588 h -12.40226 z m 12.75614,0 h 12.40416 v 4.46588 h -12.40416 z m 12.75814,0 h 12.32597 v 4.46588 h -12.32597 z m 12.83623,0 h 12.32407 v 4.46588 h -12.32407 z m 12.67795,0 H 243.421 v 4.46588 h -12.40416 z m 12.75804,0 h 12.40426 v 4.46588 h -12.40426 z m 12.75814,0 h 12.32787 v 4.46588 h -12.32596 z m 25.51418,0 h 12.40416 v 4.46588 H 282.0472 Z m 12.75804,0 h 12.40226 v 4.46588 h -12.40226 z m 12.75815,0 h 12.32206 v 4.46588 h -12.32206 z m 12.83232,0 h 12.32797 v 4.46588 h -12.32797 z m 12.68185,0 h 12.40416 v 4.46588 h -12.40416 z m 12.75815,0 h 12.40215 v 4.46588 h -12.40215 z m 12.75603,0 h 12.32407 v 4.46588 h -12.32407 z m 12.83443,0 h 12.32787 v 4.46588 h -12.32787 z m 12.68176,0 h 12.40225 v 4.46588 h -12.40225 z m 12.75814,0 h 12.40215 v 4.46588 h -12.40215 z m 12.75614,0 h 12.32396 v 4.46588 h -12.32396 z m 12.83432,0 h 12.32597 v 4.46588 h -12.32597 z m 25.4379,0 h 12.40415 v 4.46588 h -12.40415 z m 12.75814,0 h 12.32396 v 4.46588 h -12.32396 z m 12.84013,0 h 12.32016 v 4.46588 H 473.4927 Z m 12.67595,0 h 12.40225 v 4.46588 h -12.40225 z m 12.75614,0 h 12.40425 v 4.46588 h -12.40425 z m 12.75814,0 h 12.32396 v 4.46588 h -12.32396 z m 12.84013,0 h 12.32016 v 4.46588 h -12.32016 z m 12.67405,0 h 12.40415 v 4.46588 h -12.40415 z m 12.75804,0 h 12.40225 v 4.46588 h -12.40225 z m 63.7904,0.14275 h 12.32797 v 4.46388 h -12.32797 z m 12.83242,0 h 12.32988 v 4.46388 h -12.32988 z m 12.68376,0 h 12.40226 v 4.46388 h -12.40226 z m 12.75814,0 h 12.40216 v 4.46388 h -12.40216 z m 12.75614,0 h 12.32597 v 4.46388 h -12.32597 z m 12.83233,0 h 12.32797 v 4.46388 h -12.32797 z m 12.68375,0 h 12.40226 v 4.46388 h -12.40226 z m 12.75614,0 h 12.40426 v 4.46388 h -12.40426 z m 12.75814,0 h 12.32207 v 4.46388 h -12.32207 z m 12.83233,0 h 12.32797 v 4.46388 H 728.6387 Z m 12.68185,0 h 12.40416 v 4.46388 h -12.40416 z m 25.51619,0 h 12.29073 v 4.46388 h -12.29073 z m 12.84413,0 h 12.31616 v 4.46388 h -12.31816 z m 12.67004,0 h 12.40416 v 4.46388 h -12.40416 z m 12.75815,0 h 12.32196 v 4.46388 h -12.32196 z m -727.105113,4.67701 h 12.325968 v 4.46578 H 78.003947 Z m 12.681757,0 h 12.402256 v 4.46578 H 90.685704 Z m 63.786496,0 h 12.32407 v 4.46578 H 154.4722 Z m 12.83443,0 h 12.32596 v 4.46578 h -12.32596 z m 12.68175,0 h 12.40226 v 4.46578 h -12.40226 z m 12.75614,0 h 12.40416 v 4.46578 h -12.40416 z m 12.75814,0 h 12.32597 v 4.46578 h -12.32597 z m 12.83623,0 h 12.32407 v 4.46578 h -12.32407 z m 12.67795,0 H 243.421 v 4.46578 h -12.40416 z m 12.75804,0 h 12.40426 v 4.46578 h -12.40426 z m 12.75814,0 h 12.32597 v 4.46578 h -12.32597 z m 25.51418,0 h 12.40416 v 4.46578 H 282.0472 Z m 12.75804,0 h 12.40226 v 4.46578 h -12.40226 z m 12.75815,0 h 12.32206 v 4.46578 h -12.32206 z m 12.83232,0 h 12.32797 v 4.46578 h -12.32797 z m 12.68185,0 h 12.40416 v 4.46578 h -12.40416 z m 12.75815,0 h 12.40215 v 4.46578 h -12.40215 z m 12.75603,0 h 12.32407 v 4.46578 h -12.32407 z m 12.83443,0 h 12.32787 v 4.46578 h -12.32787 z m 12.68176,0 h 12.40225 v 4.46578 h -12.40225 z m 12.75814,0 h 12.40215 v 4.46578 h -12.40215 z m 12.75614,0 h 12.32396 v 4.46578 h -12.32396 z m 12.83432,0 h 12.32597 v 4.46578 h -12.32597 z m 25.4379,0 h 12.40415 v 4.46578 h -12.40415 z m 12.75814,0 h 12.32396 v 4.46578 h -12.32396 z m 12.84013,0 h 12.32016 v 4.46578 H 473.4927 Z m 12.67595,0 h 12.40225 v 4.46578 h -12.40225 z m 12.75614,0 h 12.40425 v 4.46578 h -12.40425 z m 12.75814,0 h 12.32396 v 4.46578 h -12.32396 z m 12.84013,0 h 12.32016 v 4.46578 h -12.32016 z m 12.67405,0 h 12.40415 v 4.46578 h -12.40415 z m 12.75804,0 h 12.40225 v 4.46578 h -12.40225 z m 63.7904,0.14276 h 12.32797 v 4.46388 h -12.32797 z m 12.83242,0 h 12.32988 v 4.46388 h -12.32988 z m 12.68376,0 h 12.40226 v 4.46388 h -12.40226 z m 12.75814,0 h 12.40216 v 4.46388 h -12.40216 z m 12.75614,0 h 12.32597 v 4.46388 h -12.32597 z m 12.83233,0 h 12.32797 v 4.46388 h -12.32797 z m 12.68375,0 h 12.40226 v 4.46388 h -12.40226 z m 12.75614,0 h 12.40426 v 4.46388 h -12.40426 z m 12.75814,0 h 12.32207 v 4.46388 h -12.32207 z m 12.83233,0 h 12.32797 v 4.46388 H 728.6387 Z m 12.68185,0 h 12.40416 v 4.46388 h -12.40416 z m 25.51619,0 h 12.29073 v 4.46388 h -12.29073 z m 12.84213,0 h 12.31816 v 4.46388 h -12.32006 z m 12.67204,0 h 12.40416 v 4.46388 h -12.40416 z m 12.75815,0 h 12.32196 v 4.46388 h -12.32196 z m -688.83289,4.67691 h 12.32797 v 3.04833 h 0.35388 v -3.04833 h 12.40225 v 3.04833 h 0.35589 v -3.04833 h 12.40216 v 3.04833 h 0.35388 v -3.04833 h 12.32407 v 3.18908 h -50.5201 z m 51.03046,0 h 12.32596 v 3.04833 h 0.35579 v -3.04833 h 12.40226 v 3.04833 h 0.35388 v -3.04833 h 12.40416 v 3.04833 h 0.35398 v -3.04833 h 12.32597 v 3.18908 h -50.522 z m 51.03226,0 h 12.32407 v 3.04833 h 0.35388 v -3.04833 H 243.421 v 3.04833 h 0.35388 v -3.04833 h 12.40426 v 3.04833 h 0.35388 v -3.04833 h 12.32597 v 3.18908 h -50.5201 z m 102.05682,0 h 12.32797 v 3.04833 h 0.35388 v -3.04833 h 12.40416 v 3.04833 h 0.35399 v -3.04833 h 12.40215 v 3.04833 h 0.35388 v -3.04833 h 12.32407 v 3.18908 h -50.5201 z m 51.03046,0 h 12.32787 v 3.04833 h 0.35389 v -3.04833 h 12.40225 v 3.04833 h 0.35589 v -3.04833 h 12.40215 v 3.04833 h 0.35399 v -3.04833 h 12.32396 v 3.18908 h -50.52 z m 102.06653,0 h 12.32016 v 3.04833 h 0.35389 v -3.04833 H 498.569 v 3.04833 h 0.35388 v -3.04833 h 12.40416 v 3.04833 h 0.35389 v -3.04833 h 12.32406 v 3.18908 h -50.5142 z m 140.25285,0.14085 h 12.32797 v 3.04823 h -12.32797 z m 12.83242,0 h 12.32988 v 3.04823 h -12.32988 z m 12.68376,0 h 12.40226 v 3.04823 h -12.40226 z m 12.75814,0 h 12.40216 v 3.04823 h -12.40216 z m 12.75614,0 h 12.32597 v 3.04823 h -12.32597 z m 12.83233,0 h 12.32797 v 3.04823 h -12.32797 z m 12.68375,0 h 12.40226 v 3.04823 h -12.40226 z m 12.75614,0 h 12.40426 v 3.04823 h -12.40426 z m 12.75814,0 h 12.32207 v 3.04823 h -12.32207 z m 12.83233,0 h 12.32797 v 3.04823 H 728.6387 Z m 12.68185,0 h 12.40416 v 3.04823 h -12.40416 z m 25.51619,0 h 12.29073 v 3.04823 h -12.29073 z m 12.84023,0 h 12.32006 v 3.04823 h -12.32006 z m 12.67394,0 h 12.40416 v 3.04823 h -12.40416 z m 12.75815,0 h 12.32196 v 3.04823 h -12.32196 z m -727.105113,6.16684 h 37.773673 v 1.14976 h -12.33578 v -0.42437 h -0.35388 v 0.42627 H 90.685704 v -0.42426 h -0.355789 v 0.42626 H 78.003947 Z m 38.272223,0 h 50.5201 v 1.14185 H 154.4722 v -0.42426 h -0.35388 v 0.42626 h -12.40216 v -0.42426 h -0.35589 v 0.42626 h -12.40225 v -0.42436 h -0.35388 v 0.42627 h -12.32797 z m 51.03046,0 h 50.522 v 33.59341 h -50.5201 v -3.18908 h 12.32406 v 3.04823 h 0.35579 v -3.04823 h 12.40226 v 3.04823 h 0.35388 v -3.04823 h 12.40416 v 3.04823 h 0.35398 v -32.74278 h -0.35398 v 0.42626 h -12.40416 v -0.42426 h -0.35388 v 0.42617 h -12.40226 v -0.42427 h -0.35579 v 0.42627 h -12.32596 z m 51.03226,0 h 50.5201 v 1.15757 h -12.32597 v -0.42437 h -0.35388 v 0.42627 h -12.40426 v -0.42426 H 243.421 v 0.42626 h -12.40416 v -0.42426 h -0.35388 v 0.42616 h -12.32407 z m 51.02846,0 h 50.5181 v 1.14976 h -12.32206 v -0.42437 h -0.35589 v 0.42627 h -12.40226 v -0.42426 h -0.35388 v 0.42626 H 282.0472 v -0.42436 h -0.35388 v 0.42626 h -12.32597 z m 51.02836,0 h 50.5201 v 1.14185 h -12.32407 v -0.42426 h -0.35388 v 0.42626 h -12.40215 v -0.42426 h -0.35399 v 0.42626 h -12.40416 v -0.42436 h -0.35388 v 0.42627 h -12.32797 z m 51.03046,0 h 50.52 v 33.59341 h -50.52 v -3.18908 h 12.32597 v 3.04823 h 0.35388 v -3.04823 h 12.40216 v 3.04823 h 0.35588 v -3.04823 h 12.40226 v 3.04823 h 0.35388 v -32.74278 h -0.35388 v 0.42626 h -12.40226 v -0.42426 h -0.35588 v 0.42617 h -12.40216 v -0.42427 h -0.35388 v 0.42627 h -12.32797 z m 51.03036,0 h 50.52 v 1.15166 h -12.32396 v -0.42426 h -0.35399 v 0.42626 h -12.40415 v -0.42436 h -0.35389 v 0.42626 h -12.40225 v -0.42426 h -0.35579 v 0.42627 h -12.32597 z m 51.03426,0 h 50.5161 v 1.14385 h -12.32396 v -0.42426 h -0.35389 v 0.42626 h -12.40425 v -0.42436 h -0.35389 v 0.42627 h -12.40225 v -0.42427 h -0.35389 v 0.42627 H 473.4927 Z m 51.03037,0 h 50.5161 v 1.13604 h -12.32397 v -0.42426 h -0.35589 v 0.42617 h -12.40225 v -0.42427 h -0.35389 v 0.42627 h -12.40415 v -0.42427 h -0.35389 v 0.42617 h -12.32206 z m 102.05681,0 h 50.52401 v 1.2768 h -12.32597 v -0.42627 h -0.35398 v 0.42627 h -12.40216 v -0.42627 h -0.35588 v 0.42627 h -12.40226 v -0.42627 h -0.35388 v 0.42627 h -12.32988 z m 51.03037,0 h 50.5201 v 33.59341 H 715.80637 V 181.8315 h -0.35388 v 0.42627 h -12.40426 v -0.42627 h -0.35388 v 0.42627 h -12.40226 v -0.42627 h -0.35578 v 0.42627 h -12.32797 z m 51.03036,0 h 50.48877 v 1.2768 h -12.29073 v -0.42627 h -0.35389 v 0.42627 h -12.40426 v -0.42627 h -0.35388 v 0.42627 h -12.40416 v -0.42627 h -0.35388 v 0.42627 H 728.6387 Z m 51.03827,0 h 37.75405 v 1.2768 h -12.32196 v -0.42627 h -0.35399 v 0.42627 h -12.40416 v -0.42627 h -0.35388 v 0.42627 H 779.67697 Z M 78.003947,182.469 h 12.325968 v 4.46578 H 78.003947 Z m 12.681757,0 h 12.402256 v 4.46578 H 90.685704 Z m 12.756136,0 h 12.33578 v 4.46578 h -12.33377 z m 12.83433,0 h 12.32797 v 4.46578 h -12.32797 z m 12.68185,0 h 12.40225 v 4.46578 h -12.40225 z m 12.75814,0 h 12.40216 v 4.46578 h -12.40216 z m 12.75604,0 h 12.32407 v 4.46578 H 154.4722 Z m 12.83443,0 h 12.32596 v 4.46578 h -12.32596 z m 12.68175,0 h 12.40226 v 4.46578 h -12.40226 z m 12.75614,0 h 12.40416 v 4.46578 h -12.40416 z m 25.59437,0 h 12.32407 v 4.46578 h -12.32407 z m 12.67795,0 H 243.421 v 4.46578 h -12.40416 z m 12.75804,0 h 12.40426 v 4.46578 h -12.40426 z m 12.75814,0 h 12.32597 v 4.46578 h -12.32597 z m 12.83433,0 h 12.32597 v 4.46578 h -12.32597 z m 12.67985,0 h 12.40416 v 4.46578 H 282.0472 Z m 12.75804,0 h 12.40226 v 4.46578 h -12.40226 z m 12.75815,0 h 12.32206 v 4.46578 h -12.32206 z m 12.83232,0 h 12.32797 v 4.46578 h -12.32797 z m 12.68185,0 h 12.40416 v 4.46578 h -12.40416 z m 12.75815,0 h 12.40215 v 4.46578 h -12.40215 z m 12.75603,0 h 12.32407 v 4.46578 h -12.32407 z m 12.83443,0 h 12.32787 v 4.46578 h -12.32787 z m 12.68176,0 h 12.40225 v 4.46578 h -12.40225 z m 12.75814,0 h 12.40215 v 4.46578 h -12.40215 z m 25.59046,0 h 12.32597 v 4.46578 h -12.32597 z m 12.68176,0 h 12.40225 v 4.46578 h -12.40225 z m 12.75614,0 h 12.40415 v 4.46578 h -12.40415 z m 12.75814,0 h 12.32396 v 4.46578 h -12.32396 z m 12.83822,0 h 12.32207 v 4.46578 h -12.32207 z m 12.67786,0 h 12.40225 v 4.46578 h -12.40225 z m 12.75614,0 h 12.40425 v 4.46578 h -12.40425 z m 12.75814,0 h 12.32396 v 4.46578 h -12.32396 z m 12.83823,0 h 12.32206 v 4.46578 h -12.32206 z m 12.67595,0 h 12.40415 v 4.46578 h -12.40415 z m 12.75804,0 h 12.40225 v 4.46578 h -12.40225 z m 12.75814,0 h 12.32397 v 4.46578 h -12.32397 z m 63.86468,0.14265 h 12.32988 v 4.46388 h -12.32988 z m 12.68376,0 h 12.40226 v 4.46388 h -12.40226 z m 12.75814,0 h 12.40216 v 4.46388 h -12.40216 z m 12.75614,0 h 12.32597 v 4.46388 h -12.32597 z m 12.83233,0 h 12.32797 v 4.46388 h -12.32797 z m 12.68375,0 h 12.40226 v 4.46388 h -12.40226 z m 12.75614,0 h 12.40426 v 4.46388 h -12.40426 z m 25.59047,0 h 12.32797 v 4.46388 0.35589 4.46388 H 728.6387 v -4.46388 -0.35589 z m 12.68185,0 h 12.40416 v 4.46388 0.35589 4.46388 h -12.40416 v -4.46388 -0.35589 z m 12.75804,0 h 12.40426 v 4.46388 0.35589 4.46388 h -12.40426 v -4.46388 -0.35589 z m 12.75815,0 h 12.29073 v 4.46388 h -12.29073 z m 12.84023,0 h 12.32006 v 4.46388 h -12.32207 z m 12.67394,0 h 12.40416 v 4.46388 h -12.40416 z m 12.75815,0 h 12.32196 v 4.46388 h -12.32196 z m -727.105112,4.67701 h 12.325968 v 4.46578 H 78.003947 Z m 12.681757,0 h 12.402255 v 4.46578 H 90.685704 Z m 12.756135,0 h 12.33378 v 4.46578 h -12.33177 z m 12.83433,0 h 12.32797 v 4.46578 h -12.32797 z m 12.68185,0 h 12.40225 v 4.46578 h -12.40225 z m 12.75814,0 h 12.40216 v 4.46578 h -12.40216 z m 12.75604,0 h 12.32407 v 4.46578 H 154.4722 Z m 12.83443,0 h 12.32596 v 4.46578 h -12.32596 z m 12.68175,0 h 12.40226 v 4.46578 h -12.40226 z m 12.75614,0 h 12.40416 v 4.46578 h -12.40416 z m 25.59437,0 h 12.32407 v 4.46578 h -12.32407 z m 12.67795,0 H 243.421 v 4.46578 h -12.40416 z m 12.75804,0 h 12.40426 v 4.46578 0.35399 4.46378 h -12.40426 v -4.46378 -0.35399 z m 12.75814,0 h 12.32597 v 4.46578 h -12.32597 z m 12.83433,0 h 12.32597 v 4.46578 h -12.32597 z m 12.67985,0 h 12.40416 v 4.46578 H 282.0472 Z m 12.75804,0 h 12.40226 v 4.46578 h -12.40226 z m 12.75815,0 h 12.32206 v 4.46578 h -12.32206 z m 12.83232,0 h 12.32797 v 4.46578 h -12.32797 z m 12.68185,0 h 12.40416 v 4.46578 h -12.40416 z m 12.75815,0 h 12.40215 v 4.46578 h -12.40215 z m 12.75603,0 h 12.32407 v 4.46578 h -12.32407 z m 12.83443,0 h 12.32787 v 4.46578 h -12.32787 z m 12.68176,0 h 12.40225 v 4.46578 h -12.40225 z m 12.75814,0 h 12.40215 v 4.46578 h -12.40215 z m 25.59046,0 h 12.32597 v 4.46578 h -12.32597 z m 12.68176,0 h 12.40225 v 4.46578 h -12.40225 z m 12.75614,0 h 12.40415 v 4.46578 h -12.40415 z m 12.75814,0 h 12.32396 v 4.46578 h -12.32396 z m 12.83822,0 h 12.32207 v 4.46578 h -12.32207 z m 12.67786,0 h 12.40225 v 4.46578 h -12.40225 z m 12.75614,0 h 12.40425 v 4.46578 h -12.40425 z m 12.75814,0 h 12.32396 v 4.46578 h -12.32396 z m 12.83823,0 h 12.32206 v 4.46578 h -12.32206 z m 12.67595,0 h 12.40415 v 4.46578 h -12.40415 z m 12.75804,0 h 12.40225 v 4.46578 h -12.40225 z m 12.75814,0 h 12.32397 v 4.46578 h -12.32397 z m 63.86468,0.14276 h 12.32988 v 4.46388 h -12.32988 z m 12.68376,0 h 12.40226 v 4.46388 h -12.40226 z m 12.75814,0 h 12.40216 v 4.46388 h -12.40216 z m 12.75614,0 h 12.32597 v 4.46388 h -12.32597 z m 12.83233,0 h 12.32797 v 4.46388 h -12.32797 z m 12.68375,0 h 12.40226 v 4.46388 h -12.40226 z m 12.75614,0 h 12.40426 v 4.46388 h -12.40426 z m 63.78851,0 h 12.29073 v 4.46388 h -12.29073 z m 12.83822,0 h 12.32207 v 4.46388 h -12.32207 z m 12.67595,0 h 12.40416 v 4.46388 h -12.40416 z m 12.75815,0 h 12.32196 v 4.46388 h -12.32196 z m -727.105112,4.67701 h 12.325968 v 4.46378 H 78.003947 Z m 12.681757,0 h 12.402255 v 4.46378 H 90.685704 Z m 12.756135,0 h 12.33188 v 4.46378 h -12.33188 z m 12.83433,0 h 12.32797 v 4.46378 h -12.32797 z m 12.68185,0 h 12.40225 v 4.46378 h -12.40225 z m 12.75814,0 h 12.40216 v 4.46378 h -12.40216 z m 12.75604,0 h 12.32407 v 4.46378 H 154.4722 Z m 12.83443,0 h 12.32596 v 4.46378 h -12.32596 z m 12.68175,0 h 12.40226 v 4.46378 h -12.40226 z m 12.75614,0 h 12.40416 v 4.46378 h -12.40416 z m 25.59437,0 h 12.32407 v 4.46378 h -12.32407 z m 12.67795,0 H 243.421 v 4.46378 h -12.40416 z m 25.51618,0 h 12.32597 v 4.46378 h -12.32597 z m 12.83433,0 h 12.32597 v 4.46378 h -12.32597 z m 12.67985,0 h 12.40416 v 4.46378 H 282.0472 Z m 12.75804,0 h 12.40226 v 4.46378 h -12.40226 z m 12.75815,0 h 12.32206 v 4.46378 h -12.32206 z m 12.83232,0 h 12.32797 v 4.46378 h -12.32797 z m 12.68185,0 h 12.40416 v 4.46378 h -12.40416 z m 12.75815,0 h 12.40215 v 4.46378 h -12.40215 z m 12.75603,0 h 12.32407 v 4.46378 h -12.32407 z m 12.83443,0 h 12.32787 v 4.46378 h -12.32787 z m 12.68176,0 h 12.40225 v 4.46378 h -12.40225 z m 12.75814,0 h 12.40215 v 4.46378 h -12.40215 z m 25.59046,0 h 12.32597 v 4.46378 h -12.32597 z m 12.68176,0 h 12.40225 v 4.46378 h -12.40225 z m 12.75614,0 h 12.40415 v 4.46378 h -12.40415 z m 12.75814,0 h 12.32396 v 4.46378 h -12.32396 z m 12.83822,0 h 12.32207 v 4.46378 h -12.32207 z m 12.67786,0 h 12.40225 v 4.46378 h -12.40225 z m 12.75614,0 h 12.40425 v 4.46378 h -12.40425 z m 12.75814,0 h 12.32396 v 4.46378 h -12.32396 z m 12.83823,0 h 12.32206 v 4.46378 h -12.32206 z m 12.67595,0 h 12.40415 v 4.46378 h -12.40415 z m 12.75804,0 h 12.40225 v 4.46378 h -12.40225 z m 12.75814,0 h 12.32397 v 4.46378 h -12.32397 z m 63.86468,0.14076 h 12.32988 v 4.46577 h -12.32988 z m 12.68376,0 h 12.40226 v 4.46577 h -12.40226 z m 12.75814,0 h 12.40216 v 4.46577 h -12.40216 z m 12.75614,0 h 12.32597 v 4.46577 h -12.32597 z m 12.83233,0 h 12.32797 v 4.46577 h -12.32797 z m 12.68375,0 h 12.40226 v 4.46577 h -12.40226 z m 12.75614,0 h 12.40426 v 4.46577 h -12.40426 z m 25.59047,0 h 12.32797 v 4.46577 0.35389 4.46588 H 728.6387 v -4.46588 -0.35389 z m 12.68185,0 h 12.40416 v 4.46577 0.35389 4.46588 h -12.40416 v -4.46588 -0.35389 z m 12.75804,0 h 12.40426 v 4.46577 0.35389 4.46588 h -12.40426 v -4.46588 -0.35389 z m 12.75815,0 h 12.29073 v 4.46577 h -12.29073 z m 12.83822,0 h 12.32207 v 4.46577 h -12.32407 z m 12.67595,0 h 12.40416 v 4.46577 h -12.40416 z m 12.75815,0 h 12.32196 v 4.46577 H 805.10906 Z M 78.003948,196.9281 h 12.325968 v 4.46388 H 78.005849 Z m 12.681757,0 h 12.402255 v 4.46388 H 90.685704 Z m 12.756135,0 h 12.33188 v 4.46388 h -12.32987 z m 12.83433,0 h 12.32797 v 4.46388 h -12.32597 z m 12.68185,0 h 12.40225 v 4.46388 h -12.40225 z m 12.75814,0 h 12.40216 v 4.46388 h -12.40216 z m 12.75604,0 h 12.32407 v 4.46388 H 154.4703 Z m 12.83443,0 h 12.32596 v 4.46388 h -12.32406 z m 12.68175,0 h 12.40226 v 4.46388 h -12.40226 z m 12.75614,0 h 12.40416 v 4.46388 h -12.40416 z m 25.59437,0 h 12.32407 v 4.46388 h -12.32407 z m 12.67795,0 H 243.421 v 4.46388 h -12.40416 z m 12.75804,0 h 12.40426 v 4.46388 h -12.40426 z m 12.75814,0 h 12.32597 v 4.46388 h -12.32406 z m 12.83433,0 h 12.32597 v 4.46388 h -12.32597 z m 12.67985,0 h 12.40416 v 4.46388 H 282.0472 Z m 12.75804,0 h 12.40226 v 4.46388 h -12.40226 z m 12.75815,0 h 12.32206 v 4.46388 h -12.32407 z m 12.83232,0 h 12.32797 v 4.46388 h -12.32597 z m 12.68185,0 h 12.40416 v 4.46388 h -12.40416 z m 12.75815,0 h 12.40215 v 4.46388 h -12.40215 z m 12.75603,0 h 12.32407 v 4.46388 h -12.32597 z m 12.83443,0 h 12.32787 v 4.46388 h -12.32597 z m 12.68176,0 h 12.40225 v 4.46388 h -12.40225 z m 12.75814,0 h 12.40215 v 4.46388 h -12.40215 z m 25.59046,0 h 12.32597 v 4.46388 h -12.32407 z m 12.68176,0 h 12.40225 v 4.46388 h -12.40225 z m 12.75614,0 h 12.40415 v 4.46388 h -12.40415 z m 12.75814,0 h 12.32396 v 4.46388 h -12.32597 z m 12.83822,0 h 12.32207 v 4.46388 h -12.32407 z m 12.67786,0 h 12.40225 v 4.46388 h -12.40225 z m 12.75614,0 h 12.40425 v 4.46388 h -12.40425 z m 12.75814,0 h 12.32396 v 4.46388 h -12.32596 z m 12.83823,0 h 12.32206 v 4.46388 h -12.32407 z m 12.67595,0 h 12.40415 v 4.46388 h -12.40415 z m 12.75804,0 h 12.40225 v 4.46388 h -12.40225 z m 12.75814,0 h 12.32397 v 4.46388 h -12.32397 z m 63.86468,0.14075 h 12.32988 v 4.46588 h -12.32988 z m 12.68376,0 h 12.40226 v 4.46588 h -12.40226 z m 12.75814,0 h 12.40216 v 4.46588 h -12.40216 z m 12.75614,0 h 12.32597 v 4.46588 h -12.32797 z m 12.83233,0 h 12.32797 v 4.46588 h -12.32797 z m 12.68375,0 h 12.40226 v 4.46588 h -12.40226 z m 12.75614,0 h 12.40426 v 4.46588 h -12.40426 z m 63.78851,0 h 12.29073 v 4.46588 h -12.29073 z m 12.83622,0 h 12.32407 v 4.46588 h -12.32407 z m 12.67795,0 h 12.40416 v 4.46588 h -12.40416 z m 12.75815,0 h 12.32196 v 4.46588 h -12.32196 z m -727.10321,4.67901 h 12.324066 v 4.46388 H 78.005849 Z m 12.679855,0 h 12.402255 v 4.46388 H 90.685704 Z m 12.756135,0 h 12.32988 v 4.46388 h -12.32787 z m 12.83633,0 h 12.32597 v 4.46388 h -12.32597 z m 12.67985,0 h 12.40225 v 4.46388 h -12.40225 z m 12.75814,0 h 12.40216 v 4.46388 h -12.40216 z m 12.75604,0 h 12.32597 v 4.46388 H 154.4722 Z m 12.83633,0 h 12.32406 v 4.46388 h -12.32406 z m 12.67985,0 h 12.40226 v 4.46388 h -12.40226 z m 12.75614,0 h 12.40416 v 4.46388 h -12.40416 z m 25.59437,0 h 12.32407 v 4.46388 h -12.32407 z m 12.67795,0 H 243.421 v 4.46388 h -12.40416 z m 12.75804,0 h 12.40426 v 4.46388 h -12.40426 z m 12.75814,0 h 12.32397 v 4.46388 h -12.32397 z m 12.83433,0 h 12.32597 v 4.46388 h -12.32597 z m 12.67985,0 h 12.40416 v 4.46388 H 282.0472 Z m 12.75804,0 h 12.40226 v 4.46388 h -12.40226 z m 12.75815,0 h 12.32396 v 4.46388 h -12.32396 z m 12.83432,0 h 12.32597 v 4.46388 h -12.32597 z m 12.67985,0 h 12.40416 v 4.46388 h -12.40416 z m 12.75815,0 h 12.40215 v 4.46388 h -12.40215 z m 12.75603,0 h 12.32597 v 4.46388 h -12.32597 z m 12.83633,0 h 12.32597 v 4.46388 h -12.32597 z m 12.67986,0 h 12.40225 v 4.46388 h -12.40225 z m 12.75814,0 h 12.40215 v 4.46388 h -12.40215 z m 25.59236,0 h 12.32407 v 4.46388 h -12.32407 z m 12.67986,0 h 12.40225 v 4.46388 h -12.40225 z m 12.75614,0 h 12.40415 v 4.46388 h -12.40415 z m 12.75814,0 h 12.32597 v 4.46388 h -12.32597 z m 12.83622,0 h 12.32407 v 4.46388 h -12.32407 z m 12.67986,0 h 12.40225 v 4.46388 h -12.40225 z m 12.75614,0 h 12.40425 v 4.46388 h -12.40425 z m 12.75814,0 h 12.32597 v 4.46388 h -12.32597 z m 12.83622,0 h 12.32407 v 4.46388 h -12.32407 z m 12.67796,0 h 12.40415 v 4.46388 h -12.40415 z m 12.75804,0 h 12.40225 v 4.46388 h -12.40225 z m 12.75814,0 h 12.32397 v 4.46388 h -12.32397 z m 63.86468,0.14076 h 12.32988 v 4.46578 h -12.32988 z m 12.68376,0 h 12.40226 v 4.46578 h -12.40226 z m 12.75814,0 h 12.40216 v 4.46578 h -12.40216 z m 12.75614,0 h 12.32787 v 4.46578 h -12.32787 z m 12.83233,0 h 12.32797 v 4.46578 h -12.32797 z m 12.68375,0 h 12.40226 v 4.46578 h -12.40226 z m 12.75614,0 h 12.40426 v 4.46578 h -12.40426 z m 25.59047,0 h 12.32797 v 4.46578 0.35388 4.46588 H 728.6387 v -4.46588 -0.35388 z m 12.68185,0 h 12.40416 v 4.46578 0.35388 4.46588 h -12.40416 v -4.46588 -0.35388 z m 12.75804,0 h 12.40426 v 4.46578 0.35388 4.46588 h -12.40426 v -4.46588 -0.35388 z m 12.75815,0 h 12.29073 v 4.46578 h -12.29073 z m 12.83622,0 h 12.32407 v 4.46578 h -12.32597 z m 12.67795,0 h 12.40416 v 4.46578 h -12.40416 z m 12.75815,0 h 12.32196 v 4.46578 h -12.32196 z m -727.10321,4.67701 h 12.324066 v 4.46578 H 78.005849 Z m 12.679855,0 h 12.402255 v 4.46578 H 90.685704 Z m 12.756135,0 h 12.32797 v 4.46578 h -12.32797 z m 12.83633,0 h 12.32597 v 4.46578 h -12.32597 z m 12.67985,0 h 12.40225 v 4.46578 h -12.40225 z m 12.75814,0 h 12.40216 v 4.46578 h -12.40216 z m 12.75604,0 h 12.32597 v 4.46578 H 154.4722 Z m 12.83633,0 h 12.32406 v 4.46578 h -12.32406 z m 12.67985,0 h 12.40226 v 4.46578 h -12.40226 z m 12.75614,0 h 12.40416 v 4.46578 h -12.40416 z m 25.59437,0 h 12.32407 v 4.46578 h -12.32407 z m 12.67795,0 H 243.421 v 4.46578 h -12.40416 z m 12.75804,0 h 12.40426 v 4.46578 h -12.40426 z m 12.75814,0 h 12.32397 v 4.46578 h -12.32397 z m 12.83433,0 h 12.32597 v 4.46578 h -12.32597 z m 12.67985,0 h 12.40416 v 4.46578 H 282.0472 Z m 12.75804,0 h 12.40226 v 4.46578 h -12.40226 z m 12.75815,0 h 12.32396 v 4.46578 h -12.32396 z m 12.83432,0 h 12.32597 v 4.46578 h -12.32597 z m 12.67985,0 h 12.40416 v 4.46578 h -12.40416 z m 12.75815,0 h 12.40215 v 4.46578 h -12.40215 z m 12.75603,0 h 12.32597 v 4.46578 h -12.32597 z m 12.83633,0 h 12.32597 v 4.46578 h -12.32597 z m 12.67986,0 h 12.40225 v 4.46578 h -12.40225 z m 12.75814,0 h 12.40215 v 4.46578 h -12.40215 z m 25.59236,0 h 12.32407 v 4.46578 h -12.32407 z m 12.67986,0 h 12.40225 v 4.46578 h -12.40225 z m 12.75614,0 h 12.40415 v 4.46578 h -12.40415 z m 12.75814,0 h 12.32597 v 4.46578 h -12.32597 z m 12.83622,0 h 12.32407 v 4.46578 h -12.32407 z m 12.67986,0 h 12.40225 v 4.46578 h -12.40225 z m 12.75614,0 h 12.40425 v 4.46578 h -12.40425 z m 12.75814,0 h 12.32597 v 4.46578 h -12.32597 z m 12.83622,0 h 12.32407 v 4.46578 h -12.32407 z m 12.67796,0 h 12.40415 v 4.46578 h -12.40415 z m 12.75804,0 h 12.40225 v 4.46578 h -12.40225 z m 12.75814,0 h 12.32397 v 4.46578 h -12.32397 z m 63.86468,0.14265 h 12.32988 v 4.46588 h -12.32988 z m 12.68376,0 h 12.40226 v 4.46588 h -12.40226 z m 12.75814,0 h 12.40216 v 4.46588 h -12.40216 z m 12.75614,0 h 12.32787 v 4.46588 h -12.32787 z m 12.83233,0 h 12.32797 v 4.46588 h -12.32797 z m 12.68375,0 h 12.40226 v 4.46588 h -12.40226 z m 12.75614,0 h 12.40426 v 4.46588 h -12.40426 z m 63.78851,0 h 12.29073 v 4.46588 h -12.29073 z m 12.83432,0 h 12.32597 v 4.46588 h -12.32797 z m 12.67985,0 h 12.40416 v 4.46588 h -12.40416 z m 12.75815,0 h 12.32196 v 4.46588 H 805.10906 Z M 78.00585,211.3853 h 12.324066 v 3.04823 h 0.355789 v -3.04823 h 12.402255 v 3.04823 h 0.35388 v -3.04823 h 12.32597 v 3.18908 H 78.005849 Z m 38.27232,0 h 12.32597 v 3.04823 h 0.35388 v -3.04823 h 12.40225 v 3.04823 h 0.35589 v -3.04823 h 12.40216 v 3.04823 h 0.35388 v -3.04823 h 12.32597 v 3.18908 h -50.52 z m 102.06072,0 h 12.32407 v 3.04823 h 0.35388 V 211.3853 H 243.421 v 3.04823 h 0.35388 v -3.04823 h 12.40426 v 3.04823 h 0.35388 v -3.04823 h 12.32397 v 3.18908 h -50.5181 z m 51.02846,0 h 12.32597 v 3.04823 h 0.35388 v -3.04823 h 12.40416 v 3.04823 h 0.35388 v -3.04823 h 12.40226 v 3.04823 h 0.35589 v -3.04823 h 12.32396 v 3.18908 h -50.52 z m 51.03036,0 h 12.32597 v 3.04823 h 0.35388 v -3.04823 h 12.40416 v 3.04823 h 0.35399 v -3.04823 h 12.40215 v 3.04823 h 0.35388 v -3.04823 h 12.32597 v 3.18908 h -50.52 z m 102.06072,0 h 12.32407 v 3.04823 h 0.35579 v -3.04823 h 12.40225 v 3.04823 h 0.35389 v -3.04823 h 12.40415 v 3.04823 h 0.35399 v -3.04823 h 12.32597 v 3.18908 h -50.52011 z m 51.03036,0 h 12.32407 v 3.04823 h 0.35389 V 211.3853 H 498.569 v 3.04823 h 0.35388 v -3.04823 h 12.40416 v 3.04823 h 0.35389 v -3.04823 h 12.32596 v 3.18908 h -50.52 z m 51.03036,0 h 12.32407 v 3.04823 h 0.35389 v -3.04823 h 12.40415 v 3.04823 h 0.35389 v -3.04823 h 12.40225 v 3.04823 h 0.35589 v -3.04823 h 12.32397 v 3.18908 h -50.51811 z m 102.05882,0.14275 h 12.32988 v 3.04633 h -12.32988 z m 12.68376,0 h 12.40226 v 3.04633 h -12.40226 z m 12.75814,0 h 12.40216 v 3.04633 h -12.40216 z m 12.75614,0 h 12.32787 v 3.04633 h -12.32787 z m 12.83233,0 h 12.32797 v 3.04633 h -12.32797 z m 12.68375,0 h 12.40226 v 3.04633 h -12.40226 z m 12.75614,0 h 12.40426 v 3.04633 h -12.40426 z m 25.59047,0 h 12.32797 v 3.04633 H 728.6387 Z m 12.68185,0 h 12.40416 v 3.04633 h -12.40416 z m 12.75804,0 h 12.40426 v 3.04633 h -12.40426 z m 12.75815,0 h 12.29073 v 3.04633 h -12.29073 z m 12.83232,0 h 12.32797 v 3.04633 h -12.32797 z m 12.68185,0 h 12.40416 v 3.04633 h -12.40416 z m 12.75815,0 h 12.32196 v 3.04633 h -12.32196 z" /></svg>
