<?xml version="1.0" encoding="UTF-8" standalone="no"?>
<svg
   xmlns:dc="http://purl.org/dc/elements/1.1/"
   xmlns:cc="http://creativecommons.org/ns#"
   xmlns:rdf="http://www.w3.org/1999/02/22-rdf-syntax-ns#"
   xmlns:svg="http://www.w3.org/2000/svg"
   xmlns="http://www.w3.org/2000/svg"
   xmlns:sodipodi="http://sodipodi.sourceforge.net/DTD/sodipodi-0.dtd"
   xmlns:inkscape="http://www.inkscape.org/namespaces/inkscape"
   xml:space="preserve"
   inkscape:version="1.0 (4035a4fb49, 2020-05-01)"
   sodipodi:docname="wall_vector.svg"
   id="svg3367"
   overflow="visible"
   viewBox="0 0 1003.3557 225.91679"
   height="225.66992"
   width="1002.8164"
   version="1.1"><metadata
     id="metadata8"><rdf:RDF><cc:Work
         rdf:about=""><dc:format>image/svg+xml</dc:format><dc:type
           rdf:resource="http://purl.org/dc/dcmitype/StillImage" /></cc:Work></rdf:RDF></metadata><defs
     id="defs3367" /><sodipodi:namedview
     showgrid="false"
     inkscape:document-rotation="0"
     inkscape:current-layer="svg3367"
     inkscape:window-maximized="1"
     inkscape:window-y="-8"
     inkscape:window-x="-8"
     inkscape:window-height="1027"
     inkscape:window-width="1920"
     inkscape:cy="95.672447"
     inkscape:cx="442.74204"
     inkscape:zoom="0.96386552"
     inkscape:deskcolor="#d1d1d1"
     inkscape:pagecheckerboard="0"
     inkscape:pageopacity="0.0"
     inkscape:showpageshadow="2"
     borderopacity="0.25"
     bordercolor="#000000"
     pagecolor="#ffffff"
     id="namedview3367" /><path
     id="path8177"
     style="fill:#ffffff;stroke-width:1"
     d="M 1003.0655,0 6.5214791,80.39054 H -0.27886088 V 225.91677 H 962.38437 L 1003.6346,7.06432 Z m -6.75343,7.65476 -39.8033,211.17416 H 6.8069891 V 87.47839 L 77.485719,81.77686 v 22.66146 h -1.8281 v 3.11671 h 1.8281 v 33.59521 h -1.8301 v 3.11871 h 1.8301 v 33.59331 h -1.834 v 3.1187 h 1.834 v 33.59331 h -1.83591 v 3.11861 H 577.36797 v -3.11861 h -1.8301 v -33.59331 h 50.5259 v 33.59331 h -1.8282 v 3.11861 h 195.5242 v -3.11861 h -1.8281 v -33.59331 h 1.8281 v -3.1187 h -1.8281 v -33.59331 h 1.8281 v -3.11871 h -1.8281 v -33.59521 h 1.8281 v -3.11671 h -1.8281 V 70.84301 h 1.8281 V 67.7243 h -1.8281 V 22.04358 Z m -178.881,14.42987 V 67.7243 h -37.7307 l 0.01,-42.59535 z m -38.3036,3.09128 V 67.7243 h -50.4887 V 29.24866 Z m -50.9991,4.11389 v 38.4345 h -50.5201 V 33.36455 Z m -51.0342,4.1158 v 34.3187 h -50.5181 V 37.48035 Z m -51.0207,4.1158 v 30.2029 h -50.5259 V 41.59815 Z m -51.0362,4.1178 v 26.0851 h -50.5063 V 45.71395 Z m -51.0382,4.1178 V 67.7243 H 473.49856 V 49.82975 Z m -51.03038,4.11579 V 67.7243 H 422.44668 V 53.94755 Z m -51.03037,4.1178 V 67.7243 h -50.52 v -9.65895 z m -51.03036,4.1158 v 9.61791 h -2.29351 v 3.11871 h 2.29351 v 33.59531 H 358.5898 V 71.69354 h -0.35389 v 0.42626 h -12.40225 v -0.42626 h -0.35389 v 0.42626 h -12.40415 v -0.42626 h -0.35389 v 0.42626 h -12.33378 v -9.93866 z m -51.02836,4.1159 v 42.21603 H 269.3673 V 66.29704 Z m -51.01084,4.1158 v 38.10023 H 218.34285 V 70.41474 Z m -51.04018,4.1178 v 33.98243 H 167.30067 V 74.53064 Z m 153.58974,0.38712 h 50.522 v 1.27679 h -12.31816 v -0.42626 h -0.35388 v 0.42626 h -12.40226 v -0.42626 h -0.35588 V 72.1198 H 384.10798 V 71.69354 H 383.754 v 0.42626 h -12.33568 z m 51.03226,0 h 50.52011 v 1.27679 h -12.31816 v -0.42626 h -0.35389 v 0.42626 h -12.40415 v -0.42626 h -0.35399 v 0.42626 h -12.40215 v -0.42626 h -0.35589 v 0.42626 h -12.33188 z m 51.04999,0 h 50.5005 v 33.59531 h -25.0782 V 71.69354 h -0.3539 v 0.42626 h -12.4023 v -0.42626 h -0.3539 v 0.42626 h -12.3122 z m 51.0304,0 h 50.5063 v 33.59531 h -50.5083 z m 51.0166,0 h 50.5259 v 1.27679 h -12.3435 v -0.42626 h -0.354 v 0.42626 h -12.4041 v -0.42626 h -0.3539 v 0.42626 h -12.4023 v -0.41255 h -0.3557 v 32.73107 h -12.3124 z m 51.0304,0 h 50.5181 v 1.27679 h -12.3357 v -0.42626 h -0.354 v 0.42626 h -12.4042 v -0.42626 h -0.3538 v 0.42626 h -12.4042 v -0.42626 h -0.3539 v 0.42626 h -12.3123 z m 51.0303,0 h 50.5201 v 1.27679 h -12.3376 v -0.42626 h -0.3559 v 0.42626 h -12.4023 v -0.42626 h -0.3539 v 0.42626 h -12.4041 v -0.42626 h -0.3539 v 0.42626 h -12.3124 z m 51.0305,0 h 50.4887 v 33.59531 h -12.3084 V 71.69354 h -0.3539 v 0.42626 h -12.4022 v -0.42626 h -0.3539 v 0.42626 h -12.4042 v -0.42626 h -0.3539 v 0.42626 h -12.3122 z m 51.0616,0 h 37.7307 v 1.27679 h -2.6865 -9.6513 v -0.42626 h -0.3558 v 0.42626 h -2.3972 -10.005 v -0.42626 h -0.3539 v 0.42626 h -12.281 z m -459.31051,1.63068 h 12.33377 v 4.46388 h -12.33377 z m 12.68766,0 h 12.40426 v 4.46388 h -12.40426 z m 12.75814,0 h 12.40225 v 4.46388 h -12.40225 z m 25.58266,0 H 383.754 v 4.46388 h -12.33568 z m 12.68966,0 h 12.40216 v 4.46388 h -12.40216 z m 12.75804,0 h 12.40226 v 4.46388 h -12.40226 z m 12.75614,0 h 12.31816 v 4.46388 h -12.31816 z m 12.82842,0 h 12.33188 v 4.46388 h -12.33188 z m 12.68777,0 h 12.40215 v 4.46388 h -12.40215 z m 12.75614,0 h 12.40415 v 4.46388 h -12.40415 z m 12.75804,0 h 12.31816 v 4.46388 h -12.31816 z m 12.84804,0 h 12.3122 v 4.46388 h -12.3122 z m 12.6681,0 h 12.4022 v 4.46388 h -12.4022 z m 102.047,0 h 12.4023 v 4.46388 h -12.4023 z m 12.7562,0 h 12.4041 v 4.46388 h -12.4041 z m 12.7581,0 h 12.3435 v 4.46388 h -12.3435 z m 12.848,0 h 12.3123 v 4.46388 h -12.3123 z m 12.6662,0 h 12.4042 v 4.46388 h -12.4042 z m 12.758,0 h 12.4042 v 4.46388 h -12.4042 z m 12.7582,0 h 12.3357 v 4.46388 h -12.3357 z m 12.8479,0 h 12.3124 v 4.46388 h -12.3124 z m 12.6663,0 h 12.4041 v 4.46388 h -12.4041 z m 12.758,0 h 12.4023 v 4.46388 h -12.4023 z m 12.7582,0 h 12.3376 v 4.46388 h -12.3376 z m 12.848,0 h 12.3122 v 4.46388 h -12.3122 z m 12.6661,0 h 12.4042 v 4.46388 h -12.4042 z m 12.7581,0 h 12.4022 v 4.46388 h -12.4022 z m 25.6374,0 h 12.281 v 4.46388 h -12.2829 z m 12.6349,0 h 10.005 2.3972 v 4.46388 h -12.4022 z m 12.758,0 h 9.6513 2.6865 v 4.46388 h -12.3378 z m -638.30486,2.09799 v 29.86664 H 116.2684 V 78.64844 Z m 153.60145,2.72168 h 12.33377 v 4.46387 h -12.33377 z m 12.68766,0 h 12.40426 v 4.46387 h -12.40426 z m 12.75814,0 h 12.40225 v 4.46387 h -12.40225 z m 25.58266,0 H 383.754 v 4.46387 h -12.33568 z m 12.68966,0 h 12.40216 v 4.46387 h -12.40216 z m 12.75804,0 h 12.40226 v 4.46387 h -12.40226 z m 12.75614,0 h 12.31816 v 4.46387 h -12.31816 z m 12.82842,0 h 12.33188 v 4.46387 h -12.33188 z m 12.68777,0 h 12.40215 v 4.46387 h -12.40215 z m 12.75614,0 h 12.40415 v 4.46387 h -12.40415 z m 12.75804,0 h 12.31816 v 4.46387 h -12.31816 z m 12.84804,0 h 12.3122 v 4.46387 h -12.3122 z m 12.6681,0 h 12.4022 v 4.46387 h -12.4022 z m 102.047,0 h 12.4023 v 4.46387 h -12.4023 z m 12.7562,0 h 12.4041 v 4.46387 h -12.4041 z m 12.7581,0 h 12.3435 v 4.46387 h -12.3435 z m 12.848,0 h 12.3123 v 4.46387 h -12.3123 z m 12.6662,0 h 12.4042 v 4.46387 h -12.4042 z m 12.758,0 h 12.4042 v 4.46387 h -12.4042 z m 12.7582,0 h 12.3357 v 4.46387 h -12.3357 z m 12.8479,0 h 12.3124 v 4.46387 h -12.3124 z m 12.6663,0 h 12.4041 v 4.46387 h -12.4041 z m 12.758,0 h 12.4023 v 4.46387 h -12.4023 z m 12.7582,0 h 12.3376 v 4.46387 h -12.3376 z m 12.848,0 h 12.3122 v 4.46387 h -12.3122 z m 12.6661,0 h 12.4042 v 4.46387 h -12.4042 z m 12.7581,0 h 12.4022 v 4.46387 h -12.4022 z m 25.6355,0 h 12.2829 v 4.46387 h -12.2829 z m 12.6368,0 h 12.4022 v 4.46387 h -12.4022 z m 12.758,0 h 12.3378 v 4.46387 h -12.3378 z m -689.01457,1.37069 -0.2698,0.023 -0.01,25.75085 H 77.995879 V 81.73528 Z m 204.31116,3.44907 h 12.33377 V 86.577 h -12.33177 z m 12.68766,0 h 12.40426 V 86.577 h -12.40426 z m 12.75814,0 h 12.40225 V 86.577 h -12.40225 z m 25.58266,0 H 383.754 V 86.577 h -12.33568 z m 12.68966,0 h 12.40216 V 86.577 h -12.40216 z m 12.75804,0 h 12.40226 V 86.577 h -12.40226 z m 12.75614,0 h 12.31816 V 86.577 h -12.31816 z m 12.82842,0 h 12.33188 V 86.577 h -12.33188 z m 12.68777,0 H 447.5405 V 86.577 h -12.40215 z m 12.75614,0 h 12.40415 V 86.577 h -12.40415 z m 12.75804,0 h 12.31816 V 86.577 h -12.31816 z m 12.84804,0 h 12.3122 V 86.577 h -12.3122 z m 12.6681,0 h 12.4022 V 86.577 h -12.4022 z m 102.047,0 h 12.4023 V 86.577 h -12.4023 z m 12.7562,0 h 12.4041 V 86.577 h -12.4041 z m 12.7581,0 h 12.3435 V 86.577 h -12.3435 z m 12.848,0 h 12.3123 V 86.577 h -12.3123 z m 12.6662,0 h 12.4042 V 86.577 h -12.4042 z m 12.758,0 h 12.4042 V 86.577 h -12.4042 z m 12.7582,0 h 12.3357 V 86.577 h -12.3357 z m 12.8479,0 h 12.3124 V 86.577 h -12.3124 z m 12.6663,0 h 12.4041 V 86.577 h -12.4041 z m 12.758,0 h 12.4023 V 86.577 h -12.4023 z m 12.7582,0 h 12.3376 V 86.577 h -12.3376 z m 12.848,0 h 12.3122 V 86.577 h -12.3122 z m 12.6661,0 h 12.4042 V 86.577 h -12.4042 z m 12.7581,0 h 12.4022 V 86.577 h -12.4022 z m 25.6355,0 h 12.2829 V 86.577 h -12.2849 z m 12.6368,0 h 12.4022 V 86.577 h -12.4022 z m 12.758,0 h 12.3378 V 86.577 h -12.3378 z m -484.70141,4.81777 h 12.33177 v 4.46578 h -12.33177 z m 12.68566,0 h 12.40426 v 4.46578 h -12.40426 z m 12.75814,0 h 12.40225 v 4.46578 h -12.40225 z m 25.58266,0 H 383.754 v 4.46578 h -12.33378 z m 12.68966,0 h 12.40216 v 4.46578 h -12.40216 z m 12.75804,0 h 12.40226 v 4.46578 h -12.40226 z m 12.75614,0 h 12.31816 v 4.46578 h -12.32016 z m 12.82842,0 h 12.33188 v 4.46578 h -12.32988 z m 12.68777,0 h 12.40215 v 4.46578 h -12.40215 z m 12.75614,0 h 12.40415 v 4.46578 h -12.40415 z m 12.75804,0 h 12.31816 v 4.46578 h -12.32017 z m 12.84804,0 h 12.3122 v 4.46578 h -12.31421 z m 12.6681,0 h 12.4022 v 4.46578 h -12.4022 z m 102.047,0 h 12.4023 v 4.46578 h -12.4023 z m 12.7562,0 h 12.4041 v 4.46578 h -12.4041 z m 12.7581,0 h 12.3435 v 4.46578 h -12.3435 z m 12.848,0 h 12.3123 v 4.46578 h -12.3123 z m 12.6662,0 h 12.4042 v 4.46578 h -12.4042 z m 12.758,0 h 12.4042 v 4.46578 h -12.4042 z m 12.7582,0 h 12.3357 v 4.46578 h -12.3377 z m 12.8479,0 h 12.3124 v 4.46578 h -12.3124 z m 12.6663,0 h 12.4041 v 4.46578 h -12.4041 z m 12.758,0 h 12.4023 v 4.46578 h -12.4023 z m 12.7582,0 h 12.3376 v 4.46578 h -12.3376 z m 12.848,0 h 12.3122 v 4.46578 h -12.3122 z m 12.6661,0 h 12.4042 v 4.46578 h -12.4042 z m 12.7581,0 h 12.4022 v 4.46578 h -12.4022 z m 25.6335,0 h 12.2849 v 4.46578 h -12.2849 z m 12.6388,0 h 12.4022 v 4.46578 h -12.4022 z m 12.758,0 h 12.3378 v 4.46578 h -12.3378 z m -484.70141,4.81966 h 12.33177 v 4.46588 h -12.33177 z m 12.68566,0 h 12.40426 v 4.46588 h -12.40426 z m 12.75814,0 h 12.40225 v 4.46588 h -12.40225 z m 25.58456,0 H 383.754 v 4.46588 h -12.33378 z m 12.68776,0 h 12.40216 v 4.46588 h -12.40216 z m 12.75804,0 h 12.40226 v 4.46588 h -12.40226 z m 12.75614,0 h 12.32007 v 4.46588 h -12.32007 z m 12.83042,0 h 12.32988 v 4.46588 h -12.32988 z m 12.68577,0 h 12.40215 v 4.46588 h -12.40215 z m 12.75614,0 h 12.40415 v 4.46588 h -12.40415 z m 12.75804,0 h 12.32006 v 4.46588 h -12.32006 z m 12.84603,0 h 12.31421 v 4.46588 h -12.31421 z m 12.67011,0 h 12.4022 v 4.46588 h -12.4022 z m 102.047,0 h 12.4023 v 4.46588 h -12.4023 z m 12.7562,0 h 12.4041 v 4.46588 h -12.4041 z m 12.7581,0 h 12.3435 v 4.46588 h -12.3435 z m 12.848,0 h 12.3123 v 4.46588 h -12.3123 z m 12.6662,0 h 12.4042 v 4.46588 h -12.4042 z m 12.758,0 h 12.4042 v 4.46588 h -12.4042 z m 12.7582,0 h 12.3377 v 4.46588 h -12.3377 z m 12.8479,0 h 12.3124 v 4.46588 h -12.3124 z m 12.6663,0 h 12.4041 v 4.46588 h -12.4041 z m 12.758,0 h 12.4023 v 4.46588 h -12.4023 z m 12.7582,0 h 12.3376 v 4.46588 h -12.3376 z m 12.848,0 h 12.3122 v 4.46588 h -12.3122 z m 12.6661,0 h 12.4042 v 4.46588 h -12.4042 z m 12.7581,0 h 12.4022 v 4.46588 h -12.4022 z m 25.6335,0 h 12.2849 v 4.46588 h -12.2868 z m 12.6388,0 h 12.4022 v 4.46588 h -12.4022 z m 12.758,0 h 12.3378 v 4.46588 h -12.3378 z m -484.70141,4.81977 h 12.33177 v 4.46579 h -12.33177 z m 12.68566,0 h 12.40426 v 4.46579 h -12.40426 z m 12.75814,0 h 12.40225 v 4.46579 h -12.40225 z m 25.58456,0 H 383.754 v 4.46579 h -12.33378 z m 12.68776,0 h 12.40216 v 4.46579 h -12.40216 z m 12.75804,0 h 12.40226 v 4.46579 h -12.40226 z m 12.75614,0 h 12.32007 v 4.46579 h -12.32007 z m 12.83042,0 h 12.32988 v 4.46579 h -12.32988 z m 12.68577,0 h 12.40215 v 4.46579 h -12.40215 z m 12.75614,0 h 12.40415 v 4.46579 h -12.40415 z m 12.75804,0 h 12.32006 v 4.46579 h -12.32006 z m 12.84603,0 h 12.31421 v 4.46579 h -12.31421 z m 12.67011,0 h 12.4022 v 4.46579 h -12.4022 z m 102.047,0 h 12.4023 v 4.46579 h -12.4023 z m 12.7562,0 h 12.4041 v 4.46579 h -12.4041 z m 12.7581,0 h 12.3435 v 4.46579 h -12.3435 z m 12.848,0 h 12.3123 v 4.46579 h -12.3123 z m 12.6662,0 h 12.4042 v 4.46579 h -12.4042 z m 12.758,0 h 12.4042 v 4.46579 h -12.4042 z m 12.7582,0 h 12.3377 v 4.46579 h -12.3377 z m 12.8479,0 h 12.3124 v 4.46579 h -12.3124 z m 12.6663,0 h 12.4041 v 4.46579 h -12.4041 z m 12.758,0 h 12.4023 v 4.46579 h -12.4023 z m 12.7582,0 h 12.3376 v 4.46579 h -12.3376 z m 12.848,0 h 12.3122 v 4.46579 h -12.3122 z m 12.6661,0 h 12.4042 v 4.46579 h -12.4042 z m 12.7581,0 h 12.4022 v 4.46579 h -12.4022 z m 25.6316,0 h 12.2868 v 4.46579 h -12.2888 z m 12.6407,0 h 12.4022 v 4.46579 h -12.4022 z m 12.758,0 h 12.3378 v 4.46579 h -12.3378 z m -484.70141,4.81977 h 12.33177 v 3.04823 h -12.33177 z m 12.68566,0 h 12.40426 v 3.04823 h -12.40426 z m 12.75814,0 h 12.40225 v 3.04823 h -12.40225 z m 25.58456,0 H 383.754 v 3.04823 h -12.33378 z m 12.68776,0 h 12.40216 v 3.04823 h -12.40216 z m 12.75804,0 h 12.40226 v 3.04823 h -12.40226 z m 12.75614,0 h 12.32007 v 3.04823 h -12.32007 z m 12.83042,0 h 12.32988 v 3.04823 h -12.32988 z m 12.68577,0 h 12.40215 v 3.04823 h -12.40215 z m 12.75614,0 h 12.40415 v 3.04823 h -12.40415 z m 12.75804,0 h 12.32006 v 3.04823 h -12.32006 z m 12.84603,0 h 12.31421 v 3.04823 h -12.31421 z m 12.67011,0 h 12.4022 v 3.04823 h -12.4022 z m 102.047,0 h 12.4023 v 3.04823 h -12.4023 z m 12.7562,0 h 12.4041 v 3.04823 h -12.4041 z m 12.7581,0 h 12.3435 v 3.04823 h -12.3435 z m 12.848,0 h 12.3123 v 3.04823 h -12.3123 z m 12.6662,0 h 12.4042 v 3.04823 h -12.4042 z m 12.758,0 h 12.4042 v 3.04823 h -12.4042 z m 12.7582,0 h 12.3377 v 3.04823 h -12.3377 z m 12.8479,0 h 12.3124 v 3.04823 h -12.3124 z m 12.6663,0 h 12.4041 v 3.04823 h -12.4041 z m 12.758,0 h 12.4023 v 3.04823 h -12.4023 z m 12.7582,0 h 12.3376 v 3.04823 h -12.3376 z m 12.848,0 h 12.3122 v 3.04823 h -12.3122 z m 12.6661,0 h 12.4042 v 3.04823 h -12.4042 z m 12.7581,0 h 12.4022 v 3.04823 h -12.4022 z m 25.6296,0 h 12.2888 v 3.04823 h -12.2888 z m 12.6427,0 h 12.4022 v 3.04823 h -12.4022 z m 12.758,0 h 12.3378 v 3.04823 h -12.3378 z m -727.095191,6.16494 h 37.803011 v 1.13404 h -12.3592 v -0.42436 H 103.088 v 0.42436 H 90.685749 v -0.42436 h -0.35589 v 0.42436 h -12.33178 z m 38.272231,0 h 50.5201 v 1.13404 h -12.31816 v -0.42436 h -0.35388 v 0.42436 h -12.40226 v -0.42436 h -0.35589 v 0.42436 h -12.40215 v -0.42436 h -0.35399 v 0.42436 h -12.33377 z m 51.03036,0 h 50.52791 v 1.13404 h -12.32597 v -0.42436 h -0.35388 v 32.74287 h 0.35388 v -3.04632 h 12.32597 v 3.18898 h -50.52591 v -3.18898 h 12.32988 v 3.04632 h 0.35588 v -3.04632 h 12.40216 v 3.04632 h 0.35398 v -32.74287 h -0.35398 v 0.42436 h -12.40216 v -0.42436 h -0.35588 v 0.42436 h -12.33188 z m 51.03827,0 h 50.52591 v 1.13404 h -12.33187 v -0.42436 h -0.35389 v 0.42436 h -12.40415 v -0.42436 h -0.35389 v 0.42436 h -12.40426 v -0.42436 h -0.35388 v 0.42436 h -12.32397 z m 51.03036,0 h 50.5122 v 1.13404 h -12.31816 v -0.42436 h -0.35589 v 0.42436 H 294.8053 v -0.42436 h -0.35389 v 0.42436 h -12.40425 v -0.42436 h -0.35389 v 0.42436 H 269.3693 Z m 51.02256,0 h 50.52 v 1.13404 H 358.5918 v -0.42436 h -0.35389 v 0.42436 h -12.40225 v -0.42436 h -0.35388 v 0.42436 h -12.40426 v -0.42436 h -0.35389 v 0.42436 h -12.33177 z m 51.03036,0 h 50.52001 v 1.13404 h -12.32007 v -0.42436 h -0.35388 v 0.42436 h -12.40226 v -0.42436 h -0.35588 v 32.74287 h 0.35588 v -3.04632 h 12.40226 v 3.04632 h 0.35388 v -3.04632 h 12.32207 v 3.18898 h -50.52011 v -3.18898 H 383.754 v 3.04632 h 0.35398 V 108.26471 H 383.754 v 0.42436 h -12.33178 z m 51.03036,0 h 50.52001 v 1.13404 h -12.32006 v -0.42436 h -0.35389 v 0.42436 h -12.40415 v -0.42436 h -0.35399 v 0.42436 h -12.40215 v -0.42436 h -0.35589 v 0.42436 h -12.32988 z m 51.04598,0 h 50.50441 v 1.13404 h -12.3201 v -0.42436 h -0.3539 v 0.42436 h -12.4041 v -0.42436 h -0.354 v 0.42436 h -12.4022 v -0.42436 h -0.3539 v 0.42436 h -12.3142 z m 51.02851,0 h 50.5102 v 33.59521 h -50.5123 z m 51.0205,0 h 50.5259 v 1.27669 h -12.3279 v -0.42616 h -0.3538 v 0.42616 h -12.4023 v -0.42616 h -0.3539 v 32.74468 h -25.088 z m 51.0304,0 h 50.5201 v 1.27669 h -12.3221 v -0.42616 h -0.3539 v 0.42616 h -12.4022 v -0.42616 h -0.3559 v 0.42616 h -12.4022 v -0.42616 h -0.354 v 0.42616 h -12.3298 z m 51.0303,0 h 50.5201 v 1.27669 h -12.322 v -0.42616 h -0.3539 v 0.42616 h -12.4042 v -0.42616 h -0.354 v 0.42616 h -12.4021 v -0.42616 h -0.3559 v 0.42616 h -12.328 z m 51.0305,0 h 50.4887 v 1.27669 h -12.2908 v -0.42616 h -0.3539 v 0.42616 h -12.4041 v -0.42616 h -0.354 v 0.42616 h -12.4042 v -0.42616 h -0.3538 v 32.74468 h -12.3279 z m 51.0538,0 h 37.7385 v 1.27669 h -12.322 v -0.42616 h -0.3539 v 0.42616 h -12.4043 v -0.42616 h -0.3539 v 0.42616 h -12.3044 z m -701.694491,1.48983 h 12.33178 v 4.46388 h -12.33178 z m 12.68767,0 H 103.088 v 4.46388 H 90.685749 Z m 12.756141,0 h 12.3592 v 4.46388 h -12.3573 z m 12.82842,0 h 12.33377 v 4.46388 h -12.33377 z m 12.68776,0 h 12.40215 v 4.46388 h -12.40215 z m 12.75804,0 h 12.40226 v 4.46388 h -12.40226 z m 12.75614,0 h 12.31816 v 4.46388 h -12.31816 z m 12.82842,0 h 12.33188 v 4.46388 h -12.33188 z m 12.68776,0 h 12.40216 v 4.46388 h -12.40216 z m 25.51418,0 h 12.32597 v 4.46388 h -12.32597 z m 12.83633,0 h 12.32397 v 4.46388 h -12.32397 z m 12.67785,0 h 12.40426 v 4.46388 h -12.40426 z m 12.75815,0 h 12.40415 v 4.46388 h -12.40415 z m 12.75804,0 h 12.33187 v 4.46388 h -12.33187 z m 12.83632,0 h 12.32397 v 4.46388 H 269.3693 Z m 12.67786,0 h 12.40425 v 4.46388 h -12.40425 z m 12.75814,0 h 12.40215 v 4.46388 H 294.8053 Z m 12.75804,0 h 12.31816 v 4.46388 h -12.31816 z m 12.82852,0 h 12.33177 v 4.46388 h -12.33177 z m 12.68566,0 h 12.40426 v 4.46388 h -12.40426 z m 12.75814,0 h 12.40225 v 4.46388 h -12.40225 z m 12.75614,0 h 12.32006 v 4.46388 H 358.5918 Z m 12.83042,0 H 383.754 v 4.46388 h -12.33178 z m 25.4438,0 h 12.40226 v 4.46388 h -12.40226 z m 12.75614,0 h 12.32007 v 4.46388 h -12.32007 z m 12.83042,0 h 12.32988 v 4.46388 h -12.32988 z m 12.68577,0 h 12.40215 v 4.46388 h -12.40215 z m 12.75614,0 h 12.40415 v 4.46388 h -12.40415 z m 12.75804,0 h 12.32006 v 4.46388 h -12.32006 z m 12.84603,0 h 12.31421 v 4.46388 h -12.31421 z m 12.67011,0 h 12.4022 v 4.46388 h -12.4022 z m 12.7562,0 h 12.4041 v 4.46388 h -12.4041 z m 12.758,0 h 12.3201 v 4.46388 h -12.3201 z m 89.3066,0.14085 h 12.4023 v 4.46578 h -12.4023 z m 12.7561,0 h 12.3279 v 4.46578 h -12.3279 z m 12.8324,0 h 12.3298 v 4.46578 h -12.3298 z m 12.6838,0 h 12.4022 v 4.46578 h -12.4022 z m 12.7581,0 h 12.4022 v 4.46578 h -12.4022 z m 12.7561,0 h 12.3221 v 4.46578 h -12.3221 z m 12.8323,0 h 12.328 v 4.46578 h -12.328 z m 12.6839,0 h 12.4021 v 4.46578 h -12.4021 z m 12.7561,0 h 12.4042 v 4.46578 h -12.4042 z m 12.7581,0 h 12.322 v 4.46578 h -12.322 z m 25.5141,0 h 12.4042 v 4.46578 h -12.4042 z m 12.7582,0 h 12.4041 v 4.46578 h -12.4041 z m 12.758,0 h 12.2908 v 4.46578 h -12.2908 z m 12.8559,0 h 12.3044 v 4.46578 h -12.3064 z m 12.6583,0 h 12.4043 v 4.46578 h -12.4043 z m 12.7582,0 h 12.322 v 4.46578 h -12.322 z m -727.110991,4.67891 h 12.33178 v 4.46388 h -12.33178 z m 12.68767,0 H 103.088 v 4.46388 H 90.685749 Z m 12.756141,0 h 12.3572 v 4.46388 h -12.3553 z m 12.82842,0 h 12.33377 v 4.46388 h -12.33377 z m 12.68776,0 h 12.40215 v 4.46388 h -12.40215 z m 12.75804,0 h 12.40226 v 4.46388 h -12.40226 z m 12.75614,0 h 12.31816 v 4.46388 h -12.31816 z m 12.82842,0 h 12.33188 v 4.46388 h -12.33188 z m 12.68776,0 h 12.40216 v 4.46388 h -12.40216 z m 25.51418,0 h 12.32597 v 4.46388 h -12.32597 z m 12.83633,0 h 12.32397 v 4.46388 h -12.32397 z m 12.67785,0 h 12.40426 v 4.46388 h -12.40426 z m 12.75815,0 h 12.40415 v 4.46388 h -12.40415 z m 12.75804,0 h 12.33187 v 4.46388 h -12.33187 z m 12.83632,0 h 12.32397 v 4.46388 H 269.3693 Z m 12.67786,0 h 12.40425 v 4.46388 h -12.40425 z m 12.75814,0 h 12.40215 v 4.46388 H 294.8053 Z m 12.75804,0 h 12.31816 v 4.46388 h -12.31816 z m 12.82852,0 h 12.33177 v 4.46388 h -12.33177 z m 12.68566,0 h 12.40426 v 4.46388 h -12.40426 z m 12.75814,0 h 12.40225 v 4.46388 h -12.40225 z m 12.75614,0 h 12.32006 v 4.46388 H 358.5918 Z m 12.83042,0 H 383.754 v 4.46388 h -12.33178 z m 25.4438,0 h 12.40226 v 4.46388 h -12.40226 z m 12.75614,0 h 12.32007 v 4.46388 h -12.32007 z m 12.83042,0 h 12.32988 v 4.46388 h -12.32988 z m 12.68577,0 h 12.40215 v 4.46388 h -12.40215 z m 12.75614,0 h 12.40415 v 4.46388 h -12.40415 z m 12.75804,0 h 12.32006 v 4.46388 h -12.32006 z m 12.84603,0 h 12.31421 v 4.46388 h -12.31611 z m 12.67011,0 h 12.4022 v 4.46388 h -12.4022 z m 12.7562,0 h 12.4041 v 4.46388 h -12.4041 z m 12.758,0 h 12.3201 v 4.46388 h -12.3201 z m 89.3066,0.14076 h 12.4023 v 4.46578 h -12.4023 z m 12.7561,0 h 12.3279 v 4.46578 h -12.3279 z m 12.8324,0 h 12.3298 v 4.46578 h -12.3298 z m 12.6838,0 h 12.4022 v 4.46578 h -12.4022 z m 12.7581,0 h 12.4022 v 4.46578 h -12.4022 z m 12.7561,0 h 12.3221 v 4.46578 h -12.3221 z m 12.8323,0 h 12.328 v 4.46578 h -12.328 z m 12.6839,0 h 12.4021 v 4.46578 h -12.4021 z m 12.7561,0 h 12.4042 v 4.46578 h -12.4042 z m 12.7581,0 h 12.322 v 4.46578 h -12.322 z m 25.5141,0 h 12.4042 v 4.46578 h -12.4042 z m 12.7582,0 h 12.4041 v 4.46578 h -12.4041 z m 12.758,0 h 12.2908 v 4.46578 h -12.2908 z m 12.8539,0 h 12.3064 v 4.46578 h -12.3064 z m 12.6603,0 h 12.4043 v 4.46578 h -12.4043 z m 12.7582,0 h 12.322 v 4.46578 h -12.322 z m -727.110991,4.67701 h 12.33178 v 4.46578 h -12.33178 z m 12.68767,0 H 103.088 v 4.46578 H 90.685749 Z m 12.756141,0 h 12.3553 v 4.46578 h -12.3534 z m 12.82842,0 h 12.33377 v 4.46578 h -12.33377 z m 12.68776,0 h 12.40215 v 4.46578 h -12.40215 z m 12.75804,0 h 12.40226 v 4.46578 h -12.40226 z m 12.75614,0 h 12.31816 v 4.46578 h -12.31816 z m 12.82842,0 h 12.33188 v 4.46578 h -12.33188 z m 12.68776,0 h 12.40216 v 4.46578 h -12.40216 z m 25.51418,0 h 12.32597 v 4.46578 h -12.32597 z m 12.83633,0 h 12.32397 v 4.46578 h -12.32397 z m 12.67785,0 h 12.40426 v 4.46578 h -12.40426 z m 12.75815,0 h 12.40415 v 4.46578 h -12.40415 z m 12.75804,0 h 12.33187 v 4.46578 h -12.33187 z m 12.83632,0 h 12.32397 v 4.46578 H 269.3693 Z m 12.67786,0 h 12.40425 v 4.46578 h -12.40425 z m 12.75814,0 h 12.40215 v 4.46578 H 294.8053 Z m 12.75804,0 h 12.31816 v 4.46578 h -12.31816 z m 12.82852,0 h 12.33177 v 4.46578 h -12.33177 z m 12.68566,0 h 12.40426 v 4.46578 h -12.40426 z m 12.75814,0 h 12.40225 v 4.46578 h -12.40225 z m 12.75614,0 h 12.32006 v 4.46578 H 358.5918 Z m 12.83042,0 H 383.754 v 4.46578 h -12.33178 z m 25.4438,0 h 12.40226 v 4.46578 h -12.40226 z m 12.75614,0 h 12.32007 v 4.46578 h -12.32007 z m 12.83042,0 h 12.32988 v 4.46578 h -12.32988 z m 12.68577,0 h 12.40215 v 4.46578 h -12.40215 z m 12.75614,0 h 12.40415 v 4.46578 h -12.40415 z m 12.75804,0 h 12.32006 v 4.46578 h -12.32006 z m 12.84413,0 h 12.31611 v 4.46578 h -12.31611 z m 12.67201,0 h 12.4022 v 4.46578 h -12.4022 z m 12.7562,0 h 12.4041 v 4.46578 h -12.4041 z m 12.758,0 h 12.3201 v 4.46578 h -12.3201 z m 89.3066,0.14275 h 12.4023 v 4.46388 h -12.4023 z m 12.7561,0 h 12.3279 v 4.46388 h -12.3279 z m 12.8324,0 h 12.3298 v 4.46388 h -12.3298 z m 12.6838,0 h 12.4022 v 4.46388 h -12.4022 z m 12.7581,0 h 12.4022 v 4.46388 h -12.4022 z m 12.7561,0 h 12.3221 v 4.46388 h -12.3221 z m 12.8323,0 h 12.328 v 4.46388 h -12.328 z m 12.6839,0 h 12.4021 v 4.46388 h -12.4021 z m 12.7561,0 h 12.4042 v 4.46388 h -12.4042 z m 12.7581,0 h 12.322 v 4.46388 h -12.322 z m 25.5141,0 h 12.4042 v 4.46388 h -12.4042 z m 12.7582,0 h 12.4041 v 4.46388 h -12.4041 z m 12.758,0 h 12.2908 v 4.46388 h -12.2908 z m 12.8539,0 h 12.3064 v 4.46388 h -12.3083 z m 12.6603,0 h 12.4043 v 4.46388 h -12.4043 z m 12.7582,0 h 12.322 v 4.46388 h -12.322 z m -727.110991,4.67692 h 12.33178 v 4.46588 h -12.32988 z m 12.68767,0 H 103.088 v 4.46588 H 90.685749 Z m 12.756141,0 h 12.3533 v 4.46588 h -12.3514 z m 12.82842,0 h 12.33377 v 4.46588 h -12.33177 z m 12.68776,0 h 12.40215 v 4.46588 h -12.40215 z m 12.75804,0 h 12.40226 v 4.46588 h -12.40226 z m 12.75614,0 h 12.31816 v 4.46588 h -12.32016 z m 12.82842,0 h 12.33188 v 4.46588 h -12.32988 z m 12.68776,0 h 12.40216 v 4.46588 h -12.40216 z m 25.51418,0 h 12.32597 v 4.46588 h -12.32597 z m 12.83633,0 h 12.32397 v 4.46588 h -12.32397 z m 12.67785,0 h 12.40426 v 4.46588 h -12.40426 z m 12.75815,0 h 12.40415 v 4.46588 h -12.40415 z m 12.75804,0 h 12.33187 v 4.46588 h -12.32987 z m 12.83632,0 h 12.32397 v 4.46588 H 269.3673 Z m 12.67786,0 h 12.40425 v 4.46588 h -12.40425 z m 12.75814,0 h 12.40215 v 4.46588 H 294.8053 Z m 12.75804,0 h 12.31816 v 4.46588 h -12.32006 z m 12.82852,0 h 12.33177 v 4.46588 h -12.32987 z m 12.68566,0 h 12.40426 v 4.46588 h -12.40426 z m 12.75814,0 h 12.40225 v 4.46588 h -12.40225 z m 12.75614,0 h 12.32006 v 4.46588 H 358.5898 Z m 12.83042,0 H 383.754 v 4.46588 h -12.32988 z m 25.4438,0 h 12.40226 v 4.46588 h -12.40226 z m 12.75614,0 h 12.32007 v 4.46588 h -12.32207 z m 12.83042,0 h 12.32988 v 4.46588 h -12.32797 z m 12.68577,0 h 12.40215 v 4.46588 h -12.40215 z m 12.75614,0 h 12.40415 v 4.46588 h -12.40415 z m 12.75804,0 h 12.32006 v 4.46588 h -12.32207 z m 12.84413,0 h 12.31611 v 4.46588 h -12.31611 z m 12.67201,0 h 12.4022 v 4.46588 h -12.4022 z m 12.7562,0 h 12.4041 v 4.46588 h -12.4041 z m 12.758,0 h 12.3201 v 4.46588 h -12.3221 z m 89.3066,0.14275 h 12.4023 v 4.46388 h -12.4023 z m 12.7561,0 h 12.3279 v 4.46388 h -12.3279 z m 12.8324,0 h 12.3298 v 4.46388 h -12.3298 z m 12.6838,0 h 12.4022 v 4.46388 h -12.4022 z m 12.7581,0 h 12.4022 v 4.46388 h -12.4022 z m 12.7561,0 h 12.3221 v 4.46388 h -12.3241 z m 12.8323,0 h 12.328 v 4.46388 h -12.328 z m 12.6839,0 h 12.4021 v 4.46388 h -12.4021 z m 12.7561,0 h 12.4042 v 4.46388 h -12.4042 z m 12.7581,0 h 12.322 v 4.46388 h -12.322 z m 25.5141,0 h 12.4042 v 4.46388 h -12.4042 z m 12.7582,0 h 12.4041 v 4.46388 h -12.4041 z m 12.758,0 h 12.2908 v 4.46388 h -12.2908 z m 12.852,0 h 12.3083 v 4.46388 h -12.3083 z m 12.6622,0 h 12.4043 v 4.46388 h -12.4043 z m 12.7582,0 h 12.322 v 4.46388 h -12.322 z m -727.109091,4.67701 h 12.32988 v 4.46578 h -12.32988 z m 12.68577,0 H 103.088 v 4.46578 H 90.685749 Z m 12.756141,0 h 12.3514 v 4.46578 h -12.3495 z m 12.83042,0 h 12.33177 v 4.46578 h -12.33177 z m 12.68576,0 h 12.40215 v 4.46578 h -12.40215 z m 12.75804,0 h 12.40226 v 4.46578 h -12.40226 z m 12.75614,0 h 12.32006 v 4.46578 h -12.32006 z m 12.83042,0 h 12.32988 v 4.46578 h -12.32988 z m 12.68576,0 h 12.40216 v 4.46578 h -12.40216 z m 25.51418,0 h 12.32597 v 4.46578 h -12.32597 z m 12.83633,0 h 12.32397 v 4.46578 h -12.32397 z m 12.67785,0 h 12.40426 v 4.46578 h -12.40426 z m 12.75815,0 h 12.40415 v 4.46578 h -12.40415 z m 12.75804,0 h 12.32987 v 4.46578 h -12.32987 z m 12.83432,0 h 12.32597 v 4.46578 H 269.3673 Z m 12.67986,0 h 12.40425 v 4.46578 h -12.40425 z m 12.75814,0 h 12.40215 v 4.46578 H 294.8053 Z m 12.75804,0 h 12.32016 v 4.46578 h -12.32016 z m 12.83042,0 h 12.32987 v 4.46578 h -12.32987 z m 12.68376,0 h 12.40426 v 4.46578 h -12.40426 z m 12.75814,0 h 12.40225 v 4.46578 h -12.40225 z m 12.75614,0 h 12.32207 v 4.46578 H 358.5918 Z m 12.83232,0 H 383.754 v 4.46578 h -12.32988 z m 25.4419,0 h 12.40226 v 4.46578 h -12.40226 z m 12.75614,0 h 12.32207 v 4.46578 h -12.32207 z m 12.83233,0 h 12.32797 v 4.46578 h -12.32797 z m 12.68386,0 h 12.40215 v 4.46578 h -12.40215 z m 12.75614,0 h 12.40415 v 4.46578 h -12.40415 z m 12.75804,0 h 12.32206 v 4.46578 h -12.32206 z m 12.84413,0 h 12.31611 v 4.46578 h -12.31811 z m 12.67201,0 h 12.4022 v 4.46578 h -12.4022 z m 12.7562,0 h 12.4041 v 4.46578 h -12.4041 z m 12.758,0 h 12.3221 v 4.46578 h -12.3221 z m 89.3066,0.14276 h 12.4023 v 4.46388 h -12.4023 z m 12.7561,0 h 12.3279 v 4.46388 h -12.3279 z m 12.8324,0 h 12.3298 v 4.46388 h -12.3298 z m 12.6838,0 h 12.4022 v 4.46388 h -12.4022 z m 12.7581,0 h 12.4022 v 4.46388 h -12.4022 z m 12.7561,0 h 12.324 v 4.46388 h -12.324 z m 12.8323,0 h 12.328 v 4.46388 h -12.328 z m 12.6839,0 h 12.4021 v 4.46388 h -12.4021 z m 12.7561,0 h 12.4042 v 4.46388 h -12.4042 z m 12.7581,0 h 12.322 v 4.46388 h -12.322 z m 25.5141,0 h 12.4042 v 4.46388 h -12.4042 z m 12.7582,0 h 12.4041 v 4.46388 h -12.4041 z m 12.758,0 h 12.2908 v 4.46388 h -12.2908 z m 12.852,0 h 12.3083 v 4.46388 h -12.3103 z m 12.6622,0 h 12.4043 v 4.46388 h -12.4043 z m 12.7582,0 h 12.322 v 4.46388 h -12.322 z m -727.109091,4.67691 h 12.32988 v 4.46388 h -12.32988 z m 12.68577,0 H 103.088 v 4.46388 H 90.685749 Z m 12.756141,0 h 12.34939 v 4.46388 h -12.34939 z m 12.83042,0 h 12.33177 v 4.46388 h -12.33177 z m 12.68576,0 h 12.40215 v 4.46388 h -12.40215 z m 12.75804,0 h 12.40226 v 4.46388 h -12.40226 z m 12.75614,0 h 12.32006 v 4.46388 h -12.32006 z m 12.83042,0 h 12.32988 v 4.46388 h -12.32988 z m 12.68576,0 h 12.40216 v 4.46388 h -12.40216 z m 25.51418,0 h 12.32597 v 4.46388 h -12.32597 z m 12.83633,0 h 12.32397 v 4.46388 h -12.32397 z m 12.67785,0 h 12.40426 v 4.46388 h -12.40426 z m 12.75815,0 h 12.40415 v 4.46388 h -12.40415 z m 12.75804,0 h 12.32987 v 4.46388 h -12.32987 z m 12.83432,0 h 12.32597 v 4.46388 H 269.3673 Z m 12.67986,0 h 12.40425 v 4.46388 h -12.40425 z m 12.75814,0 h 12.40215 v 4.46388 H 294.8053 Z m 12.75804,0 h 12.32016 v 4.46388 h -12.32016 z m 12.83042,0 h 12.32987 v 4.46388 h -12.32987 z m 12.68376,0 h 12.40426 v 4.46388 h -12.40426 z m 12.75814,0 h 12.40225 v 4.46388 h -12.40225 z m 12.75614,0 h 12.32207 v 4.46388 H 358.5918 Z m 12.83232,0 H 383.754 v 4.46388 h -12.32988 z m 25.4419,0 h 12.40226 v 4.46388 h -12.40226 z m 12.75614,0 h 12.32207 v 4.46388 h -12.32207 z m 12.83233,0 h 12.32797 v 4.46388 h -12.32797 z m 12.68386,0 h 12.40215 v 4.46388 h -12.40215 z m 12.75614,0 h 12.40415 v 4.46388 h -12.40415 z m 12.75804,0 h 12.32206 v 4.46388 h -12.32206 z m 12.84213,0 h 12.31811 v 4.46388 h -12.31811 z m 12.67401,0 h 12.4022 v 4.46388 h -12.4022 z m 12.7562,0 h 12.4041 v 4.46388 h -12.4041 z m 12.758,0 h 12.3221 v 4.46388 h -12.3221 z m 89.3066,0.14085 h 12.4023 v 4.46578 h -12.4023 z m 12.7561,0 h 12.3279 v 4.46578 h -12.3279 z m 12.8324,0 h 12.3298 v 4.46578 h -12.3298 z m 12.6838,0 h 12.4022 v 4.46578 h -12.4022 z m 12.7581,0 h 12.4022 v 4.46578 h -12.4022 z m 12.7561,0 h 12.324 v 4.46578 h -12.324 z m 12.8323,0 h 12.328 v 4.46578 h -12.328 z m 12.6839,0 h 12.4021 v 4.46578 h -12.4021 z m 12.7561,0 h 12.4042 v 4.46578 h -12.4042 z m 12.7581,0 h 12.322 v 4.46578 h -12.322 z m 25.5141,0 h 12.4042 v 4.46578 h -12.4042 z m 12.7582,0 h 12.4041 v 4.46578 h -12.4041 z m 12.758,0 h 12.2908 v 4.46578 h -12.2908 z m 12.85,0 h 12.3103 v 4.46578 h -12.3122 z m 12.6642,0 h 12.4043 v 4.46578 h -12.4043 z m 12.7582,0 h 12.322 v 4.46578 h -12.322 z m -727.109091,4.67892 h 12.32988 v 3.04632 h 0.35589 v -3.04632 H 103.088 v 3.04632 h 0.35389 v -3.04632 h 12.34939 v 3.18898 H 78.001989 Z m 38.272331,0 h 12.33177 v 3.04632 h 0.35399 v -3.04632 h 12.40215 v 3.04632 h 0.35589 v -3.04632 h 12.40226 v 3.04632 h 0.35388 v -3.04632 h 12.32006 v 3.18898 h -50.52 z m 102.06663,0 h 12.32397 v 3.04632 h 0.35388 v -3.04632 h 12.40426 v 3.04632 h 0.35389 v -3.04632 h 12.40415 v 3.04632 h 0.35389 v -3.04632 h 12.32987 v 3.18898 h -50.52391 z m 51.02836,0 h 12.32597 v 3.04632 h 0.35389 v -3.04632 h 12.40425 v 3.04632 h 0.35389 v -3.04632 h 12.40215 v 3.04632 h 0.35589 v -3.04632 h 12.32016 v 3.18898 h -50.5162 z m 51.02646,0 h 12.32987 v 3.04632 h 0.35389 v -3.04632 h 12.40426 v 3.04632 h 0.35388 v -3.04632 h 12.40225 v 3.04632 h 0.35389 v -3.04632 h 12.32207 v 3.18898 h -50.52011 z m 102.06073,0 h 12.32797 v 3.04632 h 0.35589 v -3.04632 h 12.40215 v 3.04632 h 0.35399 v -3.04632 h 12.40415 v 3.04632 h 0.35389 v -3.04632 h 12.32206 v 3.18898 h -50.5201 z m 51.04017,0 h 12.31811 v 3.04632 h 0.3539 v -3.04632 h 12.4023 v 3.04632 h 0.3539 v -3.04632 h 12.4041 v 3.04632 h 0.3539 v -3.04632 h 12.3221 v 3.18898 h -50.51021 z m 127.49481,0.14075 h 12.4023 v 3.04823 h -12.4023 z m 12.7561,0 h 12.3279 v 3.04823 h -12.3279 z m 12.8324,0 h 12.3298 v 3.04823 h -12.3298 z m 12.6838,0 h 12.4022 v 3.04823 h -12.4022 z m 12.7581,0 h 12.4022 v 3.04823 h -12.4022 z m 12.7561,0 h 12.324 v 3.04823 h -12.324 z m 12.8323,0 h 12.328 v 3.04823 h -12.328 z m 12.6839,0 h 12.4021 v 3.04823 h -12.4021 z m 12.7561,0 h 12.4042 v 3.04823 h -12.4042 z m 12.7581,0 h 12.322 v 3.04823 h -12.322 z m 25.5141,0 h 12.4042 v 3.04823 h -12.4042 z m 12.7582,0 h 12.4041 v 3.04823 h -12.4041 z m 12.758,0 h 12.2908 v 3.04823 h -12.2908 z m 12.8481,0 h 12.3122 v 3.04823 h -12.3122 z m 12.6661,0 h 12.4043 v 3.04823 h -12.4043 z m 12.7582,0 h 12.322 v 3.04823 h -12.322 z m -727.109091,6.16694 h 37.789401 l -0.01,33.59331 H 78.003689 v -3.18899 h 12.32597 v 3.04823 h 0.35588 v -3.04823 H 103.0878 v 3.04823 h 0.35389 v -32.74478 h -0.35389 v 0.42627 H 90.685539 v -0.42627 h -0.35588 v 0.42627 h -12.32988 z m 38.272331,0 h 50.52 v 1.13404 h -12.32006 v -0.42627 h -0.35388 v 0.42627 h -12.40226 v -0.42627 h -0.35589 v 0.42627 h -12.40215 v -0.42627 h -0.35399 v 0.42627 h -12.33177 z m 51.03036,0 h 50.52591 v 1.13404 h -12.32597 v -0.42627 h -0.35388 v 0.42627 h -12.40416 v -0.42627 h -0.35398 v 0.42627 h -12.40216 v -0.42627 h -0.35588 v 0.42627 h -12.32988 z m 51.03627,0 h 50.52391 v 1.13404 h -12.32987 v -0.42627 h -0.35389 v 0.42627 h -12.40415 v -0.42627 h -0.35389 v 0.42627 h -12.40426 v -0.42627 h -0.35388 v 0.42627 h -12.32397 z m 51.02836,0 h 50.5162 v 1.13404 h -12.32016 v -0.42627 h -0.35589 v 0.42627 H 294.8053 v -0.42627 h -0.35389 v 0.42627 h -12.40425 v -0.42627 h -0.35389 v 32.74478 h 0.35389 v -3.04823 h 12.40425 v 3.04823 h 0.35389 v -3.04823 h 12.40215 v 3.04823 h 0.35589 v -3.04823 h 12.32207 v 3.18899 H 269.3673 Z m 51.02646,0 h 50.52011 v 1.13404 H 358.5918 v -0.42627 h -0.35389 v 0.42627 h -12.40225 v -0.42627 h -0.35388 v 0.42627 h -12.40426 v -0.42627 h -0.35389 v 0.42627 h -12.32987 z m 51.03036,0 h 50.52011 v 1.13404 h -12.32207 v -0.42627 h -0.35388 v 0.42627 h -12.40226 v -0.42627 h -0.35588 v 0.42627 h -12.40216 v -0.42627 H 383.754 v 0.42627 h -12.32988 z m 51.03037,0 h 50.5201 v 1.13404 h -12.32206 v -0.42627 h -0.35389 v 0.42627 h -12.40415 v -0.42627 h -0.35399 v 32.74478 h 0.35399 v -3.04823 h 12.40415 v 3.04823 h 0.35389 v -3.04823 h 12.32396 v 3.18899 h -50.52 v -3.18899 h 12.32597 v 3.04823 h 0.35589 v -32.74478 h -0.35589 v 0.42627 h -12.32797 z m 51.04017,0 h 50.51031 v 1.13404 h -12.3221 v -0.42627 h -0.3539 v 0.42627 h -12.4041 v -0.42627 h -0.354 v 0.42627 h -12.4022 v -0.42627 h -0.3539 v 0.42627 h -12.31811 z m 51.03031,0 h 50.5123 v 33.59331 h -50.5142 v -3.18899 h 12.3201 v 3.04823 h 0.3539 v -3.04823 h 12.4042 v 3.04823 h 0.3539 v -3.04823 h 12.4022 v 3.04823 h 0.3559 v -32.74478 h -0.3559 v 0.42627 h -12.4022 v -0.42627 h -0.3539 v 0.42627 h -12.4042 v -0.42627 h -0.3539 v 0.42627 h -12.3182 z m 51.0226,0 h 50.5259 v 1.27479 h -12.3279 v -0.42426 h -0.3538 v 32.74278 h -37.8442 z m 51.0304,0 h 50.522 v 1.27479 h -12.324 v -0.42426 h -0.3539 v 0.42426 h -12.4022 v -0.42426 h -0.3559 v 0.42426 h -12.4022 v -0.42426 h -0.354 v 0.42426 h -12.3298 z m 51.0303,0 h 50.5201 v 1.27479 h -12.322 v -0.42426 h -0.3539 v 0.42426 h -12.4042 v -0.42426 h -0.354 v 0.42426 h -12.4021 v -0.42426 h -0.3559 v 0.42426 h -12.328 z m 51.0305,0 h 50.4887 v 1.27479 h -12.2908 v -0.42426 h -0.3539 v 32.74278 h -12.4041 v -32.74278 h -0.354 v 0.42426 h -12.4042 v -0.42426 h -0.3538 v 0.42426 h -12.3279 z m 51.046,0 h 37.7463 v 1.27479 h -12.322 v -0.42426 h -0.3539 v 0.42426 h -12.4043 v -0.42426 h -0.3539 v 0.42426 h -12.3122 z m -701.684791,1.48792 h 12.32988 v 4.46578 h -12.32988 z m 12.68577,0 H 103.088 v 4.46578 H 90.685749 Z m 25.586561,0 h 12.33177 v 4.46578 0.35399 4.46378 h -12.32987 v 0 -4.46378 -0.35399 z m 12.68576,0 h 12.40215 v 4.46578 h -12.40215 z m 12.75804,0 h 12.40226 v 4.46578 h -12.40226 z m 12.75614,0 h 12.32006 v 4.46578 h -12.32006 z m 12.83042,0 h 12.32988 v 4.46578 h -12.32988 z m 12.68576,0 h 12.40216 v 4.46578 h -12.40216 z m 12.75614,0 h 12.40416 v 4.46578 h -12.40416 z m 12.75804,0 h 12.32597 v 4.46578 h -12.32597 z m 12.83633,0 h 12.32397 v 4.46578 h -12.32397 z m 12.67785,0 h 12.40426 v 4.46578 h -12.40426 z m 12.75815,0 h 12.40415 v 4.46578 h -12.40415 z m 12.75804,0 h 12.32987 v 4.46578 h -12.32987 z m 25.51418,0 h 12.40425 v 4.46578 h -12.40425 z m 12.75814,0 h 12.40215 v 4.46578 H 294.8053 Z m 12.75804,0 h 12.32016 v 4.46578 h -12.32016 z m 12.83042,0 h 12.32987 v 4.46578 h -12.32987 z m 12.68376,0 h 12.40426 v 4.46578 h -12.40426 z m 12.75814,0 h 12.40225 v 4.46578 h -12.40225 z m 12.75614,0 h 12.32207 v 4.46578 H 358.5918 Z m 12.83232,0 H 383.754 v 4.46578 h -12.32988 z m 12.68386,0 h 12.40216 v 4.46578 h -12.40216 z m 12.75804,0 h 12.40226 v 4.46578 h -12.40226 z m 12.75614,0 h 12.32207 v 4.46578 h -12.32207 z m 12.83233,0 h 12.32797 v 4.46578 h -12.32797 z m 25.44,0 h 12.40415 v 4.46578 h -12.40415 z m 12.75804,0 h 12.32206 v 4.46578 h -12.32206 z m 12.84213,0 h 12.31811 v 4.46578 h -12.31811 z m 12.67401,0 h 12.4022 v 4.46578 h -12.4022 z m 12.7562,0 h 12.4041 v 4.46578 h -12.4041 z m 12.758,0 h 12.3221 v 4.46578 h -12.3221 z m 12.8421,0 h 12.3182 v 4.46578 h -12.3182 z m 12.6721,0 h 12.4042 v 4.46578 h -12.4042 z m 12.7581,0 h 12.4022 v 4.46578 h -12.4022 z m 63.7904,0.14076 h 12.3279 v 4.46588 h -12.3279 z m 12.8324,0 h 12.3298 v 4.46588 h -12.3298 z m 12.6838,0 h 12.4022 v 4.46588 h -12.4022 z m 12.7581,0 h 12.4022 v 4.46588 h -12.4022 z m 12.7561,0 h 12.324 v 4.46588 h -12.324 z m 12.8323,0 h 12.328 v 4.46588 h -12.328 z m 12.6839,0 h 12.4021 v 4.46588 h -12.4021 z m 12.7561,0 h 12.4042 v 4.46588 h -12.4042 z m 12.7581,0 h 12.322 v 4.46588 h -12.322 z m 12.8324,0 h 12.3279 v 4.46588 h -12.3279 z m 12.6817,0 h 12.4042 v 4.46588 h -12.4042 z m 25.5162,0 h 12.2908 v 4.46588 h -12.2908 z m 12.8481,0 h 12.3122 v 4.46588 h -12.3142 z m 12.6661,0 h 12.4043 v 4.46588 h -12.4043 z m 12.7582,0 h 12.322 v 4.46588 h -12.322 z m -727.109091,4.67901 h 12.32988 v 4.46378 h -12.32787 z m 12.68577,0 H 103.088 v 4.46378 H 90.685749 Z m 38.272321,0 h 12.40215 v 4.46378 0.35589 4.46388 h -12.40215 v -4.46388 -0.35589 z m 12.75804,0 h 12.40226 v 4.46378 0.35589 4.46388 h -12.40226 v -4.46388 -0.35589 z m 12.75614,0 h 12.32006 v 4.46378 h -12.32206 z m 12.83042,0 h 12.32988 v 4.46378 h -12.32798 z m 12.68576,0 h 12.40216 v 4.46378 h -12.40216 z m 12.75614,0 h 12.40416 v 4.46378 h -12.40416 z m 12.75804,0 h 12.32597 v 4.46378 h -12.32597 z m 12.83633,0 h 12.32397 v 4.46378 h -12.32397 z m 12.67785,0 h 12.40426 v 4.46378 h -12.40426 z m 12.75815,0 h 12.40415 v 4.46378 h -12.40415 z m 12.75804,0 h 12.32987 v 4.46378 h -12.32787 z m 25.51418,0 h 12.40425 v 4.46378 h -12.40425 z m 12.75814,0 h 12.40215 v 4.46378 H 294.8053 Z m 12.75804,0 h 12.32016 v 4.46378 h -12.32016 z m 12.83042,0 h 12.32987 v 4.46378 h -12.32987 z m 12.68376,0 h 12.40426 v 4.46378 h -12.40426 z m 12.75814,0 h 12.40225 v 4.46378 h -12.40225 z m 12.75614,0 h 12.32207 v 4.46378 H 358.5918 Z m 12.83232,0 H 383.754 v 4.46378 h -12.32988 z m 12.68386,0 h 12.40216 v 4.46378 h -12.40216 z m 12.75804,0 h 12.40226 v 4.46378 h -12.40226 z m 12.75614,0 h 12.32207 v 4.46378 h -12.32207 z m 12.83233,0 h 12.32797 v 4.46378 h -12.32797 z m 25.44,0 h 12.40415 v 4.46378 h -12.40415 z m 12.75804,0 h 12.32206 v 4.46378 h -12.32206 z m 12.84213,0 h 12.31811 v 4.46378 h -12.31811 z m 12.67401,0 h 12.4022 v 4.46378 h -12.4022 z m 12.7562,0 h 12.4041 v 4.46378 h -12.4041 z m 12.758,0 h 12.3221 v 4.46378 h -12.3221 z m 12.8421,0 h 12.3182 v 4.46378 h -12.3182 z m 12.6721,0 h 12.4042 v 4.46378 h -12.4042 z m 12.7581,0 h 12.4022 v 4.46378 h -12.4022 z m 63.7904,0.14075 h 12.3279 v 4.46578 h -12.3279 z m 12.8324,0 h 12.3298 v 4.46578 h -12.3298 z m 12.6838,0 h 12.4022 v 4.46578 h -12.4022 z m 12.7581,0 h 12.4022 v 4.46578 h -12.4022 z m 12.7561,0 h 12.324 v 4.46578 h -12.324 z m 12.8323,0 h 12.328 v 4.46578 h -12.328 z m 12.6839,0 h 12.4021 v 4.46578 h -12.4021 z m 12.7561,0 h 12.4042 v 4.46578 h -12.4042 z m 12.7581,0 h 12.322 v 4.46578 h -12.322 z m 12.8324,0 h 12.3279 v 4.46578 h -12.3279 z m 12.6817,0 h 12.4042 v 4.46578 h -12.4042 z m 25.5162,0 h 12.2908 v 4.46578 h -12.2908 z m 12.8461,0 h 12.3142 v 4.46578 h -12.3142 z m 12.6681,0 h 12.4043 v 4.46578 h -12.4043 z m 12.7582,0 h 12.322 v 4.46578 h -12.322 z m -727.107081,4.67892 h 12.32787 v 4.46388 h -12.32787 z m 12.68376,0 H 103.088 v 4.46388 H 90.685749 Z m 25.588461,0 h 12.32987 v 4.46388 0.35388 4.46588 0 h -12.32987 v 0 -4.46588 -0.35388 z m 38.19804,0 h 12.32207 v 4.46388 h -12.32207 z m 12.83232,0 h 12.32798 v 4.46388 h -12.32798 z m 12.68386,0 h 12.40216 v 4.46388 h -12.40216 z m 12.75614,0 h 12.40416 v 4.46388 h -12.40416 z m 12.75804,0 h 12.32597 v 4.46388 h -12.32597 z m 12.83633,0 h 12.32397 v 4.46388 h -12.32397 z m 12.67785,0 h 12.40426 v 4.46388 h -12.40426 z m 12.75815,0 h 12.40415 v 4.46388 h -12.40415 z m 12.75804,0 h 12.32797 v 4.46388 h -12.32797 z m 25.51418,0 h 12.40425 v 4.46388 h -12.40425 z m 12.75814,0 h 12.40215 v 4.46388 H 294.8053 Z m 12.75804,0 h 12.32016 v 4.46388 h -12.32016 z m 12.83042,0 h 12.32987 v 4.46388 h -12.32987 z m 12.68376,0 h 12.40426 v 4.46388 h -12.40426 z m 12.75814,0 h 12.40225 v 4.46388 h -12.40225 z m 12.75614,0 h 12.32207 v 4.46388 H 358.5918 Z m 12.83232,0 H 383.754 v 4.46388 h -12.32988 z m 12.68386,0 h 12.40216 v 4.46388 h -12.40216 z m 12.75804,0 h 12.40226 v 4.46388 h -12.40226 z m 12.75614,0 h 12.32207 v 4.46388 h -12.32207 z m 12.83233,0 h 12.32797 v 4.46388 h -12.32797 z m 25.44,0 h 12.40415 v 4.46388 h -12.40415 z m 12.75804,0 h 12.32206 v 4.46388 h -12.32206 z m 12.84213,0 h 12.31811 v 4.46388 h -12.31811 z m 12.67401,0 h 12.4022 v 4.46388 h -12.4022 z m 12.7562,0 h 12.4041 v 4.46388 h -12.4041 z m 12.758,0 h 12.3221 v 4.46388 h -12.3221 z m 12.8421,0 h 12.3182 v 4.46388 h -12.3182 z m 12.6721,0 h 12.4042 v 4.46388 h -12.4042 z m 12.7581,0 h 12.4022 v 4.46388 h -12.4022 z m 63.7904,0.14075 h 12.3279 v 4.46588 h -12.3279 z m 12.8324,0 h 12.3298 v 4.46588 h -12.3298 z m 12.6838,0 h 12.4022 v 4.46588 h -12.4022 z m 12.7581,0 h 12.4022 v 4.46588 h -12.4022 z m 12.7561,0 h 12.324 v 4.46588 h -12.324 z m 12.8323,0 h 12.328 v 4.46588 h -12.328 z m 12.6839,0 h 12.4021 v 4.46588 h -12.4021 z m 12.7561,0 h 12.4042 v 4.46588 h -12.4042 z m 12.7581,0 h 12.322 v 4.46588 h -12.322 z m 12.8324,0 h 12.3279 v 4.46588 h -12.3279 z m 12.6817,0 h 12.4042 v 4.46588 h -12.4042 z m 25.5162,0 h 12.2908 v 4.46588 h -12.2908 z m 12.8461,0 h 12.3142 v 4.46588 h -12.3161 z m 12.6681,0 h 12.4043 v 4.46588 h -12.4043 z m 12.7582,0 h 12.322 v 4.46588 h -12.322 z m -727.107081,4.67701 h 12.32787 v 4.46588 h -12.32787 z m 12.68376,0 H 103.088 v 4.46588 H 90.685749 Z m 38.272321,0 h 12.40215 v 4.46588 h -12.40215 z m 12.75804,0 h 12.40226 v 4.46588 0.35389 4.46578 h -12.40226 v -4.46578 -0.35389 z m 12.75614,0 h 12.32207 v 4.46588 h -12.32207 z m 12.83232,0 h 12.32798 v 4.46588 h -12.32798 z m 12.68386,0 h 12.40216 v 4.46588 h -12.40216 z m 12.75614,0 h 12.40416 v 4.46588 h -12.40416 z m 12.75804,0 h 12.32597 v 4.46588 h -12.32597 z m 12.83633,0 h 12.32397 v 4.46588 h -12.32397 z m 12.67785,0 h 12.40426 v 4.46588 h -12.40426 z m 12.75815,0 h 12.40415 v 4.46588 h -12.40415 z m 12.75804,0 h 12.32797 v 4.46588 h -12.32797 z m 25.51418,0 h 12.40425 v 4.46588 h -12.40425 z m 12.75814,0 h 12.40215 v 4.46588 H 294.8053 Z m 12.75804,0 h 12.32016 v 4.46588 h -12.32206 z m 12.83042,0 h 12.32987 v 4.46588 h -12.32787 z m 12.68376,0 h 12.40426 v 4.46588 h -12.40426 z m 12.75814,0 h 12.40225 v 4.46588 h -12.40225 z m 12.75614,0 h 12.32207 v 4.46588 H 358.5898 Z m 12.83232,0 H 383.754 v 4.46588 h -12.32787 z m 12.68386,0 h 12.40216 v 4.46588 h -12.40216 z m 12.75804,0 h 12.40226 v 4.46588 h -12.40226 z m 12.75614,0 h 12.32207 v 4.46588 h -12.32407 z m 12.83233,0 h 12.32797 v 4.46588 h -12.32597 z m 25.44,0 h 12.40415 v 4.46588 h -12.40415 z m 12.75804,0 h 12.32206 v 4.46588 h -12.32407 z m 12.84213,0 h 12.31811 v 4.46588 h -12.32001 z m 12.67401,0 h 12.4022 v 4.46588 h -12.4022 z m 12.7562,0 h 12.4041 v 4.46588 h -12.4041 z m 12.758,0 h 12.3221 v 4.46588 h -12.3241 z m 12.8421,0 h 12.3182 v 4.46588 h -12.3201 z m 12.6721,0 h 12.4042 v 4.46588 h -12.4042 z m 12.7581,0 h 12.4022 v 4.46588 h -12.4022 z m 63.7904,0.14276 h 12.3279 v 4.46578 h -12.3279 z m 12.8324,0 h 12.3298 v 4.46578 h -12.3298 z m 12.6838,0 h 12.4022 v 4.46578 h -12.4022 z m 12.7581,0 h 12.4022 v 4.46578 h -12.4022 z m 12.7561,0 h 12.324 v 4.46578 h -12.326 z m 12.8323,0 h 12.328 v 4.46578 h -12.328 z m 12.6839,0 h 12.4021 v 4.46578 h -12.4021 z m 12.7561,0 h 12.4042 v 4.46578 h -12.4042 z m 12.7581,0 h 12.322 v 4.46578 h -12.322 z m 12.8324,0 h 12.3279 v 4.46578 h -12.3279 z m 12.6817,0 h 12.4042 v 4.46578 h -12.4042 z m 25.5162,0 h 12.2908 v 4.46578 h -12.2908 z m 12.8442,0 h 12.3161 v 4.46578 h -12.3161 z m 12.67,0 h 12.4043 v 4.46578 h -12.4043 z m 12.7582,0 h 12.322 v 4.46578 h -12.322 z m -727.107081,4.67701 h 12.32787 v 4.46578 h -12.32597 z m 12.68376,0 H 103.088 v 4.46578 H 90.685749 Z m 25.588461,0 h 12.32987 v 4.46578 0.35389 4.46387 0 h -12.32787 v 0 0 z m 12.68386,0 h 12.40215 v 4.46578 0.35389 4.46588 h -12.40215 v -4.46588 -0.35389 z m 25.51418,0 h 12.32207 v 4.46578 h -12.32407 z m 12.83232,0 h 12.32798 v 4.46578 h -12.32597 z m 12.68386,0 h 12.40216 v 4.46578 h -12.40216 z m 12.75614,0 h 12.40416 v 4.46578 h -12.40416 z m 12.75804,0 h 12.32597 v 4.46578 h -12.32597 z m 12.83633,0 h 12.32397 v 4.46578 h -12.32397 z m 12.67785,0 h 12.40426 v 4.46578 h -12.40426 z m 12.75815,0 h 12.40415 v 4.46578 h -12.40415 z m 12.75804,0 h 12.32797 v 4.46578 h -12.32597 z m 25.51418,0 h 12.40425 v 4.46578 h -12.40425 z m 12.75814,0 h 12.40215 v 4.46578 H 294.8053 Z m 12.75804,0 h 12.32207 v 4.46578 h -12.32207 z m 12.83242,0 h 12.32787 v 4.46578 h -12.32787 z m 12.68176,0 h 12.40426 v 4.46578 h -12.40426 z m 12.75814,0 h 12.40225 v 4.46578 h -12.40225 z m 12.75614,0 h 12.32397 v 4.46578 H 358.5918 Z m 12.83433,0 H 383.754 v 4.46578 h -12.32787 z m 12.68185,0 h 12.40216 v 4.46578 h -12.40216 z m 12.75804,0 h 12.40226 v 4.46578 h -12.40226 z m 12.75614,0 h 12.32397 v 4.46578 h -12.32397 z m 12.83433,0 h 12.32597 v 4.46578 h -12.32597 z m 25.438,0 h 12.40415 v 4.46578 h -12.40415 z m 12.75804,0 h 12.32396 v 4.46578 h -12.32396 z m 12.84023,0 h 12.32001 v 4.46578 h -12.32001 z m 12.67591,0 h 12.4022 v 4.46578 h -12.4022 z m 12.7562,0 h 12.4041 v 4.46578 h -12.4041 z m 12.758,0 h 12.3241 v 4.46578 h -12.3241 z m 12.8402,0 h 12.3201 v 4.46578 h -12.3201 z m 12.674,0 h 12.4042 v 4.46578 h -12.4042 z m 12.7581,0 h 12.4022 v 4.46578 h -12.4022 z m 63.7904,0.14265 h 12.3279 v 4.46388 h -12.3279 z m 12.8324,0 h 12.3298 v 4.46388 h -12.3298 z m 12.6838,0 h 12.4022 v 4.46388 h -12.4022 z m 12.7581,0 h 12.4022 v 4.46388 h -12.4022 z m 12.7561,0 h 12.326 v 4.46388 h -12.326 z m 12.8323,0 h 12.328 v 4.46388 h -12.328 z m 12.6839,0 h 12.4021 v 4.46388 h -12.4021 z m 12.7561,0 h 12.4042 v 4.46388 h -12.4042 z m 12.7581,0 h 12.322 v 4.46388 h -12.322 z m 12.8324,0 h 12.3279 v 4.46388 h -12.3279 z m 12.6817,0 h 12.4042 v 4.46388 h -12.4042 z m 25.5162,0 h 12.2908 v 4.46388 h -12.2908 z m 12.8442,0 h 12.3161 v 4.46388 h -12.3181 z m 12.67,0 h 12.4043 v 4.46388 h -12.4043 z m 12.7582,0 h 12.322 v 4.46388 h -12.322 z m -727.105181,4.67702 h 12.32597 v 4.46588 h -12.32597 z m 12.68186,0 H 103.088 v 4.46588 H 90.685749 Z m 51.030361,0 h 12.40226 v 4.46588 h -12.40226 z m 12.75614,0 h 12.32397 v 4.46588 h -12.32397 z m 12.83433,0 h 12.32597 v 4.46588 h -12.32597 z m 12.68185,0 h 12.40216 v 4.46588 h -12.40216 z m 12.75614,0 h 12.40416 v 4.46588 h -12.40416 z m 12.75804,0 h 12.32597 v 4.46588 h -12.32597 z m 12.83633,0 h 12.32397 v 4.46588 h -12.32397 z m 12.67785,0 h 12.40426 v 4.46588 h -12.40426 z m 12.75815,0 h 12.40415 v 4.46588 h -12.40415 z m 12.75804,0 h 12.32597 v 4.46588 h -12.32597 z m 25.51418,0 h 12.40425 v 4.46588 h -12.40425 z m 12.75814,0 h 12.40215 v 4.46588 H 294.8053 Z m 12.75804,0 h 12.32207 v 4.46588 h -12.32207 z m 12.83242,0 h 12.32787 v 4.46588 h -12.32787 z m 12.68176,0 h 12.40426 v 4.46588 h -12.40426 z m 12.75814,0 h 12.40225 v 4.46588 h -12.40225 z m 12.75614,0 h 12.32397 v 4.46588 H 358.5918 Z m 12.83433,0 H 383.754 v 4.46588 h -12.32787 z m 12.68185,0 h 12.40216 v 4.46588 h -12.40216 z m 12.75804,0 h 12.40226 v 4.46588 h -12.40226 z m 12.75614,0 h 12.32397 v 4.46588 h -12.32397 z m 12.83433,0 h 12.32597 v 4.46588 h -12.32597 z m 25.438,0 h 12.40415 v 4.46588 h -12.40415 z m 12.75804,0 h 12.32396 v 4.46588 h -12.32396 z m 12.84023,0 h 12.32001 v 4.46588 h -12.32001 z m 12.67591,0 h 12.4022 v 4.46588 h -12.4022 z m 12.7562,0 h 12.4041 v 4.46588 h -12.4041 z m 12.758,0 h 12.3241 v 4.46588 h -12.3241 z m 12.8402,0 h 12.3201 v 4.46588 h -12.3201 z m 12.674,0 h 12.4042 v 4.46588 h -12.4042 z m 12.7581,0 h 12.4022 v 4.46588 h -12.4022 z m 63.7904,0.14275 h 12.3279 v 4.46388 h -12.3279 z m 12.8324,0 h 12.3298 v 4.46388 h -12.3298 z m 12.6838,0 h 12.4022 v 4.46388 h -12.4022 z m 12.7581,0 h 12.4022 v 4.46388 h -12.4022 z m 12.7561,0 h 12.326 v 4.46388 h -12.326 z m 12.8323,0 h 12.328 v 4.46388 h -12.328 z m 12.6839,0 h 12.4021 v 4.46388 h -12.4021 z m 12.7561,0 h 12.4042 v 4.46388 h -12.4042 z m 12.7581,0 h 12.322 v 4.46388 h -12.322 z m 12.8324,0 h 12.3279 v 4.46388 h -12.3279 z m 12.6817,0 h 12.4042 v 4.46388 h -12.4042 z m 25.5162,0 h 12.2908 v 4.46388 h -12.2908 z m 12.8422,0 h 12.3181 v 4.46388 h -12.32 z m 12.672,0 h 12.4043 v 4.46388 h -12.4043 z m 12.7582,0 h 12.322 v 4.46388 h -12.322 z m -688.83286,4.67701 h 12.32787 v 3.04823 h 0.35399 v -3.04823 h 12.40215 v 3.04823 h 0.35589 v -3.04823 h 12.40226 v 3.04823 h 0.35388 v -3.04823 h 12.32397 v 3.18899 h -50.52001 z m 51.03037,0 h 12.32597 v 3.04823 h 0.35588 v -3.04823 h 12.40216 v 3.04823 h 0.35398 v -3.04823 h 12.40416 v 3.04823 h 0.35388 v -3.04823 h 12.32597 v 3.18899 h -50.522 z m 51.03236,0 h 12.32397 v 3.04823 h 0.35388 v -3.04823 h 12.40426 v 3.04823 h 0.35389 v -3.04823 h 12.40415 v 3.04823 h 0.35389 v -3.04823 h 12.32597 v 3.18899 h -50.52001 z m 102.05682,0 h 12.32787 v 3.04823 h 0.35389 v -3.04823 h 12.40426 v 3.04823 h 0.35388 v -3.04823 h 12.40225 v 3.04823 h 0.35389 v -3.04823 h 12.32397 v 3.18899 h -50.52001 z m 51.03037,0 H 383.754 v 3.04823 h 0.35398 v -3.04823 h 12.40216 v 3.04823 h 0.35588 v -3.04823 h 12.40226 v 3.04823 h 0.35388 v -3.04823 h 12.32397 v 3.18899 h -50.52 z m 102.06663,0 h 12.32001 v 3.04823 h 0.3539 v -3.04823 h 12.4023 v 3.04823 h 0.3539 v -3.04823 h 12.4041 v 3.04823 h 0.3539 v -3.04823 h 12.3241 v 3.18899 h -50.51421 z m 140.25281,0.14076 h 12.3279 v 3.04823 h -12.3279 z m 12.8324,0 h 12.3298 v 3.04823 h -12.3298 z m 12.6838,0 h 12.4022 v 3.04823 h -12.4022 z m 12.7581,0 h 12.4022 v 3.04823 h -12.4022 z m 12.7561,0 h 12.326 v 3.04823 h -12.326 z m 12.8323,0 h 12.328 v 3.04823 h -12.328 z m 12.6839,0 h 12.4021 v 3.04823 h -12.4021 z m 12.7561,0 h 12.4042 v 3.04823 h -12.4042 z m 12.7581,0 h 12.322 v 3.04823 h -12.322 z m 12.8324,0 h 12.3279 v 3.04823 h -12.3279 z m 12.6817,0 h 12.4042 v 3.04823 h -12.4042 z m 25.5162,0 h 12.2908 v 3.04823 h -12.2908 z m 12.8403,0 h 12.32 v 3.04823 h -12.32 z m 12.6739,0 h 12.4043 v 3.04823 h -12.4043 z m 12.7582,0 h 12.322 v 3.04823 h -12.322 z m -727.105181,6.16693 h 37.773681 v 1.14966 h -12.33568 v -0.42426 H 103.088 v 0.42616 H 90.685749 v -0.42426 h -0.35589 v 0.42627 h -12.32597 z m 38.272321,0 h 50.52001 v 1.14185 h -12.32397 v -0.42426 h -0.35388 v 0.42616 h -12.40226 v -0.42426 h -0.35589 v 0.42627 h -12.40215 v -0.42427 h -0.35399 v 0.42617 h -12.32787 z m 51.03037,0 h 50.522 v 33.59331 h -50.52 v -3.18898 h 12.32397 v 3.04823 h 0.35588 v -3.04823 h 12.40216 v 3.04823 h 0.35398 v -3.04823 h 12.40416 v 3.04823 h 0.35388 v -32.74288 h -0.35388 v 0.42627 h -12.40416 v -0.42427 h -0.35398 v 0.42627 h -12.40216 v -0.42437 h -0.35588 v 0.42627 h -12.32597 z m 51.03236,0 h 50.52001 v 1.15747 h -12.32597 v -0.42426 h -0.35389 v 0.42626 h -12.40415 v -0.42436 h -0.35389 v 0.42626 h -12.40426 v -0.42426 h -0.35388 v 0.42627 h -12.32397 z m 51.02836,0 h 50.51811 v 1.14966 h -12.32207 v -0.42426 h -0.35589 v 0.42616 H 294.8053 v -0.42426 h -0.35389 v 0.42627 h -12.40425 v -0.42427 h -0.35389 v 0.42627 H 269.3673 Z m 51.02846,0 h 50.52001 v 1.14185 H 358.5918 v -0.42426 h -0.35389 v 0.42616 h -12.40225 v -0.42426 h -0.35388 v 0.42627 h -12.40426 v -0.42427 h -0.35389 v 0.42617 h -12.32787 z m 51.03037,0 h 50.52 v 33.59331 h -50.52 v -3.18898 h 12.32596 v 3.04823 h 0.35389 v -3.04823 h 12.40225 v 3.04823 h 0.35579 v -3.04823 h 12.40226 v 3.04823 h 0.35388 v -32.74288 h -0.35388 v 0.42627 h -12.40226 v -0.42427 h -0.35579 v 0.42627 h -12.40225 v -0.42437 h -0.35389 v 0.42627 h -12.32797 z m 51.03036,0 h 50.52 v 1.15156 h -12.32396 v -0.42426 h -0.35389 v 0.42627 h -12.40415 v -0.42427 h -0.35399 v 0.42627 h -12.40215 v -0.42437 h -0.35589 v 0.42627 h -12.32597 z m 51.03427,0 h 50.51621 v 1.14375 h -12.3241 v -0.42426 h -0.3539 v 0.42627 h -12.4041 v -0.42427 h -0.354 v 0.42617 h -12.4022 v -0.42426 h -0.3539 v 0.42626 h -12.32201 z m 51.03031,0 h 50.5162 v 1.13595 h -12.324 v -0.42427 h -0.3559 v 0.42627 h -12.4022 v -0.42437 h -0.3539 v 0.42627 h -12.4042 v -0.42426 h -0.3539 v 0.42626 h -12.3221 z m 102.0569,0 h 50.524 v 1.2767 h -12.326 v -0.42617 h -0.3539 v 0.42617 h -12.4022 v -0.42617 h -0.3559 v 0.42617 h -12.4022 v -0.42617 h -0.354 v 0.42617 h -12.3298 z m 51.0303,0 h 50.5201 v 33.59331 h -12.322 v -32.74278 h -0.3539 v 0.42617 h -12.4042 v -0.42617 h -0.354 v 0.42617 h -12.4021 v -0.42617 h -0.3559 v 0.42617 h -12.328 z m 51.0305,0 h 50.4887 v 1.2767 h -12.2908 v -0.42617 h -0.3539 v 0.42617 h -12.4041 v -0.42617 h -0.354 v 0.42617 h -12.4042 v -0.42617 h -0.3538 v 0.42617 h -12.3279 z m 51.0382,0 h 37.7541 v 1.2767 h -12.322 v -0.42617 h -0.3539 v 0.42617 h -12.4043 v -0.42617 h -0.3539 v 0.42617 h -12.32 z m -701.673081,1.48793 h 12.32597 v 4.46578 h -12.32597 z m 12.68186,0 H 103.088 v 4.46578 H 90.685749 Z m 12.756141,0 h 12.33568 v 4.46578 h -12.33378 z m 12.83432,0 h 12.32787 v 4.46578 h -12.32787 z m 12.68186,0 h 12.40215 v 4.46578 h -12.40215 z m 12.75804,0 h 12.40226 v 4.46578 h -12.40226 z m 12.75614,0 h 12.32397 v 4.46578 h -12.32397 z m 12.83433,0 h 12.32597 v 4.46578 h -12.32597 z m 12.68185,0 h 12.40216 v 4.46578 h -12.40216 z m 12.75614,0 h 12.40416 v 4.46578 h -12.40416 z m 25.59437,0 h 12.32397 v 4.46578 h -12.32397 z m 12.67785,0 h 12.40426 v 4.46578 h -12.40426 z m 12.75815,0 h 12.40415 v 4.46578 h -12.40415 z m 12.75804,0 h 12.32597 v 4.46578 h -12.32597 z m 12.83432,0 h 12.32597 v 4.46578 H 269.3673 Z m 12.67986,0 h 12.40425 v 4.46578 h -12.40425 z m 12.75814,0 h 12.40215 v 4.46578 H 294.8053 Z m 12.75804,0 h 12.32207 v 4.46578 h -12.32207 z m 12.83242,0 h 12.32787 v 4.46578 h -12.32787 z m 12.68176,0 h 12.40426 v 4.46578 h -12.40426 z m 12.75814,0 h 12.40225 v 4.46578 h -12.40225 z m 12.75614,0 h 12.32397 v 4.46578 H 358.5918 Z m 12.83433,0 H 383.754 v 4.46578 h -12.32787 z m 12.68185,0 h 12.40216 v 4.46578 h -12.40216 z m 12.75804,0 h 12.40226 v 4.46578 h -12.40226 z m 25.59047,0 h 12.32597 v 4.46578 h -12.32597 z m 12.68186,0 h 12.40215 v 4.46578 h -12.40215 z m 12.75614,0 h 12.40415 v 4.46578 h -12.40415 z m 12.75804,0 h 12.32396 v 4.46578 h -12.32396 z m 12.83823,0 h 12.32201 v 4.46578 h -12.32201 z m 12.67791,0 h 12.4022 v 4.46578 h -12.4022 z m 12.7562,0 h 12.4041 v 4.46578 h -12.4041 z m 12.758,0 h 12.3241 v 4.46578 h -12.3241 z m 12.8382,0 h 12.3221 v 4.46578 h -12.3221 z m 12.676,0 h 12.4042 v 4.46578 h -12.4042 z m 12.7581,0 h 12.4022 v 4.46578 h -12.4022 z m 12.7581,0 h 12.324 v 4.46578 h -12.324 z m 63.8647,0.14276 h 12.3298 v 4.46377 h -12.3298 z m 12.6838,0 h 12.4022 v 4.46377 h -12.4022 z m 12.7581,0 h 12.4022 v 4.46377 h -12.4022 z m 12.7561,0 h 12.326 v 4.46377 h -12.326 z m 12.8323,0 h 12.328 v 4.46377 h -12.328 z m 12.6839,0 h 12.4021 v 4.46377 h -12.4021 z m 12.7561,0 h 12.4042 v 4.46377 h -12.4042 z m 25.5905,0 h 12.3279 v 4.46377 0.35589 4.46388 h -12.3279 v -4.46388 -0.35589 z m 12.6817,0 h 12.4042 v 4.46377 0.35589 4.46388 h -12.4042 v -4.46388 -0.35589 z m 12.7582,0 h 12.4041 v 4.46377 0.35589 4.46388 h -12.4041 v -4.46388 -0.35589 z m 12.758,0 h 12.2908 v 4.46377 h -12.2908 z m 12.8403,0 h 12.32 v 4.46377 h -12.322 z m 12.6739,0 h 12.4043 v 4.46377 h -12.4043 z m 12.7582,0 h 12.322 v 4.46377 h -12.322 z m -727.105181,4.67691 h 12.32597 v 4.46588 h -12.32597 z m 12.68186,0 H 103.088 v 4.46588 H 90.685749 Z m 12.756141,0 h 12.33378 v 4.46588 h -12.33188 z m 12.83432,0 h 12.32787 v 4.46588 h -12.32787 z m 12.68186,0 h 12.40215 v 4.46588 h -12.40215 z m 12.75804,0 h 12.40226 v 4.46588 h -12.40226 z m 12.75614,0 h 12.32397 v 4.46588 h -12.32397 z m 12.83433,0 h 12.32597 v 4.46588 h -12.32597 z m 12.68185,0 h 12.40216 v 4.46588 h -12.40216 z m 12.75614,0 h 12.40416 v 4.46588 h -12.40416 z m 25.59437,0 h 12.32397 v 4.46588 h -12.32397 z m 12.67785,0 h 12.40426 v 4.46588 h -12.40426 z m 12.75815,0 h 12.40415 v 4.46588 0.35388 4.46388 h -12.40415 v -4.46388 -0.35388 z m 12.75804,0 h 12.32597 v 4.46588 h -12.32597 z m 12.83432,0 h 12.32597 v 4.46588 H 269.3673 Z m 12.67986,0 h 12.40425 v 4.46588 h -12.40425 z m 12.75814,0 h 12.40215 v 4.46588 H 294.8053 Z m 12.75804,0 h 12.32207 v 4.46588 h -12.32207 z m 12.83242,0 h 12.32787 v 4.46588 h -12.32787 z m 12.68176,0 h 12.40426 v 4.46588 h -12.40426 z m 12.75814,0 h 12.40225 v 4.46588 h -12.40225 z m 12.75614,0 h 12.32397 v 4.46588 H 358.5918 Z m 12.83433,0 H 383.754 v 4.46588 h -12.32787 z m 12.68185,0 h 12.40216 v 4.46588 h -12.40216 z m 12.75804,0 h 12.40226 v 4.46588 h -12.40226 z m 25.59047,0 h 12.32597 v 4.46588 h -12.32597 z m 12.68186,0 h 12.40215 v 4.46588 h -12.40215 z m 12.75614,0 h 12.40415 v 4.46588 h -12.40415 z m 12.75804,0 h 12.32396 v 4.46588 h -12.32396 z m 12.83823,0 h 12.32201 v 4.46588 h -12.32201 z m 12.67791,0 h 12.4022 v 4.46588 h -12.4022 z m 12.7562,0 h 12.4041 v 4.46588 h -12.4041 z m 12.758,0 h 12.3241 v 4.46588 h -12.3241 z m 12.8382,0 h 12.3221 v 4.46588 h -12.3221 z m 12.676,0 h 12.4042 v 4.46588 h -12.4042 z m 12.7581,0 h 12.4022 v 4.46588 h -12.4022 z m 12.7581,0 h 12.324 v 4.46588 h -12.324 z m 63.8647,0.14275 h 12.3298 v 4.46388 h -12.3298 z m 12.6838,0 h 12.4022 v 4.46388 h -12.4022 z m 12.7581,0 h 12.4022 v 4.46388 h -12.4022 z m 12.7561,0 h 12.326 v 4.46388 h -12.326 z m 12.8323,0 h 12.328 v 4.46388 h -12.328 z m 12.6839,0 h 12.4021 v 4.46388 h -12.4021 z m 12.7561,0 h 12.4042 v 4.46388 h -12.4042 z m 63.7884,0 h 12.2908 v 4.46388 h -12.2908 z m 12.8383,0 h 12.322 v 4.46388 h -12.322 z m 12.6759,0 h 12.4043 v 4.46388 h -12.4043 z m 12.7582,0 h 12.322 v 4.46388 h -12.322 z m -727.105181,4.67701 h 12.32597 v 4.46388 h -12.32597 z m 12.68186,0 H 103.088 v 4.46388 H 90.685749 Z m 12.756141,0 h 12.33177 v 4.46388 h -12.33177 z m 12.83432,0 h 12.32787 v 4.46388 h -12.32787 z m 12.68186,0 h 12.40215 v 4.46388 h -12.40215 z m 12.75804,0 h 12.40226 v 4.46388 h -12.40226 z m 12.75614,0 h 12.32397 v 4.46388 h -12.32397 z m 12.83433,0 h 12.32597 v 4.46388 h -12.32597 z m 12.68185,0 h 12.40216 v 4.46388 h -12.40216 z m 12.75614,0 h 12.40416 v 4.46388 h -12.40416 z m 25.59437,0 h 12.32397 v 4.46388 h -12.32397 z m 12.67785,0 h 12.40426 v 4.46388 h -12.40426 z m 25.51619,0 h 12.32597 v 4.46388 h -12.32597 z m 12.83432,0 h 12.32597 v 4.46388 H 269.3673 Z m 12.67986,0 h 12.40425 v 4.46388 h -12.40425 z m 12.75814,0 h 12.40215 v 4.46388 H 294.8053 Z m 12.75804,0 h 12.32207 v 4.46388 h -12.32207 z m 12.83242,0 h 12.32787 v 4.46388 h -12.32787 z m 12.68176,0 h 12.40426 v 4.46388 h -12.40426 z m 12.75814,0 h 12.40225 v 4.46388 h -12.40225 z m 12.75614,0 h 12.32397 v 4.46388 H 358.5918 Z m 12.83433,0 H 383.754 v 4.46388 h -12.32787 z m 12.68185,0 h 12.40216 v 4.46388 h -12.40216 z m 12.75804,0 h 12.40226 v 4.46388 h -12.40226 z m 25.59047,0 h 12.32597 v 4.46388 h -12.32597 z m 12.68186,0 h 12.40215 v 4.46388 h -12.40215 z m 12.75614,0 h 12.40415 v 4.46388 h -12.40415 z m 12.75804,0 h 12.32396 v 4.46388 h -12.32396 z m 12.83823,0 h 12.32201 v 4.46388 h -12.32201 z m 12.67791,0 h 12.4022 v 4.46388 h -12.4022 z m 12.7562,0 h 12.4041 v 4.46388 h -12.4041 z m 12.758,0 h 12.3241 v 4.46388 h -12.3241 z m 12.8382,0 h 12.3221 v 4.46388 h -12.3221 z m 12.676,0 h 12.4042 v 4.46388 h -12.4042 z m 12.7581,0 h 12.4022 v 4.46388 h -12.4022 z m 12.7581,0 h 12.324 v 4.46388 h -12.324 z m 63.8647,0.14076 h 12.3298 v 4.46588 h -12.3298 z m 12.6838,0 h 12.4022 v 4.46588 h -12.4022 z m 12.7581,0 h 12.4022 v 4.46588 h -12.4022 z m 12.7561,0 h 12.326 v 4.46588 h -12.326 z m 12.8323,0 h 12.328 v 4.46588 h -12.328 z m 12.6839,0 h 12.4021 v 4.46588 h -12.4021 z m 12.7561,0 h 12.4042 v 4.46588 h -12.4042 z m 25.5905,0 h 12.3279 v 4.46588 0.35388 4.46578 h -12.3279 v -4.46578 -0.35388 z m 12.6817,0 h 12.4042 v 4.46588 0.35388 4.46578 h -12.4042 v -4.46578 -0.35388 z m 12.7582,0 h 12.4041 v 4.46588 0.35388 4.46578 h -12.4041 v -4.46578 -0.35388 z m 12.758,0 h 12.2908 v 4.46588 h -12.2908 z m 12.8383,0 h 12.322 v 4.46588 h -12.3239 z m 12.6759,0 h 12.4043 v 4.46588 h -12.4043 z m 12.7582,0 h 12.322 v 4.46588 h -12.322 z m -727.105181,4.67891 h 12.32597 v 4.46388 h -12.32397 z m 12.68186,0 H 103.088 v 4.46388 H 90.685749 Z m 12.756141,0 h 12.33177 v 4.46388 h -12.32987 z m 12.83432,0 h 12.32787 v 4.46388 h -12.32596 z m 12.68186,0 h 12.40215 v 4.46388 h -12.40215 z m 12.75804,0 h 12.40226 v 4.46388 h -12.40226 z m 12.75614,0 h 12.32397 v 4.46388 h -12.32597 z m 12.83433,0 h 12.32597 v 4.46388 h -12.32397 z m 12.68185,0 h 12.40216 v 4.46388 h -12.40216 z m 12.75614,0 h 12.40416 v 4.46388 h -12.40416 z m 25.59437,0 h 12.32397 v 4.46388 h -12.32397 z m 12.67785,0 h 12.40426 v 4.46388 h -12.40426 z m 12.75815,0 h 12.40415 v 4.46388 h -12.40415 z m 12.75804,0 h 12.32597 v 4.46388 h -12.32397 z m 12.83432,0 h 12.32597 v 4.46388 H 269.3673 Z m 12.67986,0 h 12.40425 v 4.46388 h -12.40425 z m 12.75814,0 h 12.40215 v 4.46388 H 294.8053 Z m 12.75804,0 h 12.32207 v 4.46388 h -12.32397 z m 12.83242,0 h 12.32787 v 4.46388 h -12.32597 z m 12.68176,0 h 12.40426 v 4.46388 h -12.40426 z m 12.75814,0 h 12.40225 v 4.46388 h -12.40225 z m 12.75614,0 h 12.32397 v 4.46388 H 358.5898 Z m 12.83433,0 H 383.754 v 4.46388 h -12.32597 z m 12.68185,0 h 12.40216 v 4.46388 h -12.40216 z m 12.75804,0 h 12.40226 v 4.46388 h -12.40226 z m 25.59047,0 h 12.32597 v 4.46388 h -12.32407 z m 12.68186,0 h 12.40215 v 4.46388 h -12.40215 z m 12.75614,0 h 12.40415 v 4.46388 h -12.40415 z m 12.75804,0 h 12.32396 v 4.46388 h -12.32597 z m 12.83823,0 h 12.32201 v 4.46388 h -12.32392 z m 12.67791,0 h 12.4022 v 4.46388 h -12.4022 z m 12.7562,0 h 12.4041 v 4.46388 h -12.4041 z m 12.758,0 h 12.3241 v 4.46388 h -12.3261 z m 12.8382,0 h 12.3221 v 4.46388 h -12.324 z m 12.676,0 h 12.4042 v 4.46388 h -12.4042 z m 12.7581,0 h 12.4022 v 4.46388 h -12.4022 z m 12.7581,0 h 12.324 v 4.46388 h -12.324 z m 63.8647,0.14085 h 12.3298 v 4.46578 h -12.3298 z m 12.6838,0 h 12.4022 v 4.46578 h -12.4022 z m 12.7581,0 h 12.4022 v 4.46578 h -12.4022 z m 12.7561,0 h 12.326 v 4.46578 h -12.328 z m 12.8323,0 h 12.328 v 4.46578 h -12.328 z m 12.6839,0 h 12.4021 v 4.46578 h -12.4021 z m 12.7561,0 h 12.4042 v 4.46578 h -12.4042 z m 63.7884,0 h 12.2908 v 4.46578 h -12.2908 z m 12.8364,0 h 12.3239 v 4.46578 h -12.3239 z m 12.6778,0 h 12.4043 v 4.46578 h -12.4043 z m 12.7582,0 h 12.322 v 4.46578 h -12.322 z m -727.103181,4.67892 h 12.32397 v 4.46388 h -12.32397 z m 12.67986,0 H 103.088 v 4.46388 H 90.685749 Z m 12.756141,0 h 12.32987 v 4.46388 h -12.32797 z m 12.83623,0 h 12.32596 v 4.46388 h -12.32596 z m 12.67995,0 h 12.40215 v 4.46388 h -12.40215 z m 12.75804,0 h 12.40226 v 4.46388 h -12.40226 z m 12.75614,0 h 12.32597 v 4.46388 h -12.32597 z m 12.83633,0 h 12.32397 v 4.46388 h -12.32397 z m 12.67985,0 h 12.40216 v 4.46388 h -12.40216 z m 12.75614,0 h 12.40416 v 4.46388 h -12.40416 z m 25.59437,0 h 12.32397 v 4.46388 h -12.32397 z m 12.67785,0 h 12.40426 v 4.46388 h -12.40426 z m 12.75815,0 h 12.40415 v 4.46388 h -12.40415 z m 12.75804,0 h 12.32406 v 4.46388 h -12.32406 z m 12.83432,0 h 12.32597 v 4.46388 H 269.3673 Z m 12.67986,0 h 12.40425 v 4.46388 h -12.40425 z m 12.75814,0 h 12.40215 v 4.46388 H 294.8053 Z m 12.75804,0 h 12.32407 v 4.46388 h -12.32407 z m 12.83432,0 h 12.32597 v 4.46388 h -12.32597 z m 12.67986,0 h 12.40426 v 4.46388 h -12.40426 z m 12.75814,0 h 12.40225 v 4.46388 h -12.40225 z m 12.75614,0 h 12.32597 v 4.46388 H 358.5918 Z m 12.83623,0 H 383.754 v 4.46388 h -12.32597 z m 12.67995,0 h 12.40216 v 4.46388 h -12.40216 z m 12.75804,0 h 12.40226 v 4.46388 h -12.40226 z m 25.59237,0 h 12.32407 v 4.46388 h -12.32407 z m 12.67996,0 h 12.40215 v 4.46388 h -12.40215 z m 12.75614,0 h 12.40415 v 4.46388 h -12.40415 z m 12.75804,0 h 12.32597 v 4.46388 h -12.32597 z m 12.83632,0 h 12.32392 v 4.46388 h -12.32392 z m 12.67982,0 h 12.4022 v 4.46388 h -12.4022 z m 12.7562,0 h 12.4041 v 4.46388 h -12.4041 z m 12.758,0 h 12.326 v 4.46388 h -12.326 z m 12.8363,0 h 12.324 v 4.46388 h -12.324 z m 12.6779,0 h 12.4042 v 4.46388 h -12.4042 z m 12.7581,0 h 12.4022 v 4.46388 h -12.4022 z m 12.7581,0 h 12.324 v 4.46388 h -12.324 z m 63.8647,0.14075 h 12.3298 v 4.46588 h -12.3298 z m 12.6838,0 h 12.4022 v 4.46588 h -12.4022 z m 12.7581,0 h 12.4022 v 4.46588 h -12.4022 z m 12.7561,0 h 12.3279 v 4.46588 h -12.3279 z m 12.8323,0 h 12.328 v 4.46588 h -12.328 z m 12.6839,0 h 12.4021 v 4.46588 h -12.4021 z m 12.7561,0 h 12.4042 v 4.46588 h -12.4042 z m 25.5905,0 h 12.3279 v 4.46588 0.35389 4.46578 h -12.3279 v -4.46578 -0.35389 z m 12.6817,0 h 12.4042 v 4.46588 0.35389 4.46578 h -12.4042 v -4.46578 -0.35389 z m 12.7582,0 h 12.4041 v 4.46588 0.35389 4.46578 h -12.4041 v -4.46578 -0.35389 z m 12.758,0 h 12.2908 v 4.46588 h -12.2908 z m 12.8364,0 h 12.3239 v 4.46588 h -12.3259 z m 12.6778,0 h 12.4043 v 4.46588 h -12.4043 z m 12.7582,0 h 12.322 v 4.46588 h -12.322 z m -727.103181,4.67701 h 12.32397 v 4.46578 h -12.32397 z m 12.67986,0 H 103.088 v 4.46578 H 90.685749 Z m 12.756141,0 h 12.32787 v 4.46578 h -12.32787 z m 12.83623,0 h 12.32596 v 4.46578 h -12.32596 z m 12.67995,0 h 12.40215 v 4.46578 h -12.40215 z m 12.75804,0 h 12.40226 v 4.46578 h -12.40226 z m 12.75614,0 h 12.32597 v 4.46578 h -12.32597 z m 12.83633,0 h 12.32397 v 4.46578 h -12.32397 z m 12.67985,0 h 12.40216 v 4.46578 h -12.40216 z m 12.75614,0 h 12.40416 v 4.46578 h -12.40416 z m 25.59437,0 h 12.32397 v 4.46578 h -12.32397 z m 12.67785,0 h 12.40426 v 4.46578 h -12.40426 z m 12.75815,0 h 12.40415 v 4.46578 h -12.40415 z m 12.75804,0 h 12.32406 v 4.46578 h -12.32406 z m 12.83432,0 h 12.32597 v 4.46578 H 269.3673 Z m 12.67986,0 h 12.40425 v 4.46578 h -12.40425 z m 12.75814,0 h 12.40215 v 4.46578 H 294.8053 Z m 12.75804,0 h 12.32407 v 4.46578 h -12.32407 z m 12.83432,0 h 12.32597 v 4.46578 h -12.32597 z m 12.67986,0 h 12.40426 v 4.46578 h -12.40426 z m 12.75814,0 h 12.40225 v 4.46578 h -12.40225 z m 12.75614,0 h 12.32597 v 4.46578 H 358.5918 Z m 12.83623,0 H 383.754 v 4.46578 h -12.32597 z m 12.67995,0 h 12.40216 v 4.46578 h -12.40216 z m 12.75804,0 h 12.40226 v 4.46578 h -12.40226 z m 25.59237,0 h 12.32407 v 4.46578 h -12.32407 z m 12.67996,0 h 12.40215 v 4.46578 h -12.40215 z m 12.75614,0 h 12.40415 v 4.46578 h -12.40415 z m 12.75804,0 h 12.32597 v 4.46578 h -12.32597 z m 12.83632,0 h 12.32392 v 4.46578 h -12.32392 z m 12.67982,0 h 12.4022 v 4.46578 h -12.4022 z m 12.7562,0 h 12.4041 v 4.46578 h -12.4041 z m 12.758,0 h 12.326 v 4.46578 h -12.326 z m 12.8363,0 h 12.324 v 4.46578 h -12.324 z m 12.6779,0 h 12.4042 v 4.46578 h -12.4042 z m 12.7581,0 h 12.4022 v 4.46578 h -12.4022 z m 12.7581,0 h 12.324 v 4.46578 h -12.324 z m 63.8647,0.14276 h 12.3298 v 4.46578 h -12.3298 z m 12.6838,0 h 12.4022 v 4.46578 h -12.4022 z m 12.7581,0 h 12.4022 v 4.46578 h -12.4022 z m 12.7561,0 h 12.3279 v 4.46578 h -12.3279 z m 12.8323,0 h 12.328 v 4.46578 h -12.328 z m 12.6839,0 h 12.4021 v 4.46578 h -12.4021 z m 12.7561,0 h 12.4042 v 4.46578 h -12.4042 z m 63.7884,0 h 12.2908 v 4.46578 h -12.2908 z m 12.8344,0 h 12.3259 v 4.46578 h -12.3278 z m 12.6798,0 h 12.4043 v 4.46578 h -12.4043 z m 12.7582,0 h 12.322 v 4.46578 h -12.322 z m -727.103181,4.67701 h 12.32397 v 3.04823 h 0.35589 v -3.04823 H 103.088 v 3.04823 h 0.35389 v -3.04823 h 12.32597 v 3.18898 H 78.005889 Z m 38.272231,0 h 12.32596 v 3.04823 h 0.35399 v -3.04823 h 12.40215 v 3.04823 h 0.35589 v -3.04823 h 12.40226 v 3.04823 h 0.35388 v -3.04823 h 12.32597 v 3.18898 h -50.5201 z m 102.06082,0 h 12.32397 v 3.04823 h 0.35388 v -3.04823 h 12.40426 v 3.04823 h 0.35389 v -3.04823 h 12.40415 v 3.04823 h 0.35389 v -3.04823 h 12.32406 v 3.18898 h -50.5181 z m 51.02836,0 h 12.32597 v 3.04823 h 0.35389 v -3.04823 h 12.40425 v 3.04823 h 0.35389 v -3.04823 h 12.40215 v 3.04823 h 0.35589 v -3.04823 h 12.32407 v 3.18898 H 269.3673 Z m 51.03036,0 h 12.32597 v 3.04823 h 0.35389 v -3.04823 h 12.40426 v 3.04823 h 0.35388 v -3.04823 h 12.40225 v 3.04823 h 0.35389 v -3.04823 h 12.32597 v 3.18898 h -50.52011 z m 102.06073,0 h 12.32407 v 3.04823 h 0.35589 v -3.04823 h 12.40215 v 3.04823 h 0.35399 v -3.04823 h 12.40415 v 3.04823 h 0.35389 v -3.04823 h 12.32597 v 3.18898 h -50.52011 z m 51.03046,0 h 12.32392 v 3.04823 h 0.3539 v -3.04823 h 12.4023 v 3.04823 h 0.3539 v -3.04823 h 12.4041 v 3.04823 h 0.3539 v -3.04823 h 12.3261 v 3.18898 h -50.52012 z m 51.03032,0 h 12.324 v 3.04823 h 0.3539 v -3.04823 h 12.4042 v 3.04823 h 0.3539 v -3.04823 h 12.4022 v 3.04823 h 0.3559 v -3.04823 h 12.324 v 3.18898 h -50.5181 z m 102.0588,0.14265 h 12.3298 v 3.04633 h -12.3298 z m 12.6838,0 h 12.4022 v 3.04633 h -12.4022 z m 12.7581,0 h 12.4022 v 3.04633 h -12.4022 z m 12.7561,0 h 12.3279 v 3.04633 h -12.3279 z m 12.8323,0 h 12.328 v 3.04633 h -12.328 z m 12.6839,0 h 12.4021 v 3.04633 h -12.4021 z m 12.7561,0 h 12.4042 v 3.04633 h -12.4042 z m 25.5905,0 h 12.3279 v 3.04633 h -12.3279 z m 12.6817,0 h 12.4042 v 3.04633 h -12.4042 z m 12.7582,0 h 12.4041 v 3.04633 h -12.4041 z m 12.758,0 h 12.2908 v 3.04633 h -12.2908 z m 12.8325,0 h 12.3278 v 3.04633 h -12.3278 z m 12.6817,0 h 12.4043 v 3.04633 h -12.4043 z m 12.7582,0 h 12.322 v 3.04633 h -12.322 z" /><path
     id="path13649"
     d="m 580.45024,108.5494 v 32.602 h 15.87672 v -32.602 z m 0,36.712 v 32.602 h 15.87672 v -32.602 z M 19.473947,186.2261 v 32.602 h 26.93373 v -32.602 z m 560.976293,0 v 32.602 h 15.87672 v -32.602 z m 22.39752,0 v 32.602 h 15.87477 v -32.602 z m 236.65118,0 v 32.602 h 18.70989 v -32.602 z m 30.61744,0 v 32.602 h 17.01077 v -32.602 z"
     style="fill:#ffffff;fill-opacity:0.2" /></svg>
