<?xml version="1.0" encoding="UTF-8" standalone="no"?>
<svg
   version="1.1"
   width="1002.8164"
   height="225.66992"
   viewBox="0 0 1003.3557 225.91679"
   overflow="visible"
   id="svg3367"
   sodipodi:docname="CW_Vector_Image_Bookwall.svg"
   inkscape:version="1.3.1 (91b66b0783, 2023-11-16)"
   xml:space="preserve"
   xmlns:inkscape="http://www.inkscape.org/namespaces/inkscape"
   xmlns:sodipodi="http://sodipodi.sourceforge.net/DTD/sodipodi-0.dtd"
   xmlns="http://www.w3.org/2000/svg"
   xmlns:svg="http://www.w3.org/2000/svg"><defs
     id="defs3367" /><sodipodi:namedview
     id="namedview3367"
     pagecolor="#ffffff"
     bordercolor="#000000"
     borderopacity="0.25"
     inkscape:showpageshadow="2"
     inkscape:pageopacity="0.0"
     inkscape:pagecheckerboard="0"
     inkscape:deskcolor="#d1d1d1"
     inkscape:zoom="0.96386552"
     inkscape:cx="561.28162"
     inkscape:cy="1815.0872"
     inkscape:window-width="2560"
     inkscape:window-height="1346"
     inkscape:window-x="-11"
     inkscape:window-y="-11"
     inkscape:window-maximized="1"
     inkscape:current-layer="svg3367" /><g
     id="g4"
     transform="translate(-98.414183,-1724.8242)"><path
       id="path13647"
       style="fill:#f9f9f9"
       d="m 1101.4277,1724.8242 -996.54401,80.3906 h -6.8004 v 145.5262 h 962.66331 l 41.2501,-218.8524 z m -6.7534,7.6549 -39.8033,211.1741 H 105.16916 v -131.3506 l 70.67879,-5.7015 0.002,22.6615 h -1.82817 v 3.1167 h 1.82817 l 0.002,33.5953 h -1.83012 v 3.1186 h 1.83012 l 0.004,33.5934 h -1.83404 v 3.1186 h 1.83404 l 0.002,33.5934 h -1.83599 v 3.1186 h 501.71817 v -3.1186 H 673.91 v -33.5934 h 50.52592 v 33.5934 h -1.82817 v 3.1186 h 195.5242 v -3.1186 h -1.82817 v -33.5934 h 1.82817 v -3.1186 h -1.82817 v -33.5934 h 1.82817 v -3.1186 h -1.82817 v -33.5953 h 1.82817 v -3.1167 h -1.82817 v -33.5953 h 1.82817 v -3.1187 h -1.82817 v -45.6807 z m -178.88106,14.4298 v 45.6397 h -37.73068 l 0.01,-42.5953 z m -38.30357,3.0913 v 42.5484 H 827.0009 v -38.4756 z m -50.99909,4.1139 v 38.4345 h -50.52005 v -34.3598 z m -51.03428,4.1158 0.002,34.3187 h -50.51809 v -30.244 z m -51.0206,4.1158 v 30.2029 h -50.52592 v -26.1262 z m -51.03624,4.1178 v 26.0851 H 622.8931 l 0.002,-22.0103 z m -51.03819,4.1178 0.002,21.9673 h -50.50049 l 0.002,-17.8945 z m -51.03037,4.1158 0.002,17.8515 h -50.522 v -13.7767 z m -51.03038,4.1178 v 13.7337 h -50.52005 v -9.659 z m -51.03037,4.1158 v 9.6179 h -2.29352 v 3.1187 h 2.29352 l 0.002,33.5953 H 456.954 v -32.7448 h -0.3539 v 0.4263 h -12.40223 v -0.4263 h -0.3539 v 0.4263 h -12.40418 v -0.4263 h -0.3539 v 0.4263 H 418.7521 v -9.9386 z m -51.02842,4.1158 0.002,42.2161 H 367.7315 v -38.1413 z m -51.01082,4.1159 -0.004,38.1002 H 316.701 v -34.0235 z m -51.04014,4.1177 v 33.9825 H 265.6629 l -0.002,-29.9077 z m 153.5897,0.3872 h 50.52201 v 1.2768 h -12.31815 v -0.4263 h -0.3539 v 0.4263 H 495.2282 v -0.4263 h -0.35585 v 0.4263 h -12.40223 v -0.4263 h -0.3539 v 0.4263 h -12.33575 z m 51.03233,0 h 50.52005 v 1.2768 H 559.0147 v -0.4263 h -0.3539 v 0.4263 h -12.40418 v -0.4263 h -0.3539 v 0.4263 h -12.40223 v -0.4263 h -0.35585 v 0.4263 H 520.8128 Z m 51.04993,0 h 50.50049 l 0.002,33.5953 h -25.07819 v -32.7448 h -0.3539 v 0.4263 h -12.40222 v -0.4263 h -0.002 -0.3539 v 0.4263 h -12.31228 z m 51.03037,0 h 50.50636 v 33.5953 h -50.50832 z m 51.01668,0 h 50.52592 v 1.2768 h -12.34357 v -0.4263 h -0.3539 v 0.4263 h -12.40418 v -0.4263 h -0.3539 v 0.4263 h -12.40223 v -0.4126 h -0.35585 v 32.7311 h -12.31229 z m 51.03038,0 h 50.51809 v 1.2768 h -12.33574 v -0.4263 h -0.35391 v 0.4263 h -12.40418 v -0.4263 h -0.3539 v 0.4263 h -12.40418 v -0.4263 h -0.3539 v 0.4263 h -12.31228 z m 51.03037,0 h 50.52005 v 1.2768 h -12.3377 v -0.4263 h -0.35586 v 0.4263 H 801.3948 v -0.4263 h -0.35391 v 0.4263 h -12.40418 v -0.4263 h -0.3539 v 0.4263 h -12.31228 z m 51.03037,0 h 50.48877 v 33.5953 h -12.30838 v -32.7448 h -0.3539 v 0.4263 h -12.40222 v -0.4263 h -0.3539 v 0.4263 h -12.40418 v -0.4263 h -0.35391 v 0.4263 H 827.0009 Z m 51.06166,0 h 37.73068 v 1.2768 h -2.68653 -9.65117 v -0.4263 h -0.35586 v 0.4263 h -2.39715 -10.00507 v -0.4263 h -0.3539 v 0.4263 h -12.281 z m -459.3105,1.6307 h 12.33379 v 4.4638 h -12.33379 z m 12.68769,0 h 12.40418 v 4.4638 h -12.40418 z m 12.75808,0 h 12.40223 v 4.4638 h -12.40223 z m 25.58264,0 h 12.33575 v 4.4638 h -12.33575 z m 12.68965,0 h 12.40223 v 4.4638 h -12.40223 z m 12.75808,0 h 12.40223 v 4.4638 H 495.2282 Z m 12.75613,0 h 12.31815 v 4.4638 h -12.31815 z m 12.82847,0 h 12.33184 v 4.4638 H 520.8128 Z m 12.68769,0 h 12.40223 v 4.4638 h -12.40223 z m 12.75613,0 h 12.40418 v 4.4638 h -12.40418 z m 12.75808,0 h 12.31815 v 4.4638 H 559.0147 Z m 12.84803,0 h 12.31228 v 4.4638 h -12.31228 z m 12.66814,0 h 12.40222 v 4.4638 h -12.40222 z m 102.04705,0 h 12.40223 v 4.4638 h -12.40223 z m 12.75613,0 h 12.40418 v 4.4638 h -12.40418 z m 12.75808,0 h 12.34357 v 4.4638 h -12.34357 z m 12.84803,0 h 12.31228 v 4.4638 h -12.31228 z m 12.66618,0 h 12.40418 v 4.4638 h -12.40418 z m 12.75808,0 h 12.40418 v 4.4638 h -12.40418 z m 12.75809,0 h 12.33574 v 4.4638 h -12.33574 z m 12.84802,0 h 12.31228 v 4.4638 h -12.31228 z m 12.66618,0 h 12.40418 v 4.4638 h -12.40418 z m 12.75809,0 h 12.40222 v 4.4638 H 801.3948 Z m 12.75808,0 h 12.3377 v 4.4638 h -12.3377 z m 12.84802,0 h 12.31228 v 4.4638 H 827.0009 Z m 12.66619,0 h 12.40418 v 4.4638 h -12.40418 z m 12.75808,0 h 12.40222 v 4.4638 h -12.40222 z m 25.63739,0 h 12.281 v 4.4638 H 878.0606 Z m 12.6349,0 h 10.00507 2.39715 v 4.4638 h -12.40222 z m 12.75808,0 h 9.65117 2.68653 v 4.4638 h -12.3377 z m -638.30492,2.098 0.002,29.8666 h -50.52005 l -0.002,-25.7899 z m 153.60144,2.7217 h 12.33379 v 4.4638 h -12.33379 z m 12.68769,0 h 12.40418 v 4.4638 h -12.40418 z m 12.75808,0 h 12.40223 v 4.4638 h -12.40223 z m 25.58264,0 h 12.33575 v 4.4638 h -12.33575 z m 12.68965,0 h 12.40223 v 4.4638 h -12.40223 z m 12.75808,0 h 12.40223 v 4.4638 H 495.2282 Z m 12.75613,0 h 12.31815 v 4.4638 h -12.31815 z m 12.82847,0 h 12.33184 v 4.4638 H 520.8128 Z m 12.68769,0 h 12.40223 v 4.4638 h -12.40223 z m 12.75613,0 h 12.40418 v 4.4638 h -12.40418 z m 12.75808,0 h 12.31815 v 4.4638 H 559.0147 Z m 12.84803,0 h 12.31228 v 4.4638 h -12.31228 z m 12.66814,0 h 12.40222 v 4.4638 h -12.40222 z m 102.04705,0 h 12.40223 v 4.4638 h -12.40223 z m 12.75613,0 h 12.40418 v 4.4638 h -12.40418 z m 12.75808,0 h 12.34357 v 4.4638 h -12.34357 z m 12.84803,0 h 12.31228 v 4.4638 h -12.31228 z m 12.66618,0 h 12.40418 v 4.4638 h -12.40418 z m 12.75808,0 h 12.40418 v 4.4638 h -12.40418 z m 12.75809,0 h 12.33574 v 4.4638 h -12.33574 z m 12.84802,0 h 12.31228 v 4.4638 h -12.31228 z m 12.66618,0 h 12.40418 v 4.4638 h -12.40418 z m 12.75809,0 h 12.40222 v 4.4638 H 801.3948 Z m 12.75808,0 h 12.3377 v 4.4638 h -12.3377 z m 12.84802,0 h 12.31228 v 4.4638 H 827.0009 Z m 12.66619,0 h 12.40418 v 4.4638 h -12.40418 z m 12.75808,0 h 12.40222 v 4.4638 h -12.40222 z m 25.63543,0 h 12.28296 v 4.4638 H 878.0606 Z m 12.63686,0 h 12.40222 v 4.4638 h -12.40222 z m 12.75808,0 h 12.3377 v 4.4638 h -12.3377 z m -689.01463,1.3706 -0.26983,0.024 -0.008,25.7508 h -37.80303 l -0.002,-22.7026 z m 204.31115,3.4491 h 12.33379 v 4.4639 h -12.33184 z m 12.68769,0 h 12.40418 v 4.4639 h -12.40418 z m 12.75808,0 h 12.40223 v 4.4639 h -12.40223 z m 25.58264,0 h 12.33575 v 4.4639 h -12.33575 z m 12.68965,0 h 12.40223 v 4.4639 h -12.40223 z m 12.75808,0 h 12.40223 v 4.4639 H 495.2282 Z m 12.75613,0 h 12.31815 v 4.4639 h -12.31815 z m 12.82847,0 h 12.33184 v 4.4639 H 520.8128 Z m 12.68769,0 h 12.40223 v 4.4639 h -12.40223 z m 12.75613,0 h 12.40418 v 4.4639 h -12.40418 z m 12.75808,0 h 12.31815 v 4.4639 H 559.0147 Z m 12.84803,0 h 12.31228 v 4.4639 h -12.31228 z m 12.66814,0 h 12.40222 v 4.4639 h -12.40222 z m 102.04705,0 h 12.40223 v 4.4639 h -12.40223 z m 12.75613,0 h 12.40418 v 4.4639 h -12.40418 z m 12.75808,0 h 12.34357 v 4.4639 h -12.34357 z m 12.84803,0 h 12.31228 v 4.4639 h -12.31228 z m 12.66618,0 h 12.40418 v 4.4639 h -12.40418 z m 12.75808,0 h 12.40418 v 4.4639 h -12.40418 z m 12.75809,0 h 12.33574 v 4.4639 h -12.33574 z m 12.84802,0 h 12.31228 v 4.4639 h -12.31228 z m 12.66618,0 h 12.40418 v 4.4639 h -12.40418 z m 12.75809,0 h 12.40222 v 4.4639 H 801.3948 Z m 12.75808,0 h 12.3377 v 4.4639 h -12.3377 z m 12.84802,0 h 12.31228 v 4.4639 H 827.0009 Z m 12.66619,0 h 12.40418 v 4.4639 h -12.40418 z m 12.75808,0 h 12.40222 v 4.4639 h -12.40222 z m 25.63543,0 h 12.28296 v 4.4639 h -12.28491 z m 12.63686,0 h 12.40222 v 4.4639 h -12.40222 z m 12.75808,0 h 12.3377 v 4.4639 h -12.3377 z m -484.70153,4.8178 h 12.33184 v 4.4658 h -12.33184 z m 12.68574,0 h 12.40418 v 4.4658 h -12.40418 z m 12.75808,0 h 12.40223 v 4.4658 h -12.40223 z m 25.58264,0 h 12.33575 v 4.4658 h -12.33379 z m 12.68965,0 h 12.40223 v 4.4658 h -12.40223 z m 12.75808,0 h 12.40223 v 4.4658 H 495.2282 Z m 12.75613,0 h 12.31815 l 0.002,4.4658 h -12.3201 z m 12.82847,0 h 12.33184 v 4.4658 h -12.32988 z m 12.68769,0 h 12.40223 v 4.4658 h -12.40223 z m 12.75613,0 h 12.40418 v 4.4658 h -12.40418 z m 12.75808,0 h 12.31815 l 0.002,4.4658 H 559.0147 Z m 12.84803,0 h 12.31228 v 4.4658 h -12.31424 z m 12.66814,0 h 12.40222 v 4.4658 h -12.40222 z m 102.04705,0 h 12.40223 v 4.4658 h -12.40223 z m 12.75613,0 h 12.40418 v 4.4658 h -12.40418 z m 12.75808,0 h 12.34357 v 4.4658 h -12.34357 z m 12.84803,0 h 12.31228 v 4.4658 h -12.31228 z m 12.66618,0 h 12.40418 v 4.4658 h -12.40418 z m 12.75808,0 h 12.40418 v 4.4658 h -12.40418 z m 12.75809,0 h 12.33574 l 0.002,4.4658 h -12.3377 z m 12.84802,0 h 12.31228 v 4.4658 h -12.31228 z m 12.66618,0 h 12.40418 v 4.4658 h -12.40418 z m 12.75809,0 h 12.40222 v 4.4658 H 801.3948 Z m 12.75808,0 h 12.3377 v 4.4658 h -12.3377 z m 12.84802,0 h 12.31228 v 4.4658 H 827.0009 Z m 12.66619,0 h 12.40418 v 4.4658 h -12.40418 z m 12.75808,0 h 12.40222 v 4.4658 h -12.40222 z m 25.63348,0 h 12.28491 v 4.4658 h -12.28491 z m 12.63881,0 h 12.40222 v 4.4658 h -12.40222 z m 12.75808,0 h 12.3377 v 4.4658 h -12.3377 z m -484.70153,4.8197 h 12.33184 v 4.4658 h -12.33184 z m 12.68574,0 h 12.40418 v 4.4658 h -12.40418 z m 12.75808,0 h 12.40223 v 4.4658 h -12.40223 z m 25.5846,0 h 12.33379 v 4.4658 h -12.33379 z m 12.68769,0 h 12.40223 v 4.4658 h -12.40223 z m 12.75808,0 h 12.40223 v 4.4658 H 495.2282 Z m 12.75613,0 h 12.3201 v 4.4658 h -12.3201 z m 12.83043,0 h 12.32988 v 4.4658 h -12.32988 z m 12.68573,0 h 12.40223 v 4.4658 h -12.40223 z m 12.75613,0 h 12.40418 v 4.4658 h -12.40418 z m 12.75808,0 h 12.32011 v 4.4658 H 559.0147 Z m 12.84607,0 h 12.31424 v 4.4658 h -12.31424 z m 12.6701,0 h 12.40222 v 4.4658 h -12.40222 z m 102.04705,0 h 12.40223 v 4.4658 h -12.40223 z m 12.75613,0 h 12.40418 v 4.4658 h -12.40418 z m 12.75808,0 h 12.34357 v 4.4658 h -12.34357 z m 12.84803,0 h 12.31228 v 4.4658 h -12.31228 z m 12.66618,0 h 12.40418 v 4.4658 h -12.40418 z m 12.75808,0 h 12.40418 v 4.4658 h -12.40418 z m 12.75809,0 h 12.3377 v 4.4658 h -12.3377 z m 12.84802,0 h 12.31228 v 4.4658 h -12.31228 z m 12.66618,0 h 12.40418 v 4.4658 h -12.40418 z m 12.75809,0 h 12.40222 v 4.4658 H 801.3948 Z m 12.75808,0 h 12.3377 v 4.4658 h -12.3377 z m 12.84802,0 h 12.31228 v 4.4658 H 827.0009 Z m 12.66619,0 h 12.40418 v 4.4658 h -12.40418 z m 12.75808,0 h 12.40222 v 4.4658 h -12.40222 z m 25.63348,0 h 12.28491 v 4.4658 h -12.28687 z m 12.63881,0 h 12.40222 v 4.4658 h -12.40222 z m 12.75808,0 h 12.3377 v 4.4658 h -12.3377 z m -484.70153,4.8197 h 12.33184 v 4.4658 h -12.33184 z m 12.68574,0 h 12.40418 v 4.4658 h -12.40418 z m 12.75808,0 h 12.40223 v 4.4658 h -12.40223 z m 25.5846,0 h 12.33379 v 4.4658 h -12.33379 z m 12.68769,0 h 12.40223 v 4.4658 h -12.40223 z m 12.75808,0 h 12.40223 v 4.4658 H 495.2282 Z m 12.75613,0 h 12.3201 v 4.4658 h -12.3201 z m 12.83043,0 h 12.32988 v 4.4658 h -12.32988 z m 12.68573,0 h 12.40223 v 4.4658 h -12.40223 z m 12.75613,0 h 12.40418 v 4.4658 h -12.40418 z m 12.75808,0 h 12.32011 v 4.4658 H 559.0147 Z m 12.84607,0 h 12.31424 v 4.4658 h -12.31424 z m 12.6701,0 h 12.40222 v 4.4658 h -12.40222 z m 102.04705,0 h 12.40223 v 4.4658 h -12.40223 z m 12.75613,0 h 12.40418 v 4.4658 h -12.40418 z m 12.75808,0 h 12.34357 v 4.4658 h -12.34357 z m 12.84803,0 h 12.31228 v 4.4658 h -12.31228 z m 12.66618,0 h 12.40418 v 4.4658 h -12.40418 z m 12.75808,0 h 12.40418 v 4.4658 h -12.40418 z m 12.75809,0 h 12.3377 v 4.4658 h -12.3377 z m 12.84802,0 h 12.31228 v 4.4658 h -12.31228 z m 12.66618,0 h 12.40418 v 4.4658 h -12.40418 z m 12.75809,0 h 12.40222 v 4.4658 H 801.3948 Z m 12.75808,0 h 12.3377 v 4.4658 h -12.3377 z m 12.84802,0 h 12.31228 v 4.4658 H 827.0009 Z m 12.66619,0 h 12.40418 v 4.4658 h -12.40418 z m 12.75808,0 h 12.40222 v 4.4658 h -12.40222 z m 25.63152,0 h 12.28687 v 4.4658 h -12.28882 z m 12.64077,0 h 12.40222 v 4.4658 h -12.40222 z m 12.75808,0 h 12.3377 v 4.4658 h -12.3377 z m -484.70153,4.8197 h 12.33184 v 3.0483 h -12.33184 z m 12.68574,0 h 12.40418 v 3.0483 h -12.40418 z m 12.75808,0 h 12.40223 v 3.0483 h -12.40223 z m 25.5846,0 h 12.33379 v 3.0483 h -12.33379 z m 12.68769,0 h 12.40223 v 3.0483 h -12.40223 z m 12.75808,0 h 12.40223 v 3.0483 H 495.2282 Z m 12.75613,0 h 12.3201 v 3.0483 h -12.3201 z m 12.83043,0 h 12.32988 v 3.0483 h -12.32988 z m 12.68573,0 h 12.40223 v 3.0483 h -12.40223 z m 12.75613,0 h 12.40418 v 3.0483 h -12.40418 z m 12.75808,0 h 12.32011 v 3.0483 H 559.0147 Z m 12.84607,0 h 12.31424 v 3.0483 h -12.31424 z m 12.6701,0 h 12.40222 v 3.0483 h -12.40222 z m 102.04705,0 h 12.40223 v 3.0483 h -12.40223 z m 12.75613,0 h 12.40418 v 3.0483 h -12.40418 z m 12.75808,0 h 12.34357 v 3.0483 h -12.34357 z m 12.84803,0 h 12.31228 v 3.0483 h -12.31228 z m 12.66618,0 h 12.40418 v 3.0483 h -12.40418 z m 12.75808,0 h 12.40418 v 3.0483 h -12.40418 z m 12.75809,0 h 12.3377 v 3.0483 h -12.3377 z m 12.84802,0 h 12.31228 v 3.0483 h -12.31228 z m 12.66618,0 h 12.40418 v 3.0483 h -12.40418 z m 12.75809,0 h 12.40222 v 3.0483 H 801.3948 Z m 12.75808,0 h 12.3377 v 3.0483 h -12.3377 z m 12.84802,0 h 12.31228 v 3.0483 H 827.0009 Z m 12.66619,0 h 12.40418 v 3.0483 h -12.40418 z m 12.75808,0 h 12.40222 v 3.0483 h -12.40222 z m 25.62957,0 h 12.28882 v 3.0483 h -12.28882 z m 12.64272,0 h 12.40222 v 3.0483 h -12.40222 z m 12.75808,0 h 12.3377 v 3.0483 h -12.3377 z m -727.09531,6.165 h 37.80303 v 1.134 h -12.35921 v -0.4243 h -0.3539 v 0.4243 h -12.40222 v -0.4243 h -0.35586 v 0.4243 h -12.33184 z m 38.27229,0 h 50.52005 v 1.134 h -12.31815 v -0.4243 h -0.3539 v 0.4243 H 240.0783 v -0.4243 h -0.35586 v 0.4243 h -12.40222 v -0.4243 h -0.35391 v 0.4243 h -12.33379 z m 51.03038,0 h 50.52787 v 1.134 H 303.8648 v -0.4243 h -0.35391 v 32.7428 h 0.35391 v -3.0463 h 12.32597 v 3.1891 h -50.52592 v -3.1891 h 12.32988 v 3.0463 h 0.35586 v -3.0463 h 12.40222 v 3.0463 h 0.3539 v -32.7428 h -0.3539 v 0.4243 h -12.40222 v -0.4243 h -0.35586 v 0.4243 H 265.6629 Z m 51.03819,0 H 367.227 v 1.134 h -12.33183 v -0.4243 h -0.3539 v 0.4243 h -12.40418 v -0.4243 h -0.35391 v 0.4243 H 329.379 v -0.4243 h -0.3539 v 0.4243 h -12.32401 z m 51.03037,0 h 50.51223 v 1.134 h -12.31815 v -0.4243 h -0.35586 v 0.4243 h -12.40222 v -0.4243 h -0.3539 v 0.4243 h -12.40418 v -0.4243 h -0.35391 v 0.4243 h -12.32401 z m 51.02255,0 h 50.52005 v 1.134 h -12.3201 v -0.4243 h -0.3539 v 0.4243 h -12.40223 v -0.4243 h -0.3539 v 0.4243 h -12.40418 v -0.4243 h -0.3539 v 0.4243 h -12.33184 z m 51.03037,0 h 50.52005 v 1.134 h -12.3201 v -0.4243 h -0.3539 v 0.4243 H 495.2282 v -0.4243 h -0.35585 v 32.7428 h 0.35585 v -3.0463 h 12.40223 v 3.0463 h 0.3539 v -3.0463 h 12.32206 v 3.1891 h -50.52005 v -3.1891 h 12.32988 v 3.0463 h 0.3539 v -32.7428 h -0.3539 v 0.4243 h -12.33184 z m 51.03038,0 h 50.52005 v 1.134 H 559.0147 v -0.4243 h -0.3539 v 0.4243 h -12.40418 v -0.4243 h -0.3539 v 0.4243 h -12.40223 v -0.4243 h -0.35585 v 0.4243 h -12.32988 z m 51.04601,0 h 50.50441 v 1.134 h -12.3201 v -0.4243 h -0.35391 v 0.4243 h -12.40418 v -0.4243 h -0.3539 v 0.4243 h -12.40222 v -0.4243 h -0.002 -0.3539 v 0.4243 h -12.31424 z m 51.02842,0 h 50.51027 v 33.5953 h -50.51223 z m 51.02059,0 h 50.52592 v 1.2768 h -12.32793 v -0.4263 h -0.3539 v 0.4263 h -12.40222 v -0.4263 h -0.3539 v 32.7448 h -25.08797 z m 51.03038,0 h 50.52005 v 1.2768 h -12.32206 v -0.4263 h -0.35391 v 0.4263 h -12.40222 v -0.4263 h -0.35586 v 0.4263 h -12.40222 v -0.4263 h -0.3539 v 0.4263 h -12.32988 z m 51.03037,0 h 50.52005 v 1.2768 h -12.32206 v -0.4263 h -0.3539 v 0.4263 h -12.40418 v -0.4263 h -0.3539 v 0.4263 h -12.40223 v -0.4263 h -0.35586 v 0.4263 h -12.32792 z m 51.03037,0 h 50.48877 v 1.2768 h -12.29078 v -0.4263 h -0.3539 v 0.4263 h -12.40418 v -0.4263 h -0.3539 v 0.4263 h -12.40418 v -0.4263 h -0.3539 v 32.7448 H 827.0009 Z m 51.05384,0 h 37.7385 v 1.2768 h -12.32206 v -0.4263 h -0.3539 v 0.4263 H 890.7131 v -0.4263 h -0.3539 v 0.4263 h -12.30446 z m -701.69451,1.4899 h 12.33184 v 4.4638 h -12.33184 z m 12.6877,0 h 12.40222 v 4.4638 h -12.40222 z m 12.75612,0 h 12.35921 l -0.002,4.4638 h -12.35725 z m 12.82847,0 h 12.33379 v 4.4638 h -12.33379 z m 12.6877,0 h 12.40222 v 4.4638 h -12.40222 z m 12.75808,0 h 12.40222 v 4.4638 H 240.0783 Z m 12.75612,0 h 12.31815 v 4.4638 h -12.31815 z m 12.82848,0 h 12.33183 v 4.4638 H 265.6629 Z m 12.68769,0 h 12.40222 v 4.4638 h -12.40222 z m 25.51421,0 h 12.32597 v 4.4638 H 303.8648 Z m 12.83629,0 h 12.32401 v 4.4638 h -12.32401 z m 12.67791,0 h 12.40418 v 4.4638 H 329.379 Z m 12.75809,0 h 12.40418 v 4.4638 h -12.40418 z m 12.75808,0 H 367.227 v 4.4638 h -12.33183 z m 12.83629,0 h 12.32401 v 4.4638 h -12.32401 z m 12.67792,0 h 12.40418 v 4.4638 h -12.40418 z m 12.75808,0 h 12.40222 v 4.4638 h -12.40222 z m 12.75808,0 h 12.31815 v 4.4638 h -12.31815 z m 12.82847,0 h 12.33184 v 4.4638 h -12.33184 z m 12.68574,0 h 12.40418 v 4.4638 h -12.40418 z m 12.75808,0 h 12.40223 v 4.4638 h -12.40223 z m 12.75613,0 h 12.3201 v 4.4638 h -12.3201 z m 12.83042,0 h 12.33184 v 4.4638 h -12.33184 z m 25.44382,0 h 12.40223 v 4.4638 H 495.2282 Z m 12.75613,0 h 12.3201 v 4.4638 h -12.3201 z m 12.83043,0 h 12.32988 v 4.4638 h -12.32988 z m 12.68573,0 h 12.40223 v 4.4638 h -12.40223 z m 12.75613,0 h 12.40418 v 4.4638 h -12.40418 z m 12.75808,0 h 12.32011 v 4.4638 H 559.0147 Z m 12.84607,0 h 12.31424 v 4.4638 h -12.31424 z m 12.6701,0 h 12.40222 v 4.4638 h -12.40222 z m 12.75612,0 h 12.40418 v 4.4638 h -12.40418 z m 12.75809,0 h 12.3201 v 4.4638 h -12.3201 z m 89.30657,0.1408 h 12.40222 v 4.4658 h -12.40222 z m 12.75612,0 h 12.32793 v 4.4658 h -12.32793 z m 12.83239,0 h 12.32988 v 4.4658 h -12.32988 z m 12.68378,0 h 12.40222 v 4.4658 h -12.40222 z m 12.75808,0 h 12.40222 v 4.4658 h -12.40222 z m 12.75613,0 h 12.32206 v 4.4658 h -12.32206 z m 12.83238,0 h 12.32792 v 4.4658 h -12.32792 z m 12.68378,0 h 12.40223 v 4.4658 h -12.40223 z m 12.75613,0 h 12.40418 v 4.4658 h -12.40418 z m 12.75808,0 h 12.32206 v 4.4658 h -12.32206 z m 25.51421,0 h 12.40418 v 4.4658 h -12.40418 z m 12.75808,0 h 12.40418 v 4.4658 h -12.40418 z m 12.75808,0 h 12.29078 v 4.4658 h -12.29078 z m 12.85585,0 h 12.30446 v 4.4658 h -12.30642 z m 12.65836,0 h 12.40418 v 4.4658 H 890.7131 Z m 12.75808,0 h 12.32206 v 4.4658 h -12.32206 z m -727.11095,4.6789 h 12.33184 v 4.4639 h -12.33184 z m 12.6877,0 h 12.40222 v 4.4639 h -12.40222 z m 12.75612,0 h 12.35725 l -0.002,4.4639 H 201.804 Z m 12.82847,0 h 12.33379 v 4.4639 h -12.33379 z m 12.6877,0 h 12.40222 v 4.4639 h -12.40222 z m 12.75808,0 h 12.40222 v 4.4639 H 240.0783 Z m 12.75612,0 h 12.31815 v 4.4639 h -12.31815 z m 12.82848,0 h 12.33183 v 4.4639 H 265.6629 Z m 12.68769,0 h 12.40222 v 4.4639 h -12.40222 z m 25.51421,0 h 12.32597 v 4.4639 H 303.8648 Z m 12.83629,0 h 12.32401 v 4.4639 h -12.32401 z m 12.67791,0 h 12.40418 v 4.4639 H 329.379 Z m 12.75809,0 h 12.40418 v 4.4639 h -12.40418 z m 12.75808,0 H 367.227 v 4.4639 h -12.33183 z m 12.83629,0 h 12.32401 v 4.4639 h -12.32401 z m 12.67792,0 h 12.40418 v 4.4639 h -12.40418 z m 12.75808,0 h 12.40222 v 4.4639 h -12.40222 z m 12.75808,0 h 12.31815 v 4.4639 h -12.31815 z m 12.82847,0 h 12.33184 v 4.4639 h -12.33184 z m 12.68574,0 h 12.40418 v 4.4639 h -12.40418 z m 12.75808,0 h 12.40223 v 4.4639 h -12.40223 z m 12.75613,0 h 12.3201 v 4.4639 h -12.3201 z m 12.83042,0 h 12.33184 v 4.4639 h -12.33184 z m 25.44382,0 h 12.40223 v 4.4639 H 495.2282 Z m 12.75613,0 h 12.3201 v 4.4639 h -12.3201 z m 12.83043,0 h 12.32988 v 4.4639 h -12.32988 z m 12.68573,0 h 12.40223 v 4.4639 h -12.40223 z m 12.75613,0 h 12.40418 v 4.4639 h -12.40418 z m 12.75808,0 h 12.32011 v 4.4639 H 559.0147 Z m 12.84607,0 h 12.31424 v 4.4639 h -12.31619 z m 12.6701,0 h 12.40222 v 4.4639 h -12.40222 z m 12.75612,0 h 12.40418 v 4.4639 h -12.40418 z m 12.75809,0 h 12.3201 v 4.4639 h -12.3201 z m 89.30657,0.1408 h 12.40222 v 4.4658 h -12.40222 z m 12.75612,0 h 12.32793 v 4.4658 h -12.32793 z m 12.83239,0 h 12.32988 v 4.4658 h -12.32988 z m 12.68378,0 h 12.40222 v 4.4658 h -12.40222 z m 12.75808,0 h 12.40222 v 4.4658 h -12.40222 z m 12.75613,0 h 12.32206 v 4.4658 h -12.32206 z m 12.83238,0 h 12.32792 v 4.4658 h -12.32792 z m 12.68378,0 h 12.40223 v 4.4658 h -12.40223 z m 12.75613,0 h 12.40418 v 4.4658 h -12.40418 z m 12.75808,0 h 12.32206 v 4.4658 h -12.32206 z m 25.51421,0 h 12.40418 v 4.4658 h -12.40418 z m 12.75808,0 h 12.40418 v 4.4658 h -12.40418 z m 12.75808,0 h 12.29078 v 4.4658 h -12.29078 z m 12.85389,0 h 12.30642 v 4.4658 h -12.30642 z m 12.66032,0 h 12.40418 v 4.4658 H 890.7131 Z m 12.75808,0 h 12.32206 v 4.4658 h -12.32206 z m -727.11095,4.677 h 12.33184 v 4.4658 h -12.33184 z m 12.6877,0 h 12.40222 v 4.4658 h -12.40222 z m 12.75612,0 h 12.3553 l -0.002,4.4658 h -12.35334 z m 12.82847,0 h 12.33379 v 4.4658 h -12.33379 z m 12.6877,0 h 12.40222 v 4.4658 h -12.40222 z m 12.75808,0 h 12.40222 v 4.4658 H 240.0783 Z m 12.75612,0 h 12.31815 v 4.4658 h -12.31815 z m 12.82848,0 h 12.33183 v 4.4658 H 265.6629 Z m 12.68769,0 h 12.40222 v 4.4658 h -12.40222 z m 25.51421,0 h 12.32597 v 4.4658 H 303.8648 Z m 12.83629,0 h 12.32401 v 4.4658 h -12.32401 z m 12.67791,0 h 12.40418 v 4.4658 H 329.379 Z m 12.75809,0 h 12.40418 v 4.4658 h -12.40418 z m 12.75808,0 H 367.227 v 4.4658 h -12.33183 z m 12.83629,0 h 12.32401 v 4.4658 h -12.32401 z m 12.67792,0 h 12.40418 v 4.4658 h -12.40418 z m 12.75808,0 h 12.40222 v 4.4658 h -12.40222 z m 12.75808,0 h 12.31815 v 4.4658 h -12.31815 z m 12.82847,0 h 12.33184 v 4.4658 h -12.33184 z m 12.68574,0 h 12.40418 v 4.4658 h -12.40418 z m 12.75808,0 h 12.40223 v 4.4658 h -12.40223 z m 12.75613,0 h 12.3201 v 4.4658 h -12.3201 z m 12.83042,0 h 12.33184 v 4.4658 h -12.33184 z m 25.44382,0 h 12.40223 v 4.4658 H 495.2282 Z m 12.75613,0 h 12.3201 v 4.4658 h -12.3201 z m 12.83043,0 h 12.32988 v 4.4658 h -12.32988 z m 12.68573,0 h 12.40223 v 4.4658 h -12.40223 z m 12.75613,0 h 12.40418 v 4.4658 h -12.40418 z m 12.75808,0 h 12.32011 v 4.4658 H 559.0147 Z m 12.84412,0 h 12.31619 v 4.4658 h -12.31619 z m 12.67205,0 h 12.40222 v 4.4658 h -12.40222 z m 12.75612,0 h 12.40418 v 4.4658 h -12.40418 z m 12.75809,0 h 12.3201 v 4.4658 h -12.3201 z m 89.30657,0.1427 h 12.40222 v 4.4639 h -12.40222 z m 12.75612,0 h 12.32793 v 4.4639 h -12.32793 z m 12.83239,0 h 12.32988 v 4.4639 h -12.32988 z m 12.68378,0 h 12.40222 v 4.4639 h -12.40222 z m 12.75808,0 h 12.40222 v 4.4639 h -12.40222 z m 12.75613,0 h 12.32206 v 4.4639 h -12.32206 z m 12.83238,0 h 12.32792 v 4.4639 h -12.32792 z m 12.68378,0 h 12.40223 v 4.4639 h -12.40223 z m 12.75613,0 h 12.40418 v 4.4639 h -12.40418 z m 12.75808,0 h 12.32206 v 4.4639 h -12.32206 z m 25.51421,0 h 12.40418 v 4.4639 h -12.40418 z m 12.75808,0 h 12.40418 v 4.4639 h -12.40418 z m 12.75808,0 h 12.29078 v 4.4639 h -12.29078 z m 12.85389,0 h 12.30642 v 4.4639 h -12.30837 z m 12.66032,0 h 12.40418 v 4.4639 H 890.7131 Z m 12.75808,0 h 12.32206 v 4.4639 h -12.32206 z m -727.11095,4.677 h 12.33184 v 4.4658 h -12.32988 z m 12.6877,0 h 12.40222 v 4.4658 h -12.40222 z m 12.75612,0 h 12.35334 l -0.002,4.4658 H 201.804 Z m 12.82847,0 h 12.33379 v 4.4658 h -12.33183 z m 12.6877,0 h 12.40222 v 4.4658 h -12.40222 z m 12.75808,0 h 12.40222 v 4.4658 H 240.0783 Z m 12.75612,0 h 12.31815 l 0.002,4.4658 h -12.32011 z m 12.82848,0 h 12.33183 v 4.4658 h -12.32988 z m 12.68769,0 h 12.40222 v 4.4658 h -12.40222 z m 25.51421,0 h 12.32597 v 4.4658 H 303.8648 Z m 12.83629,0 h 12.32401 v 4.4658 h -12.32401 z m 12.67791,0 h 12.40418 v 4.4658 H 329.379 Z m 12.75809,0 h 12.40418 v 4.4658 h -12.40418 z m 12.75808,0 H 367.227 l -0.002,4.4658 h -12.32988 z m 12.83629,0 h 12.32401 v 4.4658 h -12.32596 z m 12.67792,0 h 12.40418 v 4.4658 h -12.40418 z m 12.75808,0 h 12.40222 v 4.4658 h -12.40222 z m 12.75808,0 h 12.31815 l 0.002,4.4658 h -12.3201 z m 12.82847,0 h 12.33184 v 4.4658 h -12.32988 z m 12.68574,0 h 12.40418 v 4.4658 h -12.40418 z m 12.75808,0 h 12.40223 v 4.4658 h -12.40223 z m 12.75613,0 h 12.3201 l 0.002,4.4658 H 456.954 Z m 12.83042,0 h 12.33184 v 4.4658 h -12.32988 z m 25.44382,0 h 12.40223 v 4.4658 H 495.2282 Z m 12.75613,0 h 12.3201 l 0.002,4.4658 h -12.32206 z m 12.83043,0 h 12.32988 v 4.4658 h -12.32793 z m 12.68573,0 h 12.40223 v 4.4658 h -12.40223 z m 12.75613,0 h 12.40418 v 4.4658 h -12.40418 z m 12.75808,0 h 12.32011 l 0.002,4.4658 H 559.0147 Z m 12.84412,0 h 12.31619 v 4.4658 h -12.31619 z m 12.67205,0 h 12.40222 v 4.4658 h -12.40222 z m 12.75612,0 h 12.40418 v 4.4658 h -12.40418 z m 12.75809,0 h 12.3201 l 0.002,4.4658 h -12.32205 z m 89.30657,0.1427 h 12.40222 v 4.4639 h -12.40222 z m 12.75612,0 h 12.32793 v 4.4639 h -12.32793 z m 12.83239,0 h 12.32988 v 4.4639 h -12.32988 z m 12.68378,0 h 12.40222 v 4.4639 h -12.40222 z m 12.75808,0 h 12.40222 v 4.4639 h -12.40222 z m 12.75613,0 h 12.32206 l 0.002,4.4639 H 763.1382 Z m 12.83238,0 h 12.32792 v 4.4639 h -12.32792 z m 12.68378,0 h 12.40223 v 4.4639 h -12.40223 z m 12.75613,0 h 12.40418 v 4.4639 h -12.40418 z m 12.75808,0 h 12.32206 v 4.4639 h -12.32206 z m 25.51421,0 h 12.40418 v 4.4639 h -12.40418 z m 12.75808,0 h 12.40418 v 4.4639 h -12.40418 z m 12.75808,0 h 12.29078 v 4.4639 h -12.29078 z m 12.85194,0 h 12.30837 v 4.4639 h -12.30837 z m 12.66227,0 h 12.40418 v 4.4639 H 890.7131 Z m 12.75808,0 h 12.32206 v 4.4639 h -12.32206 z m -727.10899,4.677 h 12.32988 v 4.4658 h -12.32988 z m 12.68574,0 h 12.40222 v 4.4658 h -12.40222 z m 12.75612,0 h 12.35139 l -0.002,4.4658 h -12.34943 z m 12.83043,0 h 12.33183 v 4.4658 h -12.33183 z m 12.68574,0 h 12.40222 v 4.4658 h -12.40222 z m 12.75808,0 h 12.40222 v 4.4658 H 240.0783 Z m 12.75612,0 h 12.32011 v 4.4658 h -12.32011 z m 12.83043,0 h 12.32988 v 4.4658 h -12.32988 z m 12.68574,0 h 12.40222 v 4.4658 h -12.40222 z m 25.51421,0 h 12.32597 v 4.4658 H 303.8648 Z m 12.83629,0 h 12.32401 v 4.4658 h -12.32401 z m 12.67791,0 h 12.40418 v 4.4658 H 329.379 Z m 12.75809,0 h 12.40418 v 4.4658 h -12.40418 z m 12.75808,0 h 12.32988 v 4.4658 h -12.32988 z m 12.83434,0 h 12.32596 v 4.4658 h -12.32596 z m 12.67987,0 h 12.40418 v 4.4658 h -12.40418 z m 12.75808,0 h 12.40222 v 4.4658 h -12.40222 z m 12.75808,0 h 12.3201 v 4.4658 h -12.3201 z m 12.83043,0 h 12.32988 v 4.4658 h -12.32988 z m 12.68378,0 h 12.40418 v 4.4658 h -12.40418 z m 12.75808,0 h 12.40223 v 4.4658 h -12.40223 z m 12.75613,0 h 12.32206 v 4.4658 h -12.32206 z m 12.83238,0 h 12.32988 v 4.4658 h -12.32988 z m 25.44186,0 h 12.40223 v 4.4658 H 495.2282 Z m 12.75613,0 h 12.32206 v 4.4658 h -12.32206 z m 12.83238,0 h 12.32793 v 4.4658 h -12.32793 z m 12.68378,0 h 12.40223 v 4.4658 h -12.40223 z m 12.75613,0 h 12.40418 v 4.4658 h -12.40418 z m 12.75808,0 h 12.32206 v 4.4658 H 559.0147 Z m 12.84412,0 h 12.31619 v 4.4658 h -12.31815 z m 12.67205,0 h 12.40222 v 4.4658 h -12.40222 z m 12.75612,0 h 12.40418 v 4.4658 h -12.40418 z m 12.75809,0 h 12.32205 v 4.4658 h -12.32205 z m 89.30657,0.1427 h 12.40222 v 4.4639 h -12.40222 z m 12.75612,0 h 12.32793 v 4.4639 h -12.32793 z m 12.83239,0 h 12.32988 v 4.4639 h -12.32988 z m 12.68378,0 h 12.40222 v 4.4639 h -12.40222 z m 12.75808,0 h 12.40222 v 4.4639 h -12.40222 z m 12.75613,0 h 12.32401 v 4.4639 h -12.32401 z m 12.83238,0 h 12.32792 v 4.4639 h -12.32792 z m 12.68378,0 h 12.40223 v 4.4639 h -12.40223 z m 12.75613,0 h 12.40418 v 4.4639 h -12.40418 z m 12.75808,0 h 12.32206 v 4.4639 h -12.32206 z m 25.51421,0 h 12.40418 v 4.4639 h -12.40418 z m 12.75808,0 h 12.40418 v 4.4639 h -12.40418 z m 12.75808,0 h 12.29078 v 4.4639 h -12.29078 z m 12.85194,0 h 12.30837 v 4.4639 h -12.31033 z m 12.66227,0 h 12.40418 v 4.4639 H 890.7131 Z m 12.75808,0 h 12.32206 v 4.4639 h -12.32206 z m -727.10899,4.677 h 12.32988 v 4.4639 h -12.32988 z m 12.68574,0 h 12.40222 v 4.4639 h -12.40222 z m 12.75612,0 h 12.34943 v 4.4639 h -12.34943 z m 12.83043,0 h 12.33183 v 4.4639 h -12.33183 z m 12.68574,0 h 12.40222 v 4.4639 h -12.40222 z m 12.75808,0 h 12.40222 v 4.4639 H 240.0783 Z m 12.75612,0 h 12.32011 v 4.4639 h -12.32011 z m 12.83043,0 h 12.32988 v 4.4639 h -12.32988 z m 12.68574,0 h 12.40222 v 4.4639 h -12.40222 z m 25.51421,0 h 12.32597 v 4.4639 H 303.8648 Z m 12.83629,0 h 12.32401 v 4.4639 h -12.32401 z m 12.67791,0 h 12.40418 v 4.4639 H 329.379 Z m 12.75809,0 h 12.40418 v 4.4639 h -12.40418 z m 12.75808,0 h 12.32988 v 4.4639 h -12.32988 z m 12.83434,0 h 12.32596 v 4.4639 h -12.32596 z m 12.67987,0 h 12.40418 v 4.4639 h -12.40418 z m 12.75808,0 h 12.40222 v 4.4639 h -12.40222 z m 12.75808,0 h 12.3201 v 4.4639 h -12.3201 z m 12.83043,0 h 12.32988 v 4.4639 h -12.32988 z m 12.68378,0 h 12.40418 v 4.4639 h -12.40418 z m 12.75808,0 h 12.40223 v 4.4639 h -12.40223 z m 12.75613,0 h 12.32206 v 4.4639 h -12.32206 z m 12.83238,0 h 12.32988 v 4.4639 h -12.32988 z m 25.44186,0 h 12.40223 v 4.4639 H 495.2282 Z m 12.75613,0 h 12.32206 v 4.4639 h -12.32206 z m 12.83238,0 h 12.32793 v 4.4639 h -12.32793 z m 12.68378,0 h 12.40223 v 4.4639 h -12.40223 z m 12.75613,0 h 12.40418 v 4.4639 h -12.40418 z m 12.75808,0 h 12.32206 v 4.4639 H 559.0147 Z m 12.84216,0 h 12.31815 v 4.4639 h -12.31815 z m 12.67401,0 h 12.40222 v 4.4639 h -12.40222 z m 12.75612,0 h 12.40418 v 4.4639 h -12.40418 z m 12.75809,0 h 12.32205 v 4.4639 h -12.32205 z m 89.30657,0.1408 h 12.40222 v 4.4658 h -12.40222 z m 12.75612,0 h 12.32793 v 4.4658 h -12.32793 z m 12.83239,0 h 12.32988 v 4.4658 h -12.32988 z m 12.68378,0 h 12.40222 v 4.4658 h -12.40222 z m 12.75808,0 h 12.40222 v 4.4658 h -12.40222 z m 12.75613,0 h 12.32401 v 4.4658 h -12.32401 z m 12.83238,0 h 12.32792 v 4.4658 h -12.32792 z m 12.68378,0 h 12.40223 v 4.4658 h -12.40223 z m 12.75613,0 h 12.40418 v 4.4658 h -12.40418 z m 12.75808,0 h 12.32206 v 4.4658 h -12.32206 z m 25.51421,0 h 12.40418 v 4.4658 h -12.40418 z m 12.75808,0 h 12.40418 v 4.4658 h -12.40418 z m 12.75808,0 h 12.29078 v 4.4658 h -12.29078 z m 12.84998,0 h 12.31033 v 4.4658 h -12.31228 z m 12.66423,0 h 12.40418 v 4.4658 H 890.7131 Z m 12.75808,0 h 12.32206 v 4.4658 h -12.32206 z m -727.10899,4.6789 h 12.32988 v 3.0463 h 0.35586 v -3.0463 h 12.40222 v 3.0463 h 0.3539 v -3.0463 h 12.34943 l -0.002,3.1891 h -37.78934 z m 38.27229,0 h 12.33183 v 3.0463 h 0.35391 v -3.0463 h 12.40222 v 3.0463 h 0.35586 v -3.0463 h 12.40222 v 3.0463 h 0.3539 v -3.0463 h 12.32011 v 3.1891 h -50.52005 z m 102.06661,0 h 12.32401 v 3.0463 h 0.3539 v -3.0463 h 12.40418 v 3.0463 h 0.35391 v -3.0463 h 12.40418 v 3.0463 h 0.3539 v -3.0463 h 12.32988 v 3.1891 h -50.52396 z m 51.02842,0 h 12.32596 v 3.0463 h 0.35391 v -3.0463 h 12.40418 v 3.0463 h 0.3539 v -3.0463 h 12.40222 v 3.0463 h 0.35586 v -3.0463 h 12.3201 v 3.1891 h -50.51613 z m 51.02646,0 h 12.32988 v 3.0463 h 0.3539 v -3.0463 h 12.40418 v 3.0463 h 0.3539 v -3.0463 h 12.40223 v 3.0463 h 0.3539 v -3.0463 h 12.32206 v 3.1891 h -50.52005 z m 102.06074,0 h 12.32793 v 3.0463 h 0.35585 v -3.0463 h 12.40223 v 3.0463 h 0.3539 v -3.0463 h 12.40418 v 3.0463 h 0.3539 v -3.0463 h 12.32206 v 3.1891 h -50.52005 z m 51.04015,0 h 12.31815 v 3.0463 h 0.3539 0.002 v -3.0463 h 12.40222 v 3.0463 h 0.3539 v -3.0463 h 12.40418 v 3.0463 h 0.35391 v -3.0463 h 12.32205 v 3.1891 H 571.8569 Z m 127.49479,0.1408 h 12.40222 v 3.0483 h -12.40222 z m 12.75612,0 h 12.32793 v 3.0483 h -12.32793 z m 12.83239,0 h 12.32988 v 3.0483 h -12.32988 z m 12.68378,0 h 12.40222 v 3.0483 h -12.40222 z m 12.75808,0 h 12.40222 v 3.0483 h -12.40222 z m 12.75613,0 h 12.32401 v 3.0483 h -12.32401 z m 12.83238,0 h 12.32792 v 3.0483 h -12.32792 z m 12.68378,0 h 12.40223 v 3.0483 h -12.40223 z m 12.75613,0 h 12.40418 v 3.0483 h -12.40418 z m 12.75808,0 h 12.32206 v 3.0483 h -12.32206 z m 25.51421,0 h 12.40418 v 3.0483 h -12.40418 z m 12.75808,0 h 12.40418 v 3.0483 h -12.40418 z m 12.75808,0 h 12.29078 v 3.0483 h -12.29078 z m 12.84803,0 h 12.31228 v 3.0483 h -12.31228 z m 12.66618,0 h 12.40418 v 3.0483 H 890.7131 Z m 12.75808,0 h 12.32206 v 3.0483 h -12.32206 z m -727.10899,6.1669 h 37.78934 l -0.01,33.5934 H 176.3661 v -3.1891 h 12.32597 v 3.0483 h 0.35586 v -3.0483 h 12.40222 v 3.0483 h 0.3539 v -32.7448 h -0.3539 v 0.4263 h -12.40222 v -0.4263 h -0.35586 v 0.4263 h -12.32988 z m 38.27229,0 h 50.52005 v 1.1341 h -12.32011 v -0.4263 h -0.3539 v 0.4263 H 240.0783 v -0.4263 h -0.35586 v 0.4263 h -12.40222 v -0.4263 h -0.35391 v 0.4263 h -12.33183 z m 51.03037,0 h 50.52592 v 1.1341 H 303.8648 v -0.4263 h -0.35391 v 0.4263 h -12.40418 v -0.4263 h -0.3539 v 0.4263 h -12.40222 v -0.4263 h -0.35586 v 0.4263 h -12.32988 z m 51.03624,0 h 50.52396 v 1.1341 h -12.32988 v -0.4263 h -0.3539 v 0.4263 h -12.40418 v -0.4263 h -0.35391 v 0.4263 H 329.379 v -0.4263 h -0.3539 v 0.4263 h -12.32401 z m 51.02842,0 h 50.51613 v 1.1341 h -12.3201 v -0.4263 h -0.35586 v 0.4263 h -12.40222 v -0.4263 h -0.3539 v 0.4263 h -12.40418 v -0.4263 h -0.35391 v 32.7448 h 0.35391 v -3.0483 h 12.40418 v 3.0483 h 0.3539 v -3.0483 h 12.40222 v 3.0483 h 0.35586 v -3.0483 h 12.32206 v 3.1891 h -50.51809 z m 51.02646,0 h 50.52005 v 1.1341 h -12.32206 v -0.4263 h -0.3539 v 0.4263 h -12.40223 v -0.4263 h -0.3539 v 0.4263 h -12.40418 v -0.4263 h -0.3539 v 0.4263 h -12.32988 z m 51.03037,0 h 50.52005 v 1.1341 h -12.32206 v -0.4263 h -0.3539 v 0.4263 H 495.2282 v -0.4263 h -0.35585 v 0.4263 h -12.40223 v -0.4263 h -0.3539 v 0.4263 h -12.32988 z m 51.03037,0 h 50.52005 v 1.1341 H 559.0147 v -0.4263 h -0.3539 v 0.4263 h -12.40418 v -0.4263 h -0.3539 v 32.7448 h 0.3539 v -3.0483 h 12.40418 v 3.0483 h 0.3539 v -3.0483 h 12.32402 v 3.1891 h -50.52005 v -3.1891 h 12.32597 v 3.0483 h 0.35585 v -32.7448 h -0.35585 v 0.4263 h -12.32793 z m 51.04015,0 h 50.51027 v 1.1341 h -12.32205 v -0.4263 h -0.35391 v 0.4263 h -12.40418 v -0.4263 h -0.3539 v 0.4263 h -12.40222 v -0.4263 h -0.002 -0.3539 v 0.4263 h -12.31815 z m 51.03037,0 h 50.51223 v 33.5934 h -50.51418 v -3.1891 h 12.3201 v 3.0483 h 0.3539 v -3.0483 h 12.40418 v 3.0483 h 0.35391 v -3.0483 h 12.40222 v 3.0483 h 0.35586 v -32.7448 h -0.35586 v 0.4263 h -12.40222 v -0.4263 h -0.35391 v 0.4263 h -12.40418 v -0.4263 h -0.3539 v 0.4263 h -12.31815 z m 51.02255,0 h 50.52592 v 1.2748 h -12.32793 v -0.4242 h -0.3539 v 32.7428 h -37.84409 z m 51.03038,0 h 50.522 v 1.2748 h -12.32401 v -0.4242 h -0.35391 v 0.4242 h -12.40222 v -0.4242 h -0.35586 v 0.4242 h -12.40222 v -0.4242 h -0.3539 v 0.4242 h -12.32988 z m 51.03037,0 h 50.52005 v 1.2748 h -12.32206 v -0.4242 h -0.3539 v 0.4242 h -12.40418 v -0.4242 h -0.3539 v 0.4242 h -12.40223 v -0.4242 h -0.35586 v 0.4242 h -12.32792 z m 51.03037,0 h 50.48877 v 1.2748 h -12.29078 v -0.4242 h -0.3539 v 32.7428 h -12.40418 v -32.7428 h -0.3539 v 0.4242 h -12.40418 v -0.4242 h -0.3539 v 0.4242 H 827.0009 Z m 51.04602,0 h 37.74632 v 1.2748 h -12.32206 v -0.4242 h -0.3539 v 0.4242 H 890.7131 v -0.4242 h -0.3539 v 0.4242 h -12.31228 z m -701.68473,1.488 h 12.32988 v 4.4658 h -12.32988 z m 12.68574,0 h 12.40222 v 4.4658 h -12.40222 z m 25.58655,0 h 12.33183 v 4.4658 h -12.33183 z m 12.68574,0 h 12.40222 v 4.4658 h -12.40222 z m 12.75808,0 h 12.40222 v 4.4658 H 240.0783 Z m 12.75612,0 h 12.32011 v 4.4658 h -12.32011 z m 12.83043,0 h 12.32988 v 4.4658 h -12.32988 z m 12.68574,0 h 12.40222 v 4.4658 h -12.40222 z m 12.75612,0 h 12.40418 v 4.4658 h -12.40418 z m 12.75809,0 h 12.32597 v 4.4658 H 303.8648 Z m 12.83629,0 h 12.32401 v 4.4658 h -12.32401 z m 12.67791,0 h 12.40418 v 4.4658 H 329.379 Z m 12.75809,0 h 12.40418 v 4.4658 h -12.40418 z m 12.75808,0 h 12.32988 v 4.4658 h -12.32988 z m 25.51421,0 h 12.40418 v 4.4658 h -12.40418 z m 12.75808,0 h 12.40222 v 4.4658 h -12.40222 z m 12.75808,0 h 12.3201 v 4.4658 h -12.3201 z m 12.83043,0 h 12.32988 v 4.4658 h -12.32988 z m 12.68378,0 h 12.40418 v 4.4658 h -12.40418 z m 12.75808,0 h 12.40223 v 4.4658 h -12.40223 z m 12.75613,0 h 12.32206 v 4.4658 h -12.32206 z m 12.83238,0 h 12.32988 v 4.4658 h -12.32988 z m 12.68378,0 h 12.40223 v 4.4658 h -12.40223 z m 12.75808,0 h 12.40223 v 4.4658 H 495.2282 Z m 12.75613,0 h 12.32206 v 4.4658 h -12.32206 z m 12.83238,0 h 12.32793 v 4.4658 h -12.32793 z m 25.43991,0 h 12.40418 v 4.4658 h -12.40418 z m 12.75808,0 h 12.32206 v 4.4658 H 559.0147 Z m 12.84216,0 h 12.31815 v 4.4658 h -12.31815 z m 12.67401,0 h 12.40222 v 4.4658 h -12.40222 z m 12.75612,0 h 12.40418 v 4.4658 h -12.40418 z m 12.75809,0 h 12.32205 v 4.4658 h -12.32205 z m 12.84215,0 h 12.31815 v 4.4658 h -12.31815 z m 12.67205,0 h 12.40418 v 4.4658 h -12.40418 z m 12.75809,0 h 12.40222 v 4.4658 h -12.40222 z m 63.7904,0.1407 h 12.32793 v 4.4659 h -12.32793 z m 12.83239,0 h 12.32988 v 4.4659 h -12.32988 z m 12.68378,0 h 12.40222 v 4.4659 h -12.40222 z m 12.75808,0 h 12.40222 v 4.4659 h -12.40222 z m 12.75613,0 h 12.32401 v 4.4659 h -12.32401 z m 12.83238,0 h 12.32792 v 4.4659 h -12.32792 z m 12.68378,0 h 12.40223 v 4.4659 h -12.40223 z m 12.75613,0 h 12.40418 v 4.4659 h -12.40418 z m 12.75808,0 h 12.32206 v 4.4659 h -12.32206 z m 12.83238,0 h 12.32793 v 4.4659 H 827.0009 Z m 12.68183,0 h 12.40418 v 4.4659 h -12.40418 z m 25.51616,0 h 12.29078 v 4.4659 h -12.29078 z m 12.84803,0 h 12.31228 v 4.4659 h -12.31424 z m 12.66618,0 h 12.40418 v 4.4659 H 890.7131 Z m 12.75808,0 h 12.32206 v 4.4659 h -12.32206 z m -727.10899,4.679 h 12.32988 v 4.4639 h -12.32793 z m 12.68574,0 h 12.40222 v 4.4639 h -12.40222 z m 25.58655,0 h 12.33183 v 4.4639 h -12.32988 z m 12.68574,0 h 12.40222 v 4.4639 h -12.40222 z m 12.75808,0 h 12.40222 v 4.4639 H 240.0783 Z m 12.75612,0 h 12.32011 l 0.002,4.4639 h -12.32206 z m 12.83043,0 h 12.32988 v 4.4639 h -12.32792 z m 12.68574,0 h 12.40222 v 4.4639 h -12.40222 z m 12.75612,0 h 12.40418 v 4.4639 h -12.40418 z m 12.75809,0 h 12.32597 v 4.4639 H 303.8648 Z m 12.83629,0 h 12.32401 v 4.4639 h -12.32401 z m 12.67791,0 h 12.40418 v 4.4639 H 329.379 Z m 12.75809,0 h 12.40418 v 4.4639 h -12.40418 z m 12.75808,0 h 12.32988 l -0.002,4.4639 h -12.32792 z m 25.51421,0 h 12.40418 v 4.4639 h -12.40418 z m 12.75808,0 h 12.40222 v 4.4639 h -12.40222 z m 12.75808,0 h 12.3201 v 4.4639 h -12.3201 z m 12.83043,0 h 12.32988 v 4.4639 h -12.32988 z m 12.68378,0 h 12.40418 v 4.4639 h -12.40418 z m 12.75808,0 h 12.40223 v 4.4639 h -12.40223 z m 12.75613,0 h 12.32206 v 4.4639 h -12.32206 z m 12.83238,0 h 12.32988 v 4.4639 h -12.32988 z m 12.68378,0 h 12.40223 v 4.4639 h -12.40223 z m 12.75808,0 h 12.40223 v 4.4639 H 495.2282 Z m 12.75613,0 h 12.32206 v 4.4639 h -12.32206 z m 12.83238,0 h 12.32793 v 4.4639 h -12.32793 z m 25.43991,0 h 12.40418 v 4.4639 h -12.40418 z m 12.75808,0 h 12.32206 v 4.4639 H 559.0147 Z m 12.84216,0 h 12.31815 v 4.4639 h -12.31815 z m 12.67401,0 h 12.40222 v 4.4639 h -12.40222 z m 12.75612,0 h 12.40418 v 4.4639 h -12.40418 z m 12.75809,0 h 12.32205 v 4.4639 h -12.32205 z m 12.84215,0 h 12.31815 v 4.4639 h -12.31815 z m 12.67205,0 h 12.40418 v 4.4639 h -12.40418 z m 12.75809,0 h 12.40222 v 4.4639 h -12.40222 z m 63.7904,0.1408 h 12.32793 v 4.4658 h -12.32793 z m 12.83239,0 h 12.32988 v 4.4658 h -12.32988 z m 12.68378,0 h 12.40222 v 4.4658 h -12.40222 z m 12.75808,0 h 12.40222 v 4.4658 h -12.40222 z m 12.75613,0 h 12.32401 v 4.4658 h -12.32401 z m 12.83238,0 h 12.32792 v 4.4658 h -12.32792 z m 12.68378,0 h 12.40223 v 4.4658 h -12.40223 z m 12.75613,0 h 12.40418 v 4.4658 h -12.40418 z m 12.75808,0 h 12.32206 v 4.4658 h -12.32206 z m 12.83238,0 h 12.32793 v 4.4658 H 827.0009 Z m 12.68183,0 h 12.40418 v 4.4658 h -12.40418 z m 25.51616,0 h 12.29078 v 4.4658 h -12.29078 z m 12.84607,0 h 12.31424 v 4.4658 h -12.31424 z m 12.66814,0 h 12.40418 v 4.4658 H 890.7131 Z m 12.75808,0 h 12.32206 v 4.4658 h -12.32206 z m -727.10704,4.6789 h 12.32793 v 4.4639 h -12.32793 z m 12.68379,0 h 12.40222 v 4.4639 h -12.40222 z m 25.5885,0 h 12.32988 v 4.4639 h -12.32988 z m 12.68379,0 h 12.40222 v 4.4639 h -12.40222 z m 12.75808,0 h 12.40222 v 4.4639 H 240.0783 Z m 12.75612,0 h 12.32206 v 4.4639 h -12.32206 z m 12.83239,0 h 12.32792 v 4.4639 h -12.32792 z m 12.68378,0 h 12.40222 v 4.4639 h -12.40222 z m 12.75612,0 h 12.40418 v 4.4639 h -12.40418 z m 12.75809,0 h 12.32597 v 4.4639 H 303.8648 Z m 12.83629,0 h 12.32401 v 4.4639 h -12.32401 z m 12.67791,0 h 12.40418 v 4.4639 H 329.379 Z m 12.75809,0 h 12.40418 v 4.4639 h -12.40418 z m 12.75808,0 h 12.32792 v 4.4639 h -12.32792 z m 25.51421,0 h 12.40418 v 4.4639 h -12.40418 z m 12.75808,0 h 12.40222 v 4.4639 h -12.40222 z m 12.75808,0 h 12.3201 v 4.4639 h -12.3201 z m 12.83043,0 h 12.32988 v 4.4639 h -12.32988 z m 12.68378,0 h 12.40418 v 4.4639 h -12.40418 z m 12.75808,0 h 12.40223 v 4.4639 h -12.40223 z m 12.75613,0 h 12.32206 v 4.4639 h -12.32206 z m 12.83238,0 h 12.32988 v 4.4639 h -12.32988 z m 12.68378,0 h 12.40223 v 4.4639 h -12.40223 z m 12.75808,0 h 12.40223 v 4.4639 H 495.2282 Z m 12.75613,0 h 12.32206 v 4.4639 h -12.32206 z m 12.83238,0 h 12.32793 v 4.4639 h -12.32793 z m 25.43991,0 h 12.40418 v 4.4639 h -12.40418 z m 12.75808,0 h 12.32206 v 4.4639 H 559.0147 Z m 12.84216,0 h 12.31815 v 4.4639 h -12.31815 z m 12.67401,0 h 12.40222 v 4.4639 h -12.40222 z m 12.75612,0 h 12.40418 v 4.4639 h -12.40418 z m 12.75809,0 h 12.32205 v 4.4639 h -12.32205 z m 12.84215,0 h 12.31815 v 4.4639 h -12.31815 z m 12.67205,0 h 12.40418 v 4.4639 h -12.40418 z m 12.75809,0 h 12.40222 v 4.4639 h -12.40222 z m 63.7904,0.1408 h 12.32793 v 4.4658 h -12.32793 z m 12.83239,0 h 12.32988 v 4.4658 h -12.32988 z m 12.68378,0 h 12.40222 v 4.4658 h -12.40222 z m 12.75808,0 h 12.40222 v 4.4658 h -12.40222 z m 12.75613,0 h 12.32401 v 4.4658 h -12.32401 z m 12.83238,0 h 12.32792 v 4.4658 h -12.32792 z m 12.68378,0 h 12.40223 v 4.4658 h -12.40223 z m 12.75613,0 h 12.40418 v 4.4658 h -12.40418 z m 12.75808,0 h 12.32206 v 4.4658 h -12.32206 z m 12.83238,0 h 12.32793 v 4.4658 H 827.0009 Z m 12.68183,0 h 12.40418 v 4.4658 h -12.40418 z m 25.51616,0 h 12.29078 v 4.4658 h -12.29078 z m 12.84607,0 h 12.31424 v 4.4658 h -12.31619 z m 12.66814,0 h 12.40418 v 4.4658 H 890.7131 Z m 12.75808,0 h 12.32206 v 4.4658 h -12.32206 z m -727.10704,4.677 h 12.32793 v 4.4658 h -12.32793 z m 12.68379,0 h 12.40222 v 4.4658 h -12.40222 z m 25.5885,0 h 12.32988 v 4.4658 h -12.32988 z m 12.68379,0 h 12.40222 v 4.4658 h -12.40222 z m 12.75808,0 h 12.40222 v 4.4658 H 240.0783 Z m 12.75612,0 h 12.32206 v 4.4658 h -12.32206 z m 12.83239,0 h 12.32792 v 4.4658 h -12.32792 z m 12.68378,0 h 12.40222 v 4.4658 h -12.40222 z m 12.75612,0 h 12.40418 v 4.4658 h -12.40418 z m 12.75809,0 h 12.32597 v 4.4658 H 303.8648 Z m 12.83629,0 h 12.32401 v 4.4658 h -12.32401 z m 12.67791,0 h 12.40418 v 4.4658 H 329.379 Z m 12.75809,0 h 12.40418 v 4.4658 h -12.40418 z m 12.75808,0 h 12.32792 v 4.4658 h -12.32792 z m 25.51421,0 h 12.40418 v 4.4658 h -12.40418 z m 12.75808,0 h 12.40222 v 4.4658 h -12.40222 z m 12.75808,0 h 12.3201 l 0.002,4.4658 h -12.32206 z m 12.83043,0 h 12.32988 v 4.4658 h -12.32793 z m 12.68378,0 h 12.40418 v 4.4658 h -12.40418 z m 12.75808,0 h 12.40223 v 4.4658 h -12.40223 z m 12.75613,0 h 12.32206 l 0.002,4.4658 h -12.32401 z m 12.83238,0 h 12.32988 v 4.4658 H 469.7883 Z m 12.68378,0 h 12.40223 v 4.4658 h -12.40223 z m 12.75808,0 h 12.40223 v 4.4658 H 495.2282 Z m 12.75613,0 h 12.32206 l 0.002,4.4658 h -12.32401 z m 12.83238,0 h 12.32793 v 4.4658 h -12.32597 z m 25.43991,0 h 12.40418 v 4.4658 h -12.40418 z m 12.75808,0 h 12.32206 l 0.002,4.4658 H 559.0147 Z m 12.84216,0 h 12.31815 v 4.4658 h -12.3201 z m 12.67401,0 h 12.40222 v 4.4658 h -12.40222 z m 12.75612,0 h 12.40418 v 4.4658 h -12.40418 z m 12.75809,0 h 12.32205 l 0.002,4.4658 h -12.32401 z m 12.84215,0 h 12.31815 v 4.4658 h -12.3201 z m 12.67205,0 h 12.40418 v 4.4658 h -12.40418 z m 12.75809,0 h 12.40222 v 4.4658 h -12.40222 z m 63.7904,0.1427 h 12.32793 v 4.4658 h -12.32793 z m 12.83239,0 h 12.32988 v 4.4658 h -12.32988 z m 12.68378,0 h 12.40222 v 4.4658 h -12.40222 z m 12.75808,0 h 12.40222 v 4.4658 h -12.40222 z m 12.75613,0 h 12.32401 l 0.002,4.4658 h -12.32597 z m 12.83238,0 h 12.32792 v 4.4658 h -12.32792 z m 12.68378,0 h 12.40223 v 4.4658 h -12.40223 z m 12.75613,0 h 12.40418 v 4.4658 h -12.40418 z m 12.75808,0 h 12.32206 v 4.4658 h -12.32206 z m 12.83238,0 h 12.32793 v 4.4658 H 827.0009 Z m 12.68183,0 h 12.40418 v 4.4658 h -12.40418 z m 25.51616,0 h 12.29078 v 4.4658 h -12.29078 z m 12.84412,0 h 12.31619 v 4.4658 h -12.31619 z m 12.67009,0 h 12.40418 v 4.4658 H 890.7131 Z m 12.75808,0 h 12.32206 v 4.4658 h -12.32206 z m -727.10704,4.677 h 12.32793 v 4.4658 H 176.3661 Z m 12.68379,0 h 12.40222 v 4.4658 h -12.40222 z m 25.5885,0 h 12.32988 v 4.4658 h -12.32792 z m 12.68379,0 h 12.40222 v 4.4658 h -12.40222 z m 12.75808,0 h 12.40222 v 4.4658 H 240.0783 Z m 12.75612,0 h 12.32206 l 0.002,4.4658 h -12.32402 z m 12.83239,0 h 12.32792 v 4.4658 h -12.32597 z m 12.68378,0 h 12.40222 v 4.4658 h -12.40222 z m 12.75612,0 h 12.40418 v 4.4658 h -12.40418 z m 12.75809,0 h 12.32597 v 4.4658 H 303.8648 Z m 12.83629,0 h 12.32401 v 4.4658 h -12.32401 z m 12.67791,0 h 12.40418 v 4.4658 H 329.379 Z m 12.75809,0 h 12.40418 v 4.4658 h -12.40418 z m 12.75808,0 h 12.32792 l -0.002,4.4658 h -12.32597 z m 25.51421,0 h 12.40418 v 4.4658 h -12.40418 z m 12.75808,0 h 12.40222 v 4.4658 h -12.40222 z m 12.75808,0 h 12.32206 v 4.4658 h -12.32206 z m 12.83238,0 h 12.32793 v 4.4658 h -12.32793 z m 12.68183,0 h 12.40418 v 4.4658 h -12.40418 z m 12.75808,0 h 12.40223 v 4.4658 h -12.40223 z m 12.75613,0 h 12.32401 v 4.4658 h -12.32401 z m 12.83434,0 h 12.32792 v 4.4658 H 469.7883 Z m 12.68182,0 h 12.40223 v 4.4658 h -12.40223 z m 12.75808,0 h 12.40223 v 4.4658 H 495.2282 Z m 12.75613,0 h 12.32401 v 4.4658 h -12.32401 z m 12.83434,0 h 12.32597 v 4.4658 h -12.32597 z m 25.43795,0 h 12.40418 v 4.4658 h -12.40418 z m 12.75808,0 h 12.32402 v 4.4658 H 559.0147 Z m 12.84021,0 h 12.3201 v 4.4658 h -12.3201 z m 12.67596,0 h 12.40222 v 4.4658 h -12.40222 z m 12.75612,0 h 12.40418 v 4.4658 h -12.40418 z m 12.75809,0 h 12.32401 v 4.4658 h -12.32401 z m 12.8402,0 h 12.3201 v 4.4658 h -12.3201 z m 12.674,0 h 12.40418 v 4.4658 h -12.40418 z m 12.75809,0 h 12.40222 v 4.4658 h -12.40222 z m 63.7904,0.1427 h 12.32793 v 4.4639 h -12.32793 z m 12.83239,0 h 12.32988 v 4.4639 h -12.32988 z m 12.68378,0 h 12.40222 v 4.4639 h -12.40222 z m 12.75808,0 h 12.40222 v 4.4639 h -12.40222 z m 12.75613,0 h 12.32597 v 4.4639 h -12.32597 z m 12.83238,0 h 12.32792 v 4.4639 h -12.32792 z m 12.68378,0 h 12.40223 v 4.4639 h -12.40223 z m 12.75613,0 h 12.40418 v 4.4639 h -12.40418 z m 12.75808,0 h 12.32206 v 4.4639 h -12.32206 z m 12.83238,0 h 12.32793 v 4.4639 H 827.0009 Z m 12.68183,0 h 12.40418 v 4.4639 h -12.40418 z m 25.51616,0 h 12.29078 v 4.4639 h -12.29078 z m 12.84412,0 h 12.31619 v 4.4639 h -12.31815 z m 12.67009,0 h 12.40418 v 4.4639 H 890.7131 Z m 12.75808,0 h 12.32206 v 4.4639 h -12.32206 z m -727.10508,4.677 h 12.32597 v 4.4658 H 176.3661 Z m 12.68183,0 h 12.40222 v 4.4658 h -12.40222 z m 25.59046,0 h 12.32792 v 4.4658 h -12.32792 z m 12.68183,0 h 12.40222 v 4.4658 h -12.40222 z m 12.75808,0 h 12.40222 v 4.4658 H 240.0783 Z m 12.75612,0 h 12.32402 v 4.4658 h -12.32402 z m 12.83434,0 h 12.32597 v 4.4658 h -12.32597 z m 12.68183,0 h 12.40222 v 4.4658 h -12.40222 z m 12.75612,0 h 12.40418 v 4.4658 h -12.40418 z m 12.75809,0 h 12.32597 v 4.4658 H 303.8648 Z m 12.83629,0 h 12.32401 v 4.4658 h -12.32401 z m 12.67791,0 h 12.40418 v 4.4658 H 329.379 Z m 12.75809,0 h 12.40418 v 4.4658 h -12.40418 z m 12.75808,0 h 12.32597 v 4.4658 h -12.32597 z m 25.51421,0 h 12.40418 v 4.4658 h -12.40418 z m 12.75808,0 h 12.40222 v 4.4658 h -12.40222 z m 12.75808,0 h 12.32206 v 4.4658 h -12.32206 z m 12.83238,0 h 12.32793 v 4.4658 h -12.32793 z m 12.68183,0 h 12.40418 v 4.4658 h -12.40418 z m 12.75808,0 h 12.40223 v 4.4658 h -12.40223 z m 12.75613,0 h 12.32401 v 4.4658 h -12.32401 z m 12.83434,0 h 12.32792 v 4.4658 H 469.7883 Z m 12.68182,0 h 12.40223 v 4.4658 h -12.40223 z m 12.75808,0 h 12.40223 v 4.4658 H 495.2282 Z m 12.75613,0 h 12.32401 v 4.4658 h -12.32401 z m 12.83434,0 h 12.32597 v 4.4658 h -12.32597 z m 25.43795,0 h 12.40418 v 4.4658 h -12.40418 z m 12.75808,0 h 12.32402 v 4.4658 H 559.0147 Z m 12.84021,0 h 12.3201 v 4.4658 h -12.3201 z m 12.67596,0 h 12.40222 v 4.4658 h -12.40222 z m 12.75612,0 h 12.40418 v 4.4658 h -12.40418 z m 12.75809,0 h 12.32401 v 4.4658 h -12.32401 z m 12.8402,0 h 12.3201 v 4.4658 h -12.3201 z m 12.674,0 h 12.40418 v 4.4658 h -12.40418 z m 12.75809,0 h 12.40222 v 4.4658 h -12.40222 z m 63.7904,0.1427 h 12.32793 v 4.4639 h -12.32793 z m 12.83239,0 h 12.32988 v 4.4639 h -12.32988 z m 12.68378,0 h 12.40222 v 4.4639 h -12.40222 z m 12.75808,0 h 12.40222 v 4.4639 h -12.40222 z m 12.75613,0 h 12.32597 v 4.4639 h -12.32597 z m 12.83238,0 h 12.32792 v 4.4639 h -12.32792 z m 12.68378,0 h 12.40223 v 4.4639 h -12.40223 z m 12.75613,0 h 12.40418 v 4.4639 h -12.40418 z m 12.75808,0 h 12.32206 v 4.4639 h -12.32206 z m 12.83238,0 h 12.32793 v 4.4639 H 827.0009 Z m 12.68183,0 h 12.40418 v 4.4639 h -12.40418 z m 25.51616,0 h 12.29078 v 4.4639 h -12.29078 z m 12.84216,0 h 12.31815 v 4.4639 h -12.32011 z m 12.67205,0 h 12.40418 v 4.4639 H 890.7131 Z m 12.75808,0 h 12.32206 v 4.4639 h -12.32206 z m -688.83279,4.677 h 12.32792 v 3.0483 h 0.35391 v -3.0483 h 12.40222 v 3.0483 h 0.35586 v -3.0483 h 12.40222 v 3.0483 h 0.3539 v -3.0483 h 12.32402 v 3.1891 h -50.52005 z m 51.03037,0 h 12.32597 v 3.0483 h 0.35586 v -3.0483 h 12.40222 v 3.0483 h 0.3539 v -3.0483 h 12.40418 v 3.0483 h 0.35391 v -3.0483 h 12.32597 v 3.1891 h -50.52201 z m 51.03233,0 h 12.32401 v 3.0483 h 0.3539 v -3.0483 h 12.40418 v 3.0483 h 0.35391 v -3.0483 h 12.40418 v 3.0483 h 0.3539 v -3.0483 h 12.32597 v 3.1891 h -50.52005 z m 102.05683,0 h 12.32793 v 3.0483 h 0.3539 v -3.0483 h 12.40418 v 3.0483 h 0.3539 v -3.0483 h 12.40223 v 3.0483 h 0.3539 v -3.0483 h 12.32401 v 3.1891 h -50.52005 z m 51.03038,0 h 12.32792 v 3.0483 h 0.3539 v -3.0483 h 12.40223 v 3.0483 h 0.35585 v -3.0483 h 12.40223 v 3.0483 h 0.3539 v -3.0483 h 12.32401 v 3.1891 H 469.7883 Z m 102.06661,0 h 12.3201 v 3.0483 h 0.3539 0.002 v -3.0483 h 12.40222 v 3.0483 h 0.3539 v -3.0483 h 12.40418 v 3.0483 h 0.35391 v -3.0483 h 12.32401 v 3.1891 h -50.51418 z m 140.25286,0.1408 h 12.32793 v 3.0483 h -12.32793 z m 12.83239,0 h 12.32988 v 3.0483 h -12.32988 z m 12.68378,0 h 12.40222 v 3.0483 h -12.40222 z m 12.75808,0 h 12.40222 v 3.0483 h -12.40222 z m 12.75613,0 h 12.32597 v 3.0483 h -12.32597 z m 12.83238,0 h 12.32792 v 3.0483 h -12.32792 z m 12.68378,0 h 12.40223 v 3.0483 h -12.40223 z m 12.75613,0 h 12.40418 v 3.0483 h -12.40418 z m 12.75808,0 h 12.32206 v 3.0483 h -12.32206 z m 12.83238,0 h 12.32793 v 3.0483 H 827.0009 Z m 12.68183,0 h 12.40418 v 3.0483 h -12.40418 z m 25.51616,0 h 12.29078 v 3.0483 h -12.29078 z m 12.8402,0 h 12.32011 v 3.0483 h -12.32011 z m 12.67401,0 h 12.40418 v 3.0483 H 890.7131 Z m 12.75808,0 h 12.32206 v 3.0483 h -12.32206 z m -727.10508,6.1669 h 37.7737 v 1.1497 h -12.33575 v -0.4243 h -0.3539 v 0.4263 h -12.40222 v -0.4243 h -0.35586 v 0.4262 H 176.3661 Z m 38.27229,0 h 50.52005 v 1.1419 h -12.32402 v -0.4243 h -0.3539 v 0.4262 H 240.0783 v -0.4243 h -0.35586 v 0.4263 h -12.40222 v -0.4243 h -0.35391 v 0.4262 h -12.32792 z m 51.03037,0 h 50.52201 v 33.5934 h -50.52005 v -3.1891 h 12.32401 v 3.0483 h 0.35586 v -3.0483 h 12.40222 v 3.0483 h 0.3539 v -3.0483 h 12.40418 v 3.0483 h 0.35391 v -32.7428 h -0.35391 v 0.4262 h -12.40418 v -0.4243 h -0.3539 v 0.4263 h -12.40222 v -0.4243 h -0.35586 v 0.4262 h -12.32597 z m 51.03233,0 h 50.52005 v 1.1575 h -12.32597 v -0.4243 h -0.3539 v 0.4263 h -12.40418 v -0.4243 h -0.35391 v 0.4262 H 329.379 v -0.4243 h -0.3539 v 0.4263 h -12.32401 z m 51.02842,0 h 50.51809 v 1.1497 h -12.32206 v -0.4243 h -0.35586 v 0.4263 h -12.40222 v -0.4243 h -0.3539 v 0.4262 h -12.40418 v -0.4243 h -0.35391 v 0.4263 h -12.32596 z m 51.02841,0 h 50.52005 v 1.1419 h -12.32401 v -0.4243 h -0.3539 v 0.4262 h -12.40223 v -0.4243 h -0.3539 v 0.4263 h -12.40418 v -0.4243 h -0.3539 v 0.4262 h -12.32793 z m 51.03038,0 h 50.52004 l 0.002,33.5934 h -50.52005 v -3.1891 h 12.32597 v 3.0483 h 0.3539 v -3.0483 h 12.40223 v 3.0483 h 0.35585 v -3.0483 h 12.40223 v 3.0483 h 0.3539 v -32.7428 h -0.3539 v 0.4262 H 495.2282 v -0.4243 h -0.35585 v 0.4263 h -12.40223 v -0.4243 h -0.3539 v 0.4262 H 469.7883 Z m 51.03037,0 h 50.52005 v 1.1517 H 559.0147 v -0.4243 h -0.3539 v 0.4262 h -12.40418 v -0.4243 h -0.3539 v 0.4263 h -12.40223 v -0.4243 h -0.35585 v 0.4262 h -12.32597 z m 51.03428,0 h 50.51614 v 1.1438 h -12.32401 v -0.4243 h -0.35391 v 0.4263 h -12.40418 v -0.4243 h -0.3539 v 0.4262 h -12.40222 v -0.4242 h -0.002 -0.3539 v 0.4262 h -12.32206 z m 51.03037,0 h 50.51614 v 1.136 h -12.32401 v -0.4243 h -0.35586 v 0.4263 h -12.40222 v -0.4243 h -0.35391 v 0.4262 h -12.40418 v -0.4243 h -0.3539 v 0.4263 h -12.32206 z m 102.05684,0 h 50.52396 v 1.2768 h -12.32597 v -0.4263 h -0.35391 v 0.4263 h -12.40222 v -0.4263 h -0.35586 v 0.4263 h -12.40222 v -0.4263 h -0.3539 v 0.4263 h -12.32988 z m 51.03037,0 h 50.52005 v 33.5934 h -12.32206 v -32.7429 h -0.3539 v 0.4263 h -12.40418 v -0.4263 h -0.3539 v 0.4263 h -12.40223 v -0.4263 h -0.35586 v 0.4263 h -12.32792 z m 51.03037,0 h 50.48877 v 1.2768 h -12.29078 v -0.4263 h -0.3539 v 0.4263 h -12.40418 v -0.4263 h -0.3539 v 0.4263 h -12.40418 v -0.4263 h -0.3539 v 0.4263 H 827.0009 Z m 51.03819,0 h 37.75415 v 1.2768 h -12.32206 v -0.4263 h -0.3539 v 0.4263 H 890.7131 v -0.4263 h -0.3539 v 0.4263 h -12.32011 z m -701.67299,1.488 h 12.32597 v 4.4658 H 176.3661 Z m 12.68183,0 h 12.40222 v 4.4658 h -12.40222 z m 12.75612,0 h 12.33575 l -0.002,4.4658 h -12.33379 z m 12.83434,0 h 12.32792 v 4.4658 h -12.32792 z m 12.68183,0 h 12.40222 v 4.4658 h -12.40222 z m 12.75808,0 h 12.40222 v 4.4658 H 240.0783 Z m 12.75612,0 h 12.32402 v 4.4658 h -12.32402 z m 12.83434,0 h 12.32597 v 4.4658 h -12.32597 z m 12.68183,0 h 12.40222 v 4.4658 h -12.40222 z m 12.75612,0 h 12.40418 v 4.4658 h -12.40418 z m 25.59438,0 h 12.32401 v 4.4658 h -12.32401 z m 12.67791,0 h 12.40418 v 4.4658 H 329.379 Z m 12.75809,0 h 12.40418 v 4.4658 h -12.40418 z m 12.75808,0 h 12.32597 v 4.4658 h -12.32597 z m 12.83434,0 h 12.32596 v 4.4658 h -12.32596 z m 12.67987,0 h 12.40418 v 4.4658 h -12.40418 z m 12.75808,0 h 12.40222 v 4.4658 h -12.40222 z m 12.75808,0 h 12.32206 v 4.4658 h -12.32206 z m 12.83238,0 h 12.32793 v 4.4658 h -12.32793 z m 12.68183,0 h 12.40418 v 4.4658 h -12.40418 z m 12.75808,0 h 12.40223 v 4.4658 h -12.40223 z m 12.75613,0 h 12.32401 v 4.4658 h -12.32401 z m 12.83434,0 h 12.32792 v 4.4658 H 469.7883 Z m 12.68182,0 h 12.40223 v 4.4658 h -12.40223 z m 12.75808,0 h 12.40223 v 4.4658 H 495.2282 Z m 25.59047,0 h 12.32597 v 4.4658 h -12.32597 z m 12.68182,0 h 12.40223 v 4.4658 h -12.40223 z m 12.75613,0 h 12.40418 v 4.4658 h -12.40418 z m 12.75808,0 h 12.32402 v 4.4658 H 559.0147 Z m 12.83825,0 h 12.32206 v 4.4658 h -12.32206 z m 12.67792,0 h 12.40222 v 4.4658 h -12.40222 z m 12.75612,0 h 12.40418 v 4.4658 h -12.40418 z m 12.75809,0 h 12.32401 v 4.4658 h -12.32401 z m 12.83824,0 h 12.32206 v 4.4658 h -12.32206 z m 12.67596,0 h 12.40418 v 4.4658 h -12.40418 z m 12.75809,0 h 12.40222 v 4.4658 h -12.40222 z m 12.75808,0 h 12.32401 v 4.4658 h -12.32401 z m 63.86471,0.1427 h 12.32988 v 4.4639 h -12.32988 z m 12.68378,0 h 12.40222 v 4.4639 h -12.40222 z m 12.75808,0 h 12.40222 v 4.4639 h -12.40222 z m 12.75613,0 h 12.32597 v 4.4639 h -12.32597 z m 12.83238,0 h 12.32792 v 4.4639 h -12.32792 z m 12.68378,0 h 12.40223 v 4.4639 h -12.40223 z m 12.75613,0 h 12.40418 v 4.4639 h -12.40418 z m 25.59046,0 h 12.32793 v 4.4639 H 827.0009 Z m 12.68183,0 h 12.40418 v 4.4639 h -12.40418 z m 12.75808,0 h 12.40418 v 4.4639 h -12.40418 z m 12.75808,0 h 12.29078 v 4.4639 h -12.29078 z m 12.8402,0 h 12.32011 v 4.4639 h -12.32206 z m 12.67401,0 h 12.40418 v 4.4639 H 890.7131 Z m 12.75808,0 h 12.32206 v 4.4639 h -12.32206 z m -727.10508,4.677 h 12.32597 v 4.4658 H 176.3661 Z m 12.68183,0 h 12.40222 v 4.4658 h -12.40222 z m 12.75612,0 h 12.33379 l -0.002,4.4658 H 201.804 Z m 12.83434,0 h 12.32792 v 4.4658 h -12.32792 z m 12.68183,0 h 12.40222 v 4.4658 h -12.40222 z m 12.75808,0 h 12.40222 v 4.4658 H 240.0783 Z m 12.75612,0 h 12.32402 v 4.4658 h -12.32402 z m 12.83434,0 h 12.32597 v 4.4658 h -12.32597 z m 12.68183,0 h 12.40222 v 4.4658 h -12.40222 z m 12.75612,0 h 12.40418 v 4.4658 h -12.40418 z m 25.59438,0 h 12.32401 v 4.4658 h -12.32401 z m 12.67791,0 h 12.40418 v 4.4658 H 329.379 Z m 12.75809,0 h 12.40418 v 4.4658 h -12.40418 z m 12.75808,0 h 12.32597 v 4.4658 h -12.32597 z m 12.83434,0 h 12.32596 v 4.4658 h -12.32596 z m 12.67987,0 h 12.40418 v 4.4658 h -12.40418 z m 12.75808,0 h 12.40222 v 4.4658 h -12.40222 z m 12.75808,0 h 12.32206 v 4.4658 h -12.32206 z m 12.83238,0 h 12.32793 v 4.4658 h -12.32793 z m 12.68183,0 h 12.40418 v 4.4658 h -12.40418 z m 12.75808,0 h 12.40223 v 4.4658 h -12.40223 z m 12.75613,0 h 12.32401 v 4.4658 h -12.32401 z m 12.83434,0 h 12.32792 v 4.4658 H 469.7883 Z m 12.68182,0 h 12.40223 v 4.4658 h -12.40223 z m 12.75808,0 h 12.40223 v 4.4658 H 495.2282 Z m 25.59047,0 h 12.32597 v 4.4658 h -12.32597 z m 12.68182,0 h 12.40223 v 4.4658 h -12.40223 z m 12.75613,0 h 12.40418 v 4.4658 h -12.40418 z m 12.75808,0 h 12.32402 v 4.4658 H 559.0147 Z m 12.83825,0 h 12.32206 v 4.4658 h -12.32206 z m 12.67792,0 h 12.40222 v 4.4658 h -12.40222 z m 12.75612,0 h 12.40418 v 4.4658 h -12.40418 z m 12.75809,0 h 12.32401 v 4.4658 h -12.32401 z m 12.83824,0 h 12.32206 v 4.4658 h -12.32206 z m 12.67596,0 h 12.40418 v 4.4658 h -12.40418 z m 12.75809,0 h 12.40222 v 4.4658 h -12.40222 z m 12.75808,0 h 12.32401 v 4.4658 h -12.32401 z m 63.86471,0.1427 h 12.32988 v 4.4639 h -12.32988 z m 12.68378,0 h 12.40222 v 4.4639 h -12.40222 z m 12.75808,0 h 12.40222 v 4.4639 h -12.40222 z m 12.75613,0 h 12.32597 v 4.4639 h -12.32597 z m 12.83238,0 h 12.32792 v 4.4639 h -12.32792 z m 12.68378,0 h 12.40223 v 4.4639 h -12.40223 z m 12.75613,0 h 12.40418 v 4.4639 h -12.40418 z m 25.59046,0 h 12.32793 v 4.4639 H 827.0009 Z m 12.68183,0 h 12.40418 v 4.4639 h -12.40418 z m 12.75808,0 h 12.40418 v 4.4639 h -12.40418 z m 12.75808,0 h 12.29078 v 4.4639 h -12.29078 z m 12.83825,0 h 12.32206 v 4.4639 h -12.32206 z m 12.67596,0 h 12.40418 v 4.4639 H 890.7131 Z m 12.75808,0 h 12.32206 v 4.4639 h -12.32206 z m -727.10508,4.677 h 12.32597 v 4.4639 H 176.3661 Z m 12.68183,0 h 12.40222 v 4.4639 h -12.40222 z m 12.75612,0 h 12.33184 v 4.4639 h -12.33184 z m 12.83434,0 h 12.32792 v 4.4639 h -12.32792 z m 12.68183,0 h 12.40222 v 4.4639 h -12.40222 z m 12.75808,0 h 12.40222 v 4.4639 H 240.0783 Z m 12.75612,0 h 12.32402 v 4.4639 h -12.32402 z m 12.83434,0 h 12.32597 v 4.4639 h -12.32597 z m 12.68183,0 h 12.40222 v 4.4639 h -12.40222 z m 12.75612,0 h 12.40418 v 4.4639 h -12.40418 z m 25.59438,0 h 12.32401 v 4.4639 h -12.32401 z m 12.67791,0 h 12.40418 v 4.4639 H 329.379 Z m 12.75809,0 h 12.40418 v 4.4639 h -12.40418 z m 12.75808,0 h 12.32597 v 4.4639 h -12.32597 z m 12.83434,0 h 12.32596 v 4.4639 h -12.32596 z m 12.67987,0 h 12.40418 v 4.4639 h -12.40418 z m 12.75808,0 h 12.40222 v 4.4639 h -12.40222 z m 12.75808,0 h 12.32206 v 4.4639 h -12.32206 z m 12.83238,0 h 12.32793 v 4.4639 h -12.32793 z m 12.68183,0 h 12.40418 v 4.4639 h -12.40418 z m 12.75808,0 h 12.40223 v 4.4639 h -12.40223 z m 12.75613,0 h 12.32401 v 4.4639 h -12.32401 z m 12.83434,0 h 12.32792 v 4.4639 H 469.7883 Z m 12.68182,0 h 12.40223 v 4.4639 h -12.40223 z m 12.75808,0 h 12.40223 v 4.4639 H 495.2282 Z m 25.59047,0 h 12.32597 v 4.4639 h -12.32597 z m 12.68182,0 h 12.40223 v 4.4639 h -12.40223 z m 12.75613,0 h 12.40418 v 4.4639 h -12.40418 z m 12.75808,0 h 12.32402 v 4.4639 H 559.0147 Z m 12.83825,0 h 12.32206 v 4.4639 h -12.32206 z m 12.67792,0 h 12.40222 v 4.4639 h -12.40222 z m 12.75612,0 h 12.40418 v 4.4639 h -12.40418 z m 12.75809,0 h 12.32401 v 4.4639 h -12.32401 z m 12.83824,0 h 12.32206 v 4.4639 h -12.32206 z m 12.67596,0 h 12.40418 v 4.4639 h -12.40418 z m 12.75809,0 h 12.40222 v 4.4639 h -12.40222 z m 12.75808,0 h 12.32401 v 4.4639 h -12.32401 z m 63.86471,0.1408 h 12.32988 v 4.4658 h -12.32988 z m 12.68378,0 h 12.40222 v 4.4658 h -12.40222 z m 12.75808,0 h 12.40222 v 4.4658 h -12.40222 z m 12.75613,0 h 12.32597 v 4.4658 h -12.32597 z m 12.83238,0 h 12.32792 v 4.4658 h -12.32792 z m 12.68378,0 h 12.40223 v 4.4658 h -12.40223 z m 12.75613,0 h 12.40418 v 4.4658 h -12.40418 z m 25.59046,0 h 12.32793 v 4.4658 H 827.0009 Z m 12.68183,0 h 12.40418 v 4.4658 h -12.40418 z m 12.75808,0 h 12.40418 v 4.4658 h -12.40418 z m 12.75808,0 h 12.29078 v 4.4658 h -12.29078 z m 12.83825,0 h 12.32206 v 4.4658 h -12.32402 z m 12.67596,0 h 12.40418 v 4.4658 H 890.7131 Z m 12.75808,0 h 12.32206 v 4.4658 h -12.32206 z m -727.10508,4.6789 h 12.32597 v 4.4639 h -12.32402 z m 12.68183,0 h 12.40222 v 4.4639 h -12.40222 z m 12.75612,0 h 12.33184 l -0.002,4.4639 h -12.32988 z m 12.83434,0 h 12.32792 v 4.4639 h -12.32597 z m 12.68183,0 h 12.40222 v 4.4639 h -12.40222 z m 12.75808,0 h 12.40222 v 4.4639 H 240.0783 Z m 12.75612,0 h 12.32402 l 0.002,4.4639 h -12.32597 z m 12.83434,0 h 12.32597 v 4.4639 h -12.32401 z m 12.68183,0 h 12.40222 v 4.4639 h -12.40222 z m 12.75612,0 h 12.40418 v 4.4639 h -12.40418 z m 25.59438,0 h 12.32401 v 4.4639 h -12.32401 z m 12.67791,0 h 12.40418 v 4.4639 H 329.379 Z m 12.75809,0 h 12.40418 v 4.4639 h -12.40418 z m 12.75808,0 h 12.32597 l -0.002,4.4639 h -12.32401 z m 12.83434,0 h 12.32596 v 4.4639 h -12.32596 z m 12.67987,0 h 12.40418 v 4.4639 h -12.40418 z m 12.75808,0 h 12.40222 v 4.4639 h -12.40222 z m 12.75808,0 h 12.32206 l 0.002,4.4639 h -12.32401 z m 12.83238,0 h 12.32793 v 4.4639 h -12.32597 z m 12.68183,0 h 12.40418 v 4.4639 h -12.40418 z m 12.75808,0 h 12.40223 v 4.4639 h -12.40223 z m 12.75613,0 h 12.32401 l 0.002,4.4639 H 456.954 Z m 12.83434,0 h 12.32792 v 4.4639 h -12.32597 z m 12.68182,0 h 12.40223 v 4.4639 h -12.40223 z m 12.75808,0 h 12.40223 v 4.4639 H 495.2282 Z m 25.59047,0 h 12.32597 v 4.4639 h -12.32402 z m 12.68182,0 h 12.40223 v 4.4639 h -12.40223 z m 12.75613,0 h 12.40418 v 4.4639 h -12.40418 z m 12.75808,0 h 12.32402 l 0.002,4.4639 H 559.0147 Z m 12.83825,0 h 12.32206 v 4.4639 H 571.851 Z m 12.67792,0 h 12.40222 v 4.4639 h -12.40222 z m 12.75612,0 h 12.40418 v 4.4639 h -12.40418 z m 12.75809,0 h 12.32401 l 0.002,4.4639 h -12.32596 z m 12.83824,0 h 12.32206 v 4.4639 h -12.32401 z m 12.67596,0 h 12.40418 v 4.4639 h -12.40418 z m 12.75809,0 h 12.40222 v 4.4639 h -12.40222 z m 12.75808,0 h 12.32401 v 4.4639 h -12.32401 z m 63.86471,0.1408 h 12.32988 v 4.4658 h -12.32988 z m 12.68378,0 h 12.40222 v 4.4658 h -12.40222 z m 12.75808,0 h 12.40222 v 4.4658 h -12.40222 z m 12.75613,0 h 12.32597 l 0.002,4.4658 H 763.1382 Z m 12.83238,0 h 12.32792 v 4.4658 h -12.32792 z m 12.68378,0 h 12.40223 v 4.4658 h -12.40223 z m 12.75613,0 h 12.40418 v 4.4658 h -12.40418 z m 25.59046,0 h 12.32793 v 4.4658 H 827.0009 Z m 12.68183,0 h 12.40418 v 4.4658 h -12.40418 z m 12.75808,0 h 12.40418 v 4.4658 h -12.40418 z m 12.75808,0 h 12.29078 v 4.4658 h -12.29078 z m 12.83629,0 h 12.32402 v 4.4658 h -12.32402 z m 12.67792,0 h 12.40418 v 4.4658 H 890.7131 Z m 12.75808,0 h 12.32206 v 4.4658 h -12.32206 z m -727.10313,4.6789 h 12.32402 v 4.4639 h -12.32402 z m 12.67988,0 h 12.40222 v 4.4639 h -12.40222 z m 12.75612,0 h 12.32988 l -0.002,4.4639 H 201.804 Z m 12.83629,0 h 12.32597 v 4.4639 h -12.32597 z m 12.67988,0 h 12.40222 v 4.4639 h -12.40222 z m 12.75808,0 h 12.40222 v 4.4639 H 240.0783 Z m 12.75612,0 h 12.32597 v 4.4639 h -12.32597 z m 12.8363,0 h 12.32401 v 4.4639 h -12.32401 z m 12.67987,0 h 12.40222 v 4.4639 h -12.40222 z m 12.75612,0 h 12.40418 v 4.4639 h -12.40418 z m 25.59438,0 h 12.32401 v 4.4639 h -12.32401 z m 12.67791,0 h 12.40418 v 4.4639 H 329.379 Z m 12.75809,0 h 12.40418 v 4.4639 h -12.40418 z m 12.75808,0 h 12.32401 v 4.4639 h -12.32401 z m 12.83434,0 h 12.32596 v 4.4639 h -12.32596 z m 12.67987,0 h 12.40418 v 4.4639 h -12.40418 z m 12.75808,0 h 12.40222 v 4.4639 h -12.40222 z m 12.75808,0 h 12.32401 v 4.4639 h -12.32401 z m 12.83434,0 h 12.32597 v 4.4639 h -12.32597 z m 12.67987,0 h 12.40418 v 4.4639 h -12.40418 z m 12.75808,0 h 12.40223 v 4.4639 h -12.40223 z m 12.75613,0 h 12.32597 v 4.4639 h -12.32597 z m 12.83629,0 h 12.32597 v 4.4639 h -12.32597 z m 12.67987,0 h 12.40223 v 4.4639 h -12.40223 z m 12.75808,0 h 12.40223 v 4.4639 H 495.2282 Z m 25.59242,0 h 12.32402 v 4.4639 h -12.32402 z m 12.67987,0 h 12.40223 v 4.4639 h -12.40223 z m 12.75613,0 h 12.40418 v 4.4639 h -12.40418 z m 12.75808,0 h 12.32597 v 4.4639 H 559.0147 Z m 12.8363,0 h 12.32401 v 4.4639 H 571.851 Z m 12.67987,0 h 12.40222 v 4.4639 h -12.40222 z m 12.75612,0 h 12.40418 v 4.4639 h -12.40418 z m 12.75809,0 h 12.32596 v 4.4639 h -12.32596 z m 12.83629,0 h 12.32401 v 4.4639 h -12.32401 z m 12.67791,0 h 12.40418 v 4.4639 h -12.40418 z m 12.75809,0 h 12.40222 v 4.4639 h -12.40222 z m 12.75808,0 h 12.32401 v 4.4639 h -12.32401 z m 63.86471,0.1408 h 12.32988 v 4.4658 h -12.32988 z m 12.68378,0 h 12.40222 v 4.4658 h -12.40222 z m 12.75808,0 h 12.40222 v 4.4658 h -12.40222 z m 12.75613,0 h 12.32792 v 4.4658 h -12.32792 z m 12.83238,0 h 12.32792 v 4.4658 h -12.32792 z m 12.68378,0 h 12.40223 v 4.4658 h -12.40223 z m 12.75613,0 h 12.40418 v 4.4658 h -12.40418 z m 25.59046,0 h 12.32793 v 4.4658 H 827.0009 Z m 12.68183,0 h 12.40418 v 4.4658 h -12.40418 z m 12.75808,0 h 12.40418 v 4.4658 h -12.40418 z m 12.75808,0 h 12.29078 v 4.4658 h -12.29078 z m 12.83629,0 h 12.32402 v 4.4658 h -12.32597 z m 12.67792,0 h 12.40418 v 4.4658 H 890.7131 Z m 12.75808,0 h 12.32206 v 4.4658 h -12.32206 z m -727.10313,4.677 h 12.32402 v 4.4658 h -12.32402 z m 12.67988,0 h 12.40222 v 4.4658 h -12.40222 z m 12.75612,0 h 12.32793 v 4.4658 h -12.32793 z m 12.83629,0 h 12.32597 v 4.4658 h -12.32597 z m 12.67988,0 h 12.40222 v 4.4658 h -12.40222 z m 12.75808,0 h 12.40222 v 4.4658 H 240.0783 Z m 12.75612,0 h 12.32597 v 4.4658 h -12.32597 z m 12.8363,0 h 12.32401 v 4.4658 h -12.32401 z m 12.67987,0 h 12.40222 v 4.4658 h -12.40222 z m 12.75612,0 h 12.40418 v 4.4658 h -12.40418 z m 25.59438,0 h 12.32401 v 4.4658 h -12.32401 z m 12.67791,0 h 12.40418 v 4.4658 H 329.379 Z m 12.75809,0 h 12.40418 v 4.4658 h -12.40418 z m 12.75808,0 h 12.32401 v 4.4658 h -12.32401 z m 12.83434,0 h 12.32596 v 4.4658 h -12.32596 z m 12.67987,0 h 12.40418 v 4.4658 h -12.40418 z m 12.75808,0 h 12.40222 v 4.4658 h -12.40222 z m 12.75808,0 h 12.32401 v 4.4658 h -12.32401 z m 12.83434,0 h 12.32597 v 4.4658 h -12.32597 z m 12.67987,0 h 12.40418 v 4.4658 h -12.40418 z m 12.75808,0 h 12.40223 v 4.4658 h -12.40223 z m 12.75613,0 h 12.32597 v 4.4658 h -12.32597 z m 12.83629,0 h 12.32597 v 4.4658 h -12.32597 z m 12.67987,0 h 12.40223 v 4.4658 h -12.40223 z m 12.75808,0 h 12.40223 v 4.4658 H 495.2282 Z m 25.59242,0 h 12.32402 v 4.4658 h -12.32402 z m 12.67987,0 h 12.40223 v 4.4658 h -12.40223 z m 12.75613,0 h 12.40418 v 4.4658 h -12.40418 z m 12.75808,0 h 12.32597 v 4.4658 H 559.0147 Z m 12.8363,0 h 12.32401 v 4.4658 H 571.851 Z m 12.67987,0 h 12.40222 v 4.4658 h -12.40222 z m 12.75612,0 h 12.40418 v 4.4658 h -12.40418 z m 12.75809,0 h 12.32596 v 4.4658 h -12.32596 z m 12.83629,0 h 12.32401 v 4.4658 h -12.32401 z m 12.67791,0 h 12.40418 v 4.4658 h -12.40418 z m 12.75809,0 h 12.40222 v 4.4658 h -12.40222 z m 12.75808,0 h 12.32401 v 4.4658 h -12.32401 z m 63.86471,0.1427 h 12.32988 v 4.4659 h -12.32988 z m 12.68378,0 h 12.40222 v 4.4659 h -12.40222 z m 12.75808,0 h 12.40222 v 4.4659 h -12.40222 z m 12.75613,0 h 12.32792 v 4.4659 h -12.32792 z m 12.83238,0 h 12.32792 v 4.4659 h -12.32792 z m 12.68378,0 h 12.40223 v 4.4659 h -12.40223 z m 12.75613,0 h 12.40418 v 4.4659 h -12.40418 z m 25.59046,0 h 12.32793 v 4.4659 H 827.0009 Z m 12.68183,0 h 12.40418 v 4.4659 h -12.40418 z m 12.75808,0 h 12.40418 v 4.4659 h -12.40418 z m 12.75808,0 h 12.29078 v 4.4659 h -12.29078 z m 12.83434,0 h 12.32597 v 4.4659 h -12.32793 z m 12.67987,0 h 12.40418 v 4.4659 H 890.7131 Z m 12.75808,0 h 12.32206 v 4.4659 h -12.32206 z m -727.10313,4.677 h 12.32402 v 3.0483 h 0.35586 v -3.0483 h 12.40222 v 3.0483 h 0.3539 v -3.0483 h 12.32597 v 3.1891 h -37.76197 z m 38.27229,0 h 12.32597 v 3.0483 h 0.35391 v -3.0483 h 12.40222 v 3.0483 h 0.35586 v -3.0483 h 12.40222 v 3.0483 h 0.3539 v -3.0483 h 12.32597 v 3.1891 h -50.52005 z m 102.06075,0 h 12.32401 v 3.0483 h 0.3539 v -3.0483 h 12.40418 v 3.0483 h 0.35391 v -3.0483 h 12.40418 v 3.0483 h 0.3539 v -3.0483 h 12.32401 v 3.1891 h -50.51809 z m 51.02842,0 h 12.32596 v 3.0483 h 0.35391 v -3.0483 h 12.40418 v 3.0483 h 0.3539 v -3.0483 h 12.40222 v 3.0483 h 0.35586 v -3.0483 h 12.32401 v 3.1891 h -50.52004 z m 51.03037,0 h 12.32597 v 3.0483 h 0.3539 v -3.0483 h 12.40418 v 3.0483 h 0.3539 v -3.0483 h 12.40223 v 3.0483 h 0.3539 v -3.0483 h 12.32597 v 3.1891 h -50.52005 z m 102.06074,0 h 12.32402 v 3.0483 h 0.35585 v -3.0483 h 12.40223 v 3.0483 h 0.3539 v -3.0483 h 12.40418 v 3.0483 h 0.3539 v -3.0483 h 12.32597 v 3.1891 h -50.52005 z m 51.03038,0 h 12.32401 v 3.0483 h 0.3539 0.002 v -3.0483 h 12.40222 v 3.0483 h 0.3539 v -3.0483 h 12.40418 v 3.0483 h 0.35391 v -3.0483 h 12.32596 v 3.1891 H 571.851 Z m 51.03037,0 h 12.32401 v 3.0483 h 0.3539 v -3.0483 h 12.40418 v 3.0483 h 0.35391 v -3.0483 h 12.40222 v 3.0483 h 0.35586 v -3.0483 h 12.32401 v 3.1891 h -50.51809 z m 102.05879,0.1428 h 12.32988 v 3.0463 h -12.32988 z m 12.68378,0 h 12.40222 v 3.0463 h -12.40222 z m 12.75808,0 h 12.40222 v 3.0463 h -12.40222 z m 12.75613,0 h 12.32792 v 3.0463 h -12.32792 z m 12.83238,0 h 12.32792 v 3.0463 h -12.32792 z m 12.68378,0 h 12.40223 v 3.0463 h -12.40223 z m 12.75613,0 h 12.40418 v 3.0463 h -12.40418 z m 25.59046,0 h 12.32793 v 3.0463 H 827.0009 Z m 12.68183,0 h 12.40418 v 3.0463 h -12.40418 z m 12.75808,0 h 12.40418 v 3.0463 h -12.40418 z m 12.75808,0 h 12.29078 v 3.0463 h -12.29078 z m 12.83238,0 h 12.32793 v 3.0463 h -12.32793 z m 12.68183,0 h 12.40418 v 3.0463 H 890.7131 Z m 12.75808,0 h 12.32206 v 3.0463 h -12.32206 z" /><path
       id="path13649"
       d="m 678.86442,1833.3736 v 32.602 h 15.87672 v -32.602 z m 0,36.712 v 32.602 h 15.87672 v -32.602 z m -560.97629,40.9647 v 32.602 h 26.93373 v -32.602 z m 560.97629,0 v 32.602 h 15.87672 v -32.602 z m 22.39752,0 v 32.602 h 15.87477 v -32.602 z m 236.65118,0 v 32.602 h 18.70989 v -32.602 z m 30.61744,0 v 32.602 h 17.01077 v -32.602 z"
       style="fill:#ffffff;fill-opacity:0.2" /></g></svg>
