<?xml version="1.0" encoding="UTF-8" standalone="no"?>
<svg
   xml:space="preserve"
   inkscape:version="1.4 (86a8ad7, 2024-10-11)"
   sodipodi:docname="wall_vector.svg"
   id="svg3367"
   overflow="visible"
   viewBox="0 0 1003.3557 225.91679"
   height="225.66992"
   width="1002.8164"
   version="1.1"
   xmlns:inkscape="http://www.inkscape.org/namespaces/inkscape"
   xmlns:sodipodi="http://sodipodi.sourceforge.net/DTD/sodipodi-0.dtd"
   xmlns="http://www.w3.org/2000/svg"
   xmlns:svg="http://www.w3.org/2000/svg"
   xmlns:rdf="http://www.w3.org/1999/02/22-rdf-syntax-ns#"
   xmlns:cc="http://creativecommons.org/ns#"
   xmlns:dc="http://purl.org/dc/elements/1.1/"><metadata
     id="metadata8"><rdf:RDF><cc:Work
         rdf:about=""><dc:format>image/svg+xml</dc:format><dc:type
           rdf:resource="http://purl.org/dc/dcmitype/StillImage" /></cc:Work></rdf:RDF></metadata><defs
     id="defs3367" /><sodipodi:namedview
     showgrid="false"
     inkscape:document-rotation="0"
     inkscape:current-layer="svg3367"
     inkscape:window-maximized="1"
     inkscape:window-y="-11"
     inkscape:window-x="-11"
     inkscape:window-height="1346"
     inkscape:window-width="2560"
     inkscape:cy="12.838273"
     inkscape:cx="253.4642"
     inkscape:zoom="1.3631117"
     inkscape:deskcolor="#d1d1d1"
     inkscape:pagecheckerboard="0"
     inkscape:pageopacity="0.0"
     inkscape:showpageshadow="2"
     borderopacity="0.25"
     bordercolor="#000000"
     pagecolor="#ffffff"
     id="namedview3367" /><path
     id="path13649"
     d="m 580.45024,108.5494 v 32.602 h 15.87672 v -32.602 z m 0,36.712 v 32.602 h 15.87672 v -32.602 z M 19.473947,186.2261 v 32.602 h 26.93373 v -32.602 z m 560.976293,0 v 32.602 h 15.87672 v -32.602 z m 22.39752,0 v 32.602 h 15.87477 v -32.602 z m 236.65118,0 v 32.602 h 18.70989 v -32.602 z m 30.61744,0 v 32.602 h 17.01077 v -32.602 z"
     style="fill:#ffffff;fill-opacity:0.2" /><path
     id="rect2513"
     style="fill:#ffffff;fill-opacity:0.40000001;stroke:none;stroke-width:1.1351;stroke-linejoin:round;stroke-miterlimit:3.4;stroke-dashoffset:19.8539"
     d="M 766.83674 182.61166 L 766.83674 187.07552 L 779.12751 187.07552 L 779.12751 182.61166 L 766.83674 182.61166 z M 779.67694 182.61166 L 779.67694 187.07552 L 791.99705 187.07552 L 791.99705 182.61166 L 779.67694 182.61166 z M 766.83674 187.43138 L 766.83674 191.89524 L 779.12751 191.89524 L 779.12751 187.43138 L 766.83674 187.43138 z M 779.67499 187.43138 L 779.67499 191.89524 L 791.99705 191.89524 L 791.99705 187.43138 L 779.67499 187.43138 z M 792.35095 187.43138 L 792.35095 191.89524 L 804.75513 191.89524 L 804.75513 187.43138 L 792.35095 187.43138 z M 805.10903 187.43138 L 805.10903 191.89524 L 817.43109 191.89524 L 817.43109 187.43138 L 805.10903 187.43138 z M 766.83674 192.24914 L 766.83674 196.713 L 779.12751 196.713 L 779.12751 192.24914 L 766.83674 192.24914 z M 779.67499 192.24914 L 779.67499 196.71496 L 791.99705 196.71496 L 791.99705 192.24914 L 779.67499 192.24914 z M 793.14283 192.2511 L 793.14283 196.71496 L 798.75443 196.71496 L 798.75443 192.2511 L 793.14283 192.2511 z " /><rect
     style="fill:#ffffff;stroke-width:0.756733;stroke-linecap:round;stroke-linejoin:round;stroke-miterlimit:3.4;stroke-dashoffset:75.0384;fill-opacity:0.40000001"
     id="rect1"
     width="12.40426"
     height="9.2835493"
     x="243.77492"
     y="187.28867" /><path
     id="path3370-4"
     style="fill:#ffffff;stroke-width:1"
     d="M 1003.0656,0 6.5215309,80.390647 H -0.27890912 V 225.91676 H 962.38436 L 1003.6346,7.06442 Z m -6.75354,7.65487 -39.8033,211.17415 H 6.8069409 V 87.478392 L 77.485771,81.776861 v 22.661459 h -1.8282 v 3.11671 h 1.8282 v 33.59531 h -1.8301 v 3.11861 h 1.8301 v 33.5934 h -1.83401 v 3.11861 h 1.83401 v 33.59341 h -1.83601 v 3.11861 H 577.36799 v -3.11861 h -1.8302 v -33.59341 h 50.52591 v 33.59341 h -1.8281 v 3.11861 h 195.52416 v -3.11861 h -1.8282 v -33.59341 h 1.8282 v -3.11861 h -1.8282 v -33.5934 h 1.8282 v -3.11861 h -1.8282 v -33.59531 h 1.8282 v -3.11671 h -1.8282 V 70.843014 h 1.8282 V 67.72441 h -1.8282 V 22.04359 Z m -178.8811,14.42987 v 45.63967 h -37.7306 l 0.01,-42.59535 z m -38.3035,3.09127 v 42.5484 h -50.4888 V 29.24876 Z m -50.999,4.1138 v 38.4346 H 677.60833 V 33.36456 Z m -51.0344,4.1159 v 34.3187 h -50.518 V 37.48046 Z M 626.07351,37.5215 V 67.72441 H 575.5476 V 41.59826 Z m -51.03626,4.1178 V 67.72441 H 524.53096 V 45.71406 Z M 523.99908,45.757 V 67.72441 H 473.49859 V 49.82985 Z m -51.03037,4.1159 v 17.85151 h -50.522 V 53.94765 Z m -51.03036,4.1178 v 13.73371 h -50.5201 v -9.65896 z m -51.03036,4.1158 v 9.61791 h -2.2935 v 3.118604 h 2.2935 V 104.43832 H 358.58983 V 71.693643 h -0.35388 v 0.426166 h -12.40226 v -0.426166 h -0.35388 v 0.426166 h -12.40416 v -0.426166 h -0.35398 v 0.426166 H 320.38789 V 62.18125 Z m -51.02846,4.11579 v 42.21603 H 269.36734 V 66.29705 Z m -51.01084,4.1158 v 38.10023 H 218.34278 V 70.414846 Z m -51.04007,4.117801 V 104.43832 H 167.30071 V 74.530643 Z m 153.58963,0.387123 h 50.52201 v 1.276795 H 409.6222 v -0.426166 h -0.35399 v 0.426166 h -12.40215 v -0.426166 h -0.35589 v 0.426166 h -12.40225 v -0.426166 h -0.35389 v 0.426166 h -12.33578 z m 51.03236,0 h 50.52001 v 1.276795 h -12.31806 v -0.426166 h -0.35399 v 0.426166 h -12.40415 v -0.426166 h -0.35389 v 0.426166 h -12.40225 v -0.426166 h -0.35579 v 0.426166 h -12.33188 z m 51.04989,0 h 50.50058 V 104.43832 H 498.92287 V 71.693643 h -0.35388 v 0.426166 h -12.40225 v -0.426166 h -0.35389 v 0.426166 H 473.5005 Z m 51.03046,0 h 50.50629 v 33.595306 h -50.5083 z m 51.01664,0 h 50.52591 v 1.276795 h -12.34359 v -0.426166 h -0.35388 v 0.426166 H 600.97188 V 71.693643 H 600.618 v 0.426166 h -12.40225 v -0.412551 h -0.35589 V 104.43832 H 575.5476 Z m 51.03036,0 h 50.51811 v 1.276795 h -12.33578 v -0.426166 h -0.35389 v 0.426166 h -12.40415 v -0.426166 h -0.35389 v 0.426166 H 639.2442 v -0.426166 h -0.35398 v 0.426166 h -12.31226 z m 51.03037,0 h 50.52013 v 1.276795 h -12.3378 v -0.426166 h -0.3558 v 0.426166 h -12.4023 v -0.426166 h -0.3538 v 0.426166 h -12.4042 v -0.426166 h -0.354 v 0.426166 h -12.31223 z m 51.03033,0 h 50.4888 v 33.595306 h -12.3084 V 71.693643 h -0.3538 v 0.426166 h -12.4023 v -0.426166 h -0.3539 v 0.426166 h -12.4041 v -0.426166 h -0.3539 v 0.426166 h -12.3124 z m 51.0617,0 h 37.7306 v 1.276795 h -2.6864 -9.6512 v -0.426166 h -0.3558 v 0.426166 h -2.3972 -10.0051 v -0.426166 h -0.3539 v 0.426166 h -12.281 z m -459.31047,1.630682 h 12.33378 v 4.463878 h -12.33378 z m 12.68766,0 h 12.40416 v 4.463878 h -12.40416 z m 12.75815,0 h 12.40215 v 4.463878 H 345.8357 Z m 25.58255,0 h 12.33578 v 4.463878 h -12.33578 z m 12.68967,0 h 12.40225 v 4.463878 h -12.40225 z m 12.75814,0 h 12.40215 v 4.463878 h -12.40215 z m 12.75614,0 h 12.31806 v 4.463878 H 409.6222 Z m 12.82841,0 h 12.33188 v 4.463878 h -12.33188 z m 12.68767,0 h 12.40225 v 4.463878 h -12.40225 z m 12.75614,0 h 12.40415 v 4.463878 h -12.40415 z m 12.75814,0 h 12.31806 v 4.463878 h -12.31806 z m 12.84794,0 h 12.31235 v 4.463878 H 473.5005 Z m 12.66814,0 h 12.40225 v 4.463878 h -12.40225 z m 102.04711,0 H 600.618 v 4.463878 h -12.40225 z m 12.75613,0 h 12.40416 v 4.463878 h -12.40416 z m 12.75804,0 h 12.34359 v 4.463878 h -12.34359 z m 12.84804,0 h 12.31226 v 4.463878 h -12.31226 z m 12.66624,0 h 12.40416 v 4.463878 H 639.2442 Z m 12.75805,0 h 12.40415 v 4.463878 h -12.40415 z m 12.75804,0 h 12.33578 v 4.463878 h -12.33578 z m 12.84804,0 h 12.31223 v 4.463878 h -12.31223 z m 12.66623,0 h 12.4042 v 4.463878 h -12.4042 z m 12.758,0 h 12.4023 v 4.463878 h -12.4023 z m 12.7581,0 h 12.3378 v 4.463878 h -12.3378 z m 12.848,0 h 12.3124 v 4.463878 h -12.3124 z m 12.6663,0 h 12.4041 v 4.463878 h -12.4041 z m 12.758,0 h 12.4023 v 4.463878 h -12.4023 z m 25.6374,0 h 12.281 v 4.463878 h -12.283 z m 12.6349,0 h 10.0051 2.3972 v 4.463878 h -12.4023 z m 12.7581,0 h 9.6512 2.6864 v 4.463878 h -12.3376 z m -638.30491,2.098092 v 29.866532 h -50.5201 V 78.648443 Z m 153.60144,2.721674 h 12.33378 v 4.463878 h -12.33378 z m 12.68766,0 h 12.40416 v 4.463878 h -12.40416 z m 12.75815,0 h 12.40215 V 81.75734 H 345.8357 Z m 25.58255,0 h 12.33578 v 4.463878 h -12.33578 z m 12.68967,0 h 12.40225 v 4.463878 h -12.40225 z m 12.75814,0 h 12.40215 v 4.463878 h -12.40215 z m 12.75614,0 h 12.31806 V 81.75734 H 409.6222 Z m 12.82841,0 h 12.33188 v 4.463878 h -12.33188 z m 12.68767,0 h 12.40225 v 4.463878 h -12.40225 z m 12.75614,0 h 12.40415 v 4.463878 h -12.40415 z m 12.75814,0 h 12.31806 v 4.463878 h -12.31806 z m 12.84794,0 h 12.31235 V 81.75734 H 473.5005 Z m 12.66814,0 h 12.40225 v 4.463878 h -12.40225 z m 102.04711,0 H 600.618 v 4.463878 h -12.40225 z m 12.75613,0 h 12.40416 v 4.463878 h -12.40416 z m 12.75804,0 h 12.34359 v 4.463878 h -12.34359 z m 12.84804,0 h 12.31226 v 4.463878 h -12.31226 z m 12.66624,0 h 12.40416 V 81.75734 H 639.2442 Z m 12.75805,0 h 12.40415 v 4.463878 h -12.40415 z m 12.75804,0 h 12.33578 v 4.463878 h -12.33578 z m 12.84804,0 h 12.31223 v 4.463878 h -12.31223 z m 12.66623,0 h 12.4042 v 4.463878 h -12.4042 z m 12.758,0 h 12.4023 v 4.463878 h -12.4023 z m 12.7581,0 h 12.3378 v 4.463878 h -12.3378 z m 12.848,0 h 12.3124 v 4.463878 h -12.3124 z m 12.6663,0 h 12.4041 v 4.463878 h -12.4041 z m 12.758,0 h 12.4023 v 4.463878 h -12.4023 z m 25.6354,0 h 12.283 v 4.463878 h -12.283 z m 12.6369,0 h 12.4023 v 4.463878 h -12.4023 z m 12.7581,0 h 12.3376 v 4.463878 h -12.3376 z m -689.01462,1.370598 -0.2698,0.02403 -0.01,25.75074 H 77.995941 V 81.736321 Z m 204.31115,3.449169 h 12.33378 v 4.463778 h -12.33188 z m 12.68766,0 h 12.40416 v 4.463778 h -12.40416 z m 12.75815,0 h 12.40215 v 4.463778 H 345.8357 Z m 25.58255,0 h 12.33578 v 4.463778 h -12.33578 z m 12.68967,0 h 12.40225 v 4.463778 h -12.40225 z m 12.75814,0 h 12.40215 v 4.463778 h -12.40215 z m 12.75614,0 h 12.31806 v 4.463778 H 409.6222 Z m 12.82841,0 h 12.33188 v 4.463778 h -12.33188 z m 12.68767,0 h 12.40225 v 4.463778 h -12.40225 z m 12.75614,0 h 12.40415 v 4.463778 h -12.40415 z m 12.75814,0 h 12.31806 v 4.463778 h -12.31806 z m 12.84794,0 h 12.31235 v 4.463778 H 473.5005 Z m 12.66814,0 h 12.40225 v 4.463778 h -12.40225 z m 102.04711,0 H 600.618 v 4.463778 h -12.40225 z m 12.75613,0 h 12.40416 v 4.463778 h -12.40416 z m 12.75804,0 h 12.34359 v 4.463778 h -12.34359 z m 12.84804,0 h 12.31226 v 4.463778 h -12.31226 z m 12.66624,0 h 12.40416 v 4.463778 H 639.2442 Z m 12.75805,0 h 12.40415 v 4.463778 h -12.40415 z m 12.75804,0 h 12.33578 v 4.463778 h -12.33578 z m 12.84804,0 h 12.31223 v 4.463778 h -12.31223 z m 12.66623,0 h 12.4042 v 4.463778 h -12.4042 z m 12.758,0 h 12.4023 v 4.463778 h -12.4023 z m 12.7581,0 h 12.3378 v 4.463778 h -12.3378 z m 12.848,0 h 12.3124 v 4.463778 h -12.3124 z m 12.6663,0 h 12.4041 v 4.463778 h -12.4041 z m 12.758,0 h 12.4023 v 4.463778 h -12.4023 z m 25.6354,0 h 12.283 v 4.463778 h -12.2849 z m 12.6369,0 h 12.4023 v 4.463778 h -12.4023 z m 12.7581,0 h 12.3376 v 4.463778 h -12.3376 z m -484.70157,4.817764 h 12.33188 v 4.46578 h -12.33188 z m 12.68576,0 h 12.40416 v 4.46578 h -12.40416 z m 12.75815,0 h 12.40215 v 4.46578 H 345.8357 Z m 25.58255,0 h 12.33578 v 4.46578 h -12.33378 z m 12.68967,0 h 12.40225 v 4.46578 h -12.40225 z m 12.75814,0 h 12.40215 v 4.46578 h -12.40215 z m 12.75614,0 h 12.31806 v 4.46578 h -12.32007 z m 12.82841,0 h 12.33188 v 4.46578 h -12.32987 z m 12.68767,0 h 12.40225 v 4.46578 h -12.40225 z m 12.75614,0 h 12.40415 v 4.46578 h -12.40415 z m 12.75814,0 h 12.31806 v 4.46578 h -12.32007 z m 12.84794,0 h 12.31235 v 4.46578 h -12.31426 z m 12.66814,0 h 12.40225 v 4.46578 h -12.40225 z m 102.04711,0 H 600.618 v 4.46578 h -12.40225 z m 12.75613,0 h 12.40416 v 4.46578 h -12.40416 z m 12.75804,0 h 12.34359 v 4.46578 h -12.34359 z m 12.84804,0 h 12.31226 v 4.46578 h -12.31226 z m 12.66624,0 h 12.40416 v 4.46578 H 639.2442 Z m 12.75805,0 h 12.40415 v 4.46578 h -12.40415 z m 12.75804,0 h 12.33578 v 4.46578 h -12.33769 z m 12.84804,0 h 12.31223 v 4.46578 h -12.31223 z m 12.66623,0 h 12.4042 v 4.46578 h -12.4042 z m 12.758,0 h 12.4023 v 4.46578 h -12.4023 z m 12.7581,0 h 12.3378 v 4.46578 h -12.3378 z m 12.848,0 h 12.3124 v 4.46578 h -12.3124 z m 12.6663,0 h 12.4041 v 4.46578 h -12.4041 z m 12.758,0 h 12.4023 v 4.46578 h -12.4023 z m 25.6335,0 h 12.2849 v 4.46578 h -12.2849 z m 12.6388,0 h 12.4023 v 4.46578 h -12.4023 z m 12.7581,0 h 12.3376 v 4.46578 h -12.3376 z M 320.39179,91.75066 h 12.33188 v 4.46578 h -12.33188 z m 12.68576,0 h 12.40416 v 4.46578 h -12.40416 z m 12.75815,0 h 12.40215 v 4.46578 H 345.8357 Z m 25.58455,0 h 12.33378 v 4.46578 h -12.33378 z m 12.68767,0 h 12.40225 v 4.46578 h -12.40225 z m 12.75814,0 h 12.40215 v 4.46578 h -12.40215 z m 12.75614,0 h 12.32006 v 4.46578 H 409.6222 Z m 12.83042,0 h 12.32987 v 4.46578 h -12.32987 z m 12.68566,0 h 12.40225 v 4.46578 h -12.40225 z m 12.75614,0 h 12.40415 v 4.46578 h -12.40415 z m 12.75814,0 h 12.32006 v 4.46578 h -12.32006 z m 12.84603,0 h 12.31426 v 4.46578 h -12.31426 z m 12.67005,0 h 12.40225 v 4.46578 h -12.40225 z m 102.04711,0 H 600.618 v 4.46578 h -12.40225 z m 12.75613,0 h 12.40416 v 4.46578 h -12.40416 z m 12.75804,0 h 12.34359 v 4.46578 h -12.34359 z m 12.84804,0 h 12.31226 v 4.46578 h -12.31226 z m 12.66624,0 h 12.40416 v 4.46578 H 639.2442 Z m 12.75805,0 h 12.40415 v 4.46578 h -12.40415 z m 12.75804,0 h 12.33778 v 4.46578 h -12.33778 z m 12.84804,0 h 12.31223 v 4.46578 h -12.31223 z m 12.66623,0 h 12.4042 v 4.46578 h -12.4042 z m 12.758,0 h 12.4023 v 4.46578 h -12.4023 z m 12.7581,0 h 12.3378 v 4.46578 h -12.3378 z m 12.848,0 h 12.3124 v 4.46578 h -12.3124 z m 12.6663,0 h 12.4041 v 4.46578 h -12.4041 z m 12.758,0 h 12.4023 v 4.46578 h -12.4023 z m 25.6335,0 h 12.2849 v 4.46578 h -12.2869 z m 12.6388,0 h 12.4023 v 4.46578 h -12.4023 z m 12.7581,0 h 12.3376 v 4.46578 h -12.3376 z m -484.70157,4.819766 h 12.33188 v 4.465784 h -12.33188 z m 12.68576,0 h 12.40416 v 4.465784 h -12.40416 z m 12.75815,0 h 12.40215 v 4.465784 H 345.8357 Z m 25.58455,0 h 12.33378 v 4.465784 h -12.33378 z m 12.68767,0 h 12.40225 v 4.465784 h -12.40225 z m 12.75814,0 h 12.40215 v 4.465784 h -12.40215 z m 12.75614,0 h 12.32006 v 4.465784 H 409.6222 Z m 12.83042,0 h 12.32987 v 4.465784 h -12.32987 z m 12.68566,0 h 12.40225 v 4.465784 h -12.40225 z m 12.75614,0 h 12.40415 v 4.465784 h -12.40415 z m 12.75814,0 h 12.32006 v 4.465784 h -12.32006 z m 12.84603,0 h 12.31426 v 4.465784 h -12.31426 z m 12.67005,0 h 12.40225 v 4.465784 h -12.40225 z m 102.04711,0 H 600.618 v 4.465784 h -12.40225 z m 12.75613,0 h 12.40416 v 4.465784 h -12.40416 z m 12.75804,0 h 12.34359 v 4.465784 h -12.34359 z m 12.84804,0 h 12.31226 v 4.465784 h -12.31226 z m 12.66624,0 h 12.40416 v 4.465784 H 639.2442 Z m 12.75805,0 h 12.40415 v 4.465784 h -12.40415 z m 12.75804,0 h 12.33778 v 4.465784 h -12.33778 z m 12.84804,0 h 12.31223 v 4.465784 h -12.31223 z m 12.66623,0 h 12.4042 v 4.465784 h -12.4042 z m 12.758,0 h 12.4023 v 4.465784 h -12.4023 z m 12.7581,0 h 12.3378 v 4.465784 h -12.3378 z m 12.848,0 h 12.3124 v 4.465784 h -12.3124 z m 12.6663,0 h 12.4041 v 4.465784 h -12.4041 z m 12.758,0 h 12.4023 v 4.465784 h -12.4023 z m 25.6315,0 h 12.2869 v 4.465784 h -12.2888 z m 12.6408,0 h 12.4023 v 4.465784 h -12.4023 z m 12.7581,0 h 12.3376 v 4.465784 h -12.3376 z m -484.70157,4.819664 h 12.33188 v 3.04823 h -12.33188 z m 12.68576,0 h 12.40416 v 3.04823 h -12.40416 z m 12.75815,0 h 12.40215 v 3.04823 H 345.8357 Z m 25.58455,0 h 12.33378 v 3.04823 h -12.33378 z m 12.68767,0 h 12.40225 v 3.04823 h -12.40225 z m 12.75814,0 h 12.40215 v 3.04823 h -12.40215 z m 12.75614,0 h 12.32006 v 3.04823 H 409.6222 Z m 12.83042,0 h 12.32987 v 3.04823 h -12.32987 z m 12.68566,0 h 12.40225 v 3.04823 h -12.40225 z m 12.75614,0 h 12.40415 v 3.04823 h -12.40415 z m 12.75814,0 h 12.32006 v 3.04823 h -12.32006 z m 12.84603,0 h 12.31426 v 3.04823 h -12.31426 z m 12.67005,0 h 12.40225 v 3.04823 h -12.40225 z m 102.04711,0 H 600.618 v 3.04823 h -12.40225 z m 12.75613,0 h 12.40416 v 3.04823 h -12.40416 z m 12.75804,0 h 12.34359 v 3.04823 h -12.34359 z m 12.84804,0 h 12.31226 v 3.04823 h -12.31226 z m 12.66624,0 h 12.40416 v 3.04823 H 639.2442 Z m 12.75805,0 h 12.40415 v 3.04823 h -12.40415 z m 12.75804,0 h 12.33778 v 3.04823 h -12.33778 z m 12.84804,0 h 12.31223 v 3.04823 h -12.31223 z m 12.66623,0 h 12.4042 v 3.04823 h -12.4042 z m 12.758,0 h 12.4023 v 3.04823 h -12.4023 z m 12.7581,0 h 12.3378 v 3.04823 h -12.3378 z m 12.848,0 h 12.3124 v 3.04823 h -12.3124 z m 12.6663,0 h 12.4041 v 3.04823 h -12.4041 z m 12.758,0 h 12.4023 v 3.04823 h -12.4023 z m 25.6296,0 h 12.2888 v 3.04823 h -12.2888 z m 12.6427,0 h 12.4023 v 3.04823 h -12.4023 z m 12.7581,0 h 12.3376 v 3.04823 h -12.3376 z m -727.095329,6.16494 h 37.803009 v 1.13404 h -12.35921 v -0.42426 h -0.35389 v 0.42426 H 90.685691 v -0.42426 h -0.35579 v 0.42426 h -12.33187 z m 38.272319,0 h 50.52 v 1.13404 h -12.31816 v -0.42426 h -0.35388 v 0.42426 h -12.40216 v -0.42426 h -0.35589 v 0.42426 h -12.40225 v -0.42426 h -0.35388 v 0.42426 h -12.33378 z m 51.03036,0 h 50.52791 v 1.13404 h -12.32597 v -0.42426 h -0.35398 v 32.74277 h 0.35398 v -3.04622 h 12.32597 v 3.18898 h -50.52591 v -3.18898 h 12.32987 v 3.04622 h 0.35579 v -3.04622 h 12.40226 v 3.04622 h 0.35388 v -32.74277 h -0.35388 v 0.42426 h -12.40226 v -0.42426 h -0.35579 v 0.42426 h -12.33187 z m 51.03817,0 h 50.52591 v 1.13404 h -12.33178 v -0.42426 h -0.35388 v 0.42426 h -12.40426 v -0.42426 h -0.35388 v 0.42426 h -12.40416 v -0.42426 h -0.35388 v 0.42426 h -12.32407 z m 51.03036,0 h 50.5123 v 1.13404 h -12.31816 v -0.42426 h -0.35589 v 0.42426 h -12.40226 v -0.42426 h -0.35388 v 0.42426 h -12.40416 v -0.42426 h -0.35388 v 0.42426 h -12.32407 z m 51.02255,0 h 50.52011 v 1.13404 h -12.32017 v -0.42426 h -0.35388 v 0.42426 H 345.8357 v -0.42426 h -0.35399 v 0.42426 h -12.40416 v -0.42426 h -0.35388 v 0.42426 h -12.33188 z m 51.03036,0 h 50.52011 v 1.13404 H 409.6222 v -0.42426 h -0.35399 v 0.42426 h -12.40215 v -0.42426 h -0.35589 v 32.74277 h 0.35589 v -3.04622 h 12.40215 v 3.04622 h 0.35399 v -3.04622 h 12.32196 v 3.18898 h -50.52 v -3.18898 h 12.32987 v 3.04622 h 0.35389 v -32.74277 h -0.35389 v 0.42426 h -12.33188 z m 51.03047,0 h 50.52 v 1.13404 h -12.32006 v -0.42426 h -0.35399 v 0.42426 h -12.40415 v -0.42426 h -0.35389 v 0.42426 h -12.40225 v -0.42426 h -0.35579 v 0.42426 h -12.32987 z m 51.04597,0 h 50.50439 v 1.13404 h -12.32006 v -0.42426 h -0.35389 v 0.42426 h -12.40425 v -0.42426 h -0.35389 v 0.42426 h -12.40225 v -0.42426 h -0.35389 v 0.42426 H 473.5005 Z m 51.02846,0 h 50.5102 v 33.59531 h -50.5122 z m 51.02055,0 h 50.52591 v 1.2768 h -12.32797 v -0.42627 h -0.35388 v 0.42627 H 600.9895 v -0.42627 h -0.35398 v 32.74478 H 575.5476 Z m 51.03036,0 h 50.52011 v 1.2768 H 664.776 v -0.42627 h -0.35398 v 0.42627 h -12.40216 v -0.42627 h -0.35588 v 0.42627 h -12.40226 v -0.42627 h -0.35388 v 0.42627 h -12.32988 z m 51.03037,0 h 50.52013 v 1.2768 h -12.3221 v -0.42627 h -0.3539 v 0.42627 h -12.4042 v -0.42627 h -0.3539 v 0.42627 h -12.4023 v -0.42627 h -0.3558 v 0.42627 h -12.32793 z m 51.03033,0 h 50.4888 v 1.2768 h -12.2907 v -0.42627 h -0.3539 v 0.42627 h -12.4043 v -0.42627 h -0.3539 v 0.42627 h -12.4041 v -0.42627 h -0.3539 v 32.74478 h -12.328 z m 51.0539,0 h 37.7384 v 1.2768 h -12.3219 v -0.42627 h -0.354 v 0.42627 h -12.4042 v -0.42627 h -0.3538 v 0.42627 h -12.3045 z m -701.694529,1.48993 h 12.33187 v 4.46388 h -12.33187 z m 12.68766,0 h 12.402249 v 4.46388 H 90.685691 Z m 12.756139,0 h 12.35921 v 4.46388 h -12.35721 z m 12.82852,0 h 12.33378 v 4.46388 h -12.33378 z m 12.68766,0 h 12.40225 v 4.46388 h -12.40225 z m 12.75814,0 h 12.40216 v 4.46388 h -12.40216 z m 12.75604,0 h 12.31816 v 4.46388 h -12.31816 z m 12.82852,0 h 12.33187 v 4.46388 h -12.33187 z m 12.68766,0 h 12.40226 v 4.46388 h -12.40226 z m 25.51428,0 h 12.32597 v 4.46388 h -12.32597 z m 12.83623,0 h 12.32407 v 4.46388 h -12.32407 z m 12.67795,0 h 12.40416 v 4.46388 h -12.40416 z m 12.75804,0 h 12.40426 v 4.46388 h -12.40426 z m 12.75814,0 h 12.33178 v 4.46388 h -12.33178 z m 12.83623,0 h 12.32407 v 4.46388 h -12.32407 z m 12.67795,0 h 12.40416 v 4.46388 h -12.40416 z m 12.75804,0 h 12.40226 v 4.46388 h -12.40226 z m 12.75815,0 h 12.31816 v 4.46388 h -12.31816 z m 12.82841,0 h 12.33188 v 4.46388 h -12.33188 z m 12.68576,0 h 12.40416 v 4.46388 h -12.40416 z m 12.75815,0 h 12.40215 v 4.46388 H 345.8357 Z m 12.75603,0 h 12.32017 v 4.46388 h -12.32017 z m 12.83042,0 h 12.33188 v 4.46388 h -12.33188 z m 25.44391,0 h 12.40215 v 4.46388 h -12.40215 z m 12.75614,0 h 12.32006 v 4.46388 H 409.6222 Z m 12.83042,0 h 12.32987 v 4.46388 h -12.32987 z m 12.68566,0 h 12.40225 v 4.46388 h -12.40225 z m 12.75614,0 h 12.40415 v 4.46388 h -12.40415 z m 12.75814,0 h 12.32006 v 4.46388 h -12.32006 z m 12.84603,0 h 12.31426 v 4.46388 h -12.31426 z m 12.67005,0 h 12.40225 v 4.46388 h -12.40225 z m 12.75614,0 h 12.40425 v 4.46388 h -12.40425 z m 12.75814,0 h 12.32006 v 4.46388 h -12.32006 z m 89.30658,0.14075 h 12.40216 v 4.46588 H 600.9895 Z m 12.75604,0 h 12.32797 v 4.46588 h -12.32797 z m 12.83242,0 h 12.32988 v 4.46588 h -12.32988 z m 12.68376,0 h 12.40226 v 4.46588 h -12.40226 z m 12.75814,0 h 12.40216 v 4.46588 h -12.40216 z m 12.75614,0 h 12.32207 v 4.46588 H 664.776 Z m 12.83233,0 h 12.32793 v 4.46588 h -12.32793 z m 12.68373,0 h 12.4023 v 4.46588 h -12.4023 z m 12.7562,0 h 12.4042 v 4.46588 h -12.4042 z m 12.7581,0 h 12.3221 v 4.46588 h -12.3221 z m 25.5142,0 h 12.4041 v 4.46588 h -12.4041 z m 12.758,0 h 12.4043 v 4.46588 h -12.4043 z m 12.7582,0 h 12.2907 v 4.46588 h -12.2907 z m 12.8558,0 h 12.3045 v 4.46588 h -12.3065 z m 12.6583,0 h 12.4042 v 4.46588 h -12.4042 z m 12.7582,0 h 12.3219 v 4.46588 h -12.3219 z m -727.111029,4.67901 h 12.33187 v 4.46378 h -12.33187 z m 12.68766,0 h 12.402249 v 4.46378 H 90.685691 Z m 12.756139,0 h 12.3573 v 4.46378 h -12.3553 z m 12.82852,0 h 12.33378 v 4.46378 h -12.33378 z m 12.68766,0 h 12.40225 v 4.46378 h -12.40225 z m 12.75814,0 h 12.40216 v 4.46378 h -12.40216 z m 12.75604,0 h 12.31816 v 4.46378 h -12.31816 z m 12.82852,0 h 12.33187 v 4.46378 h -12.33187 z m 12.68766,0 h 12.40226 v 4.46378 h -12.40226 z m 25.51428,0 h 12.32597 v 4.46378 h -12.32597 z m 12.83623,0 h 12.32407 v 4.46378 h -12.32407 z m 12.67795,0 h 12.40416 v 4.46378 h -12.40416 z m 12.75804,0 h 12.40426 v 4.46378 h -12.40426 z m 12.75814,0 h 12.33178 v 4.46378 h -12.33178 z m 12.83623,0 h 12.32407 v 4.46378 h -12.32407 z m 12.67795,0 h 12.40416 v 4.46378 h -12.40416 z m 12.75804,0 h 12.40226 v 4.46378 h -12.40226 z m 12.75815,0 h 12.31816 v 4.46378 h -12.31816 z m 12.82841,0 h 12.33188 v 4.46378 h -12.33188 z m 12.68576,0 h 12.40416 v 4.46378 h -12.40416 z m 12.75815,0 h 12.40215 v 4.46378 H 345.8357 Z m 12.75603,0 h 12.32017 v 4.46378 h -12.32017 z m 12.83042,0 h 12.33188 v 4.46378 h -12.33188 z m 25.44391,0 h 12.40215 v 4.46378 h -12.40215 z m 12.75614,0 h 12.32006 v 4.46378 H 409.6222 Z m 12.83042,0 h 12.32987 v 4.46378 h -12.32987 z m 12.68566,0 h 12.40225 v 4.46378 h -12.40225 z m 12.75614,0 h 12.40415 v 4.46378 h -12.40415 z m 12.75814,0 h 12.32006 v 4.46378 h -12.32006 z m 12.84603,0 h 12.31426 v 4.46378 h -12.31626 z m 12.67005,0 h 12.40225 v 4.46378 h -12.40225 z m 12.75614,0 h 12.40425 v 4.46378 h -12.40425 z m 12.75814,0 h 12.32006 v 4.46378 h -12.32006 z m 89.30658,0.14076 h 12.40216 v 4.46578 H 600.9895 Z m 12.75604,0 h 12.32797 v 4.46578 h -12.32797 z m 12.83242,0 h 12.32988 v 4.46578 h -12.32988 z m 12.68376,0 h 12.40226 v 4.46578 h -12.40226 z m 12.75814,0 h 12.40216 v 4.46578 h -12.40216 z m 12.75614,0 h 12.32207 v 4.46578 H 664.776 Z m 12.83233,0 h 12.32793 v 4.46578 h -12.32793 z m 12.68373,0 h 12.4023 v 4.46578 h -12.4023 z m 12.7562,0 h 12.4042 v 4.46578 h -12.4042 z m 12.7581,0 h 12.3221 v 4.46578 h -12.3221 z m 25.5142,0 h 12.4041 v 4.46578 h -12.4041 z m 12.758,0 h 12.4043 v 4.46578 h -12.4043 z m 12.7582,0 h 12.2907 v 4.46578 h -12.2907 z m 12.8538,0 h 12.3065 v 4.46578 h -12.3065 z m 12.6603,0 h 12.4042 v 4.46578 h -12.4042 z m 12.7582,0 h 12.3219 v 4.46578 h -12.3219 z m -727.111029,4.67701 h 12.33187 v 4.46578 h -12.33187 z m 12.68766,0 h 12.402249 v 4.46578 H 90.685691 Z m 12.756139,0 h 12.3553 v 4.46578 h -12.3533 z m 12.82852,0 h 12.33378 v 4.46578 h -12.33378 z m 12.68766,0 h 12.40225 v 4.46578 h -12.40225 z m 12.75814,0 h 12.40216 v 4.46578 h -12.40216 z m 12.75604,0 h 12.31816 v 4.46578 h -12.31816 z m 12.82852,0 h 12.33187 v 4.46578 h -12.33187 z m 12.68766,0 h 12.40226 v 4.46578 h -12.40226 z m 25.51428,0 h 12.32597 v 4.46578 h -12.32597 z m 12.83623,0 h 12.32407 v 4.46578 h -12.32407 z m 12.67795,0 h 12.40416 v 4.46578 h -12.40416 z m 12.75804,0 h 12.40426 v 4.46578 h -12.40426 z m 12.75814,0 h 12.33178 v 4.46578 h -12.33178 z m 12.83623,0 h 12.32407 v 4.46578 h -12.32407 z m 12.67795,0 h 12.40416 v 4.46578 h -12.40416 z m 12.75804,0 h 12.40226 v 4.46578 h -12.40226 z m 12.75815,0 h 12.31816 v 4.46578 h -12.31816 z m 12.82841,0 h 12.33188 v 4.46578 h -12.33188 z m 12.68576,0 h 12.40416 v 4.46578 h -12.40416 z m 12.75815,0 h 12.40215 v 4.46578 H 345.8357 Z m 12.75603,0 h 12.32017 v 4.46578 h -12.32017 z m 12.83042,0 h 12.33188 v 4.46578 h -12.33188 z m 25.44391,0 h 12.40215 v 4.46578 h -12.40215 z m 12.75614,0 h 12.32006 v 4.46578 H 409.6222 Z m 12.83042,0 h 12.32987 v 4.46578 h -12.32987 z m 12.68566,0 h 12.40225 v 4.46578 h -12.40225 z m 12.75614,0 h 12.40415 v 4.46578 h -12.40415 z m 12.75814,0 h 12.32006 v 4.46578 h -12.32006 z m 12.84403,0 h 12.31626 v 4.46578 h -12.31626 z m 12.67205,0 h 12.40225 v 4.46578 h -12.40225 z m 12.75614,0 h 12.40425 v 4.46578 h -12.40425 z m 12.75814,0 h 12.32006 v 4.46578 h -12.32006 z m 89.30658,0.14265 h 12.40216 v 4.46388 H 600.9895 Z m 12.75604,0 h 12.32797 v 4.46388 h -12.32797 z m 12.83242,0 h 12.32988 v 4.46388 h -12.32988 z m 12.68376,0 h 12.40226 v 4.46388 h -12.40226 z m 12.75814,0 h 12.40216 v 4.46388 h -12.40216 z m 12.75614,0 h 12.32207 v 4.46388 H 664.776 Z m 12.83233,0 h 12.32793 v 4.46388 h -12.32793 z m 12.68373,0 h 12.4023 v 4.46388 h -12.4023 z m 12.7562,0 h 12.4042 v 4.46388 h -12.4042 z m 12.7581,0 h 12.3221 v 4.46388 h -12.3221 z m 25.5142,0 h 12.4041 v 4.46388 h -12.4041 z m 12.758,0 h 12.4043 v 4.46388 h -12.4043 z m 12.7582,0 h 12.2907 v 4.46388 h -12.2907 z m 12.8538,0 h 12.3065 v 4.46388 h -12.3084 z m 12.6603,0 h 12.4042 v 4.46388 h -12.4042 z m 12.7582,0 h 12.3219 v 4.46388 h -12.3219 z m -727.111029,4.67702 h 12.33187 v 4.46578 h -12.32987 z m 12.68766,0 h 12.402249 v 4.46578 H 90.685691 Z m 12.756139,0 h 12.3534 v 4.46578 h -12.3514 z m 12.82852,0 h 12.33378 v 4.46578 h -12.33188 z m 12.68766,0 h 12.40225 v 4.46578 h -12.40225 z m 12.75814,0 h 12.40216 v 4.46578 h -12.40216 z m 12.75604,0 h 12.31816 v 4.46578 h -12.32006 z m 12.82852,0 h 12.33187 v 4.46578 h -12.32987 z m 12.68766,0 h 12.40226 v 4.46578 h -12.40226 z m 25.51428,0 h 12.32597 v 4.46578 h -12.32597 z m 12.83623,0 h 12.32407 v 4.46578 h -12.32407 z m 12.67795,0 h 12.40416 v 4.46578 h -12.40416 z m 12.75804,0 h 12.40426 v 4.46578 h -12.40426 z m 12.75814,0 h 12.33178 v 4.46578 h -12.32987 z m 12.83623,0 h 12.32407 v 4.46578 h -12.32597 z m 12.67795,0 h 12.40416 v 4.46578 h -12.40416 z m 12.75804,0 h 12.40226 v 4.46578 h -12.40226 z m 12.75815,0 h 12.31816 v 4.46578 h -12.32017 z m 12.82841,0 h 12.33188 v 4.46578 H 320.3938 Z m 12.68576,0 h 12.40416 v 4.46578 h -12.40416 z m 12.75815,0 h 12.40215 v 4.46578 H 345.8357 Z m 12.75603,0 h 12.32017 v 4.46578 h -12.32207 z m 12.83042,0 h 12.33188 v 4.46578 h -12.32987 z m 25.44391,0 h 12.40215 v 4.46578 h -12.40215 z m 12.75614,0 h 12.32006 v 4.46578 h -12.32207 z m 12.83042,0 h 12.32987 v 4.46578 h -12.32797 z m 12.68566,0 h 12.40225 v 4.46578 h -12.40225 z m 12.75614,0 h 12.40415 v 4.46578 h -12.40415 z m 12.75814,0 h 12.32006 v 4.46578 h -12.32207 z m 12.84403,0 h 12.31626 v 4.46578 h -12.31626 z m 12.67205,0 h 12.40225 v 4.46578 h -12.40225 z m 12.75614,0 h 12.40425 v 4.46578 h -12.40425 z m 12.75814,0 h 12.32006 v 4.46578 h -12.32206 z m 89.30658,0.14275 h 12.40216 v 4.46388 H 600.9895 Z m 12.75604,0 h 12.32797 v 4.46388 h -12.32797 z m 12.83242,0 h 12.32988 v 4.46388 h -12.32988 z m 12.68376,0 h 12.40226 v 4.46388 h -12.40226 z m 12.75814,0 h 12.40216 v 4.46388 h -12.40216 z m 12.75614,0 h 12.32207 v 4.46388 H 664.774 Z m 12.83233,0 h 12.32793 v 4.46388 h -12.32793 z m 12.68373,0 h 12.4023 v 4.46388 h -12.4023 z m 12.7562,0 h 12.4042 v 4.46388 h -12.4042 z m 12.7581,0 h 12.3221 v 4.46388 h -12.3221 z m 25.5142,0 h 12.4041 v 4.46388 h -12.4041 z m 12.758,0 h 12.4043 v 4.46388 h -12.4043 z m 12.7582,0 h 12.2907 v 4.46388 h -12.2907 z m 12.8519,0 h 12.3084 v 4.46388 h -12.3084 z m 12.6622,0 h 12.4042 v 4.46388 h -12.4042 z m 12.7582,0 h 12.3219 v 4.46388 h -12.3219 z m -727.109029,4.67701 h 12.32987 v 4.46578 h -12.32987 z m 12.68566,0 h 12.402249 v 4.46578 H 90.685691 Z m 12.756139,0 h 12.3514 v 4.46578 h -12.3494 z m 12.83042,0 h 12.33188 v 4.46578 h -12.33188 z m 12.68576,0 h 12.40225 v 4.46578 h -12.40225 z m 12.75814,0 h 12.40216 v 4.46578 h -12.40216 z m 12.75604,0 h 12.32016 v 4.46578 h -12.32016 z m 12.83052,0 h 12.32987 v 4.46578 h -12.32987 z m 12.68566,0 h 12.40226 v 4.46578 h -12.40226 z m 25.51428,0 h 12.32597 v 4.46578 h -12.32597 z m 12.83623,0 h 12.32407 v 4.46578 h -12.32407 z m 12.67795,0 h 12.40416 v 4.46578 h -12.40416 z m 12.75804,0 h 12.40426 v 4.46578 h -12.40426 z m 12.75814,0 h 12.32988 v 4.46578 h -12.32988 z m 12.83433,0 h 12.32597 v 4.46578 h -12.32597 z m 12.67985,0 h 12.40416 v 4.46578 h -12.40416 z m 12.75804,0 h 12.40226 v 4.46578 h -12.40226 z m 12.75815,0 h 12.32006 v 4.46578 h -12.32006 z m 12.83042,0 h 12.32987 v 4.46578 H 320.3938 Z m 12.68375,0 h 12.40416 v 4.46578 h -12.40416 z m 12.75815,0 h 12.40215 v 4.46578 H 345.8357 Z m 12.75603,0 h 12.32207 v 4.46578 h -12.32207 z m 12.83243,0 h 12.32987 v 4.46578 h -12.32987 z m 25.4419,0 h 12.40215 v 4.46578 h -12.40215 z m 12.75614,0 h 12.32196 v 4.46578 H 409.6222 Z m 12.83232,0 h 12.32797 v 4.46578 h -12.32797 z m 12.68376,0 h 12.40225 v 4.46578 h -12.40225 z m 12.75614,0 h 12.40415 v 4.46578 h -12.40415 z m 12.75814,0 h 12.32206 v 4.46578 h -12.32206 z m 12.84403,0 h 12.31626 v 4.46578 h -12.31816 z m 12.67205,0 h 12.40225 v 4.46578 h -12.40225 z m 12.75614,0 h 12.40425 v 4.46578 h -12.40425 z m 12.75814,0 h 12.32206 v 4.46578 h -12.32206 z m 89.30658,0.14266 h 12.40216 v 4.46388 H 600.9895 Z m 12.75604,0 h 12.32797 v 4.46388 h -12.32797 z m 12.83242,0 h 12.32988 v 4.46388 h -12.32988 z m 12.68376,0 h 12.40226 v 4.46388 h -12.40226 z m 12.75814,0 h 12.40216 v 4.46388 h -12.40216 z m 12.75614,0 h 12.32397 v 4.46388 H 664.776 Z m 12.83233,0 h 12.32793 v 4.46388 h -12.32793 z m 12.68373,0 h 12.4023 v 4.46388 h -12.4023 z m 12.7562,0 h 12.4042 v 4.46388 h -12.4042 z m 12.7581,0 h 12.3221 v 4.46388 h -12.3221 z m 25.5142,0 h 12.4041 v 4.46388 h -12.4041 z m 12.758,0 h 12.4043 v 4.46388 h -12.4043 z m 12.7582,0 h 12.2907 v 4.46388 h -12.2907 z m 12.8519,0 h 12.3084 v 4.46388 h -12.3104 z m 12.6622,0 h 12.4042 v 4.46388 h -12.4042 z m 12.7582,0 h 12.3219 v 4.46388 h -12.3219 z m -727.109029,4.67701 h 12.32987 v 4.46388 h -12.32987 z m 12.68566,0 h 12.402249 v 4.46388 H 90.685691 Z m 12.756139,0 h 12.3495 v 4.46388 h -12.3495 z m 12.83042,0 h 12.33188 v 4.46388 h -12.33188 z m 12.68576,0 h 12.40225 v 4.46388 h -12.40225 z m 12.75814,0 h 12.40216 v 4.46388 h -12.40216 z m 12.75604,0 h 12.32016 v 4.46388 h -12.32016 z m 12.83052,0 h 12.32987 v 4.46388 h -12.32987 z m 12.68566,0 h 12.40226 v 4.46388 h -12.40226 z m 25.51428,0 h 12.32597 v 4.46388 h -12.32597 z m 12.83623,0 h 12.32407 v 4.46388 h -12.32407 z m 12.67795,0 h 12.40416 v 4.46388 h -12.40416 z m 12.75804,0 h 12.40426 v 4.46388 h -12.40426 z m 12.75814,0 h 12.32988 v 4.46388 h -12.32988 z m 12.83433,0 h 12.32597 v 4.46388 h -12.32597 z m 12.67985,0 h 12.40416 v 4.46388 h -12.40416 z m 12.75804,0 h 12.40226 v 4.46388 h -12.40226 z m 12.75815,0 h 12.32006 v 4.46388 h -12.32006 z m 12.83042,0 h 12.32987 v 4.46388 H 320.3938 Z m 12.68375,0 h 12.40416 v 4.46388 h -12.40416 z m 12.75815,0 h 12.40215 v 4.46388 H 345.8357 Z m 12.75603,0 h 12.32207 v 4.46388 h -12.32207 z m 12.83243,0 h 12.32987 v 4.46388 h -12.32987 z m 25.4419,0 h 12.40215 v 4.46388 h -12.40215 z m 12.75614,0 h 12.32196 v 4.46388 H 409.6222 Z m 12.83232,0 h 12.32797 v 4.46388 h -12.32797 z m 12.68376,0 h 12.40225 v 4.46388 h -12.40225 z m 12.75614,0 h 12.40415 v 4.46388 h -12.40415 z m 12.75814,0 h 12.32206 v 4.46388 h -12.32206 z m 12.84213,0 h 12.31816 v 4.46388 h -12.31816 z m 12.67395,0 h 12.40225 v 4.46388 h -12.40225 z m 12.75614,0 h 12.40425 v 4.46388 h -12.40425 z m 12.75814,0 h 12.32206 v 4.46388 h -12.32206 z m 89.30658,0.14075 h 12.40216 v 4.46588 H 600.9895 Z m 12.75604,0 h 12.32797 v 4.46588 h -12.32797 z m 12.83242,0 h 12.32988 v 4.46588 h -12.32988 z m 12.68376,0 h 12.40226 v 4.46588 h -12.40226 z m 12.75814,0 h 12.40216 v 4.46588 h -12.40216 z m 12.75614,0 h 12.32397 v 4.46588 H 664.776 Z m 12.83233,0 h 12.32793 v 4.46588 h -12.32793 z m 12.68373,0 h 12.4023 v 4.46588 h -12.4023 z m 12.7562,0 h 12.4042 v 4.46588 h -12.4042 z m 12.7581,0 h 12.3221 v 4.46588 h -12.3221 z m 25.5142,0 h 12.4041 v 4.46588 h -12.4041 z m 12.758,0 h 12.4043 v 4.46588 h -12.4043 z m 12.7582,0 h 12.2907 v 4.46588 h -12.2907 z m 12.8499,0 h 12.3104 v 4.46588 h -12.3123 z m 12.6642,0 h 12.4042 v 4.46588 h -12.4042 z m 12.7582,0 h 12.3219 v 4.46588 h -12.3219 z m -727.109029,4.67902 h 12.32987 v 3.04622 h 0.35579 v -3.04622 h 12.402249 v 3.04622 h 0.35389 v -3.04622 h 12.3495 v 3.18898 H 78.001931 Z m 38.272219,0 h 12.33188 v 3.04622 h 0.35388 v -3.04622 h 12.40225 v 3.04622 h 0.35589 v -3.04622 h 12.40216 v 3.04622 h 0.35388 v -3.04622 h 12.32016 v 3.18898 h -50.5201 z m 102.06663,0 h 12.32407 v 3.04622 h 0.35388 v -3.04622 h 12.40416 v 3.04622 h 0.35388 v -3.04622 h 12.40426 v 3.04622 h 0.35388 v -3.04622 h 12.32988 v 3.18898 h -50.52401 z m 51.02846,0 h 12.32597 v 3.04622 h 0.35388 v -3.04622 h 12.40416 v 3.04622 h 0.35388 v -3.04622 h 12.40226 v 3.04622 h 0.35589 v -3.04622 h 12.32006 v 3.18898 h -50.5161 z m 51.02646,0 h 12.32987 v 3.04622 h 0.35388 v -3.04622 h 12.40416 v 3.04622 h 0.35399 v -3.04622 h 12.40215 v 3.04622 h 0.35388 v -3.04622 h 12.32207 v 3.18898 h -50.52 z m 102.06072,0 h 12.32797 v 3.04622 h 0.35579 v -3.04622 h 12.40225 v 3.04622 h 0.35389 v -3.04622 h 12.40415 v 3.04622 h 0.35399 v -3.04622 h 12.32206 v 3.18898 h -50.5201 z m 51.04017,0 h 12.31816 v 3.04622 h 0.35389 v -3.04622 h 12.40225 v 3.04622 h 0.35388 v -3.04622 h 12.40416 v 3.04622 h 0.35389 v -3.04622 h 12.32206 v 3.18898 h -50.51029 z m 127.49481,0.14075 h 12.40216 v 3.04823 H 600.9895 Z m 12.75604,0 h 12.32797 v 3.04823 h -12.32797 z m 12.83242,0 h 12.32988 v 3.04823 h -12.32988 z m 12.68376,0 h 12.40226 v 3.04823 h -12.40226 z m 12.75814,0 h 12.40216 v 3.04823 h -12.40216 z m 12.75614,0 h 12.32397 v 3.04823 H 664.776 Z m 12.83233,0 h 12.32793 v 3.04823 h -12.32793 z m 12.68373,0 h 12.4023 v 3.04823 h -12.4023 z m 12.7562,0 h 12.4042 v 3.04823 h -12.4042 z m 12.7581,0 h 12.3221 v 3.04823 h -12.3221 z m 25.5142,0 h 12.4041 v 3.04823 h -12.4041 z m 12.758,0 h 12.4043 v 3.04823 h -12.4043 z m 12.7582,0 h 12.2907 v 3.04823 h -12.2907 z m 12.848,0 h 12.3123 v 3.04823 h -12.3123 z m 12.6661,0 h 12.4042 v 3.04823 h -12.4042 z m 12.7582,0 h 12.3219 v 3.04823 h -12.3219 z m -727.109029,6.16684 h 37.789289 l -0.01,33.5934 H 78.003631 v -3.18908 h 12.32597 v 3.04833 h 0.35579 v -3.04833 h 12.402249 v 3.04833 h 0.35389 v -32.74478 h -0.35389 v 0.42627 H 90.685391 v -0.42627 h -0.35579 v 0.42627 h -12.32987 z m 38.272219,0 h 50.5201 v 1.13414 h -12.32016 v -0.42627 h -0.35388 v 0.42627 h -12.40216 v -0.42627 h -0.35589 v 0.42627 h -12.40225 v -0.42627 h -0.35388 v 0.42627 h -12.33188 z m 51.03046,0 h 50.52591 v 1.13414 h -12.32597 v -0.42627 h -0.35398 v 0.42627 h -12.40416 v -0.42627 h -0.35388 v 0.42627 h -12.40226 v -0.42627 h -0.35579 v 0.42627 h -12.32987 z m 51.03617,0 h 50.52401 v 1.13414 h -12.32988 v -0.42627 h -0.35388 v 0.42627 h -12.40426 v -0.42627 h -0.35388 v 0.42627 h -12.40416 v -0.42627 h -0.35388 v 0.42627 h -12.32407 z m 51.02846,0 h 50.5161 v 1.13414 h -12.32006 v -0.42627 h -0.35589 v 0.42627 h -12.40226 v -0.42627 h -0.35388 v 0.42627 h -12.40416 v -0.42627 h -0.35388 v 32.74478 h 0.35388 v -3.04833 h 12.40416 v 3.04833 h 0.35388 v -3.04833 h 12.40226 v 3.04833 h 0.35589 v -3.04833 h 12.32206 v 3.18908 h -50.5181 z m 51.02646,0 h 50.52 v 1.13414 h -12.32207 v -0.42627 h -0.35388 v 0.42627 H 345.8357 v -0.42627 h -0.35399 v 0.42627 h -12.40416 v -0.42627 h -0.35388 v 0.42627 H 320.3938 Z m 51.03036,0 h 50.52 v 1.13414 H 409.6222 v -0.42627 h -0.35399 v 0.42627 h -12.40215 v -0.42627 h -0.35589 v 0.42627 h -12.40225 v -0.42627 h -0.35389 v 0.42627 h -12.32987 z m 51.03036,0 h 50.5201 v 1.13414 h -12.32206 v -0.42627 h -0.35399 v 0.42627 h -12.40415 v -0.42627 h -0.35389 v 32.74478 h 0.35389 v -3.04833 h 12.40415 v 3.04833 h 0.35399 v -3.04833 h 12.32396 v 3.18908 h -50.52 v -3.18908 h 12.32597 v 3.04833 h 0.35579 v -32.74478 h -0.35579 v 0.42627 h -12.32797 z m 51.04017,0 h 50.51029 v 1.13414 h -12.32206 v -0.42627 h -0.35389 v 0.42627 h -12.40425 v -0.42627 h -0.35389 v 0.42627 h -12.40225 v -0.42627 h -0.35389 v 0.42627 h -12.31816 z m 51.03036,0 h 50.5122 v 33.5934 h -50.5142 v -3.18908 h 12.32016 v 3.04833 h 0.35389 v -3.04833 h 12.40415 v 3.04833 h 0.35389 v -3.04833 h 12.40225 v 3.04833 h 0.35589 v -32.74478 h -0.35589 v 0.42627 h -12.40225 v -0.42627 h -0.35389 v 0.42627 H 537.1971 v -0.42627 h -0.35389 v 0.42627 h -12.31816 z m 51.02255,0 h 50.52591 v 1.27489 h -12.32797 v -0.42426 h -0.35388 v 32.74277 H 575.5476 Z m 51.03036,0 h 50.52201 v 1.27489 H 664.776 v -0.42426 h -0.35398 v 0.42426 h -12.40216 v -0.42426 h -0.35588 v 0.42426 h -12.40226 v -0.42426 h -0.35388 v 0.42426 h -12.32988 z m 51.03037,0 h 50.52013 v 1.27489 h -12.3221 v -0.42426 h -0.3539 v 0.42426 h -12.4042 v -0.42426 h -0.3539 v 0.42426 h -12.4023 v -0.42426 h -0.3558 v 0.42426 h -12.32793 z m 51.03033,0 h 50.4888 v 1.27489 h -12.2907 v -0.42426 h -0.3539 v 32.74277 h -12.4043 v -32.74277 h -0.3539 v 0.42426 h -12.4041 v -0.42426 h -0.3539 v 0.42426 h -12.328 z m 51.0461,0 h 37.7462 v 1.27489 h -12.3219 v -0.42426 h -0.354 v 0.42426 h -12.4042 v -0.42426 h -0.3538 v 0.42426 h -12.3123 z m -701.684729,1.48802 h 12.32987 v 4.46578 h -12.32987 z m 12.68566,0 h 12.402249 v 4.46578 H 90.685691 Z m 25.586559,0 h 12.33188 v 4.46578 0.35389 4.46388 h -12.32988 v -4.46388 -0.35389 z m 12.68576,0 h 12.40225 v 4.46578 h -12.40025 v 0.35389 h 12.40025 v 4.46588 h -12.40225 v -4.46588 -0.35389 z m 12.75814,0 h 12.40216 v 3.10299 h 0.018 v 6.18056 h -0.018 v 0.35589 h 0.018 v 4.46387 h -12.41977 v -4.46387 -0.35589 -4.46388 h 12.40216 v -0.35389 h -12.40216 v -1.36279 z m 12.75604,0 h 12.32016 v 4.46578 h -12.32016 z m 12.83052,0 h 12.32987 v 4.46578 h -12.32987 z m 12.68566,0 h 12.40226 v 4.46578 h -12.40226 z m 12.75614,0 h 12.40416 v 4.46578 h -12.40416 z m 12.75814,0 h 12.32597 v 4.46578 h -12.32597 z m 12.83623,0 h 12.32407 v 4.46578 h -12.32407 z m 12.67795,0 h 12.40416 v 4.46578 h -12.40416 z m 12.75804,0 h 12.40426 v 4.46578 h -12.40426 z m 12.75814,0 h 12.32988 v 4.46578 h -12.32988 z m 25.51418,0 h 12.40416 v 4.46578 h -12.40416 z m 12.75804,0 h 12.40226 v 4.46578 h -12.40226 z m 12.75815,0 h 12.32006 v 4.46578 h -12.32006 z m 12.83042,0 h 12.32987 v 4.46578 H 320.3938 Z m 12.68375,0 h 12.40416 v 4.46578 h -12.40416 z m 12.75815,0 h 12.40215 v 4.46578 H 345.8357 Z m 12.75603,0 h 12.32207 v 4.46578 h -12.32207 z m 12.83243,0 h 12.32987 v 4.46578 h -12.32987 z m 12.68376,0 h 12.40225 v 4.46578 h -12.40225 z m 12.75814,0 h 12.40215 v 4.46578 h -12.40215 z m 12.75614,0 h 12.32196 v 4.46578 H 409.6222 Z m 12.83232,0 h 12.32797 v 4.46578 h -12.32797 z m 25.4399,0 h 12.40415 v 4.46578 h -12.40415 z m 12.75814,0 h 12.32206 v 4.46578 h -12.32206 z m 12.84213,0 h 12.31816 v 4.46578 h -12.31816 z m 12.67395,0 h 12.40225 v 4.46578 h -12.40225 z m 12.75614,0 h 12.40425 v 4.46578 h -12.40425 z m 12.75814,0 h 12.32206 v 4.46578 h -12.32206 z m 12.84213,0 h 12.31816 v 4.46578 h -12.31816 z m 12.67205,0 h 12.40415 v 4.46578 H 537.1971 Z m 12.75804,0 h 12.40225 v 4.46578 h -12.40225 z m 63.7904,0.14076 h 12.32797 v 4.46578 h -12.32797 z m 12.83242,0 h 12.32988 v 4.46578 h -12.32988 z m 12.68376,0 h 12.40226 v 4.46578 h -12.40226 z m 12.75814,0 h 12.40216 v 4.46578 h -12.40216 z m 12.75614,0 h 12.32397 v 4.46578 H 664.776 Z m 12.83233,0 h 12.32793 v 4.46578 h -12.32793 z m 12.68373,0 h 12.4023 v 4.46578 h -12.4023 z m 12.7562,0 h 12.4042 v 4.46578 h -12.4042 z m 12.7581,0 h 12.3221 v 4.46578 h -12.3221 z m 12.8323,0 h 12.328 v 4.46578 h -12.328 z m 12.6819,0 h 12.4041 v 4.46578 h -12.4041 z m 25.5162,0 h 12.2907 v 4.46578 h -12.2907 z m 12.848,0 h 12.3123 v 4.46578 h -12.3143 z m 12.6661,0 h 12.4042 v 4.46578 h -12.4042 z m 12.7582,0 h 12.3219 v 4.46578 h -12.3219 z m -727.109029,4.67891 h 12.32987 v 4.46388 h -12.32797 z m 12.68566,0 h 12.402249 v 4.46388 H 90.685691 Z m 63.786499,0 h 12.32016 v 4.46388 h -12.32206 z m 12.83052,0 h 12.32987 v 4.46388 h -12.32797 z m 12.68566,0 h 12.40226 v 4.46388 h -12.40226 z m 12.75614,0 h 12.40416 v 4.46388 h -12.40416 z m 12.75814,0 h 12.32597 v 4.46388 h -12.32597 z m 12.83623,0 h 12.32407 v 4.46388 h -12.32407 z m 12.67795,0 h 12.40416 v 4.46388 h -12.40416 z m 12.75804,0 h 12.40426 v 4.46388 h -12.40426 z m 12.75814,0 h 12.32988 v 4.46388 h -12.32797 z m 25.51418,0 h 12.40416 v 4.46388 h -12.40416 z m 12.75804,0 h 12.40226 v 4.46388 h -12.40226 z m 12.75815,0 h 12.32006 v 4.46388 h -12.32006 z m 12.83042,0 h 12.32987 v 4.46388 H 320.3938 Z m 12.68375,0 h 12.40416 v 4.46388 h -12.40416 z m 12.75815,0 h 12.40215 v 4.46388 H 345.8357 Z m 12.75603,0 h 12.32207 v 4.46388 h -12.32207 z m 12.83243,0 h 12.32987 v 4.46388 h -12.32987 z m 12.68376,0 h 12.40225 v 4.46388 h -12.40225 z m 12.75814,0 h 12.40215 v 4.46388 h -12.40215 z m 12.75614,0 h 12.32196 v 4.46388 H 409.6222 Z m 12.83232,0 h 12.32797 v 4.46388 h -12.32797 z m 25.4399,0 h 12.40415 v 4.46388 h -12.40415 z m 12.75814,0 h 12.32206 v 4.46388 h -12.32206 z m 12.84213,0 h 12.31816 v 4.46388 h -12.31816 z m 12.67395,0 h 12.40225 v 4.46388 h -12.40225 z m 12.75614,0 h 12.40425 v 4.46388 h -12.40425 z m 12.75814,0 h 12.32206 v 4.46388 h -12.32206 z m 12.84213,0 h 12.31816 v 4.46388 h -12.31816 z m 12.67205,0 h 12.40415 v 4.46388 H 537.1971 Z m 12.75804,0 h 12.40225 v 4.46388 h -12.40225 z m 63.7904,0.14085 h 12.32797 v 4.46578 h -12.32797 z m 12.83242,0 h 12.32988 v 4.46578 h -12.32988 z m 12.68376,0 h 12.40226 v 4.46578 h -12.40226 z m 12.75814,0 h 12.40216 v 4.46578 h -12.40216 z m 12.75614,0 h 12.32397 v 4.46578 H 664.776 Z m 12.83233,0 h 12.32793 v 4.46578 0.35389 4.46578 h -12.32793 v -4.46578 -0.35389 z m 12.68373,0 h 12.4023 v 4.46578 0.35389 4.46578 h -12.4023 v -4.46578 -0.35389 z m 12.7562,0 h 12.4042 v 4.46578 0.35389 4.46578 h -12.4042 v -4.46578 -0.35389 z m 12.7581,0 h 12.3221 v 4.46578 h -12.3221 z m 12.8323,0 h 12.328 v 4.46578 h -12.328 z m 12.6819,0 h 12.4041 v 4.46578 h -12.4041 z m 25.5162,0 h 12.2907 v 4.46578 h -12.2907 z m 12.846,0 h 12.3143 v 4.46578 h -12.3143 z m 12.6681,0 h 12.4042 v 4.46578 h -12.4042 z m 12.7582,0 h 12.3219 v 4.46578 h -12.3219 z m -727.107129,4.67892 h 12.32797 v 4.46387 h -12.32797 z m 12.68376,0 h 12.402249 v 4.46387 H 90.685691 Z m 25.588559,0 h 12.32988 v 4.46387 0.35389 4.46578 h -12.32988 v -4.46578 -0.35389 z m 12.68376,0 h 12.40225 v 4.46387 0.35389 3.58201 0 0.88377 0 0.35389 0 9.28554 0 h -12.40225 v -9.28554 -0.35389 -0.88377 -3.58201 z m 25.51418,0 h 12.32207 v 4.46387 h -12.32207 z m 12.83242,0 h 12.32797 v 4.46387 h -12.32797 z m 12.68376,0 h 12.40226 v 4.46387 h -12.40226 z m 12.75614,0 h 12.40416 v 4.46387 h -12.40416 z m 12.75814,0 h 12.32597 v 4.46387 h -12.32597 z m 12.83623,0 h 12.32407 v 4.46387 h -12.32407 z m 12.67795,0 h 12.40416 v 4.46387 h -12.40416 z m 12.75804,0 h 12.40426 v 4.46387 h -12.40426 z m 12.75814,0 h 12.32787 v 4.46387 h -12.32787 z m 25.51418,0 h 12.40416 v 4.46387 h -12.40416 z m 12.75804,0 h 12.40226 v 4.46387 h -12.40226 z m 12.75815,0 h 12.32006 v 4.46387 h -12.32006 z m 12.83042,0 h 12.32987 v 4.46387 H 320.3938 Z m 12.68375,0 h 12.40416 v 4.46387 h -12.40416 z m 12.75815,0 h 12.40215 v 4.46387 H 345.8357 Z m 12.75603,0 h 12.32207 v 4.46387 h -12.32207 z m 12.83243,0 h 12.32987 v 4.46387 h -12.32987 z m 12.68376,0 h 12.40225 v 4.46387 h -12.40225 z m 12.75814,0 h 12.40215 v 4.46387 h -12.40215 z m 12.75614,0 h 12.32196 v 4.46387 H 409.6222 Z m 12.83232,0 h 12.32797 v 4.46387 h -12.32797 z m 25.4399,0 h 12.40415 v 4.46387 h -12.40415 z m 12.75814,0 h 12.32206 v 4.46387 h -12.32206 z m 12.84213,0 h 12.31816 v 4.46387 h -12.31816 z m 12.67395,0 h 12.40225 v 4.46387 h -12.40225 z m 12.75614,0 h 12.40425 v 4.46387 h -12.40425 z m 12.75814,0 h 12.32206 v 4.46387 h -12.32206 z m 12.84213,0 h 12.31816 v 4.46387 h -12.31816 z m 12.67205,0 h 12.40415 v 4.46387 H 537.1971 Z m 12.75804,0 h 12.40225 v 4.46387 h -12.40225 z m 63.7904,0.14075 h 12.32797 v 4.46578 h -12.32797 z m 12.83242,0 h 12.32988 v 4.46578 h -12.32988 z m 12.68376,0 h 12.40226 v 4.46578 h -12.40226 z m 12.75814,0 h 12.40216 v 4.46578 h -12.40216 z m 12.75614,0 h 12.32397 v 4.46578 H 664.776 Z m 51.03036,0 h 12.3221 v 4.46578 h -12.3221 z m 12.8323,0 h 12.328 v 4.46578 h -12.328 z m 12.6819,0 h 12.4041 v 4.46578 h -12.4041 z m 25.5162,0 h 12.2907 v 4.46578 h -12.2907 z m 12.846,0 h 12.3143 v 4.46578 h -12.3162 z m 12.6681,0 h 12.4042 v 4.46578 h -12.4042 z m 12.7582,0 h 12.3219 v 4.46578 h -12.3219 z m -727.107129,4.67701 h 12.32797 v 4.46578 h -12.32797 z m 12.68376,0 h 12.402249 v 4.46578 H 90.685691 Z m 51.030459,0 h 12.41977 v 4.46388 h -0.018 v 0.35579 h 0.018 v 4.81976 h -0.018 v 4.46578 h -12.40215 v -4.46578 h 12.40025 v -0.35388 h -12.40027 v -2.79216 -1.67372 -0.35579 z m 12.75604,0 h 12.32207 v 4.46578 h -12.32207 z m 12.83242,0 h 12.32797 v 4.46578 h -12.32797 z m 12.68376,0 h 12.40226 v 4.46578 h -12.40226 z m 12.75614,0 h 12.40416 v 4.46578 h -12.40416 z m 12.75814,0 h 12.32597 v 4.46578 h -12.32597 z m 12.83623,0 h 12.32407 v 4.46578 h -12.32407 z m 12.67795,0 h 12.40416 v 4.46578 h -12.40416 z m 12.75804,0 h 12.40426 v 4.46578 h -12.40426 z m 12.75814,0 h 12.32787 v 4.46578 h -12.32787 z m 25.51418,0 h 12.40416 v 4.46578 h -12.40416 z m 12.75804,0 h 12.40226 v 4.46578 h -12.40226 z m 12.75815,0 h 12.32006 v 4.46578 h -12.32207 z m 12.83042,0 h 12.32987 v 4.46578 H 320.3957 Z m 12.68375,0 h 12.40416 v 4.46578 h -12.40416 z m 12.75815,0 h 12.40215 v 4.46578 H 345.8357 Z m 12.75603,0 h 12.32207 v 4.46578 h -12.32397 z m 12.83243,0 h 12.32987 v 4.46578 h -12.32787 z m 12.68376,0 h 12.40225 v 4.46578 h -12.40225 z m 12.75814,0 h 12.40215 v 4.46578 h -12.40215 z m 12.75614,0 h 12.32196 v 4.46578 h -12.32397 z m 12.83232,0 h 12.32797 v 4.46578 h -12.32597 z m 25.4399,0 h 12.40415 v 4.46578 h -12.40415 z m 12.75814,0 h 12.32206 v 4.46578 h -12.32407 z m 12.84213,0 h 12.31816 v 4.46578 h -12.32016 z m 12.67395,0 h 12.40225 v 4.46578 h -12.40225 z m 12.75614,0 h 12.40425 v 4.46578 h -12.40425 z m 12.75814,0 h 12.32206 v 4.46578 h -12.32406 z m 12.84213,0 h 12.31816 v 4.46578 h -12.32016 z m 12.67205,0 h 12.40415 v 4.46578 H 537.1971 Z m 12.75804,0 h 12.40225 v 4.46578 h -12.40225 z m 63.7904,0.14276 h 12.32797 v 4.46578 h -12.32797 z m 12.83242,0 h 12.32988 v 4.46578 h -12.32988 z m 12.68376,0 h 12.40226 v 4.46578 h -12.40226 z m 12.75814,0 h 12.40216 v 4.46578 h -12.40216 z m 12.75614,0 h 12.32397 v 4.46578 H 664.774 Z m 12.83233,0 h 12.32793 v 4.46578 h -12.32793 z m 12.68373,0 h 12.4023 v 4.46578 h -12.4023 z m 12.7562,0 h 12.4042 v 4.46578 h -12.4042 z m 12.7581,0 h 12.3221 v 4.46578 h -12.3221 z m 12.8323,0 h 12.328 v 4.46578 h -12.328 z m 12.6819,0 h 12.4041 v 4.46578 h -12.4041 z m 25.5162,0 h 12.2907 v 4.46578 h -12.2907 z m 12.8441,0 h 12.3162 v 4.46578 h -12.3162 z m 12.67,0 h 12.4042 v 4.46578 h -12.4042 z m 12.7582,0 h 12.3219 v 4.46578 h -12.3219 z m -727.107129,4.67691 h 12.32797 v 4.46588 h -12.32597 z m 12.68376,0 h 12.402249 v 4.46588 H 90.685691 Z m 25.588559,0 h 12.32988 v 4.46588 0.35388 4.46578 h -12.32798 z m 38.19794,0 h 12.32207 v 4.46588 h -12.32397 z m 12.83242,0 h 12.32797 v 4.46588 h -12.32596 z m 12.68376,0 h 12.40226 v 4.46588 h -12.40226 z m 12.75614,0 h 12.40416 v 4.46588 h -12.40416 z m 12.75814,0 h 12.32597 v 4.46588 h -12.32597 z m 12.83623,0 h 12.32407 v 4.46588 h -12.32407 z m 12.67795,0 h 12.40416 v 4.46588 h -12.40416 z m 12.75804,0 h 12.40426 v 4.46588 h -12.40426 z m 12.75814,0 h 12.32787 v 4.46588 h -12.32596 z m 25.51418,0 h 12.40416 v 4.46588 h -12.40416 z m 12.75804,0 h 12.40226 v 4.46588 h -12.40226 z m 12.75815,0 h 12.32206 v 4.46588 h -12.32206 z m 12.83232,0 h 12.32797 v 4.46588 H 320.3957 Z m 12.68185,0 h 12.40416 v 4.46588 h -12.40416 z m 12.75815,0 h 12.40215 v 4.46588 H 345.8357 Z m 12.75603,0 h 12.32407 v 4.46588 h -12.32407 z m 12.83443,0 h 12.32787 v 4.46588 h -12.32787 z m 12.68176,0 h 12.40225 v 4.46588 h -12.40225 z m 12.75814,0 h 12.40215 v 4.46588 h -12.40215 z m 12.75614,0 h 12.32396 v 4.46588 H 409.6222 Z m 12.83432,0 h 12.32597 v 4.46588 h -12.32597 z m 25.4379,0 h 12.40415 v 4.46588 h -12.40415 z m 12.75814,0 h 12.32396 v 4.46588 h -12.32396 z m 12.84013,0 h 12.32016 v 4.46588 h -12.32016 z m 12.67595,0 h 12.40225 v 4.46588 h -12.40225 z m 12.75614,0 h 12.40425 v 4.46588 h -12.40425 z m 12.75814,0 h 12.32396 v 4.46588 h -12.32396 z m 12.84013,0 h 12.32016 v 4.46588 h -12.32016 z m 12.67405,0 h 12.40415 v 4.46588 H 537.1971 Z m 12.75804,0 h 12.40225 v 4.46588 h -12.40225 z m 63.7904,0.14275 h 12.32797 v 4.46388 h -12.32797 z m 12.83242,0 h 12.32988 v 4.46388 h -12.32988 z m 12.68376,0 h 12.40226 v 4.46388 h -12.40226 z m 12.75814,0 h 12.40216 v 4.46388 h -12.40216 z m 12.75614,0 h 12.32597 v 4.46388 H 664.776 Z m 12.83233,0 h 12.32793 v 4.46388 h -12.32793 z m 12.68373,0 h 12.4023 v 4.46388 h -12.4023 z m 12.7562,0 h 12.4042 v 4.46388 h -12.4042 z m 12.7581,0 h 12.3221 v 4.46388 h -12.3221 z m 12.8323,0 h 12.328 v 4.46388 h -12.328 z m 12.6819,0 h 12.4041 v 4.46388 h -12.4041 z m 25.5162,0 h 12.2907 v 4.46388 h -12.2907 z m 12.8441,0 h 12.3162 v 4.46388 h -12.3182 z m 12.67,0 h 12.4042 v 4.46388 h -12.4042 z m 12.7582,0 h 12.3219 v 4.46388 h -12.3219 z M 78.003931,169.8536 h 12.32597 v 4.46578 h -12.32597 z m 12.68176,0 h 12.402249 v 4.46578 H 90.685691 Z m 63.786499,0 h 12.32407 v 4.46578 h -12.32407 z m 12.83443,0 h 12.32596 v 4.46578 h -12.32596 z m 12.68175,0 h 12.40226 v 4.46578 h -12.40226 z m 12.75614,0 h 12.40416 v 4.46578 h -12.40416 z m 12.75814,0 h 12.32597 v 4.46578 h -12.32597 z m 12.83623,0 h 12.32407 v 4.46578 h -12.32407 z m 12.67795,0 h 12.40416 v 4.46578 h -12.40416 z m 12.75804,0 h 12.40426 v 4.46578 h -12.40426 z m 12.75814,0 h 12.32597 v 4.46578 h -12.32597 z m 25.51418,0 h 12.40416 v 4.46578 h -12.40416 z m 12.75804,0 h 12.40226 v 4.46578 h -12.40226 z m 12.75815,0 h 12.32206 v 4.46578 h -12.32206 z m 12.83232,0 h 12.32797 v 4.46578 H 320.3957 Z m 12.68185,0 h 12.40416 v 4.46578 h -12.40416 z m 12.75815,0 h 12.40215 v 4.46578 H 345.8357 Z m 12.75603,0 h 12.32407 v 4.46578 h -12.32407 z m 12.83443,0 h 12.32787 v 4.46578 h -12.32787 z m 12.68176,0 h 12.40225 v 4.46578 h -12.40225 z m 12.75814,0 h 12.40215 v 4.46578 h -12.40215 z m 12.75614,0 h 12.32396 v 4.46578 H 409.6222 Z m 12.83432,0 h 12.32597 v 4.46578 h -12.32597 z m 25.4379,0 h 12.40415 v 4.46578 h -12.40415 z m 12.75814,0 h 12.32396 v 4.46578 h -12.32396 z m 12.84013,0 h 12.32016 v 4.46578 h -12.32016 z m 12.67595,0 h 12.40225 v 4.46578 h -12.40225 z m 12.75614,0 h 12.40425 v 4.46578 h -12.40425 z m 12.75814,0 h 12.32396 v 4.46578 h -12.32396 z m 12.84013,0 h 12.32016 v 4.46578 h -12.32016 z m 12.67405,0 h 12.40415 v 4.46578 H 537.1971 Z m 12.75804,0 h 12.40225 v 4.46578 h -12.40225 z m 63.7904,0.14276 h 12.32797 v 4.46388 h -12.32797 z m 12.83242,0 h 12.32988 v 4.46388 h -12.32988 z m 12.68376,0 h 12.40226 v 4.46388 h -12.40226 z m 12.75814,0 h 12.40216 v 4.46388 h -12.40216 z m 12.75614,0 h 12.32597 v 4.46388 H 664.776 Z m 12.83233,0 h 12.32793 v 4.46388 h -12.32793 z m 12.68373,0 h 12.4023 v 4.46388 h -12.4023 z m 12.7562,0 h 12.4042 v 4.46388 h -12.4042 z m 12.7581,0 h 12.3221 v 4.46388 h -12.3221 z m 12.8323,0 h 12.328 v 4.46388 h -12.328 z m 12.6819,0 h 12.4041 v 4.46388 h -12.4041 z m 25.5162,0 h 12.2907 v 4.46388 h -12.2907 z m 12.8421,0 h 12.3182 v 4.46388 h -12.3201 z m 12.672,0 h 12.4042 v 4.46388 h -12.4042 z m 12.7582,0 h 12.3219 v 4.46388 h -12.3219 z m -688.83291,4.67691 h 12.32798 v 3.04833 h 0.35388 v -3.04833 h 12.40225 v 3.04833 h 0.35589 v -3.04833 h 12.40216 v 3.04833 h 0.35388 v -3.04833 h 12.32407 v 3.18908 h -50.52011 z m 51.03047,0 h 12.32596 v 3.04833 h 0.35579 v -3.04833 h 12.40226 v 3.04833 h 0.35388 v -3.04833 h 12.40416 v 3.04833 h 0.35398 v -3.04833 h 12.32597 v 3.18908 h -50.522 z m 51.03226,0 h 12.32407 v 3.04833 h 0.35388 v -3.04833 h 12.40416 v 3.04833 h 0.35388 v -3.04833 h 12.40426 v 3.04833 h 0.35388 v -3.04833 h 12.32597 v 3.18908 h -50.5201 z m 102.05682,0 h 12.32797 v 3.04833 h 0.35388 v -3.04833 h 12.40416 v 3.04833 h 0.35399 v -3.04833 h 12.40215 v 3.04833 h 0.35388 v -3.04833 h 12.32407 v 3.18908 h -50.5201 z m 51.03046,0 h 12.32787 v 3.04833 h 0.35389 v -3.04833 h 12.40225 v 3.04833 h 0.35589 v -3.04833 h 12.40215 v 3.04833 h 0.35399 v -3.04833 h 12.32396 v 3.18908 h -50.52 z m 102.06653,0 h 12.32016 v 3.04833 h 0.35389 v -3.04833 h 12.40225 v 3.04833 h 0.35388 v -3.04833 h 12.40416 v 3.04833 h 0.35389 v -3.04833 h 12.32406 v 3.18908 h -50.5142 z m 140.25285,0.14085 h 12.32797 v 3.04823 h -12.32797 z m 12.83242,0 h 12.32988 v 3.04823 h -12.32988 z m 12.68376,0 h 12.40226 v 3.04823 h -12.40226 z m 12.75814,0 h 12.40216 v 3.04823 h -12.40216 z m 12.75614,0 h 12.32597 v 3.04823 H 664.776 Z m 12.83233,0 h 12.32793 v 3.04823 h -12.32793 z m 12.68373,0 h 12.4023 v 3.04823 h -12.4023 z m 12.7562,0 h 12.4042 v 3.04823 h -12.4042 z m 12.7581,0 h 12.3221 v 3.04823 h -12.3221 z m 12.8323,0 h 12.328 v 3.04823 h -12.328 z m 12.6819,0 h 12.4041 v 3.04823 h -12.4041 z m 25.5162,0 h 12.2907 v 3.04823 h -12.2907 z m 12.8402,0 h 12.3201 v 3.04823 h -12.3201 z m 12.6739,0 h 12.4042 v 3.04823 h -12.4042 z m 12.7582,0 h 12.3219 v 3.04823 h -12.3219 z m -727.105129,6.16684 h 37.773679 v 1.14976 h -12.33578 v -0.42437 h -0.35389 v 0.42627 H 90.685691 v -0.42426 h -0.35579 v 0.42626 h -12.32597 z m 38.272219,0 h 50.52011 v 1.14185 h -12.32407 v -0.42426 h -0.35388 v 0.42626 h -12.40216 v -0.42426 h -0.35589 v 0.42626 h -12.40225 v -0.42436 h -0.35388 v 0.42627 h -12.32798 z m 51.03047,0 h 50.522 v 33.59341 h -50.5201 v -3.18909 h 12.32406 v 3.04823 h 0.35579 v -3.04823 h 12.40226 v 3.04823 h 0.35388 v -3.04823 h 12.40416 v 3.04823 h 0.35398 v -32.74277 h -0.35398 v 0.42626 h -12.40416 v -0.42426 h -0.35388 v 0.42617 h -12.40226 v -0.42427 h -0.35579 v 0.42627 h -12.32596 z m 51.03226,0 h 50.5201 v 1.15757 h -12.32597 v -0.42437 h -0.35388 v 0.42627 h -12.40426 v -0.42426 h -0.35388 v 0.42626 h -12.40416 v -0.42426 h -0.35388 v 0.42616 h -12.32407 z m 51.02846,0 h 50.5181 v 1.14976 h -12.32206 v -0.42437 h -0.35589 v 0.42627 h -12.40226 v -0.42426 h -0.35388 v 0.42626 h -12.40416 v -0.42436 h -0.35388 v 0.42626 h -12.32597 z m 51.02836,0 h 50.5201 v 1.14185 h -12.32407 v -0.42426 h -0.35388 v 0.42626 H 345.8357 v -0.42426 h -0.35399 v 0.42626 h -12.40416 v -0.42436 h -0.35388 v 0.42627 H 320.3957 Z m 51.03046,0 h 50.52 v 33.59341 h -50.52 v -3.18909 h 12.32597 v 3.04823 h 0.35388 v -3.04823 h 12.40216 v 3.04823 h 0.35588 v -3.04823 h 12.40226 v 3.04823 h 0.35388 v -32.74277 h -0.35388 v 0.42626 h -12.40226 v -0.42426 h -0.35588 v 0.42617 h -12.40216 v -0.42427 h -0.35388 v 0.42627 h -12.32797 z m 51.03036,0 h 50.52 v 1.15166 h -12.32396 v -0.42426 h -0.35399 v 0.42626 h -12.40415 v -0.42436 h -0.35389 v 0.42626 h -12.40225 v -0.42426 h -0.35579 v 0.42627 h -12.32597 z m 51.03426,0 h 50.5161 v 1.14385 h -12.32396 v -0.42426 h -0.35389 v 0.42626 h -12.40425 v -0.42436 h -0.35389 v 0.42627 h -12.40225 v -0.42427 h -0.35389 v 0.42627 h -12.32206 z m 51.03037,0 h 50.5161 v 1.13604 h -12.32397 v -0.42426 h -0.35589 v 0.42617 h -12.40225 v -0.42427 h -0.35389 v 0.42627 H 537.1971 v -0.42427 h -0.35389 v 0.42617 h -12.32206 z m 102.05681,0 h 50.52401 v 1.2768 H 664.776 v -0.42627 h -0.35398 v 0.42627 h -12.40216 v -0.42627 h -0.35588 v 0.42627 h -12.40226 v -0.42627 h -0.35388 v 0.42627 h -12.32988 z m 51.03037,0 h 50.52013 v 33.59341 h -12.3221 v -32.74288 h -0.3539 v 0.42627 h -12.4042 v -0.42627 h -0.3539 v 0.42627 h -12.4023 v -0.42627 h -0.3558 v 0.42627 h -12.32793 z m 51.03033,0 h 50.4888 v 1.2768 h -12.2907 v -0.42627 h -0.3539 v 0.42627 h -12.4043 v -0.42627 h -0.3539 v 0.42627 h -12.4041 v -0.42627 h -0.3539 v 0.42627 h -12.328 z m 51.0383,0 h 37.754 v 1.2768 h -12.3219 v -0.42627 h -0.354 v 0.42627 h -12.4042 v -0.42627 h -0.3538 v 0.42627 h -12.3201 z m -701.673029,1.48803 h 12.32597 v 4.46578 h -12.32597 z m 12.68176,0 h 12.402249 v 4.46578 H 90.685691 Z m 12.756139,0 h 12.33578 v 4.46578 h -12.33378 z m 12.83432,0 h 12.32798 v 4.46578 h -12.32798 z m 12.68186,0 h 12.40225 v 4.46578 h -12.40225 z m 12.75814,0 h 12.40216 v 4.46578 h -12.40216 z m 12.75604,0 h 12.32407 v 4.46578 h -12.32407 z m 12.83443,0 h 12.32596 v 4.46578 h -12.32596 z m 12.68175,0 h 12.40226 v 4.46578 h -12.40226 z m 12.75614,0 h 12.40416 v 4.46578 h -12.40416 z m 25.59437,0 h 12.32407 v 4.46578 h -12.32407 z m 12.67795,0 h 12.40416 v 4.46578 h -12.40416 z m 12.75804,0 h 12.40426 v 4.46578 h -12.40426 z m 12.75814,0 h 12.32597 v 4.46578 h -12.32597 z m 12.83433,0 h 12.32597 v 4.46578 h -12.32597 z m 12.67985,0 h 12.40416 v 4.46578 h -12.40416 z m 12.75804,0 h 12.40226 v 4.46578 h -12.40226 z m 12.75815,0 h 12.32206 v 4.46578 h -12.32206 z m 12.83232,0 h 12.32797 v 4.46578 H 320.3957 Z m 12.68185,0 h 12.40416 v 4.46578 h -12.40416 z m 12.75815,0 h 12.40215 v 4.46578 H 345.8357 Z m 12.75603,0 h 12.32407 v 4.46578 h -12.32407 z m 12.83443,0 h 12.32787 v 4.46578 h -12.32787 z m 12.68176,0 h 12.40225 v 4.46578 h -12.40225 z m 12.75814,0 h 12.40215 v 4.46578 h -12.40215 z m 25.59046,0 h 12.32597 v 4.46578 h -12.32597 z m 12.68176,0 h 12.40225 v 4.46578 h -12.40225 z m 12.75614,0 h 12.40415 v 4.46578 h -12.40415 z m 12.75814,0 h 12.32396 v 4.46578 h -12.32396 z m 12.83822,0 h 12.32207 v 4.46578 h -12.32207 z m 12.67786,0 h 12.40225 v 4.46578 h -12.40225 z m 12.75614,0 h 12.40425 v 4.46578 h -12.40425 z m 12.75814,0 h 12.32396 v 4.46578 h -12.32396 z m 12.83823,0 h 12.32206 v 4.46578 h -12.32206 z m 12.67595,0 h 12.40415 v 4.46578 H 537.1971 Z m 12.75804,0 h 12.40225 v 4.46578 h -12.40225 z m 12.75814,0 h 12.32397 v 4.46578 h -12.32397 z m 63.86468,0.14265 h 12.32988 v 4.46388 h -12.32988 z m 12.68376,0 h 12.40226 v 4.46388 h -12.40226 z m 12.75814,0 h 12.40216 v 4.46388 h -12.40216 z m 12.75614,0 h 12.32597 v 4.46388 H 664.776 Z m 12.83233,0 h 12.32793 v 4.46388 h -12.32793 z m 12.68373,0 h 12.4023 v 4.46388 h -12.4023 z m 12.7562,0 h 12.4042 v 4.46388 h -12.4042 z m 25.5904,0 h 12.328 v 4.46388 0.35589 4.46388 h -12.328 v -4.46388 -0.35589 z m 12.6819,0 h 12.4041 v 4.46388 0.35589 4.46388 h -12.4041 v -4.46388 -0.35589 z m 12.758,0 h 12.4043 v 4.46388 0.35589 4.46388 h -12.4043 v -4.46388 -0.35589 z m 12.7582,0 h 12.2907 v 4.46388 h -12.2907 z m 12.8402,0 h 12.3201 v 4.46388 h -12.3221 z m 12.6739,0 h 12.4042 v 4.46388 h -12.4042 z m 12.7582,0 h 12.3219 v 4.46388 h -12.3219 z m -727.105129,4.67701 h 12.32597 v 4.46578 h -12.32597 z m 12.68176,0 h 12.402249 v 4.46578 H 90.685691 Z m 12.756139,0 h 12.33378 v 4.46578 h -12.33178 z m 12.83432,0 h 12.32798 v 4.46578 h -12.32798 z m 12.68186,0 h 12.40225 v 4.46578 h -12.40225 z m 12.75814,0 h 12.40216 v 4.46578 h -12.40216 z m 12.75604,0 h 12.32407 v 4.46578 h -12.32407 z m 12.83443,0 h 12.32596 v 4.46578 h -12.32596 z m 12.68175,0 h 12.40226 v 4.46578 h -12.40226 z m 12.75614,0 h 12.40416 v 4.46578 h -12.40416 z m 25.59437,0 h 12.32407 v 4.46578 h -12.32407 z m 12.67795,0 h 12.40416 v 4.46578 h -12.40416 z m 12.75804,0 h 12.40426 v 4.46578 0.35399 4.46378 h -12.40426 v -4.46378 -0.35399 z m 12.75814,0 h 12.32597 v 4.46578 h -12.32597 z m 12.83433,0 h 12.32597 v 4.46578 h -12.32597 z m 12.67985,0 h 12.40416 v 4.46578 h -12.40416 z m 12.75804,0 h 12.40226 v 4.46578 h -12.40226 z m 12.75815,0 h 12.32206 v 4.46578 h -12.32206 z m 12.83232,0 h 12.32797 v 4.46578 H 320.3957 Z m 12.68185,0 h 12.40416 v 4.46578 h -12.40416 z m 12.75815,0 h 12.40215 v 4.46578 H 345.8357 Z m 12.75603,0 h 12.32407 v 4.46578 h -12.32407 z m 12.83443,0 h 12.32787 v 4.46578 h -12.32787 z m 12.68176,0 h 12.40225 v 4.46578 h -12.40225 z m 12.75814,0 h 12.40215 v 4.46578 h -12.40215 z m 25.59046,0 h 12.32597 v 4.46578 h -12.32597 z m 12.68176,0 h 12.40225 v 4.46578 h -12.40225 z m 12.75614,0 h 12.40415 v 4.46578 h -12.40415 z m 12.75814,0 h 12.32396 v 4.46578 h -12.32396 z m 12.83822,0 h 12.32207 v 4.46578 h -12.32207 z m 12.67786,0 h 12.40225 v 4.46578 h -12.40225 z m 12.75614,0 h 12.40425 v 4.46578 h -12.40425 z m 12.75814,0 h 12.32396 v 4.46578 h -12.32396 z m 12.83823,0 h 12.32206 v 4.46578 h -12.32206 z m 12.67595,0 h 12.40415 v 4.46578 H 537.1971 Z m 12.75804,0 h 12.40225 v 4.46578 h -12.40225 z m 12.75814,0 h 12.32397 v 4.46578 h -12.32397 z m 63.86468,0.14276 h 12.32988 v 4.46388 h -12.32988 z m 12.68376,0 h 12.40226 v 4.46388 h -12.40226 z m 12.75814,0 h 12.40216 v 4.46388 h -12.40216 z m 12.75614,0 h 12.32597 v 4.46388 H 664.776 Z m 12.83233,0 h 12.32793 v 4.46388 h -12.32793 z m 12.68373,0 h 12.4023 v 4.46388 h -12.4023 z m 12.7562,0 h 12.4042 v 4.46388 h -12.4042 z m 63.7885,0 h 12.2907 v 4.46388 h -12.2907 z m 12.8382,0 h 12.3221 v 4.46388 h -12.3221 z m 12.6759,0 h 12.4042 v 4.46388 h -12.4042 z m 12.7582,0 h 12.3219 v 4.46388 h -12.3219 z m -727.105129,4.67701 h 12.32597 v 4.46378 h -12.32597 z m 12.68176,0 h 12.402249 v 4.46378 H 90.685691 Z m 12.756139,0 h 12.33188 v 4.46378 h -12.33188 z m 12.83432,0 h 12.32798 v 4.46378 h -12.32798 z m 12.68186,0 h 12.40225 v 4.46378 h -12.40225 z m 12.75814,0 h 12.40216 v 4.46378 h -12.40216 z m 12.75604,0 h 12.32407 v 4.46378 h -12.32407 z m 12.83443,0 h 12.32596 v 4.46378 h -12.32596 z m 12.68175,0 h 12.40226 v 4.46378 h -12.40226 z m 12.75614,0 h 12.40416 v 4.46378 h -12.40416 z m 25.59437,0 h 12.32407 v 4.46378 h -12.32407 z m 12.67795,0 h 12.40416 v 4.46378 h -12.40416 z m 25.51618,0 h 12.32597 v 4.46378 h -12.32597 z m 12.83433,0 h 12.32597 v 4.46378 h -12.32597 z m 12.67985,0 h 12.40416 v 4.46378 h -12.40416 z m 12.75804,0 h 12.40226 v 4.46378 h -12.40226 z m 12.75815,0 h 12.32206 v 4.46378 h -12.32206 z m 12.83232,0 h 12.32797 v 4.46378 H 320.3957 Z m 12.68185,0 h 12.40416 v 4.46378 h -12.40416 z m 12.75815,0 h 12.40215 v 4.46378 H 345.8357 Z m 12.75603,0 h 12.32407 v 4.46378 h -12.32407 z m 12.83443,0 h 12.32787 v 4.46378 h -12.32787 z m 12.68176,0 h 12.40225 v 4.46378 h -12.40225 z m 12.75814,0 h 12.40215 v 4.46378 h -12.40215 z m 25.59046,0 h 12.32597 v 4.46378 h -12.32597 z m 12.68176,0 h 12.40225 v 4.46378 h -12.40225 z m 12.75614,0 h 12.40415 v 4.46378 h -12.40415 z m 12.75814,0 h 12.32396 v 4.46378 h -12.32396 z m 12.83822,0 h 12.32207 v 4.46378 h -12.32207 z m 12.67786,0 h 12.40225 v 4.46378 h -12.40225 z m 12.75614,0 h 12.40425 v 4.46378 h -12.40425 z m 12.75814,0 h 12.32396 v 4.46378 h -12.32396 z m 12.83823,0 h 12.32206 v 4.46378 h -12.32206 z m 12.67595,0 h 12.40415 v 4.46378 H 537.1971 Z m 12.75804,0 h 12.40225 v 4.46378 h -12.40225 z m 12.75814,0 h 12.32397 v 4.46378 h -12.32397 z m 63.86468,0.14075 h 12.32988 v 4.46578 h -12.32988 z m 12.68376,0 h 12.40226 v 4.46578 h -12.40226 z m 12.75814,0 h 12.40216 v 4.46578 h -12.40216 z m 12.75614,0 h 12.32597 v 4.46578 H 664.776 Z m 12.83233,0 h 12.32793 v 4.46578 h -12.32793 z m 12.68373,0 h 12.4023 v 4.46578 h -12.4023 z m 12.7562,0 h 12.4042 v 4.46578 h -12.4042 z m 25.5904,0 h 12.328 v 4.46578 0.35389 4.46588 h -12.328 v -4.46588 -0.35389 z m 12.6819,0 h 12.4041 v 4.46578 0.35389 4.46588 h -12.4041 v -4.46588 -0.35389 z m 12.758,0 h 12.4043 v 4.46578 0.35389 4.46588 h -12.4043 v -4.46588 -0.35389 z m 12.7582,0 h 12.2907 v 4.46578 h -12.2907 z m 12.8382,0 h 12.3221 v 4.46578 h -12.3241 z m 12.6759,0 h 12.4042 v 4.46578 h -12.4042 z m 12.7582,0 h 12.3219 v 4.46578 h -12.3219 z m -727.105129,4.67892 h 12.32597 v 4.46387 h -12.32406 z m 12.68176,0 h 12.402249 v 4.46387 H 90.685691 Z m 12.756139,0 h 12.33188 v 4.46387 h -12.32988 z m 12.83432,0 h 12.32798 v 4.46387 h -12.32597 z m 12.68186,0 h 12.40225 v 4.46387 h -12.40225 z m 12.75814,0 h 12.40216 v 4.46387 h -12.40216 z m 12.75604,0 h 12.32407 v 4.46387 h -12.32597 z m 12.83443,0 h 12.32596 v 4.46387 h -12.32406 z m 12.68175,0 h 12.40226 v 4.46387 h -12.40226 z m 12.75614,0 h 12.40416 v 4.46387 h -12.40416 z m 25.59437,0 h 12.32407 v 4.46387 h -12.32407 z m 12.67795,0 h 12.40416 v 4.46387 h -12.40416 z m 12.75804,0 h 12.40426 v 4.46387 h -12.40426 z m 12.75814,0 h 12.32597 v 4.46387 h -12.32406 z m 12.83433,0 h 12.32597 v 4.46387 h -12.32597 z m 12.67985,0 h 12.40416 v 4.46387 h -12.40416 z m 12.75804,0 h 12.40226 v 4.46387 h -12.40226 z m 12.75815,0 h 12.32206 v 4.46387 h -12.32407 z m 12.83232,0 h 12.32797 v 4.46387 H 320.3977 Z m 12.68185,0 h 12.40416 v 4.46387 h -12.40416 z m 12.75815,0 h 12.40215 v 4.46387 H 345.8357 Z m 12.75603,0 h 12.32407 v 4.46387 h -12.32597 z m 12.83443,0 h 12.32787 v 4.46387 h -12.32597 z m 12.68176,0 h 12.40225 v 4.46387 h -12.40225 z m 12.75814,0 h 12.40215 v 4.46387 h -12.40215 z m 25.59046,0 h 12.32597 v 4.46387 h -12.32407 z m 12.68176,0 h 12.40225 v 4.46387 h -12.40225 z m 12.75614,0 h 12.40415 v 4.46387 h -12.40415 z m 12.75814,0 h 12.32396 v 4.46387 h -12.32597 z m 12.83822,0 h 12.32207 v 4.46387 h -12.32407 z m 12.67786,0 h 12.40225 v 4.46387 h -12.40225 z m 12.75614,0 h 12.40425 v 4.46387 h -12.40425 z m 12.75814,0 h 12.32396 v 4.46387 h -12.32596 z m 12.83823,0 h 12.32206 v 4.46387 h -12.32407 z m 12.67595,0 h 12.40415 v 4.46387 H 537.1971 Z m 12.75804,0 h 12.40225 v 4.46387 h -12.40225 z m 12.75814,0 h 12.32397 v 4.46387 h -12.32397 z m 63.86468,0.14075 h 12.32988 v 4.46588 h -12.32988 z m 12.68376,0 h 12.40226 v 4.46588 h -12.40226 z m 12.75814,0 h 12.40216 v 4.46588 h -12.40216 z m 12.75614,0 h 12.32597 v 4.46588 H 664.774 Z m 12.83233,0 h 12.32793 v 4.46588 h -12.32793 z m 12.68373,0 h 12.4023 v 4.46588 h -12.4023 z m 12.7562,0 h 12.4042 v 4.46588 h -12.4042 z m 63.7885,0 h 12.2907 v 4.46588 h -12.2907 z m 12.8362,0 h 12.3241 v 4.46588 h -12.3241 z m 12.6779,0 h 12.4042 v 4.46588 h -12.4042 z m 12.7582,0 h 12.3219 v 4.46588 h -12.3219 z m -727.103219,4.67901 h 12.32406 v 4.46388 h -12.32406 z m 12.67985,0 h 12.402249 v 4.46388 H 90.685691 Z m 12.756139,0 h 12.32987 v 4.46388 h -12.32787 z m 12.83633,0 h 12.32597 v 4.46388 h -12.32597 z m 12.67985,0 h 12.40225 v 4.46388 h -12.40225 z m 12.75814,0 h 12.40216 v 4.46388 h -12.40216 z m 12.75604,0 h 12.32597 v 4.46388 h -12.32597 z m 12.83633,0 h 12.32406 v 4.46388 h -12.32406 z m 12.67985,0 h 12.40226 v 4.46388 h -12.40226 z m 12.75614,0 h 12.40416 v 4.46388 h -12.40416 z m 25.59437,0 h 12.32407 v 4.46388 h -12.32407 z m 12.67795,0 h 12.40416 v 4.46388 h -12.40416 z m 12.75804,0 h 12.40426 v 4.46388 h -12.40426 z m 12.75814,0 h 12.32397 v 4.46388 h -12.32397 z m 12.83433,0 h 12.32597 v 4.46388 h -12.32597 z m 12.67985,0 h 12.40416 v 4.46388 h -12.40416 z m 12.75804,0 h 12.40226 v 4.46388 h -12.40226 z m 12.75815,0 h 12.32396 v 4.46388 h -12.32396 z m 12.83432,0 h 12.32597 v 4.46388 H 320.3977 Z m 12.67985,0 h 12.40416 v 4.46388 h -12.40416 z m 12.75815,0 h 12.40215 v 4.46388 H 345.8357 Z m 12.75603,0 h 12.32597 v 4.46388 h -12.32597 z m 12.83633,0 h 12.32597 v 4.46388 h -12.32597 z m 12.67986,0 h 12.40225 v 4.46388 h -12.40225 z m 12.75814,0 h 12.40215 v 4.46388 h -12.40215 z m 25.59236,0 h 12.32407 v 4.46388 h -12.32407 z m 12.67986,0 h 12.40225 v 4.46388 h -12.40225 z m 12.75614,0 h 12.40415 v 4.46388 h -12.40415 z m 12.75814,0 h 12.32597 v 4.46388 h -12.32597 z m 12.83622,0 h 12.32407 v 4.46388 h -12.32407 z m 12.67986,0 h 12.40225 v 4.46388 h -12.40225 z m 12.75614,0 h 12.40425 v 4.46388 h -12.40425 z m 12.75814,0 h 12.32597 v 4.46388 h -12.32597 z m 12.83622,0 h 12.32407 v 4.46388 h -12.32407 z m 12.67796,0 h 12.40415 v 4.46388 H 537.1971 Z m 12.75804,0 h 12.40225 v 4.46388 h -12.40225 z m 12.75814,0 h 12.32397 v 4.46388 h -12.32397 z m 63.86468,0.14076 h 12.32988 v 4.46578 h -12.32988 z m 12.68376,0 h 12.40226 v 4.46578 h -12.40226 z m 12.75814,0 h 12.40216 v 4.46578 h -12.40216 z m 12.75614,0 h 12.32787 v 4.46578 H 664.776 Z m 12.83233,0 h 12.32793 v 4.46578 h -12.32793 z m 12.68373,0 h 12.4023 v 4.46578 h -12.4023 z m 12.7562,0 h 12.4042 v 4.46578 h -12.4042 z m 25.5904,0 h 12.328 v 4.46578 0.35388 4.46588 h -12.328 v -4.46588 -0.35388 z m 12.6819,0 h 12.4041 v 4.46578 0.35388 4.46588 h -12.4041 v -4.46588 -0.35388 z m 12.758,0 h 12.4043 v 4.46578 0.35388 4.46588 h -12.4043 v -4.46588 -0.35388 z m 12.7582,0 h 12.2907 v 4.46578 h -12.2907 z m 12.8362,0 h 12.3241 v 4.46578 h -12.326 z m 12.6779,0 h 12.4042 v 4.46578 h -12.4042 z m 12.7582,0 h 12.3219 v 4.46578 h -12.3219 z m -727.103219,4.67701 h 12.32406 v 4.46578 h -12.32406 z m 12.67985,0 h 12.402249 v 4.46578 H 90.685691 Z m 12.756139,0 h 12.32797 v 4.46578 h -12.32797 z m 12.83633,0 h 12.32597 v 4.46578 h -12.32597 z m 12.67985,0 h 12.40225 v 4.46578 h -12.40225 z m 12.75814,0 h 12.40216 v 4.46578 h -12.40216 z m 12.75604,0 h 12.32597 v 4.46578 h -12.32597 z m 12.83633,0 h 12.32406 v 4.46578 h -12.32406 z m 12.67985,0 h 12.40226 v 4.46578 h -12.40226 z m 12.75614,0 h 12.40416 v 4.46578 h -12.40416 z m 25.59437,0 h 12.32407 v 4.46578 h -12.32407 z m 12.67795,0 h 12.40416 v 4.46578 h -12.40416 z m 12.75804,0 h 12.40426 v 4.46578 h -12.40426 z m 12.75814,0 h 12.32397 v 4.46578 h -12.32397 z m 12.83433,0 h 12.32597 v 4.46578 h -12.32597 z m 12.67985,0 h 12.40416 v 4.46578 h -12.40416 z m 12.75804,0 h 12.40226 v 4.46578 h -12.40226 z m 12.75815,0 h 12.32396 v 4.46578 h -12.32396 z m 12.83432,0 h 12.32597 v 4.46578 H 320.3977 Z m 12.67985,0 h 12.40416 v 4.46578 h -12.40416 z m 12.75815,0 h 12.40215 v 4.46578 H 345.8357 Z m 12.75603,0 h 12.32597 v 4.46578 h -12.32597 z m 12.83633,0 h 12.32597 v 4.46578 h -12.32597 z m 12.67986,0 h 12.40225 v 4.46578 h -12.40225 z m 12.75814,0 h 12.40215 v 4.46578 h -12.40215 z m 25.59236,0 h 12.32407 v 4.46578 h -12.32407 z m 12.67986,0 h 12.40225 v 4.46578 h -12.40225 z m 12.75614,0 h 12.40415 v 4.46578 h -12.40415 z m 12.75814,0 h 12.32597 v 4.46578 h -12.32597 z m 12.83622,0 h 12.32407 v 4.46578 h -12.32407 z m 12.67986,0 h 12.40225 v 4.46578 h -12.40225 z m 12.75614,0 h 12.40425 v 4.46578 h -12.40425 z m 12.75814,0 h 12.32597 v 4.46578 h -12.32597 z m 12.83622,0 h 12.32407 v 4.46578 h -12.32407 z m 12.67796,0 h 12.40415 v 4.46578 H 537.1971 Z m 12.75804,0 h 12.40225 v 4.46578 h -12.40225 z m 12.75814,0 h 12.32397 v 4.46578 h -12.32397 z m 63.86468,0.14265 h 12.32988 v 4.46588 h -12.32988 z m 12.68376,0 h 12.40226 v 4.46588 h -12.40226 z m 12.75814,0 h 12.40216 v 4.46588 h -12.40216 z m 12.75614,0 h 12.32787 v 4.46588 H 664.776 Z m 12.83233,0 h 12.32793 v 4.46588 h -12.32793 z m 12.68373,0 h 12.4023 v 4.46588 h -12.4023 z m 12.7562,0 h 12.4042 v 4.46588 h -12.4042 z m 63.7885,0 h 12.2907 v 4.46588 h -12.2907 z m 12.8343,0 h 12.326 v 4.46588 h -12.328 z m 12.6798,0 h 12.4042 v 4.46588 h -12.4042 z m 12.7582,0 h 12.3219 v 4.46588 h -12.3219 z m -727.103219,4.67701 h 12.32406 v 3.04823 h 0.35579 v -3.04823 h 12.402249 v 3.04823 h 0.35389 v -3.04823 h 12.32597 v 3.18909 H 78.005841 Z m 38.272319,0 h 12.32597 v 3.04823 h 0.35388 v -3.04823 h 12.40225 v 3.04823 h 0.35589 v -3.04823 h 12.40216 v 3.04823 h 0.35388 v -3.04823 h 12.32597 v 3.18909 h -50.52 z m 102.06072,0 h 12.32407 v 3.04823 h 0.35388 v -3.04823 h 12.40416 v 3.04823 h 0.35388 v -3.04823 h 12.40426 v 3.04823 h 0.35388 v -3.04823 h 12.32397 v 3.18909 h -50.5181 z m 51.02846,0 h 12.32597 v 3.04823 h 0.35388 v -3.04823 h 12.40416 v 3.04823 h 0.35388 v -3.04823 h 12.40226 v 3.04823 h 0.35589 v -3.04823 h 12.32396 v 3.18909 h -50.52 z m 51.03036,0 h 12.32597 v 3.04823 h 0.35388 v -3.04823 h 12.40416 v 3.04823 h 0.35399 v -3.04823 h 12.40215 v 3.04823 h 0.35388 v -3.04823 h 12.32597 v 3.18909 h -50.52 z m 102.06072,0 h 12.32407 v 3.04823 h 0.35579 v -3.04823 h 12.40225 v 3.04823 h 0.35389 v -3.04823 h 12.40415 v 3.04823 h 0.35399 v -3.04823 h 12.32597 v 3.18909 h -50.52011 z m 51.03036,0 h 12.32407 v 3.04823 h 0.35389 v -3.04823 h 12.40225 v 3.04823 h 0.35388 v -3.04823 h 12.40416 v 3.04823 h 0.35389 v -3.04823 h 12.32596 v 3.18909 h -50.52 z m 51.03036,0 h 12.32407 v 3.04823 h 0.35389 v -3.04823 h 12.40415 v 3.04823 h 0.35389 v -3.04823 h 12.40225 v 3.04823 h 0.35589 v -3.04823 h 12.32397 v 3.18909 h -50.51811 z m 102.05882,0.14276 h 12.32988 v 3.04633 h -12.32988 z m 12.68376,0 h 12.40226 v 3.04633 h -12.40226 z m 12.75814,0 h 12.40216 v 3.04633 h -12.40216 z m 12.75614,0 h 12.32787 v 3.04633 H 664.776 Z m 12.83233,0 h 12.32793 v 3.04633 h -12.32793 z m 12.68373,0 h 12.4023 v 3.04633 h -12.4023 z m 12.7562,0 h 12.4042 v 3.04633 h -12.4042 z m 25.5904,0 h 12.328 v 3.04633 h -12.328 z m 12.6819,0 h 12.4041 v 3.04633 h -12.4041 z m 12.758,0 h 12.4043 v 3.04633 h -12.4043 z m 12.7582,0 h 12.2907 v 3.04633 h -12.2907 z m 12.8323,0 h 12.328 v 3.04633 h -12.328 z m 12.6818,0 h 12.4042 v 3.04633 h -12.4042 z m 12.7582,0 h 12.3219 v 3.04633 h -12.3219 z" /></svg>
