<?xml version="1.0" encoding="UTF-8" standalone="no"?>
<svg
   xml:space="preserve"
   inkscape:version="1.4 (86a8ad7, 2024-10-11)"
   sodipodi:docname="wall_vector.svg"
   id="svg3367"
   overflow="visible"
   viewBox="0 0 1003.3557 225.91679"
   height="225.66992"
   width="1002.8164"
   version="1.1"
   xmlns:inkscape="http://www.inkscape.org/namespaces/inkscape"
   xmlns:sodipodi="http://sodipodi.sourceforge.net/DTD/sodipodi-0.dtd"
   xmlns="http://www.w3.org/2000/svg"
   xmlns:svg="http://www.w3.org/2000/svg"
   xmlns:rdf="http://www.w3.org/1999/02/22-rdf-syntax-ns#"
   xmlns:cc="http://creativecommons.org/ns#"
   xmlns:dc="http://purl.org/dc/elements/1.1/"><metadata
     id="metadata8"><rdf:RDF><cc:Work
         rdf:about=""><dc:format>image/svg+xml</dc:format><dc:type
           rdf:resource="http://purl.org/dc/dcmitype/StillImage" /></cc:Work></rdf:RDF></metadata><defs
     id="defs3367" /><sodipodi:namedview
     showgrid="false"
     inkscape:document-rotation="0"
     inkscape:current-layer="svg3367"
     inkscape:window-maximized="1"
     inkscape:window-y="-11"
     inkscape:window-x="-11"
     inkscape:window-height="1346"
     inkscape:window-width="2560"
     inkscape:cy="-358.73803"
     inkscape:cx="145.98951"
     inkscape:zoom="0.68155583"
     inkscape:deskcolor="#d1d1d1"
     inkscape:pagecheckerboard="0"
     inkscape:pageopacity="0.0"
     inkscape:showpageshadow="2"
     borderopacity="0.25"
     bordercolor="#000000"
     pagecolor="#ffffff"
     id="namedview3367" /><path
     id="path3370-5"
     style="fill:#ffffff;stroke-width:1"
     d="M 1003.0656,3e-5 6.5215791,80.39068 H -0.27886088 V 225.91679 H 962.38445 L 1003.6346,7.06445 Z M 996.31212,7.6549 956.50883,218.82905 H 6.8069891 V 87.47842 L 77.485819,81.77689 v 22.66146 h -1.8282 v 3.11671 h 1.8282 v 33.59531 h -1.8301 v 3.11861 h 1.8301 v 33.5934 h -1.83401 v 3.11861 h 1.83401 v 33.59341 h -1.83601 v 3.11861 H 577.36804 v -3.11861 h -1.8302 v -33.59341 h 50.52591 v 33.59341 h -1.8281 v 3.11861 H 819.7598 v -3.11861 h -1.82819 v -33.59341 h 1.82819 v -3.11861 h -1.82819 v -33.5934 h 1.82819 v -3.11861 h -1.82819 v -33.59531 h 1.82819 v -3.11671 h -1.82819 V 70.84304 h 1.82819 v -3.1186 h -1.82819 V 22.04362 Z M 817.43106,22.08477 v 45.63967 h -37.73063 l 0.01,-42.59535 z m -38.30355,3.09127 v 42.5484 H 728.63874 V 29.24879 Z m -50.99903,4.1138 v 38.4346 h -50.5201 V 33.36459 Z m -51.03437,4.1159 v 34.3187 h -50.518 V 37.48049 Z m -51.02055,4.11579 V 67.72444 H 575.54765 V 41.59829 Z m -51.03626,4.1178 V 67.72444 H 524.53101 V 45.71409 Z m -51.03817,4.1177 V 67.72444 H 473.49864 V 49.82988 Z m -51.03037,4.1159 v 17.85151 h -50.522 V 53.94768 Z m -51.03036,4.1178 v 13.73371 h -50.5201 v -9.65896 z m -51.03036,4.1158 v 9.61791 h -2.2935 v 3.1186 h 2.2935 v 33.59531 H 358.58988 V 71.69367 H 358.236 v 0.42617 h -12.40226 v -0.42617 h -0.35388 v 0.42617 H 333.0757 v -0.42617 h -0.35398 v 0.42617 h -12.33378 v -9.93856 z m -51.02846,4.11579 v 42.21603 H 269.36739 V 66.29708 Z m -51.01084,4.1158 v 38.10023 H 218.34283 V 70.41488 Z m -51.04007,4.1178 v 33.98243 H 167.30076 V 74.53067 Z m 153.58963,0.38712 h 50.52201 v 1.2768 h -12.31806 v -0.42617 h -0.35399 v 0.42617 h -12.40215 v -0.42617 h -0.35589 v 0.42617 h -12.40225 v -0.42617 h -0.35389 v 0.42617 H 371.4183 Z m 51.03236,0 h 50.52001 v 1.2768 h -12.31806 v -0.42617 h -0.35399 v 0.42617 h -12.40415 v -0.42617 h -0.35389 v 0.42617 h -12.40225 v -0.42617 h -0.35579 v 0.42617 h -12.33188 z m 51.04989,0 h 50.50058 v 33.59531 H 498.92292 V 71.69367 h -0.35388 v 0.42617 h -12.40225 v -0.42617 h -0.35389 v 0.42617 h -12.31235 z m 51.03046,0 h 50.50629 v 33.59531 H 524.529 Z m 51.01664,0 h 50.52591 v 1.2768 h -12.34359 v -0.42617 h -0.35388 v 0.42617 h -12.40416 v -0.42617 h -0.35388 v 0.42617 H 588.2158 v -0.41255 h -0.35589 v 32.73106 h -12.31226 z m 51.03036,0 h 50.51811 v 1.2768 h -12.33578 v -0.42617 h -0.35389 v 0.42617 H 652.0023 v -0.42617 h -0.35389 v 0.42617 h -12.40416 v -0.42617 h -0.35398 v 0.42617 h -12.31226 z m 51.03037,0 h 50.5201 v 1.2768 H 715.7907 v -0.42617 h -0.35579 v 0.42617 h -12.40225 v -0.42617 h -0.35389 v 0.42617 h -12.40415 v -0.42617 h -0.35399 v 0.42617 h -12.31225 z m 51.03036,0 h 50.48877 v 33.59531 H 766.81916 V 71.69367 h -0.35389 v 0.42617 h -12.40225 v -0.42617 h -0.35389 v 0.42617 h -12.40415 v -0.42617 h -0.35389 v 0.42617 h -12.31235 z m 51.06169,0 h 37.73063 v 1.2768 h -2.68644 -9.65124 v -0.42617 h -0.35579 v 0.42617 h -2.39722 -10.00503 v -0.42617 h -0.35389 v 0.42617 h -12.28102 z m -459.31049,1.63069 h 12.33378 v 4.46387 h -12.33378 z m 12.68766,0 h 12.40416 V 76.9376 H 333.0776 Z m 12.75815,0 h 12.40215 v 4.46387 h -12.40215 z m 25.58255,0 h 12.33578 V 76.9376 H 371.4183 Z m 12.68967,0 h 12.40225 v 4.46387 h -12.40225 z m 12.75814,0 h 12.40215 v 4.46387 h -12.40215 z m 12.75614,0 h 12.31806 v 4.46387 h -12.31806 z m 12.82841,0 h 12.33188 v 4.46387 h -12.33188 z m 12.68767,0 h 12.40225 v 4.46387 h -12.40225 z m 12.75614,0 h 12.40415 v 4.46387 h -12.40415 z m 12.75814,0 h 12.31806 v 4.46387 h -12.31806 z m 12.84794,0 h 12.31235 v 4.46387 h -12.31235 z m 12.66814,0 h 12.40225 v 4.46387 h -12.40225 z m 102.04711,0 h 12.40225 V 76.9376 H 588.2158 Z m 12.75613,0 h 12.40416 v 4.46387 h -12.40416 z m 12.75804,0 h 12.34359 v 4.46387 h -12.34359 z m 12.84804,0 h 12.31226 v 4.46387 h -12.31226 z m 12.66624,0 h 12.40416 v 4.46387 h -12.40416 z m 12.75805,0 h 12.40415 V 76.9376 H 652.0023 Z m 12.75804,0 h 12.33578 v 4.46387 h -12.33578 z m 12.84804,0 h 12.31225 v 4.46387 h -12.31225 z m 12.66624,0 h 12.40415 v 4.46387 h -12.40415 z m 12.75804,0 h 12.40225 v 4.46387 h -12.40225 z m 12.75804,0 h 12.33778 V 76.9376 H 715.7907 Z m 12.84804,0 h 12.31235 v 4.46387 h -12.31235 z m 12.66624,0 h 12.40415 v 4.46387 h -12.40415 z m 12.75804,0 h 12.40225 v 4.46387 h -12.40225 z m 25.63741,0 h 12.28102 v 4.46387 h -12.28302 z m 12.63491,0 h 10.00503 2.39722 v 4.46387 h -12.40225 z m 12.75804,0 h 9.65124 2.68644 V 76.9376 H 805.09338 Z M 166.7885,74.57182 v 29.86653 H 116.2684 V 78.64847 Z m 153.60144,2.72167 h 12.33378 v 4.46388 h -12.33378 z m 12.68766,0 h 12.40416 v 4.46388 H 333.0776 Z m 12.75815,0 h 12.40215 v 4.46388 h -12.40215 z m 25.58255,0 h 12.33578 v 4.46388 H 371.4183 Z m 12.68967,0 h 12.40225 v 4.46388 h -12.40225 z m 12.75814,0 h 12.40215 v 4.46388 h -12.40215 z m 12.75614,0 h 12.31806 v 4.46388 h -12.31806 z m 12.82841,0 h 12.33188 v 4.46388 h -12.33188 z m 12.68767,0 h 12.40225 v 4.46388 h -12.40225 z m 12.75614,0 h 12.40415 v 4.46388 h -12.40415 z m 12.75814,0 h 12.31806 v 4.46388 h -12.31806 z m 12.84794,0 h 12.31235 v 4.46388 h -12.31235 z m 12.66814,0 h 12.40225 v 4.46388 h -12.40225 z m 102.04711,0 h 12.40225 v 4.46388 H 588.2158 Z m 12.75613,0 h 12.40416 v 4.46388 h -12.40416 z m 12.75804,0 h 12.34359 v 4.46388 h -12.34359 z m 12.84804,0 h 12.31226 v 4.46388 h -12.31226 z m 12.66624,0 h 12.40416 v 4.46388 h -12.40416 z m 12.75805,0 h 12.40415 v 4.46388 H 652.0023 Z m 12.75804,0 h 12.33578 v 4.46388 h -12.33578 z m 12.84804,0 h 12.31225 v 4.46388 h -12.31225 z m 12.66624,0 h 12.40415 v 4.46388 h -12.40415 z m 12.75804,0 h 12.40225 v 4.46388 h -12.40225 z m 12.75804,0 h 12.33778 v 4.46388 H 715.7907 Z m 12.84804,0 h 12.31235 v 4.46388 h -12.31235 z m 12.66624,0 h 12.40415 v 4.46388 h -12.40415 z m 12.75804,0 h 12.40225 v 4.46388 h -12.40225 z m 25.63541,0 h 12.28302 v 4.46388 h -12.28302 z m 12.63691,0 h 12.40225 v 4.46388 h -12.40225 z m 12.75804,0 h 12.33768 v 4.46388 h -12.33768 z m -689.01459,1.3706 -0.2698,0.024 -0.01,25.75073 H 77.995989 v -22.7025 z m 204.31115,3.44917 h 12.33378 v 4.46378 h -12.33188 z m 12.68766,0 h 12.40416 v 4.46378 H 333.0776 Z m 12.75815,0 h 12.40215 v 4.46378 h -12.40215 z m 25.58255,0 h 12.33578 v 4.46378 H 371.4183 Z m 12.68967,0 h 12.40225 v 4.46378 h -12.40225 z m 12.75814,0 h 12.40215 v 4.46378 h -12.40215 z m 12.75614,0 h 12.31806 v 4.46378 h -12.31806 z m 12.82841,0 h 12.33188 v 4.46378 h -12.33188 z m 12.68767,0 h 12.40225 v 4.46378 h -12.40225 z m 12.75614,0 h 12.40415 v 4.46378 h -12.40415 z m 12.75814,0 h 12.31806 v 4.46378 h -12.31806 z m 12.84794,0 h 12.31235 v 4.46378 h -12.31235 z m 12.66814,0 h 12.40225 v 4.46378 h -12.40225 z m 102.04711,0 h 12.40225 v 4.46378 H 588.2158 Z m 12.75613,0 h 12.40416 v 4.46378 h -12.40416 z m 12.75804,0 h 12.34359 v 4.46378 h -12.34359 z m 12.84804,0 h 12.31226 v 4.46378 h -12.31226 z m 12.66624,0 h 12.40416 v 4.46378 h -12.40416 z m 12.75805,0 h 12.40415 v 4.46378 H 652.0023 Z m 12.75804,0 h 12.33578 v 4.46378 h -12.33578 z m 12.84804,0 h 12.31225 v 4.46378 h -12.31225 z m 12.66624,0 h 12.40415 v 4.46378 h -12.40415 z m 12.75804,0 h 12.40225 v 4.46378 h -12.40225 z m 12.75804,0 h 12.33778 v 4.46378 H 715.7907 Z m 12.84804,0 h 12.31235 v 4.46378 h -12.31235 z m 12.66624,0 h 12.40415 v 4.46378 h -12.40415 z m 12.75804,0 h 12.40225 v 4.46378 h -12.40225 z m 25.63541,0 h 12.28302 v 4.46378 h -12.28492 z m 12.63691,0 h 12.40225 v 4.46378 h -12.40225 z m 12.75804,0 h 12.33768 v 4.46378 h -12.33768 z m -484.70154,4.81776 h 12.33188 v 4.46578 h -12.33188 z m 12.68576,0 h 12.40416 V 91.3968 H 333.0776 Z m 12.75815,0 h 12.40215 v 4.46578 h -12.40215 z m 25.58255,0 h 12.33578 V 91.3968 H 371.4203 Z m 12.68967,0 h 12.40225 v 4.46578 h -12.40225 z m 12.75814,0 h 12.40215 v 4.46578 h -12.40215 z m 12.75614,0 h 12.31806 v 4.46578 h -12.32007 z m 12.82841,0 h 12.33188 v 4.46578 h -12.32987 z m 12.68767,0 h 12.40225 v 4.46578 h -12.40225 z m 12.75614,0 h 12.40415 v 4.46578 h -12.40415 z m 12.75814,0 h 12.31806 V 91.3968 H 460.6506 Z m 12.84794,0 h 12.31235 v 4.46578 h -12.31426 z m 12.66814,0 h 12.40225 v 4.46578 h -12.40225 z m 102.04711,0 h 12.40225 V 91.3968 H 588.2158 Z m 12.75613,0 h 12.40416 v 4.46578 h -12.40416 z m 12.75804,0 h 12.34359 v 4.46578 h -12.34359 z m 12.84804,0 h 12.31226 v 4.46578 h -12.31226 z m 12.66624,0 h 12.40416 v 4.46578 h -12.40416 z m 12.75805,0 h 12.40415 V 91.3968 H 652.0023 Z m 12.75804,0 h 12.33578 v 4.46578 h -12.33769 z m 12.84804,0 h 12.31225 v 4.46578 h -12.31225 z m 12.66624,0 h 12.40415 v 4.46578 h -12.40415 z m 12.75804,0 h 12.40225 v 4.46578 h -12.40225 z m 12.75804,0 h 12.33778 V 91.3968 H 715.7907 Z m 12.84804,0 h 12.31235 v 4.46578 h -12.31235 z m 12.66624,0 h 12.40415 v 4.46578 h -12.40415 z m 12.75804,0 h 12.40225 v 4.46578 h -12.40225 z m 25.63351,0 h 12.28492 v 4.46578 h -12.28492 z m 12.63881,0 h 12.40225 v 4.46578 h -12.40225 z m 12.75804,0 h 12.33768 v 4.46578 h -12.33768 z m -484.70154,4.81967 h 12.33188 v 4.46578 h -12.33188 z m 12.68576,0 h 12.40416 v 4.46578 H 333.0776 Z m 12.75815,0 h 12.40215 v 4.46578 h -12.40215 z m 25.58455,0 h 12.33378 v 4.46578 H 371.4203 Z m 12.68767,0 h 12.40225 v 4.46578 h -12.40225 z m 12.75814,0 h 12.40215 v 4.46578 h -12.40215 z m 12.75614,0 h 12.32006 v 4.46578 h -12.32006 z m 12.83042,0 h 12.32987 v 4.46578 h -12.32987 z m 12.68566,0 h 12.40225 v 4.46578 h -12.40225 z m 12.75614,0 h 12.40415 v 4.46578 h -12.40415 z m 12.75814,0 h 12.32006 v 4.46578 h -12.32006 z m 12.84603,0 h 12.31426 v 4.46578 h -12.31426 z m 12.67005,0 h 12.40225 v 4.46578 h -12.40225 z m 102.04711,0 h 12.40225 v 4.46578 H 588.2158 Z m 12.75613,0 h 12.40416 v 4.46578 h -12.40416 z m 12.75804,0 h 12.34359 v 4.46578 h -12.34359 z m 12.84804,0 h 12.31226 v 4.46578 h -12.31226 z m 12.66624,0 h 12.40416 v 4.46578 h -12.40416 z m 12.75805,0 h 12.40415 v 4.46578 H 652.0023 Z m 12.75804,0 h 12.33778 v 4.46578 h -12.33778 z m 12.84804,0 h 12.31225 v 4.46578 h -12.31225 z m 12.66624,0 h 12.40415 v 4.46578 h -12.40415 z m 12.75804,0 h 12.40225 v 4.46578 h -12.40225 z m 12.75804,0 h 12.33778 v 4.46578 H 715.7907 Z m 12.84804,0 h 12.31235 v 4.46578 h -12.31235 z m 12.66624,0 h 12.40415 v 4.46578 h -12.40415 z m 12.75804,0 h 12.40225 v 4.46578 h -12.40225 z m 25.63351,0 h 12.28492 v 4.46578 h -12.28692 z m 12.63881,0 h 12.40225 v 4.46578 h -12.40225 z m 12.75804,0 h 12.33768 v 4.46578 h -12.33768 z m -484.70154,4.81977 h 12.33188 v 4.46578 h -12.33188 z m 12.68576,0 h 12.40416 v 4.46578 H 333.0776 Z m 12.75815,0 h 12.40215 v 4.46578 h -12.40215 z m 25.58455,0 h 12.33378 v 4.46578 H 371.4203 Z m 12.68767,0 h 12.40225 v 4.46578 h -12.40225 z m 12.75814,0 h 12.40215 v 4.46578 h -12.40215 z m 12.75614,0 h 12.32006 v 4.46578 h -12.32006 z m 12.83042,0 h 12.32987 v 4.46578 h -12.32987 z m 12.68566,0 h 12.40225 v 4.46578 h -12.40225 z m 12.75614,0 h 12.40415 v 4.46578 h -12.40415 z m 12.75814,0 h 12.32006 v 4.46578 h -12.32006 z m 12.84603,0 h 12.31426 v 4.46578 h -12.31426 z m 12.67005,0 h 12.40225 v 4.46578 h -12.40225 z m 102.04711,0 h 12.40225 v 4.46578 H 588.2158 Z m 12.75613,0 h 12.40416 v 4.46578 h -12.40416 z m 12.75804,0 h 12.34359 v 4.46578 h -12.34359 z m 12.84804,0 h 12.31226 v 4.46578 h -12.31226 z m 12.66624,0 h 12.40416 v 4.46578 h -12.40416 z m 12.75805,0 h 12.40415 v 4.46578 H 652.0023 Z m 12.75804,0 h 12.33778 v 4.46578 h -12.33778 z m 12.84804,0 h 12.31225 v 4.46578 h -12.31225 z m 12.66624,0 h 12.40415 v 4.46578 h -12.40415 z m 12.75804,0 h 12.40225 v 4.46578 h -12.40225 z m 12.75804,0 h 12.33778 v 4.46578 H 715.7907 Z m 12.84804,0 h 12.31235 v 4.46578 h -12.31235 z m 12.66624,0 h 12.40415 v 4.46578 h -12.40415 z m 12.75804,0 h 12.40225 v 4.46578 h -12.40225 z m 25.63151,0 h 12.28692 v 4.46578 h -12.28883 z m 12.64081,0 h 12.40225 v 4.46578 h -12.40225 z m 12.75804,0 h 12.33768 v 4.46578 h -12.33768 z m -484.70154,4.81966 h 12.33188 v 3.04823 h -12.33188 z m 12.68576,0 h 12.40416 v 3.04823 H 333.0776 Z m 12.75815,0 h 12.40215 v 3.04823 h -12.40215 z m 25.58455,0 h 12.33378 v 3.04823 H 371.4203 Z m 12.68767,0 h 12.40225 v 3.04823 h -12.40225 z m 12.75814,0 h 12.40215 v 3.04823 h -12.40215 z m 12.75614,0 h 12.32006 v 3.04823 h -12.32006 z m 12.83042,0 h 12.32987 v 3.04823 h -12.32987 z m 12.68566,0 h 12.40225 v 3.04823 h -12.40225 z m 12.75614,0 h 12.40415 v 3.04823 h -12.40415 z m 12.75814,0 h 12.32006 v 3.04823 h -12.32006 z m 12.84603,0 h 12.31426 v 3.04823 h -12.31426 z m 12.67005,0 h 12.40225 v 3.04823 h -12.40225 z m 102.04711,0 h 12.40225 v 3.04823 H 588.2158 Z m 12.75613,0 h 12.40416 v 3.04823 h -12.40416 z m 12.75804,0 h 12.34359 v 3.04823 h -12.34359 z m 12.84804,0 h 12.31226 v 3.04823 h -12.31226 z m 12.66624,0 h 12.40416 v 3.04823 h -12.40416 z m 12.75805,0 h 12.40415 v 3.04823 H 652.0023 Z m 12.75804,0 h 12.33778 v 3.04823 h -12.33778 z m 12.84804,0 h 12.31225 v 3.04823 h -12.31225 z m 12.66624,0 h 12.40415 v 3.04823 h -12.40415 z m 12.75804,0 h 12.40225 v 3.04823 h -12.40225 z m 12.75804,0 h 12.33778 v 3.04823 H 715.7907 Z m 12.84804,0 h 12.31235 v 3.04823 h -12.31235 z m 12.66624,0 h 12.40415 v 3.04823 h -12.40415 z m 12.75804,0 h 12.40225 v 3.04823 h -12.40225 z m 25.6296,0 h 12.28883 v 3.04823 h -12.28883 z m 12.64272,0 h 12.40225 v 3.04823 h -12.40225 z m 12.75804,0 h 12.33768 v 3.04823 h -12.33768 z m -727.095301,6.16494 h 37.803011 v 1.13404 h -12.35921 v -0.42427 h -0.35389 v 0.42427 H 90.685739 v -0.42427 h -0.35579 v 0.42427 h -12.33187 z m 38.272321,0 h 50.52 v 1.13404 h -12.31816 v -0.42427 h -0.35388 v 0.42427 H 141.7162 v -0.42427 h -0.35589 v 0.42427 h -12.40225 v -0.42427 h -0.35388 v 0.42427 H 116.2704 Z m 51.03036,0 h 50.52791 v 1.13404 H 205.5027 v -0.42427 h -0.35398 v 32.74278 h 0.35398 v -3.04623 h 12.32597 v 3.18899 h -50.52591 v -3.18899 h 12.32988 v 3.04623 h 0.35578 v -3.04623 h 12.40226 v 3.04623 h 0.35388 v -32.74278 h -0.35388 v 0.42427 h -12.40226 v -0.42427 h -0.35578 v 0.42427 h -12.33188 z m 51.03817,0 h 50.52591 v 1.13404 h -12.33178 v -0.42427 h -0.35388 v 0.42427 h -12.40426 v -0.42427 h -0.35388 v 0.42427 h -12.40416 v -0.42427 H 230.663 v 0.42427 h -12.32407 z m 51.03036,0 h 50.5123 v 1.13404 h -12.31816 v -0.42427 h -0.35589 v 0.42427 h -12.40226 v -0.42427 h -0.35388 v 0.42427 h -12.40416 v -0.42427 h -0.35388 v 0.42427 h -12.32407 z m 51.02255,0 h 50.52011 v 1.13404 h -12.32017 v -0.42427 h -0.35388 v 0.42427 h -12.40215 v -0.42427 h -0.35399 v 0.42427 H 333.0776 v -0.42427 h -0.35388 v 0.42427 h -12.33188 z m 51.03036,0 h 50.52011 v 1.13404 h -12.32006 v -0.42427 h -0.35399 v 0.42427 h -12.40215 v -0.42427 h -0.35589 v 32.74278 h 0.35589 v -3.04623 h 12.40215 v 3.04623 h 0.35399 v -3.04623 h 12.32196 v 3.18899 h -50.52 v -3.18899 h 12.32987 v 3.04623 h 0.35389 v -32.74278 h -0.35389 v 0.42427 H 371.4222 Z m 51.03047,0 h 50.52 v 1.13404 h -12.32006 v -0.42427 h -0.35399 v 0.42427 h -12.40415 v -0.42427 h -0.35389 v 0.42427 h -12.40225 v -0.42427 h -0.35579 v 0.42427 h -12.32987 z m 51.04597,0 h 50.50439 v 1.13404 h -12.32006 v -0.42427 h -0.35389 v 0.42427 h -12.40425 v -0.42427 h -0.35389 v 0.42427 h -12.40225 v -0.42427 h -0.35389 v 0.42427 h -12.31425 z m 51.02846,0 h 50.5102 v 33.59531 h -50.5122 z m 51.02055,0 h 50.52591 v 1.27679 h -12.32797 v -0.42626 h -0.35388 v 0.42626 h -12.40216 v -0.42626 h -0.35398 v 32.74478 h -25.08792 z m 51.03036,0 h 50.52011 v 1.27679 h -12.32207 v -0.42626 h -0.35398 v 0.42626 h -12.40216 v -0.42626 h -0.35588 v 0.42626 h -12.40226 v -0.42626 h -0.35388 v 0.42626 h -12.32988 z m 51.03037,0 h 50.5201 v 1.27679 h -12.32207 v -0.42626 h -0.35388 v 0.42626 h -12.40426 v -0.42626 h -0.35388 v 0.42626 h -12.40226 v -0.42626 h -0.35578 v 0.42626 h -12.32797 z m 51.03036,0 h 50.48877 v 1.27679 h -12.29073 v -0.42626 h -0.35389 v 0.42626 h -12.40426 v -0.42626 h -0.35388 v 0.42626 h -12.40416 v -0.42626 h -0.35388 v 32.74478 h -12.32797 z m 51.05388,0 h 37.73844 v 1.27679 H 805.1091 v -0.42626 h -0.35399 v 0.42626 h -12.40416 v -0.42626 h -0.35388 v 0.42626 h -12.30445 z m -701.694541,1.48993 h 12.33187 v 4.46388 h -12.33187 z m 12.68766,0 h 12.402251 v 4.46388 H 90.685739 Z m 12.756141,0 h 12.35921 v 4.46388 h -12.35721 z m 12.82852,0 h 12.33378 v 4.46388 H 116.2704 Z m 12.68766,0 h 12.40225 v 4.46388 h -12.40225 z m 12.75814,0 h 12.40216 v 4.46388 H 141.7162 Z m 12.75604,0 h 12.31816 v 4.46388 h -12.31816 z m 12.82852,0 h 12.33188 v 4.46388 h -12.33188 z m 12.68766,0 h 12.40226 v 4.46388 h -12.40226 z m 25.51428,0 h 12.32597 v 4.46388 H 205.5027 Z m 12.83623,0 H 230.663 v 4.46388 h -12.32407 z m 12.67795,0 h 12.40416 v 4.46388 h -12.40416 z m 12.75804,0 h 12.40426 v 4.46388 h -12.40426 z m 12.75814,0 h 12.33178 v 4.46388 h -12.33178 z m 12.83623,0 h 12.32407 v 4.46388 h -12.32407 z m 12.67795,0 h 12.40416 v 4.46388 h -12.40416 z m 12.75804,0 h 12.40226 v 4.46388 h -12.40226 z m 12.75815,0 h 12.31816 v 4.46388 h -12.31816 z m 12.82841,0 h 12.33188 v 4.46388 h -12.33188 z m 12.68576,0 h 12.40416 v 4.46388 H 333.0776 Z m 12.75815,0 h 12.40215 v 4.46388 h -12.40215 z m 12.75603,0 h 12.32017 v 4.46388 h -12.32017 z m 12.83042,0 h 12.33188 v 4.46388 H 371.4222 Z m 25.44391,0 h 12.40215 v 4.46388 h -12.40215 z m 12.75614,0 h 12.32006 v 4.46388 h -12.32006 z m 12.83042,0 h 12.32987 v 4.46388 h -12.32987 z m 12.68566,0 h 12.40225 v 4.46388 h -12.40225 z m 12.75614,0 h 12.40415 v 4.46388 h -12.40415 z m 12.75814,0 h 12.32006 v 4.46388 h -12.32006 z m 12.84603,0 h 12.31426 v 4.46388 h -12.31426 z m 12.67005,0 h 12.40225 v 4.46388 h -12.40225 z m 12.75614,0 h 12.40425 v 4.46388 h -12.40425 z m 12.75814,0 h 12.32006 v 4.46388 h -12.32006 z m 89.30658,0.14075 h 12.40216 v 4.46588 h -12.40216 z m 12.75604,0 h 12.32797 v 4.46588 h -12.32797 z m 12.83242,0 h 12.32988 v 4.46588 h -12.32988 z m 12.68376,0 h 12.40226 v 4.46588 h -12.40226 z m 12.75814,0 h 12.40216 v 4.46588 h -12.40216 z m 12.75614,0 h 12.32207 v 4.46588 h -12.32207 z m 12.83233,0 h 12.32797 v 4.46588 h -12.32797 z m 12.68375,0 h 12.40226 v 4.46588 h -12.40226 z m 12.75614,0 h 12.40426 v 4.46588 h -12.40426 z m 12.75814,0 h 12.32207 v 4.46588 h -12.32207 z m 25.51418,0 h 12.40416 v 4.46588 h -12.40416 z m 12.75804,0 h 12.40426 v 4.46588 h -12.40426 z m 12.75815,0 h 12.29073 v 4.46588 h -12.29073 z m 12.85584,0 h 12.30445 v 4.46588 h -12.30645 z m 12.65833,0 h 12.40416 v 4.46588 h -12.40416 z m 12.75815,0 h 12.32196 v 4.46588 H 805.1091 Z m -727.111021,4.67901 h 12.33187 v 4.46378 h -12.33187 z m 12.68766,0 h 12.402251 v 4.46378 H 90.685739 Z m 12.756141,0 h 12.3573 v 4.46378 h -12.3553 z m 12.82852,0 h 12.33378 v 4.46378 H 116.2704 Z m 12.68766,0 h 12.40225 v 4.46378 h -12.40225 z m 12.75814,0 h 12.40216 v 4.46378 H 141.7162 Z m 12.75604,0 h 12.31816 v 4.46378 h -12.31816 z m 12.82852,0 h 12.33188 v 4.46378 h -12.33188 z m 12.68766,0 h 12.40226 v 4.46378 h -12.40226 z m 25.51428,0 h 12.32597 v 4.46378 H 205.5027 Z m 12.83623,0 H 230.663 v 4.46378 h -12.32407 z m 12.67795,0 h 12.40416 v 4.46378 h -12.40416 z m 12.75804,0 h 12.40426 v 4.46378 h -12.40426 z m 12.75814,0 h 12.33178 v 4.46378 h -12.33178 z m 12.83623,0 h 12.32407 v 4.46378 h -12.32407 z m 12.67795,0 h 12.40416 v 4.46378 h -12.40416 z m 12.75804,0 h 12.40226 v 4.46378 h -12.40226 z m 12.75815,0 h 12.31816 v 4.46378 h -12.31816 z m 12.82841,0 h 12.33188 v 4.46378 h -12.33188 z m 12.68576,0 h 12.40416 v 4.46378 H 333.0776 Z m 12.75815,0 h 12.40215 v 4.46378 h -12.40215 z m 12.75603,0 h 12.32017 v 4.46378 h -12.32017 z m 12.83042,0 h 12.33188 v 4.46378 H 371.4222 Z m 25.44391,0 h 12.40215 v 4.46378 h -12.40215 z m 12.75614,0 h 12.32006 v 4.46378 h -12.32006 z m 12.83042,0 h 12.32987 v 4.46378 h -12.32987 z m 12.68566,0 h 12.40225 v 4.46378 h -12.40225 z m 12.75614,0 h 12.40415 v 4.46378 h -12.40415 z m 12.75814,0 h 12.32006 v 4.46378 h -12.32006 z m 12.84603,0 h 12.31426 v 4.46378 h -12.31626 z m 12.67005,0 h 12.40225 v 4.46378 h -12.40225 z m 12.75614,0 h 12.40425 v 4.46378 h -12.40425 z m 12.75814,0 h 12.32006 v 4.46378 h -12.32006 z m 89.30658,0.14076 h 12.40216 v 4.46578 h -12.40216 z m 12.75604,0 h 12.32797 v 4.46578 h -12.32797 z m 12.83242,0 h 12.32988 v 4.46578 h -12.32988 z m 12.68376,0 h 12.40226 v 4.46578 h -12.40226 z m 12.75814,0 h 12.40216 v 4.46578 h -12.40216 z m 12.75614,0 h 12.32207 v 4.46578 h -12.32207 z m 12.83233,0 h 12.32797 v 4.46578 h -12.32797 z m 12.68375,0 h 12.40226 v 4.46578 h -12.40226 z m 12.75614,0 h 12.40426 v 4.46578 h -12.40426 z m 12.75814,0 h 12.32207 v 4.46578 h -12.32207 z m 25.51418,0 h 12.40416 v 4.46578 h -12.40416 z m 12.75804,0 h 12.40426 v 4.46578 h -12.40426 z m 12.75815,0 h 12.29073 v 4.46578 h -12.29073 z m 12.85384,0 h 12.30645 v 4.46578 h -12.30645 z m 12.66033,0 h 12.40416 v 4.46578 h -12.40416 z m 12.75815,0 h 12.32196 v 4.46578 H 805.1091 Z m -727.111021,4.67701 h 12.33187 v 4.46578 h -12.33187 z m 12.68766,0 h 12.402251 v 4.46578 H 90.685739 Z m 12.756141,0 h 12.3553 v 4.46578 h -12.3533 z m 12.82852,0 h 12.33378 v 4.46578 H 116.2704 Z m 12.68766,0 h 12.40225 v 4.46578 h -12.40225 z m 12.75814,0 h 12.40216 v 4.46578 H 141.7162 Z m 12.75604,0 h 12.31816 v 4.46578 h -12.31816 z m 12.82852,0 h 12.33188 v 4.46578 h -12.33188 z m 12.68766,0 h 12.40226 v 4.46578 h -12.40226 z m 25.51428,0 h 12.32597 v 4.46578 H 205.5027 Z m 12.83623,0 H 230.663 v 4.46578 h -12.32407 z m 12.67795,0 h 12.40416 v 4.46578 h -12.40416 z m 12.75804,0 h 12.40426 v 4.46578 h -12.40426 z m 12.75814,0 h 12.33178 v 4.46578 h -12.33178 z m 12.83623,0 h 12.32407 v 4.46578 h -12.32407 z m 12.67795,0 h 12.40416 v 4.46578 h -12.40416 z m 12.75804,0 h 12.40226 v 4.46578 h -12.40226 z m 12.75815,0 h 12.31816 v 4.46578 h -12.31816 z m 12.82841,0 h 12.33188 v 4.46578 h -12.33188 z m 12.68576,0 h 12.40416 v 4.46578 H 333.0776 Z m 12.75815,0 h 12.40215 v 4.46578 h -12.40215 z m 12.75603,0 h 12.32017 v 4.46578 h -12.32017 z m 12.83042,0 h 12.33188 v 4.46578 H 371.4222 Z m 25.44391,0 h 12.40215 v 4.46578 h -12.40215 z m 12.75614,0 h 12.32006 v 4.46578 h -12.32006 z m 12.83042,0 h 12.32987 v 4.46578 h -12.32987 z m 12.68566,0 h 12.40225 v 4.46578 h -12.40225 z m 12.75614,0 h 12.40415 v 4.46578 h -12.40415 z m 12.75814,0 h 12.32006 v 4.46578 h -12.32006 z m 12.84403,0 h 12.31626 v 4.46578 h -12.31626 z m 12.67205,0 h 12.40225 v 4.46578 h -12.40225 z m 12.75614,0 h 12.40425 v 4.46578 h -12.40425 z m 12.75814,0 h 12.32006 v 4.46578 h -12.32006 z m 89.30658,0.14265 h 12.40216 v 4.46388 h -12.40216 z m 12.75604,0 h 12.32797 v 4.46388 h -12.32797 z m 12.83242,0 h 12.32988 v 4.46388 h -12.32988 z m 12.68376,0 h 12.40226 v 4.46388 h -12.40226 z m 12.75814,0 h 12.40216 v 4.46388 h -12.40216 z m 12.75614,0 h 12.32207 v 4.46388 h -12.32207 z m 12.83233,0 h 12.32797 v 4.46388 h -12.32797 z m 12.68375,0 h 12.40226 v 4.46388 h -12.40226 z m 12.75614,0 h 12.40426 v 4.46388 h -12.40426 z m 12.75814,0 h 12.32207 v 4.46388 h -12.32207 z m 25.51418,0 h 12.40416 v 4.46388 h -12.40416 z m 12.75804,0 h 12.40426 v 4.46388 h -12.40426 z m 12.75815,0 h 12.29073 v 4.46388 h -12.29073 z m 12.85384,0 h 12.30645 v 4.46388 h -12.30835 z m 12.66033,0 h 12.40416 v 4.46388 h -12.40416 z m 12.75815,0 h 12.32196 v 4.46388 H 805.1091 Z m -727.111021,4.67701 h 12.33187 v 4.46578 h -12.32987 z m 12.68766,0 h 12.402251 v 4.46578 H 90.685739 Z m 12.756141,0 h 12.3534 v 4.46578 h -12.3514 z m 12.82852,0 h 12.33378 v 4.46578 H 116.2723 Z m 12.68766,0 h 12.40225 v 4.46578 h -12.40225 z m 12.75814,0 h 12.40216 v 4.46578 H 141.7162 Z m 12.75604,0 h 12.31816 v 4.46578 h -12.32006 z m 12.82852,0 h 12.33188 v 4.46578 h -12.32988 z m 12.68766,0 h 12.40226 v 4.46578 h -12.40226 z m 25.51428,0 h 12.32597 v 4.46578 H 205.5027 Z m 12.83623,0 H 230.663 v 4.46578 h -12.32407 z m 12.67795,0 h 12.40416 v 4.46578 h -12.40416 z m 12.75804,0 h 12.40426 v 4.46578 h -12.40426 z m 12.75814,0 h 12.33178 v 4.46578 h -12.32987 z m 12.83623,0 h 12.32407 v 4.46578 h -12.32597 z m 12.67795,0 h 12.40416 v 4.46578 h -12.40416 z m 12.75804,0 h 12.40226 v 4.46578 h -12.40226 z m 12.75815,0 h 12.31816 v 4.46578 h -12.32017 z m 12.82841,0 h 12.33188 v 4.46578 h -12.32988 z m 12.68576,0 h 12.40416 v 4.46578 H 333.0776 Z m 12.75815,0 h 12.40215 v 4.46578 h -12.40215 z m 12.75603,0 h 12.32017 v 4.46578 h -12.32207 z m 12.83042,0 h 12.33188 v 4.46578 h -12.32987 z m 25.44391,0 h 12.40215 v 4.46578 h -12.40215 z m 12.75614,0 h 12.32006 v 4.46578 h -12.32207 z m 12.83042,0 h 12.32987 v 4.46578 h -12.32797 z m 12.68566,0 h 12.40225 v 4.46578 h -12.40225 z m 12.75614,0 h 12.40415 v 4.46578 h -12.40415 z m 12.75814,0 h 12.32006 v 4.46578 H 460.6506 Z m 12.84403,0 h 12.31626 v 4.46578 h -12.31626 z m 12.67205,0 h 12.40225 v 4.46578 h -12.40225 z m 12.75614,0 h 12.40425 v 4.46578 h -12.40425 z m 12.75814,0 h 12.32006 v 4.46578 h -12.32206 z m 89.30658,0.14276 h 12.40216 v 4.46388 h -12.40216 z m 12.75604,0 h 12.32797 v 4.46388 h -12.32797 z m 12.83242,0 h 12.32988 v 4.46388 h -12.32988 z m 12.68376,0 h 12.40226 v 4.46388 h -12.40226 z m 12.75814,0 h 12.40216 v 4.46388 h -12.40216 z m 12.75614,0 h 12.32207 v 4.46388 h -12.32407 z m 12.83233,0 h 12.32797 v 4.46388 h -12.32797 z m 12.68375,0 h 12.40226 v 4.46388 h -12.40226 z m 12.75614,0 h 12.40426 v 4.46388 h -12.40426 z m 12.75814,0 h 12.32207 v 4.46388 h -12.32207 z m 25.51418,0 h 12.40416 v 4.46388 h -12.40416 z m 12.75804,0 h 12.40426 v 4.46388 h -12.40426 z m 12.75815,0 h 12.29073 v 4.46388 h -12.29073 z m 12.85194,0 h 12.30835 v 4.46388 h -12.30835 z m 12.66223,0 h 12.40416 v 4.46388 h -12.40416 z m 12.75815,0 h 12.32196 v 4.46388 H 805.1091 Z m -727.109021,4.67701 h 12.32987 v 4.46578 h -12.32987 z m 12.68566,0 h 12.402251 v 4.46578 H 90.685739 Z m 12.756141,0 h 12.3514 v 4.46578 h -12.3494 z m 12.83042,0 h 12.33188 v 4.46578 H 116.2723 Z m 12.68576,0 h 12.40225 v 4.46578 h -12.40225 z m 12.75814,0 h 12.40216 v 4.46578 H 141.7162 Z m 12.75604,0 h 12.32016 v 4.46578 h -12.32016 z m 12.83052,0 h 12.32988 v 4.46578 h -12.32988 z m 12.68566,0 h 12.40226 v 4.46578 h -12.40226 z m 25.51428,0 h 12.32597 v 4.46578 H 205.5027 Z m 12.83623,0 H 230.663 v 4.46578 h -12.32407 z m 12.67795,0 h 12.40416 v 4.46578 h -12.40416 z m 12.75804,0 h 12.40426 v 4.46578 h -12.40426 z m 12.75814,0 h 12.32988 v 4.46578 h -12.32988 z m 12.83433,0 h 12.32597 v 4.46578 h -12.32597 z m 12.67985,0 h 12.40416 v 4.46578 h -12.40416 z m 12.75804,0 h 12.40226 v 4.46578 h -12.40226 z m 12.75815,0 h 12.32006 v 4.46578 h -12.32007 z m 12.83042,0 h 12.32987 v 4.46578 h -12.32988 z m 12.68375,0 h 12.40416 v 4.46578 H 333.0776 Z m 12.75815,0 h 12.40215 v 4.46578 h -12.40215 z m 12.75603,0 h 12.32207 v 4.46578 h -12.32207 z m 12.83243,0 h 12.32987 v 4.46578 h -12.32987 z m 25.4419,0 h 12.40215 v 4.46578 h -12.40215 z m 12.75614,0 h 12.32196 v 4.46578 h -12.32196 z m 12.83232,0 h 12.32797 v 4.46578 h -12.32797 z m 12.68376,0 h 12.40225 v 4.46578 h -12.40225 z m 12.75614,0 h 12.40415 v 4.46578 h -12.40415 z m 12.75814,0 h 12.32206 v 4.46578 h -12.32206 z m 12.84403,0 h 12.31626 v 4.46578 h -12.31816 z m 12.67205,0 h 12.40225 v 4.46578 h -12.40225 z m 12.75614,0 h 12.40425 v 4.46578 h -12.40425 z m 12.75814,0 h 12.32206 v 4.46578 h -12.32206 z m 89.30658,0.14266 h 12.40216 v 4.46388 h -12.40216 z m 12.75604,0 h 12.32797 v 4.46388 h -12.32797 z m 12.83242,0 h 12.32988 v 4.46388 h -12.32988 z m 12.68376,0 h 12.40226 v 4.46388 h -12.40226 z m 12.75814,0 h 12.40216 v 4.46388 h -12.40216 z m 12.75614,0 h 12.32397 v 4.46388 h -12.32397 z m 12.83233,0 h 12.32797 v 4.46388 h -12.32797 z m 12.68375,0 h 12.40226 v 4.46388 h -12.40226 z m 12.75614,0 h 12.40426 v 4.46388 h -12.40426 z m 12.75814,0 h 12.32207 v 4.46388 h -12.32207 z m 25.51418,0 h 12.40416 v 4.46388 h -12.40416 z m 12.75804,0 h 12.40426 v 4.46388 h -12.40426 z m 12.75815,0 h 12.29073 v 4.46388 h -12.29073 z m 12.85194,0 h 12.30835 v 4.46388 h -12.31035 z m 12.66223,0 h 12.40416 v 4.46388 h -12.40416 z m 12.75815,0 h 12.32196 v 4.46388 H 805.1091 Z m -727.109021,4.67701 h 12.32987 v 4.46388 h -12.32987 z m 12.68566,0 h 12.402251 v 4.46388 H 90.685739 Z m 12.756141,0 h 12.3495 v 4.46388 h -12.3495 z m 12.83042,0 h 12.33188 v 4.46388 H 116.2723 Z m 12.68576,0 h 12.40225 v 4.46388 h -12.40225 z m 12.75814,0 h 12.40216 v 4.46388 H 141.7162 Z m 12.75604,0 h 12.32016 v 4.46388 h -12.32016 z m 12.83052,0 h 12.32988 v 4.46388 h -12.32988 z m 12.68566,0 h 12.40226 v 4.46388 h -12.40226 z m 25.51428,0 h 12.32597 v 4.46388 H 205.5027 Z m 12.83623,0 H 230.663 v 4.46388 h -12.32407 z m 12.67795,0 h 12.40416 v 4.46388 h -12.40416 z m 12.75804,0 h 12.40426 v 4.46388 h -12.40426 z m 12.75814,0 h 12.32988 v 4.46388 h -12.32988 z m 12.83433,0 h 12.32597 v 4.46388 h -12.32597 z m 12.67985,0 h 12.40416 v 4.46388 h -12.40416 z m 12.75804,0 h 12.40226 v 4.46388 h -12.40226 z m 12.75815,0 h 12.32006 v 4.46388 h -12.32007 z m 12.83042,0 h 12.32987 v 4.46388 h -12.32988 z m 12.68375,0 h 12.40416 v 4.46388 H 333.0776 Z m 12.75815,0 h 12.40215 v 4.46388 h -12.40215 z m 12.75603,0 h 12.32207 v 4.46388 h -12.32207 z m 12.83243,0 h 12.32987 v 4.46388 h -12.32987 z m 25.4419,0 h 12.40215 v 4.46388 h -12.40215 z m 12.75614,0 h 12.32196 v 4.46388 h -12.32196 z m 12.83232,0 h 12.32797 v 4.46388 h -12.32797 z m 12.68376,0 h 12.40225 v 4.46388 h -12.40225 z m 12.75614,0 h 12.40415 v 4.46388 h -12.40415 z m 12.75814,0 h 12.32206 v 4.46388 h -12.32206 z m 12.84213,0 h 12.31816 v 4.46388 h -12.31816 z m 12.67395,0 h 12.40225 v 4.46388 h -12.40225 z m 12.75614,0 h 12.40425 v 4.46388 h -12.40425 z m 12.75814,0 h 12.32206 v 4.46388 h -12.32206 z m 89.30658,0.14075 h 12.40216 v 4.46588 h -12.40216 z m 12.75604,0 h 12.32797 v 4.46588 h -12.32797 z m 12.83242,0 h 12.32988 v 4.46588 h -12.32988 z m 12.68376,0 h 12.40226 v 4.46588 h -12.40226 z m 12.75814,0 h 12.40216 v 4.46588 h -12.40216 z m 12.75614,0 h 12.32397 v 4.46588 h -12.32397 z m 12.83233,0 h 12.32797 v 4.46588 h -12.32797 z m 12.68375,0 h 12.40226 v 4.46588 h -12.40226 z m 12.75614,0 h 12.40426 v 4.46588 h -12.40426 z m 12.75814,0 h 12.32207 v 4.46588 h -12.32207 z m 25.51418,0 h 12.40416 v 4.46588 h -12.40416 z m 12.75804,0 h 12.40426 v 4.46588 h -12.40426 z m 12.75815,0 h 12.29073 v 4.46588 h -12.29073 z m 12.84994,0 h 12.31035 v 4.46588 h -12.31226 z m 12.66423,0 h 12.40416 v 4.46588 h -12.40416 z m 12.75815,0 h 12.32196 v 4.46588 H 805.1091 Z m -727.109021,4.67901 h 12.32987 v 3.04623 h 0.35579 v -3.04623 h 12.402251 v 3.04623 h 0.35389 v -3.04623 h 12.3495 v 3.18899 H 78.001979 Z m 38.272221,0 h 12.33188 v 3.04623 h 0.35388 v -3.04623 h 12.40225 v 3.04623 h 0.35589 v -3.04623 h 12.40216 v 3.04623 h 0.35388 v -3.04623 h 12.32016 v 3.18899 h -50.5201 z m 102.06663,0 H 230.663 v 3.04623 h 0.35388 v -3.04623 h 12.40416 v 3.04623 h 0.35388 v -3.04623 h 12.40426 v 3.04623 h 0.35388 v -3.04623 h 12.32988 v 3.18899 h -50.52401 z m 51.02846,0 h 12.32597 v 3.04623 h 0.35388 v -3.04623 h 12.40416 v 3.04623 h 0.35388 v -3.04623 h 12.40226 v 3.04623 h 0.35589 v -3.04623 h 12.32006 v 3.18899 h -50.5161 z m 51.02646,0 h 12.32987 v 3.04623 h 0.35388 v -3.04623 h 12.40416 v 3.04623 h 0.35399 v -3.04623 h 12.40215 v 3.04623 h 0.35388 v -3.04623 h 12.32207 v 3.18899 h -50.52001 z m 102.06072,0 h 12.32797 v 3.04623 h 0.35579 v -3.04623 h 12.40225 v 3.04623 h 0.35389 v -3.04623 h 12.40415 v 3.04623 h 0.35399 v -3.04623 h 12.32206 v 3.18899 h -50.5201 z m 51.04017,0 h 12.31816 v 3.04623 h 0.35389 v -3.04623 h 12.40225 v 3.04623 h 0.35388 v -3.04623 h 12.40416 v 3.04623 h 0.35389 v -3.04623 h 12.32206 v 3.18899 h -50.51029 z m 127.49481,0.14076 h 12.40216 v 3.04823 h -12.40216 z m 12.75604,0 h 12.32797 v 3.04823 h -12.32797 z m 12.83242,0 h 12.32988 v 3.04823 h -12.32988 z m 12.68376,0 h 12.40226 v 3.04823 h -12.40226 z m 12.75814,0 h 12.40216 v 3.04823 h -12.40216 z m 12.75614,0 h 12.32397 v 3.04823 h -12.32397 z m 12.83233,0 h 12.32797 v 3.04823 h -12.32797 z m 12.68375,0 h 12.40226 v 3.04823 h -12.40226 z m 12.75614,0 h 12.40426 v 3.04823 h -12.40426 z m 12.75814,0 h 12.32207 v 3.04823 h -12.32207 z m 25.51418,0 h 12.40416 v 3.04823 h -12.40416 z m 12.75804,0 h 12.40426 v 3.04823 h -12.40426 z m 12.75815,0 h 12.29073 v 3.04823 h -12.29073 z m 12.84803,0 h 12.31226 v 3.04823 h -12.31226 z m 12.66614,0 h 12.40416 v 3.04823 h -12.40416 z m 12.75815,0 h 12.32196 v 3.04823 H 805.1091 Z m -727.109021,6.16684 h 37.789291 l -0.01,33.5934 H 78.003689 v -3.18908 h 12.32597 v 3.04833 h 0.35579 V 174.6733 H 103.0877 v 3.04833 h 0.35389 v -32.74478 h -0.35389 v 0.42627 H 90.685449 v -0.42627 h -0.35579 v 0.42627 h -12.32987 z m 38.272221,0 h 50.5201 v 1.13414 h -12.32016 v -0.42627 h -0.35388 v 0.42627 H 141.7162 v -0.42627 h -0.35589 v 0.42627 h -12.40225 v -0.42627 h -0.35388 v 0.42627 H 116.2723 Z m 51.03046,0 h 50.52591 v 1.13414 H 205.5027 v -0.42627 h -0.35398 v 0.42627 h -12.40416 v -0.42627 h -0.35388 v 0.42627 h -12.40226 v -0.42627 h -0.35578 v 0.42627 h -12.32988 z m 51.03617,0 h 50.52401 v 1.13414 h -12.32988 v -0.42627 h -0.35388 v 0.42627 h -12.40426 v -0.42627 h -0.35388 v 0.42627 h -12.40416 v -0.42627 H 230.663 v 0.42627 h -12.32407 z m 51.02846,0 h 50.5161 v 1.13414 h -12.32007 v -0.42627 h -0.35588 v 0.42627 h -12.40226 v -0.42627 h -0.35388 v 0.42627 h -12.40416 v -0.42627 h -0.35388 v 32.74478 h 0.35388 v -3.04833 h 12.40416 v 3.04833 h 0.35388 v -3.04833 h 12.40226 v 3.04833 h 0.35588 v -3.04833 h 12.32207 v 3.18908 h -50.5181 z m 51.02646,0 h 50.52 v 1.13414 h -12.32207 v -0.42627 h -0.35388 v 0.42627 h -12.40215 v -0.42627 h -0.35399 v 0.42627 H 333.0776 v -0.42627 h -0.35388 v 0.42627 h -12.32988 z m 51.03036,0 h 50.52 v 1.13414 h -12.32196 v -0.42627 h -0.35399 v 0.42627 h -12.40215 v -0.42627 h -0.35589 v 0.42627 h -12.40225 v -0.42627 h -0.35389 v 0.42627 h -12.32987 z m 51.03036,0 h 50.5201 v 1.13414 h -12.32206 v -0.42627 h -0.35399 v 0.42627 h -12.40415 v -0.42627 h -0.35389 v 32.74478 h 0.35389 v -3.04833 h 12.40415 v 3.04833 h 0.35399 v -3.04833 h 12.32396 v 3.18908 h -50.52 v -3.18908 h 12.32597 v 3.04833 h 0.35579 v -32.74478 h -0.35579 v 0.42627 h -12.32797 z m 51.04017,0 h 50.51029 v 1.13414 h -12.32206 v -0.42627 h -0.35389 v 0.42627 h -12.40425 v -0.42627 h -0.35389 v 0.42627 h -12.40225 v -0.42627 h -0.35389 v 0.42627 h -12.31816 z m 51.03036,0 h 50.5122 v 33.5934 h -50.5142 v -3.18908 h 12.32016 v 3.04833 h 0.35389 v -3.04833 h 12.40415 v 3.04833 h 0.35389 v -3.04833 h 12.40225 v 3.04833 h 0.35589 v -32.74478 h -0.35589 v 0.42627 h -12.40225 v -0.42627 h -0.35389 v 0.42627 h -12.40415 v -0.42627 h -0.35389 v 0.42627 H 524.5251 Z m 51.02255,0 h 50.52591 v 1.27489 h -12.32797 v -0.42426 h -0.35388 v 32.74277 h -37.84406 z m 51.03036,0 h 50.52201 v 1.27489 h -12.32397 v -0.42426 h -0.35398 v 0.42426 h -12.40216 v -0.42426 h -0.35588 v 0.42426 h -12.40226 v -0.42426 h -0.35388 v 0.42426 h -12.32988 z m 51.03037,0 h 50.5201 v 1.27489 h -12.32207 v -0.42426 h -0.35388 v 0.42426 h -12.40426 v -0.42426 h -0.35388 v 0.42426 h -12.40226 v -0.42426 h -0.35578 v 0.42426 h -12.32797 z m 51.03036,0 h 50.48877 v 1.27489 h -12.29073 v -0.42426 h -0.35389 v 32.74277 h -12.40426 v -32.74277 h -0.35388 v 0.42426 h -12.40416 v -0.42426 h -0.35388 v 0.42426 h -12.32797 z m 51.04607,0 h 37.74625 v 1.27489 H 805.1091 v -0.42426 h -0.35399 v 0.42426 h -12.40416 v -0.42426 h -0.35388 v 0.42426 H 779.68481 Z M 78.000079,145.757 h 12.32987 v 4.46578 h -12.32987 z m 12.68566,0 h 12.402251 v 4.46578 H 90.685739 Z m 25.586561,0 h 12.33188 v 4.46578 0.35389 4.46388 H 116.2743 v -4.46388 -0.35389 z m 12.68576,0 h 12.40225 v 4.46578 0.35389 4.46588 h -12.40225 v -4.46588 -0.35389 z m 12.75814,0 h 12.40216 v 3.10299 h 0.018 v 6.18056 H 141.7166 v -4.46388 -0.35389 -1.36279 z m 12.75604,0 h 12.32016 v 4.46578 h -12.32016 z m 12.83052,0 h 12.32988 v 4.46578 h -12.32988 z m 12.68566,0 h 12.40226 v 4.46578 h -12.40226 z m 12.75614,0 h 12.40416 v 4.46578 h -12.40416 z m 12.75814,0 h 12.32597 v 4.46578 H 205.5027 Z m 12.83623,0 H 230.663 v 4.46578 h -12.32407 z m 12.67795,0 h 12.40416 v 4.46578 h -12.40416 z m 12.75804,0 h 12.40426 v 4.46578 h -12.40426 z m 12.75814,0 h 12.32988 v 4.46578 h -12.32988 z m 25.51418,0 h 12.40416 v 4.46578 h -12.40416 z m 12.75804,0 h 12.40226 v 4.46578 h -12.40226 z m 12.75815,0 h 12.32006 v 4.46578 h -12.32007 z m 12.83042,0 h 12.32987 v 4.46578 h -12.32988 z m 12.68375,0 h 12.40416 v 4.46578 H 333.0776 Z m 12.75815,0 h 12.40215 v 4.46578 h -12.40215 z m 12.75603,0 h 12.32207 v 4.46578 h -12.32207 z m 12.83243,0 h 12.32987 v 4.46578 h -12.32987 z m 12.68376,0 h 12.40225 v 4.46578 h -12.40225 z m 12.75814,0 h 12.40215 v 4.46578 h -12.40215 z m 12.75614,0 h 12.32196 v 4.46578 h -12.32196 z m 12.83232,0 h 12.32797 v 4.46578 h -12.32797 z m 25.4399,0 h 12.40415 v 4.46578 h -12.40415 z m 12.75814,0 h 12.32206 v 4.46578 h -12.32206 z m 12.84213,0 h 12.31816 v 4.46578 h -12.31816 z m 12.67395,0 h 12.40225 v 4.46578 h -12.40225 z m 12.75614,0 h 12.40425 v 4.46578 h -12.40425 z m 12.75814,0 h 12.32206 v 4.46578 h -12.32206 z m 12.84213,0 h 12.31816 v 4.46578 H 524.5251 Z m 12.67205,0 h 12.40415 v 4.46578 h -12.40415 z m 12.75804,0 h 12.40225 v 4.46578 h -12.40225 z m 63.7904,0.14076 h 12.32797 v 4.46578 h -12.32797 z m 12.83242,0 h 12.32988 v 4.46578 h -12.32988 z m 12.68376,0 h 12.40226 v 4.46578 h -12.40226 z m 12.75814,0 h 12.40216 v 4.46578 h -12.40216 z m 12.75614,0 h 12.32397 v 4.46578 h -12.32397 z m 12.83233,0 h 12.32797 v 4.46578 h -12.32797 z m 12.68375,0 h 12.40226 v 4.46578 h -12.40226 z m 12.75614,0 h 12.40426 v 4.46578 h -12.40426 z m 12.75814,0 h 12.32207 v 4.46578 h -12.32207 z m 12.83233,0 h 12.32797 v 4.46578 h -12.32797 z m 12.68185,0 h 12.40416 v 4.46578 h -12.40416 z m 25.51619,0 h 12.29073 v 4.46578 h -12.29073 z m 12.84803,0 h 12.31226 v 4.46578 h -12.31426 z m 12.66614,0 h 12.40416 v 4.46578 h -12.40416 z m 12.75815,0 h 12.32196 v 4.46578 H 805.1091 Z m -727.109021,4.67891 h 12.32987 v 4.46388 h -12.32797 z m 12.68566,0 h 12.402251 v 4.46388 H 90.685739 Z m 63.786501,0 h 12.32016 v 4.46388 h -12.32206 z m 12.83052,0 h 12.32988 v 4.46388 h -12.32798 z m 12.68566,0 h 12.40226 v 4.46388 h -12.40226 z m 12.75614,0 h 12.40416 v 4.46388 h -12.40416 z m 12.75814,0 h 12.32597 v 4.46388 H 205.5027 Z m 12.83623,0 H 230.663 v 4.46388 h -12.32407 z m 12.67795,0 h 12.40416 v 4.46388 h -12.40416 z m 12.75804,0 h 12.40426 v 4.46388 h -12.40426 z m 12.75814,0 h 12.32988 v 4.46388 h -12.32797 z m 25.51418,0 h 12.40416 v 4.46388 h -12.40416 z m 12.75804,0 h 12.40226 v 4.46388 h -12.40226 z m 12.75815,0 h 12.32006 v 4.46388 h -12.32007 z m 12.83042,0 h 12.32987 v 4.46388 h -12.32988 z m 12.68375,0 h 12.40416 v 4.46388 H 333.0776 Z m 12.75815,0 h 12.40215 v 4.46388 h -12.40215 z m 12.75603,0 h 12.32207 v 4.46388 h -12.32207 z m 12.83243,0 h 12.32987 v 4.46388 h -12.32987 z m 12.68376,0 h 12.40225 v 4.46388 h -12.40225 z m 12.75814,0 h 12.40215 v 4.46388 h -12.40215 z m 12.75614,0 h 12.32196 v 4.46388 h -12.32196 z m 12.83232,0 h 12.32797 v 4.46388 h -12.32797 z m 25.4399,0 h 12.40415 v 4.46388 h -12.40415 z m 12.75814,0 h 12.32206 v 4.46388 h -12.32206 z m 12.84213,0 h 12.31816 v 4.46388 h -12.31816 z m 12.67395,0 h 12.40225 v 4.46388 h -12.40225 z m 12.75614,0 h 12.40425 v 4.46388 h -12.40425 z m 12.75814,0 h 12.32206 v 4.46388 h -12.32206 z m 12.84213,0 h 12.31816 v 4.46388 H 524.5251 Z m 12.67205,0 h 12.40415 v 4.46388 h -12.40415 z m 12.75804,0 h 12.40225 v 4.46388 h -12.40225 z m 63.7904,0.14085 h 12.32797 v 4.46578 h -12.32797 z m 12.83242,0 h 12.32988 v 4.46578 h -12.32988 z m 12.68376,0 h 12.40226 v 4.46578 h -12.40226 z m 12.75814,0 h 12.40216 v 4.46578 h -12.40216 z m 12.75614,0 h 12.32397 v 4.46578 h -12.32397 z m 12.83233,0 h 12.32797 v 4.46578 h -12.32797 z m 12.68375,0 h 12.40226 v 4.46578 h -12.40226 z m 12.75614,0 h 12.40426 v 4.46578 h -12.40426 z m 12.75814,0 h 12.32207 v 4.46578 h -12.32207 z m 12.83233,0 h 12.32797 v 4.46578 h -12.32797 z m 12.68185,0 h 12.40416 v 4.46578 h -12.40416 z m 25.51619,0 h 12.29073 v 4.46578 h -12.29073 z m 12.84603,0 h 12.31426 v 4.46578 h -12.31426 z m 12.66814,0 h 12.40416 v 4.46578 h -12.40416 z m 12.75815,0 h 12.32196 v 4.46578 H 805.1091 Z m -727.107121,4.67892 h 12.32797 v 4.46387 h -12.32797 z m 12.68376,0 h 12.402251 v 4.46387 H 90.685739 Z m 25.588561,0 h 12.32988 v 4.46387 0.35389 4.46578 H 116.2743 v -4.46578 -0.35389 z m 12.68376,0 h 12.40225 v 4.46387 0.35389 3.58201 0 0.88377 h -12.40415 v -0.88377 -3.58201 -0.35389 z m 12.75814,0 h 0.47903 11.94074 v 9.28164 H 141.7162 v -4.46388 -0.35389 z m 12.75604,0 h 12.32207 v 4.46387 h -12.32207 z m 12.83242,0 h 12.32798 v 4.46387 h -12.32798 z m 12.68376,0 h 12.40226 v 4.46387 h -12.40226 z m 12.75614,0 h 12.40416 v 4.46387 h -12.40416 z m 12.75814,0 h 12.32597 v 4.46387 H 205.5027 Z m 12.83623,0 H 230.663 v 4.46387 h -12.32407 z m 12.67795,0 h 12.40416 v 4.46387 h -12.40416 z m 12.75804,0 h 12.40426 v 4.46387 h -12.40426 z m 12.75814,0 h 12.32788 v 4.46387 h -12.32788 z m 25.51418,0 h 12.40416 v 4.46387 h -12.40416 z m 12.75804,0 h 12.40226 v 4.46387 h -12.40226 z m 12.75815,0 h 12.32006 v 4.46387 h -12.32007 z m 12.83042,0 h 12.32987 v 4.46387 h -12.32988 z m 12.68375,0 h 12.40416 v 4.46387 H 333.0776 Z m 12.75815,0 h 12.40215 v 4.46387 h -12.40215 z m 12.75603,0 h 12.32207 v 4.46387 h -12.32207 z m 12.83243,0 h 12.32987 v 4.46387 h -12.32987 z m 12.68376,0 h 12.40225 v 4.46387 h -12.40225 z m 12.75814,0 h 12.40215 v 4.46387 h -12.40215 z m 12.75614,0 h 12.32196 v 4.46387 h -12.32196 z m 12.83232,0 h 12.32797 v 4.46387 h -12.32797 z m 25.4399,0 h 12.40415 v 4.46387 h -12.40415 z m 12.75814,0 h 12.32206 v 4.46387 h -12.32206 z m 12.84213,0 h 12.31816 v 4.46387 h -12.31816 z m 12.67395,0 h 12.40225 v 4.46387 h -12.40225 z m 12.75614,0 h 12.40425 v 4.46387 h -12.40425 z m 12.75814,0 h 12.32206 v 4.46387 h -12.32206 z m 12.84213,0 h 12.31816 v 4.46387 H 524.5251 Z m 12.67205,0 h 12.40415 v 4.46387 h -12.40415 z m 12.75804,0 h 12.40225 v 4.46387 h -12.40225 z m 63.7904,0.14075 h 12.32797 v 4.46578 h -12.32797 z m 12.83242,0 h 12.32988 v 4.46578 h -12.32988 z m 12.68376,0 h 12.40226 v 4.46578 h -12.40226 z m 12.75814,0 h 12.40216 v 4.46578 h -12.40216 z m 12.75614,0 h 12.32397 v 4.46578 h -12.32397 z m 12.83233,0 h 12.32797 v 4.46578 h -12.32797 z m 12.68375,0 h 12.40226 v 4.46578 h -12.40226 z m 12.75614,0 h 12.40426 v 4.46578 h -12.40426 z m 12.75814,0 h 12.32207 v 4.46578 h -12.32207 z m 12.83233,0 h 12.32797 v 4.46578 h -12.32797 z m 12.68185,0 h 12.40416 v 4.46578 h -12.40416 z m 25.51619,0 h 12.29073 v 4.46578 h -12.29073 z m 12.84603,0 h 12.31426 v 4.46578 h -12.31616 z m 12.66814,0 h 12.40416 v 4.46578 h -12.40416 z m 12.75815,0 h 12.32196 v 4.46578 H 805.1091 Z M 78.001979,160.2142 h 12.32797 v 4.46578 h -12.32797 z m 12.68376,0 h 12.402251 v 4.46578 H 90.685739 Z m 63.786501,0 h 12.32207 v 4.46578 h -12.32207 z m 12.83242,0 h 12.32798 v 4.46578 h -12.32798 z m 12.68376,0 h 12.40226 v 4.46578 h -12.40226 z m 12.75614,0 h 12.40416 v 4.46578 h -12.40416 z m 12.75814,0 h 12.32597 v 4.46578 H 205.5027 Z m 12.83623,0 H 230.663 v 4.46578 h -12.32407 z m 12.67795,0 h 12.40416 v 4.46578 h -12.40416 z m 12.75804,0 h 12.40426 v 4.46578 h -12.40426 z m 12.75814,0 h 12.32788 v 4.46578 h -12.32788 z m 25.51418,0 h 12.40416 v 4.46578 h -12.40416 z m 12.75804,0 h 12.40226 v 4.46578 h -12.40226 z m 12.75815,0 h 12.32006 v 4.46578 h -12.32207 z m 12.83042,0 h 12.32987 v 4.46578 h -12.32797 z m 12.68375,0 h 12.40416 v 4.46578 H 333.0776 Z m 12.75815,0 h 12.40215 v 4.46578 h -12.40215 z m 12.75603,0 h 12.32207 v 4.46578 h -12.32397 z m 12.83243,0 h 12.32987 v 4.46578 h -12.32787 z m 12.68376,0 h 12.40225 v 4.46578 h -12.40225 z m 12.75814,0 h 12.40215 v 4.46578 h -12.40215 z m 12.75614,0 h 12.32196 v 4.46578 h -12.32397 z m 12.83232,0 h 12.32797 v 4.46578 h -12.32597 z m 25.4399,0 h 12.40415 v 4.46578 h -12.40415 z m 12.75814,0 h 12.32206 v 4.46578 H 460.6506 Z m 12.84213,0 h 12.31816 v 4.46578 h -12.32016 z m 12.67395,0 h 12.40225 v 4.46578 h -12.40225 z m 12.75614,0 h 12.40425 v 4.46578 h -12.40425 z m 12.75814,0 h 12.32206 v 4.46578 h -12.32406 z m 12.84213,0 h 12.31816 v 4.46578 H 524.5231 Z m 12.67205,0 h 12.40415 v 4.46578 h -12.40415 z m 12.75804,0 h 12.40225 v 4.46578 h -12.40225 z m 63.7904,0.14276 h 12.32797 v 4.46578 h -12.32797 z m 12.83242,0 h 12.32988 v 4.46578 h -12.32988 z m 12.68376,0 h 12.40226 v 4.46578 h -12.40226 z m 12.75814,0 h 12.40216 v 4.46578 h -12.40216 z m 12.75614,0 h 12.32397 v 4.46578 h -12.32597 z m 12.83233,0 h 12.32797 v 4.46578 h -12.32797 z m 12.68375,0 h 12.40226 v 4.46578 h -12.40226 z m 12.75614,0 h 12.40426 v 4.46578 h -12.40426 z m 12.75814,0 h 12.32207 v 4.46578 h -12.32207 z m 12.83233,0 h 12.32797 v 4.46578 h -12.32797 z m 12.68185,0 h 12.40416 v 4.46578 h -12.40416 z m 25.51619,0 h 12.29073 v 4.46578 h -12.29073 z m 12.84413,0 h 12.31616 v 4.46578 h -12.31616 z m 12.67004,0 h 12.40416 v 4.46578 h -12.40416 z m 12.75815,0 h 12.32196 v 4.46578 H 805.1091 Z m -727.107121,4.67691 h 12.32797 v 4.46588 h -12.32597 z m 12.68376,0 h 12.402251 v 4.46588 H 90.685739 Z m 25.588561,0 h 12.32988 v 4.46588 0.35388 4.46578 H 116.2762 Z m 12.68376,0 h 12.40416 v 9.28554 0 h -12.40226 z m 12.75814,0 h 0.47903 11.94074 v 4.81976 h -0.018 v 4.46578 H 141.7158 v -4.46578 -0.35388 z m 12.75604,0 h 12.32207 v 4.46588 h -12.32397 z m 12.83242,0 h 12.32798 v 4.46588 h -12.32597 z m 12.68376,0 h 12.40226 v 4.46588 h -12.40226 z m 12.75614,0 h 12.40416 v 4.46588 h -12.40416 z m 12.75814,0 h 12.32597 v 4.46588 H 205.5027 Z m 12.83623,0 H 230.663 v 4.46588 h -12.32407 z m 12.67795,0 h 12.40416 v 4.46588 h -12.40416 z m 12.75804,0 h 12.40426 v 4.46588 h -12.40426 z m 12.75814,0 h 12.32788 v 4.46588 h -12.32597 z m 25.51418,0 h 12.40416 v 4.46588 h -12.40416 z m 12.75804,0 h 12.40226 v 4.46588 h -12.40226 z m 12.75815,0 h 12.32206 v 4.46588 h -12.32207 z m 12.83232,0 h 12.32797 v 4.46588 h -12.32797 z m 12.68185,0 h 12.40416 v 4.46588 H 333.0776 Z m 12.75815,0 h 12.40215 v 4.46588 h -12.40215 z m 12.75603,0 h 12.32407 v 4.46588 h -12.32407 z m 12.83443,0 h 12.32787 v 4.46588 h -12.32787 z m 12.68176,0 h 12.40225 v 4.46588 h -12.40225 z m 12.75814,0 h 12.40215 v 4.46588 h -12.40215 z m 12.75614,0 h 12.32396 v 4.46588 h -12.32396 z m 12.83432,0 h 12.32597 v 4.46588 h -12.32597 z m 25.4379,0 h 12.40415 v 4.46588 h -12.40415 z m 12.75814,0 h 12.32396 v 4.46588 h -12.32396 z m 12.84013,0 h 12.32016 v 4.46588 h -12.32016 z m 12.67595,0 h 12.40225 v 4.46588 h -12.40225 z m 12.75614,0 h 12.40425 v 4.46588 h -12.40425 z m 12.75814,0 h 12.32396 v 4.46588 h -12.32396 z m 12.84013,0 h 12.32016 v 4.46588 H 524.5231 Z m 12.67405,0 h 12.40415 v 4.46588 h -12.40415 z m 12.75804,0 h 12.40225 v 4.46588 h -12.40225 z m 63.7904,0.14275 h 12.32797 v 4.46388 h -12.32797 z m 12.83242,0 h 12.32988 v 4.46388 h -12.32988 z m 12.68376,0 h 12.40226 v 4.46388 h -12.40226 z m 12.75814,0 h 12.40216 v 4.46388 h -12.40216 z m 12.75614,0 h 12.32597 v 4.46388 h -12.32597 z m 12.83233,0 h 12.32797 v 4.46388 h -12.32797 z m 12.68375,0 h 12.40226 v 4.46388 h -12.40226 z m 12.75614,0 h 12.40426 v 4.46388 h -12.40426 z m 12.75814,0 h 12.32207 v 4.46388 h -12.32207 z m 12.83233,0 h 12.32797 v 4.46388 h -12.32797 z m 12.68185,0 h 12.40416 v 4.46388 h -12.40416 z m 25.51619,0 h 12.29073 v 4.46388 h -12.29073 z m 12.84413,0 h 12.31616 v 4.46388 h -12.31816 z m 12.67004,0 h 12.40416 v 4.46388 h -12.40416 z m 12.75815,0 h 12.32196 v 4.46388 H 805.1091 Z m -727.105121,4.67701 h 12.32597 v 4.46578 h -12.32597 z m 12.68176,0 h 12.402251 v 4.46578 H 90.685739 Z m 63.786501,0 h 12.32407 v 4.46578 h -12.32407 z m 12.83443,0 h 12.32597 v 4.46578 h -12.32597 z m 12.68175,0 h 12.40226 v 4.46578 h -12.40226 z m 12.75614,0 h 12.40416 v 4.46578 h -12.40416 z m 12.75814,0 h 12.32597 v 4.46578 H 205.5027 Z m 12.83623,0 H 230.663 v 4.46578 h -12.32407 z m 12.67795,0 h 12.40416 v 4.46578 h -12.40416 z m 12.75804,0 h 12.40426 v 4.46578 h -12.40426 z m 12.75814,0 h 12.32597 v 4.46578 h -12.32597 z m 25.51418,0 h 12.40416 v 4.46578 h -12.40416 z m 12.75804,0 h 12.40226 v 4.46578 h -12.40226 z m 12.75815,0 h 12.32206 v 4.46578 h -12.32207 z m 12.83232,0 h 12.32797 v 4.46578 h -12.32797 z m 12.68185,0 h 12.40416 v 4.46578 H 333.0776 Z m 12.75815,0 h 12.40215 v 4.46578 h -12.40215 z m 12.75603,0 h 12.32407 v 4.46578 h -12.32407 z m 12.83443,0 h 12.32787 v 4.46578 h -12.32787 z m 12.68176,0 h 12.40225 v 4.46578 h -12.40225 z m 12.75814,0 h 12.40215 v 4.46578 h -12.40215 z m 12.75614,0 h 12.32396 v 4.46578 h -12.32396 z m 12.83432,0 h 12.32597 v 4.46578 h -12.32597 z m 25.4379,0 h 12.40415 v 4.46578 h -12.40415 z m 12.75814,0 h 12.32396 v 4.46578 h -12.32396 z m 12.84013,0 h 12.32016 v 4.46578 h -12.32016 z m 12.67595,0 h 12.40225 v 4.46578 h -12.40225 z m 12.75614,0 h 12.40425 v 4.46578 h -12.40425 z m 12.75814,0 h 12.32396 v 4.46578 h -12.32396 z m 12.84013,0 h 12.32016 v 4.46578 H 524.5231 Z m 12.67405,0 h 12.40415 v 4.46578 h -12.40415 z m 12.75804,0 h 12.40225 v 4.46578 h -12.40225 z m 63.7904,0.14276 h 12.32797 v 4.46388 h -12.32797 z m 12.83242,0 h 12.32988 v 4.46388 h -12.32988 z m 12.68376,0 h 12.40226 v 4.46388 h -12.40226 z m 12.75814,0 h 12.40216 v 4.46388 h -12.40216 z m 12.75614,0 h 12.32597 v 4.46388 h -12.32597 z m 12.83233,0 h 12.32797 v 4.46388 h -12.32797 z m 12.68375,0 h 12.40226 v 4.46388 h -12.40226 z m 12.75614,0 h 12.40426 v 4.46388 h -12.40426 z m 12.75814,0 h 12.32207 v 4.46388 h -12.32207 z m 12.83233,0 h 12.32797 v 4.46388 h -12.32797 z m 12.68185,0 h 12.40416 v 4.46388 h -12.40416 z m 25.51619,0 h 12.29073 v 4.46388 h -12.29073 z m 12.84213,0 h 12.31816 v 4.46388 h -12.32006 z m 12.67204,0 h 12.40416 v 4.46388 h -12.40416 z m 12.75815,0 h 12.32196 v 4.46388 H 805.1091 Z m -688.8329,4.67691 h 12.32798 v 3.04833 h 0.35388 v -3.04833 h 12.40225 v 3.04833 h 0.35589 v -3.04833 h 12.40216 v 3.04833 h 0.35388 v -3.04833 h 12.32407 v 3.18908 H 116.2762 Z m 51.03047,0 h 12.32597 v 3.04833 h 0.35578 v -3.04833 h 12.40226 v 3.04833 h 0.35388 v -3.04833 h 12.40416 v 3.04833 h 0.35398 v -3.04833 h 12.32597 v 3.18908 h -50.522 z m 51.03226,0 H 230.663 v 3.04833 h 0.35388 v -3.04833 h 12.40416 v 3.04833 h 0.35388 v -3.04833 h 12.40426 v 3.04833 h 0.35388 v -3.04833 h 12.32597 v 3.18908 h -50.5201 z m 102.05682,0 h 12.32797 v 3.04833 h 0.35388 v -3.04833 h 12.40416 v 3.04833 h 0.35399 v -3.04833 h 12.40215 v 3.04833 h 0.35388 v -3.04833 h 12.32407 v 3.18908 h -50.5201 z m 51.03046,0 h 12.32787 v 3.04833 h 0.35389 v -3.04833 h 12.40225 v 3.04833 h 0.35589 v -3.04833 h 12.40215 v 3.04833 h 0.35399 v -3.04833 h 12.32396 v 3.18908 h -50.52 z m 102.06653,0 h 12.32016 v 3.04833 h 0.35389 v -3.04833 h 12.40225 v 3.04833 h 0.35388 v -3.04833 h 12.40416 v 3.04833 h 0.35389 v -3.04833 h 12.32406 v 3.18908 h -50.5142 z m 140.25285,0.14085 h 12.32797 v 3.04823 h -12.32797 z m 12.83242,0 h 12.32988 v 3.04823 h -12.32988 z m 12.68376,0 h 12.40226 v 3.04823 h -12.40226 z m 12.75814,0 h 12.40216 v 3.04823 h -12.40216 z m 12.75614,0 h 12.32597 v 3.04823 h -12.32597 z m 12.83233,0 h 12.32797 v 3.04823 h -12.32797 z m 12.68375,0 h 12.40226 v 3.04823 h -12.40226 z m 12.75614,0 h 12.40426 v 3.04823 h -12.40426 z m 12.75814,0 h 12.32207 v 3.04823 h -12.32207 z m 12.83233,0 h 12.32797 v 3.04823 h -12.32797 z m 12.68185,0 h 12.40416 v 3.04823 h -12.40416 z m 25.51619,0 h 12.29073 v 3.04823 h -12.29073 z m 12.84023,0 h 12.32006 v 3.04823 h -12.32006 z m 12.67394,0 h 12.40416 v 3.04823 h -12.40416 z m 12.75815,0 h 12.32196 v 3.04823 H 805.1091 Z m -727.105121,6.16684 h 37.773681 v 1.14976 h -12.33578 v -0.42437 h -0.35389 v 0.42627 H 90.685739 v -0.42426 h -0.35579 v 0.42626 h -12.32597 z m 38.272221,0 h 50.52011 v 1.14185 h -12.32407 v -0.42426 h -0.35388 v 0.42626 H 141.7162 v -0.42426 h -0.35589 v 0.42626 h -12.40225 v -0.42436 h -0.35388 v 0.42627 H 116.2762 Z m 51.03047,0 h 50.522 v 33.59341 h -50.5201 v -3.18908 h 12.32407 v 3.04823 h 0.35578 v -3.04823 h 12.40226 v 3.04823 h 0.35388 v -3.04823 h 12.40416 v 3.04823 h 0.35398 v -32.74278 h -0.35398 v 0.42626 h -12.40416 v -0.42426 h -0.35388 v 0.42617 h -12.40226 v -0.42427 h -0.35578 v 0.42627 h -12.32597 z m 51.03226,0 h 50.5201 v 1.15757 h -12.32597 v -0.42437 h -0.35388 v 0.42627 h -12.40426 v -0.42426 h -0.35388 v 0.42626 H 231.01688 V 181.7182 H 230.663 v 0.42616 h -12.32407 z m 51.02846,0 h 50.5181 v 1.14976 h -12.32207 v -0.42437 h -0.35588 v 0.42627 h -12.40226 v -0.42426 h -0.35388 v 0.42626 h -12.40416 v -0.42436 h -0.35388 v 0.42626 h -12.32597 z m 51.02836,0 h 50.5201 v 1.14185 h -12.32407 v -0.42426 h -0.35388 v 0.42626 h -12.40215 v -0.42426 h -0.35399 v 0.42626 H 333.0776 v -0.42436 h -0.35388 v 0.42627 h -12.32797 z m 51.03046,0 h 50.52 v 33.59341 h -50.52 v -3.18908 h 12.32597 v 3.04823 h 0.35388 v -3.04823 h 12.40216 v 3.04823 h 0.35588 v -3.04823 h 12.40226 v 3.04823 h 0.35388 v -32.74278 h -0.35388 v 0.42626 H 396.8641 v -0.42426 h -0.35588 v 0.42617 h -12.40216 v -0.42427 h -0.35388 v 0.42627 h -12.32797 z m 51.03036,0 h 50.52 v 1.15166 h -12.32396 v -0.42426 h -0.35399 v 0.42626 h -12.40415 v -0.42436 h -0.35389 v 0.42626 h -12.40225 v -0.42426 h -0.35579 v 0.42627 h -12.32597 z m 51.03426,0 h 50.5161 v 1.14385 h -12.32396 v -0.42426 h -0.35389 v 0.42626 h -12.40425 v -0.42436 h -0.35389 v 0.42627 h -12.40225 v -0.42427 h -0.35389 v 0.42627 h -12.32206 z m 51.03037,0 h 50.5161 v 1.13604 h -12.32397 v -0.42426 h -0.35589 v 0.42617 h -12.40225 v -0.42427 h -0.35389 v 0.42627 h -12.40415 v -0.42427 h -0.35389 v 0.42617 H 524.5212 Z m 102.05681,0 h 50.52401 v 1.2768 h -12.32597 v -0.42627 h -0.35398 v 0.42627 h -12.40216 v -0.42627 h -0.35588 v 0.42627 h -12.40226 v -0.42627 h -0.35388 v 0.42627 h -12.32988 z m 51.03037,0 h 50.5201 v 33.59341 h -12.32207 v -32.74288 h -0.35388 v 0.42627 h -12.40426 v -0.42627 h -0.35388 v 0.42627 h -12.40226 v -0.42627 h -0.35578 v 0.42627 h -12.32797 z m 51.03036,0 h 50.48877 v 1.2768 h -12.29073 v -0.42627 h -0.35389 v 0.42627 h -12.40426 v -0.42627 h -0.35388 v 0.42627 h -12.40416 v -0.42627 h -0.35388 v 0.42627 h -12.32797 z m 51.03827,0 h 37.75405 v 1.2768 H 805.1091 v -0.42627 h -0.35399 v 0.42627 h -12.40416 v -0.42627 h -0.35388 v 0.42627 h -12.32006 z m -701.673031,1.48803 h 12.32597 v 4.46578 h -12.32597 z m 12.68176,0 h 12.402251 v 4.46578 H 90.685739 Z m 12.756141,0 h 12.33578 v 4.46578 h -12.33378 z m 12.83432,0 h 12.32798 v 4.46578 H 116.2762 Z m 12.68186,0 h 12.40225 v 4.46578 h -12.40225 z m 12.75814,0 h 12.40216 v 4.46578 H 141.7162 Z m 12.75604,0 h 12.32407 v 4.46578 h -12.32407 z m 12.83443,0 h 12.32597 v 4.46578 h -12.32597 z m 12.68175,0 h 12.40226 v 4.46578 h -12.40226 z m 12.75614,0 h 12.40416 v 4.46578 h -12.40416 z m 25.59437,0 H 230.663 v 4.46578 h -12.32407 z m 12.67795,0 h 12.40416 v 4.46578 h -12.40416 z m 12.75804,0 h 12.40426 v 4.46578 h -12.40426 z m 12.75814,0 h 12.32597 v 4.46578 h -12.32597 z m 12.83433,0 h 12.32597 v 4.46578 h -12.32597 z m 12.67985,0 h 12.40416 v 4.46578 h -12.40416 z m 12.75804,0 h 12.40226 v 4.46578 h -12.40226 z m 12.75815,0 h 12.32206 v 4.46578 h -12.32207 z m 12.83232,0 h 12.32797 v 4.46578 h -12.32797 z m 12.68185,0 h 12.40416 v 4.46578 H 333.0776 Z m 12.75815,0 h 12.40215 v 4.46578 h -12.40215 z m 12.75603,0 h 12.32407 v 4.46578 h -12.32407 z m 12.83443,0 h 12.32787 v 4.46578 h -12.32787 z m 12.68176,0 h 12.40225 v 4.46578 h -12.40225 z m 12.75814,0 h 12.40215 v 4.46578 h -12.40215 z m 25.59046,0 h 12.32597 v 4.46578 h -12.32597 z m 12.68176,0 h 12.40225 v 4.46578 h -12.40225 z m 12.75614,0 h 12.40415 v 4.46578 h -12.40415 z m 12.75814,0 h 12.32396 v 4.46578 h -12.32396 z m 12.83822,0 h 12.32207 v 4.46578 h -12.32207 z m 12.67786,0 h 12.40225 v 4.46578 h -12.40225 z m 12.75614,0 h 12.40425 v 4.46578 h -12.40425 z m 12.75814,0 h 12.32396 v 4.46578 h -12.32396 z m 12.83823,0 h 12.32206 v 4.46578 H 524.5212 Z m 12.67595,0 h 12.40415 v 4.46578 h -12.40415 z m 12.75804,0 h 12.40225 v 4.46578 h -12.40225 z m 12.75814,0 h 12.32397 v 4.46578 h -12.32397 z m 63.86468,0.14265 h 12.32988 v 4.46388 h -12.32988 z m 12.68376,0 h 12.40226 v 4.46388 h -12.40226 z m 12.75814,0 h 12.40216 v 4.46388 h -12.40216 z m 12.75614,0 h 12.32597 v 4.46388 h -12.32597 z m 12.83233,0 h 12.32797 v 4.46388 h -12.32797 z m 12.68375,0 h 12.40226 v 4.46388 h -12.40226 z m 12.75614,0 h 12.40426 v 4.46388 h -12.40426 z m 25.59047,0 h 12.32797 v 4.46388 0.35589 4.46388 h -12.32797 v -4.46388 -0.35589 z m 12.68185,0 h 12.40416 v 4.46388 0.35589 4.46388 h -12.40416 v -4.46388 -0.35589 z m 12.75804,0 h 12.40426 v 4.46388 0.35589 4.46388 h -12.40426 v -4.46388 -0.35589 z m 12.75815,0 h 12.29073 v 4.46388 h -12.29073 z m 12.84023,0 h 12.32006 v 4.46388 H 779.675 Z m 12.67394,0 h 12.40416 v 4.46388 h -12.40416 z m 12.75815,0 h 12.32196 v 4.46388 H 805.1091 Z m -727.105121,4.67701 h 12.32597 v 4.46578 h -12.32597 z m 12.68176,0 h 12.402251 v 4.46578 H 90.685739 Z m 12.756141,0 h 12.33378 v 4.46578 h -12.33178 z m 12.83432,0 h 12.32798 v 4.46578 H 116.2762 Z m 12.68186,0 h 12.40225 v 4.46578 h -12.40225 z m 12.75814,0 h 12.40216 v 4.46578 H 141.7162 Z m 12.75604,0 h 12.32407 v 4.46578 h -12.32407 z m 12.83443,0 h 12.32597 v 4.46578 h -12.32597 z m 12.68175,0 h 12.40226 v 4.46578 h -12.40226 z m 12.75614,0 h 12.40416 v 4.46578 h -12.40416 z m 25.59437,0 H 230.663 v 4.46578 h -12.32407 z m 12.67795,0 h 12.40416 v 4.46578 h -12.40416 z m 12.75804,0 h 12.40426 v 4.46578 0.35399 4.46378 h -12.40426 v -4.46378 -0.35399 z m 12.75814,0 h 12.32597 v 4.46578 h -12.32597 z m 12.83433,0 h 12.32597 v 4.46578 h -12.32597 z m 12.67985,0 h 12.40416 v 4.46578 h -12.40416 z m 12.75804,0 h 12.40226 v 4.46578 h -12.40226 z m 12.75815,0 h 12.32206 v 4.46578 h -12.32207 z m 12.83232,0 h 12.32797 v 4.46578 h -12.32797 z m 12.68185,0 h 12.40416 v 4.46578 H 333.0776 Z m 12.75815,0 h 12.40215 v 4.46578 h -12.40215 z m 12.75603,0 h 12.32407 v 4.46578 h -12.32407 z m 12.83443,0 h 12.32787 v 4.46578 h -12.32787 z m 12.68176,0 h 12.40225 v 4.46578 h -12.40225 z m 12.75814,0 h 12.40215 v 4.46578 h -12.40215 z m 25.59046,0 h 12.32597 v 4.46578 h -12.32597 z m 12.68176,0 h 12.40225 v 4.46578 h -12.40225 z m 12.75614,0 h 12.40415 v 4.46578 h -12.40415 z m 12.75814,0 h 12.32396 v 4.46578 h -12.32396 z m 12.83822,0 h 12.32207 v 4.46578 h -12.32207 z m 12.67786,0 h 12.40225 v 4.46578 h -12.40225 z m 12.75614,0 h 12.40425 v 4.46578 h -12.40425 z m 12.75814,0 h 12.32396 v 4.46578 h -12.32396 z m 12.83823,0 h 12.32206 v 4.46578 H 524.5212 Z m 12.67595,0 h 12.40415 v 4.46578 h -12.40415 z m 12.75804,0 h 12.40225 v 4.46578 h -12.40225 z m 12.75814,0 h 12.32397 v 4.46578 h -12.32397 z m 63.86468,0.14276 h 12.32988 v 4.46388 h -12.32988 z m 12.68376,0 h 12.40226 v 4.46388 h -12.40226 z m 12.75814,0 h 12.40216 v 4.46388 h -12.40216 z m 12.75614,0 h 12.32597 v 4.46388 h -12.32597 z m 12.83233,0 h 12.32797 v 4.46388 h -12.32797 z m 12.68375,0 h 12.40226 v 4.46388 h -12.40226 z m 12.75614,0 h 12.40426 v 4.46388 h -12.40426 z m 63.78851,0 h 12.29073 v 4.46388 h -12.29073 z m 12.83822,0 h 12.32207 v 4.46388 H 779.675 Z m 12.67595,0 h 12.40416 v 4.46388 h -12.40416 z m 12.75815,0 h 12.32196 v 4.46388 H 805.1091 Z m -727.105121,4.67701 h 12.32597 v 4.46378 h -12.32597 z m 12.68176,0 h 12.402251 v 4.46378 H 90.685739 Z m 12.756141,0 h 12.33188 v 4.46378 h -12.33188 z m 12.83432,0 h 12.32798 v 4.46378 H 116.2762 Z m 12.68186,0 h 12.40225 v 4.46378 h -12.40225 z m 12.75814,0 h 12.40216 v 4.46378 H 141.7162 Z m 12.75604,0 h 12.32407 v 4.46378 h -12.32407 z m 12.83443,0 h 12.32597 v 4.46378 h -12.32597 z m 12.68175,0 h 12.40226 v 4.46378 h -12.40226 z m 12.75614,0 h 12.40416 v 4.46378 h -12.40416 z m 25.59437,0 H 230.663 v 4.46378 h -12.32407 z m 12.67795,0 h 12.40416 v 4.46378 h -12.40416 z m 25.51618,0 h 12.32597 v 4.46378 h -12.32597 z m 12.83433,0 h 12.32597 v 4.46378 h -12.32597 z m 12.67985,0 h 12.40416 v 4.46378 h -12.40416 z m 12.75804,0 h 12.40226 v 4.46378 h -12.40226 z m 12.75815,0 h 12.32206 v 4.46378 h -12.32207 z m 12.83232,0 h 12.32797 v 4.46378 h -12.32797 z m 12.68185,0 h 12.40416 v 4.46378 H 333.0776 Z m 12.75815,0 h 12.40215 v 4.46378 h -12.40215 z m 12.75603,0 h 12.32407 v 4.46378 h -12.32407 z m 12.83443,0 h 12.32787 v 4.46378 h -12.32787 z m 12.68176,0 h 12.40225 v 4.46378 h -12.40225 z m 12.75814,0 h 12.40215 v 4.46378 h -12.40215 z m 25.59046,0 h 12.32597 v 4.46378 h -12.32597 z m 12.68176,0 h 12.40225 v 4.46378 h -12.40225 z m 12.75614,0 h 12.40415 v 4.46378 h -12.40415 z m 12.75814,0 h 12.32396 v 4.46378 h -12.32396 z m 12.83822,0 h 12.32207 v 4.46378 h -12.32207 z m 12.67786,0 h 12.40225 v 4.46378 h -12.40225 z m 12.75614,0 h 12.40425 v 4.46378 h -12.40425 z m 12.75814,0 h 12.32396 v 4.46378 h -12.32396 z m 12.83823,0 h 12.32206 v 4.46378 H 524.5212 Z m 12.67595,0 h 12.40415 v 4.46378 h -12.40415 z m 12.75804,0 h 12.40225 v 4.46378 h -12.40225 z m 12.75814,0 h 12.32397 v 4.46378 h -12.32397 z m 63.86468,0.14076 h 12.32988 v 4.46577 h -12.32988 z m 12.68376,0 h 12.40226 v 4.46577 h -12.40226 z m 12.75814,0 h 12.40216 v 4.46577 h -12.40216 z m 12.75614,0 h 12.32597 v 4.46577 h -12.32597 z m 12.83233,0 h 12.32797 v 4.46577 h -12.32797 z m 12.68375,0 h 12.40226 v 4.46577 h -12.40226 z m 12.75614,0 h 12.40426 v 4.46577 h -12.40426 z m 25.59047,0 h 12.32797 v 4.46577 0.35389 4.46588 h -12.32797 v -4.46588 -0.35389 z m 12.68185,0 h 12.40416 v 4.46577 0.35389 4.46588 h -12.40416 v -4.46588 -0.35389 z m 12.75804,0 h 12.40426 v 4.46577 0.35389 4.46588 h -12.40426 v -4.46588 -0.35389 z m 12.75815,0 h 12.29073 v 4.46577 h -12.29073 z m 12.83822,0 h 12.32207 v 4.46577 H 779.673 Z m 12.67595,0 h 12.40416 v 4.46577 h -12.40416 z m 12.75815,0 h 12.32196 v 4.46577 H 805.1091 Z m -727.105121,4.67891 h 12.32597 v 4.46388 h -12.32406 z m 12.68176,0 H 103.08799 V 201.392 H 90.685739 Z m 12.756141,0 h 12.33188 v 4.46388 h -12.32988 z m 12.83432,0 h 12.32798 v 4.46388 h -12.32597 z m 12.68186,0 h 12.40225 v 4.46388 h -12.40225 z m 12.75814,0 h 12.40216 V 201.392 H 141.7162 Z m 12.75604,0 h 12.32407 v 4.46388 h -12.32597 z m 12.83443,0 h 12.32597 v 4.46388 h -12.32407 z m 12.68175,0 h 12.40226 v 4.46388 h -12.40226 z m 12.75614,0 h 12.40416 v 4.46388 h -12.40416 z m 25.59437,0 H 230.663 v 4.46388 h -12.32407 z m 12.67795,0 h 12.40416 v 4.46388 h -12.40416 z m 12.75804,0 h 12.40426 v 4.46388 h -12.40426 z m 12.75814,0 h 12.32597 v 4.46388 h -12.32406 z m 12.83433,0 h 12.32597 v 4.46388 h -12.32597 z m 12.67985,0 h 12.40416 v 4.46388 h -12.40416 z m 12.75804,0 h 12.40226 v 4.46388 h -12.40226 z m 12.75815,0 h 12.32206 v 4.46388 h -12.32407 z m 12.83232,0 h 12.32797 v 4.46388 h -12.32597 z m 12.68185,0 h 12.40416 V 201.392 H 333.0776 Z m 12.75815,0 h 12.40215 v 4.46388 h -12.40215 z m 12.75603,0 h 12.32407 v 4.46388 h -12.32597 z m 12.83443,0 h 12.32787 v 4.46388 h -12.32597 z m 12.68176,0 h 12.40225 v 4.46388 h -12.40225 z m 12.75814,0 h 12.40215 v 4.46388 h -12.40215 z m 25.59046,0 h 12.32597 v 4.46388 h -12.32407 z m 12.68176,0 h 12.40225 v 4.46388 h -12.40225 z m 12.75614,0 h 12.40415 v 4.46388 h -12.40415 z m 12.75814,0 h 12.32396 V 201.392 H 460.6506 Z m 12.83822,0 h 12.32207 v 4.46388 h -12.32407 z m 12.67786,0 h 12.40225 v 4.46388 h -12.40225 z m 12.75614,0 h 12.40425 v 4.46388 h -12.40425 z m 12.75814,0 h 12.32396 v 4.46388 h -12.32596 z m 12.83823,0 h 12.32206 v 4.46388 h -12.32407 z m 12.67595,0 h 12.40415 v 4.46388 h -12.40415 z m 12.75804,0 h 12.40225 v 4.46388 h -12.40225 z m 12.75814,0 h 12.32397 v 4.46388 h -12.32397 z m 63.86468,0.14075 h 12.32988 v 4.46588 h -12.32988 z m 12.68376,0 h 12.40226 v 4.46588 h -12.40226 z m 12.75814,0 h 12.40216 v 4.46588 h -12.40216 z m 12.75614,0 h 12.32597 v 4.46588 h -12.32797 z m 12.83233,0 h 12.32797 v 4.46588 h -12.32797 z m 12.68375,0 h 12.40226 v 4.46588 h -12.40226 z m 12.75614,0 h 12.40426 v 4.46588 h -12.40426 z m 63.78851,0 h 12.29073 v 4.46588 h -12.29073 z m 12.83622,0 h 12.32407 v 4.46588 H 779.673 Z m 12.67795,0 h 12.40416 v 4.46588 h -12.40416 z m 12.75815,0 h 12.32196 v 4.46588 H 805.1091 Z m -727.103211,4.67901 h 12.32406 v 4.46388 h -12.32406 z m 12.67985,0 h 12.402251 v 4.46388 H 90.685739 Z m 12.756141,0 h 12.32987 v 4.46388 h -12.32787 z m 12.83633,0 h 12.32597 v 4.46388 h -12.32597 z m 12.67985,0 h 12.40225 v 4.46388 h -12.40225 z m 12.75814,0 h 12.40216 v 4.46388 H 141.7162 Z m 12.75604,0 h 12.32597 v 4.46388 h -12.32597 z m 12.83633,0 h 12.32407 v 4.46388 h -12.32407 z m 12.67985,0 h 12.40226 v 4.46388 h -12.40226 z m 12.75614,0 h 12.40416 v 4.46388 h -12.40416 z m 25.59437,0 H 230.663 v 4.46388 h -12.32407 z m 12.67795,0 h 12.40416 v 4.46388 h -12.40416 z m 12.75804,0 h 12.40426 v 4.46388 h -12.40426 z m 12.75814,0 h 12.32397 v 4.46388 h -12.32397 z m 12.83433,0 h 12.32597 v 4.46388 h -12.32597 z m 12.67985,0 h 12.40416 v 4.46388 h -12.40416 z m 12.75804,0 h 12.40226 v 4.46388 h -12.40226 z m 12.75815,0 h 12.32396 v 4.46388 h -12.32397 z m 12.83432,0 h 12.32597 v 4.46388 h -12.32597 z m 12.67985,0 h 12.40416 v 4.46388 H 333.0776 Z m 12.75815,0 h 12.40215 v 4.46388 h -12.40215 z m 12.75603,0 h 12.32597 v 4.46388 h -12.32597 z m 12.83633,0 h 12.32597 v 4.46388 h -12.32597 z m 12.67986,0 h 12.40225 v 4.46388 h -12.40225 z m 12.75814,0 h 12.40215 v 4.46388 h -12.40215 z m 25.59236,0 h 12.32407 v 4.46388 h -12.32407 z m 12.67986,0 h 12.40225 v 4.46388 h -12.40225 z m 12.75614,0 h 12.40415 v 4.46388 h -12.40415 z m 12.75814,0 h 12.32597 v 4.46388 h -12.32597 z m 12.83622,0 h 12.32407 v 4.46388 h -12.32407 z m 12.67986,0 h 12.40225 v 4.46388 h -12.40225 z m 12.75614,0 h 12.40425 v 4.46388 h -12.40425 z m 12.75814,0 h 12.32597 v 4.46388 h -12.32597 z m 12.83622,0 h 12.32407 v 4.46388 h -12.32407 z m 12.67796,0 h 12.40415 v 4.46388 h -12.40415 z m 12.75804,0 h 12.40225 v 4.46388 h -12.40225 z m 12.75814,0 h 12.32397 v 4.46388 h -12.32397 z m 63.86468,0.14076 h 12.32988 v 4.46578 h -12.32988 z m 12.68376,0 h 12.40226 v 4.46578 h -12.40226 z m 12.75814,0 h 12.40216 v 4.46578 h -12.40216 z m 12.75614,0 h 12.32787 v 4.46578 h -12.32787 z m 12.83233,0 h 12.32797 v 4.46578 h -12.32797 z m 12.68375,0 h 12.40226 v 4.46578 h -12.40226 z m 12.75614,0 h 12.40426 v 4.46578 h -12.40426 z m 25.59047,0 h 12.32797 v 4.46578 0.35388 4.46588 h -12.32797 v -4.46588 -0.35388 z m 12.68185,0 h 12.40416 v 4.46578 0.35388 4.46588 h -12.40416 v -4.46588 -0.35388 z m 12.75804,0 h 12.40426 v 4.46578 0.35388 4.46588 h -12.40426 v -4.46588 -0.35388 z m 12.75815,0 h 12.29073 v 4.46578 h -12.29073 z m 12.83622,0 h 12.32407 v 4.46578 H 779.6711 Z m 12.67795,0 h 12.40416 v 4.46578 h -12.40416 z m 12.75815,0 h 12.32196 v 4.46578 H 805.1091 Z m -727.103211,4.67701 h 12.32406 v 4.46578 h -12.32406 z m 12.67985,0 h 12.402251 v 4.46578 H 90.685739 Z m 12.756141,0 h 12.32797 v 4.46578 h -12.32797 z m 12.83633,0 h 12.32597 v 4.46578 h -12.32597 z m 12.67985,0 h 12.40225 v 4.46578 h -12.40225 z m 12.75814,0 h 12.40216 v 4.46578 H 141.7162 Z m 12.75604,0 h 12.32597 v 4.46578 h -12.32597 z m 12.83633,0 h 12.32407 v 4.46578 h -12.32407 z m 12.67985,0 h 12.40226 v 4.46578 h -12.40226 z m 12.75614,0 h 12.40416 v 4.46578 h -12.40416 z m 25.59437,0 H 230.663 v 4.46578 h -12.32407 z m 12.67795,0 h 12.40416 v 4.46578 h -12.40416 z m 12.75804,0 h 12.40426 v 4.46578 h -12.40426 z m 12.75814,0 h 12.32397 v 4.46578 h -12.32397 z m 12.83433,0 h 12.32597 v 4.46578 h -12.32597 z m 12.67985,0 h 12.40416 v 4.46578 h -12.40416 z m 12.75804,0 h 12.40226 v 4.46578 h -12.40226 z m 12.75815,0 h 12.32396 v 4.46578 h -12.32397 z m 12.83432,0 h 12.32597 v 4.46578 h -12.32597 z m 12.67985,0 h 12.40416 v 4.46578 H 333.0776 Z m 12.75815,0 h 12.40215 v 4.46578 h -12.40215 z m 12.75603,0 h 12.32597 v 4.46578 h -12.32597 z m 12.83633,0 h 12.32597 v 4.46578 h -12.32597 z m 12.67986,0 h 12.40225 v 4.46578 h -12.40225 z m 12.75814,0 h 12.40215 v 4.46578 h -12.40215 z m 25.59236,0 h 12.32407 v 4.46578 h -12.32407 z m 12.67986,0 h 12.40225 v 4.46578 h -12.40225 z m 12.75614,0 h 12.40415 v 4.46578 h -12.40415 z m 12.75814,0 h 12.32597 v 4.46578 h -12.32597 z m 12.83622,0 h 12.32407 v 4.46578 h -12.32407 z m 12.67986,0 h 12.40225 v 4.46578 h -12.40225 z m 12.75614,0 h 12.40425 v 4.46578 h -12.40425 z m 12.75814,0 h 12.32597 v 4.46578 h -12.32597 z m 12.83622,0 h 12.32407 v 4.46578 h -12.32407 z m 12.67796,0 h 12.40415 v 4.46578 h -12.40415 z m 12.75804,0 h 12.40225 v 4.46578 h -12.40225 z m 12.75814,0 h 12.32397 v 4.46578 h -12.32397 z m 63.86468,0.14265 h 12.32988 v 4.46588 h -12.32988 z m 12.68376,0 h 12.40226 v 4.46588 h -12.40226 z m 12.75814,0 h 12.40216 v 4.46588 h -12.40216 z m 12.75614,0 h 12.32787 v 4.46588 h -12.32787 z m 12.83233,0 h 12.32797 v 4.46588 h -12.32797 z m 12.68375,0 h 12.40226 v 4.46588 h -12.40226 z m 12.75614,0 h 12.40426 v 4.46588 h -12.40426 z m 63.78851,0 h 12.29073 v 4.46588 h -12.29073 z m 12.83432,0 h 12.32597 v 4.46588 H 779.6691 Z m 12.67985,0 h 12.40416 v 4.46588 h -12.40416 z m 12.75815,0 h 12.32196 v 4.46588 H 805.1091 Z m -727.103211,4.67702 h 12.32406 v 3.04823 h 0.35579 v -3.04823 h 12.402251 v 3.04823 h 0.35389 v -3.04823 h 12.32597 v 3.18908 H 78.005889 Z m 38.272321,0 h 12.32597 v 3.04823 h 0.35388 v -3.04823 h 12.40225 v 3.04823 h 0.35589 v -3.04823 h 12.40216 v 3.04823 h 0.35388 v -3.04823 h 12.32597 v 3.18908 h -50.52 z m 102.06072,0 H 230.663 v 3.04823 h 0.35388 v -3.04823 h 12.40416 v 3.04823 h 0.35388 v -3.04823 h 12.40426 v 3.04823 h 0.35388 v -3.04823 h 12.32397 v 3.18908 h -50.5181 z m 51.02846,0 h 12.32597 v 3.04823 h 0.35388 v -3.04823 h 12.40416 v 3.04823 h 0.35388 v -3.04823 h 12.40226 v 3.04823 h 0.35589 v -3.04823 h 12.32396 v 3.18908 h -50.52 z m 51.03036,0 h 12.32597 v 3.04823 h 0.35388 v -3.04823 h 12.40416 v 3.04823 h 0.35399 v -3.04823 h 12.40215 v 3.04823 h 0.35388 v -3.04823 h 12.32597 v 3.18908 h -50.52 z m 102.06072,0 h 12.32407 v 3.04823 h 0.35579 v -3.04823 h 12.40225 v 3.04823 h 0.35389 v -3.04823 h 12.40415 v 3.04823 h 0.35399 v -3.04823 h 12.32597 v 3.18908 h -50.52011 z m 51.03036,0 h 12.32407 v 3.04823 h 0.35389 v -3.04823 h 12.40225 v 3.04823 h 0.35388 v -3.04823 h 12.40416 v 3.04823 h 0.35389 v -3.04823 h 12.32596 v 3.18908 h -50.52 z m 51.03036,0 h 12.32407 v 3.04823 h 0.35389 v -3.04823 h 12.40415 v 3.04823 h 0.35389 v -3.04823 h 12.40225 v 3.04823 h 0.35589 v -3.04823 h 12.32397 v 3.18908 h -50.51811 z m 102.05882,0.14275 h 12.32988 v 3.04633 h -12.32988 z m 12.68376,0 h 12.40226 v 3.04633 h -12.40226 z m 12.75814,0 h 12.40216 v 3.04633 h -12.40216 z m 12.75614,0 h 12.32787 v 3.04633 h -12.32787 z m 12.83233,0 h 12.32797 v 3.04633 h -12.32797 z m 12.68375,0 h 12.40226 v 3.04633 h -12.40226 z m 12.75614,0 h 12.40426 v 3.04633 h -12.40426 z m 25.59047,0 h 12.32797 v 3.04633 h -12.32797 z m 12.68185,0 h 12.40416 v 3.04633 h -12.40416 z m 12.75804,0 h 12.40426 v 3.04633 h -12.40426 z m 12.75815,0 h 12.29073 v 3.04633 h -12.29073 z m 12.83232,0 h 12.32797 v 3.04633 H 779.6691 Z m 12.68185,0 h 12.40416 v 3.04633 h -12.40416 z m 12.75815,0 h 12.32196 v 3.04633 H 805.1091 Z" /><path
     id="path13649"
     d="m 580.45024,108.5494 v 32.602 h 15.87672 v -32.602 z m 0,36.712 v 32.602 h 15.87672 v -32.602 z M 19.473947,186.2261 v 32.602 h 26.93373 v -32.602 z m 560.976293,0 v 32.602 h 15.87672 v -32.602 z m 22.39752,0 v 32.602 h 15.87477 v -32.602 z m 236.65118,0 v 32.602 h 18.70989 v -32.602 z m 30.61744,0 v 32.602 h 17.01077 v -32.602 z"
     style="fill:#ffffff;fill-opacity:0.2" /><path
     id="rect2513"
     style="fill:#ffffff;fill-opacity:0.40000001;stroke:none;stroke-width:1.1351;stroke-linejoin:round;stroke-miterlimit:3.4;stroke-dashoffset:19.8539"
     d="M 766.83674 182.61166 L 766.83674 187.07552 L 779.12751 187.07552 L 779.12751 182.61166 L 766.83674 182.61166 z M 779.67694 182.61166 L 779.67694 187.07552 L 791.99705 187.07552 L 791.99705 182.61166 L 779.67694 182.61166 z M 766.83674 187.43138 L 766.83674 191.89524 L 779.12751 191.89524 L 779.12751 187.43138 L 766.83674 187.43138 z M 779.67499 187.43138 L 779.67499 191.89524 L 791.99705 191.89524 L 791.99705 187.43138 L 779.67499 187.43138 z M 792.35095 187.43138 L 792.35095 191.89524 L 804.75513 191.89524 L 804.75513 187.43138 L 792.35095 187.43138 z M 805.10903 187.43138 L 805.10903 191.89524 L 817.43109 191.89524 L 817.43109 187.43138 L 805.10903 187.43138 z M 766.83674 192.24914 L 766.83674 196.713 L 779.12751 196.713 L 779.12751 192.24914 L 766.83674 192.24914 z M 779.67499 192.24914 L 779.67499 196.71496 L 791.99705 196.71496 L 791.99705 192.24914 L 779.67499 192.24914 z M 793.14283 192.2511 L 793.14283 196.71496 L 798.75443 196.71496 L 798.75443 192.2511 L 793.14283 192.2511 z " /><rect
     style="fill:#ffffff;stroke-width:0.756733;stroke-linecap:round;stroke-linejoin:round;stroke-miterlimit:3.4;stroke-dashoffset:75.0384;fill-opacity:0.40000001"
     id="rect1"
     width="12.40426"
     height="9.2835493"
     x="243.77492"
     y="187.28867" /></svg>
