<?xml version="1.0" encoding="UTF-8" standalone="no"?>
<!-- Created with Inkscape (http://www.inkscape.org/) -->

<svg
   width="49.679623mm"
   height="10.500151mm"
   viewBox="0 0 49.679623 10.500151"
   version="1.1"
   id="svg1"
   xml:space="preserve"
   inkscape:version="1.3.1 (91b66b0783, 2023-11-16)"
   sodipodi:docname="assets.svg"
   xmlns:inkscape="http://www.inkscape.org/namespaces/inkscape"
   xmlns:sodipodi="http://sodipodi.sourceforge.net/DTD/sodipodi-0.dtd"
   xmlns="http://www.w3.org/2000/svg"
   xmlns:svg="http://www.w3.org/2000/svg"><sodipodi:namedview
     id="namedview1"
     pagecolor="#ffffff"
     bordercolor="#000000"
     borderopacity="0.25"
     inkscape:showpageshadow="2"
     inkscape:pageopacity="0.0"
     inkscape:pagecheckerboard="0"
     inkscape:deskcolor="#d1d1d1"
     inkscape:document-units="mm"
     inkscape:zoom="11.313708"
     inkscape:cx="1277.3442"
     inkscape:cy="375.69467"
     inkscape:window-width="2560"
     inkscape:window-height="1346"
     inkscape:window-x="-11"
     inkscape:window-y="-11"
     inkscape:window-maximized="1"
     inkscape:current-layer="layer1"
     showgrid="true"><inkscape:grid
       id="grid668"
       units="mm"
       originx="-487.88994"
       originy="-95.677142"
       spacingx="0.5"
       spacingy="0.5"
       empcolor="#0099e5"
       empopacity="0.30196078"
       color="#0099e5"
       opacity="0.14901961"
       empspacing="5"
       dotted="false"
       gridanglex="30"
       gridanglez="30"
       visible="true" /></sodipodi:namedview><defs
     id="defs1" /><g
     inkscape:label="Layer 1"
     inkscape:groupmode="layer"
     id="layer1"
     transform="translate(-487.88993,-95.677137)"><rect
       style="fill:#f9f9f9;fill-opacity:1;stroke-width:0.499999;stroke-linejoin:round;stroke-miterlimit:3.4;stroke-dashoffset:19.8539"
       id="rect232"
       width="40"
       height="7.5"
       x="490"
       y="97.5" /><path
       id="path758"
       style="fill:#2c2c6f;fill-opacity:1;stroke-width:0.264583"
       d="m 491.42561,95.677141 c -1.95262,0 -3.5357,1.60976 -3.5357,3.596681 v 3.305748 c 0,1.98693 1.58308,3.59772 3.5357,3.59772 h 41.17888 V 95.677141 Z m 41.69668,0 v 10.500139 h 1.96474 V 95.677141 Z m 2.48202,0 v 10.500139 h 1.96525 V 95.677141 Z m -29.68759,3.56723 h 0.62631 v 3.432859 h -0.56482 l -0.0284,-0.24649 c -0.06,0.0909 -0.13092,0.16282 -0.21291,0.21497 -0.0805,0.0507 -0.17363,0.076 -0.27905,0.076 -0.25183,0 -0.44339,-0.0995 -0.57516,-0.29765 -0.13031,-0.19817 -0.19585,-0.48837 -0.19585,-0.87127 v -0.15864 c 0,-0.39631 0.0661,-0.69212 0.19792,-0.88729 0.13178,-0.19518 0.32333,-0.293 0.57516,-0.293 0.0966,0 0.18267,0.0213 0.25734,0.0646 0.0761,0.0418 0.14238,0.1008 0.19948,0.17674 z m 15.09933,0.05374 c 0.0512,0 0.0975,0.0081 0.1385,0.02429 0.0425,0.0164 0.0782,0.03944 0.10748,0.06924 0.0293,0.0298 0.0521,0.06571 0.0682,0.10749 0.0161,0.0402 0.0243,0.08456 0.0243,0.13384 0,0.0491 -0.008,0.09473 -0.0243,0.13643 -0.0161,0.0402 -0.0389,0.0757 -0.0682,0.10697 -0.0293,0.0299 -0.065,0.05326 -0.10748,0.06976 -0.041,0.0164 -0.0872,0.02481 -0.1385,0.02481 -0.0513,0 -0.0981,-0.0081 -0.14056,-0.02481 -0.041,-0.0164 -0.0761,-0.03986 -0.10542,-0.06976 -0.0293,-0.0313 -0.0521,-0.0668 -0.0682,-0.10697 -0.0161,-0.0418 -0.0238,-0.08723 -0.0238,-0.13643 0,-0.0491 0.008,-0.09376 0.0238,-0.13384 0.0161,-0.0418 0.0389,-0.07771 0.0682,-0.10749 0.0293,-0.0299 0.0644,-0.05284 0.10542,-0.06924 0.0425,-0.0164 0.0893,-0.02429 0.14056,-0.02429 z m 2.51458,0 c 0.0513,0 0.0975,0.0081 0.13849,0.02429 0.0425,0.0164 0.0782,0.03944 0.10749,0.06924 0.0293,0.0298 0.0521,0.06571 0.0682,0.10749 0.0161,0.0402 0.0243,0.08456 0.0243,0.13384 0,0.0491 -0.008,0.09473 -0.0243,0.13643 -0.0161,0.0402 -0.0389,0.0757 -0.0682,0.10697 -0.0293,0.0299 -0.065,0.05326 -0.10749,0.06976 -0.041,0.0164 -0.0872,0.02481 -0.13849,0.02481 -0.0513,0 -0.0981,-0.0081 -0.14056,-0.02481 -0.041,-0.0164 -0.0761,-0.03986 -0.10542,-0.06976 -0.0293,-0.0313 -0.0516,-0.0668 -0.0677,-0.10697 -0.0161,-0.0418 -0.0243,-0.08723 -0.0243,-0.13643 0,-0.0491 0.008,-0.09376 0.0243,-0.13384 0.0161,-0.0418 0.0384,-0.07771 0.0677,-0.10749 0.0293,-0.0299 0.0644,-0.05284 0.10542,-0.06924 0.0425,-0.0164 0.0893,-0.02429 0.14056,-0.02429 z m -31.01723,0.125061 h 0.59066 l 1.00562,3.254068 h -0.68936 l -0.17156,-0.66612 h -0.88057 l -0.17105,0.66612 h -0.68316 z m 15.55357,0 h 0.64596 v 1.316198 h 0.95291 v -1.316198 h 0.64337 v 3.254068 h -0.64337 v -1.39269 h -0.95291 v 1.39269 h -0.64596 z m -11.36571,0.24133 v 0.594278 h 0.31884 v 0.47594 h -0.31884 v 1.20044 c 0,0.0507 0.003,0.0923 0.009,0.12506 0.007,0.0327 0.0184,0.0585 0.0331,0.078 0.0161,0.0179 0.036,0.0308 0.0594,0.0382 0.0234,0.006 0.0521,0.009 0.0858,0.009 0.0308,0 0.0583,-10e-4 0.0832,-0.004 0.0264,-0.003 0.0475,-0.006 0.0636,-0.0114 l -0.004,0.49197 c -0.0469,0.0179 -0.0972,0.0323 -0.15141,0.0429 -0.0542,0.0119 -0.11799,0.0176 -0.1912,0.0176 -0.0922,0 -0.17597,-0.0134 -0.25064,-0.0403 -0.0747,-0.0253 -0.1391,-0.0659 -0.19327,-0.12247 -0.0527,-0.0581 -0.0937,-0.13285 -0.12299,-0.22376 -0.0278,-0.0909 -0.0413,-0.20053 -0.0413,-0.32867 v -1.27124 h -0.27491 v -0.47646 h 0.27491 v -0.594278 z m 25.83253,0 v 0.594278 h 0.31833 v 0.47594 h -0.31833 v 1.20044 c 0,0.0507 0.003,0.0923 0.009,0.12506 0.007,0.0327 0.0184,0.059 0.0331,0.0785 0.0161,0.018 0.0355,0.0303 0.0589,0.0377 0.0234,0.006 0.0521,0.009 0.0858,0.009 0.0308,0 0.0588,-10e-4 0.0837,-0.004 0.0264,-0.003 0.0474,-0.006 0.0636,-0.0114 l -0.005,0.49197 c -0.0469,0.0179 -0.0972,0.0323 -0.15141,0.0429 -0.0542,0.0119 -0.118,0.0176 -0.19121,0.0176 -0.0922,0 -0.17543,-0.0134 -0.25011,-0.0403 -0.0747,-0.0253 -0.13909,-0.0659 -0.19327,-0.12247 -0.0527,-0.0581 -0.0937,-0.13285 -0.12299,-0.22376 -0.0278,-0.0909 -0.0419,-0.20053 -0.0419,-0.32867 v -1.27124 h -0.2744 v -0.47646 h 0.2744 v -0.594278 z m -27.1477,0.548278 v 5.2e-4 c 0.0278,0 0.0577,0.003 0.0899,0.009 0.0337,0.005 0.0606,0.011 0.0811,0.0196 l -0.007,0.6258 c -0.0278,-0.003 -0.0618,-0.006 -0.10283,-0.0108 -0.0395,-0.005 -0.0741,-0.007 -0.10336,-0.007 -0.0893,0 -0.16191,0.0194 -0.21755,0.0579 -0.0556,0.0388 -0.0978,0.0955 -0.12713,0.17002 v 1.59784 h -0.62373 v -2.41846 h 0.58549 l 0.0181,0.26199 c 0.0469,-0.0968 0.10421,-0.17219 0.17156,-0.22582 0.0688,-0.0537 0.14729,-0.0806 0.23513,-0.0806 z m 2.76262,0.001 v 5.1e-4 c 0.13324,0 0.2527,0.018 0.35812,0.0553 0.10688,0.0357 0.19767,0.0874 0.27234,0.15451 0.0747,0.0656 0.13152,0.14539 0.17105,0.23926 0.0395,0.0924 0.0594,0.19529 0.0594,0.30851 h -0.62166 c 0,-0.0924 -0.0182,-0.16491 -0.0548,-0.21704 -0.0366,-0.0522 -0.0987,-0.078 -0.18655,-0.078 -0.0659,0 -0.12032,0.0207 -0.16278,0.0625 -0.0425,0.0417 -0.0636,0.0996 -0.0636,0.17415 0,0.0312 0.006,0.06 0.0196,0.0853 0.0146,0.0238 0.0375,0.0474 0.0682,0.0713 0.0322,0.0238 0.0738,0.0484 0.12506,0.0739 0.0513,0.0253 0.11447,0.054 0.18914,0.0868 0.1186,0.0446 0.22108,0.092 0.30747,0.14108 0.0879,0.0491 0.16046,0.10428 0.21756,0.16536 0.0571,0.0596 0.0993,0.12715 0.12712,0.20309 0.0278,0.076 0.0419,0.16373 0.0419,0.26355 0,0.10727 -0.0205,0.2051 -0.0615,0.29301 -0.041,0.0879 -0.0996,0.16325 -0.1757,0.22583 -0.0747,0.0626 -0.16545,0.11202 -0.27234,0.14779 -0.10688,0.0343 -0.22635,0.0512 -0.35812,0.0512 -0.14496,0 -0.27319,-0.0224 -0.38447,-0.0672 -0.10981,-0.0462 -0.20179,-0.10638 -0.27647,-0.18086 -0.0747,-0.076 -0.13091,-0.16143 -0.16898,-0.25528 -0.0381,-0.0953 -0.0574,-0.19159 -0.0574,-0.28992 h 0.59066 c 10e-4,0.0656 0.0103,0.11955 0.0264,0.16278 0.0161,0.0418 0.0377,0.0754 0.0641,0.10078 0.0278,0.0253 0.06,0.0427 0.0966,0.0532 0.0381,0.009 0.0791,0.014 0.12299,0.014 0.16692,0 0.25011,-0.077 0.25011,-0.23049 0,-0.0313 -0.008,-0.0589 -0.0243,-0.0842 -0.0146,-0.0268 -0.0386,-0.0532 -0.0724,-0.0786 -0.0322,-0.0268 -0.0744,-0.0538 -0.12712,-0.0806 -0.0527,-0.0268 -0.11593,-0.0565 -0.18914,-0.0894 -0.10835,-0.0446 -0.20438,-0.0908 -0.28784,-0.13695 -0.0835,-0.0477 -0.15374,-0.10008 -0.21084,-0.15813 -0.0571,-0.0596 -0.0999,-0.1265 -0.12919,-0.19947 -0.0293,-0.0745 -0.0439,-0.15947 -0.0439,-0.25631 0,-0.10135 0.0182,-0.19633 0.0548,-0.28422 0.0381,-0.0895 0.092,-0.16648 0.16227,-0.23203 0.0703,-0.0671 0.15633,-0.11984 0.25735,-0.1571 0.10249,-0.0388 0.2179,-0.0579 0.34674,-0.0579 z m 5.5454,0 v 5.1e-4 c 0.0922,0 0.17717,0.0164 0.25477,0.0491 0.0776,0.0312 0.14435,0.083 0.19999,0.15606 0.0556,0.0729 0.099,0.16858 0.1297,0.28629 0.0307,0.11769 0.046,0.26222 0.046,0.43356 v 1.5379 h -0.62374 v -1.54048 c 0,-0.0775 -0.006,-0.14106 -0.0176,-0.19172 -0.0117,-0.0507 -0.0293,-0.0912 -0.0527,-0.12092 -0.022,-0.0299 -0.0495,-0.0506 -0.0832,-0.0625 -0.0337,-0.0119 -0.0735,-0.0181 -0.11885,-0.0181 -0.0586,0 -0.10956,0.0153 -0.15348,0.0465 -0.0439,0.0313 -0.0808,0.0751 -0.11007,0.13022 v 1.75597 h -0.62374 v -2.41742 h 0.58446 l 0.0176,0.23926 c 0.0688,-0.0924 0.14909,-0.16264 0.24133,-0.21033 0.0922,-0.0491 0.19534,-0.0739 0.30954,-0.0739 z m 15.90756,0 v 5.1e-4 c 0.0922,0 0.17716,0.0164 0.25476,0.0491 0.0776,0.0312 0.14436,0.083 0.19999,0.15606 0.0556,0.0729 0.099,0.16858 0.12971,0.28629 0.0308,0.11769 0.046,0.26222 0.046,0.43356 v 1.5379 h -0.62373 v -1.54048 c 0,-0.0775 -0.006,-0.14106 -0.0176,-0.19172 -0.0117,-0.0507 -0.0293,-0.0912 -0.0527,-0.12092 -0.022,-0.0299 -0.05,-0.0506 -0.0837,-0.0625 -0.0337,-0.0119 -0.0729,-0.0181 -0.11834,-0.0181 -0.0586,0 -0.11006,0.0153 -0.15399,0.0465 -0.0439,0.0313 -0.0803,0.0751 -0.10956,0.13022 v 1.75597 h -0.62373 v -2.41742 h 0.58394 l 0.0176,0.23926 c 0.0688,-0.0924 0.14961,-0.16264 0.24185,-0.21033 0.0922,-0.0491 0.19533,-0.0739 0.30954,-0.0739 z m 7.66516,0 v 5.1e-4 c 0.13324,0 0.25218,0.018 0.3576,0.0553 0.10688,0.0357 0.19767,0.0874 0.27234,0.15451 0.0747,0.0656 0.13204,0.14539 0.17157,0.23926 0.0395,0.0924 0.0594,0.19529 0.0594,0.30851 h -0.62166 c 0,-0.0924 -0.0182,-0.16491 -0.0548,-0.21704 -0.0366,-0.0522 -0.0992,-0.078 -0.18707,-0.078 -0.0659,0 -0.1198,0.0207 -0.16226,0.0625 -0.0425,0.0417 -0.0636,0.0996 -0.0636,0.17415 0,0.0312 0.006,0.06 0.0196,0.0853 0.0146,0.0238 0.0375,0.0474 0.0682,0.0713 0.0322,0.0238 0.0738,0.0484 0.12506,0.0739 0.0513,0.0253 0.11395,0.054 0.18862,0.0868 0.1186,0.0446 0.22108,0.092 0.30747,0.14108 0.0879,0.0491 0.16045,0.10428 0.21756,0.16536 0.0571,0.0596 0.0998,0.12715 0.12764,0.20309 0.0278,0.076 0.0413,0.16373 0.0413,0.26355 0,0.10727 -0.0205,0.2051 -0.0615,0.29301 -0.041,0.0879 -0.0996,0.16325 -0.1757,0.22583 -0.0747,0.0626 -0.16545,0.11202 -0.27234,0.14779 -0.10688,0.0343 -0.22582,0.0512 -0.3576,0.0512 -0.14495,0 -0.27319,-0.0224 -0.38447,-0.0672 -0.10981,-0.0462 -0.2023,-0.10638 -0.27698,-0.18086 -0.0747,-0.076 -0.13092,-0.16143 -0.16899,-0.25528 -0.0381,-0.0953 -0.0568,-0.19159 -0.0568,-0.28992 h 0.59066 c 10e-4,0.0656 0.0102,0.11955 0.0264,0.16278 0.0161,0.0418 0.0372,0.0754 0.0636,0.10078 0.0278,0.0253 0.06,0.0427 0.0966,0.0532 0.0381,0.009 0.0791,0.014 0.12299,0.014 0.16692,0 0.25063,-0.077 0.25063,-0.23049 0,-0.0313 -0.008,-0.0589 -0.0243,-0.0842 -0.0146,-0.0268 -0.0386,-0.0532 -0.0724,-0.0786 -0.0322,-0.0268 -0.0749,-0.0538 -0.12764,-0.0806 -0.0527,-0.0268 -0.11541,-0.0565 -0.18862,-0.0894 -0.10835,-0.0446 -0.20438,-0.0908 -0.28784,-0.13695 -0.0835,-0.0477 -0.15374,-0.10008 -0.21084,-0.15813 -0.0571,-0.0596 -0.10042,-0.1265 -0.12971,-0.19947 -0.0293,-0.0745 -0.0439,-0.15947 -0.0439,-0.25631 0,-0.10135 0.0182,-0.19633 0.0548,-0.28422 0.0381,-0.0895 0.0925,-0.16648 0.16278,-0.23203 0.0703,-0.0671 0.1558,-0.11984 0.25683,-0.1571 0.10249,-0.0388 0.21841,-0.0579 0.34726,-0.0579 z m -25.97981,5.1e-4 c 0.11859,0 0.22806,0.0153 0.32763,0.0465 0.0996,0.0299 0.18569,0.0776 0.2589,0.14315 0.0732,0.064 0.13057,0.14671 0.17157,0.24804 0.041,0.0998 0.0615,0.22072 0.0615,0.36225 v 1.07281 c 0,0.07 10e-4,0.13246 0.004,0.18759 0.004,0.0536 0.0103,0.10262 0.0176,0.14728 0.007,0.0433 0.0161,0.0826 0.0264,0.11834 0.0117,0.0343 0.0251,0.067 0.0398,0.0982 v 0.0382 l -0.62632,5.1e-4 c -0.0117,-0.0253 -0.0217,-0.0541 -0.0305,-0.0853 -0.007,-0.0327 -0.0149,-0.0666 -0.0222,-0.10232 -0.0469,0.0656 -0.10723,0.12011 -0.1819,0.16484 -0.0732,0.0446 -0.16337,0.0677 -0.27026,0.0677 -0.0966,0 -0.18742,-0.0174 -0.27234,-0.0517 -0.0835,-0.0343 -0.15666,-0.0826 -0.21962,-0.14521 -0.0615,-0.0626 -0.11068,-0.1384 -0.14728,-0.22634 -0.0351,-0.0894 -0.0527,-0.18896 -0.0527,-0.29922 0,-0.12218 0.0193,-0.23238 0.0574,-0.33072 0.0395,-0.0998 0.0981,-0.18367 0.1757,-0.25219 0.0791,-0.07 0.17691,-0.12347 0.29404,-0.16071 0.1186,-0.0372 0.25795,-0.0563 0.41754,-0.0563 h 0.16899 v -0.1943 c 0,-0.10877 -0.0182,-0.18526 -0.0548,-0.22996 -0.0366,-0.0446 -0.0904,-0.0677 -0.16072,-0.0677 -0.0805,0 -0.13969,0.0251 -0.17776,0.0744 -0.0366,0.0477 -0.0548,0.11521 -0.0548,0.20309 h -0.62167 c 0,-0.10577 0.0199,-0.20478 0.0594,-0.29714 0.041,-0.0939 0.0996,-0.17544 0.1757,-0.24547 0.0761,-0.07 0.16751,-0.12564 0.2744,-0.16588 0.10688,-0.0418 0.22754,-0.0625 0.36225,-0.0625 z m 12.87674,0 c 0.10981,0 0.20816,0.0257 0.29455,0.078 0.0879,0.0522 0.15702,0.13483 0.20826,0.24805 0.0644,-0.10282 0.14461,-0.18264 0.23978,-0.23926 0.0966,-0.0581 0.21083,-0.0868 0.34261,-0.0868 0.0966,0 0.18337,0.0164 0.26097,0.0491 0.0791,0.0327 0.14641,0.085 0.20205,0.15813 0.0556,0.073 0.099,0.16857 0.12971,0.28628 0.0308,0.1177 0.046,0.26166 0.046,0.4315 v 1.5379 h -0.62115 v -1.54048 c 0,-0.0805 -0.006,-0.1457 -0.0176,-0.19637 -0.0103,-0.0507 -0.0266,-0.0901 -0.0486,-0.11834 -0.022,-0.0299 -0.0483,-0.0502 -0.0791,-0.0605 -0.0308,-0.0119 -0.0659,-0.0181 -0.10542,-0.0181 -0.0615,0 -0.1136,0.0196 -0.15606,0.0584 -0.0425,0.0388 -0.0765,0.0917 -0.10284,0.15865 10e-4,0.0164 0.002,0.0334 0.002,0.0512 10e-4,0.0179 0.002,0.0358 0.002,0.0537 v 1.61128 h -0.62167 v -1.53479 c 0,-0.0805 -0.006,-0.14624 -0.0176,-0.19689 -0.0103,-0.0522 -0.0261,-0.0933 -0.0481,-0.12299 -0.0205,-0.0299 -0.0469,-0.0502 -0.0791,-0.0605 -0.0307,-0.0119 -0.0659,-0.0176 -0.10542,-0.0176 -0.0571,0 -0.10688,0.0153 -0.14935,0.0465 -0.041,0.0312 -0.0761,0.0746 -0.10542,0.1297 v 1.7565 h -0.62167 v -2.41795 h 0.58188 l 0.0176,0.22375 c 0.0659,-0.0849 0.14435,-0.1507 0.23513,-0.19688 0.0922,-0.0477 0.19766,-0.0713 0.31626,-0.0713 z m 3.03082,0 h 5.2e-4 c 0.11839,5e-5 0.22717,0.0154 0.32659,0.0465 0.0996,0.0299 0.18621,0.0776 0.25942,0.14315 0.0732,0.064 0.13005,0.14671 0.17105,0.24804 0.041,0.0998 0.0615,0.22072 0.0615,0.36225 v 1.07281 c 0,0.07 0.002,0.13246 0.005,0.18759 0.004,0.0536 0.0103,0.10262 0.0176,0.14728 0.007,0.0433 0.016,0.0826 0.0263,0.11834 0.0117,0.0343 0.0246,0.067 0.0393,0.0982 v 0.0382 l -0.6258,5.1e-4 c -0.0117,-0.0253 -0.0217,-0.0541 -0.0305,-0.0853 -0.007,-0.0327 -0.0149,-0.0666 -0.0222,-0.10232 -0.0469,0.0656 -0.10775,0.12011 -0.18242,0.16484 -0.0732,0.0446 -0.16287,0.0677 -0.26975,0.0677 -0.0966,0 -0.18742,-0.0174 -0.27234,-0.0517 -0.0835,-0.0343 -0.15666,-0.0826 -0.21962,-0.14521 -0.0615,-0.0626 -0.11067,-0.1384 -0.14728,-0.22634 -0.0351,-0.0894 -0.0527,-0.18896 -0.0527,-0.29922 0,-0.12218 0.0189,-0.23238 0.0568,-0.33072 0.0395,-0.0998 0.0981,-0.18367 0.1757,-0.25219 0.0791,-0.07 0.17742,-0.12347 0.29456,-0.16071 0.1186,-0.0372 0.25743,-0.0563 0.41703,-0.0563 h 0.1695 v -0.1943 c 0,-0.10877 -0.0187,-0.18526 -0.0553,-0.22996 -0.0366,-0.0446 -0.0899,-0.0677 -0.16019,-0.0677 -0.0805,0 -0.1397,0.0251 -0.17777,0.0744 -0.0366,0.0477 -0.0548,0.11521 -0.0548,0.20309 h -0.62166 c 0,-0.10577 0.0199,-0.20478 0.0594,-0.29714 0.041,-0.0939 0.0996,-0.17544 0.1757,-0.24547 0.0761,-0.07 0.16752,-0.12564 0.27441,-0.16588 0.10673,-0.0417 0.22724,-0.0625 0.36173,-0.0625 z m 8.02742,0 c 0.30162,0 0.5277,0.0984 0.67851,0.29663 0.15081,0.19817 0.22634,0.49222 0.22634,0.88108 v 0.28784 h -1.23662 c 0.004,0.0968 0.0167,0.17836 0.0372,0.24391 0.022,0.0655 0.0512,0.1184 0.0879,0.15865 0.0366,0.0402 0.0805,0.0695 0.13178,0.0873 0.0527,0.0179 0.11239,0.0269 0.17828,0.0269 0.10981,0 0.20705,-0.0187 0.29197,-0.0558 0.0864,-0.0388 0.16252,-0.0922 0.22841,-0.16071 l 0.24391,0.38138 c -0.0308,0.0433 -0.0711,0.087 -0.12092,0.13022 -0.0498,0.0417 -0.10835,0.08 -0.1757,0.11421 -0.0673,0.0343 -0.14349,0.0614 -0.22841,0.0822 -0.0849,0.0224 -0.17803,0.0336 -0.27905,0.0336 -0.16253,0 -0.30661,-0.0254 -0.43253,-0.076 -0.12591,-0.0507 -0.23195,-0.12325 -0.31833,-0.21859 -0.0864,-0.0953 -0.15253,-0.21176 -0.19792,-0.34883 -0.0439,-0.13857 -0.0656,-0.296 -0.0656,-0.4718 v -0.19844 c 0,-0.19666 0.0211,-0.36927 0.0636,-0.51677 0.0439,-0.14899 0.10603,-0.27328 0.18656,-0.3731 0.082,-0.10135 0.18155,-0.17724 0.29868,-0.22789 0.1186,-0.0507 0.25271,-0.076 0.40205,-0.076 z m -14.44046,0.0444 h 0.62166 v 1.56889 c 0,0.13259 0.0211,0.2271 0.0636,0.28371 0.0425,0.0552 0.0981,0.0832 0.16692,0.0832 0.0761,0 0.13936,-0.0169 0.18914,-0.0496 0.0498,-0.0343 0.089,-0.0804 0.11833,-0.1385 v -1.74769 h 0.62581 v 2.41846 h -0.58395 l -0.0176,-0.22169 c -0.0615,0.0849 -0.1353,0.1507 -0.22169,0.19689 -0.0849,0.0462 -0.18388,0.0692 -0.29662,0.0692 -0.0996,0 -0.19034,-0.0164 -0.27234,-0.0491 -0.0805,-0.0343 -0.1502,-0.0877 -0.20877,-0.15916 -0.0586,-0.0729 -0.1037,-0.1658 -0.13591,-0.27905 -0.0322,-0.11473 -0.0486,-0.25195 -0.0486,-0.41136 z m 9.92497,0 h 0.62374 v 2.41846 h -0.62374 z m 2.51458,0 h 0.62373 v 2.41846 h -0.62373 z m -30.41365,0.0444 -0.29869,1.16013 h 0.59738 z m 32.40991,0.43615 c -0.10835,0 -0.18742,0.0394 -0.2372,0.11834 -0.0483,0.079 -0.0765,0.2055 -0.0853,0.37982 h 0.62115 v -0.0584 c -0.003,-0.14452 -0.0264,-0.25364 -0.0703,-0.32814 -0.0439,-0.0745 -0.12007,-0.11162 -0.22841,-0.11162 z m -19.5771,0.004 c -0.0615,0 -0.11361,0.0135 -0.15607,0.0388 -0.041,0.0253 -0.0744,0.0641 -0.10076,0.11627 -0.0264,0.0522 -0.0456,0.11916 -0.0574,0.20257 -0.0103,0.082 -0.0155,0.17977 -0.0155,0.29301 v 0.15916 c 0,0.11173 0.005,0.20739 0.0155,0.28784 0.0102,0.0805 0.0278,0.1479 0.0527,0.20154 0.0264,0.0522 0.0603,0.091 0.10129,0.11627 0.0425,0.0238 0.0952,0.0357 0.15813,0.0357 0.0659,0 0.12152,-0.0148 0.16691,-0.0444 0.0454,-0.0298 0.0823,-0.0714 0.11163,-0.12351 v -1.10381 c -0.0293,-0.0566 -0.0674,-0.10045 -0.11421,-0.13177 -0.0454,-0.0312 -0.0993,-0.047 -0.16226,-0.047 z m -4.30258,0.83613 c -0.0586,0 -0.10895,0.009 -0.15141,0.0289 -0.0425,0.0194 -0.0782,0.0462 -0.10749,0.0806 -0.0278,0.0343 -0.0494,0.0748 -0.0641,0.12093 -0.0132,0.0462 -0.0196,0.0951 -0.0196,0.14727 0,0.0879 0.0176,0.15536 0.0527,0.20154 0.0366,0.0446 0.0881,0.0667 0.154,0.0667 0.0688,0 0.12738,-0.0146 0.1757,-0.0429 0.0483,-0.0283 0.0841,-0.0615 0.10749,-0.10025 v -0.50281 z m 15.90755,0 c -0.0586,0 -0.10894,0.009 -0.15141,0.0289 -0.0425,0.0194 -0.0787,0.0462 -0.108,0.0806 -0.0278,0.0343 -0.0489,0.0748 -0.0636,0.12093 -0.0132,0.0462 -0.0196,0.0951 -0.0196,0.14727 0,0.0879 0.0176,0.15536 0.0527,0.20154 0.0366,0.0446 0.0876,0.0667 0.15348,0.0667 0.0688,0 0.12738,-0.0146 0.1757,-0.0429 0.0483,-0.0283 0.0846,-0.0615 0.108,-0.10025 v -0.50281 z"
       inkscape:export-filename="topic_tags\topic_3.svg"
       inkscape:export-xdpi="96"
       inkscape:export-ydpi="96" /><path
       id="path170"
       style="fill:#2c2c6f;fill-opacity:1;stroke-width:0.264583"
       d="m 491.42561,95.677141 c -1.95262,0 -3.5357,1.60976 -3.5357,3.596681 v 3.305748 c 0,1.98693 1.58308,3.59772 3.5357,3.59772 h 41.17888 V 95.677141 Z m 41.69668,0 v 10.500139 h 1.96474 V 95.677141 Z m 2.48202,0 v 10.500139 h 1.96525 V 95.677141 Z m -29.68759,3.56723 h 0.62631 v 3.432859 h -0.56482 l -0.0284,-0.24649 c -0.06,0.0909 -0.13092,0.16282 -0.21291,0.21497 -0.0805,0.0507 -0.17363,0.076 -0.27905,0.076 -0.25183,0 -0.44339,-0.0995 -0.57516,-0.29765 -0.13031,-0.19817 -0.19585,-0.48837 -0.19585,-0.87127 v -0.15864 c 0,-0.39631 0.0661,-0.69212 0.19792,-0.88729 0.13178,-0.19518 0.32333,-0.293 0.57516,-0.293 0.0966,0 0.18267,0.0213 0.25734,0.0646 0.0761,0.0418 0.14238,0.1008 0.19948,0.17674 z m 15.09933,0.05374 c 0.0512,0 0.0975,0.0081 0.1385,0.02429 0.0425,0.0164 0.0782,0.03944 0.10748,0.06924 0.0293,0.0298 0.0521,0.06571 0.0682,0.10749 0.0161,0.0402 0.0243,0.08456 0.0243,0.13384 0,0.0491 -0.008,0.09473 -0.0243,0.13643 -0.0161,0.0402 -0.0389,0.0757 -0.0682,0.10697 -0.0293,0.0299 -0.065,0.05326 -0.10748,0.06976 -0.041,0.0164 -0.0872,0.02481 -0.1385,0.02481 -0.0513,0 -0.0981,-0.0081 -0.14056,-0.02481 -0.041,-0.0164 -0.0761,-0.03986 -0.10542,-0.06976 -0.0293,-0.0313 -0.0521,-0.0668 -0.0682,-0.10697 -0.0161,-0.0418 -0.0238,-0.08723 -0.0238,-0.13643 0,-0.0491 0.008,-0.09376 0.0238,-0.13384 0.0161,-0.0418 0.0389,-0.07771 0.0682,-0.10749 0.0293,-0.0299 0.0644,-0.05284 0.10542,-0.06924 0.0425,-0.0164 0.0893,-0.02429 0.14056,-0.02429 z m 2.51458,0 c 0.0513,0 0.0975,0.0081 0.13849,0.02429 0.0425,0.0164 0.0782,0.03944 0.10749,0.06924 0.0293,0.0298 0.0521,0.06571 0.0682,0.10749 0.0161,0.0402 0.0243,0.08456 0.0243,0.13384 0,0.0491 -0.008,0.09473 -0.0243,0.13643 -0.0161,0.0402 -0.0389,0.0757 -0.0682,0.10697 -0.0293,0.0299 -0.065,0.05326 -0.10749,0.06976 -0.041,0.0164 -0.0872,0.02481 -0.13849,0.02481 -0.0513,0 -0.0981,-0.0081 -0.14056,-0.02481 -0.041,-0.0164 -0.0761,-0.03986 -0.10542,-0.06976 -0.0293,-0.0313 -0.0516,-0.0668 -0.0677,-0.10697 -0.0161,-0.0418 -0.0243,-0.08723 -0.0243,-0.13643 0,-0.0491 0.008,-0.09376 0.0243,-0.13384 0.0161,-0.0418 0.0384,-0.07771 0.0677,-0.10749 0.0293,-0.0299 0.0644,-0.05284 0.10542,-0.06924 0.0425,-0.0164 0.0893,-0.02429 0.14056,-0.02429 z m -31.01723,0.125061 h 0.59066 l 1.00562,3.254068 h -0.68936 l -0.17156,-0.66612 h -0.88057 l -0.17105,0.66612 h -0.68316 z m 15.55357,0 h 0.64596 v 1.316198 h 0.95291 v -1.316198 h 0.64337 v 3.254068 h -0.64337 v -1.39269 h -0.95291 v 1.39269 h -0.64596 z m -11.36571,0.24133 v 0.594278 h 0.31884 v 0.47594 h -0.31884 v 1.20044 c 0,0.0507 0.003,0.0923 0.009,0.12506 0.007,0.0327 0.0184,0.0585 0.0331,0.078 0.0161,0.0179 0.036,0.0308 0.0594,0.0382 0.0234,0.006 0.0521,0.009 0.0858,0.009 0.0308,0 0.0583,-10e-4 0.0832,-0.004 0.0264,-0.003 0.0475,-0.006 0.0636,-0.0114 l -0.004,0.49197 c -0.0469,0.0179 -0.0972,0.0323 -0.15141,0.0429 -0.0542,0.0119 -0.11799,0.0176 -0.1912,0.0176 -0.0922,0 -0.17597,-0.0134 -0.25064,-0.0403 -0.0747,-0.0253 -0.1391,-0.0659 -0.19327,-0.12247 -0.0527,-0.0581 -0.0937,-0.13285 -0.12299,-0.22376 -0.0278,-0.0909 -0.0413,-0.20053 -0.0413,-0.32867 v -1.27124 h -0.27491 v -0.47646 h 0.27491 v -0.594278 z m 25.83253,0 v 0.594278 h 0.31833 v 0.47594 h -0.31833 v 1.20044 c 0,0.0507 0.003,0.0923 0.009,0.12506 0.007,0.0327 0.0184,0.059 0.0331,0.0785 0.0161,0.018 0.0355,0.0303 0.0589,0.0377 0.0234,0.006 0.0521,0.009 0.0858,0.009 0.0308,0 0.0588,-10e-4 0.0837,-0.004 0.0264,-0.003 0.0474,-0.006 0.0636,-0.0114 l -0.005,0.49197 c -0.0469,0.0179 -0.0972,0.0323 -0.15141,0.0429 -0.0542,0.0119 -0.118,0.0176 -0.19121,0.0176 -0.0922,0 -0.17543,-0.0134 -0.25011,-0.0403 -0.0747,-0.0253 -0.13909,-0.0659 -0.19327,-0.12247 -0.0527,-0.0581 -0.0937,-0.13285 -0.12299,-0.22376 -0.0278,-0.0909 -0.0419,-0.20053 -0.0419,-0.32867 v -1.27124 h -0.2744 v -0.47646 h 0.2744 v -0.594278 z m -27.1477,0.548278 v 5.2e-4 c 0.0278,0 0.0577,0.003 0.0899,0.009 0.0337,0.005 0.0606,0.011 0.0811,0.0196 l -0.007,0.6258 c -0.0278,-0.003 -0.0618,-0.006 -0.10283,-0.0108 -0.0395,-0.005 -0.0741,-0.007 -0.10336,-0.007 -0.0893,0 -0.16191,0.0194 -0.21755,0.0579 -0.0556,0.0388 -0.0978,0.0955 -0.12713,0.17002 v 1.59784 h -0.62373 v -2.41846 h 0.58549 l 0.0181,0.26199 c 0.0469,-0.0968 0.10421,-0.17219 0.17156,-0.22582 0.0688,-0.0537 0.14729,-0.0806 0.23513,-0.0806 z m 2.76262,0.001 v 5.1e-4 c 0.13324,0 0.2527,0.018 0.35812,0.0553 0.10688,0.0357 0.19767,0.0874 0.27234,0.15451 0.0747,0.0656 0.13152,0.14539 0.17105,0.23926 0.0395,0.0924 0.0594,0.19529 0.0594,0.30851 h -0.62166 c 0,-0.0924 -0.0182,-0.16491 -0.0548,-0.21704 -0.0366,-0.0522 -0.0987,-0.078 -0.18655,-0.078 -0.0659,0 -0.12032,0.0207 -0.16278,0.0625 -0.0425,0.0417 -0.0636,0.0996 -0.0636,0.17415 0,0.0312 0.006,0.06 0.0196,0.0853 0.0146,0.0238 0.0375,0.0474 0.0682,0.0713 0.0322,0.0238 0.0738,0.0484 0.12506,0.0739 0.0513,0.0253 0.11447,0.054 0.18914,0.0868 0.1186,0.0446 0.22108,0.092 0.30747,0.14108 0.0879,0.0491 0.16046,0.10428 0.21756,0.16536 0.0571,0.0596 0.0993,0.12715 0.12712,0.20309 0.0278,0.076 0.0419,0.16373 0.0419,0.26355 0,0.10727 -0.0205,0.2051 -0.0615,0.29301 -0.041,0.0879 -0.0996,0.16325 -0.1757,0.22583 -0.0747,0.0626 -0.16545,0.11202 -0.27234,0.14779 -0.10688,0.0343 -0.22635,0.0512 -0.35812,0.0512 -0.14496,0 -0.27319,-0.0224 -0.38447,-0.0672 -0.10981,-0.0462 -0.20179,-0.10638 -0.27647,-0.18086 -0.0747,-0.076 -0.13091,-0.16143 -0.16898,-0.25528 -0.0381,-0.0953 -0.0574,-0.19159 -0.0574,-0.28992 h 0.59066 c 10e-4,0.0656 0.0103,0.11955 0.0264,0.16278 0.0161,0.0418 0.0377,0.0754 0.0641,0.10078 0.0278,0.0253 0.06,0.0427 0.0966,0.0532 0.0381,0.009 0.0791,0.014 0.12299,0.014 0.16692,0 0.25011,-0.077 0.25011,-0.23049 0,-0.0313 -0.008,-0.0589 -0.0243,-0.0842 -0.0146,-0.0268 -0.0386,-0.0532 -0.0724,-0.0786 -0.0322,-0.0268 -0.0744,-0.0538 -0.12712,-0.0806 -0.0527,-0.0268 -0.11593,-0.0565 -0.18914,-0.0894 -0.10835,-0.0446 -0.20438,-0.0908 -0.28784,-0.13695 -0.0835,-0.0477 -0.15374,-0.10008 -0.21084,-0.15813 -0.0571,-0.0596 -0.0999,-0.1265 -0.12919,-0.19947 -0.0293,-0.0745 -0.0439,-0.15947 -0.0439,-0.25631 0,-0.10135 0.0182,-0.19633 0.0548,-0.28422 0.0381,-0.0895 0.092,-0.16648 0.16227,-0.23203 0.0703,-0.0671 0.15633,-0.11984 0.25735,-0.1571 0.10249,-0.0388 0.2179,-0.0579 0.34674,-0.0579 z m 5.5454,0 v 5.1e-4 c 0.0922,0 0.17717,0.0164 0.25477,0.0491 0.0776,0.0312 0.14435,0.083 0.19999,0.15606 0.0556,0.0729 0.099,0.16858 0.1297,0.28629 0.0307,0.11769 0.046,0.26222 0.046,0.43356 v 1.5379 h -0.62374 v -1.54048 c 0,-0.0775 -0.006,-0.14106 -0.0176,-0.19172 -0.0117,-0.0507 -0.0293,-0.0912 -0.0527,-0.12092 -0.022,-0.0299 -0.0495,-0.0506 -0.0832,-0.0625 -0.0337,-0.0119 -0.0735,-0.0181 -0.11885,-0.0181 -0.0586,0 -0.10956,0.0153 -0.15348,0.0465 -0.0439,0.0313 -0.0808,0.0751 -0.11007,0.13022 v 1.75597 h -0.62374 v -2.41742 h 0.58446 l 0.0176,0.23926 c 0.0688,-0.0924 0.14909,-0.16264 0.24133,-0.21033 0.0922,-0.0491 0.19534,-0.0739 0.30954,-0.0739 z m 15.90756,0 v 5.1e-4 c 0.0922,0 0.17716,0.0164 0.25476,0.0491 0.0776,0.0312 0.14436,0.083 0.19999,0.15606 0.0556,0.0729 0.099,0.16858 0.12971,0.28629 0.0308,0.11769 0.046,0.26222 0.046,0.43356 v 1.5379 h -0.62373 v -1.54048 c 0,-0.0775 -0.006,-0.14106 -0.0176,-0.19172 -0.0117,-0.0507 -0.0293,-0.0912 -0.0527,-0.12092 -0.022,-0.0299 -0.05,-0.0506 -0.0837,-0.0625 -0.0337,-0.0119 -0.0729,-0.0181 -0.11834,-0.0181 -0.0586,0 -0.11006,0.0153 -0.15399,0.0465 -0.0439,0.0313 -0.0803,0.0751 -0.10956,0.13022 v 1.75597 h -0.62373 v -2.41742 h 0.58394 l 0.0176,0.23926 c 0.0688,-0.0924 0.14961,-0.16264 0.24185,-0.21033 0.0922,-0.0491 0.19533,-0.0739 0.30954,-0.0739 z m 7.66516,0 v 5.1e-4 c 0.13324,0 0.25218,0.018 0.3576,0.0553 0.10688,0.0357 0.19767,0.0874 0.27234,0.15451 0.0747,0.0656 0.13204,0.14539 0.17157,0.23926 0.0395,0.0924 0.0594,0.19529 0.0594,0.30851 h -0.62166 c 0,-0.0924 -0.0182,-0.16491 -0.0548,-0.21704 -0.0366,-0.0522 -0.0992,-0.078 -0.18707,-0.078 -0.0659,0 -0.1198,0.0207 -0.16226,0.0625 -0.0425,0.0417 -0.0636,0.0996 -0.0636,0.17415 0,0.0312 0.006,0.06 0.0196,0.0853 0.0146,0.0238 0.0375,0.0474 0.0682,0.0713 0.0322,0.0238 0.0738,0.0484 0.12506,0.0739 0.0513,0.0253 0.11395,0.054 0.18862,0.0868 0.1186,0.0446 0.22108,0.092 0.30747,0.14108 0.0879,0.0491 0.16045,0.10428 0.21756,0.16536 0.0571,0.0596 0.0998,0.12715 0.12764,0.20309 0.0278,0.076 0.0413,0.16373 0.0413,0.26355 0,0.10727 -0.0205,0.2051 -0.0615,0.29301 -0.041,0.0879 -0.0996,0.16325 -0.1757,0.22583 -0.0747,0.0626 -0.16545,0.11202 -0.27234,0.14779 -0.10688,0.0343 -0.22582,0.0512 -0.3576,0.0512 -0.14495,0 -0.27319,-0.0224 -0.38447,-0.0672 -0.10981,-0.0462 -0.2023,-0.10638 -0.27698,-0.18086 -0.0747,-0.076 -0.13092,-0.16143 -0.16899,-0.25528 -0.0381,-0.0953 -0.0568,-0.19159 -0.0568,-0.28992 h 0.59066 c 10e-4,0.0656 0.0102,0.11955 0.0264,0.16278 0.0161,0.0418 0.0372,0.0754 0.0636,0.10078 0.0278,0.0253 0.06,0.0427 0.0966,0.0532 0.0381,0.009 0.0791,0.014 0.12299,0.014 0.16692,0 0.25063,-0.077 0.25063,-0.23049 0,-0.0313 -0.008,-0.0589 -0.0243,-0.0842 -0.0146,-0.0268 -0.0386,-0.0532 -0.0724,-0.0786 -0.0322,-0.0268 -0.0749,-0.0538 -0.12764,-0.0806 -0.0527,-0.0268 -0.11541,-0.0565 -0.18862,-0.0894 -0.10835,-0.0446 -0.20438,-0.0908 -0.28784,-0.13695 -0.0835,-0.0477 -0.15374,-0.10008 -0.21084,-0.15813 -0.0571,-0.0596 -0.10042,-0.1265 -0.12971,-0.19947 -0.0293,-0.0745 -0.0439,-0.15947 -0.0439,-0.25631 0,-0.10135 0.0182,-0.19633 0.0548,-0.28422 0.0381,-0.0895 0.0925,-0.16648 0.16278,-0.23203 0.0703,-0.0671 0.1558,-0.11984 0.25683,-0.1571 0.10249,-0.0388 0.21841,-0.0579 0.34726,-0.0579 z m -25.97981,5.1e-4 c 0.11859,0 0.22806,0.0153 0.32763,0.0465 0.0996,0.0299 0.18569,0.0776 0.2589,0.14315 0.0732,0.064 0.13057,0.14671 0.17157,0.24804 0.041,0.0998 0.0615,0.22072 0.0615,0.36225 v 1.07281 c 0,0.07 10e-4,0.13246 0.004,0.18759 0.004,0.0536 0.0103,0.10262 0.0176,0.14728 0.007,0.0433 0.0161,0.0826 0.0264,0.11834 0.0117,0.0343 0.0251,0.067 0.0398,0.0982 v 0.0382 l -0.62632,5.1e-4 c -0.0117,-0.0253 -0.0217,-0.0541 -0.0305,-0.0853 -0.007,-0.0327 -0.0149,-0.0666 -0.0222,-0.10232 -0.0469,0.0656 -0.10723,0.12011 -0.1819,0.16484 -0.0732,0.0446 -0.16337,0.0677 -0.27026,0.0677 -0.0966,0 -0.18742,-0.0174 -0.27234,-0.0517 -0.0835,-0.0343 -0.15666,-0.0826 -0.21962,-0.14521 -0.0615,-0.0626 -0.11068,-0.1384 -0.14728,-0.22634 -0.0351,-0.0894 -0.0527,-0.18896 -0.0527,-0.29922 0,-0.12218 0.0193,-0.23238 0.0574,-0.33072 0.0395,-0.0998 0.0981,-0.18367 0.1757,-0.25219 0.0791,-0.07 0.17691,-0.12347 0.29404,-0.16071 0.1186,-0.0372 0.25795,-0.0563 0.41754,-0.0563 h 0.16899 v -0.1943 c 0,-0.10877 -0.0182,-0.18526 -0.0548,-0.22996 -0.0366,-0.0446 -0.0904,-0.0677 -0.16072,-0.0677 -0.0805,0 -0.13969,0.0251 -0.17776,0.0744 -0.0366,0.0477 -0.0548,0.11521 -0.0548,0.20309 h -0.62167 c 0,-0.10577 0.0199,-0.20478 0.0594,-0.29714 0.041,-0.0939 0.0996,-0.17544 0.1757,-0.24547 0.0761,-0.07 0.16751,-0.12564 0.2744,-0.16588 0.10688,-0.0418 0.22754,-0.0625 0.36225,-0.0625 z m 12.87674,0 c 0.10981,0 0.20816,0.0257 0.29455,0.078 0.0879,0.0522 0.15702,0.13483 0.20826,0.24805 0.0644,-0.10282 0.14461,-0.18264 0.23978,-0.23926 0.0966,-0.0581 0.21083,-0.0868 0.34261,-0.0868 0.0966,0 0.18337,0.0164 0.26097,0.0491 0.0791,0.0327 0.14641,0.085 0.20205,0.15813 0.0556,0.073 0.099,0.16857 0.12971,0.28628 0.0308,0.1177 0.046,0.26166 0.046,0.4315 v 1.5379 h -0.62115 v -1.54048 c 0,-0.0805 -0.006,-0.1457 -0.0176,-0.19637 -0.0103,-0.0507 -0.0266,-0.0901 -0.0486,-0.11834 -0.022,-0.0299 -0.0483,-0.0502 -0.0791,-0.0605 -0.0308,-0.0119 -0.0659,-0.0181 -0.10542,-0.0181 -0.0615,0 -0.1136,0.0196 -0.15606,0.0584 -0.0425,0.0388 -0.0765,0.0917 -0.10284,0.15865 10e-4,0.0164 0.002,0.0334 0.002,0.0512 10e-4,0.0179 0.002,0.0358 0.002,0.0537 v 1.61128 h -0.62167 v -1.53479 c 0,-0.0805 -0.006,-0.14624 -0.0176,-0.19689 -0.0103,-0.0522 -0.0261,-0.0933 -0.0481,-0.12299 -0.0205,-0.0299 -0.0469,-0.0502 -0.0791,-0.0605 -0.0307,-0.0119 -0.0659,-0.0176 -0.10542,-0.0176 -0.0571,0 -0.10688,0.0153 -0.14935,0.0465 -0.041,0.0312 -0.0761,0.0746 -0.10542,0.1297 v 1.7565 h -0.62167 v -2.41795 h 0.58188 l 0.0176,0.22375 c 0.0659,-0.0849 0.14435,-0.1507 0.23513,-0.19688 0.0922,-0.0477 0.19766,-0.0713 0.31626,-0.0713 z m 3.03082,0 h 5.2e-4 c 0.11839,5e-5 0.22717,0.0154 0.32659,0.0465 0.0996,0.0299 0.18621,0.0776 0.25942,0.14315 0.0732,0.064 0.13005,0.14671 0.17105,0.24804 0.041,0.0998 0.0615,0.22072 0.0615,0.36225 v 1.07281 c 0,0.07 0.002,0.13246 0.005,0.18759 0.004,0.0536 0.0103,0.10262 0.0176,0.14728 0.007,0.0433 0.016,0.0826 0.0263,0.11834 0.0117,0.0343 0.0246,0.067 0.0393,0.0982 v 0.0382 l -0.6258,5.1e-4 c -0.0117,-0.0253 -0.0217,-0.0541 -0.0305,-0.0853 -0.007,-0.0327 -0.0149,-0.0666 -0.0222,-0.10232 -0.0469,0.0656 -0.10775,0.12011 -0.18242,0.16484 -0.0732,0.0446 -0.16287,0.0677 -0.26975,0.0677 -0.0966,0 -0.18742,-0.0174 -0.27234,-0.0517 -0.0835,-0.0343 -0.15666,-0.0826 -0.21962,-0.14521 -0.0615,-0.0626 -0.11067,-0.1384 -0.14728,-0.22634 -0.0351,-0.0894 -0.0527,-0.18896 -0.0527,-0.29922 0,-0.12218 0.0189,-0.23238 0.0568,-0.33072 0.0395,-0.0998 0.0981,-0.18367 0.1757,-0.25219 0.0791,-0.07 0.17742,-0.12347 0.29456,-0.16071 0.1186,-0.0372 0.25743,-0.0563 0.41703,-0.0563 h 0.1695 v -0.1943 c 0,-0.10877 -0.0187,-0.18526 -0.0553,-0.22996 -0.0366,-0.0446 -0.0899,-0.0677 -0.16019,-0.0677 -0.0805,0 -0.1397,0.0251 -0.17777,0.0744 -0.0366,0.0477 -0.0548,0.11521 -0.0548,0.20309 h -0.62166 c 0,-0.10577 0.0199,-0.20478 0.0594,-0.29714 0.041,-0.0939 0.0996,-0.17544 0.1757,-0.24547 0.0761,-0.07 0.16752,-0.12564 0.27441,-0.16588 0.10673,-0.0417 0.22724,-0.0625 0.36173,-0.0625 z m 8.02742,0 c 0.30162,0 0.5277,0.0984 0.67851,0.29663 0.15081,0.19817 0.22634,0.49222 0.22634,0.88108 v 0.28784 h -1.23662 c 0.004,0.0968 0.0167,0.17836 0.0372,0.24391 0.022,0.0655 0.0512,0.1184 0.0879,0.15865 0.0366,0.0402 0.0805,0.0695 0.13178,0.0873 0.0527,0.0179 0.11239,0.0269 0.17828,0.0269 0.10981,0 0.20705,-0.0187 0.29197,-0.0558 0.0864,-0.0388 0.16252,-0.0922 0.22841,-0.16071 l 0.24391,0.38138 c -0.0308,0.0433 -0.0711,0.087 -0.12092,0.13022 -0.0498,0.0417 -0.10835,0.08 -0.1757,0.11421 -0.0673,0.0343 -0.14349,0.0614 -0.22841,0.0822 -0.0849,0.0224 -0.17803,0.0336 -0.27905,0.0336 -0.16253,0 -0.30661,-0.0254 -0.43253,-0.076 -0.12591,-0.0507 -0.23195,-0.12325 -0.31833,-0.21859 -0.0864,-0.0953 -0.15253,-0.21176 -0.19792,-0.34883 -0.0439,-0.13857 -0.0656,-0.296 -0.0656,-0.4718 v -0.19844 c 0,-0.19666 0.0211,-0.36927 0.0636,-0.51677 0.0439,-0.14899 0.10603,-0.27328 0.18656,-0.3731 0.082,-0.10135 0.18155,-0.17724 0.29868,-0.22789 0.1186,-0.0507 0.25271,-0.076 0.40205,-0.076 z m -14.44046,0.0444 h 0.62166 v 1.56889 c 0,0.13259 0.0211,0.2271 0.0636,0.28371 0.0425,0.0552 0.0981,0.0832 0.16692,0.0832 0.0761,0 0.13936,-0.0169 0.18914,-0.0496 0.0498,-0.0343 0.089,-0.0804 0.11833,-0.1385 v -1.74769 h 0.62581 v 2.41846 h -0.58395 l -0.0176,-0.22169 c -0.0615,0.0849 -0.1353,0.1507 -0.22169,0.19689 -0.0849,0.0462 -0.18388,0.0692 -0.29662,0.0692 -0.0996,0 -0.19034,-0.0164 -0.27234,-0.0491 -0.0805,-0.0343 -0.1502,-0.0877 -0.20877,-0.15916 -0.0586,-0.0729 -0.1037,-0.1658 -0.13591,-0.27905 -0.0322,-0.11473 -0.0486,-0.25195 -0.0486,-0.41136 z m 9.92497,0 h 0.62374 v 2.41846 h -0.62374 z m 2.51458,0 h 0.62373 v 2.41846 h -0.62373 z m -30.41365,0.0444 -0.29869,1.16013 h 0.59738 z m 32.40991,0.43615 c -0.10835,0 -0.18742,0.0394 -0.2372,0.11834 -0.0483,0.079 -0.0765,0.2055 -0.0853,0.37982 h 0.62115 v -0.0584 c -0.003,-0.14452 -0.0264,-0.25364 -0.0703,-0.32814 -0.0439,-0.0745 -0.12007,-0.11162 -0.22841,-0.11162 z m -19.5771,0.004 c -0.0615,0 -0.11361,0.0135 -0.15607,0.0388 -0.041,0.0253 -0.0744,0.0641 -0.10076,0.11627 -0.0264,0.0522 -0.0456,0.11916 -0.0574,0.20257 -0.0103,0.082 -0.0155,0.17977 -0.0155,0.29301 v 0.15916 c 0,0.11173 0.005,0.20739 0.0155,0.28784 0.0102,0.0805 0.0278,0.1479 0.0527,0.20154 0.0264,0.0522 0.0603,0.091 0.10129,0.11627 0.0425,0.0238 0.0952,0.0357 0.15813,0.0357 0.0659,0 0.12152,-0.0148 0.16691,-0.0444 0.0454,-0.0298 0.0823,-0.0714 0.11163,-0.12351 v -1.10381 c -0.0293,-0.0566 -0.0674,-0.10045 -0.11421,-0.13177 -0.0454,-0.0312 -0.0993,-0.047 -0.16226,-0.047 z m -4.30258,0.83613 c -0.0586,0 -0.10895,0.009 -0.15141,0.0289 -0.0425,0.0194 -0.0782,0.0462 -0.10749,0.0806 -0.0278,0.0343 -0.0494,0.0748 -0.0641,0.12093 -0.0132,0.0462 -0.0196,0.0951 -0.0196,0.14727 0,0.0879 0.0176,0.15536 0.0527,0.20154 0.0366,0.0446 0.0881,0.0667 0.154,0.0667 0.0688,0 0.12738,-0.0146 0.1757,-0.0429 0.0483,-0.0283 0.0841,-0.0615 0.10749,-0.10025 v -0.50281 z m 15.90755,0 c -0.0586,0 -0.10894,0.009 -0.15141,0.0289 -0.0425,0.0194 -0.0787,0.0462 -0.108,0.0806 -0.0278,0.0343 -0.0489,0.0748 -0.0636,0.12093 -0.0132,0.0462 -0.0196,0.0951 -0.0196,0.14727 0,0.0879 0.0176,0.15536 0.0527,0.20154 0.0366,0.0446 0.0876,0.0667 0.15348,0.0667 0.0688,0 0.12738,-0.0146 0.1757,-0.0429 0.0483,-0.0283 0.0846,-0.0615 0.108,-0.10025 v -0.50281 z"
       inkscape:export-filename="topic_tags\topic_3.svg"
       inkscape:export-xdpi="96"
       inkscape:export-ydpi="96" /></g></svg>
