<?xml version="1.0" encoding="UTF-8" standalone="no"?>
<!-- Created with Inkscape (http://www.inkscape.org/) -->

<svg
   width="45.600315mm"
   height="10.500135mm"
   viewBox="0 0 45.600315 10.500135"
   version="1.1"
   id="svg1"
   xml:space="preserve"
   inkscape:version="1.3.1 (91b66b0783, 2023-11-16)"
   sodipodi:docname="assets.svg"
   xmlns:inkscape="http://www.inkscape.org/namespaces/inkscape"
   xmlns:sodipodi="http://sodipodi.sourceforge.net/DTD/sodipodi-0.dtd"
   xmlns="http://www.w3.org/2000/svg"
   xmlns:svg="http://www.w3.org/2000/svg"><sodipodi:namedview
     id="namedview1"
     pagecolor="#ffffff"
     bordercolor="#000000"
     borderopacity="0.25"
     inkscape:showpageshadow="2"
     inkscape:pageopacity="0.0"
     inkscape:pagecheckerboard="0"
     inkscape:deskcolor="#d1d1d1"
     inkscape:document-units="mm"
     inkscape:zoom="1"
     inkscape:cx="1883.5"
     inkscape:cy="284.5"
     inkscape:window-width="2560"
     inkscape:window-height="1346"
     inkscape:window-x="-11"
     inkscape:window-y="-11"
     inkscape:window-maximized="1"
     inkscape:current-layer="layer1"
     showgrid="true"><inkscape:grid
       id="grid668"
       units="mm"
       originx="-606.89805"
       originy="-139.08546"
       spacingx="0.5"
       spacingy="0.5"
       empcolor="#0099e5"
       empopacity="0.30196078"
       color="#0099e5"
       opacity="0.14901961"
       empspacing="5"
       dotted="false"
       gridanglex="30"
       gridanglez="30"
       visible="true" /></sodipodi:namedview><defs
     id="defs1" /><g
     inkscape:label="Layer 1"
     inkscape:groupmode="layer"
     id="layer1"
     transform="translate(-606.89802,-139.08546)"><rect
       style="fill:#f9f9f9;stroke-width:0.5;stroke-linejoin:round;stroke-miterlimit:3.4;stroke-dashoffset:19.8539"
       id="rect23"
       width="32.67989"
       height="7.1517849"
       x="609.82013"
       y="140.34822" /><path
       id="path734"
       style="fill:#2c2c6f;fill-opacity:1;stroke-width:0.264583"
       d="m 610.52419,139.08545 c -2.00263,0 -3.62614,1.61081 -3.62614,3.59772 v 3.30471 c 0,1.98691 1.62351,3.59771 3.62614,3.59771 h 34.47386 v -10.50014 z m 34.97409,0 v 10.50014 h 1.99988 v -10.50014 z m 2.50011,0 v 10.50014 h 1.99987 v -10.50014 z m 2.49959,0 v 10.50014 h 2.00039 v -10.50014 z m -10.80658,3.47835 h 0.62373 v 3.34708 h -0.62373 z m -23.13967,0.0522 c 0.0512,0 0.0975,0.008 0.13849,0.0238 0.0425,0.016 0.0782,0.0386 0.10749,0.0677 0.0293,0.0291 0.0521,0.0637 0.0682,0.10438 0.0161,0.0392 0.0243,0.0828 0.0243,0.13074 0,0.0479 -0.008,0.0921 -0.0243,0.13281 -0.0161,0.0392 -0.0389,0.0744 -0.0682,0.10491 -0.0293,0.0291 -0.065,0.0512 -0.10749,0.0672 -0.041,0.016 -0.0873,0.0243 -0.13849,0.0243 -0.0513,0 -0.0981,-0.008 -0.14056,-0.0243 -0.041,-0.016 -0.0761,-0.0381 -0.10542,-0.0672 -0.0293,-0.0305 -0.0521,-0.0657 -0.0682,-0.10491 -0.0161,-0.0407 -0.0238,-0.0849 -0.0238,-0.13281 0,-0.0479 0.008,-0.0915 0.0238,-0.13074 0.0161,-0.0407 0.0389,-0.0753 0.0682,-0.10438 0.0293,-0.0291 0.0644,-0.0517 0.10542,-0.0677 0.0425,-0.016 0.0893,-0.0238 0.14056,-0.0238 z m -3.80597,0.0786 c 0.15374,0 0.29197,0.0245 0.41496,0.0739 0.12446,0.0479 0.22988,0.11542 0.31626,0.20258 0.0879,0.0857 0.1552,0.18897 0.20205,0.30954 0.0469,0.11911 0.0703,0.25048 0.0703,0.39429 h -0.64337 c 0,-0.0668 -0.008,-0.12774 -0.0222,-0.18294 -0.0132,-0.0566 -0.0349,-0.10443 -0.0656,-0.14366 -0.0293,-0.0407 -0.0674,-0.0723 -0.1142,-0.0941 -0.0469,-0.0232 -0.10309,-0.0346 -0.16898,-0.0346 -0.0615,0 -0.11533,0.01 -0.16072,0.0284 -0.0439,0.0189 -0.0803,0.0446 -0.10955,0.078 -0.0293,0.032 -0.0516,0.0707 -0.0661,0.11576 -0.0146,0.045 -0.0217,0.0928 -0.0217,0.14366 0,0.0523 0.0111,0.0995 0.0331,0.14159 0.0234,0.0421 0.0556,0.0815 0.0966,0.11782 0.0425,0.0363 0.0928,0.0704 0.15141,0.10232 0.06,0.032 0.12566,0.063 0.1974,0.0935 0.14934,0.0537 0.27991,0.11395 0.39119,0.17932 0.11128,0.0654 0.20439,0.13889 0.27906,0.22169 0.0747,0.0828 0.1303,0.17653 0.16691,0.28112 0.0366,0.10313 0.0548,0.22014 0.0548,0.35088 0,0.13945 -0.0234,0.26364 -0.0703,0.37259 -0.0454,0.10894 -0.11154,0.20093 -0.19792,0.27647 -0.0849,0.0741 -0.18802,0.13192 -0.30955,0.1726 -0.12152,0.0392 -0.25855,0.0589 -0.41082,0.0589 -0.13764,0 -0.27294,-0.0203 -0.40618,-0.061 -0.13178,-0.0421 -0.24951,-0.10602 -0.35347,-0.19172 -0.10395,-0.0857 -0.18826,-0.19431 -0.25269,-0.32505 -0.063,-0.13073 -0.0946,-0.28599 -0.0946,-0.46612 h 0.64802 c 0,0.0959 0.009,0.17709 0.0284,0.24392 0.019,0.0668 0.0477,0.12168 0.0858,0.16381 0.0395,0.0407 0.0881,0.07 0.14521,0.0889 0.0571,0.0174 0.12333,0.0264 0.19947,0.0264 0.0615,0 0.1136,-0.009 0.15606,-0.0264 0.0439,-0.0189 0.0791,-0.0439 0.10542,-0.0744 0.0278,-0.032 0.0477,-0.0696 0.0594,-0.11317 0.0117,-0.0436 0.0176,-0.0907 0.0176,-0.1416 0,-0.0552 -0.005,-0.10421 -0.0155,-0.14779 -0.0102,-0.0436 -0.0319,-0.0842 -0.0656,-0.12196 -0.0322,-0.0392 -0.0791,-0.0774 -0.14056,-0.11369 -0.06,-0.0363 -0.14083,-0.0746 -0.24185,-0.11523 -0.12007,-0.045 -0.23486,-0.0969 -0.34468,-0.15503 -0.10834,-0.0581 -0.20439,-0.12568 -0.28784,-0.20412 -0.082,-0.0799 -0.14762,-0.17179 -0.1974,-0.27492 -0.0483,-0.10459 -0.0729,-0.22632 -0.0729,-0.36432 0,-0.13219 0.0251,-0.25227 0.0749,-0.36122 0.0498,-0.1104 0.11946,-0.20413 0.20878,-0.28112 0.0908,-0.077 0.1974,-0.13668 0.32039,-0.1788 0.12445,-0.0436 0.26148,-0.0651 0.41083,-0.0651 z m 15.3386,0 c 0.18156,0 0.33796,0.0222 0.46974,0.0672 0.13176,0.045 0.24184,0.11302 0.32969,0.20308 0.0879,0.0886 0.15521,0.19906 0.20206,0.33125 0.0468,0.13074 0.0767,0.28179 0.0899,0.4532 h -0.62787 c -0.009,-0.10023 -0.0234,-0.18381 -0.0439,-0.25063 -0.019,-0.0668 -0.0471,-0.11994 -0.0837,-0.15916 -0.0351,-0.0407 -0.0791,-0.0699 -0.13177,-0.0873 -0.0512,-0.0174 -0.11275,-0.0258 -0.18449,-0.0258 -0.0849,0 -0.15873,0.015 -0.22169,0.0455 -0.063,0.0291 -0.11567,0.0769 -0.15813,0.14366 -0.041,0.0654 -0.072,0.15131 -0.0925,0.25735 -0.0205,0.10459 -0.0305,0.23175 -0.0305,0.38137 v 0.54054 c 0,0.15107 0.0111,0.27885 0.0331,0.38344 0.0234,0.10459 0.0574,0.19001 0.10284,0.25683 0.0469,0.0654 0.10542,0.11367 0.1757,0.14418 0.0703,0.0291 0.15339,0.0434 0.24856,0.0434 0.0571,0 0.10517,-0.005 0.1447,-0.0134 0.041,-0.009 0.0755,-0.0183 0.10335,-0.03 0.0293,-0.0131 0.0527,-0.0267 0.0703,-0.0398 0.019,-0.0131 0.0349,-0.0239 0.0481,-0.0326 v -0.58136 h -0.45217 v -0.48421 h 1.10019 v 1.30948 c -0.0337,0.0363 -0.0788,0.0781 -0.13591,0.12454 -0.0571,0.0465 -0.1291,0.0907 -0.21549,0.13281 -0.0849,0.0407 -0.18508,0.0752 -0.30075,0.10284 -0.11567,0.0291 -0.24918,0.0434 -0.39998,0.0434 -0.17863,0 -0.33968,-0.028 -0.48317,-0.0832 -0.14349,-0.0552 -0.26648,-0.13878 -0.36897,-0.25063 -0.10249,-0.11186 -0.18156,-0.25224 -0.2372,-0.4222 -0.0542,-0.17141 -0.0811,-0.37261 -0.0811,-0.60358 v -0.5364 c 0,-0.23097 0.0264,-0.43156 0.0791,-0.60152 0.0527,-0.17141 0.12764,-0.31354 0.22428,-0.42684 0.0981,-0.11331 0.21643,-0.1975 0.35553,-0.2527 0.14056,-0.0552 0.29809,-0.0827 0.47233,-0.0827 z m -9.84126,0.81442 v 5.1e-4 c 0.30162,0 0.5277,0.0962 0.67851,0.28939 0.15081,0.1932 0.22634,0.47973 0.22634,0.85886 v 0.28112 h -1.23662 c 0.004,0.0944 0.0167,0.17328 0.0372,0.2372 0.022,0.0639 0.0512,0.1158 0.0879,0.15503 0.0366,0.0392 0.0805,0.0673 0.13178,0.0848 0.0527,0.0174 0.11187,0.0264 0.17776,0.0264 0.10981,0 0.20757,-0.0179 0.29249,-0.0543 0.0864,-0.0378 0.16252,-0.0903 0.22841,-0.15709 l 0.2434,0.37207 c -0.0307,0.0421 -0.0706,0.0845 -0.12041,0.1266 -0.0498,0.0407 -0.10835,0.0782 -0.1757,0.11162 -0.0674,0.0334 -0.14349,0.0598 -0.22841,0.0801 -0.0849,0.0218 -0.17803,0.0331 -0.27905,0.0331 -0.16253,0 -0.30661,-0.025 -0.43253,-0.0744 -0.12591,-0.0494 -0.23246,-0.12045 -0.31885,-0.21342 -0.0864,-0.093 -0.15201,-0.20587 -0.1974,-0.33952 -0.0439,-0.13509 -0.0661,-0.2885 -0.0661,-0.45992 v -0.19378 c 0,-0.19175 0.0216,-0.36004 0.0641,-0.50385 0.0439,-0.14526 0.10602,-0.26647 0.18655,-0.3638 0.082,-0.0988 0.18156,-0.17282 0.29869,-0.22221 0.1186,-0.0494 0.25271,-0.0744 0.40205,-0.0744 z m 2.39365,0 v 5.1e-4 c 0.0922,0 0.17716,0.0161 0.25476,0.0481 0.0776,0.0305 0.14435,0.0808 0.19999,0.15193 0.0556,0.0712 0.099,0.1643 0.12971,0.27905 0.0307,0.11476 0.046,0.25618 0.046,0.42323 v 1.49914 h -0.62373 v -1.50172 c 0,-0.0755 -0.006,-0.13768 -0.0176,-0.18707 -0.0117,-0.0494 -0.0293,-0.0893 -0.0527,-0.11834 -0.022,-0.029 -0.05,-0.0493 -0.0837,-0.061 -0.0337,-0.0116 -0.0729,-0.0171 -0.11834,-0.0171 -0.0586,0 -0.11006,0.0155 -0.15399,0.046 -0.0439,0.0305 -0.0803,0.0724 -0.10956,0.12609 v 1.71308 h -0.62373 v -2.358 h 0.58394 l 0.0176,0.23306 c 0.0688,-0.0901 0.14961,-0.15867 0.24185,-0.20515 0.0922,-0.0479 0.19534,-0.0718 0.30954,-0.0718 z m 4.0411,0 v 5.1e-4 c 0.30162,0 0.5277,0.0962 0.67851,0.28939 0.15081,0.1932 0.22634,0.47973 0.22634,0.85886 v 0.28112 h -1.23662 c 0.004,0.0944 0.0172,0.17328 0.0377,0.2372 0.022,0.0639 0.0512,0.1158 0.0879,0.15503 0.0366,0.0392 0.0805,0.0673 0.13177,0.0848 0.0527,0.0174 0.11188,0.0264 0.17777,0.0264 0.10981,0 0.20705,-0.0179 0.29197,-0.0543 0.0864,-0.0378 0.16253,-0.0903 0.22841,-0.15709 l 0.24391,0.37207 c -0.0307,0.0421 -0.0711,0.0845 -0.12092,0.1266 -0.0498,0.0407 -0.10834,0.0782 -0.1757,0.11162 -0.0674,0.0334 -0.14349,0.0598 -0.22841,0.0801 -0.0849,0.0218 -0.17802,0.0331 -0.27905,0.0331 -0.16252,0 -0.30661,-0.025 -0.43253,-0.0744 -0.12592,-0.0494 -0.23194,-0.12045 -0.31833,-0.21342 -0.0864,-0.093 -0.15253,-0.20587 -0.19792,-0.33952 -0.0439,-0.13509 -0.0656,-0.2885 -0.0656,-0.45992 v -0.19378 c 0,-0.19175 0.0211,-0.36004 0.0636,-0.50385 0.0439,-0.14526 0.10603,-0.26647 0.18655,-0.3638 0.082,-0.0988 0.18156,-0.17282 0.29869,-0.22221 0.1186,-0.0494 0.25271,-0.0744 0.40205,-0.0744 z m 5.82031,0 v 5.1e-4 c 0.30162,0 0.5277,0.0962 0.67851,0.28939 0.15081,0.1932 0.22635,0.47973 0.22635,0.85886 v 0.28112 h -1.23662 c 0.004,0.0944 0.0167,0.17328 0.0372,0.2372 0.022,0.0639 0.0512,0.1158 0.0879,0.15503 0.0366,0.0392 0.0805,0.0673 0.13177,0.0848 0.0527,0.0174 0.11188,0.0264 0.17777,0.0264 0.10981,0 0.20756,-0.0179 0.29249,-0.0543 0.0864,-0.0378 0.16252,-0.0903 0.22841,-0.15709 l 0.24339,0.37207 c -0.0308,0.0421 -0.0706,0.0845 -0.1204,0.1266 -0.0498,0.0407 -0.10835,0.0782 -0.1757,0.11162 -0.0674,0.0334 -0.14349,0.0598 -0.22841,0.0801 -0.0849,0.0218 -0.17803,0.0331 -0.27906,0.0331 -0.16252,0 -0.30661,-0.025 -0.43253,-0.0744 -0.12592,-0.0494 -0.23246,-0.12045 -0.31884,-0.21342 -0.0864,-0.093 -0.15201,-0.20587 -0.1974,-0.33952 -0.0439,-0.13509 -0.0661,-0.2885 -0.0661,-0.45992 v -0.19378 c 0,-0.19175 0.0216,-0.36004 0.0641,-0.50385 0.0439,-0.14526 0.10602,-0.26647 0.18655,-0.3638 0.082,-0.0988 0.18156,-0.17282 0.29869,-0.22221 0.1186,-0.0494 0.25269,-0.0744 0.40204,-0.0744 z m 2.39365,0 v 5.1e-4 c 0.0922,0 0.17717,0.0161 0.25477,0.0481 0.0776,0.0305 0.14435,0.0808 0.19999,0.15193 0.0556,0.0712 0.099,0.1643 0.12971,0.27905 0.0308,0.11476 0.046,0.25618 0.046,0.42323 v 1.49914 h -0.62374 v -1.50172 c 0,-0.0755 -0.006,-0.13768 -0.0176,-0.18707 -0.0117,-0.0494 -0.0293,-0.0893 -0.0527,-0.11834 -0.022,-0.029 -0.05,-0.0493 -0.0837,-0.061 -0.0337,-0.0116 -0.0729,-0.0171 -0.11834,-0.0171 -0.0586,0 -0.11007,0.0155 -0.154,0.046 -0.0439,0.0305 -0.0803,0.0724 -0.10955,0.12609 v 1.71308 h -0.62374 v -2.358 h 0.58395 l 0.0176,0.23306 c 0.0688,-0.0901 0.1496,-0.15867 0.24184,-0.20515 0.0922,-0.0479 0.19534,-0.0718 0.30954,-0.0718 z m 1.97249,0 v 5.1e-4 c 0.30162,0 0.52771,0.0962 0.67852,0.28939 0.15081,0.1932 0.22634,0.47973 0.22634,0.85886 v 0.28112 h -1.23662 c 0.004,0.0944 0.0167,0.17328 0.0372,0.2372 0.022,0.0639 0.0512,0.1158 0.0879,0.15503 0.0366,0.0392 0.0805,0.0673 0.13177,0.0848 0.0527,0.0174 0.11188,0.0264 0.17777,0.0264 0.10981,0 0.20757,-0.0179 0.29249,-0.0543 0.0864,-0.0378 0.16252,-0.0903 0.22841,-0.15709 l 0.24339,0.37207 c -0.0308,0.0421 -0.0706,0.0845 -0.1204,0.1266 -0.0498,0.0407 -0.10835,0.0782 -0.1757,0.11162 -0.0673,0.0334 -0.14349,0.0598 -0.22841,0.0801 -0.0849,0.0218 -0.17802,0.0331 -0.27905,0.0331 -0.16252,0 -0.30662,-0.025 -0.43254,-0.0744 -0.12592,-0.0494 -0.23246,-0.12045 -0.31884,-0.21342 -0.0864,-0.093 -0.15202,-0.20587 -0.1974,-0.33952 -0.0439,-0.13509 -0.0661,-0.2885 -0.0661,-0.45992 v -0.19378 c 0,-0.19175 0.0216,-0.36004 0.0641,-0.50385 0.0439,-0.14526 0.10602,-0.26647 0.18655,-0.3638 0.082,-0.0988 0.18155,-0.17282 0.29869,-0.22221 0.11859,-0.0494 0.2527,-0.0744 0.40204,-0.0744 z m 3.52899,0 v 5.1e-4 c 0.1186,0 0.22807,0.015 0.32763,0.0455 0.0996,0.0291 0.18569,0.0756 0.2589,0.13953 0.0732,0.0625 0.13056,0.14306 0.17156,0.24184 0.041,0.0973 0.0615,0.21547 0.0615,0.35347 v 1.04541 c 0,0.0683 10e-4,0.12971 0.004,0.18345 0.004,0.0523 0.0103,0.0996 0.0176,0.14315 0.007,0.0421 0.0161,0.0809 0.0264,0.11575 0.0117,0.0334 0.0251,0.0651 0.0398,0.0956 v 0.0377 h -0.62632 c -0.0117,-0.0247 -0.0217,-0.0527 -0.0305,-0.0832 -0.007,-0.032 -0.0149,-0.0654 -0.0222,-0.10025 -0.0469,0.0639 -0.10723,0.11765 -0.1819,0.16123 -0.0732,0.0436 -0.16338,0.0656 -0.27027,0.0656 -0.0966,0 -0.18742,-0.0167 -0.27234,-0.0501 -0.0835,-0.0334 -0.15666,-0.0806 -0.21962,-0.14159 -0.0615,-0.061 -0.11068,-0.13495 -0.14728,-0.22066 -0.0351,-0.0872 -0.0527,-0.18396 -0.0527,-0.29146 0,-0.11911 0.0193,-0.22658 0.0574,-0.32246 0.0395,-0.0973 0.0981,-0.17967 0.1757,-0.24649 0.0791,-0.0683 0.1769,-0.12027 0.29404,-0.15658 0.11859,-0.0363 0.25796,-0.0548 0.41755,-0.0548 h 0.16898 v -0.18914 c 0,-0.10604 -0.0182,-0.18121 -0.0548,-0.22479 -0.0366,-0.0436 -0.0904,-0.0656 -0.16071,-0.0656 -0.0805,0 -0.1397,0.0244 -0.17777,0.0724 -0.0366,0.0465 -0.0548,0.11221 -0.0548,0.19792 h -0.62166 c 0,-0.10314 0.0199,-0.19984 0.0594,-0.28991 0.041,-0.0915 0.0996,-0.17098 0.1757,-0.23926 0.0761,-0.0683 0.16752,-0.12201 0.27441,-0.16123 0.10688,-0.0407 0.22754,-0.0615 0.36225,-0.0615 z m -23.381,5.1e-4 c 0.12738,0 0.24278,0.0203 0.34674,0.061 0.10542,0.0392 0.195,0.0978 0.26821,0.17622 0.0747,0.077 0.13151,0.17256 0.17104,0.28732 0.041,0.11476 0.0626,0.24787 0.0641,0.39894 h -0.58446 c -0.002,-0.13219 -0.0232,-0.23371 -0.0656,-0.30489 -0.0425,-0.0712 -0.11274,-0.10645 -0.21084,-0.10645 -0.0688,0 -0.12384,0.0137 -0.16484,0.0413 -0.0395,0.0276 -0.0705,0.0682 -0.0925,0.12196 -0.0205,0.0523 -0.034,0.1174 -0.0414,0.19585 -0.006,0.077 -0.009,0.16651 -0.009,0.2682 v 0.1695 c 0,0.10314 0.003,0.19441 0.009,0.27285 0.006,0.077 0.0188,0.14149 0.0393,0.19379 0.022,0.0523 0.0536,0.0912 0.0946,0.1173 0.041,0.0261 0.0966,0.0398 0.16691,0.0398 0.0864,0 0.15314,-0.0263 0.19999,-0.0786 0.0483,-0.0537 0.0729,-0.14388 0.0744,-0.27026 h 0.58446 c -10e-4,0.13364 -0.0243,0.25424 -0.0682,0.36173 -0.0439,0.10604 -0.10421,0.19567 -0.18035,0.26975 -0.0747,0.0741 -0.16313,0.13132 -0.26562,0.17054 -0.10249,0.0392 -0.21316,0.0589 -0.33176,0.0589 -0.15959,0 -0.29844,-0.0256 -0.41703,-0.0765 -0.1186,-0.0508 -0.21755,-0.12376 -0.29662,-0.21963 -0.0776,-0.0973 -0.13616,-0.21669 -0.1757,-0.3576 -0.0381,-0.14091 -0.0568,-0.30201 -0.0568,-0.48214 v -0.1695 c 0,-0.18013 0.0189,-0.34072 0.0568,-0.48162 0.0395,-0.14236 0.0981,-0.26235 0.1757,-0.35967 0.0776,-0.0973 0.17595,-0.17137 0.29455,-0.22221 0.1186,-0.0508 0.25684,-0.076 0.41497,-0.076 z m 7.56801,0 c 0.12739,0 0.24331,0.0203 0.34727,0.061 0.10542,0.0392 0.19448,0.0978 0.26768,0.17622 0.0747,0.077 0.13203,0.17256 0.17156,0.28732 0.041,0.11476 0.0621,0.24787 0.0636,0.39894 h -0.58395 c -10e-4,-0.13219 -0.0237,-0.23371 -0.0661,-0.30489 -0.0425,-0.0712 -0.11274,-0.10645 -0.21084,-0.10645 -0.0688,0 -0.12385,0.0137 -0.16485,0.0413 -0.0395,0.0276 -0.07,0.0682 -0.092,0.12196 -0.0205,0.0523 -0.0345,0.1174 -0.0419,0.19585 -0.006,0.077 -0.009,0.16651 -0.009,0.2682 v 0.1695 c 0,0.10314 0.003,0.19441 0.009,0.27285 0.006,0.077 0.0193,0.14149 0.0398,0.19379 0.022,0.0523 0.053,0.0912 0.094,0.1173 0.041,0.0261 0.0966,0.0398 0.16691,0.0398 0.0864,0 0.15314,-0.0263 0.19999,-0.0786 0.0483,-0.0537 0.0735,-0.14388 0.0749,-0.27026 h 0.58395 c -0.001,0.13364 -0.0243,0.25424 -0.0682,0.36173 -0.0439,0.10604 -0.10369,0.19567 -0.17983,0.26975 -0.0747,0.0741 -0.16312,0.13132 -0.26562,0.17054 -0.10249,0.0392 -0.21316,0.0589 -0.33176,0.0589 -0.15959,0 -0.29896,-0.0256 -0.41755,-0.0765 -0.1186,-0.0508 -0.21703,-0.12376 -0.2961,-0.21963 -0.0776,-0.0973 -0.13617,-0.21669 -0.1757,-0.3576 -0.0381,-0.14091 -0.0574,-0.30201 -0.0574,-0.48214 v -0.1695 c 0,-0.18013 0.0193,-0.34072 0.0574,-0.48162 0.0395,-0.14236 0.0981,-0.26235 0.1757,-0.35967 0.0776,-0.0973 0.17544,-0.17137 0.29404,-0.22221 0.1186,-0.0508 0.25683,-0.076 0.41496,-0.076 z m 14.54795,0 c 0.0278,0 0.0582,0.002 0.0904,0.008 0.0337,0.004 0.0606,0.0109 0.0811,0.0196 l -0.007,0.6103 c -0.0278,-0.003 -0.0624,-0.006 -0.10335,-0.0109 -0.0395,-0.004 -0.0735,-0.007 -0.10284,-0.007 -0.0893,0 -0.16193,0.0191 -0.21756,0.0568 -0.0556,0.0378 -0.0984,0.0932 -0.12764,0.16588 v 1.55805 h -0.62373 v -2.358 h 0.58653 l 0.0181,0.25477 c 0.0469,-0.0944 0.10422,-0.16785 0.17157,-0.22014 0.0688,-0.0523 0.14676,-0.078 0.23461,-0.078 z m -20.88606,0.0434 h 0.62373 v 2.358 h -0.62373 z m 1.99626,0.46871 c -0.10835,0 -0.18742,0.0382 -0.2372,0.11524 -0.0483,0.077 -0.077,0.20056 -0.0858,0.37052 h 0.62167 v -0.0568 c -0.003,-0.1409 -0.0264,-0.24776 -0.0703,-0.32039 -0.0439,-0.0726 -0.12006,-0.10852 -0.22841,-0.10852 z m 6.43526,0 c -0.10835,0 -0.18741,0.0382 -0.23719,0.11524 -0.0483,0.077 -0.077,0.20056 -0.0858,0.37052 h 0.62167 v -0.0568 c -0.003,-0.1409 -0.0264,-0.24776 -0.0703,-0.32039 -0.0439,-0.0726 -0.12006,-0.10852 -0.22841,-0.10852 z m 5.8198,0 c -0.10835,0 -0.18741,0.0382 -0.23719,0.11524 -0.0483,0.077 -0.077,0.20056 -0.0858,0.37052 h 0.62167 v -0.0568 c -0.003,-0.1409 -0.0264,-0.24776 -0.0703,-0.32039 -0.0439,-0.0726 -0.12006,-0.10852 -0.22841,-0.10852 z m 4.36614,0 c -0.10835,0 -0.1874,0.0382 -0.23719,0.11524 -0.0483,0.077 -0.077,0.20056 -0.0858,0.37052 h 0.62166 v -0.0568 c -0.003,-0.1409 -0.0264,-0.24776 -0.0703,-0.32039 -0.0439,-0.0726 -0.12006,-0.10852 -0.22841,-0.10852 z m 3.58428,0.81907 c -0.0586,0 -0.10895,0.01 -0.15141,0.0284 -0.0425,0.0189 -0.0782,0.0446 -0.10749,0.078 -0.0278,0.0334 -0.0494,0.0733 -0.0641,0.11834 -0.0132,0.045 -0.0196,0.0923 -0.0196,0.14315 0,0.0857 0.0176,0.15133 0.0527,0.19637 0.0366,0.0436 0.0881,0.0651 0.15399,0.0651 0.0688,0 0.12739,-0.0137 0.1757,-0.0413 0.0483,-0.0276 0.0841,-0.0599 0.10749,-0.0977 v -0.49041 z" /><path
       id="path153"
       style="fill:#2c2c6f;fill-opacity:1;stroke-width:0.264583"
       d="m 610.52419,139.08545 c -2.00263,0 -3.62614,1.61081 -3.62614,3.59772 v 3.30471 c 0,1.98691 1.62351,3.59771 3.62614,3.59771 h 34.47386 v -10.50014 z m 34.97409,0 v 10.50014 h 1.99988 v -10.50014 z m 2.50011,0 v 10.50014 h 1.99987 v -10.50014 z m 2.49959,0 v 10.50014 h 2.00039 v -10.50014 z m -10.80658,3.47835 h 0.62373 v 3.34708 h -0.62373 z m -23.13967,0.0522 c 0.0512,0 0.0975,0.008 0.13849,0.0238 0.0425,0.016 0.0782,0.0386 0.10749,0.0677 0.0293,0.0291 0.0521,0.0637 0.0682,0.10438 0.0161,0.0392 0.0243,0.0828 0.0243,0.13074 0,0.0479 -0.008,0.0921 -0.0243,0.13281 -0.0161,0.0392 -0.0389,0.0744 -0.0682,0.10491 -0.0293,0.0291 -0.065,0.0512 -0.10749,0.0672 -0.041,0.016 -0.0873,0.0243 -0.13849,0.0243 -0.0513,0 -0.0981,-0.008 -0.14056,-0.0243 -0.041,-0.016 -0.0761,-0.0381 -0.10542,-0.0672 -0.0293,-0.0305 -0.0521,-0.0657 -0.0682,-0.10491 -0.0161,-0.0407 -0.0238,-0.0849 -0.0238,-0.13281 0,-0.0479 0.008,-0.0915 0.0238,-0.13074 0.0161,-0.0407 0.0389,-0.0753 0.0682,-0.10438 0.0293,-0.0291 0.0644,-0.0517 0.10542,-0.0677 0.0425,-0.016 0.0893,-0.0238 0.14056,-0.0238 z m -3.80597,0.0786 c 0.15374,0 0.29197,0.0245 0.41496,0.0739 0.12446,0.0479 0.22988,0.11542 0.31626,0.20258 0.0879,0.0857 0.1552,0.18897 0.20205,0.30954 0.0469,0.11911 0.0703,0.25048 0.0703,0.39429 h -0.64337 c 0,-0.0668 -0.008,-0.12774 -0.0222,-0.18294 -0.0132,-0.0566 -0.0349,-0.10443 -0.0656,-0.14366 -0.0293,-0.0407 -0.0674,-0.0723 -0.1142,-0.0941 -0.0469,-0.0232 -0.10309,-0.0346 -0.16898,-0.0346 -0.0615,0 -0.11533,0.01 -0.16072,0.0284 -0.0439,0.0189 -0.0803,0.0446 -0.10955,0.078 -0.0293,0.032 -0.0516,0.0707 -0.0661,0.11576 -0.0146,0.045 -0.0217,0.0928 -0.0217,0.14366 0,0.0523 0.0111,0.0995 0.0331,0.14159 0.0234,0.0421 0.0556,0.0815 0.0966,0.11782 0.0425,0.0363 0.0928,0.0704 0.15141,0.10232 0.06,0.032 0.12566,0.063 0.1974,0.0935 0.14934,0.0537 0.27991,0.11395 0.39119,0.17932 0.11128,0.0654 0.20439,0.13889 0.27906,0.22169 0.0747,0.0828 0.1303,0.17653 0.16691,0.28112 0.0366,0.10313 0.0548,0.22014 0.0548,0.35088 0,0.13945 -0.0234,0.26364 -0.0703,0.37259 -0.0454,0.10894 -0.11154,0.20093 -0.19792,0.27647 -0.0849,0.0741 -0.18802,0.13192 -0.30955,0.1726 -0.12152,0.0392 -0.25855,0.0589 -0.41082,0.0589 -0.13764,0 -0.27294,-0.0203 -0.40618,-0.061 -0.13178,-0.0421 -0.24951,-0.10602 -0.35347,-0.19172 -0.10395,-0.0857 -0.18826,-0.19431 -0.25269,-0.32505 -0.063,-0.13073 -0.0946,-0.28599 -0.0946,-0.46612 h 0.64802 c 0,0.0959 0.009,0.17709 0.0284,0.24392 0.019,0.0668 0.0477,0.12168 0.0858,0.16381 0.0395,0.0407 0.0881,0.07 0.14521,0.0889 0.0571,0.0174 0.12333,0.0264 0.19947,0.0264 0.0615,0 0.1136,-0.009 0.15606,-0.0264 0.0439,-0.0189 0.0791,-0.0439 0.10542,-0.0744 0.0278,-0.032 0.0477,-0.0696 0.0594,-0.11317 0.0117,-0.0436 0.0176,-0.0907 0.0176,-0.1416 0,-0.0552 -0.005,-0.10421 -0.0155,-0.14779 -0.0102,-0.0436 -0.0319,-0.0842 -0.0656,-0.12196 -0.0322,-0.0392 -0.0791,-0.0774 -0.14056,-0.11369 -0.06,-0.0363 -0.14083,-0.0746 -0.24185,-0.11523 -0.12007,-0.045 -0.23486,-0.0969 -0.34468,-0.15503 -0.10834,-0.0581 -0.20439,-0.12568 -0.28784,-0.20412 -0.082,-0.0799 -0.14762,-0.17179 -0.1974,-0.27492 -0.0483,-0.10459 -0.0729,-0.22632 -0.0729,-0.36432 0,-0.13219 0.0251,-0.25227 0.0749,-0.36122 0.0498,-0.1104 0.11946,-0.20413 0.20878,-0.28112 0.0908,-0.077 0.1974,-0.13668 0.32039,-0.1788 0.12445,-0.0436 0.26148,-0.0651 0.41083,-0.0651 z m 15.3386,0 c 0.18156,0 0.33796,0.0222 0.46974,0.0672 0.13176,0.045 0.24184,0.11302 0.32969,0.20308 0.0879,0.0886 0.15521,0.19906 0.20206,0.33125 0.0468,0.13074 0.0767,0.28179 0.0899,0.4532 h -0.62787 c -0.009,-0.10023 -0.0234,-0.18381 -0.0439,-0.25063 -0.019,-0.0668 -0.0471,-0.11994 -0.0837,-0.15916 -0.0351,-0.0407 -0.0791,-0.0699 -0.13177,-0.0873 -0.0512,-0.0174 -0.11275,-0.0258 -0.18449,-0.0258 -0.0849,0 -0.15873,0.015 -0.22169,0.0455 -0.063,0.0291 -0.11567,0.0769 -0.15813,0.14366 -0.041,0.0654 -0.072,0.15131 -0.0925,0.25735 -0.0205,0.10459 -0.0305,0.23175 -0.0305,0.38137 v 0.54054 c 0,0.15107 0.0111,0.27885 0.0331,0.38344 0.0234,0.10459 0.0574,0.19001 0.10284,0.25683 0.0469,0.0654 0.10542,0.11367 0.1757,0.14418 0.0703,0.0291 0.15339,0.0434 0.24856,0.0434 0.0571,0 0.10517,-0.005 0.1447,-0.0134 0.041,-0.009 0.0755,-0.0183 0.10335,-0.03 0.0293,-0.0131 0.0527,-0.0267 0.0703,-0.0398 0.019,-0.0131 0.0349,-0.0239 0.0481,-0.0326 v -0.58136 h -0.45217 v -0.48421 h 1.10019 v 1.30948 c -0.0337,0.0363 -0.0788,0.0781 -0.13591,0.12454 -0.0571,0.0465 -0.1291,0.0907 -0.21549,0.13281 -0.0849,0.0407 -0.18508,0.0752 -0.30075,0.10284 -0.11567,0.0291 -0.24918,0.0434 -0.39998,0.0434 -0.17863,0 -0.33968,-0.028 -0.48317,-0.0832 -0.14349,-0.0552 -0.26648,-0.13878 -0.36897,-0.25063 -0.10249,-0.11186 -0.18156,-0.25224 -0.2372,-0.4222 -0.0542,-0.17141 -0.0811,-0.37261 -0.0811,-0.60358 v -0.5364 c 0,-0.23097 0.0264,-0.43156 0.0791,-0.60152 0.0527,-0.17141 0.12764,-0.31354 0.22428,-0.42684 0.0981,-0.11331 0.21643,-0.1975 0.35553,-0.2527 0.14056,-0.0552 0.29809,-0.0827 0.47233,-0.0827 z m -9.84126,0.81442 v 5.1e-4 c 0.30162,0 0.5277,0.0962 0.67851,0.28939 0.15081,0.1932 0.22634,0.47973 0.22634,0.85886 v 0.28112 h -1.23662 c 0.004,0.0944 0.0167,0.17328 0.0372,0.2372 0.022,0.0639 0.0512,0.1158 0.0879,0.15503 0.0366,0.0392 0.0805,0.0673 0.13178,0.0848 0.0527,0.0174 0.11187,0.0264 0.17776,0.0264 0.10981,0 0.20757,-0.0179 0.29249,-0.0543 0.0864,-0.0378 0.16252,-0.0903 0.22841,-0.15709 l 0.2434,0.37207 c -0.0307,0.0421 -0.0706,0.0845 -0.12041,0.1266 -0.0498,0.0407 -0.10835,0.0782 -0.1757,0.11162 -0.0674,0.0334 -0.14349,0.0598 -0.22841,0.0801 -0.0849,0.0218 -0.17803,0.0331 -0.27905,0.0331 -0.16253,0 -0.30661,-0.025 -0.43253,-0.0744 -0.12591,-0.0494 -0.23246,-0.12045 -0.31885,-0.21342 -0.0864,-0.093 -0.15201,-0.20587 -0.1974,-0.33952 -0.0439,-0.13509 -0.0661,-0.2885 -0.0661,-0.45992 v -0.19378 c 0,-0.19175 0.0216,-0.36004 0.0641,-0.50385 0.0439,-0.14526 0.10602,-0.26647 0.18655,-0.3638 0.082,-0.0988 0.18156,-0.17282 0.29869,-0.22221 0.1186,-0.0494 0.25271,-0.0744 0.40205,-0.0744 z m 2.39365,0 v 5.1e-4 c 0.0922,0 0.17716,0.0161 0.25476,0.0481 0.0776,0.0305 0.14435,0.0808 0.19999,0.15193 0.0556,0.0712 0.099,0.1643 0.12971,0.27905 0.0307,0.11476 0.046,0.25618 0.046,0.42323 v 1.49914 h -0.62373 v -1.50172 c 0,-0.0755 -0.006,-0.13768 -0.0176,-0.18707 -0.0117,-0.0494 -0.0293,-0.0893 -0.0527,-0.11834 -0.022,-0.029 -0.05,-0.0493 -0.0837,-0.061 -0.0337,-0.0116 -0.0729,-0.0171 -0.11834,-0.0171 -0.0586,0 -0.11006,0.0155 -0.15399,0.046 -0.0439,0.0305 -0.0803,0.0724 -0.10956,0.12609 v 1.71308 h -0.62373 v -2.358 h 0.58394 l 0.0176,0.23306 c 0.0688,-0.0901 0.14961,-0.15867 0.24185,-0.20515 0.0922,-0.0479 0.19534,-0.0718 0.30954,-0.0718 z m 4.0411,0 v 5.1e-4 c 0.30162,0 0.5277,0.0962 0.67851,0.28939 0.15081,0.1932 0.22634,0.47973 0.22634,0.85886 v 0.28112 h -1.23662 c 0.004,0.0944 0.0172,0.17328 0.0377,0.2372 0.022,0.0639 0.0512,0.1158 0.0879,0.15503 0.0366,0.0392 0.0805,0.0673 0.13177,0.0848 0.0527,0.0174 0.11188,0.0264 0.17777,0.0264 0.10981,0 0.20705,-0.0179 0.29197,-0.0543 0.0864,-0.0378 0.16253,-0.0903 0.22841,-0.15709 l 0.24391,0.37207 c -0.0307,0.0421 -0.0711,0.0845 -0.12092,0.1266 -0.0498,0.0407 -0.10834,0.0782 -0.1757,0.11162 -0.0674,0.0334 -0.14349,0.0598 -0.22841,0.0801 -0.0849,0.0218 -0.17802,0.0331 -0.27905,0.0331 -0.16252,0 -0.30661,-0.025 -0.43253,-0.0744 -0.12592,-0.0494 -0.23194,-0.12045 -0.31833,-0.21342 -0.0864,-0.093 -0.15253,-0.20587 -0.19792,-0.33952 -0.0439,-0.13509 -0.0656,-0.2885 -0.0656,-0.45992 v -0.19378 c 0,-0.19175 0.0211,-0.36004 0.0636,-0.50385 0.0439,-0.14526 0.10603,-0.26647 0.18655,-0.3638 0.082,-0.0988 0.18156,-0.17282 0.29869,-0.22221 0.1186,-0.0494 0.25271,-0.0744 0.40205,-0.0744 z m 5.82031,0 v 5.1e-4 c 0.30162,0 0.5277,0.0962 0.67851,0.28939 0.15081,0.1932 0.22635,0.47973 0.22635,0.85886 v 0.28112 h -1.23662 c 0.004,0.0944 0.0167,0.17328 0.0372,0.2372 0.022,0.0639 0.0512,0.1158 0.0879,0.15503 0.0366,0.0392 0.0805,0.0673 0.13177,0.0848 0.0527,0.0174 0.11188,0.0264 0.17777,0.0264 0.10981,0 0.20756,-0.0179 0.29249,-0.0543 0.0864,-0.0378 0.16252,-0.0903 0.22841,-0.15709 l 0.24339,0.37207 c -0.0308,0.0421 -0.0706,0.0845 -0.1204,0.1266 -0.0498,0.0407 -0.10835,0.0782 -0.1757,0.11162 -0.0674,0.0334 -0.14349,0.0598 -0.22841,0.0801 -0.0849,0.0218 -0.17803,0.0331 -0.27906,0.0331 -0.16252,0 -0.30661,-0.025 -0.43253,-0.0744 -0.12592,-0.0494 -0.23246,-0.12045 -0.31884,-0.21342 -0.0864,-0.093 -0.15201,-0.20587 -0.1974,-0.33952 -0.0439,-0.13509 -0.0661,-0.2885 -0.0661,-0.45992 v -0.19378 c 0,-0.19175 0.0216,-0.36004 0.0641,-0.50385 0.0439,-0.14526 0.10602,-0.26647 0.18655,-0.3638 0.082,-0.0988 0.18156,-0.17282 0.29869,-0.22221 0.1186,-0.0494 0.25269,-0.0744 0.40204,-0.0744 z m 2.39365,0 v 5.1e-4 c 0.0922,0 0.17717,0.0161 0.25477,0.0481 0.0776,0.0305 0.14435,0.0808 0.19999,0.15193 0.0556,0.0712 0.099,0.1643 0.12971,0.27905 0.0308,0.11476 0.046,0.25618 0.046,0.42323 v 1.49914 h -0.62374 v -1.50172 c 0,-0.0755 -0.006,-0.13768 -0.0176,-0.18707 -0.0117,-0.0494 -0.0293,-0.0893 -0.0527,-0.11834 -0.022,-0.029 -0.05,-0.0493 -0.0837,-0.061 -0.0337,-0.0116 -0.0729,-0.0171 -0.11834,-0.0171 -0.0586,0 -0.11007,0.0155 -0.154,0.046 -0.0439,0.0305 -0.0803,0.0724 -0.10955,0.12609 v 1.71308 h -0.62374 v -2.358 h 0.58395 l 0.0176,0.23306 c 0.0688,-0.0901 0.1496,-0.15867 0.24184,-0.20515 0.0922,-0.0479 0.19534,-0.0718 0.30954,-0.0718 z m 1.97249,0 v 5.1e-4 c 0.30162,0 0.52771,0.0962 0.67852,0.28939 0.15081,0.1932 0.22634,0.47973 0.22634,0.85886 v 0.28112 h -1.23662 c 0.004,0.0944 0.0167,0.17328 0.0372,0.2372 0.022,0.0639 0.0512,0.1158 0.0879,0.15503 0.0366,0.0392 0.0805,0.0673 0.13177,0.0848 0.0527,0.0174 0.11188,0.0264 0.17777,0.0264 0.10981,0 0.20757,-0.0179 0.29249,-0.0543 0.0864,-0.0378 0.16252,-0.0903 0.22841,-0.15709 l 0.24339,0.37207 c -0.0308,0.0421 -0.0706,0.0845 -0.1204,0.1266 -0.0498,0.0407 -0.10835,0.0782 -0.1757,0.11162 -0.0673,0.0334 -0.14349,0.0598 -0.22841,0.0801 -0.0849,0.0218 -0.17802,0.0331 -0.27905,0.0331 -0.16252,0 -0.30662,-0.025 -0.43254,-0.0744 -0.12592,-0.0494 -0.23246,-0.12045 -0.31884,-0.21342 -0.0864,-0.093 -0.15202,-0.20587 -0.1974,-0.33952 -0.0439,-0.13509 -0.0661,-0.2885 -0.0661,-0.45992 v -0.19378 c 0,-0.19175 0.0216,-0.36004 0.0641,-0.50385 0.0439,-0.14526 0.10602,-0.26647 0.18655,-0.3638 0.082,-0.0988 0.18155,-0.17282 0.29869,-0.22221 0.11859,-0.0494 0.2527,-0.0744 0.40204,-0.0744 z m 3.52899,0 v 5.1e-4 c 0.1186,0 0.22807,0.015 0.32763,0.0455 0.0996,0.0291 0.18569,0.0756 0.2589,0.13953 0.0732,0.0625 0.13056,0.14306 0.17156,0.24184 0.041,0.0973 0.0615,0.21547 0.0615,0.35347 v 1.04541 c 0,0.0683 10e-4,0.12971 0.004,0.18345 0.004,0.0523 0.0103,0.0996 0.0176,0.14315 0.007,0.0421 0.0161,0.0809 0.0264,0.11575 0.0117,0.0334 0.0251,0.0651 0.0398,0.0956 v 0.0377 h -0.62632 c -0.0117,-0.0247 -0.0217,-0.0527 -0.0305,-0.0832 -0.007,-0.032 -0.0149,-0.0654 -0.0222,-0.10025 -0.0469,0.0639 -0.10723,0.11765 -0.1819,0.16123 -0.0732,0.0436 -0.16338,0.0656 -0.27027,0.0656 -0.0966,0 -0.18742,-0.0167 -0.27234,-0.0501 -0.0835,-0.0334 -0.15666,-0.0806 -0.21962,-0.14159 -0.0615,-0.061 -0.11068,-0.13495 -0.14728,-0.22066 -0.0351,-0.0872 -0.0527,-0.18396 -0.0527,-0.29146 0,-0.11911 0.0193,-0.22658 0.0574,-0.32246 0.0395,-0.0973 0.0981,-0.17967 0.1757,-0.24649 0.0791,-0.0683 0.1769,-0.12027 0.29404,-0.15658 0.11859,-0.0363 0.25796,-0.0548 0.41755,-0.0548 h 0.16898 v -0.18914 c 0,-0.10604 -0.0182,-0.18121 -0.0548,-0.22479 -0.0366,-0.0436 -0.0904,-0.0656 -0.16071,-0.0656 -0.0805,0 -0.1397,0.0244 -0.17777,0.0724 -0.0366,0.0465 -0.0548,0.11221 -0.0548,0.19792 h -0.62166 c 0,-0.10314 0.0199,-0.19984 0.0594,-0.28991 0.041,-0.0915 0.0996,-0.17098 0.1757,-0.23926 0.0761,-0.0683 0.16752,-0.12201 0.27441,-0.16123 0.10688,-0.0407 0.22754,-0.0615 0.36225,-0.0615 z m -23.381,5.1e-4 c 0.12738,0 0.24278,0.0203 0.34674,0.061 0.10542,0.0392 0.195,0.0978 0.26821,0.17622 0.0747,0.077 0.13151,0.17256 0.17104,0.28732 0.041,0.11476 0.0626,0.24787 0.0641,0.39894 h -0.58446 c -0.002,-0.13219 -0.0232,-0.23371 -0.0656,-0.30489 -0.0425,-0.0712 -0.11274,-0.10645 -0.21084,-0.10645 -0.0688,0 -0.12384,0.0137 -0.16484,0.0413 -0.0395,0.0276 -0.0705,0.0682 -0.0925,0.12196 -0.0205,0.0523 -0.034,0.1174 -0.0414,0.19585 -0.006,0.077 -0.009,0.16651 -0.009,0.2682 v 0.1695 c 0,0.10314 0.003,0.19441 0.009,0.27285 0.006,0.077 0.0188,0.14149 0.0393,0.19379 0.022,0.0523 0.0536,0.0912 0.0946,0.1173 0.041,0.0261 0.0966,0.0398 0.16691,0.0398 0.0864,0 0.15314,-0.0263 0.19999,-0.0786 0.0483,-0.0537 0.0729,-0.14388 0.0744,-0.27026 h 0.58446 c -10e-4,0.13364 -0.0243,0.25424 -0.0682,0.36173 -0.0439,0.10604 -0.10421,0.19567 -0.18035,0.26975 -0.0747,0.0741 -0.16313,0.13132 -0.26562,0.17054 -0.10249,0.0392 -0.21316,0.0589 -0.33176,0.0589 -0.15959,0 -0.29844,-0.0256 -0.41703,-0.0765 -0.1186,-0.0508 -0.21755,-0.12376 -0.29662,-0.21963 -0.0776,-0.0973 -0.13616,-0.21669 -0.1757,-0.3576 -0.0381,-0.14091 -0.0568,-0.30201 -0.0568,-0.48214 v -0.1695 c 0,-0.18013 0.0189,-0.34072 0.0568,-0.48162 0.0395,-0.14236 0.0981,-0.26235 0.1757,-0.35967 0.0776,-0.0973 0.17595,-0.17137 0.29455,-0.22221 0.1186,-0.0508 0.25684,-0.076 0.41497,-0.076 z m 7.56801,0 c 0.12739,0 0.24331,0.0203 0.34727,0.061 0.10542,0.0392 0.19448,0.0978 0.26768,0.17622 0.0747,0.077 0.13203,0.17256 0.17156,0.28732 0.041,0.11476 0.0621,0.24787 0.0636,0.39894 h -0.58395 c -10e-4,-0.13219 -0.0237,-0.23371 -0.0661,-0.30489 -0.0425,-0.0712 -0.11274,-0.10645 -0.21084,-0.10645 -0.0688,0 -0.12385,0.0137 -0.16485,0.0413 -0.0395,0.0276 -0.07,0.0682 -0.092,0.12196 -0.0205,0.0523 -0.0345,0.1174 -0.0419,0.19585 -0.006,0.077 -0.009,0.16651 -0.009,0.2682 v 0.1695 c 0,0.10314 0.003,0.19441 0.009,0.27285 0.006,0.077 0.0193,0.14149 0.0398,0.19379 0.022,0.0523 0.053,0.0912 0.094,0.1173 0.041,0.0261 0.0966,0.0398 0.16691,0.0398 0.0864,0 0.15314,-0.0263 0.19999,-0.0786 0.0483,-0.0537 0.0735,-0.14388 0.0749,-0.27026 h 0.58395 c -0.001,0.13364 -0.0243,0.25424 -0.0682,0.36173 -0.0439,0.10604 -0.10369,0.19567 -0.17983,0.26975 -0.0747,0.0741 -0.16312,0.13132 -0.26562,0.17054 -0.10249,0.0392 -0.21316,0.0589 -0.33176,0.0589 -0.15959,0 -0.29896,-0.0256 -0.41755,-0.0765 -0.1186,-0.0508 -0.21703,-0.12376 -0.2961,-0.21963 -0.0776,-0.0973 -0.13617,-0.21669 -0.1757,-0.3576 -0.0381,-0.14091 -0.0574,-0.30201 -0.0574,-0.48214 v -0.1695 c 0,-0.18013 0.0193,-0.34072 0.0574,-0.48162 0.0395,-0.14236 0.0981,-0.26235 0.1757,-0.35967 0.0776,-0.0973 0.17544,-0.17137 0.29404,-0.22221 0.1186,-0.0508 0.25683,-0.076 0.41496,-0.076 z m 14.54795,0 c 0.0278,0 0.0582,0.002 0.0904,0.008 0.0337,0.004 0.0606,0.0109 0.0811,0.0196 l -0.007,0.6103 c -0.0278,-0.003 -0.0624,-0.006 -0.10335,-0.0109 -0.0395,-0.004 -0.0735,-0.007 -0.10284,-0.007 -0.0893,0 -0.16193,0.0191 -0.21756,0.0568 -0.0556,0.0378 -0.0984,0.0932 -0.12764,0.16588 v 1.55805 h -0.62373 v -2.358 h 0.58653 l 0.0181,0.25477 c 0.0469,-0.0944 0.10422,-0.16785 0.17157,-0.22014 0.0688,-0.0523 0.14676,-0.078 0.23461,-0.078 z m -20.88606,0.0434 h 0.62373 v 2.358 h -0.62373 z m 1.99626,0.46871 c -0.10835,0 -0.18742,0.0382 -0.2372,0.11524 -0.0483,0.077 -0.077,0.20056 -0.0858,0.37052 h 0.62167 v -0.0568 c -0.003,-0.1409 -0.0264,-0.24776 -0.0703,-0.32039 -0.0439,-0.0726 -0.12006,-0.10852 -0.22841,-0.10852 z m 6.43526,0 c -0.10835,0 -0.18741,0.0382 -0.23719,0.11524 -0.0483,0.077 -0.077,0.20056 -0.0858,0.37052 h 0.62167 v -0.0568 c -0.003,-0.1409 -0.0264,-0.24776 -0.0703,-0.32039 -0.0439,-0.0726 -0.12006,-0.10852 -0.22841,-0.10852 z m 5.8198,0 c -0.10835,0 -0.18741,0.0382 -0.23719,0.11524 -0.0483,0.077 -0.077,0.20056 -0.0858,0.37052 h 0.62167 v -0.0568 c -0.003,-0.1409 -0.0264,-0.24776 -0.0703,-0.32039 -0.0439,-0.0726 -0.12006,-0.10852 -0.22841,-0.10852 z m 4.36614,0 c -0.10835,0 -0.1874,0.0382 -0.23719,0.11524 -0.0483,0.077 -0.077,0.20056 -0.0858,0.37052 h 0.62166 v -0.0568 c -0.003,-0.1409 -0.0264,-0.24776 -0.0703,-0.32039 -0.0439,-0.0726 -0.12006,-0.10852 -0.22841,-0.10852 z m 3.58428,0.81907 c -0.0586,0 -0.10895,0.01 -0.15141,0.0284 -0.0425,0.0189 -0.0782,0.0446 -0.10749,0.078 -0.0278,0.0334 -0.0494,0.0733 -0.0641,0.11834 -0.0132,0.045 -0.0196,0.0923 -0.0196,0.14315 0,0.0857 0.0176,0.15133 0.0527,0.19637 0.0366,0.0436 0.0881,0.0651 0.15399,0.0651 0.0688,0 0.12739,-0.0137 0.1757,-0.0413 0.0483,-0.0276 0.0841,-0.0599 0.10749,-0.0977 v -0.49041 z" /></g></svg>
