<?xml version="1.0" encoding="UTF-8" standalone="no"?>
<!-- Created with Inkscape (http://www.inkscape.org/) -->

<svg
   width="50.864563mm"
   height="10.499626mm"
   viewBox="0 0 50.864563 10.499626"
   version="1.1"
   id="svg1"
   xml:space="preserve"
   inkscape:version="1.3.1 (91b66b0783, 2023-11-16)"
   sodipodi:docname="assets.svg"
   xmlns:inkscape="http://www.inkscape.org/namespaces/inkscape"
   xmlns:sodipodi="http://sodipodi.sourceforge.net/DTD/sodipodi-0.dtd"
   xmlns="http://www.w3.org/2000/svg"
   xmlns:svg="http://www.w3.org/2000/svg"><sodipodi:namedview
     id="namedview1"
     pagecolor="#ffffff"
     bordercolor="#000000"
     borderopacity="0.25"
     inkscape:showpageshadow="2"
     inkscape:pageopacity="0.0"
     inkscape:pagecheckerboard="0"
     inkscape:deskcolor="#d1d1d1"
     inkscape:document-units="mm"
     inkscape:zoom="2.8284271"
     inkscape:cx="1041.3915"
     inkscape:cy="388.3784"
     inkscape:window-width="2560"
     inkscape:window-height="1346"
     inkscape:window-x="-11"
     inkscape:window-y="-11"
     inkscape:window-maximized="1"
     inkscape:current-layer="layer1"
     showgrid="true"><inkscape:grid
       id="grid668"
       units="mm"
       originx="-333.62665"
       originy="-110.14683"
       spacingx="0.5"
       spacingy="0.5"
       empcolor="#0099e5"
       empopacity="0.30196078"
       color="#0099e5"
       opacity="0.14901961"
       empspacing="5"
       dotted="false"
       gridanglex="30"
       gridanglez="30"
       visible="true" /></sodipodi:namedview><defs
     id="defs1" /><g
     inkscape:label="Layer 1"
     inkscape:groupmode="layer"
     id="layer1"
     transform="translate(-333.62666,-110.14684)"><g
       id="g8"><rect
         style="fill:#f9f9f9;stroke-width:0.499999;stroke-linejoin:round;stroke-miterlimit:3.4;stroke-dashoffset:19.8539"
         id="rect7"
         width="33.154613"
         height="6.4863281"
         x="336.8454"
         y="112.30424" /><path
         id="path751"
         style="fill:#2c2c6f;fill-opacity:1;stroke-width:0.264583"
         d="m 337.16235,110.14684 c -1.95262,0 -3.5357,1.61081 -3.5357,3.59772 v 3.30419 c 0,1.98693 1.58308,3.59771 3.5357,3.59771 h 34.82888 v -10.49962 z m 35.34668,0 v 10.49961 h 1.96474 v -10.49961 z m 2.48254,0 v 10.49961 h 1.99987 v -10.49961 z m 2.49959,0 v 10.49961 h 2.00039 v -10.49961 z m 2.5001,0 v 10.49961 h 1.99988 v -10.49961 z m 2.50011,0 v 10.49961 h 1.99987 v -10.49961 z m -38.13979,3.56722 h 0.62373 v 3.43286 h -0.62373 z m -3.97754,0.0537 c 0.0512,0 0.0975,0.008 0.13849,0.0243 0.0425,0.0164 0.0782,0.0395 0.10749,0.0692 0.0293,0.0299 0.0521,0.0653 0.0682,0.10697 0.0161,0.0402 0.0243,0.0852 0.0243,0.13436 0,0.0491 -0.008,0.0942 -0.0243,0.13591 -0.0161,0.0402 -0.0389,0.0762 -0.0682,0.10749 -0.0293,0.0298 -0.065,0.0528 -0.10749,0.0692 -0.041,0.0164 -0.0872,0.0248 -0.13849,0.0248 -0.0513,0 -0.0981,-0.008 -0.14056,-0.0248 -0.041,-0.0164 -0.0761,-0.0394 -0.10542,-0.0692 -0.0293,-0.0312 -0.0516,-0.0673 -0.0677,-0.10749 -0.0161,-0.0418 -0.0243,-0.0867 -0.0243,-0.13591 0,-0.0491 0.008,-0.0943 0.0243,-0.13436 0.0161,-0.0417 0.0384,-0.0771 0.0677,-0.10697 0.0293,-0.0299 0.0644,-0.0529 0.10542,-0.0692 0.0425,-0.0164 0.0893,-0.0243 0.14056,-0.0243 z m 3.15381,0 c 0.0513,0 0.0975,0.008 0.1385,0.0243 0.0425,0.0164 0.0782,0.0395 0.10748,0.0692 0.0293,0.0299 0.0521,0.0653 0.0682,0.10697 0.0161,0.0402 0.0243,0.0852 0.0243,0.13436 0,0.0491 -0.008,0.0942 -0.0243,0.13591 -0.0161,0.0402 -0.0389,0.0762 -0.0682,0.10749 -0.0293,0.0298 -0.065,0.0528 -0.10748,0.0692 -0.041,0.0164 -0.0872,0.0248 -0.1385,0.0248 -0.0513,0 -0.0981,-0.008 -0.14056,-0.0248 -0.041,-0.0164 -0.0761,-0.0394 -0.10542,-0.0692 -0.0293,-0.0312 -0.0516,-0.0673 -0.0677,-0.10749 -0.0161,-0.0418 -0.0243,-0.0867 -0.0243,-0.13591 0,-0.0491 0.008,-0.0943 0.0243,-0.13436 0.0161,-0.0417 0.0384,-0.0771 0.0677,-0.10697 0.0293,-0.0299 0.0644,-0.0529 0.10542,-0.0692 0.0425,-0.0164 0.0893,-0.0243 0.14056,-0.0243 z m 9.98647,0 c 0.0513,0 0.0975,0.008 0.1385,0.0243 0.0425,0.0164 0.0782,0.0395 0.10748,0.0692 0.0293,0.0299 0.0521,0.0653 0.0682,0.10697 0.0161,0.0402 0.0243,0.0852 0.0243,0.13436 0,0.0491 -0.008,0.0942 -0.0243,0.13591 -0.0161,0.0402 -0.0389,0.0762 -0.0682,0.10749 -0.0293,0.0298 -0.065,0.0528 -0.10748,0.0692 -0.041,0.0164 -0.0872,0.0248 -0.1385,0.0248 -0.0513,0 -0.0981,-0.008 -0.14056,-0.0248 -0.041,-0.0164 -0.0761,-0.0394 -0.10542,-0.0692 -0.0293,-0.0312 -0.0516,-0.0673 -0.0677,-0.10749 -0.0161,-0.0418 -0.0243,-0.0867 -0.0243,-0.13591 0,-0.0491 0.008,-0.0943 0.0243,-0.13436 0.0161,-0.0417 0.0384,-0.0771 0.0677,-0.10697 0.0293,-0.0299 0.0644,-0.0529 0.10542,-0.0692 0.0425,-0.0164 0.0893,-0.0243 0.14056,-0.0243 z m 9.14312,0 c 0.0513,0 0.0975,0.008 0.13849,0.0243 0.0425,0.0164 0.0782,0.0395 0.10749,0.0692 0.0293,0.0299 0.0521,0.0653 0.0682,0.10697 0.0161,0.0402 0.0243,0.0852 0.0243,0.13436 0,0.0491 -0.008,0.0942 -0.0243,0.13591 -0.0161,0.0402 -0.0389,0.0762 -0.0682,0.10749 -0.0293,0.0298 -0.065,0.0528 -0.10749,0.0692 -0.041,0.0164 -0.0872,0.0248 -0.13849,0.0248 -0.0513,0 -0.0981,-0.008 -0.14056,-0.0248 -0.041,-0.0164 -0.0761,-0.0394 -0.10542,-0.0692 -0.0293,-0.0312 -0.0521,-0.0673 -0.0682,-0.10749 -0.0161,-0.0418 -0.0238,-0.0867 -0.0238,-0.13591 0,-0.0491 0.008,-0.0943 0.0238,-0.13436 0.0161,-0.0417 0.0389,-0.0771 0.0682,-0.10697 0.0293,-0.0299 0.0644,-0.0529 0.10542,-0.0692 0.0425,-0.0164 0.0893,-0.0243 0.14056,-0.0243 z m -24.08639,0.0801 v 5.2e-4 c 0.34847,0 0.61263,0.0989 0.79272,0.29714 0.18156,0.19814 0.28517,0.48218 0.31006,0.85317 h -0.64803 c -0.003,-0.11622 -0.0134,-0.21294 -0.031,-0.29042 -0.0161,-0.079 -0.0413,-0.14139 -0.0765,-0.18758 -0.0351,-0.0462 -0.0814,-0.0789 -0.1385,-0.0982 -0.0556,-0.0193 -0.12532,-0.0289 -0.20877,-0.0289 -0.0864,0 -0.16019,0.0148 -0.22169,0.0444 -0.06,0.0298 -0.10922,0.0782 -0.14728,0.14521 -0.0381,0.0655 -0.0667,0.15272 -0.0858,0.26149 -0.0176,0.10728 -0.0264,0.2394 -0.0264,0.39584 v 0.55862 c 0,0.15196 0.008,0.28185 0.0222,0.38912 0.0146,0.10727 0.0404,0.19449 0.077,0.26304 0.0366,0.0671 0.0847,0.11647 0.1447,0.14779 0.06,0.0312 0.13617,0.047 0.22841,0.047 0.0791,0 0.14642,-0.008 0.20205,-0.0248 0.0571,-0.0179 0.10396,-0.0482 0.14056,-0.0915 0.0366,-0.0433 0.0647,-0.10282 0.0837,-0.1788 0.019,-0.076 0.0308,-0.17215 0.0351,-0.28836 h 0.64543 c -0.0161,0.37098 -0.11859,0.65214 -0.30747,0.84284 -0.18888,0.19071 -0.45536,0.28577 -0.79943,0.28577 -0.17716,0 -0.33529,-0.0297 -0.47439,-0.0894 -0.13909,-0.0595 -0.25622,-0.1484 -0.3514,-0.26613 -0.0952,-0.1177 -0.16838,-0.26281 -0.21963,-0.43563 -0.0498,-0.17431 -0.0744,-0.37506 -0.0744,-0.60152 v -0.55397 c 0,-0.22647 0.0252,-0.42668 0.0765,-0.60099 0.0527,-0.17432 0.12824,-0.32052 0.22634,-0.43822 0.0981,-0.11769 0.21696,-0.20654 0.35605,-0.26613 0.1391,-0.061 0.29551,-0.0915 0.46974,-0.0915 z m 7.95249,0.045 h 1.83193 v 0.54725 h -1.18598 v 0.76895 h 1.00563 v 0.52968 h -1.00563 v 0.863 h 1.19011 v 0.54518 h -1.83606 z m 15.31276,0.78961 v 5.2e-4 c 0.0278,0 0.0577,0.003 0.0899,0.009 0.0337,0.005 0.0606,0.011 0.0811,0.0196 l -0.007,0.6258 c -0.0278,-0.003 -0.0618,-0.006 -0.10283,-0.0109 -0.0395,-0.005 -0.0741,-0.007 -0.10336,-0.007 -0.0893,0 -0.16192,0.0192 -0.21756,0.0579 -0.0556,0.0388 -0.0978,0.0955 -0.12712,0.17002 v 1.59796 h -0.62373 v -2.41846 h 0.58601 l 0.0181,0.262 c 0.0469,-0.0968 0.10421,-0.17216 0.17157,-0.22582 0.0688,-0.0537 0.14728,-0.0806 0.23513,-0.0806 z m -11.99824,0.001 v 5.1e-4 c 0.0922,0 0.17717,0.0164 0.25477,0.0491 0.0776,0.0312 0.14383,0.083 0.19947,0.15606 0.0556,0.0729 0.099,0.16858 0.12971,0.28629 0.0308,0.11769 0.046,0.26222 0.046,0.43356 v 1.53789 h -0.62374 v -1.54047 c 0,-0.0775 -0.006,-0.14107 -0.0176,-0.19172 -0.0117,-0.0507 -0.0293,-0.0912 -0.0527,-0.12092 -0.022,-0.0299 -0.0495,-0.0506 -0.0832,-0.0625 -0.0337,-0.0119 -0.0735,-0.0181 -0.11886,-0.0181 -0.0586,0 -0.10956,0.0157 -0.15348,0.047 -0.0439,0.0312 -0.0808,0.0746 -0.11007,0.1297 v 1.75649 h -0.62374 v -2.41794 h 0.58447 l 0.0176,0.23926 c 0.0688,-0.0924 0.14908,-0.16265 0.24132,-0.21033 0.0922,-0.0491 0.19585,-0.0739 0.31006,-0.0739 z m 5.60896,0 v 5.1e-4 c 0.0922,0 0.17717,0.0164 0.25477,0.0491 0.0776,0.0312 0.14436,0.083 0.19999,0.15606 0.0556,0.0729 0.099,0.16858 0.1297,0.28629 0.0308,0.11769 0.046,0.26222 0.046,0.43356 v 1.53789 h -0.62374 v -1.54047 c 0,-0.0775 -0.006,-0.14107 -0.0176,-0.19172 -0.0117,-0.0507 -0.0293,-0.0912 -0.0527,-0.12092 -0.022,-0.0299 -0.05,-0.0506 -0.0837,-0.0625 -0.0337,-0.0119 -0.0729,-0.0181 -0.11833,-0.0181 -0.0586,0 -0.11007,0.0157 -0.154,0.047 -0.0439,0.0312 -0.0803,0.0746 -0.10955,0.1297 v 1.75649 h -0.62374 v -2.41794 h 0.58446 l 0.0176,0.23926 c 0.0688,-0.0924 0.14909,-0.16265 0.24133,-0.21033 0.0922,-0.0491 0.19534,-0.0739 0.30954,-0.0739 z m 9.14311,0 v 5.1e-4 c 0.0922,0 0.17717,0.0164 0.25477,0.0491 0.0776,0.0312 0.14436,0.083 0.19999,0.15606 0.0556,0.0729 0.099,0.16858 0.1297,0.28629 0.0308,0.11769 0.046,0.26222 0.046,0.43356 v 1.53789 h -0.62374 v -1.54047 c 0,-0.0775 -0.006,-0.14107 -0.0176,-0.19172 -0.0117,-0.0507 -0.0293,-0.0912 -0.0527,-0.12092 -0.022,-0.0299 -0.05,-0.0506 -0.0837,-0.0625 -0.0337,-0.0119 -0.0729,-0.0181 -0.11834,-0.0181 -0.0586,0 -0.11007,0.0157 -0.154,0.047 -0.0439,0.0312 -0.0803,0.0746 -0.10955,0.1297 v 1.75649 h -0.62373 v -2.41794 h 0.58395 l 0.0176,0.23926 c 0.0688,-0.0924 0.1496,-0.16265 0.24184,-0.21033 0.0922,-0.0491 0.19533,-0.0739 0.30954,-0.0739 z m -12.94908,5.1e-4 c 0.11567,0 0.21351,0.023 0.29404,0.0693 0.0805,0.0446 0.149,0.10772 0.20464,0.18965 l 0.0238,-0.21445 h 0.56017 v 2.41845 c 0,0.16538 -0.0239,0.30713 -0.0723,0.42633 -0.0469,0.12068 -0.1136,0.2202 -0.19999,0.29766 -0.0864,0.0774 -0.19009,0.13483 -0.31161,0.17208 -0.12007,0.0372 -0.25416,0.0558 -0.40204,0.0558 -0.0556,0 -0.11714,-0.006 -0.18449,-0.0181 -0.0674,-0.0119 -0.1347,-0.03 -0.20205,-0.0538 -0.0674,-0.0223 -0.13177,-0.0515 -0.19327,-0.0873 -0.06,-0.0343 -0.11041,-0.0748 -0.15141,-0.12247 l 0.20825,-0.4377 c 0.0278,0.0298 0.0611,0.0568 0.0992,0.0822 0.0395,0.0268 0.0805,0.0492 0.12299,0.0672 0.0439,0.0195 0.0891,0.0341 0.13591,0.0444 0.0468,0.0119 0.0925,0.0181 0.13643,0.0181 0.063,0 0.11859,-0.007 0.16691,-0.0222 0.0498,-0.0134 0.0914,-0.037 0.12506,-0.0713 0.0337,-0.0343 0.0583,-0.0798 0.0744,-0.13642 0.0176,-0.0567 0.0264,-0.12749 0.0264,-0.21239 v -0.19482 c -0.0571,0.076 -0.12333,0.13501 -0.19947,0.17673 -0.0747,0.0402 -0.16252,0.0605 -0.26355,0.0605 -0.12591,0 -0.23891,-0.0254 -0.33848,-0.076 -0.0981,-0.0507 -0.18131,-0.12543 -0.25012,-0.22376 -0.0673,-0.0983 -0.11946,-0.21979 -0.15606,-0.36431 -0.0366,-0.14601 -0.0548,-0.31417 -0.0548,-0.50488 v -0.15864 c 0,-0.39631 0.0703,-0.69212 0.21084,-0.88729 0.14056,-0.19517 0.33736,-0.29249 0.59066,-0.29249 z m 5.77846,0 c 0.30162,0 0.5277,0.0984 0.67851,0.29663 0.15081,0.19816 0.22635,0.49222 0.22635,0.88108 v 0.28784 h -1.23662 c 0.004,0.0968 0.0167,0.17836 0.0372,0.24391 0.022,0.0656 0.0513,0.11839 0.0879,0.15865 0.0366,0.0402 0.0805,0.0694 0.13177,0.0873 0.0527,0.0179 0.1124,0.0269 0.17829,0.0269 0.10981,0 0.20705,-0.0186 0.29197,-0.0558 0.0864,-0.0388 0.16252,-0.0922 0.22841,-0.16071 l 0.24391,0.38137 c -0.0308,0.0433 -0.0711,0.087 -0.12092,0.13022 -0.0498,0.0418 -0.10835,0.0795 -0.1757,0.11369 -0.0674,0.0343 -0.14349,0.0619 -0.22841,0.0827 -0.0849,0.0223 -0.17804,0.0336 -0.27906,0.0336 -0.16253,0 -0.30661,-0.0253 -0.43253,-0.076 -0.12591,-0.0507 -0.23194,-0.12326 -0.31832,-0.21859 -0.0864,-0.0953 -0.15255,-0.21173 -0.19793,-0.34882 -0.0439,-0.13855 -0.0661,-0.296 -0.0661,-0.4718 v -0.19844 c 0,-0.19666 0.0216,-0.36928 0.0641,-0.51677 0.0439,-0.14899 0.10602,-0.27329 0.18655,-0.3731 0.082,-0.10136 0.18155,-0.17723 0.29869,-0.22789 0.11859,-0.0507 0.2527,-0.076 0.40204,-0.076 z m 2.15233,0 c 0.30162,0 0.5277,0.0984 0.67851,0.29663 0.1508,0.19816 0.22634,0.49222 0.22634,0.88108 v 0.28784 h -1.23662 c 0.004,0.0968 0.0167,0.17836 0.0372,0.24391 0.022,0.0656 0.0512,0.11839 0.0879,0.15865 0.0366,0.0402 0.0805,0.0694 0.13177,0.0873 0.0527,0.0179 0.1124,0.0269 0.17829,0.0269 0.10981,0 0.20705,-0.0186 0.29197,-0.0558 0.0864,-0.0388 0.16252,-0.0922 0.22841,-0.16071 l 0.24391,0.38137 c -0.0308,0.0433 -0.0711,0.087 -0.12092,0.13022 -0.0498,0.0418 -0.10835,0.0795 -0.1757,0.11369 -0.0674,0.0343 -0.14349,0.0619 -0.22841,0.0827 -0.0849,0.0223 -0.17802,0.0336 -0.27905,0.0336 -0.16252,0 -0.30661,-0.0253 -0.43253,-0.076 -0.12592,-0.0507 -0.23194,-0.12326 -0.31833,-0.21859 -0.0864,-0.0953 -0.15253,-0.21173 -0.19792,-0.34882 -0.0439,-0.13855 -0.0656,-0.296 -0.0656,-0.4718 v -0.19844 c 0,-0.19666 0.0211,-0.36928 0.0636,-0.51677 0.0439,-0.14899 0.10602,-0.27329 0.18655,-0.3731 0.082,-0.10136 0.18156,-0.17723 0.29869,-0.22789 0.1186,-0.0507 0.25271,-0.076 0.40205,-0.076 z m 6.82128,0 c 0.11567,0 0.21403,0.023 0.29456,0.0693 0.0805,0.0446 0.14848,0.10772 0.20412,0.18965 l 0.0243,-0.21445 h 0.56017 v 2.41845 c 0,0.16538 -0.0245,0.30713 -0.0729,0.42633 -0.0469,0.12068 -0.11308,0.2202 -0.19947,0.29766 -0.0864,0.0774 -0.19061,0.13483 -0.31213,0.17208 -0.12007,0.0372 -0.25416,0.0558 -0.40204,0.0558 -0.0556,0 -0.11714,-0.006 -0.18449,-0.0181 -0.0674,-0.0119 -0.1347,-0.03 -0.20205,-0.0538 -0.0674,-0.0223 -0.13177,-0.0515 -0.19327,-0.0873 -0.06,-0.0343 -0.11041,-0.0748 -0.15141,-0.12247 l 0.20877,-0.4377 c 0.0278,0.0298 0.0606,0.0568 0.0987,0.0822 0.0395,0.0268 0.0805,0.0492 0.12299,0.0672 0.0439,0.0195 0.0896,0.0341 0.13643,0.0444 0.0468,0.0119 0.092,0.0181 0.13591,0.0181 0.063,0 0.1186,-0.007 0.16691,-0.0222 0.0498,-0.0134 0.0914,-0.037 0.12506,-0.0713 0.0337,-0.0343 0.0588,-0.0798 0.0749,-0.13642 0.0176,-0.0567 0.0264,-0.12749 0.0264,-0.21239 v -0.19482 c -0.0571,0.076 -0.12385,0.13501 -0.19999,0.17673 -0.0747,0.0402 -0.16252,0.0605 -0.26355,0.0605 -0.12592,0 -0.23841,-0.0254 -0.33797,-0.076 -0.0981,-0.0507 -0.18182,-0.12543 -0.25063,-0.22376 -0.0674,-0.0983 -0.11946,-0.21979 -0.15606,-0.36431 -0.0366,-0.14601 -0.0548,-0.31417 -0.0548,-0.50488 v -0.15864 c 0,-0.39631 0.0703,-0.69212 0.21084,-0.88729 0.14055,-0.19517 0.33736,-0.29249 0.59066,-0.29249 z m -26.32862,0.0445 h 0.62373 v 2.41845 h -0.62373 z m 0.93328,0 h 0.65009 l 0.30127,1.52445 0.30076,-1.52445 h 0.64802 l -0.65268,2.41845 h -0.59272 z m 2.22053,0 h 0.62374 v 2.41845 h -0.62374 z m 9.98647,0 h 0.62374 v 2.41845 h -0.62374 z m 9.14311,0 h 0.62374 v 2.41845 h -0.62374 z m -4.93303,0.48059 c -0.10835,0 -0.1874,0.0394 -0.23719,0.11834 -0.0483,0.079 -0.0765,0.20602 -0.0853,0.38033 h 0.62115 v -0.0584 c -0.003,-0.14451 -0.0264,-0.25417 -0.0703,-0.32866 -0.0439,-0.0745 -0.12007,-0.11162 -0.22841,-0.11162 z m 2.15232,0 c -0.10835,0 -0.18741,0.0394 -0.23719,0.11834 -0.0483,0.079 -0.0765,0.20602 -0.0853,0.38033 h 0.62115 v -0.0584 c -0.003,-0.14451 -0.0264,-0.25417 -0.0703,-0.32866 -0.0439,-0.0745 -0.12006,-0.11162 -0.22841,-0.11162 z m -7.74371,0.005 c -0.12299,0 -0.21489,0.0512 -0.27492,0.154 -0.0586,0.10281 -0.0879,0.26763 -0.0879,0.49558 v 0.15916 c 0,0.22348 0.0287,0.38658 0.0858,0.48938 0.0571,0.10134 0.14787,0.15192 0.27233,0.15192 0.0674,0 0.12359,-0.0119 0.16898,-0.0357 0.0469,-0.0253 0.0849,-0.0601 0.11421,-0.10491 v -1.15548 c -0.0308,-0.0491 -0.0694,-0.0874 -0.11627,-0.11421 -0.0454,-0.0268 -0.0993,-0.0398 -0.16227,-0.0398 z m 14.75207,0 c -0.12299,0 -0.21437,0.0512 -0.2744,0.154 -0.0586,0.10281 -0.0879,0.26763 -0.0879,0.49558 v 0.15916 c 0,0.22348 0.0287,0.38658 0.0858,0.48938 0.0571,0.10134 0.14789,0.15192 0.27234,0.15192 0.0673,0 0.12359,-0.0119 0.16898,-0.0357 0.0469,-0.0253 0.0849,-0.0601 0.11421,-0.10491 v -1.15548 c -0.0308,-0.0491 -0.0694,-0.0874 -0.11628,-0.11421 -0.0454,-0.0268 -0.0998,-0.0398 -0.16278,-0.0398 z" /><path
         id="path151"
         style="fill:#2c2c6f;fill-opacity:1;stroke-width:0.264583"
         d="m 337.16235,110.14684 c -1.95262,0 -3.5357,1.61081 -3.5357,3.59772 v 3.30419 c 0,1.98693 1.58308,3.59771 3.5357,3.59771 h 34.82888 v -10.49962 z m 35.34668,0 v 10.49961 h 1.96474 v -10.49961 z m 2.48254,0 v 10.49961 h 1.99987 v -10.49961 z m 2.49959,0 v 10.49961 h 2.00039 v -10.49961 z m 2.5001,0 v 10.49961 h 1.99988 v -10.49961 z m 2.50011,0 v 10.49961 h 1.99987 v -10.49961 z m -38.13979,3.56722 h 0.62373 v 3.43286 h -0.62373 z m -3.97754,0.0537 c 0.0512,0 0.0975,0.008 0.13849,0.0243 0.0425,0.0164 0.0782,0.0395 0.10749,0.0692 0.0293,0.0299 0.0521,0.0653 0.0682,0.10697 0.0161,0.0402 0.0243,0.0852 0.0243,0.13436 0,0.0491 -0.008,0.0942 -0.0243,0.13591 -0.0161,0.0402 -0.0389,0.0762 -0.0682,0.10749 -0.0293,0.0298 -0.065,0.0528 -0.10749,0.0692 -0.041,0.0164 -0.0872,0.0248 -0.13849,0.0248 -0.0513,0 -0.0981,-0.008 -0.14056,-0.0248 -0.041,-0.0164 -0.0761,-0.0394 -0.10542,-0.0692 -0.0293,-0.0312 -0.0516,-0.0673 -0.0677,-0.10749 -0.0161,-0.0418 -0.0243,-0.0867 -0.0243,-0.13591 0,-0.0491 0.008,-0.0943 0.0243,-0.13436 0.0161,-0.0417 0.0384,-0.0771 0.0677,-0.10697 0.0293,-0.0299 0.0644,-0.0529 0.10542,-0.0692 0.0425,-0.0164 0.0893,-0.0243 0.14056,-0.0243 z m 3.15381,0 c 0.0513,0 0.0975,0.008 0.1385,0.0243 0.0425,0.0164 0.0782,0.0395 0.10748,0.0692 0.0293,0.0299 0.0521,0.0653 0.0682,0.10697 0.0161,0.0402 0.0243,0.0852 0.0243,0.13436 0,0.0491 -0.008,0.0942 -0.0243,0.13591 -0.0161,0.0402 -0.0389,0.0762 -0.0682,0.10749 -0.0293,0.0298 -0.065,0.0528 -0.10748,0.0692 -0.041,0.0164 -0.0872,0.0248 -0.1385,0.0248 -0.0513,0 -0.0981,-0.008 -0.14056,-0.0248 -0.041,-0.0164 -0.0761,-0.0394 -0.10542,-0.0692 -0.0293,-0.0312 -0.0516,-0.0673 -0.0677,-0.10749 -0.0161,-0.0418 -0.0243,-0.0867 -0.0243,-0.13591 0,-0.0491 0.008,-0.0943 0.0243,-0.13436 0.0161,-0.0417 0.0384,-0.0771 0.0677,-0.10697 0.0293,-0.0299 0.0644,-0.0529 0.10542,-0.0692 0.0425,-0.0164 0.0893,-0.0243 0.14056,-0.0243 z m 9.98647,0 c 0.0513,0 0.0975,0.008 0.1385,0.0243 0.0425,0.0164 0.0782,0.0395 0.10748,0.0692 0.0293,0.0299 0.0521,0.0653 0.0682,0.10697 0.0161,0.0402 0.0243,0.0852 0.0243,0.13436 0,0.0491 -0.008,0.0942 -0.0243,0.13591 -0.0161,0.0402 -0.0389,0.0762 -0.0682,0.10749 -0.0293,0.0298 -0.065,0.0528 -0.10748,0.0692 -0.041,0.0164 -0.0872,0.0248 -0.1385,0.0248 -0.0513,0 -0.0981,-0.008 -0.14056,-0.0248 -0.041,-0.0164 -0.0761,-0.0394 -0.10542,-0.0692 -0.0293,-0.0312 -0.0516,-0.0673 -0.0677,-0.10749 -0.0161,-0.0418 -0.0243,-0.0867 -0.0243,-0.13591 0,-0.0491 0.008,-0.0943 0.0243,-0.13436 0.0161,-0.0417 0.0384,-0.0771 0.0677,-0.10697 0.0293,-0.0299 0.0644,-0.0529 0.10542,-0.0692 0.0425,-0.0164 0.0893,-0.0243 0.14056,-0.0243 z m 9.14312,0 c 0.0513,0 0.0975,0.008 0.13849,0.0243 0.0425,0.0164 0.0782,0.0395 0.10749,0.0692 0.0293,0.0299 0.0521,0.0653 0.0682,0.10697 0.0161,0.0402 0.0243,0.0852 0.0243,0.13436 0,0.0491 -0.008,0.0942 -0.0243,0.13591 -0.0161,0.0402 -0.0389,0.0762 -0.0682,0.10749 -0.0293,0.0298 -0.065,0.0528 -0.10749,0.0692 -0.041,0.0164 -0.0872,0.0248 -0.13849,0.0248 -0.0513,0 -0.0981,-0.008 -0.14056,-0.0248 -0.041,-0.0164 -0.0761,-0.0394 -0.10542,-0.0692 -0.0293,-0.0312 -0.0521,-0.0673 -0.0682,-0.10749 -0.0161,-0.0418 -0.0238,-0.0867 -0.0238,-0.13591 0,-0.0491 0.008,-0.0943 0.0238,-0.13436 0.0161,-0.0417 0.0389,-0.0771 0.0682,-0.10697 0.0293,-0.0299 0.0644,-0.0529 0.10542,-0.0692 0.0425,-0.0164 0.0893,-0.0243 0.14056,-0.0243 z m -24.08639,0.0801 v 5.2e-4 c 0.34847,0 0.61263,0.0989 0.79272,0.29714 0.18156,0.19814 0.28517,0.48218 0.31006,0.85317 h -0.64803 c -0.003,-0.11622 -0.0134,-0.21294 -0.031,-0.29042 -0.0161,-0.079 -0.0413,-0.14139 -0.0765,-0.18758 -0.0351,-0.0462 -0.0814,-0.0789 -0.1385,-0.0982 -0.0556,-0.0193 -0.12532,-0.0289 -0.20877,-0.0289 -0.0864,0 -0.16019,0.0148 -0.22169,0.0444 -0.06,0.0298 -0.10922,0.0782 -0.14728,0.14521 -0.0381,0.0655 -0.0667,0.15272 -0.0858,0.26149 -0.0176,0.10728 -0.0264,0.2394 -0.0264,0.39584 v 0.55862 c 0,0.15196 0.008,0.28185 0.0222,0.38912 0.0146,0.10727 0.0404,0.19449 0.077,0.26304 0.0366,0.0671 0.0847,0.11647 0.1447,0.14779 0.06,0.0312 0.13617,0.047 0.22841,0.047 0.0791,0 0.14642,-0.008 0.20205,-0.0248 0.0571,-0.0179 0.10396,-0.0482 0.14056,-0.0915 0.0366,-0.0433 0.0647,-0.10282 0.0837,-0.1788 0.019,-0.076 0.0308,-0.17215 0.0351,-0.28836 h 0.64543 c -0.0161,0.37098 -0.11859,0.65214 -0.30747,0.84284 -0.18888,0.19071 -0.45536,0.28577 -0.79943,0.28577 -0.17716,0 -0.33529,-0.0297 -0.47439,-0.0894 -0.13909,-0.0595 -0.25622,-0.1484 -0.3514,-0.26613 -0.0952,-0.1177 -0.16838,-0.26281 -0.21963,-0.43563 -0.0498,-0.17431 -0.0744,-0.37506 -0.0744,-0.60152 v -0.55397 c 0,-0.22647 0.0252,-0.42668 0.0765,-0.60099 0.0527,-0.17432 0.12824,-0.32052 0.22634,-0.43822 0.0981,-0.11769 0.21696,-0.20654 0.35605,-0.26613 0.1391,-0.061 0.29551,-0.0915 0.46974,-0.0915 z m 7.95249,0.045 h 1.83193 v 0.54725 h -1.18598 v 0.76895 h 1.00563 v 0.52968 h -1.00563 v 0.863 h 1.19011 v 0.54518 h -1.83606 z m 15.31276,0.78961 v 5.2e-4 c 0.0278,0 0.0577,0.003 0.0899,0.009 0.0337,0.005 0.0606,0.011 0.0811,0.0196 l -0.007,0.6258 c -0.0278,-0.003 -0.0618,-0.006 -0.10283,-0.0109 -0.0395,-0.005 -0.0741,-0.007 -0.10336,-0.007 -0.0893,0 -0.16192,0.0192 -0.21756,0.0579 -0.0556,0.0388 -0.0978,0.0955 -0.12712,0.17002 v 1.59796 h -0.62373 v -2.41846 h 0.58601 l 0.0181,0.262 c 0.0469,-0.0968 0.10421,-0.17216 0.17157,-0.22582 0.0688,-0.0537 0.14728,-0.0806 0.23513,-0.0806 z m -11.99824,0.001 v 5.1e-4 c 0.0922,0 0.17717,0.0164 0.25477,0.0491 0.0776,0.0312 0.14383,0.083 0.19947,0.15606 0.0556,0.0729 0.099,0.16858 0.12971,0.28629 0.0308,0.11769 0.046,0.26222 0.046,0.43356 v 1.53789 h -0.62374 v -1.54047 c 0,-0.0775 -0.006,-0.14107 -0.0176,-0.19172 -0.0117,-0.0507 -0.0293,-0.0912 -0.0527,-0.12092 -0.022,-0.0299 -0.0495,-0.0506 -0.0832,-0.0625 -0.0337,-0.0119 -0.0735,-0.0181 -0.11886,-0.0181 -0.0586,0 -0.10956,0.0157 -0.15348,0.047 -0.0439,0.0312 -0.0808,0.0746 -0.11007,0.1297 v 1.75649 h -0.62374 v -2.41794 h 0.58447 l 0.0176,0.23926 c 0.0688,-0.0924 0.14908,-0.16265 0.24132,-0.21033 0.0922,-0.0491 0.19585,-0.0739 0.31006,-0.0739 z m 5.60896,0 v 5.1e-4 c 0.0922,0 0.17717,0.0164 0.25477,0.0491 0.0776,0.0312 0.14436,0.083 0.19999,0.15606 0.0556,0.0729 0.099,0.16858 0.1297,0.28629 0.0308,0.11769 0.046,0.26222 0.046,0.43356 v 1.53789 h -0.62374 v -1.54047 c 0,-0.0775 -0.006,-0.14107 -0.0176,-0.19172 -0.0117,-0.0507 -0.0293,-0.0912 -0.0527,-0.12092 -0.022,-0.0299 -0.05,-0.0506 -0.0837,-0.0625 -0.0337,-0.0119 -0.0729,-0.0181 -0.11833,-0.0181 -0.0586,0 -0.11007,0.0157 -0.154,0.047 -0.0439,0.0312 -0.0803,0.0746 -0.10955,0.1297 v 1.75649 h -0.62374 v -2.41794 h 0.58446 l 0.0176,0.23926 c 0.0688,-0.0924 0.14909,-0.16265 0.24133,-0.21033 0.0922,-0.0491 0.19534,-0.0739 0.30954,-0.0739 z m 9.14311,0 v 5.1e-4 c 0.0922,0 0.17717,0.0164 0.25477,0.0491 0.0776,0.0312 0.14436,0.083 0.19999,0.15606 0.0556,0.0729 0.099,0.16858 0.1297,0.28629 0.0308,0.11769 0.046,0.26222 0.046,0.43356 v 1.53789 h -0.62374 v -1.54047 c 0,-0.0775 -0.006,-0.14107 -0.0176,-0.19172 -0.0117,-0.0507 -0.0293,-0.0912 -0.0527,-0.12092 -0.022,-0.0299 -0.05,-0.0506 -0.0837,-0.0625 -0.0337,-0.0119 -0.0729,-0.0181 -0.11834,-0.0181 -0.0586,0 -0.11007,0.0157 -0.154,0.047 -0.0439,0.0312 -0.0803,0.0746 -0.10955,0.1297 v 1.75649 h -0.62373 v -2.41794 h 0.58395 l 0.0176,0.23926 c 0.0688,-0.0924 0.1496,-0.16265 0.24184,-0.21033 0.0922,-0.0491 0.19533,-0.0739 0.30954,-0.0739 z m -12.94908,5.1e-4 c 0.11567,0 0.21351,0.023 0.29404,0.0693 0.0805,0.0446 0.149,0.10772 0.20464,0.18965 l 0.0238,-0.21445 h 0.56017 v 2.41845 c 0,0.16538 -0.0239,0.30713 -0.0723,0.42633 -0.0469,0.12068 -0.1136,0.2202 -0.19999,0.29766 -0.0864,0.0774 -0.19009,0.13483 -0.31161,0.17208 -0.12007,0.0372 -0.25416,0.0558 -0.40204,0.0558 -0.0556,0 -0.11714,-0.006 -0.18449,-0.0181 -0.0674,-0.0119 -0.1347,-0.03 -0.20205,-0.0538 -0.0674,-0.0223 -0.13177,-0.0515 -0.19327,-0.0873 -0.06,-0.0343 -0.11041,-0.0748 -0.15141,-0.12247 l 0.20825,-0.4377 c 0.0278,0.0298 0.0611,0.0568 0.0992,0.0822 0.0395,0.0268 0.0805,0.0492 0.12299,0.0672 0.0439,0.0195 0.0891,0.0341 0.13591,0.0444 0.0468,0.0119 0.0925,0.0181 0.13643,0.0181 0.063,0 0.11859,-0.007 0.16691,-0.0222 0.0498,-0.0134 0.0914,-0.037 0.12506,-0.0713 0.0337,-0.0343 0.0583,-0.0798 0.0744,-0.13642 0.0176,-0.0567 0.0264,-0.12749 0.0264,-0.21239 v -0.19482 c -0.0571,0.076 -0.12333,0.13501 -0.19947,0.17673 -0.0747,0.0402 -0.16252,0.0605 -0.26355,0.0605 -0.12591,0 -0.23891,-0.0254 -0.33848,-0.076 -0.0981,-0.0507 -0.18131,-0.12543 -0.25012,-0.22376 -0.0673,-0.0983 -0.11946,-0.21979 -0.15606,-0.36431 -0.0366,-0.14601 -0.0548,-0.31417 -0.0548,-0.50488 v -0.15864 c 0,-0.39631 0.0703,-0.69212 0.21084,-0.88729 0.14056,-0.19517 0.33736,-0.29249 0.59066,-0.29249 z m 5.77846,0 c 0.30162,0 0.5277,0.0984 0.67851,0.29663 0.15081,0.19816 0.22635,0.49222 0.22635,0.88108 v 0.28784 h -1.23662 c 0.004,0.0968 0.0167,0.17836 0.0372,0.24391 0.022,0.0656 0.0513,0.11839 0.0879,0.15865 0.0366,0.0402 0.0805,0.0694 0.13177,0.0873 0.0527,0.0179 0.1124,0.0269 0.17829,0.0269 0.10981,0 0.20705,-0.0186 0.29197,-0.0558 0.0864,-0.0388 0.16252,-0.0922 0.22841,-0.16071 l 0.24391,0.38137 c -0.0308,0.0433 -0.0711,0.087 -0.12092,0.13022 -0.0498,0.0418 -0.10835,0.0795 -0.1757,0.11369 -0.0674,0.0343 -0.14349,0.0619 -0.22841,0.0827 -0.0849,0.0223 -0.17804,0.0336 -0.27906,0.0336 -0.16253,0 -0.30661,-0.0253 -0.43253,-0.076 -0.12591,-0.0507 -0.23194,-0.12326 -0.31832,-0.21859 -0.0864,-0.0953 -0.15255,-0.21173 -0.19793,-0.34882 -0.0439,-0.13855 -0.0661,-0.296 -0.0661,-0.4718 v -0.19844 c 0,-0.19666 0.0216,-0.36928 0.0641,-0.51677 0.0439,-0.14899 0.10602,-0.27329 0.18655,-0.3731 0.082,-0.10136 0.18155,-0.17723 0.29869,-0.22789 0.11859,-0.0507 0.2527,-0.076 0.40204,-0.076 z m 2.15233,0 c 0.30162,0 0.5277,0.0984 0.67851,0.29663 0.1508,0.19816 0.22634,0.49222 0.22634,0.88108 v 0.28784 h -1.23662 c 0.004,0.0968 0.0167,0.17836 0.0372,0.24391 0.022,0.0656 0.0512,0.11839 0.0879,0.15865 0.0366,0.0402 0.0805,0.0694 0.13177,0.0873 0.0527,0.0179 0.1124,0.0269 0.17829,0.0269 0.10981,0 0.20705,-0.0186 0.29197,-0.0558 0.0864,-0.0388 0.16252,-0.0922 0.22841,-0.16071 l 0.24391,0.38137 c -0.0308,0.0433 -0.0711,0.087 -0.12092,0.13022 -0.0498,0.0418 -0.10835,0.0795 -0.1757,0.11369 -0.0674,0.0343 -0.14349,0.0619 -0.22841,0.0827 -0.0849,0.0223 -0.17802,0.0336 -0.27905,0.0336 -0.16252,0 -0.30661,-0.0253 -0.43253,-0.076 -0.12592,-0.0507 -0.23194,-0.12326 -0.31833,-0.21859 -0.0864,-0.0953 -0.15253,-0.21173 -0.19792,-0.34882 -0.0439,-0.13855 -0.0656,-0.296 -0.0656,-0.4718 v -0.19844 c 0,-0.19666 0.0211,-0.36928 0.0636,-0.51677 0.0439,-0.14899 0.10602,-0.27329 0.18655,-0.3731 0.082,-0.10136 0.18156,-0.17723 0.29869,-0.22789 0.1186,-0.0507 0.25271,-0.076 0.40205,-0.076 z m 6.82128,0 c 0.11567,0 0.21403,0.023 0.29456,0.0693 0.0805,0.0446 0.14848,0.10772 0.20412,0.18965 l 0.0243,-0.21445 h 0.56017 v 2.41845 c 0,0.16538 -0.0245,0.30713 -0.0729,0.42633 -0.0469,0.12068 -0.11308,0.2202 -0.19947,0.29766 -0.0864,0.0774 -0.19061,0.13483 -0.31213,0.17208 -0.12007,0.0372 -0.25416,0.0558 -0.40204,0.0558 -0.0556,0 -0.11714,-0.006 -0.18449,-0.0181 -0.0674,-0.0119 -0.1347,-0.03 -0.20205,-0.0538 -0.0674,-0.0223 -0.13177,-0.0515 -0.19327,-0.0873 -0.06,-0.0343 -0.11041,-0.0748 -0.15141,-0.12247 l 0.20877,-0.4377 c 0.0278,0.0298 0.0606,0.0568 0.0987,0.0822 0.0395,0.0268 0.0805,0.0492 0.12299,0.0672 0.0439,0.0195 0.0896,0.0341 0.13643,0.0444 0.0468,0.0119 0.092,0.0181 0.13591,0.0181 0.063,0 0.1186,-0.007 0.16691,-0.0222 0.0498,-0.0134 0.0914,-0.037 0.12506,-0.0713 0.0337,-0.0343 0.0588,-0.0798 0.0749,-0.13642 0.0176,-0.0567 0.0264,-0.12749 0.0264,-0.21239 v -0.19482 c -0.0571,0.076 -0.12385,0.13501 -0.19999,0.17673 -0.0747,0.0402 -0.16252,0.0605 -0.26355,0.0605 -0.12592,0 -0.23841,-0.0254 -0.33797,-0.076 -0.0981,-0.0507 -0.18182,-0.12543 -0.25063,-0.22376 -0.0674,-0.0983 -0.11946,-0.21979 -0.15606,-0.36431 -0.0366,-0.14601 -0.0548,-0.31417 -0.0548,-0.50488 v -0.15864 c 0,-0.39631 0.0703,-0.69212 0.21084,-0.88729 0.14055,-0.19517 0.33736,-0.29249 0.59066,-0.29249 z m -26.32862,0.0445 h 0.62373 v 2.41845 h -0.62373 z m 0.93328,0 h 0.65009 l 0.30127,1.52445 0.30076,-1.52445 h 0.64802 l -0.65268,2.41845 h -0.59272 z m 2.22053,0 h 0.62374 v 2.41845 h -0.62374 z m 9.98647,0 h 0.62374 v 2.41845 h -0.62374 z m 9.14311,0 h 0.62374 v 2.41845 h -0.62374 z m -4.93303,0.48059 c -0.10835,0 -0.1874,0.0394 -0.23719,0.11834 -0.0483,0.079 -0.0765,0.20602 -0.0853,0.38033 h 0.62115 v -0.0584 c -0.003,-0.14451 -0.0264,-0.25417 -0.0703,-0.32866 -0.0439,-0.0745 -0.12007,-0.11162 -0.22841,-0.11162 z m 2.15232,0 c -0.10835,0 -0.18741,0.0394 -0.23719,0.11834 -0.0483,0.079 -0.0765,0.20602 -0.0853,0.38033 h 0.62115 v -0.0584 c -0.003,-0.14451 -0.0264,-0.25417 -0.0703,-0.32866 -0.0439,-0.0745 -0.12006,-0.11162 -0.22841,-0.11162 z m -7.74371,0.005 c -0.12299,0 -0.21489,0.0512 -0.27492,0.154 -0.0586,0.10281 -0.0879,0.26763 -0.0879,0.49558 v 0.15916 c 0,0.22348 0.0287,0.38658 0.0858,0.48938 0.0571,0.10134 0.14787,0.15192 0.27233,0.15192 0.0674,0 0.12359,-0.0119 0.16898,-0.0357 0.0469,-0.0253 0.0849,-0.0601 0.11421,-0.10491 v -1.15548 c -0.0308,-0.0491 -0.0694,-0.0874 -0.11627,-0.11421 -0.0454,-0.0268 -0.0993,-0.0398 -0.16227,-0.0398 z m 14.75207,0 c -0.12299,0 -0.21437,0.0512 -0.2744,0.154 -0.0586,0.10281 -0.0879,0.26763 -0.0879,0.49558 v 0.15916 c 0,0.22348 0.0287,0.38658 0.0858,0.48938 0.0571,0.10134 0.14789,0.15192 0.27234,0.15192 0.0673,0 0.12359,-0.0119 0.16898,-0.0357 0.0469,-0.0253 0.0849,-0.0601 0.11421,-0.10491 v -1.15548 c -0.0308,-0.0491 -0.0694,-0.0874 -0.11628,-0.11421 -0.0454,-0.0268 -0.0998,-0.0398 -0.16278,-0.0398 z" /></g></g></svg>
