<?xml version="1.0" encoding="UTF-8" standalone="no"?>
<!-- Created with Inkscape (http://www.inkscape.org/) -->

<svg
   width="36.349201mm"
   height="10.500143mm"
   viewBox="0 0 36.349201 10.500143"
   version="1.1"
   id="svg1"
   xml:space="preserve"
   inkscape:version="1.3.1 (91b66b0783, 2023-11-16)"
   sodipodi:docname="assets.svg"
   xmlns:inkscape="http://www.inkscape.org/namespaces/inkscape"
   xmlns:sodipodi="http://sodipodi.sourceforge.net/DTD/sodipodi-0.dtd"
   xmlns="http://www.w3.org/2000/svg"
   xmlns:svg="http://www.w3.org/2000/svg"><sodipodi:namedview
     id="namedview1"
     pagecolor="#ffffff"
     bordercolor="#000000"
     borderopacity="0.25"
     inkscape:showpageshadow="2"
     inkscape:pageopacity="0.0"
     inkscape:pagecheckerboard="0"
     inkscape:deskcolor="#d1d1d1"
     inkscape:document-units="mm"
     inkscape:zoom="2.8284271"
     inkscape:cx="1041.3915"
     inkscape:cy="388.3784"
     inkscape:window-width="2560"
     inkscape:window-height="1346"
     inkscape:window-x="-11"
     inkscape:window-y="-11"
     inkscape:window-maximized="1"
     inkscape:current-layer="layer1"
     showgrid="true"><inkscape:grid
       id="grid668"
       units="mm"
       originx="-614.4746"
       originy="-110.14656"
       spacingx="0.5"
       spacingy="0.5"
       empcolor="#0099e5"
       empopacity="0.30196078"
       color="#0099e5"
       opacity="0.14901961"
       empspacing="5"
       dotted="false"
       gridanglex="30"
       gridanglez="30"
       visible="true" /></sodipodi:namedview><defs
     id="defs1" /><g
     inkscape:label="Layer 1"
     inkscape:groupmode="layer"
     id="layer1"
     transform="translate(-614.47462,-110.14657)"><g
       id="g16"><rect
         style="fill:#f9f9f9;stroke-width:0.499999;stroke-linejoin:round;stroke-miterlimit:3.4;stroke-dashoffset:19.8539"
         id="rect12"
         width="27.644068"
         height="6.4863281"
         x="617.35596"
         y="112.34232" /><path
         id="path743"
         style="fill:#2c2c6f;fill-opacity:1;stroke-width:0.264583"
         d="m 618.01037,110.14657 c -1.95263,0 -3.5357,1.61081 -3.5357,3.59772 v 3.3047 c 0,1.98692 1.58307,3.59772 3.5357,3.59772 h 30.33096 v -10.50013 z m 30.84876,0 v 10.50014 h 1.96474 v -10.50014 z m -8.13129,3.29799 h 0.62374 v 3.43287 h -0.62374 z m -8.09563,0.13436 c 0.15374,0 0.29249,0.0248 0.41548,0.0754 0.12445,0.0492 0.22987,0.11835 0.31626,0.20774 0.0879,0.0879 0.1552,0.19415 0.20206,0.31781 0.0469,0.12217 0.0703,0.25661 0.0703,0.40411 h -0.64389 c 0,-0.0685 -0.007,-0.13097 -0.0217,-0.18759 -0.0132,-0.0581 -0.0354,-0.10705 -0.0661,-0.14728 -0.0293,-0.0417 -0.0674,-0.0737 -0.11421,-0.0961 -0.0468,-0.0238 -0.10309,-0.0357 -0.16898,-0.0357 -0.0615,0 -0.11481,0.01 -0.1602,0.0289 -0.0439,0.0194 -0.0808,0.0458 -0.11007,0.0801 -0.0293,0.0328 -0.051,0.0721 -0.0656,0.11834 -0.0146,0.0462 -0.0222,0.0956 -0.0222,0.14779 0,0.0536 0.0111,0.102 0.0331,0.14521 0.0234,0.0432 0.0556,0.0837 0.0966,0.12092 0.0425,0.0373 0.0928,0.0716 0.15141,0.10439 0.06,0.0328 0.12618,0.0653 0.19792,0.0966 0.14935,0.0551 0.2794,0.1164 0.39068,0.18345 0.11128,0.067 0.20438,0.14245 0.27905,0.22737 0.0747,0.0849 0.13031,0.18109 0.16692,0.28836 0.0366,0.10578 0.0548,0.22609 0.0548,0.36018 0,0.14303 -0.0234,0.27015 -0.0703,0.38189 -0.0454,0.11174 -0.11101,0.20623 -0.1974,0.2837 -0.0849,0.076 -0.18801,0.13502 -0.30954,0.17674 -0.12153,0.0402 -0.25855,0.0605 -0.41083,0.0605 -0.13763,0 -0.27294,-0.0208 -0.40618,-0.0625 -0.13178,-0.0432 -0.25002,-0.10847 -0.35398,-0.19637 -0.10395,-0.0879 -0.18776,-0.19974 -0.25218,-0.33383 -0.063,-0.13409 -0.0946,-0.29326 -0.0946,-0.47801 h 0.64802 c 0,0.0983 0.009,0.1821 0.0284,0.25063 0.019,0.0685 0.0477,0.12423 0.0858,0.16744 0.0395,0.0417 0.0876,0.0726 0.14469,0.092 0.0571,0.0179 0.12385,0.0264 0.19999,0.0264 0.0615,0 0.1136,-0.008 0.15606,-0.0264 0.0439,-0.0194 0.0791,-0.0452 0.10542,-0.0765 0.0278,-0.0328 0.0472,-0.0716 0.0589,-0.11627 0.0117,-0.0447 0.0176,-0.0931 0.0176,-0.14521 0,-0.0566 -0.005,-0.10724 -0.015,-0.15193 -0.0102,-0.0447 -0.0326,-0.0863 -0.0662,-0.12506 -0.0322,-0.0402 -0.0791,-0.079 -0.14056,-0.11627 -0.06,-0.0373 -0.14031,-0.0766 -0.24133,-0.11834 -0.12006,-0.0462 -0.23539,-0.099 -0.3452,-0.15865 -0.10835,-0.0596 -0.20386,-0.12934 -0.28732,-0.2098 -0.082,-0.0819 -0.14814,-0.17637 -0.19792,-0.28216 -0.0483,-0.10727 -0.0723,-0.23156 -0.0723,-0.3731 0,-0.13558 0.0246,-0.25878 0.0744,-0.37052 0.0498,-0.11322 0.11946,-0.20939 0.20877,-0.28836 0.0908,-0.079 0.19792,-0.14024 0.32091,-0.18345 0.12446,-0.0447 0.26097,-0.0667 0.41031,-0.0667 z m -14.32832,0.0444 h 1.83193 v 0.54726 h -1.18598 v 0.76894 h 1.00563 v 0.52968 h -1.00563 v 0.863 h 1.19011 v 0.54519 h -1.83606 z m 3.31453,0.79117 c 0.0922,0 0.17716,0.0163 0.25476,0.0491 0.0776,0.0313 0.14383,0.0831 0.19947,0.15606 0.0556,0.073 0.099,0.16859 0.12971,0.28629 0.0308,0.1177 0.046,0.26223 0.046,0.43357 v 1.53789 h -0.62373 v -1.54048 c 0,-0.0775 -0.006,-0.14106 -0.0176,-0.19172 -0.0117,-0.0507 -0.0293,-0.0911 -0.0527,-0.12092 -0.022,-0.0298 -0.0495,-0.0506 -0.0832,-0.0625 -0.0337,-0.0119 -0.0735,-0.0181 -0.11886,-0.0181 -0.0586,0 -0.10956,0.0163 -0.15348,0.0475 -0.0439,0.0313 -0.0808,0.0741 -0.11007,0.12919 v 1.757 h -0.62373 v -2.41846 h 0.58446 l 0.0176,0.23926 c 0.0688,-0.0924 0.14909,-0.16264 0.24133,-0.21032 0.0922,-0.0492 0.19586,-0.0734 0.31006,-0.0734 z m 1.97197,0 c 0.30161,0 0.5277,0.0985 0.67851,0.29662 0.15081,0.19816 0.22634,0.49223 0.22634,0.88108 v 0.28836 h -1.23661 c 0.004,0.0968 0.0172,0.17784 0.0377,0.2434 0.022,0.0656 0.0511,0.11841 0.0878,0.15864 0.0366,0.0402 0.0805,0.0695 0.13177,0.0873 0.0527,0.0179 0.11187,0.0269 0.17777,0.0269 0.10981,0 0.20705,-0.0186 0.29197,-0.0558 0.0864,-0.0387 0.16252,-0.0922 0.22841,-0.16072 l 0.24392,0.38137 c -0.0308,0.0432 -0.0711,0.087 -0.12093,0.13023 -0.0498,0.0417 -0.10835,0.0794 -0.1757,0.11369 -0.0673,0.0343 -0.14349,0.0618 -0.22841,0.0827 -0.0849,0.0223 -0.17802,0.0336 -0.27905,0.0336 -0.16252,0 -0.30661,-0.0253 -0.43253,-0.076 -0.12592,-0.0507 -0.23195,-0.12375 -0.31833,-0.2191 -0.0864,-0.0953 -0.15254,-0.21123 -0.19792,-0.3483 -0.0439,-0.13856 -0.0656,-0.29599 -0.0656,-0.47181 v -0.19895 c 0,-0.19667 0.0211,-0.36875 0.0636,-0.51625 0.0439,-0.14899 0.10603,-0.27328 0.18656,-0.3731 0.082,-0.10131 0.18155,-0.17724 0.29869,-0.2279 0.11859,-0.0507 0.25269,-0.076 0.40204,-0.076 z m 2.26446,0 c 0.0278,0 0.0577,0.003 0.0899,0.009 0.0337,0.005 0.0606,0.0107 0.0811,0.0196 l -0.006,0.6258 c -0.0278,-0.003 -0.0624,-0.006 -0.10336,-0.0109 -0.0395,-0.005 -0.0741,-0.007 -0.10335,-0.007 -0.0893,0 -0.16192,0.0196 -0.21756,0.0584 -0.0556,0.0387 -0.0978,0.095 -0.12712,0.1695 v 1.59835 h -0.62373 v -2.41846 h 0.58652 l 0.0176,0.26148 c 0.0469,-0.0968 0.1037,-0.17219 0.17105,-0.22582 0.0688,-0.0536 0.14728,-0.0801 0.23513,-0.0801 z m 1.1684,0 c 0.11567,0 0.21351,0.0231 0.29404,0.0693 0.0805,0.0447 0.149,0.10771 0.20464,0.18965 l 0.0238,-0.21446 h 0.56018 v 2.41846 c 0,0.16537 -0.024,0.30714 -0.0724,0.42633 -0.0469,0.12068 -0.1136,0.22018 -0.19999,0.29765 -0.0864,0.0775 -0.19009,0.13484 -0.31161,0.17209 -0.12007,0.0373 -0.25416,0.0558 -0.40204,0.0558 -0.0556,0 -0.11714,-0.006 -0.18449,-0.0181 -0.0673,-0.0119 -0.13469,-0.0299 -0.20205,-0.0537 -0.0674,-0.0223 -0.13177,-0.0516 -0.19327,-0.0873 -0.06,-0.0343 -0.11041,-0.0748 -0.15141,-0.12246 l 0.20825,-0.43771 c 0.0278,0.0298 0.0611,0.0569 0.0992,0.0822 0.0395,0.0268 0.0805,0.0493 0.12299,0.0672 0.0439,0.0194 0.0891,0.034 0.13591,0.0444 0.0469,0.0119 0.0925,0.0181 0.13643,0.0181 0.063,0 0.11859,-0.007 0.16691,-0.0222 0.0498,-0.0134 0.0914,-0.037 0.12506,-0.0713 0.0337,-0.0343 0.0583,-0.0798 0.0744,-0.13643 0.0176,-0.0566 0.0264,-0.12746 0.0264,-0.21239 v -0.19482 c -0.0571,0.076 -0.12333,0.13502 -0.19947,0.17674 -0.0747,0.0402 -0.16252,0.0605 -0.26355,0.0605 -0.12592,0 -0.23891,-0.0253 -0.33848,-0.076 -0.0981,-0.0507 -0.18131,-0.12542 -0.25012,-0.22375 -0.0674,-0.0983 -0.11946,-0.2198 -0.15606,-0.36432 -0.0366,-0.14601 -0.0548,-0.31417 -0.0548,-0.50488 v -0.15865 c 0,-0.39631 0.0703,-0.69211 0.21084,-0.88728 0.14056,-0.19518 0.33736,-0.29249 0.59066,-0.29249 z m 10.3048,0 c 0.25623,0 0.44778,0.0956 0.57516,0.28784 0.12884,0.19219 0.19327,0.48684 0.19327,0.88315 v 0.15864 c 0,0.37992 -0.0644,0.67123 -0.19327,0.87385 -0.12738,0.20263 -0.31772,0.30386 -0.57102,0.30386 -0.10102,0 -0.19009,-0.0208 -0.26769,-0.0625 -0.0761,-0.0417 -0.14228,-0.10075 -0.19792,-0.17673 v 1.12448 h -0.62115 v -3.34812 h 0.57516 l 0.0222,0.22118 c 0.0571,-0.0849 0.12505,-0.15019 0.20412,-0.19637 0.0805,-0.0462 0.17423,-0.0693 0.28112,-0.0693 z m 2.22674,0 c 0.25623,0 0.44829,0.0956 0.57567,0.28784 0.12885,0.19219 0.19327,0.48684 0.19327,0.88315 v 0.15864 c 0,0.37992 -0.0644,0.67123 -0.19327,0.87385 -0.12738,0.20263 -0.31772,0.30386 -0.57102,0.30386 -0.10103,0 -0.1906,-0.0208 -0.2682,-0.0625 -0.0761,-0.0417 -0.14176,-0.10075 -0.1974,-0.17673 v 1.12448 h -0.62167 v -3.34812 h 0.57567 l 0.0217,0.22118 c 0.0571,-0.0849 0.12506,-0.15019 0.20412,-0.19637 0.0805,-0.0462 0.17424,-0.0693 0.28112,-0.0693 z m -11.18743,0.0444 h 0.66766 l 0.28525,1.36581 0.31626,-1.36581 h 0.66353 l -0.78187,2.78019 c -0.0176,0.0611 -0.0415,0.12744 -0.0723,0.19896 -0.0293,0.0715 -0.0697,0.13787 -0.12093,0.19895 -0.0512,0.0626 -0.11506,0.11377 -0.1912,0.154 -0.0761,0.0417 -0.16813,0.0625 -0.27647,0.0625 -0.0278,0 -0.053,-0.002 -0.0749,-0.005 -0.0205,-0.001 -0.0404,-0.003 -0.0594,-0.006 -0.0176,-0.003 -0.0357,-0.007 -0.0548,-0.0134 -0.019,-0.005 -0.0407,-0.0106 -0.0656,-0.0181 v -0.49403 c 0.0117,0.001 0.0234,0.003 0.0351,0.003 h 0.0372 c 0.0498,0 0.0931,-0.006 0.12971,-0.016 0.0366,-0.009 0.0671,-0.0236 0.092,-0.0444 0.0263,-0.0209 0.0475,-0.0478 0.0636,-0.0806 0.0176,-0.0313 0.0322,-0.069 0.0439,-0.11369 l 0.0486,-0.16329 z m 5.64875,0 h 0.62167 v 1.5689 c 0,0.1326 0.0211,0.22709 0.0636,0.2837 0.0425,0.0551 0.0981,0.0832 0.16691,0.0832 0.0761,0 0.13884,-0.0168 0.18862,-0.0496 0.0498,-0.0343 0.0896,-0.0804 0.11886,-0.13848 v -1.74771 h 0.6258 v 2.41847 h -0.58394 l -0.0176,-0.22169 c -0.0615,0.0849 -0.13582,0.1507 -0.22221,0.19688 -0.0849,0.0462 -0.18337,0.0693 -0.29611,0.0693 -0.0996,0 -0.19033,-0.0163 -0.27233,-0.0491 -0.0805,-0.0343 -0.15021,-0.0876 -0.20878,-0.15916 -0.0586,-0.073 -0.1042,-0.16582 -0.13642,-0.27906 -0.0322,-0.11472 -0.0481,-0.25192 -0.0481,-0.41134 z m 7.62537,0 h 0.66766 l 0.28526,1.36581 0.31626,-1.36581 h 0.66352 l -0.78186,2.78019 c -0.0176,0.0611 -0.0416,0.12744 -0.0724,0.19896 -0.0293,0.0715 -0.0697,0.13787 -0.12092,0.19895 -0.0513,0.0626 -0.11507,0.11377 -0.19121,0.154 -0.0761,0.0417 -0.16811,0.0625 -0.27646,0.0625 -0.0278,0 -0.053,-0.002 -0.0749,-0.005 -0.0205,-0.001 -0.0404,-0.003 -0.0594,-0.006 -0.0176,-0.003 -0.0357,-0.007 -0.0548,-0.0134 -0.019,-0.005 -0.0407,-0.0106 -0.0656,-0.0181 v -0.49403 c 0.0117,0.001 0.0234,0.003 0.0351,0.003 h 0.0372 c 0.0498,0 0.0931,-0.006 0.12971,-0.016 0.0366,-0.009 0.0671,-0.0236 0.092,-0.0444 0.0264,-0.0209 0.0475,-0.0478 0.0636,-0.0806 0.0176,-0.0313 0.0322,-0.069 0.0439,-0.11369 l 0.0486,-0.16329 z m -18.05523,0.48059 c -0.10835,0 -0.18741,0.0394 -0.23719,0.11834 -0.0483,0.079 -0.077,0.20602 -0.0858,0.38034 h 0.62166 v -0.0584 c -0.003,-0.14452 -0.0264,-0.25416 -0.0703,-0.32866 -0.0439,-0.0745 -0.12007,-0.11162 -0.22841,-0.11162 z m 3.61942,0.004 c -0.12299,0 -0.21489,0.0517 -0.27492,0.15451 -0.0586,0.1028 -0.0879,0.26814 -0.0879,0.49609 v 0.15865 c 0,0.22348 0.0287,0.38709 0.0858,0.48989 0.0571,0.10131 0.14787,0.15193 0.27233,0.15193 0.0674,0 0.12359,-0.0123 0.16898,-0.0362 0.0469,-0.0253 0.0849,-0.0602 0.11421,-0.10491 v -1.15548 c -0.0307,-0.0492 -0.0694,-0.0869 -0.11627,-0.11369 -0.0454,-0.0268 -0.0993,-0.0408 -0.16227,-0.0408 z m 9.93996,0 c -0.0659,0 -0.12213,0.0146 -0.16898,0.0429 -0.0454,0.0283 -0.0823,0.0688 -0.11007,0.12092 v 1.13275 c 0.0264,0.0492 0.0626,0.0875 0.108,0.11575 0.0469,0.0268 0.10542,0.0408 0.1757,0.0408 0.12299,0 0.20791,-0.0534 0.25477,-0.15917 0.0483,-0.10578 0.0723,-0.27002 0.0723,-0.49351 v -0.15864 c 0,-0.11472 -0.006,-0.21255 -0.0176,-0.29301 -0.0117,-0.082 -0.031,-0.1483 -0.0574,-0.19895 -0.0264,-0.0522 -0.0604,-0.0904 -0.10284,-0.11421 -0.041,-0.0238 -0.0925,-0.0357 -0.154,-0.0357 z m 2.22726,0 c -0.0659,0 -0.12265,0.0146 -0.1695,0.0429 -0.0454,0.0283 -0.0817,0.0688 -0.10955,0.12092 v 1.13275 c 0.0264,0.0492 0.0621,0.0875 0.10748,0.11575 0.0468,0.0268 0.10542,0.0408 0.1757,0.0408 0.12299,0 0.20792,-0.0534 0.25477,-0.15917 0.0483,-0.10578 0.0723,-0.27002 0.0723,-0.49351 v -0.15864 c 0,-0.11472 -0.006,-0.21255 -0.0176,-0.29301 -0.0117,-0.082 -0.0305,-0.1483 -0.0568,-0.19895 -0.0263,-0.0522 -0.0609,-0.0904 -0.10335,-0.11421 -0.041,-0.0238 -0.092,-0.0357 -0.15348,-0.0357 z" /><path
         id="path149"
         style="fill:#2c2c6f;fill-opacity:1;stroke-width:0.264583"
         d="m 618.01037,110.14657 c -1.95263,0 -3.5357,1.61081 -3.5357,3.59772 v 3.3047 c 0,1.98692 1.58307,3.59772 3.5357,3.59772 h 30.33096 v -10.50013 z m 30.84876,0 v 10.50014 h 1.96474 v -10.50014 z m -8.13129,3.29799 h 0.62374 v 3.43287 h -0.62374 z m -8.09563,0.13436 c 0.15374,0 0.29249,0.0248 0.41548,0.0754 0.12445,0.0492 0.22987,0.11835 0.31626,0.20774 0.0879,0.0879 0.1552,0.19415 0.20206,0.31781 0.0469,0.12217 0.0703,0.25661 0.0703,0.40411 h -0.64389 c 0,-0.0685 -0.007,-0.13097 -0.0217,-0.18759 -0.0132,-0.0581 -0.0354,-0.10705 -0.0661,-0.14728 -0.0293,-0.0417 -0.0674,-0.0737 -0.11421,-0.0961 -0.0468,-0.0238 -0.10309,-0.0357 -0.16898,-0.0357 -0.0615,0 -0.11481,0.01 -0.1602,0.0289 -0.0439,0.0194 -0.0808,0.0458 -0.11007,0.0801 -0.0293,0.0328 -0.051,0.0721 -0.0656,0.11834 -0.0146,0.0462 -0.0222,0.0956 -0.0222,0.14779 0,0.0536 0.0111,0.102 0.0331,0.14521 0.0234,0.0432 0.0556,0.0837 0.0966,0.12092 0.0425,0.0373 0.0928,0.0716 0.15141,0.10439 0.06,0.0328 0.12618,0.0653 0.19792,0.0966 0.14935,0.0551 0.2794,0.1164 0.39068,0.18345 0.11128,0.067 0.20438,0.14245 0.27905,0.22737 0.0747,0.0849 0.13031,0.18109 0.16692,0.28836 0.0366,0.10578 0.0548,0.22609 0.0548,0.36018 0,0.14303 -0.0234,0.27015 -0.0703,0.38189 -0.0454,0.11174 -0.11101,0.20623 -0.1974,0.2837 -0.0849,0.076 -0.18801,0.13502 -0.30954,0.17674 -0.12153,0.0402 -0.25855,0.0605 -0.41083,0.0605 -0.13763,0 -0.27294,-0.0208 -0.40618,-0.0625 -0.13178,-0.0432 -0.25002,-0.10847 -0.35398,-0.19637 -0.10395,-0.0879 -0.18776,-0.19974 -0.25218,-0.33383 -0.063,-0.13409 -0.0946,-0.29326 -0.0946,-0.47801 h 0.64802 c 0,0.0983 0.009,0.1821 0.0284,0.25063 0.019,0.0685 0.0477,0.12423 0.0858,0.16744 0.0395,0.0417 0.0876,0.0726 0.14469,0.092 0.0571,0.0179 0.12385,0.0264 0.19999,0.0264 0.0615,0 0.1136,-0.008 0.15606,-0.0264 0.0439,-0.0194 0.0791,-0.0452 0.10542,-0.0765 0.0278,-0.0328 0.0472,-0.0716 0.0589,-0.11627 0.0117,-0.0447 0.0176,-0.0931 0.0176,-0.14521 0,-0.0566 -0.005,-0.10724 -0.015,-0.15193 -0.0102,-0.0447 -0.0326,-0.0863 -0.0662,-0.12506 -0.0322,-0.0402 -0.0791,-0.079 -0.14056,-0.11627 -0.06,-0.0373 -0.14031,-0.0766 -0.24133,-0.11834 -0.12006,-0.0462 -0.23539,-0.099 -0.3452,-0.15865 -0.10835,-0.0596 -0.20386,-0.12934 -0.28732,-0.2098 -0.082,-0.0819 -0.14814,-0.17637 -0.19792,-0.28216 -0.0483,-0.10727 -0.0723,-0.23156 -0.0723,-0.3731 0,-0.13558 0.0246,-0.25878 0.0744,-0.37052 0.0498,-0.11322 0.11946,-0.20939 0.20877,-0.28836 0.0908,-0.079 0.19792,-0.14024 0.32091,-0.18345 0.12446,-0.0447 0.26097,-0.0667 0.41031,-0.0667 z m -14.32832,0.0444 h 1.83193 v 0.54726 h -1.18598 v 0.76894 h 1.00563 v 0.52968 h -1.00563 v 0.863 h 1.19011 v 0.54519 h -1.83606 z m 3.31453,0.79117 c 0.0922,0 0.17716,0.0163 0.25476,0.0491 0.0776,0.0313 0.14383,0.0831 0.19947,0.15606 0.0556,0.073 0.099,0.16859 0.12971,0.28629 0.0308,0.1177 0.046,0.26223 0.046,0.43357 v 1.53789 h -0.62373 v -1.54048 c 0,-0.0775 -0.006,-0.14106 -0.0176,-0.19172 -0.0117,-0.0507 -0.0293,-0.0911 -0.0527,-0.12092 -0.022,-0.0298 -0.0495,-0.0506 -0.0832,-0.0625 -0.0337,-0.0119 -0.0735,-0.0181 -0.11886,-0.0181 -0.0586,0 -0.10956,0.0163 -0.15348,0.0475 -0.0439,0.0313 -0.0808,0.0741 -0.11007,0.12919 v 1.757 h -0.62373 v -2.41846 h 0.58446 l 0.0176,0.23926 c 0.0688,-0.0924 0.14909,-0.16264 0.24133,-0.21032 0.0922,-0.0492 0.19586,-0.0734 0.31006,-0.0734 z m 1.97197,0 c 0.30161,0 0.5277,0.0985 0.67851,0.29662 0.15081,0.19816 0.22634,0.49223 0.22634,0.88108 v 0.28836 h -1.23661 c 0.004,0.0968 0.0172,0.17784 0.0377,0.2434 0.022,0.0656 0.0511,0.11841 0.0878,0.15864 0.0366,0.0402 0.0805,0.0695 0.13177,0.0873 0.0527,0.0179 0.11187,0.0269 0.17777,0.0269 0.10981,0 0.20705,-0.0186 0.29197,-0.0558 0.0864,-0.0387 0.16252,-0.0922 0.22841,-0.16072 l 0.24392,0.38137 c -0.0308,0.0432 -0.0711,0.087 -0.12093,0.13023 -0.0498,0.0417 -0.10835,0.0794 -0.1757,0.11369 -0.0673,0.0343 -0.14349,0.0618 -0.22841,0.0827 -0.0849,0.0223 -0.17802,0.0336 -0.27905,0.0336 -0.16252,0 -0.30661,-0.0253 -0.43253,-0.076 -0.12592,-0.0507 -0.23195,-0.12375 -0.31833,-0.2191 -0.0864,-0.0953 -0.15254,-0.21123 -0.19792,-0.3483 -0.0439,-0.13856 -0.0656,-0.29599 -0.0656,-0.47181 v -0.19895 c 0,-0.19667 0.0211,-0.36875 0.0636,-0.51625 0.0439,-0.14899 0.10603,-0.27328 0.18656,-0.3731 0.082,-0.10131 0.18155,-0.17724 0.29869,-0.2279 0.11859,-0.0507 0.25269,-0.076 0.40204,-0.076 z m 2.26446,0 c 0.0278,0 0.0577,0.003 0.0899,0.009 0.0337,0.005 0.0606,0.0107 0.0811,0.0196 l -0.006,0.6258 c -0.0278,-0.003 -0.0624,-0.006 -0.10336,-0.0109 -0.0395,-0.005 -0.0741,-0.007 -0.10335,-0.007 -0.0893,0 -0.16192,0.0196 -0.21756,0.0584 -0.0556,0.0387 -0.0978,0.095 -0.12712,0.1695 v 1.59835 h -0.62373 v -2.41846 h 0.58652 l 0.0176,0.26148 c 0.0469,-0.0968 0.1037,-0.17219 0.17105,-0.22582 0.0688,-0.0536 0.14728,-0.0801 0.23513,-0.0801 z m 1.1684,0 c 0.11567,0 0.21351,0.0231 0.29404,0.0693 0.0805,0.0447 0.149,0.10771 0.20464,0.18965 l 0.0238,-0.21446 h 0.56018 v 2.41846 c 0,0.16537 -0.024,0.30714 -0.0724,0.42633 -0.0469,0.12068 -0.1136,0.22018 -0.19999,0.29765 -0.0864,0.0775 -0.19009,0.13484 -0.31161,0.17209 -0.12007,0.0373 -0.25416,0.0558 -0.40204,0.0558 -0.0556,0 -0.11714,-0.006 -0.18449,-0.0181 -0.0673,-0.0119 -0.13469,-0.0299 -0.20205,-0.0537 -0.0674,-0.0223 -0.13177,-0.0516 -0.19327,-0.0873 -0.06,-0.0343 -0.11041,-0.0748 -0.15141,-0.12246 l 0.20825,-0.43771 c 0.0278,0.0298 0.0611,0.0569 0.0992,0.0822 0.0395,0.0268 0.0805,0.0493 0.12299,0.0672 0.0439,0.0194 0.0891,0.034 0.13591,0.0444 0.0469,0.0119 0.0925,0.0181 0.13643,0.0181 0.063,0 0.11859,-0.007 0.16691,-0.0222 0.0498,-0.0134 0.0914,-0.037 0.12506,-0.0713 0.0337,-0.0343 0.0583,-0.0798 0.0744,-0.13643 0.0176,-0.0566 0.0264,-0.12746 0.0264,-0.21239 v -0.19482 c -0.0571,0.076 -0.12333,0.13502 -0.19947,0.17674 -0.0747,0.0402 -0.16252,0.0605 -0.26355,0.0605 -0.12592,0 -0.23891,-0.0253 -0.33848,-0.076 -0.0981,-0.0507 -0.18131,-0.12542 -0.25012,-0.22375 -0.0674,-0.0983 -0.11946,-0.2198 -0.15606,-0.36432 -0.0366,-0.14601 -0.0548,-0.31417 -0.0548,-0.50488 v -0.15865 c 0,-0.39631 0.0703,-0.69211 0.21084,-0.88728 0.14056,-0.19518 0.33736,-0.29249 0.59066,-0.29249 z m 10.3048,0 c 0.25623,0 0.44778,0.0956 0.57516,0.28784 0.12884,0.19219 0.19327,0.48684 0.19327,0.88315 v 0.15864 c 0,0.37992 -0.0644,0.67123 -0.19327,0.87385 -0.12738,0.20263 -0.31772,0.30386 -0.57102,0.30386 -0.10102,0 -0.19009,-0.0208 -0.26769,-0.0625 -0.0761,-0.0417 -0.14228,-0.10075 -0.19792,-0.17673 v 1.12448 h -0.62115 v -3.34812 h 0.57516 l 0.0222,0.22118 c 0.0571,-0.0849 0.12505,-0.15019 0.20412,-0.19637 0.0805,-0.0462 0.17423,-0.0693 0.28112,-0.0693 z m 2.22674,0 c 0.25623,0 0.44829,0.0956 0.57567,0.28784 0.12885,0.19219 0.19327,0.48684 0.19327,0.88315 v 0.15864 c 0,0.37992 -0.0644,0.67123 -0.19327,0.87385 -0.12738,0.20263 -0.31772,0.30386 -0.57102,0.30386 -0.10103,0 -0.1906,-0.0208 -0.2682,-0.0625 -0.0761,-0.0417 -0.14176,-0.10075 -0.1974,-0.17673 v 1.12448 h -0.62167 v -3.34812 h 0.57567 l 0.0217,0.22118 c 0.0571,-0.0849 0.12506,-0.15019 0.20412,-0.19637 0.0805,-0.0462 0.17424,-0.0693 0.28112,-0.0693 z m -11.18743,0.0444 h 0.66766 l 0.28525,1.36581 0.31626,-1.36581 h 0.66353 l -0.78187,2.78019 c -0.0176,0.0611 -0.0415,0.12744 -0.0723,0.19896 -0.0293,0.0715 -0.0697,0.13787 -0.12093,0.19895 -0.0512,0.0626 -0.11506,0.11377 -0.1912,0.154 -0.0761,0.0417 -0.16813,0.0625 -0.27647,0.0625 -0.0278,0 -0.053,-0.002 -0.0749,-0.005 -0.0205,-0.001 -0.0404,-0.003 -0.0594,-0.006 -0.0176,-0.003 -0.0357,-0.007 -0.0548,-0.0134 -0.019,-0.005 -0.0407,-0.0106 -0.0656,-0.0181 v -0.49403 c 0.0117,0.001 0.0234,0.003 0.0351,0.003 h 0.0372 c 0.0498,0 0.0931,-0.006 0.12971,-0.016 0.0366,-0.009 0.0671,-0.0236 0.092,-0.0444 0.0263,-0.0209 0.0475,-0.0478 0.0636,-0.0806 0.0176,-0.0313 0.0322,-0.069 0.0439,-0.11369 l 0.0486,-0.16329 z m 5.64875,0 h 0.62167 v 1.5689 c 0,0.1326 0.0211,0.22709 0.0636,0.2837 0.0425,0.0551 0.0981,0.0832 0.16691,0.0832 0.0761,0 0.13884,-0.0168 0.18862,-0.0496 0.0498,-0.0343 0.0896,-0.0804 0.11886,-0.13848 v -1.74771 h 0.6258 v 2.41847 h -0.58394 l -0.0176,-0.22169 c -0.0615,0.0849 -0.13582,0.1507 -0.22221,0.19688 -0.0849,0.0462 -0.18337,0.0693 -0.29611,0.0693 -0.0996,0 -0.19033,-0.0163 -0.27233,-0.0491 -0.0805,-0.0343 -0.15021,-0.0876 -0.20878,-0.15916 -0.0586,-0.073 -0.1042,-0.16582 -0.13642,-0.27906 -0.0322,-0.11472 -0.0481,-0.25192 -0.0481,-0.41134 z m 7.62537,0 h 0.66766 l 0.28526,1.36581 0.31626,-1.36581 h 0.66352 l -0.78186,2.78019 c -0.0176,0.0611 -0.0416,0.12744 -0.0724,0.19896 -0.0293,0.0715 -0.0697,0.13787 -0.12092,0.19895 -0.0513,0.0626 -0.11507,0.11377 -0.19121,0.154 -0.0761,0.0417 -0.16811,0.0625 -0.27646,0.0625 -0.0278,0 -0.053,-0.002 -0.0749,-0.005 -0.0205,-0.001 -0.0404,-0.003 -0.0594,-0.006 -0.0176,-0.003 -0.0357,-0.007 -0.0548,-0.0134 -0.019,-0.005 -0.0407,-0.0106 -0.0656,-0.0181 v -0.49403 c 0.0117,0.001 0.0234,0.003 0.0351,0.003 h 0.0372 c 0.0498,0 0.0931,-0.006 0.12971,-0.016 0.0366,-0.009 0.0671,-0.0236 0.092,-0.0444 0.0264,-0.0209 0.0475,-0.0478 0.0636,-0.0806 0.0176,-0.0313 0.0322,-0.069 0.0439,-0.11369 l 0.0486,-0.16329 z m -18.05523,0.48059 c -0.10835,0 -0.18741,0.0394 -0.23719,0.11834 -0.0483,0.079 -0.077,0.20602 -0.0858,0.38034 h 0.62166 v -0.0584 c -0.003,-0.14452 -0.0264,-0.25416 -0.0703,-0.32866 -0.0439,-0.0745 -0.12007,-0.11162 -0.22841,-0.11162 z m 3.61942,0.004 c -0.12299,0 -0.21489,0.0517 -0.27492,0.15451 -0.0586,0.1028 -0.0879,0.26814 -0.0879,0.49609 v 0.15865 c 0,0.22348 0.0287,0.38709 0.0858,0.48989 0.0571,0.10131 0.14787,0.15193 0.27233,0.15193 0.0674,0 0.12359,-0.0123 0.16898,-0.0362 0.0469,-0.0253 0.0849,-0.0602 0.11421,-0.10491 v -1.15548 c -0.0307,-0.0492 -0.0694,-0.0869 -0.11627,-0.11369 -0.0454,-0.0268 -0.0993,-0.0408 -0.16227,-0.0408 z m 9.93996,0 c -0.0659,0 -0.12213,0.0146 -0.16898,0.0429 -0.0454,0.0283 -0.0823,0.0688 -0.11007,0.12092 v 1.13275 c 0.0264,0.0492 0.0626,0.0875 0.108,0.11575 0.0469,0.0268 0.10542,0.0408 0.1757,0.0408 0.12299,0 0.20791,-0.0534 0.25477,-0.15917 0.0483,-0.10578 0.0723,-0.27002 0.0723,-0.49351 v -0.15864 c 0,-0.11472 -0.006,-0.21255 -0.0176,-0.29301 -0.0117,-0.082 -0.031,-0.1483 -0.0574,-0.19895 -0.0264,-0.0522 -0.0604,-0.0904 -0.10284,-0.11421 -0.041,-0.0238 -0.0925,-0.0357 -0.154,-0.0357 z m 2.22726,0 c -0.0659,0 -0.12265,0.0146 -0.1695,0.0429 -0.0454,0.0283 -0.0817,0.0688 -0.10955,0.12092 v 1.13275 c 0.0264,0.0492 0.0621,0.0875 0.10748,0.11575 0.0468,0.0268 0.10542,0.0408 0.1757,0.0408 0.12299,0 0.20792,-0.0534 0.25477,-0.15917 0.0483,-0.10578 0.0723,-0.27002 0.0723,-0.49351 v -0.15864 c 0,-0.11472 -0.006,-0.21255 -0.0176,-0.29301 -0.0117,-0.082 -0.0305,-0.1483 -0.0568,-0.19895 -0.0263,-0.0522 -0.0609,-0.0904 -0.10335,-0.11421 -0.041,-0.0238 -0.092,-0.0357 -0.15348,-0.0357 z" /></g></g></svg>
