<?xml version="1.0" encoding="UTF-8" standalone="no"?>
<!-- Created with Inkscape (http://www.inkscape.org/) -->

<svg
   width="53.510429mm"
   height="10.500135mm"
   viewBox="0 0 53.510429 10.500135"
   version="1.1"
   id="svg1"
   xml:space="preserve"
   inkscape:version="1.3.1 (91b66b0783, 2023-11-16)"
   sodipodi:docname="assets.svg"
   xmlns:inkscape="http://www.inkscape.org/namespaces/inkscape"
   xmlns:sodipodi="http://sodipodi.sourceforge.net/DTD/sodipodi-0.dtd"
   xmlns="http://www.w3.org/2000/svg"
   xmlns:svg="http://www.w3.org/2000/svg"><sodipodi:namedview
     id="namedview1"
     pagecolor="#ffffff"
     bordercolor="#000000"
     borderopacity="0.25"
     inkscape:showpageshadow="2"
     inkscape:pageopacity="0.0"
     inkscape:pagecheckerboard="0"
     inkscape:deskcolor="#d1d1d1"
     inkscape:document-units="mm"
     inkscape:zoom="2.8284271"
     inkscape:cx="1041.3915"
     inkscape:cy="388.3784"
     inkscape:window-width="2560"
     inkscape:window-height="1346"
     inkscape:window-x="-11"
     inkscape:window-y="-11"
     inkscape:window-maximized="1"
     inkscape:current-layer="layer1"
     showgrid="true"><inkscape:grid
       id="grid668"
       units="mm"
       originx="-388.46052"
       originy="-110.14658"
       spacingx="0.5"
       spacingy="0.5"
       empcolor="#0099e5"
       empopacity="0.30196078"
       color="#0099e5"
       opacity="0.14901961"
       empspacing="5"
       dotted="false"
       gridanglex="30"
       gridanglez="30"
       visible="true" /></sodipodi:namedview><defs
     id="defs1" /><g
     inkscape:label="Layer 1"
     inkscape:groupmode="layer"
     id="layer1"
     transform="translate(-388.46052,-110.14658)"><g
       id="g12"><rect
         style="fill:#f9f9f9;stroke-width:0.499999;stroke-linejoin:round;stroke-miterlimit:3.4;stroke-dashoffset:19.8539"
         id="rect8"
         width="33.154613"
         height="6.4863281"
         x="391.84149"
         y="112.15344" /><path
         id="path736"
         style="fill:#2c2c6f;fill-opacity:1;stroke-width:0.264583"
         d="m 391.9957,110.14658 c -1.95236,0 -3.53518,1.61079 -3.53518,3.59771 v 3.30419 c 0,1.98692 1.58282,3.59823 3.53518,3.59823 h 37.47523 v -10.50013 z m 37.99303,0 v 10.50013 h 1.96474 v -10.50013 z m 2.48254,0 v 10.50013 h 1.99987 v -10.50013 z m 2.49959,0 v 10.50013 h 2.00039 v -10.50013 z m 2.5001,0 v 10.50013 h 1.99988 v -10.50013 z m 2.50011,0 v 10.50013 h 1.99987 v -10.50013 z m -24.24503,3.35173 c 0.0513,0 0.0975,0.008 0.13849,0.0243 0.0425,0.0164 0.0782,0.0394 0.10748,0.0692 0.0293,0.0298 0.0521,0.0658 0.0682,0.10748 0.0161,0.0402 0.0243,0.0847 0.0243,0.13385 0,0.0492 -0.008,0.0947 -0.0243,0.13642 -0.0161,0.0402 -0.0389,0.0757 -0.0682,0.10697 -0.0293,0.0298 -0.065,0.0529 -0.10748,0.0693 -0.041,0.0164 -0.0872,0.0248 -0.13849,0.0248 -0.0513,0 -0.0981,-0.008 -0.14056,-0.0248 -0.041,-0.0164 -0.0761,-0.0395 -0.10542,-0.0693 -0.0293,-0.0313 -0.0516,-0.0668 -0.0677,-0.10697 -0.0161,-0.0417 -0.0243,-0.0873 -0.0243,-0.13642 0,-0.0492 0.008,-0.0936 0.0243,-0.13385 0.0161,-0.0417 0.0384,-0.0777 0.0677,-0.10748 0.0293,-0.0298 0.0644,-0.0529 0.10542,-0.0692 0.0425,-0.0164 0.0893,-0.0243 0.14056,-0.0243 z m -22.37745,0.0806 c 0.34847,0 0.61263,0.0985 0.79272,0.29662 0.18155,0.19816 0.28516,0.48271 0.31005,0.8537 h -0.64802 c -0.003,-0.11622 -0.0134,-0.21295 -0.031,-0.29043 -0.0161,-0.079 -0.0413,-0.14139 -0.0765,-0.18758 -0.0351,-0.0462 -0.0814,-0.0788 -0.1385,-0.0982 -0.0556,-0.0194 -0.12532,-0.0289 -0.20877,-0.0289 -0.0864,0 -0.1602,0.0146 -0.22169,0.0444 -0.06,0.0298 -0.10922,0.0782 -0.14728,0.14521 -0.0381,0.0656 -0.0668,0.15272 -0.0858,0.26148 -0.0176,0.10727 -0.0264,0.23889 -0.0264,0.39533 v 0.55913 c 0,0.15197 0.008,0.28134 0.0222,0.38861 0.0146,0.10727 0.0404,0.19553 0.077,0.26407 0.0366,0.067 0.0847,0.11547 0.14469,0.14676 0.06,0.0313 0.13617,0.0475 0.22841,0.0475 0.0791,0 0.14642,-0.008 0.20206,-0.0248 0.0571,-0.0179 0.10395,-0.0483 0.14056,-0.0915 0.0366,-0.0432 0.0647,-0.10282 0.0837,-0.1788 0.019,-0.076 0.0308,-0.17215 0.0351,-0.28836 h 0.64543 c -0.0161,0.37099 -0.11859,0.65214 -0.30747,0.84285 -0.18888,0.1907 -0.45537,0.28577 -0.79944,0.28577 -0.17717,0 -0.3353,-0.0298 -0.47438,-0.0894 -0.1391,-0.0596 -0.25623,-0.14844 -0.3514,-0.26614 -0.0952,-0.1177 -0.16838,-0.2628 -0.21963,-0.43563 -0.0498,-0.17431 -0.0744,-0.37453 -0.0744,-0.601 v -0.55448 c 0,-0.22647 0.0252,-0.42669 0.0765,-0.601 0.0527,-0.17432 0.12824,-0.32052 0.22634,-0.43822 0.0981,-0.1177 0.21695,-0.20602 0.35605,-0.26561 0.13909,-0.0611 0.29551,-0.0915 0.46974,-0.0915 z m 18.57148,0 c 0.15373,0 0.29197,0.0248 0.41496,0.0754 0.12445,0.0492 0.22987,0.11834 0.31626,0.20774 0.0879,0.0879 0.1552,0.19415 0.20205,0.31781 0.0469,0.12217 0.0703,0.25661 0.0703,0.40411 h -0.64337 c 0,-0.0685 -0.007,-0.13097 -0.0217,-0.18759 -0.0132,-0.0581 -0.0355,-0.10705 -0.0662,-0.14728 -0.0293,-0.0417 -0.0674,-0.0738 -0.1142,-0.0961 -0.0469,-0.0238 -0.10311,-0.0357 -0.16899,-0.0357 -0.0615,0 -0.1148,0.009 -0.16019,0.0284 -0.0439,0.0194 -0.0808,0.0463 -0.11007,0.0806 -0.0293,0.0328 -0.051,0.0722 -0.0656,0.11834 -0.0146,0.0462 -0.0222,0.0957 -0.0222,0.1478 0,0.0536 0.0111,0.102 0.0331,0.14521 0.0234,0.0432 0.0556,0.0837 0.0966,0.12092 0.0425,0.0373 0.0928,0.0716 0.15142,0.10439 0.06,0.0328 0.12618,0.0653 0.19792,0.0966 0.14935,0.0551 0.2794,0.11641 0.39067,0.18345 0.11128,0.067 0.20437,0.14246 0.27905,0.22738 0.0747,0.0849 0.13032,0.18108 0.16692,0.28836 0.0366,0.10578 0.0548,0.22609 0.0548,0.36018 0,0.14303 -0.0234,0.27015 -0.0703,0.38189 -0.0454,0.11174 -0.11102,0.20623 -0.19741,0.2837 -0.0849,0.076 -0.18854,0.13502 -0.31006,0.17674 -0.12153,0.0402 -0.25804,0.0605 -0.41031,0.0605 -0.13763,0 -0.27345,-0.0208 -0.40669,-0.0625 -0.13177,-0.0432 -0.24952,-0.10847 -0.35347,-0.19637 -0.10396,-0.0879 -0.18828,-0.19974 -0.2527,-0.33383 -0.063,-0.13409 -0.094,-0.29326 -0.094,-0.47801 h 0.64751 c 0,0.0983 0.01,0.1821 0.0289,0.25063 0.019,0.0685 0.0472,0.12423 0.0853,0.16743 0.0395,0.0417 0.0881,0.0721 0.14521,0.0915 0.0571,0.0179 0.12385,0.0269 0.19999,0.0269 0.0615,0 0.11309,-0.009 0.15555,-0.0269 0.0439,-0.0194 0.0791,-0.0447 0.10542,-0.076 0.0278,-0.0328 0.0477,-0.0716 0.0594,-0.11628 0.0117,-0.0447 0.0176,-0.0931 0.0176,-0.14521 0,-0.0566 -0.005,-0.10723 -0.0155,-0.15192 -0.0103,-0.0447 -0.032,-0.0863 -0.0656,-0.12506 -0.0322,-0.0402 -0.0791,-0.079 -0.14056,-0.11627 -0.06,-0.0373 -0.14082,-0.0766 -0.24184,-0.11834 -0.12007,-0.0462 -0.23486,-0.099 -0.34468,-0.15865 -0.10834,-0.0596 -0.20439,-0.12935 -0.28784,-0.20981 -0.082,-0.0819 -0.14763,-0.17637 -0.19741,-0.28215 -0.0483,-0.10727 -0.0723,-0.23156 -0.0723,-0.3731 0,-0.13558 0.0246,-0.2593 0.0744,-0.37104 0.0498,-0.11323 0.11946,-0.20887 0.20877,-0.28784 0.0908,-0.079 0.19741,-0.14024 0.3204,-0.18345 0.12445,-0.0447 0.26148,-0.0667 0.41083,-0.0667 z m -6.99079,0.28577 h 0.62167 v 0.59428 h 0.31832 v 0.47594 h -0.31832 v 1.20044 c 0,0.0507 0.003,0.0923 0.009,0.12506 0.007,0.0328 0.0184,0.0587 0.0331,0.078 0.0161,0.0179 0.036,0.0308 0.0594,0.0382 0.0234,0.006 0.0516,0.009 0.0853,0.009 0.0307,0 0.0588,-0.002 0.0837,-0.005 0.0263,-0.003 0.0475,-0.006 0.0636,-0.0109 l -0.004,0.49145 c -0.0469,0.0179 -0.0978,0.0319 -0.15193,0.0424 -0.0542,0.0119 -0.11748,0.0181 -0.19069,0.0181 -0.0922,0 -0.17596,-0.0135 -0.25063,-0.0403 -0.0747,-0.0253 -0.13909,-0.0664 -0.19327,-0.12299 -0.0527,-0.0581 -0.0937,-0.13287 -0.12299,-0.22376 -0.0278,-0.0909 -0.0419,-0.20001 -0.0419,-0.32814 v -1.27176 h -0.2744 v -0.47594 h 0.2744 z m -9.22838,0.54932 c 0.14788,0 0.28086,0.0264 0.39946,0.0786 0.1186,0.0507 0.21988,0.126 0.30334,0.22582 0.0835,0.0998 0.14788,0.22245 0.19327,0.36846 0.0454,0.146 0.0682,0.31411 0.0682,0.50333 v 0.15813 c 0,0.1907 -0.0228,0.35938 -0.0682,0.50539 -0.0439,0.14452 -0.10775,0.26656 -0.1912,0.36639 -0.0835,0.0998 -0.18423,0.17517 -0.30283,0.22582 -0.11859,0.0507 -0.2515,0.076 -0.39791,0.076 -0.14787,0 -0.28085,-0.0253 -0.39945,-0.076 -0.1186,-0.0507 -0.21989,-0.126 -0.30334,-0.22582 -0.0835,-0.0998 -0.14788,-0.22187 -0.19327,-0.36639 -0.0454,-0.14601 -0.0677,-0.31469 -0.0677,-0.50539 v -0.15813 c 0,-0.18922 0.0223,-0.35733 0.0677,-0.50333 0.0454,-0.14601 0.10981,-0.26863 0.19327,-0.36846 0.0835,-0.0998 0.18414,-0.17517 0.30127,-0.22582 0.1186,-0.0521 0.25098,-0.0786 0.39739,-0.0786 z m 2.50372,0 c 0.10981,0 0.20766,0.0264 0.29404,0.0786 0.0879,0.0522 0.15753,0.13482 0.20878,0.24804 0.0644,-0.1028 0.14409,-0.18264 0.23926,-0.23926 0.0966,-0.0581 0.21084,-0.0873 0.34261,-0.0873 0.0966,0 0.18389,0.0168 0.26149,0.0496 0.0791,0.0328 0.14641,0.0851 0.20205,0.15813 0.0556,0.073 0.099,0.16859 0.12971,0.28629 0.0308,0.1177 0.046,0.26165 0.046,0.43149 v 1.5379 h -0.62167 v -1.54048 c 0,-0.0805 -0.006,-0.14571 -0.0176,-0.19637 -0.0102,-0.0507 -0.0261,-0.09 -0.0481,-0.11834 -0.022,-0.0298 -0.0483,-0.05 -0.0791,-0.0605 -0.0308,-0.0119 -0.0659,-0.0181 -0.10542,-0.0181 -0.0615,0 -0.1136,0.0197 -0.15606,0.0584 -0.0425,0.0387 -0.077,0.0916 -0.10336,0.15864 0.002,0.0164 0.003,0.0333 0.003,0.0512 0.002,0.0179 0.002,0.0359 0.002,0.0537 v 1.61179 h -0.62167 v -1.53583 c 0,-0.0804 -0.006,-0.14571 -0.0176,-0.19637 -0.0103,-0.0521 -0.0266,-0.0932 -0.0486,-0.12299 -0.0205,-0.0298 -0.0469,-0.05 -0.0791,-0.0605 -0.0308,-0.0119 -0.0659,-0.0181 -0.10542,-0.0181 -0.0571,0 -0.10687,0.0162 -0.14934,0.0476 -0.041,0.0313 -0.0761,0.0741 -0.10542,0.12919 v 1.757 h -0.62167 v -2.41846 h 0.58188 l 0.0176,0.22324 c 0.0659,-0.0849 0.14434,-0.15018 0.23512,-0.19637 0.0922,-0.0477 0.19766,-0.0718 0.31626,-0.0718 z m 3.26595,0 c 0.25623,0 0.44778,0.0962 0.57516,0.28835 0.12885,0.1922 0.19327,0.48685 0.19327,0.88315 v 0.15865 c 0,0.37992 -0.0644,0.67123 -0.19327,0.87385 -0.12738,0.20262 -0.31772,0.30386 -0.57102,0.30386 -0.10103,0 -0.19009,-0.0208 -0.26769,-0.0625 -0.0761,-0.0417 -0.14229,-0.10075 -0.19792,-0.17673 v 1.12447 h -0.62166 v -3.34811 h 0.57567 l 0.0217,0.22117 c 0.0571,-0.0849 0.12556,-0.15018 0.20463,-0.19637 0.0805,-0.0462 0.17424,-0.0698 0.28112,-0.0698 z m 5.63532,0 c 0.30162,0 0.5277,0.099 0.67851,0.29714 0.15081,0.19815 0.22634,0.49222 0.22634,0.88108 v 0.28784 h -1.23661 c 0.004,0.0968 0.0172,0.17836 0.0377,0.24391 0.022,0.0656 0.0512,0.11842 0.0879,0.15865 0.0366,0.0402 0.0805,0.0695 0.13178,0.0873 0.0527,0.0179 0.11187,0.0269 0.17776,0.0269 0.10981,0 0.20705,-0.0186 0.29197,-0.0558 0.0864,-0.0387 0.16253,-0.0927 0.22841,-0.16123 l 0.24392,0.38189 c -0.0308,0.0432 -0.0711,0.087 -0.12093,0.13023 -0.0498,0.0417 -0.10834,0.0794 -0.1757,0.11369 -0.0674,0.0343 -0.14349,0.0618 -0.22841,0.0827 -0.0849,0.0223 -0.17802,0.0336 -0.27905,0.0336 -0.16252,0 -0.30661,-0.0253 -0.43253,-0.076 -0.12592,-0.0507 -0.23194,-0.12375 -0.31833,-0.21911 -0.0864,-0.0953 -0.15253,-0.21123 -0.19792,-0.34829 -0.0439,-0.13856 -0.0656,-0.296 -0.0656,-0.47181 v -0.19895 c 0,-0.19667 0.0211,-0.36875 0.0636,-0.51625 0.0439,-0.14899 0.10602,-0.27328 0.18655,-0.37311 0.082,-0.1013 0.18156,-0.17723 0.29869,-0.22789 0.1186,-0.0507 0.2527,-0.0765 0.40204,-0.0765 z m 2.26446,0 h 5.2e-4 c 0.0277,3e-5 0.0574,0.003 0.0894,0.009 0.0337,0.004 0.0606,0.0107 0.0811,0.0196 l -0.006,0.6258 c -0.0278,-0.003 -0.0624,-0.006 -0.10335,-0.0109 -0.0395,-0.004 -0.0741,-0.007 -0.10336,-0.007 -0.0893,0 -0.16191,0.0196 -0.21755,0.0584 -0.0556,0.0387 -0.0978,0.095 -0.12713,0.1695 v 1.59836 h -0.62373 v -2.41846 h 0.58652 l 0.0176,0.26148 c 0.0469,-0.0968 0.1037,-0.17219 0.17105,-0.22582 0.0687,-0.0535 0.1475,-0.0805 0.23513,-0.0806 z m 4.81624,0 c 0.12738,0 0.24332,0.0213 0.34727,0.0631 0.10542,0.0402 0.19447,0.10041 0.26768,0.18086 0.0747,0.079 0.13204,0.17686 0.17157,0.29456 0.041,0.1177 0.0621,0.25433 0.0636,0.40928 h -0.58446 c -10e-4,-0.13558 -0.0232,-0.23964 -0.0656,-0.31265 -0.0425,-0.073 -0.11274,-0.10955 -0.21084,-0.10955 -0.0688,0 -0.12385,0.0141 -0.16485,0.0424 -0.0395,0.0283 -0.07,0.0705 -0.092,0.12558 -0.0205,0.0536 -0.0345,0.12005 -0.0419,0.2005 -0.006,0.079 -0.009,0.17063 -0.009,0.27492 v 0.17415 c 0,0.10578 0.003,0.19963 0.009,0.28009 0.006,0.079 0.0188,0.1448 0.0393,0.19843 0.022,0.0536 0.0536,0.0936 0.0946,0.12041 0.041,0.0268 0.0966,0.0408 0.16692,0.0408 0.0864,0 0.15313,-0.027 0.19999,-0.0806 0.0483,-0.0551 0.0729,-0.14737 0.0744,-0.27699 h 0.58446 c -10e-4,0.13707 -0.0243,0.26027 -0.0682,0.37052 -0.0439,0.10876 -0.1037,0.20101 -0.17984,0.27699 -0.0747,0.076 -0.16364,0.13444 -0.26613,0.17467 -0.10249,0.0402 -0.21264,0.0605 -0.33124,0.0605 -0.15959,0 -0.29896,-0.0259 -0.41755,-0.078 -0.1186,-0.0522 -0.21755,-0.1275 -0.29662,-0.22583 -0.0776,-0.0998 -0.13616,-0.22187 -0.1757,-0.36639 -0.0381,-0.14452 -0.0568,-0.30979 -0.0568,-0.49454 v -0.17415 c 0,-0.18474 0.0188,-0.34899 0.0568,-0.49351 0.0395,-0.14601 0.0981,-0.26915 0.1757,-0.36897 0.0776,-0.0998 0.17595,-0.17575 0.29455,-0.22789 0.1186,-0.0521 0.25683,-0.0786 0.41496,-0.0786 z m 3.23081,0 c 0.30161,0 0.52771,0.099 0.67852,0.29714 0.15081,0.19815 0.22634,0.49222 0.22634,0.88108 v 0.28784 h -1.23662 c 0.004,0.0968 0.0167,0.17836 0.0372,0.24391 0.022,0.0656 0.0512,0.11842 0.0879,0.15865 0.0366,0.0402 0.0805,0.0695 0.13177,0.0873 0.0527,0.0179 0.1124,0.0269 0.17829,0.0269 0.10981,0 0.20705,-0.0186 0.29197,-0.0558 0.0864,-0.0387 0.16253,-0.0927 0.22841,-0.16123 l 0.24391,0.38189 c -0.0308,0.0432 -0.0711,0.087 -0.12092,0.13023 -0.0498,0.0417 -0.10834,0.0794 -0.1757,0.11369 -0.0674,0.0343 -0.14348,0.0618 -0.22841,0.0827 -0.0849,0.0223 -0.17802,0.0336 -0.27905,0.0336 -0.16252,0 -0.30662,-0.0253 -0.43253,-0.076 -0.12592,-0.0507 -0.23194,-0.12375 -0.31833,-0.21911 -0.0864,-0.0953 -0.15253,-0.21123 -0.19792,-0.34829 -0.0439,-0.13856 -0.0656,-0.296 -0.0656,-0.47181 v -0.19895 c 0,-0.19667 0.0211,-0.36875 0.0636,-0.51625 0.0439,-0.14899 0.10603,-0.27328 0.18655,-0.37311 0.082,-0.1013 0.18156,-0.17723 0.29869,-0.22789 0.1186,-0.0507 0.25269,-0.0765 0.40204,-0.0765 z m 2.39366,0 c 0.0922,0 0.17716,0.0168 0.25476,0.0496 0.0776,0.0313 0.14435,0.0831 0.19999,0.15606 0.0556,0.073 0.099,0.16859 0.12971,0.28629 0.0308,0.1177 0.046,0.26223 0.046,0.43356 v 1.5379 h -0.62373 v -1.54048 c 0,-0.0775 -0.006,-0.14106 -0.0176,-0.19172 -0.0117,-0.0507 -0.0293,-0.0911 -0.0527,-0.12092 -0.022,-0.0298 -0.0495,-0.0506 -0.0832,-0.0625 -0.0337,-0.0119 -0.0735,-0.0181 -0.11886,-0.0181 -0.0586,0 -0.10956,0.0162 -0.15348,0.0476 -0.0439,0.0313 -0.0808,0.0741 -0.11007,0.12919 v 1.757 h -0.62373 v -2.41846 h 0.58446 l 0.0176,0.23926 c 0.0688,-0.0924 0.14909,-0.16265 0.24133,-0.21032 0.0922,-0.0492 0.19533,-0.0739 0.30954,-0.0739 z m 1.94406,0 c 0.12738,0 0.2428,0.0213 0.34675,0.0631 0.10542,0.0402 0.19499,0.10041 0.2682,0.18086 0.0747,0.079 0.13152,0.17686 0.17105,0.29456 0.041,0.1177 0.0621,0.25433 0.0636,0.40928 h -0.58395 c -0.002,-0.13558 -0.0236,-0.23964 -0.0661,-0.31265 -0.0425,-0.073 -0.11274,-0.10955 -0.21084,-0.10955 -0.0688,0 -0.12334,0.0141 -0.16434,0.0424 -0.0395,0.0283 -0.0705,0.0705 -0.0925,0.12558 -0.0205,0.0536 -0.0344,0.12005 -0.0419,0.2005 -0.006,0.079 -0.009,0.17063 -0.009,0.27492 v 0.17415 c 0,0.10578 0.003,0.19963 0.009,0.28009 0.006,0.079 0.0193,0.1448 0.0398,0.19843 0.022,0.0536 0.0536,0.0936 0.0946,0.12041 0.041,0.0268 0.0966,0.0408 0.16692,0.0408 0.0864,0 0.15261,-0.027 0.19947,-0.0806 0.0483,-0.0551 0.0735,-0.14737 0.0749,-0.27699 h 0.58395 c -0.001,0.13707 -0.0238,0.26027 -0.0677,0.37052 -0.0439,0.10876 -0.10422,0.20101 -0.18035,0.27699 -0.0747,0.076 -0.16313,0.13444 -0.26562,0.17467 -0.10249,0.0402 -0.21316,0.0605 -0.33176,0.0605 -0.1596,0 -0.29843,-0.0259 -0.41703,-0.078 -0.1186,-0.0522 -0.21756,-0.1275 -0.29662,-0.22583 -0.0776,-0.0998 -0.13617,-0.22187 -0.1757,-0.36639 -0.0381,-0.14452 -0.0574,-0.30979 -0.0574,-0.49454 v -0.17415 c 0,-0.18474 0.0193,-0.34899 0.0574,-0.49351 0.0395,-0.14601 0.0981,-0.26915 0.1757,-0.36897 0.0776,-0.0998 0.17544,-0.17575 0.29404,-0.22789 0.11859,-0.0521 0.25735,-0.0786 0.41547,-0.0786 z m 2.09703,0 c 0.30161,0 0.52823,0.099 0.67903,0.29714 0.15081,0.19815 0.22583,0.49222 0.22583,0.88108 v 0.28784 h -1.2361 c 0.004,0.0968 0.0167,0.17836 0.0372,0.24391 0.022,0.0656 0.0512,0.11842 0.0879,0.15865 0.0366,0.0402 0.0805,0.0695 0.13177,0.0873 0.0527,0.0179 0.11188,0.0269 0.17777,0.0269 0.10981,0 0.20705,-0.0186 0.29197,-0.0558 0.0864,-0.0387 0.16253,-0.0927 0.22841,-0.16123 l 0.24391,0.38189 c -0.0308,0.0432 -0.0711,0.087 -0.12092,0.13023 -0.0498,0.0417 -0.10834,0.0794 -0.1757,0.11369 -0.0674,0.0343 -0.14348,0.0618 -0.22841,0.0827 -0.0849,0.0223 -0.17751,0.0336 -0.27854,0.0336 -0.16252,0 -0.30713,-0.0253 -0.43305,-0.076 -0.12592,-0.0507 -0.23193,-0.12375 -0.31832,-0.21911 -0.0864,-0.0953 -0.15202,-0.21123 -0.19741,-0.34829 -0.0439,-0.13856 -0.0661,-0.296 -0.0661,-0.47181 v -0.19895 c 0,-0.19667 0.0211,-0.36875 0.0636,-0.51625 0.0439,-0.14899 0.10654,-0.27328 0.18707,-0.37311 0.082,-0.1013 0.18155,-0.17723 0.29869,-0.22789 0.11859,-0.0507 0.25218,-0.0765 0.40152,-0.0765 z m -21.25296,0.045 h 0.62167 v 1.56889 c 0,0.1326 0.0211,0.22709 0.0636,0.28371 0.0425,0.0551 0.0981,0.0832 0.16691,0.0832 0.0761,0 0.13936,-0.0168 0.18914,-0.0496 0.0498,-0.0343 0.089,-0.0804 0.11834,-0.13849 v -1.7477 h 0.6258 v 2.41846 h -0.58395 l -0.0176,-0.2217 c -0.0615,0.0849 -0.1353,0.1507 -0.22169,0.19689 -0.0849,0.0462 -0.18388,0.0693 -0.29662,0.0693 -0.0996,0 -0.19033,-0.0163 -0.27233,-0.0491 -0.0805,-0.0343 -0.15021,-0.0876 -0.20878,-0.15916 -0.0586,-0.073 -0.1037,-0.16582 -0.13591,-0.27905 -0.0322,-0.11472 -0.0486,-0.25193 -0.0486,-0.41135 z m 12.8173,0 h 0.62374 v 2.41846 h -0.62374 z m -19.71559,0.48059 c -0.10542,0 -0.18802,0.0534 -0.24805,0.16071 -0.0586,0.10578 -0.0879,0.26939 -0.0879,0.4899 v 0.15813 c 0,0.22497 0.0299,0.39025 0.0899,0.49454 0.06,0.1028 0.14324,0.15399 0.25011,0.15399 0.11274,0 0.19767,-0.0512 0.25477,-0.15399 0.0571,-0.10429 0.0858,-0.26957 0.0858,-0.49454 v -0.15813 c 0,-0.22051 -0.0299,-0.38412 -0.0899,-0.4899 -0.06,-0.10727 -0.14496,-0.16071 -0.25477,-0.16071 z m 11.40086,0 c -0.10835,0 -0.18742,0.0394 -0.2372,0.11834 -0.0483,0.079 -0.077,0.20602 -0.0858,0.38034 h 0.62167 v -0.0584 c -0.003,-0.14451 -0.0264,-0.25417 -0.0703,-0.32866 -0.0439,-0.0745 -0.12006,-0.11162 -0.22841,-0.11162 z m 10.31099,0 c -0.10835,0 -0.18741,0.0394 -0.23719,0.11834 -0.0483,0.079 -0.0765,0.20602 -0.0853,0.38034 h 0.62115 v -0.0584 c -0.003,-0.14451 -0.0264,-0.25417 -0.0703,-0.32866 -0.0439,-0.0745 -0.12006,-0.11162 -0.22841,-0.11162 z m 6.43527,0 c -0.10835,0 -0.18741,0.0394 -0.23719,0.11834 -0.0483,0.079 -0.077,0.20602 -0.0858,0.38034 h 0.62167 v -0.0584 c -0.003,-0.14451 -0.0264,-0.25417 -0.0703,-0.32866 -0.0439,-0.0745 -0.12006,-0.11162 -0.22841,-0.11162 z m -22.55986,0.004 c -0.0659,0 -0.12214,0.0146 -0.16899,0.0429 -0.0454,0.0283 -0.0822,0.0688 -0.11007,0.12093 v 1.13223 c 0.0263,0.0492 0.0621,0.088 0.10749,0.11627 0.0469,0.0268 0.10542,0.0408 0.1757,0.0408 0.12299,0 0.20791,-0.0534 0.25477,-0.15916 0.0483,-0.10578 0.0729,-0.27003 0.0729,-0.49351 v -0.15865 c 0,-0.11472 -0.006,-0.21255 -0.0176,-0.293 -0.0117,-0.0819 -0.031,-0.1483 -0.0574,-0.19896 -0.0264,-0.0521 -0.0609,-0.0904 -0.10335,-0.1142 -0.041,-0.0238 -0.092,-0.0357 -0.15348,-0.0357 z" /><path
         id="path147"
         style="fill:#2c2c6f;fill-opacity:1;stroke-width:0.264583"
         d="m 391.9957,110.14658 c -1.95236,0 -3.53518,1.61079 -3.53518,3.59771 v 3.30419 c 0,1.98692 1.58282,3.59823 3.53518,3.59823 h 37.47523 v -10.50013 z m 37.99303,0 v 10.50013 h 1.96474 v -10.50013 z m 2.48254,0 v 10.50013 h 1.99987 v -10.50013 z m 2.49959,0 v 10.50013 h 2.00039 v -10.50013 z m 2.5001,0 v 10.50013 h 1.99988 v -10.50013 z m 2.50011,0 v 10.50013 h 1.99987 v -10.50013 z m -24.24503,3.35173 c 0.0513,0 0.0975,0.008 0.13849,0.0243 0.0425,0.0164 0.0782,0.0394 0.10748,0.0692 0.0293,0.0298 0.0521,0.0658 0.0682,0.10748 0.0161,0.0402 0.0243,0.0847 0.0243,0.13385 0,0.0492 -0.008,0.0947 -0.0243,0.13642 -0.0161,0.0402 -0.0389,0.0757 -0.0682,0.10697 -0.0293,0.0298 -0.065,0.0529 -0.10748,0.0693 -0.041,0.0164 -0.0872,0.0248 -0.13849,0.0248 -0.0513,0 -0.0981,-0.008 -0.14056,-0.0248 -0.041,-0.0164 -0.0761,-0.0395 -0.10542,-0.0693 -0.0293,-0.0313 -0.0516,-0.0668 -0.0677,-0.10697 -0.0161,-0.0417 -0.0243,-0.0873 -0.0243,-0.13642 0,-0.0492 0.008,-0.0936 0.0243,-0.13385 0.0161,-0.0417 0.0384,-0.0777 0.0677,-0.10748 0.0293,-0.0298 0.0644,-0.0529 0.10542,-0.0692 0.0425,-0.0164 0.0893,-0.0243 0.14056,-0.0243 z m -22.37745,0.0806 c 0.34847,0 0.61263,0.0985 0.79272,0.29662 0.18155,0.19816 0.28516,0.48271 0.31005,0.8537 h -0.64802 c -0.003,-0.11622 -0.0134,-0.21295 -0.031,-0.29043 -0.0161,-0.079 -0.0413,-0.14139 -0.0765,-0.18758 -0.0351,-0.0462 -0.0814,-0.0788 -0.1385,-0.0982 -0.0556,-0.0194 -0.12532,-0.0289 -0.20877,-0.0289 -0.0864,0 -0.1602,0.0146 -0.22169,0.0444 -0.06,0.0298 -0.10922,0.0782 -0.14728,0.14521 -0.0381,0.0656 -0.0668,0.15272 -0.0858,0.26148 -0.0176,0.10727 -0.0264,0.23889 -0.0264,0.39533 v 0.55913 c 0,0.15197 0.008,0.28134 0.0222,0.38861 0.0146,0.10727 0.0404,0.19553 0.077,0.26407 0.0366,0.067 0.0847,0.11547 0.14469,0.14676 0.06,0.0313 0.13617,0.0475 0.22841,0.0475 0.0791,0 0.14642,-0.008 0.20206,-0.0248 0.0571,-0.0179 0.10395,-0.0483 0.14056,-0.0915 0.0366,-0.0432 0.0647,-0.10282 0.0837,-0.1788 0.019,-0.076 0.0308,-0.17215 0.0351,-0.28836 h 0.64543 c -0.0161,0.37099 -0.11859,0.65214 -0.30747,0.84285 -0.18888,0.1907 -0.45537,0.28577 -0.79944,0.28577 -0.17717,0 -0.3353,-0.0298 -0.47438,-0.0894 -0.1391,-0.0596 -0.25623,-0.14844 -0.3514,-0.26614 -0.0952,-0.1177 -0.16838,-0.2628 -0.21963,-0.43563 -0.0498,-0.17431 -0.0744,-0.37453 -0.0744,-0.601 v -0.55448 c 0,-0.22647 0.0252,-0.42669 0.0765,-0.601 0.0527,-0.17432 0.12824,-0.32052 0.22634,-0.43822 0.0981,-0.1177 0.21695,-0.20602 0.35605,-0.26561 0.13909,-0.0611 0.29551,-0.0915 0.46974,-0.0915 z m 18.57148,0 c 0.15373,0 0.29197,0.0248 0.41496,0.0754 0.12445,0.0492 0.22987,0.11834 0.31626,0.20774 0.0879,0.0879 0.1552,0.19415 0.20205,0.31781 0.0469,0.12217 0.0703,0.25661 0.0703,0.40411 h -0.64337 c 0,-0.0685 -0.007,-0.13097 -0.0217,-0.18759 -0.0132,-0.0581 -0.0355,-0.10705 -0.0662,-0.14728 -0.0293,-0.0417 -0.0674,-0.0738 -0.1142,-0.0961 -0.0469,-0.0238 -0.10311,-0.0357 -0.16899,-0.0357 -0.0615,0 -0.1148,0.009 -0.16019,0.0284 -0.0439,0.0194 -0.0808,0.0463 -0.11007,0.0806 -0.0293,0.0328 -0.051,0.0722 -0.0656,0.11834 -0.0146,0.0462 -0.0222,0.0957 -0.0222,0.1478 0,0.0536 0.0111,0.102 0.0331,0.14521 0.0234,0.0432 0.0556,0.0837 0.0966,0.12092 0.0425,0.0373 0.0928,0.0716 0.15142,0.10439 0.06,0.0328 0.12618,0.0653 0.19792,0.0966 0.14935,0.0551 0.2794,0.11641 0.39067,0.18345 0.11128,0.067 0.20437,0.14246 0.27905,0.22738 0.0747,0.0849 0.13032,0.18108 0.16692,0.28836 0.0366,0.10578 0.0548,0.22609 0.0548,0.36018 0,0.14303 -0.0234,0.27015 -0.0703,0.38189 -0.0454,0.11174 -0.11102,0.20623 -0.19741,0.2837 -0.0849,0.076 -0.18854,0.13502 -0.31006,0.17674 -0.12153,0.0402 -0.25804,0.0605 -0.41031,0.0605 -0.13763,0 -0.27345,-0.0208 -0.40669,-0.0625 -0.13177,-0.0432 -0.24952,-0.10847 -0.35347,-0.19637 -0.10396,-0.0879 -0.18828,-0.19974 -0.2527,-0.33383 -0.063,-0.13409 -0.094,-0.29326 -0.094,-0.47801 h 0.64751 c 0,0.0983 0.01,0.1821 0.0289,0.25063 0.019,0.0685 0.0472,0.12423 0.0853,0.16743 0.0395,0.0417 0.0881,0.0721 0.14521,0.0915 0.0571,0.0179 0.12385,0.0269 0.19999,0.0269 0.0615,0 0.11309,-0.009 0.15555,-0.0269 0.0439,-0.0194 0.0791,-0.0447 0.10542,-0.076 0.0278,-0.0328 0.0477,-0.0716 0.0594,-0.11628 0.0117,-0.0447 0.0176,-0.0931 0.0176,-0.14521 0,-0.0566 -0.005,-0.10723 -0.0155,-0.15192 -0.0103,-0.0447 -0.032,-0.0863 -0.0656,-0.12506 -0.0322,-0.0402 -0.0791,-0.079 -0.14056,-0.11627 -0.06,-0.0373 -0.14082,-0.0766 -0.24184,-0.11834 -0.12007,-0.0462 -0.23486,-0.099 -0.34468,-0.15865 -0.10834,-0.0596 -0.20439,-0.12935 -0.28784,-0.20981 -0.082,-0.0819 -0.14763,-0.17637 -0.19741,-0.28215 -0.0483,-0.10727 -0.0723,-0.23156 -0.0723,-0.3731 0,-0.13558 0.0246,-0.2593 0.0744,-0.37104 0.0498,-0.11323 0.11946,-0.20887 0.20877,-0.28784 0.0908,-0.079 0.19741,-0.14024 0.3204,-0.18345 0.12445,-0.0447 0.26148,-0.0667 0.41083,-0.0667 z m -6.99079,0.28577 h 0.62167 v 0.59428 h 0.31832 v 0.47594 h -0.31832 v 1.20044 c 0,0.0507 0.003,0.0923 0.009,0.12506 0.007,0.0328 0.0184,0.0587 0.0331,0.078 0.0161,0.0179 0.036,0.0308 0.0594,0.0382 0.0234,0.006 0.0516,0.009 0.0853,0.009 0.0307,0 0.0588,-0.002 0.0837,-0.005 0.0263,-0.003 0.0475,-0.006 0.0636,-0.0109 l -0.004,0.49145 c -0.0469,0.0179 -0.0978,0.0319 -0.15193,0.0424 -0.0542,0.0119 -0.11748,0.0181 -0.19069,0.0181 -0.0922,0 -0.17596,-0.0135 -0.25063,-0.0403 -0.0747,-0.0253 -0.13909,-0.0664 -0.19327,-0.12299 -0.0527,-0.0581 -0.0937,-0.13287 -0.12299,-0.22376 -0.0278,-0.0909 -0.0419,-0.20001 -0.0419,-0.32814 v -1.27176 h -0.2744 v -0.47594 h 0.2744 z m -9.22838,0.54932 c 0.14788,0 0.28086,0.0264 0.39946,0.0786 0.1186,0.0507 0.21988,0.126 0.30334,0.22582 0.0835,0.0998 0.14788,0.22245 0.19327,0.36846 0.0454,0.146 0.0682,0.31411 0.0682,0.50333 v 0.15813 c 0,0.1907 -0.0228,0.35938 -0.0682,0.50539 -0.0439,0.14452 -0.10775,0.26656 -0.1912,0.36639 -0.0835,0.0998 -0.18423,0.17517 -0.30283,0.22582 -0.11859,0.0507 -0.2515,0.076 -0.39791,0.076 -0.14787,0 -0.28085,-0.0253 -0.39945,-0.076 -0.1186,-0.0507 -0.21989,-0.126 -0.30334,-0.22582 -0.0835,-0.0998 -0.14788,-0.22187 -0.19327,-0.36639 -0.0454,-0.14601 -0.0677,-0.31469 -0.0677,-0.50539 v -0.15813 c 0,-0.18922 0.0223,-0.35733 0.0677,-0.50333 0.0454,-0.14601 0.10981,-0.26863 0.19327,-0.36846 0.0835,-0.0998 0.18414,-0.17517 0.30127,-0.22582 0.1186,-0.0521 0.25098,-0.0786 0.39739,-0.0786 z m 2.50372,0 c 0.10981,0 0.20766,0.0264 0.29404,0.0786 0.0879,0.0522 0.15753,0.13482 0.20878,0.24804 0.0644,-0.1028 0.14409,-0.18264 0.23926,-0.23926 0.0966,-0.0581 0.21084,-0.0873 0.34261,-0.0873 0.0966,0 0.18389,0.0168 0.26149,0.0496 0.0791,0.0328 0.14641,0.0851 0.20205,0.15813 0.0556,0.073 0.099,0.16859 0.12971,0.28629 0.0308,0.1177 0.046,0.26165 0.046,0.43149 v 1.5379 h -0.62167 v -1.54048 c 0,-0.0805 -0.006,-0.14571 -0.0176,-0.19637 -0.0102,-0.0507 -0.0261,-0.09 -0.0481,-0.11834 -0.022,-0.0298 -0.0483,-0.05 -0.0791,-0.0605 -0.0308,-0.0119 -0.0659,-0.0181 -0.10542,-0.0181 -0.0615,0 -0.1136,0.0197 -0.15606,0.0584 -0.0425,0.0387 -0.077,0.0916 -0.10336,0.15864 0.002,0.0164 0.003,0.0333 0.003,0.0512 0.002,0.0179 0.002,0.0359 0.002,0.0537 v 1.61179 h -0.62167 v -1.53583 c 0,-0.0804 -0.006,-0.14571 -0.0176,-0.19637 -0.0103,-0.0521 -0.0266,-0.0932 -0.0486,-0.12299 -0.0205,-0.0298 -0.0469,-0.05 -0.0791,-0.0605 -0.0308,-0.0119 -0.0659,-0.0181 -0.10542,-0.0181 -0.0571,0 -0.10687,0.0162 -0.14934,0.0476 -0.041,0.0313 -0.0761,0.0741 -0.10542,0.12919 v 1.757 h -0.62167 v -2.41846 h 0.58188 l 0.0176,0.22324 c 0.0659,-0.0849 0.14434,-0.15018 0.23512,-0.19637 0.0922,-0.0477 0.19766,-0.0718 0.31626,-0.0718 z m 3.26595,0 c 0.25623,0 0.44778,0.0962 0.57516,0.28835 0.12885,0.1922 0.19327,0.48685 0.19327,0.88315 v 0.15865 c 0,0.37992 -0.0644,0.67123 -0.19327,0.87385 -0.12738,0.20262 -0.31772,0.30386 -0.57102,0.30386 -0.10103,0 -0.19009,-0.0208 -0.26769,-0.0625 -0.0761,-0.0417 -0.14229,-0.10075 -0.19792,-0.17673 v 1.12447 h -0.62166 v -3.34811 h 0.57567 l 0.0217,0.22117 c 0.0571,-0.0849 0.12556,-0.15018 0.20463,-0.19637 0.0805,-0.0462 0.17424,-0.0698 0.28112,-0.0698 z m 5.63532,0 c 0.30162,0 0.5277,0.099 0.67851,0.29714 0.15081,0.19815 0.22634,0.49222 0.22634,0.88108 v 0.28784 h -1.23661 c 0.004,0.0968 0.0172,0.17836 0.0377,0.24391 0.022,0.0656 0.0512,0.11842 0.0879,0.15865 0.0366,0.0402 0.0805,0.0695 0.13178,0.0873 0.0527,0.0179 0.11187,0.0269 0.17776,0.0269 0.10981,0 0.20705,-0.0186 0.29197,-0.0558 0.0864,-0.0387 0.16253,-0.0927 0.22841,-0.16123 l 0.24392,0.38189 c -0.0308,0.0432 -0.0711,0.087 -0.12093,0.13023 -0.0498,0.0417 -0.10834,0.0794 -0.1757,0.11369 -0.0674,0.0343 -0.14349,0.0618 -0.22841,0.0827 -0.0849,0.0223 -0.17802,0.0336 -0.27905,0.0336 -0.16252,0 -0.30661,-0.0253 -0.43253,-0.076 -0.12592,-0.0507 -0.23194,-0.12375 -0.31833,-0.21911 -0.0864,-0.0953 -0.15253,-0.21123 -0.19792,-0.34829 -0.0439,-0.13856 -0.0656,-0.296 -0.0656,-0.47181 v -0.19895 c 0,-0.19667 0.0211,-0.36875 0.0636,-0.51625 0.0439,-0.14899 0.10602,-0.27328 0.18655,-0.37311 0.082,-0.1013 0.18156,-0.17723 0.29869,-0.22789 0.1186,-0.0507 0.2527,-0.0765 0.40204,-0.0765 z m 2.26446,0 h 5.2e-4 c 0.0277,3e-5 0.0574,0.003 0.0894,0.009 0.0337,0.004 0.0606,0.0107 0.0811,0.0196 l -0.006,0.6258 c -0.0278,-0.003 -0.0624,-0.006 -0.10335,-0.0109 -0.0395,-0.004 -0.0741,-0.007 -0.10336,-0.007 -0.0893,0 -0.16191,0.0196 -0.21755,0.0584 -0.0556,0.0387 -0.0978,0.095 -0.12713,0.1695 v 1.59836 h -0.62373 v -2.41846 h 0.58652 l 0.0176,0.26148 c 0.0469,-0.0968 0.1037,-0.17219 0.17105,-0.22582 0.0687,-0.0535 0.1475,-0.0805 0.23513,-0.0806 z m 4.81624,0 c 0.12738,0 0.24332,0.0213 0.34727,0.0631 0.10542,0.0402 0.19447,0.10041 0.26768,0.18086 0.0747,0.079 0.13204,0.17686 0.17157,0.29456 0.041,0.1177 0.0621,0.25433 0.0636,0.40928 h -0.58446 c -10e-4,-0.13558 -0.0232,-0.23964 -0.0656,-0.31265 -0.0425,-0.073 -0.11274,-0.10955 -0.21084,-0.10955 -0.0688,0 -0.12385,0.0141 -0.16485,0.0424 -0.0395,0.0283 -0.07,0.0705 -0.092,0.12558 -0.0205,0.0536 -0.0345,0.12005 -0.0419,0.2005 -0.006,0.079 -0.009,0.17063 -0.009,0.27492 v 0.17415 c 0,0.10578 0.003,0.19963 0.009,0.28009 0.006,0.079 0.0188,0.1448 0.0393,0.19843 0.022,0.0536 0.0536,0.0936 0.0946,0.12041 0.041,0.0268 0.0966,0.0408 0.16692,0.0408 0.0864,0 0.15313,-0.027 0.19999,-0.0806 0.0483,-0.0551 0.0729,-0.14737 0.0744,-0.27699 h 0.58446 c -10e-4,0.13707 -0.0243,0.26027 -0.0682,0.37052 -0.0439,0.10876 -0.1037,0.20101 -0.17984,0.27699 -0.0747,0.076 -0.16364,0.13444 -0.26613,0.17467 -0.10249,0.0402 -0.21264,0.0605 -0.33124,0.0605 -0.15959,0 -0.29896,-0.0259 -0.41755,-0.078 -0.1186,-0.0522 -0.21755,-0.1275 -0.29662,-0.22583 -0.0776,-0.0998 -0.13616,-0.22187 -0.1757,-0.36639 -0.0381,-0.14452 -0.0568,-0.30979 -0.0568,-0.49454 v -0.17415 c 0,-0.18474 0.0188,-0.34899 0.0568,-0.49351 0.0395,-0.14601 0.0981,-0.26915 0.1757,-0.36897 0.0776,-0.0998 0.17595,-0.17575 0.29455,-0.22789 0.1186,-0.0521 0.25683,-0.0786 0.41496,-0.0786 z m 3.23081,0 c 0.30161,0 0.52771,0.099 0.67852,0.29714 0.15081,0.19815 0.22634,0.49222 0.22634,0.88108 v 0.28784 h -1.23662 c 0.004,0.0968 0.0167,0.17836 0.0372,0.24391 0.022,0.0656 0.0512,0.11842 0.0879,0.15865 0.0366,0.0402 0.0805,0.0695 0.13177,0.0873 0.0527,0.0179 0.1124,0.0269 0.17829,0.0269 0.10981,0 0.20705,-0.0186 0.29197,-0.0558 0.0864,-0.0387 0.16253,-0.0927 0.22841,-0.16123 l 0.24391,0.38189 c -0.0308,0.0432 -0.0711,0.087 -0.12092,0.13023 -0.0498,0.0417 -0.10834,0.0794 -0.1757,0.11369 -0.0674,0.0343 -0.14348,0.0618 -0.22841,0.0827 -0.0849,0.0223 -0.17802,0.0336 -0.27905,0.0336 -0.16252,0 -0.30662,-0.0253 -0.43253,-0.076 -0.12592,-0.0507 -0.23194,-0.12375 -0.31833,-0.21911 -0.0864,-0.0953 -0.15253,-0.21123 -0.19792,-0.34829 -0.0439,-0.13856 -0.0656,-0.296 -0.0656,-0.47181 v -0.19895 c 0,-0.19667 0.0211,-0.36875 0.0636,-0.51625 0.0439,-0.14899 0.10603,-0.27328 0.18655,-0.37311 0.082,-0.1013 0.18156,-0.17723 0.29869,-0.22789 0.1186,-0.0507 0.25269,-0.0765 0.40204,-0.0765 z m 2.39366,0 c 0.0922,0 0.17716,0.0168 0.25476,0.0496 0.0776,0.0313 0.14435,0.0831 0.19999,0.15606 0.0556,0.073 0.099,0.16859 0.12971,0.28629 0.0308,0.1177 0.046,0.26223 0.046,0.43356 v 1.5379 h -0.62373 v -1.54048 c 0,-0.0775 -0.006,-0.14106 -0.0176,-0.19172 -0.0117,-0.0507 -0.0293,-0.0911 -0.0527,-0.12092 -0.022,-0.0298 -0.0495,-0.0506 -0.0832,-0.0625 -0.0337,-0.0119 -0.0735,-0.0181 -0.11886,-0.0181 -0.0586,0 -0.10956,0.0162 -0.15348,0.0476 -0.0439,0.0313 -0.0808,0.0741 -0.11007,0.12919 v 1.757 h -0.62373 v -2.41846 h 0.58446 l 0.0176,0.23926 c 0.0688,-0.0924 0.14909,-0.16265 0.24133,-0.21032 0.0922,-0.0492 0.19533,-0.0739 0.30954,-0.0739 z m 1.94406,0 c 0.12738,0 0.2428,0.0213 0.34675,0.0631 0.10542,0.0402 0.19499,0.10041 0.2682,0.18086 0.0747,0.079 0.13152,0.17686 0.17105,0.29456 0.041,0.1177 0.0621,0.25433 0.0636,0.40928 h -0.58395 c -0.002,-0.13558 -0.0236,-0.23964 -0.0661,-0.31265 -0.0425,-0.073 -0.11274,-0.10955 -0.21084,-0.10955 -0.0688,0 -0.12334,0.0141 -0.16434,0.0424 -0.0395,0.0283 -0.0705,0.0705 -0.0925,0.12558 -0.0205,0.0536 -0.0344,0.12005 -0.0419,0.2005 -0.006,0.079 -0.009,0.17063 -0.009,0.27492 v 0.17415 c 0,0.10578 0.003,0.19963 0.009,0.28009 0.006,0.079 0.0193,0.1448 0.0398,0.19843 0.022,0.0536 0.0536,0.0936 0.0946,0.12041 0.041,0.0268 0.0966,0.0408 0.16692,0.0408 0.0864,0 0.15261,-0.027 0.19947,-0.0806 0.0483,-0.0551 0.0735,-0.14737 0.0749,-0.27699 h 0.58395 c -0.001,0.13707 -0.0238,0.26027 -0.0677,0.37052 -0.0439,0.10876 -0.10422,0.20101 -0.18035,0.27699 -0.0747,0.076 -0.16313,0.13444 -0.26562,0.17467 -0.10249,0.0402 -0.21316,0.0605 -0.33176,0.0605 -0.1596,0 -0.29843,-0.0259 -0.41703,-0.078 -0.1186,-0.0522 -0.21756,-0.1275 -0.29662,-0.22583 -0.0776,-0.0998 -0.13617,-0.22187 -0.1757,-0.36639 -0.0381,-0.14452 -0.0574,-0.30979 -0.0574,-0.49454 v -0.17415 c 0,-0.18474 0.0193,-0.34899 0.0574,-0.49351 0.0395,-0.14601 0.0981,-0.26915 0.1757,-0.36897 0.0776,-0.0998 0.17544,-0.17575 0.29404,-0.22789 0.11859,-0.0521 0.25735,-0.0786 0.41547,-0.0786 z m 2.09703,0 c 0.30161,0 0.52823,0.099 0.67903,0.29714 0.15081,0.19815 0.22583,0.49222 0.22583,0.88108 v 0.28784 h -1.2361 c 0.004,0.0968 0.0167,0.17836 0.0372,0.24391 0.022,0.0656 0.0512,0.11842 0.0879,0.15865 0.0366,0.0402 0.0805,0.0695 0.13177,0.0873 0.0527,0.0179 0.11188,0.0269 0.17777,0.0269 0.10981,0 0.20705,-0.0186 0.29197,-0.0558 0.0864,-0.0387 0.16253,-0.0927 0.22841,-0.16123 l 0.24391,0.38189 c -0.0308,0.0432 -0.0711,0.087 -0.12092,0.13023 -0.0498,0.0417 -0.10834,0.0794 -0.1757,0.11369 -0.0674,0.0343 -0.14348,0.0618 -0.22841,0.0827 -0.0849,0.0223 -0.17751,0.0336 -0.27854,0.0336 -0.16252,0 -0.30713,-0.0253 -0.43305,-0.076 -0.12592,-0.0507 -0.23193,-0.12375 -0.31832,-0.21911 -0.0864,-0.0953 -0.15202,-0.21123 -0.19741,-0.34829 -0.0439,-0.13856 -0.0661,-0.296 -0.0661,-0.47181 v -0.19895 c 0,-0.19667 0.0211,-0.36875 0.0636,-0.51625 0.0439,-0.14899 0.10654,-0.27328 0.18707,-0.37311 0.082,-0.1013 0.18155,-0.17723 0.29869,-0.22789 0.11859,-0.0507 0.25218,-0.0765 0.40152,-0.0765 z m -21.25296,0.045 h 0.62167 v 1.56889 c 0,0.1326 0.0211,0.22709 0.0636,0.28371 0.0425,0.0551 0.0981,0.0832 0.16691,0.0832 0.0761,0 0.13936,-0.0168 0.18914,-0.0496 0.0498,-0.0343 0.089,-0.0804 0.11834,-0.13849 v -1.7477 h 0.6258 v 2.41846 h -0.58395 l -0.0176,-0.2217 c -0.0615,0.0849 -0.1353,0.1507 -0.22169,0.19689 -0.0849,0.0462 -0.18388,0.0693 -0.29662,0.0693 -0.0996,0 -0.19033,-0.0163 -0.27233,-0.0491 -0.0805,-0.0343 -0.15021,-0.0876 -0.20878,-0.15916 -0.0586,-0.073 -0.1037,-0.16582 -0.13591,-0.27905 -0.0322,-0.11472 -0.0486,-0.25193 -0.0486,-0.41135 z m 12.8173,0 h 0.62374 v 2.41846 h -0.62374 z m -19.71559,0.48059 c -0.10542,0 -0.18802,0.0534 -0.24805,0.16071 -0.0586,0.10578 -0.0879,0.26939 -0.0879,0.4899 v 0.15813 c 0,0.22497 0.0299,0.39025 0.0899,0.49454 0.06,0.1028 0.14324,0.15399 0.25011,0.15399 0.11274,0 0.19767,-0.0512 0.25477,-0.15399 0.0571,-0.10429 0.0858,-0.26957 0.0858,-0.49454 v -0.15813 c 0,-0.22051 -0.0299,-0.38412 -0.0899,-0.4899 -0.06,-0.10727 -0.14496,-0.16071 -0.25477,-0.16071 z m 11.40086,0 c -0.10835,0 -0.18742,0.0394 -0.2372,0.11834 -0.0483,0.079 -0.077,0.20602 -0.0858,0.38034 h 0.62167 v -0.0584 c -0.003,-0.14451 -0.0264,-0.25417 -0.0703,-0.32866 -0.0439,-0.0745 -0.12006,-0.11162 -0.22841,-0.11162 z m 10.31099,0 c -0.10835,0 -0.18741,0.0394 -0.23719,0.11834 -0.0483,0.079 -0.0765,0.20602 -0.0853,0.38034 h 0.62115 v -0.0584 c -0.003,-0.14451 -0.0264,-0.25417 -0.0703,-0.32866 -0.0439,-0.0745 -0.12006,-0.11162 -0.22841,-0.11162 z m 6.43527,0 c -0.10835,0 -0.18741,0.0394 -0.23719,0.11834 -0.0483,0.079 -0.077,0.20602 -0.0858,0.38034 h 0.62167 v -0.0584 c -0.003,-0.14451 -0.0264,-0.25417 -0.0703,-0.32866 -0.0439,-0.0745 -0.12006,-0.11162 -0.22841,-0.11162 z m -22.55986,0.004 c -0.0659,0 -0.12214,0.0146 -0.16899,0.0429 -0.0454,0.0283 -0.0822,0.0688 -0.11007,0.12093 v 1.13223 c 0.0263,0.0492 0.0621,0.088 0.10749,0.11627 0.0469,0.0268 0.10542,0.0408 0.1757,0.0408 0.12299,0 0.20791,-0.0534 0.25477,-0.15916 0.0483,-0.10578 0.0729,-0.27003 0.0729,-0.49351 v -0.15865 c 0,-0.11472 -0.006,-0.21255 -0.0176,-0.293 -0.0117,-0.0819 -0.031,-0.1483 -0.0574,-0.19896 -0.0264,-0.0521 -0.0609,-0.0904 -0.10335,-0.1142 -0.041,-0.0238 -0.092,-0.0357 -0.15348,-0.0357 z" /></g></g></svg>
