<?xml version="1.0" encoding="UTF-8" standalone="no"?>
<svg
   viewBox="0 0 1152.714 1152.4399"
   version="1.1"
   x="0px"
   y="0px"
   id="svg2"
   sodipodi:docname="noun-search-600745.svg"
   width="1152.714"
   height="1152.4399"
   inkscape:version="1.3.1 (91b66b0783, 2023-11-16)"
   xmlns:inkscape="http://www.inkscape.org/namespaces/inkscape"
   xmlns:sodipodi="http://sodipodi.sourceforge.net/DTD/sodipodi-0.dtd"
   xmlns="http://www.w3.org/2000/svg"
   xmlns:svg="http://www.w3.org/2000/svg">
  <defs
     id="defs2" />
  <sodipodi:namedview
     id="namedview2"
     pagecolor="#ffffff"
     bordercolor="#000000"
     borderopacity="0.25"
     inkscape:showpageshadow="2"
     inkscape:pageopacity="0.0"
     inkscape:pagecheckerboard="0"
     inkscape:deskcolor="#d1d1d1"
     inkscape:zoom="0.27708984"
     inkscape:cx="34.28491"
     inkscape:cy="-146.16198"
     inkscape:window-width="2560"
     inkscape:window-height="1346"
     inkscape:window-x="-11"
     inkscape:window-y="-11"
     inkscape:window-maximized="1"
     inkscape:current-layer="svg2" />
  <g
     transform="translate(-8047.5905,16608.82)"
     id="g1"
     style="fill:#ffffff">
    <path
       d="m 8570.7848,-15458.123 c -109.2119,-10.84 -207.5312,-48.914 -293.7072,-113.738 -130.5934,-98.235 -211.7055,-244.065 -227.5093,-409.033 -3.7012,-38.636 -2.0901,-95.627 3.8495,-136.161 28.5775,-195.028 157.0086,-363.429 338.0348,-443.236 45.5207,-20.069 99.2333,-35.579 147.9127,-42.712 52.931,-7.756 116.2436,-7.756 169.1746,0 195.0277,28.578 363.4284,157.009 443.236,338.035 20.0684,45.521 35.5785,99.233 42.7115,147.913 7.7561,52.931 7.7561,116.243 0,169.174 -21.9711,149.943 -103.9846,287.033 -226.1128,377.961 -85.7805,63.867 -184.1151,101.42 -292.848,111.836 -23.8926,2.289 -81.506,2.268 -104.7418,-0.04 z m 287.2325,-339.302 30.9397,-30.654 -57.8088,-57.818 c -50.9653,-50.975 -57.6286,-58.078 -56.2862,-60.008 59.1531,-85.016 57.3399,-198.835 -4.4853,-281.547 -8.787,-11.756 -28.0063,-31.785 -39.6806,-41.352 -21.7241,-17.804 -50.4389,-33.492 -77.4369,-42.309 -77.337,-25.255 -163.2219,-9.18 -226.0501,42.309 -11.6743,9.567 -30.8936,29.596 -39.6806,41.352 -53.0397,70.958 -62.702,166.681 -24.8279,245.967 12.0886,25.307 24.5381,43.306 43.737,63.233 21.0998,21.901 40.1058,35.826 66.89,49.01 67.3806,33.165 143.8612,33.084 211.7626,-0.225 l 16.7626,-8.222 58.8281,58.828 58.8281,58.828 3.7843,-3.369 c 2.0814,-1.853 17.7072,-17.163 34.724,-34.023 z m -305.1451,-137.05 c -45.7964,-7.677 -87.7706,-38.466 -109.3177,-80.185 -43.0908,-83.431 -1.6839,-185.362 87.4269,-215.217 30.0038,-10.052 65.9386,-10.052 95.9424,0 89.1108,29.855 130.5177,131.786 87.4269,215.217 -30.2331,58.537 -95.9502,91.17 -161.4785,80.185 z"
       fill="#000000"
       id="path1"
       style="fill:#ffffff" />
  </g>
</svg>
