<?xml version="1.0" encoding="UTF-8" standalone="no"?>
<!-- Created with Inkscape (http://www.inkscape.org/) -->

<svg
   width="120mm"
   height="100mm"
   viewBox="0 0 120 100"
   version="1.1"
   id="svg1"
   inkscape:version="1.3.2 (091e20e, 2023-11-25, custom)"
   sodipodi:docname="eco-runner.svg"
   xmlns:inkscape="http://www.inkscape.org/namespaces/inkscape"
   xmlns:sodipodi="http://sodipodi.sourceforge.net/DTD/sodipodi-0.dtd"
   xmlns="http://www.w3.org/2000/svg"
   xmlns:svg="http://www.w3.org/2000/svg">
  <sodipodi:namedview
     id="namedview1"
     pagecolor="#ffffff"
     bordercolor="#000000"
     borderopacity="0.25"
     inkscape:showpageshadow="2"
     inkscape:pageopacity="0.0"
     inkscape:pagecheckerboard="0"
     inkscape:deskcolor="#d1d1d1"
     inkscape:document-units="mm"
     inkscape:zoom="0.70110129"
     inkscape:cx="208.2438"
     inkscape:cy="110.54038"
     inkscape:window-width="1920"
     inkscape:window-height="1001"
     inkscape:window-x="-9"
     inkscape:window-y="-9"
     inkscape:window-maximized="1"
     inkscape:current-layer="layer1" />
  <defs
     id="defs1">
    <clipPath
       clipPathUnits="userSpaceOnUse"
       id="clipPath6">
      <path
         d="M 211.607,36.515 H 428.503 V 303.726 H 211.607 Z"
         transform="translate(-258.0358,-74.527904)"
         id="path6" />
    </clipPath>
    <clipPath
       clipPathUnits="userSpaceOnUse"
       id="clipPath8">
      <path
         d="M 211.607,36.515 H 428.503 V 303.726 H 211.607 Z"
         transform="translate(-275.94961,-74.393302)"
         id="path8" />
    </clipPath>
    <clipPath
       clipPathUnits="userSpaceOnUse"
       id="clipPath10">
      <path
         d="M 211.607,36.515 H 428.503 V 303.726 H 211.607 Z"
         id="path10" />
    </clipPath>
    <clipPath
       clipPathUnits="userSpaceOnUse"
       id="clipPath12">
      <path
         d="M 211.607,36.515 H 428.503 V 303.726 H 211.607 Z"
         transform="translate(-306.14061,-73.495102)"
         id="path12" />
    </clipPath>
    <clipPath
       clipPathUnits="userSpaceOnUse"
       id="clipPath14">
      <path
         d="M 211.607,36.515 H 428.503 V 303.726 H 211.607 Z"
         transform="translate(-327.53351,-66.308204)"
         id="path14" />
    </clipPath>
    <clipPath
       clipPathUnits="userSpaceOnUse"
       id="clipPath16">
      <path
         d="M 211.607,36.515 H 428.503 V 303.726 H 211.607 Z"
         transform="translate(-340.52201,-80.2323)"
         id="path16" />
    </clipPath>
    <clipPath
       clipPathUnits="userSpaceOnUse"
       id="clipPath18">
      <path
         d="M 211.607,36.515 H 428.503 V 303.726 H 211.607 Z"
         transform="translate(-359.34521,-80.2323)"
         id="path18" />
    </clipPath>
    <clipPath
       clipPathUnits="userSpaceOnUse"
       id="clipPath20">
      <path
         d="M 211.607,36.515 H 428.503 V 303.726 H 211.607 Z"
         transform="translate(-387.93901,-67.453799)"
         id="path20" />
    </clipPath>
    <clipPath
       clipPathUnits="userSpaceOnUse"
       id="clipPath22">
      <path
         d="M 211.607,36.515 H 428.503 V 303.726 H 211.607 Z"
         transform="translate(-393.26391,-73.495102)"
         id="path22" />
    </clipPath>
    <clipPath
       clipPathUnits="userSpaceOnUse"
       id="clipPath24">
      <path
         d="M 211.607,36.515 H 428.503 V 303.726 H 211.607 Z"
         transform="translate(-281.81781,-45.482804)"
         id="path24" />
    </clipPath>
    <clipPath
       clipPathUnits="userSpaceOnUse"
       id="clipPath26">
      <path
         d="M 211.607,36.515 H 428.503 V 303.726 H 211.607 Z"
         transform="translate(-291.5824,-37.136203)"
         id="path26" />
    </clipPath>
    <clipPath
       clipPathUnits="userSpaceOnUse"
       id="clipPath28">
      <path
         d="M 211.607,36.515 H 428.503 V 303.726 H 211.607 Z"
         transform="translate(-300.73711,-40.242501)"
         id="path28" />
    </clipPath>
    <clipPath
       clipPathUnits="userSpaceOnUse"
       id="clipPath30">
      <path
         d="M 211.607,36.515 H 428.503 V 303.726 H 211.607 Z"
         transform="translate(-315.04161,-36.514798)"
         id="path30" />
    </clipPath>
    <clipPath
       clipPathUnits="userSpaceOnUse"
       id="clipPath32">
      <path
         d="M 211.607,36.515 H 428.503 V 303.726 H 211.607 Z"
         transform="translate(-332.54461,-41.322801)"
         id="path32" />
    </clipPath>
    <clipPath
       clipPathUnits="userSpaceOnUse"
       id="clipPath34">
      <path
         d="M 211.607,36.515 H 428.503 V 303.726 H 211.607 Z"
         transform="translate(-343.40351,-37.136203)"
         id="path34" />
    </clipPath>
    <clipPath
       clipPathUnits="userSpaceOnUse"
       id="clipPath36">
      <path
         d="M 211.607,36.515 H 428.503 V 303.726 H 211.607 Z"
         transform="translate(-347.17141,-36.514798)"
         id="path36" />
    </clipPath>
    <clipPath
       clipPathUnits="userSpaceOnUse"
       id="clipPath38">
      <path
         d="M 211.607,36.515 H 428.503 V 303.726 H 211.607 Z"
         transform="translate(-356.90901,-36.514798)"
         id="path38" />
    </clipPath>
    <clipPath
       clipPathUnits="userSpaceOnUse"
       id="clipPath40">
      <path
         d="M 211.607,36.515 H 428.503 V 303.726 H 211.607 Z"
         transform="translate(-373.52121,-45.482804)"
         id="path40" />
    </clipPath>
  </defs>
  <g
     inkscape:label="Layer 1"
     inkscape:groupmode="layer"
     id="layer1"
     transform="translate(-49.814487,-118.87547)">
    <rect
       style="fill:#000000;stroke-width:0.502659"
       id="rect1"
       width="120"
       height="100"
       x="49.814487"
       y="118.87547" />
    <g
       id="g1"
       transform="translate(-56.119273,7.650018)">
      <path
         id="path2"
         d="m 200.3437,150.77703 h 2.8635 M 132.86649,150.468 h -4.20617 m 68.81953,0.5408 1.34232,-0.23177 m -2.59539,0.46355 1.25307,-0.23178 m -2.32657,0.54081 1.0735,-0.30903 m -1.96885,0.61807 0.89535,-0.30904 m -1.70074,0.69533 0.80539,-0.38629 m -1.43157,0.84984 0.62618,-0.46355 m -1.07386,0.9271 0.44768,-0.46355 m -0.80575,1.00436 0.35807,-0.54081 m -1.0742,2.47191 0.71613,-1.9311 m -1.61078,3.7853 0.89465,-1.8542 m -1.8789,3.55353 0.98425,-1.69933 m -2.0581,3.32176 1.07385,-1.62243 m -2.23732,3.16759 1.16347,-1.54516 m -2.41618,2.93581 1.25271,-1.39065 m -2.59538,2.62679 1.34267,-1.23614 m -2.7746,2.39466 1.43193,-1.15852 m -2.9531,2.24014 1.52117,-1.08162 m -3.13231,2.00872 1.61114,-0.9271 m -3.31118,1.77694 1.70004,-0.84984 m -3.49003,1.62242 1.78999,-0.77258 m -3.66924,1.39065 1.87925,-0.61807 m -3.8481,1.08126 1.96885,-0.46319 m -4.02696,0.84984 2.05811,-0.38665 m -4.20617,0.69498 2.14806,-0.30833 m 28.10016,-20.4724 h 1.61114 m -3.04271,-0.0773 1.43157,0.0773 m -2.86385,-0.23177 1.43228,0.15451 m -2.7746,-0.38629 1.34232,0.23178 m -2.59503,-0.54081 1.25271,0.30903 m -2.50578,-0.61807 1.25307,0.30904 m -2.32657,-0.69533 1.0735,0.38629 m -2.14771,-0.84984 1.07421,0.46355 m -2.14806,-1.004 1.07385,0.54045 m -1.96885,-1.08126 0.895,0.54081 m -1.79,-1.15888 0.895,0.61807 m -1.70004,-1.31339 0.80504,0.69532 m -1.52117,-1.46791 0.71613,0.77259 m -1.34267,-1.62243 0.62654,0.84984 m -1.25272,-1.69968 0.62618,0.84984 m -1.16311,-1.77694 0.53693,0.9271 m -0.9846,-1.93111 0.44767,1.00401 m -0.80574,-2.08562 0.35807,1.08161 m -0.71614,-2.24049 0.35807,1.15888 m -0.62653,-2.31775 0.26846,1.15887 m -0.44732,-2.39501 0.17886,1.23614 m -0.26811,-2.54917 0.0892,1.31303 m -0.17921,-2.70368 0.09,1.39065 m -0.09,-2.7813 v 1.39065 m 0.09,-2.85856 -0.09,1.46791 m 0.26846,-3.01273 -0.1785,1.54482 m 0.35771,-3.16724 -0.17921,1.62242 m 0.53728,-3.32175 -0.35807,1.69933 m 0.71579,-3.39901 -0.35772,1.69968 m 0.71579,-3.47663 -0.35807,1.77695 m 0.89535,-3.63079 -0.53728,1.85384 m 1.07385,-3.7853 -0.53657,1.93146 m -20.58317,11.89672 0.80504,-2.39465 m -1.78965,4.55788 0.98461,-2.16323 m -2.14771,4.1716 1.1631,-2.00837 m -2.41617,3.93983 1.25307,-1.93146 m -2.685,3.63114 1.43193,-1.69968 m -3.04306,3.3221 1.61113,-1.62242 m -3.31117,3.01272 1.70004,-1.3903 m -3.57964,2.70369 1.8796,-1.31339 m -3.9377,2.47227 2.0581,-1.15888 m -4.20617,2.08598 2.14807,-0.9271 m -4.47464,1.77694 2.32657,-0.84984 m -4.83235,1.54481 2.50578,-0.69497 m -5.19042,1.23578 2.68464,-0.54081 m -5.45888,0.9271 2.77424,-0.38629 m -5.7277,0.54081 2.95346,-0.15452 m -5.99616,0.23178 3.0427,-0.0773 m 12.79737,30.59218 -0.62618,2.00836 m 1.16311,-3.93982 -0.53693,1.93146 m 0.9846,-3.78531 -0.44767,1.85385 m 0.80539,-3.70805 -0.35772,1.8542 m 0.71579,-3.55388 -0.35807,1.69968 m 0.62653,-3.39936 -0.26846,1.69968 m 0.44767,-3.3214 -0.17921,1.62172 m 0.26847,-3.16689 -0.0893,1.54517 m 0.0893,-3.01308 v 1.46791 m 0,-2.93581 v 1.4679 m -0.0893,-2.78094 0.0893,1.31304 m -0.26847,-2.62643 0.17921,1.31339 m -0.35806,-2.54953 0.17885,1.23614 m -0.53692,-2.39501 0.35807,1.15887 m -0.71614,-2.31739 0.35807,1.15852 m -0.8054,-2.16288 0.44733,1.00436 m -0.98425,-2.00872 0.53692,1.00436 m -1.07385,-1.93146 0.53693,0.9271 m -1.16346,-1.77694 0.62653,0.84984 m -1.34232,-1.62243 0.71579,0.77259 m -1.52118,-1.54517 0.80539,0.77258 m -1.70039,-1.39029 0.895,0.61771 m -1.79,-1.23578 0.895,0.61807 m -1.87925,-1.15888 0.98425,0.54081 m -2.05845,-1.00436 1.0742,0.46355 m -2.23731,-0.9271 1.16311,0.46355 m -2.32657,-0.77258 1.16346,0.30903 m -2.50614,-0.61807 1.34268,0.30904 m -2.685,-0.54081 1.34232,0.23177 m -2.68464,-0.38629 1.34232,0.15452 m -2.86385,-0.23177 1.52153,0.0772 m -3.0427,-0.15451 1.52117,0.0773 m 50.11561,-30.82396 -16.01893,51.83646 m -4.29577,-40.40293 -16.10819,51.83645 m 48.82233,-32.21425 h 2.57739 M 136.17343,150.468 h -3.78566 m 61.93719,0.5408 1.20826,-0.23177 m -2.33574,0.46355 1.12748,-0.23178 m -2.09374,0.54081 0.96626,-0.30903 m -1.772,0.61807 0.80574,-0.30904 m -1.5307,0.69533 0.72496,-0.38629 m -1.28835,0.84984 0.56339,-0.46355 m -0.96626,0.9271 0.40287,-0.46355 m -0.72495,1.00436 0.32208,-0.54081 m -0.96626,2.47191 0.64418,-1.9311 m -1.44992,3.7853 0.80574,-1.8542 m -1.69192,3.55353 0.88618,-1.69933 m -1.85244,3.32176 0.96626,-1.62243 m -2.0133,3.16759 1.04704,-1.54516 m -2.17452,2.93581 1.12748,-1.39065 m -2.33574,2.62679 1.20826,-1.23614 m -2.49696,2.39466 1.2887,-1.15852 m -2.65783,2.24014 1.36913,-1.08162 m -2.81869,2.00872 1.44956,-0.9271 m -2.98027,1.77694 1.53071,-0.84984 m -3.14149,1.62242 1.61078,-0.77258 m -3.302,1.39065 1.69122,-0.61807 m -3.46322,1.08126 1.772,-0.46319 m -3.62444,0.84984 1.85244,-0.38665 m -3.78566,0.69498 1.93322,-0.30833 m 25.29029,-20.4724 h 1.44992 m -2.73862,-0.0773 1.2887,0.0773 m -2.57775,-0.23177 1.28905,0.15451 m -2.49696,-0.38629 1.20791,0.23178 m -2.33539,-0.54081 1.12748,0.30903 m -2.25495,-0.61807 1.12747,0.30904 m -2.09409,-0.69533 0.96662,0.38629 m -1.93323,-0.84984 0.96661,0.46355 m -1.93286,-1.004 0.96625,0.54045 m -1.772,-1.08126 0.80575,0.54081 m -1.61079,-1.15888 0.80504,0.61807 m -1.53,-1.31339 0.72496,0.69532 m -1.36948,-1.46791 0.64452,0.77259 m -1.20826,-1.62243 0.56374,0.84984 m -1.12748,-1.69968 0.56374,0.84984 m -1.04704,-1.77694 0.4833,0.9271 m -0.88618,-1.93111 0.40288,1.00401 m -0.72496,-2.08562 0.32208,1.08161 m -0.64452,-2.24049 0.32244,1.15888 m -0.56409,-2.31775 0.24165,1.15887 m -0.40252,-2.39501 0.16087,1.23614 m -0.2413,-2.54917 0.0804,1.31303 m -0.16087,-2.70368 0.0804,1.39065 m -0.0804,-2.7813 v 1.39065 m 0.0804,-2.85856 -0.0804,1.46791 m 0.24165,-3.01273 -0.16121,1.54482 m 0.32208,-3.16724 -0.16087,1.62242 m 0.48331,-3.32175 -0.32244,1.69933 m 0.64417,-3.39901 -0.32173,1.69968 m 0.64417,-3.47663 -0.32244,1.77695 m 0.80575,-3.63079 -0.48331,1.85384 m 0.96661,-3.7853 -0.4833,1.93146 m -18.52507,11.89672 0.72496,-2.39465 m -1.61078,4.55788 0.88582,-2.16323 m -1.93287,4.1716 1.04705,-2.00837 m -2.17452,3.93983 1.12747,-1.93146 m -2.41617,3.63114 1.2887,-1.69968 m -2.73862,3.3221 1.44992,-1.62242 m -2.98027,3.01272 1.53035,-1.3903 m -3.22156,2.70369 1.69121,-1.31339 m -3.54365,2.47227 1.85244,-1.15888 m -3.78566,2.08598 1.93322,-0.9271 m -4.02731,1.77694 2.09409,-0.84984 m -4.3494,1.54481 2.25531,-0.69497 m -4.67148,1.23578 2.41617,-0.54081 m -4.91278,0.9271 2.49661,-0.38629 m -5.15479,0.54081 2.65818,-0.15452 m -5.39644,0.23178 2.73826,-0.0773 m 11.51748,30.59218 -0.56373,2.00836 m 1.04704,-3.93982 -0.48331,1.93146 m 0.88618,-3.78531 -0.40287,1.85385 m 0.72496,-3.70805 -0.32209,1.8542 m 0.64417,-3.55388 -0.32208,1.69968 m 0.56374,-3.39936 -0.24166,1.69968 m 0.40288,-3.3214 -0.16122,1.62172 m 0.24165,-3.16689 -0.0804,1.54517 m 0.0804,-3.01308 v 1.46791 m 0,-2.93581 v 1.4679 m -0.0804,-2.78094 0.0804,1.31304 m -0.24165,-2.62643 0.16122,1.31339 m -0.32209,-2.54953 0.16087,1.23614 m -0.48296,-2.39501 0.32209,1.15887 m -0.64452,-2.31739 0.32243,1.15852 m -0.72495,-2.16288 0.40252,1.00436 m -0.88583,-2.00872 0.48331,1.00436 m -0.96661,-1.93146 0.4833,0.9271 m -1.04704,-1.77694 0.56374,0.84984 m -1.20827,-1.62243 0.64453,0.77259 m -1.36913,-1.54517 0.7246,0.77258 m -1.53,-1.39029 0.8054,0.61771 m -1.61114,-1.23578 0.80574,0.61807 m -1.69157,-1.15888 0.88583,0.54081 m -1.85244,-1.00436 0.96661,0.46355 m -2.01365,-0.9271 1.04704,0.46355 m -2.09408,-0.77258 1.04704,0.30903 m -2.25531,-0.61807 1.20827,0.30904 m -2.41618,-0.54081 1.20791,0.23177 m -2.41617,-0.38629 1.20826,0.15452 m -2.57739,-0.23177 1.36913,0.0772 m -2.73826,-0.15451 1.36913,0.0773 m 45.10404,-30.82396 -14.41732,51.83646 m -3.86609,-40.40293 -14.49775,51.83645 m 43.94023,-32.21425 h 2.31951 M 139.14946,150.468 h -3.40713 m 55.74383,0.5408 1.08726,-0.23177 m -2.10221,0.46355 1.01495,-0.23178 m -1.8849,0.54081 0.86995,-0.30903 m -1.59455,0.61807 0.7246,-0.30904 m -1.37724,0.69533 0.65264,-0.38629 m -1.15993,0.84984 0.50729,-0.46355 m -0.86995,0.9271 0.36266,-0.46355 m -0.65264,1.00436 0.28998,-0.54081 m -0.8696,2.47191 0.57962,-1.9311 m -1.30458,3.7853 0.72496,-1.8542 m -1.52259,3.55353 0.79763,-1.69933 m -1.66722,3.32176 0.86959,-1.62243 m -1.81222,3.16759 0.94263,-1.54516 m -1.95721,2.93581 1.01458,-1.39065 m -2.1022,2.62679 1.08762,-1.23614 m -2.2472,2.39466 1.15958,-1.15852 m -2.39183,2.24014 1.23225,-1.08162 m -2.53718,2.00872 1.30493,-0.9271 m -2.68217,1.77694 1.37724,-0.84984 m -2.82716,1.62242 1.44992,-0.77258 m -2.97215,1.39065 1.52223,-0.61807 m -3.11679,1.08126 1.59456,-0.46319 m -3.26179,0.84984 1.66723,-0.38665 m -3.40677,0.69498 1.73954,-0.30833 m 22.76158,-20.4724 h 1.30457 m -2.46451,-0.0773 1.15994,0.0773 m -2.31987,-0.23177 1.15993,0.15451 m -2.24719,-0.38629 1.08726,0.23178 m -2.1022,-0.54081 1.01494,0.30903 m -2.02988,-0.61807 1.01494,0.30904 m -1.88454,-0.69533 0.8696,0.38629 m -1.73955,-0.84984 0.86995,0.46355 m -1.7399,-1.004 0.86995,0.54045 m -1.59491,-1.08126 0.72496,0.54081 m -1.44992,-1.15888 0.72496,0.61807 m -1.37724,-1.31339 0.65228,0.69532 m -1.23225,-1.46791 0.57997,0.77259 m -1.08726,-1.62243 0.50729,0.84984 m -1.01494,-1.69968 0.50765,0.84984 m -0.94227,-1.77694 0.43462,0.9271 m -0.79728,-1.93111 0.36266,1.00401 m -0.65264,-2.08562 0.28998,1.08161 m -0.57997,-2.24049 0.28999,1.15888 m -0.5073,-2.31775 0.21731,1.15887 m -0.3623,-2.39501 0.14499,1.23614 m -0.21766,-2.54917 0.0727,1.31303 m -0.14499,-2.70368 0.0723,1.39065 m -0.0723,-2.7813 v 1.39065 m 0.0723,-2.85856 -0.0723,1.46791 m 0.21731,-3.01273 -0.14499,1.54482 m 0.28998,-3.16724 -0.14499,1.62242 m 0.43498,-3.32175 -0.28999,1.69933 m 0.57997,-3.39901 -0.28998,1.69968 m 0.57996,-3.47663 -0.28998,1.77695 m 0.72496,-3.63079 -0.43498,1.85384 m 0.86995,-3.7853 -0.43497,1.93146 m -16.67193,11.89672 0.65229,-2.39465 m -1.44992,4.55788 0.79763,-2.16323 m -1.7399,4.1716 0.94227,-2.00837 m -1.95721,3.93983 1.01494,-1.93146 m -2.17452,3.63114 1.15958,-1.69968 m -2.4645,3.3221 1.30492,-1.62242 m -2.68217,3.01272 1.37725,-1.3903 m -2.89948,2.70369 1.52223,-1.31339 m -3.18946,2.47227 1.66723,-1.15888 m -3.40713,2.08598 1.7399,-0.9271 m -3.62479,1.77694 1.88489,-0.84984 m -3.91442,1.54481 2.02953,-0.69497 m -4.20406,1.23578 2.17453,-0.54081 m -4.42172,0.9271 2.24719,-0.38629 m -4.63938,0.54081 2.39219,-0.15452 m -4.85669,0.23178 2.4645,-0.0773 m 10.36603,30.59218 -0.50765,2.00836 m 0.94227,-3.93982 -0.43462,1.93146 m 0.79727,-3.78531 -0.36265,1.85385 m 0.65264,-3.70805 -0.28999,1.8542 m 0.57997,-3.55388 -0.28998,1.69968 m 0.50729,-3.39936 -0.21731,1.69968 m 0.3623,-3.3214 -0.14499,1.62172 m 0.21767,-3.16689 -0.0727,1.54517 m 0.0727,-3.01308 v 1.46791 m 0,-2.93581 v 1.4679 m -0.0727,-2.78094 0.0727,1.31304 m -0.21767,-2.62643 0.14499,1.31339 m -0.28998,-2.54953 0.14499,1.23614 m -0.43497,-2.39501 0.28998,1.15887 m -0.57997,-2.31739 0.28999,1.15852 m -0.65229,-2.16288 0.3623,1.00436 m -0.79727,-2.00872 0.43497,1.00436 m -0.86995,-1.93146 0.43498,0.9271 m -0.94227,-1.77694 0.50729,0.84984 m -1.08726,-1.62243 0.57997,0.77259 m -1.23226,-1.54517 0.65229,0.77258 m -1.37725,-1.39029 0.72496,0.61771 m -1.44991,-1.23578 0.72495,0.61807 m -1.52223,-1.15888 0.79728,0.54081 m -1.66723,-1.00436 0.86995,0.46355 m -1.81222,-0.9271 0.94227,0.46355 m -1.88454,-0.77258 0.94227,0.30903 m -2.02988,-0.61807 1.08761,0.30904 m -2.17487,-0.54081 1.08726,0.23177 m -2.17453,-0.38629 1.08727,0.15452 m -2.31952,-0.23177 1.23225,0.0772 m -2.4645,-0.15451 1.23225,0.0773 m 40.59343,-30.82396 -12.97516,51.83646 m -3.47945,-40.40293 -13.04819,51.83645 m 39.54603,-32.21425 h 2.08774 M 141.82775,150.468 h -3.06635 m 50.16959,0.5408 0.97825,-0.23177 m -1.89159,0.46355 0.91334,-0.23178 m -1.69616,0.54081 0.78282,-0.30903 m -1.43546,0.61807 0.65264,-0.30904 m -1.24001,0.69533 0.58737,-0.38629 m -1.04387,0.84984 0.4565,-0.46355 m -0.78282,0.9271 0.32632,-0.46355 m -0.58702,1.00436 0.2607,-0.54081 m -0.78246,2.47191 0.52176,-1.9311 m -1.1744,3.7853 0.65264,-1.8542 m -1.37019,3.55353 0.71755,-1.69933 m -1.50036,3.32176 0.78281,-1.62243 m -1.63124,3.16759 0.84843,-1.54516 m -1.76142,2.93581 0.91299,-1.39065 m -1.89195,2.62679 0.97896,-1.23614 m -2.02283,2.39466 1.04387,-1.15852 m -2.15265,2.24014 1.10878,-1.08162 m -2.28317,2.00872 1.17439,-0.9271 m -2.41406,1.77694 1.23967,-0.84984 m -2.54424,1.62242 1.30457,-0.77258 m -2.67476,1.39065 1.37019,-0.61807 m -2.80564,1.08126 1.43545,-0.46319 m -2.93581,0.84984 1.50036,-0.38665 m -3.06634,0.69498 1.56598,-0.30833 m 20.48545,-20.4724 h 1.17404 m -2.21826,-0.0773 1.04422,0.0773 m -2.08809,-0.23177 1.04387,0.15451 m -2.02213,-0.38629 0.97826,0.23178 m -1.8916,-0.54081 0.91334,0.30903 m -1.82668,-0.61807 0.91334,0.30904 m -1.69615,-0.69533 0.78281,0.38629 m -1.56598,-0.84984 0.78317,0.46355 m -1.56598,-1.004 0.78281,0.54045 m -1.4351,-1.08126 0.65229,0.54081 m -1.30458,-1.15888 0.65229,0.61807 m -1.23931,-1.31339 0.58702,0.69532 m -1.10913,-1.46791 0.52211,0.77259 m -0.97896,-1.62243 0.45685,0.84984 m -0.91369,-1.69968 0.45684,0.84984 m -0.84807,-1.77694 0.39123,0.9271 m -0.7172,-1.93111 0.32597,1.00401 m -0.58703,-2.08562 0.26106,1.08161 m -0.52211,-2.24049 0.26105,1.15888 m -0.45684,-2.31775 0.19579,1.15887 m -0.32597,-2.39501 0.13018,1.23614 m -0.19579,-2.54917 0.0656,1.31303 m -0.13088,-2.70368 0.0653,1.39065 m -0.0653,-2.7813 v 1.39065 m 0.0653,-2.85856 -0.0653,1.46791 m 0.19579,-3.01273 -0.13052,1.54482 m 0.26105,-3.16724 -0.13053,1.62242 m 0.39194,-3.32175 -0.26141,1.69933 m 0.52211,-3.39901 -0.2607,1.69968 m 0.5214,-3.47663 -0.2607,1.77695 m 0.65229,-3.63079 -0.39159,1.85384 m 0.78282,-3.7853 -0.39123,1.93146 m -15.00505,11.89672 0.58702,-2.39465 m -1.30457,4.55788 0.71755,-2.16323 m -1.56563,4.1716 0.84808,-2.00837 m -1.76177,3.93983 0.91369,-1.93146 m -1.95721,3.63114 1.04352,-1.69968 m -2.21827,3.3221 1.17475,-1.62242 m -2.41406,3.01272 1.23931,-1.3903 m -2.6095,2.70369 1.37019,-1.31339 m -2.87055,2.47227 1.50036,-1.15888 m -3.06599,2.08598 1.56563,-0.9271 m -3.26214,1.77694 1.69651,-0.84984 m -3.52319,1.54481 1.82668,-0.69497 m -3.78389,1.23578 1.95721,-0.54081 m -3.97933,0.9271 2.02212,-0.38629 m -4.17513,0.54081 2.15301,-0.15452 m -4.37127,0.23178 2.21826,-0.0773 m 9.32921,30.59218 -0.45649,2.00836 m 0.84772,-3.93982 -0.39123,1.93146 m 0.71755,-3.78531 -0.32632,1.85385 m 0.58738,-3.70805 -0.26106,1.8542 m 0.52211,-3.55388 -0.26105,1.69968 m 0.45649,-3.39936 -0.19544,1.69968 m 0.32597,-3.3214 -0.13053,1.62172 m 0.19579,-3.16689 -0.0653,1.54517 m 0.0653,-3.01308 v 1.46791 m 0,-2.93581 v 1.4679 m -0.0653,-2.78094 0.0653,1.31304 m -0.19579,-2.62643 0.13053,1.31339 m -0.2607,-2.54953 0.13017,1.23614 m -0.39123,-2.39501 0.26106,1.15887 m -0.52211,-2.31739 0.26105,1.15852 m -0.58737,-2.16288 0.32632,1.00436 m -0.71755,-2.00872 0.39123,1.00436 m -0.78282,-1.93146 0.39159,0.9271 m -0.84808,-1.77694 0.45649,0.84984 m -0.9786,-1.62243 0.52211,0.77259 m -1.10914,-1.54517 0.58703,0.77258 m -1.23931,-1.39029 0.65228,0.61771 m -1.30492,-1.23578 0.65264,0.61807 m -1.37019,-1.15888 0.71755,0.54081 m -1.50036,-1.00436 0.78281,0.46355 m -1.63089,-0.9271 0.84808,0.46355 m -1.69616,-0.77258 0.84808,0.30903 m -1.82669,-0.61807 0.97861,0.30904 m -1.95721,-0.54081 0.9786,0.23177 m -1.95721,-0.38629 0.97861,0.15452 m -2.08774,-0.23177 1.10913,0.0772 m -2.21826,-0.15451 1.10913,0.0773 m 36.53402,-30.82396 -11.678,51.83646 m -3.13126,-40.40293 -11.74291,51.83645"
         style="fill:none;stroke:#ffffff;stroke-width:0.352778;stroke-linecap:butt;stroke-linejoin:miter;stroke-miterlimit:4;stroke-dasharray:none;stroke-opacity:1" />
      <path
         id="path3"
         d="M 197.0936,192.28332 H 137.28225"
         style="fill:none;stroke:#ffffff;stroke-width:0.352778;stroke-linecap:butt;stroke-linejoin:miter;stroke-miterlimit:4;stroke-dasharray:none;stroke-opacity:1" />
      <path
         id="path4"
         d="m 143.11574,202.37749 v 0.36442 h -3.86362 v -5.62504 h 3.79024 v 0.36442 h -3.37361 v 2.2105 h 2.94887 v 0.34855 h -2.94887 v 2.33715 z"
         style="fill:#ffffff;fill-opacity:1;fill-rule:nonzero;stroke:none;stroke-width:0.352778" />
      <path
         id="path5"
         d="m 0,0 c 0,0.958 0.174,1.905 0.521,2.841 0.347,0.936 0.853,1.789 1.517,2.561 0.663,0.77 1.478,1.388 2.442,1.852 0.964,0.464 2.064,0.697 3.299,0.697 1.466,0 2.717,-0.326 3.751,-0.978 1.034,-0.651 1.806,-1.486 2.315,-2.504 L 12.873,3.93 C 12.487,4.664 12.012,5.248 11.449,5.682 10.886,6.116 10.28,6.426 9.632,6.614 8.983,6.801 8.335,6.895 7.687,6.895 6.653,6.895 5.73,6.693 4.92,6.288 4.11,5.884 3.427,5.345 2.871,4.671 2.315,3.997 1.895,3.249 1.609,2.426 1.324,1.602 1.181,0.771 1.181,-0.067 1.181,-1.01 1.35,-1.905 1.69,-2.751 2.03,-3.597 2.497,-4.349 3.091,-5.008 3.685,-5.667 4.38,-6.191 5.175,-6.58 5.97,-6.97 6.83,-7.164 7.756,-7.164 c 0.664,0 1.339,0.108 2.026,0.326 0.687,0.216 1.331,0.553 1.933,1.01 0.602,0.457 1.088,1.052 1.459,1.786 l 1.019,-0.472 C 13.837,-5.307 13.305,-5.981 12.595,-6.535 11.885,-7.09 11.098,-7.508 10.234,-7.793 9.369,-8.077 8.512,-8.22 7.664,-8.22 c -1.112,0 -2.138,0.236 -3.08,0.708 -0.941,0.472 -1.756,1.1 -2.443,1.886 C 1.454,-4.84 0.926,-3.957 0.556,-2.976 0.185,-1.995 0,-1.003 0,0"
         style="fill:#ffffff;fill-opacity:1;fill-rule:nonzero;stroke:none"
         transform="matrix(0.35277776,0,0,-0.35277776,144.05498,199.8819)"
         clip-path="url(#clipPath6)" />
      <path
         id="path7"
         d="m 0,0 c 0,-0.914 0.162,-1.79 0.486,-2.628 0.324,-0.838 0.776,-1.587 1.355,-2.246 0.579,-0.658 1.265,-1.182 2.06,-1.571 0.795,-0.39 1.671,-0.584 2.628,-0.584 0.973,0 1.86,0.201 2.663,0.606 0.802,0.404 1.489,0.943 2.06,1.617 0.571,0.674 1.007,1.426 1.308,2.257 0.301,0.831 0.452,1.681 0.452,2.549 0,0.913 -0.159,1.789 -0.475,2.628 C 12.221,3.466 11.769,4.214 11.183,4.873 10.596,5.532 9.905,6.056 9.111,6.445 8.315,6.835 7.455,7.029 6.529,7.029 5.541,7.029 4.646,6.827 3.844,6.423 3.041,6.019 2.358,5.48 1.794,4.806 1.231,4.132 0.791,3.38 0.474,2.549 0.158,1.718 0,0.868 0,0 m 6.506,-8.085 c -1.142,0 -2.184,0.228 -3.126,0.685 -0.941,0.457 -1.752,1.067 -2.431,1.831 -0.679,0.763 -1.204,1.627 -1.574,2.593 -0.371,0.966 -0.556,1.958 -0.556,2.976 0,1.063 0.193,2.077 0.579,3.043 0.386,0.966 0.93,1.827 1.632,2.583 0.703,0.756 1.52,1.355 2.455,1.796 0.933,0.442 1.948,0.663 3.044,0.663 1.158,0 2.203,-0.233 3.137,-0.696 C 10.6,6.925 11.406,6.303 12.086,5.525 12.765,4.746 13.29,3.877 13.66,2.92 14.031,1.961 14.216,0.988 14.216,0 c 0,-1.078 -0.193,-2.1 -0.579,-3.066 -0.386,-0.965 -0.93,-1.826 -1.632,-2.582 C 11.302,-6.404 10.484,-7 9.55,-7.434 8.617,-7.868 7.602,-8.085 6.506,-8.085"
         style="fill:#ffffff;fill-opacity:1;fill-rule:nonzero;stroke:none"
         transform="matrix(0.35277776,0,0,-0.35277776,150.37457,199.92939)"
         clip-path="url(#clipPath8)" />
      <path
         id="path9"
         d="m 293.661,73.046 h 6.668 v -1.033 h -6.668 z"
         style="fill:#ffffff;fill-opacity:1;fill-rule:nonzero;stroke:none"
         transform="matrix(0.35277776,0,0,-0.35277776,53.025682,226.17369)"
         clip-path="url(#clipPath10)" />
      <path
         id="path11"
         d="m 0,0 h 5.765 c 0.71,0 1.327,0.187 1.852,0.561 0.525,0.374 0.93,0.861 1.216,1.46 C 9.118,2.62 9.261,3.256 9.261,3.93 9.261,4.618 9.095,5.258 8.764,5.85 8.431,6.441 7.992,6.92 7.444,7.288 6.896,7.654 6.282,7.838 5.603,7.838 H 0 Z M -1.181,-7.075 V 8.871 h 6.83 c 0.71,0 1.355,-0.143 1.934,-0.427 C 8.162,8.159 8.663,7.782 9.087,7.31 9.512,6.838 9.843,6.311 10.083,5.727 10.322,5.143 10.442,4.544 10.442,3.93 10.442,3.136 10.28,2.395 9.956,1.707 9.632,1.018 9.18,0.441 8.601,-0.023 8.022,-0.487 7.347,-0.772 6.575,-0.876 l 4.099,-6.199 H 9.307 L 5.325,-1.056 H 0 v -6.019 z"
         style="fill:#ffffff;fill-opacity:1;fill-rule:nonzero;stroke:none"
         transform="matrix(0.35277776,0,0,-0.35277776,161.02528,200.24625)"
         clip-path="url(#clipPath12)" />
      <path
         id="path13"
         d="M 0,0 C -1.312,0 -2.408,0.225 -3.288,0.674 -4.168,1.123 -4.87,1.733 -5.395,2.504 -5.92,3.275 -6.298,4.14 -6.529,5.098 -6.761,6.056 -6.877,7.037 -6.877,8.04 v 8.018 h 1.181 V 8.04 c 0,-0.868 0.093,-1.722 0.278,-2.56 0.185,-0.839 0.49,-1.591 0.915,-2.257 0.424,-0.666 1.003,-1.194 1.736,-1.583 0.733,-0.39 1.648,-0.584 2.744,-0.584 1.111,0 2.033,0.202 2.766,0.606 0.734,0.404 1.312,0.94 1.737,1.606 0.424,0.666 0.725,1.415 0.903,2.245 0.177,0.831 0.266,1.674 0.266,2.527 v 8.018 H 6.83 V 8.04 C 6.83,6.977 6.71,5.963 6.471,4.997 6.232,4.032 5.842,3.174 5.302,2.426 4.762,1.676 4.059,1.086 3.195,0.652 2.33,0.217 1.265,0 0,0"
         style="fill:#ffffff;fill-opacity:1;fill-rule:nonzero;stroke:none"
         transform="matrix(0.35277776,0,0,-0.35277776,168.57222,202.78163)"
         clip-path="url(#clipPath14)" />
      <path
         id="path15"
         d="M 0,0 V -13.812 H -1.18 V 2.134 h 0.972 l 11.46,-14.037 V 2.134 h 1.181 v -15.946 h -1.157 z"
         style="fill:#ffffff;fill-opacity:1;fill-rule:nonzero;stroke:none"
         transform="matrix(0.35277776,0,0,-0.35277776,173.15427,197.86952)"
         clip-path="url(#clipPath16)" />
      <path
         id="path17"
         d="M 0,0 V -13.812 H -1.18 V 2.134 h 0.972 l 11.46,-14.037 V 2.134 h 1.181 v -15.946 h -1.157 z"
         style="fill:#ffffff;fill-opacity:1;fill-rule:nonzero;stroke:none"
         transform="matrix(0.35277776,0,0,-0.35277776,179.79468,197.86952)"
         clip-path="url(#clipPath18)" />
      <path
         id="path19"
         d="M 0,0 V -1.033 H -10.951 V 14.912 H -0.208 V 13.879 H -9.771 V 7.613 h 8.359 V 6.625 H -9.771 V 0 Z"
         style="fill:#ffffff;fill-opacity:1;fill-rule:nonzero;stroke:none"
         transform="matrix(0.35277776,0,0,-0.35277776,189.88194,202.37749)"
         clip-path="url(#clipPath20)" />
      <path
         id="path21"
         d="m 0,0 h 5.765 c 0.71,0 1.327,0.187 1.852,0.561 0.525,0.374 0.93,0.861 1.216,1.46 C 9.118,2.62 9.261,3.256 9.261,3.93 9.261,4.618 9.095,5.258 8.763,5.85 8.431,6.441 7.991,6.92 7.444,7.288 6.896,7.654 6.282,7.838 5.603,7.838 H 0 Z M -1.18,-7.075 V 8.871 h 6.829 c 0.71,0 1.355,-0.143 1.934,-0.427 C 8.161,8.159 8.663,7.782 9.087,7.31 9.512,6.838 9.843,6.311 10.083,5.727 10.322,5.143 10.442,4.544 10.442,3.93 10.442,3.136 10.28,2.395 9.956,1.707 9.632,1.018 9.18,0.441 8.601,-0.023 8.022,-0.487 7.347,-0.772 6.575,-0.876 l 4.099,-6.199 H 9.308 L 5.325,-1.056 H 0 v -6.019 z"
         style="fill:#ffffff;fill-opacity:1;fill-rule:nonzero;stroke:none"
         transform="matrix(0.35277776,0,0,-0.35277776,191.76045,200.24625)"
         clip-path="url(#clipPath22)" />
    </g>
  </g>
</svg>
