<?xml version="1.0" encoding="UTF-8" standalone="no"?>
<!-- Created with Inkscape (http://www.inkscape.org/) -->

<svg
   width="52.590069mm"
   height="10.500135mm"
   viewBox="0 0 52.590069 10.500135"
   version="1.1"
   id="svg1"
   xml:space="preserve"
   inkscape:version="1.3.1 (91b66b0783, 2023-11-16)"
   sodipodi:docname="topic_20.svg"
   xmlns:inkscape="http://www.inkscape.org/namespaces/inkscape"
   xmlns:sodipodi="http://sodipodi.sourceforge.net/DTD/sodipodi-0.dtd"
   xmlns="http://www.w3.org/2000/svg"
   xmlns:svg="http://www.w3.org/2000/svg"><sodipodi:namedview
     id="namedview1"
     pagecolor="#ffffff"
     bordercolor="#000000"
     borderopacity="0.25"
     inkscape:showpageshadow="2"
     inkscape:pageopacity="0.0"
     inkscape:pagecheckerboard="0"
     inkscape:deskcolor="#d1d1d1"
     inkscape:document-units="mm"
     inkscape:zoom="2.8284271"
     inkscape:cx="-14.495689"
     inkscape:cy="-17.854446"
     inkscape:window-width="2560"
     inkscape:window-height="1346"
     inkscape:window-x="-11"
     inkscape:window-y="-11"
     inkscape:window-maximized="1"
     inkscape:current-layer="layer1"
     showgrid="true"><inkscape:grid
       id="grid668"
       units="mm"
       originx="-368.12654"
       originy="-139.08546"
       spacingx="0.5"
       spacingy="0.5"
       empcolor="#0099e5"
       empopacity="0.30196078"
       color="#0099e5"
       opacity="0.14901961"
       empspacing="5"
       dotted="false"
       gridanglex="30"
       gridanglez="30"
       visible="true" /></sodipodi:namedview><defs
     id="defs1" /><g
     inkscape:label="Layer 1"
     inkscape:groupmode="layer"
     id="layer1"
     transform="translate(-368.12653,-139.08546)"><rect
       style="fill:#f9f9f9;stroke-width:0.499999;stroke-linejoin:round;stroke-miterlimit:3.4;stroke-dashoffset:19.8539"
       id="rect27"
       width="40.634026"
       height="7.1517849"
       x="371.866"
       y="141.09239" /><path
       id="path739"
       style="fill:#2c2c6f;fill-opacity:1;stroke-width:0.264583"
       d="m 371.75268,139.08545 c -2.00263,0 -3.62614,1.61086 -3.62614,3.59771 v 3.30471 c 0,1.98686 1.62351,3.59772 3.62614,3.59772 h 43.99886 v -10.50014 z m 44.51666,0 v 10.50014 h 1.96474 v -10.50014 z m 2.48202,0 v 10.50014 h 1.96525 v -10.50014 z m -32.71997,3.47834 h 0.62374 v 3.34657 h -0.62374 z m -2.94039,0.0522 c 0.0512,0 0.097,0.007 0.13798,0.0233 0.0425,0.016 0.0787,0.0386 0.108,0.0677 0.0293,0.0291 0.0516,0.0642 0.0677,0.1049 0.0161,0.0392 0.0243,0.0828 0.0243,0.13074 0,0.0479 -0.008,0.0921 -0.0243,0.13281 -0.0161,0.0392 -0.0384,0.0739 -0.0677,0.10439 -0.0293,0.0291 -0.0656,0.0517 -0.108,0.0677 -0.041,0.016 -0.0867,0.0243 -0.13798,0.0243 -0.0513,0 -0.0981,-0.008 -0.14056,-0.0243 -0.041,-0.016 -0.0761,-0.0386 -0.10542,-0.0677 -0.0293,-0.0305 -0.0521,-0.0652 -0.0682,-0.10439 -0.0161,-0.0407 -0.0243,-0.0849 -0.0243,-0.13281 0,-0.0479 0.008,-0.0915 0.0243,-0.13074 0.0161,-0.0407 0.0389,-0.0758 0.0682,-0.1049 0.0293,-0.0291 0.0644,-0.0517 0.10542,-0.0677 0.0425,-0.016 0.0893,-0.0233 0.14056,-0.0233 z m 14.14591,0 c 0.0513,0 0.0975,0.007 0.13849,0.0233 0.0425,0.016 0.0782,0.0386 0.10749,0.0677 0.0293,0.0291 0.0521,0.0642 0.0682,0.1049 0.0161,0.0392 0.0238,0.0828 0.0238,0.13074 0,0.0479 -0.008,0.0921 -0.0238,0.13281 -0.0161,0.0392 -0.0389,0.0739 -0.0682,0.10439 -0.0293,0.0291 -0.065,0.0517 -0.10749,0.0677 -0.041,0.016 -0.0873,0.0243 -0.13849,0.0243 -0.0512,0 -0.0981,-0.008 -0.14056,-0.0243 -0.041,-0.016 -0.0761,-0.0386 -0.10542,-0.0677 -0.0293,-0.0305 -0.0521,-0.0652 -0.0682,-0.10439 -0.0161,-0.0407 -0.0243,-0.0849 -0.0243,-0.13281 0,-0.0479 0.008,-0.0915 0.0243,-0.13074 0.0161,-0.0407 0.0389,-0.0758 0.0682,-0.1049 0.0293,-0.0291 0.0644,-0.0517 0.10542,-0.0677 0.0425,-0.016 0.0893,-0.0233 0.14056,-0.0233 z m 9.14311,0 c 0.0513,0 0.097,0.007 0.13798,0.0233 0.0425,0.016 0.0787,0.0386 0.108,0.0677 0.0293,0.0291 0.0516,0.0642 0.0677,0.1049 0.0161,0.0392 0.0243,0.0828 0.0243,0.13074 0,0.0479 -0.008,0.0921 -0.0243,0.13281 -0.0161,0.0392 -0.0384,0.0739 -0.0677,0.10439 -0.0293,0.0291 -0.0656,0.0517 -0.108,0.0677 -0.041,0.016 -0.0867,0.0243 -0.13798,0.0243 -0.0513,0 -0.0981,-0.008 -0.14056,-0.0243 -0.041,-0.016 -0.0761,-0.0386 -0.10542,-0.0677 -0.0293,-0.0305 -0.0521,-0.0652 -0.0682,-0.10439 -0.0161,-0.0407 -0.0243,-0.0849 -0.0243,-0.13281 0,-0.0479 0.008,-0.0915 0.0243,-0.13074 0.0161,-0.0407 0.0389,-0.0758 0.0682,-0.1049 0.0293,-0.0291 0.0644,-0.0517 0.10542,-0.0677 0.0425,-0.016 0.0893,-0.0233 0.14056,-0.0233 z m -34.14985,0.12195 h 0.84336 l 0.60409,2.29444 0.60204,-2.29444 h 0.84335 v 3.17242 h -0.64802 v -0.85886 l 0.0594,-1.3224 -0.63924,2.18126 h -0.43925 l -0.63923,-2.18126 0.0594,1.3224 v 0.85886 h -0.64595 z m 18.01595,0 h 1.83193 v 0.53382 h -1.18597 v 0.74931 h 1.00562 v 0.51625 h -1.00562 v 0.84129 h 1.19011 v 0.53175 h -1.83607 z m -12.41733,0.23513 h 0.62115 v 0.57929 h 0.31885 v 0.46406 h -0.31885 v 1.17047 c 0,0.0494 0.003,0.09 0.009,0.12195 0.007,0.032 0.0184,0.0571 0.0331,0.076 0.0161,0.0174 0.036,0.0305 0.0594,0.0377 0.0234,0.006 0.0521,0.009 0.0858,0.009 0.0308,0 0.0583,-0.002 0.0832,-0.005 0.0264,-0.003 0.0474,-0.006 0.0636,-0.0103 l -0.004,0.47905 c -0.0469,0.0174 -0.0972,0.0317 -0.15142,0.0419 -0.0542,0.0116 -0.11799,0.0171 -0.1912,0.0171 -0.0922,0 -0.17596,-0.0131 -0.25063,-0.0393 -0.0747,-0.0247 -0.1391,-0.0647 -0.19327,-0.11989 -0.0527,-0.0567 -0.0937,-0.12946 -0.12299,-0.21807 -0.0278,-0.0886 -0.0413,-0.19495 -0.0413,-0.31988 v -1.24023 h -0.27492 v -0.46406 h 0.27492 z m -1.37046,0.53588 c 0.11859,0 0.22755,0.015 0.32712,0.0455 0.0996,0.0291 0.18568,0.0756 0.25889,0.13953 0.0732,0.0625 0.13058,0.14358 0.17157,0.24236 0.041,0.0973 0.0615,0.21495 0.0615,0.35295 v 1.04593 c 0,0.0683 0.001,0.12919 0.004,0.18293 0.004,0.0523 0.0103,0.10008 0.0176,0.14366 0.007,0.0421 0.0161,0.0804 0.0263,0.11524 0.0117,0.0334 0.0251,0.0656 0.0398,0.0961 v 0.0372 h -0.62581 c -0.0117,-0.0247 -0.0222,-0.0522 -0.031,-0.0827 -0.007,-0.032 -0.0144,-0.0654 -0.0217,-0.10026 -0.0469,0.0639 -0.10774,0.11766 -0.18241,0.16123 -0.0732,0.0436 -0.16338,0.0656 -0.27027,0.0656 -0.0966,0 -0.18742,-0.0172 -0.27234,-0.0506 -0.0835,-0.0334 -0.15666,-0.0801 -0.21962,-0.14108 -0.0615,-0.061 -0.11068,-0.13495 -0.14728,-0.22065 -0.0351,-0.0872 -0.0527,-0.18448 -0.0527,-0.29198 0,-0.11911 0.0193,-0.22658 0.0574,-0.32246 0.0395,-0.0973 0.0981,-0.17916 0.1757,-0.24598 0.0791,-0.0683 0.17691,-0.12026 0.29404,-0.15658 0.1186,-0.0363 0.25796,-0.0553 0.41755,-0.0553 h 0.16898 v -0.18914 c 0,-0.10604 -0.0182,-0.18069 -0.0548,-0.22427 -0.0366,-0.0436 -0.0899,-0.0656 -0.1602,-0.0656 -0.0805,0 -0.14021,0.0244 -0.17828,0.0724 -0.0366,0.0465 -0.0548,0.11221 -0.0548,0.19792 h -0.62166 c 0,-0.10314 0.0199,-0.19985 0.0594,-0.28991 0.041,-0.0915 0.0996,-0.17099 0.1757,-0.23926 0.0761,-0.0683 0.16752,-0.12253 0.27441,-0.16175 0.10688,-0.0407 0.22806,-0.061 0.36276,-0.061 z m 3.54656,0 c 0.30162,0 0.52822,0.0967 0.67903,0.28991 0.15081,0.1932 0.22582,0.47921 0.22582,0.85834 v 0.28112 h -1.2361 c 0.004,0.0944 0.0167,0.1738 0.0372,0.23772 0.022,0.0639 0.0512,0.11528 0.0879,0.15451 0.0366,0.0392 0.0805,0.0678 0.13177,0.0853 0.0527,0.0174 0.11188,0.0258 0.17777,0.0258 0.10982,0 0.20705,-0.0179 0.29197,-0.0543 0.0864,-0.0378 0.16252,-0.0897 0.22841,-0.15658 l 0.24391,0.37207 c -0.0308,0.0421 -0.0711,0.0845 -0.12092,0.12661 -0.0498,0.0407 -0.10835,0.0777 -0.1757,0.1111 -0.0674,0.0334 -0.14349,0.0603 -0.22841,0.0806 -0.0849,0.0218 -0.1775,0.0331 -0.27853,0.0331 -0.16252,0 -0.30713,-0.025 -0.43305,-0.0744 -0.12592,-0.0494 -0.23195,-0.12045 -0.31833,-0.21342 -0.0864,-0.093 -0.15201,-0.20639 -0.1974,-0.34004 -0.0439,-0.13509 -0.0661,-0.28851 -0.0661,-0.45992 v -0.19378 c 0,-0.19175 0.0211,-0.35952 0.0636,-0.50333 0.0439,-0.14526 0.10654,-0.26648 0.18707,-0.3638 0.082,-0.0988 0.18156,-0.17282 0.29869,-0.22221 0.1186,-0.0494 0.25218,-0.0744 0.40153,-0.0744 z m 2.26394,0 h 5.2e-4 c 0.0278,0 0.0577,0.003 0.0899,0.009 0.0337,0.004 0.0611,0.0109 0.0816,0.0196 l -0.007,0.60978 c -0.0278,-0.003 -0.0624,-0.006 -0.10335,-0.0108 -0.0395,-0.004 -0.0741,-0.006 -0.10336,-0.006 -0.0893,0 -0.1614,0.0191 -0.21704,0.0568 -0.0556,0.0378 -0.0984,0.0927 -0.12764,0.16536 v 1.55805 h -0.62373 v -2.35748 h 0.58653 l 0.0176,0.25476 c 0.0469,-0.0944 0.10369,-0.16784 0.17104,-0.22014 0.0688,-0.0523 0.14728,-0.0786 0.23513,-0.0786 z m 2.46497,0 c 0.1186,0 0.22755,0.015 0.32711,0.0455 0.0996,0.0291 0.18569,0.0756 0.2589,0.13953 0.0732,0.0625 0.13056,0.14358 0.17156,0.24236 0.041,0.0973 0.0615,0.21495 0.0615,0.35295 v 1.04593 c 0,0.0683 0.001,0.12919 0.004,0.18293 0.004,0.0523 0.0103,0.10008 0.0176,0.14366 0.007,0.0421 0.0162,0.0804 0.0264,0.11524 0.0117,0.0334 0.0252,0.0656 0.0398,0.0961 v 0.0372 h -0.6258 c -0.0117,-0.0247 -0.0222,-0.0522 -0.031,-0.0827 -0.007,-0.032 -0.0144,-0.0654 -0.0217,-0.10026 -0.0469,0.0639 -0.10775,0.11766 -0.18242,0.16123 -0.0732,0.0436 -0.16339,0.0656 -0.27027,0.0656 -0.0966,0 -0.1874,-0.0172 -0.27233,-0.0506 -0.0835,-0.0334 -0.15667,-0.0801 -0.21963,-0.14108 -0.0615,-0.061 -0.11067,-0.13495 -0.14728,-0.22065 -0.0351,-0.0872 -0.0527,-0.18448 -0.0527,-0.29198 0,-0.11911 0.0193,-0.22658 0.0574,-0.32246 0.0395,-0.0973 0.0981,-0.17916 0.1757,-0.24598 0.0791,-0.0683 0.1769,-0.12026 0.29403,-0.15658 0.1186,-0.0363 0.25795,-0.0553 0.41755,-0.0553 h 0.16898 v -0.18914 c 0,-0.10604 -0.0182,-0.18069 -0.0548,-0.22427 -0.0366,-0.0436 -0.0899,-0.0656 -0.16019,-0.0656 -0.0805,0 -0.14022,0.0244 -0.17829,0.0724 -0.0366,0.0465 -0.0548,0.11221 -0.0548,0.19792 h -0.62167 c 0,-0.10314 0.0199,-0.19985 0.0594,-0.28991 0.041,-0.0915 0.0996,-0.17099 0.1757,-0.23926 0.0761,-0.0683 0.16752,-0.12253 0.2744,-0.16175 0.10689,-0.0407 0.22807,-0.061 0.36277,-0.061 z m 3.19102,0 c 0.13324,0 0.2527,0.0179 0.35812,0.0543 0.10687,0.0349 0.19766,0.0855 0.27233,0.1509 0.0747,0.0639 0.13152,0.14102 0.17105,0.23254 0.0395,0.0901 0.0594,0.19088 0.0594,0.30128 h -0.62167 c 0,-0.0901 -0.0182,-0.16052 -0.0548,-0.21136 -0.0366,-0.0508 -0.0987,-0.0765 -0.18655,-0.0765 -0.0659,0 -0.12032,0.0203 -0.16278,0.061 -0.0425,0.0407 -0.0636,0.0974 -0.0636,0.17001 0,0.0305 0.006,0.058 0.0196,0.0827 0.0146,0.0233 0.0375,0.0465 0.0682,0.0698 0.0322,0.0232 0.0738,0.0471 0.12505,0.0718 0.0513,0.0247 0.11447,0.0533 0.18914,0.0853 0.1186,0.0436 0.22109,0.0895 0.30747,0.13746 0.0879,0.0479 0.15995,0.10116 0.21705,0.16072 0.0571,0.0581 0.0998,0.12435 0.12764,0.19844 0.0278,0.0741 0.0419,0.1595 0.0419,0.25683 0,0.10459 -0.0205,0.20006 -0.0615,0.28577 -0.041,0.0857 -0.0996,0.15913 -0.1757,0.22014 -0.0747,0.061 -0.16545,0.1088 -0.27233,0.14366 -0.10688,0.0334 -0.22635,0.0506 -0.35812,0.0506 -0.14496,0 -0.2732,-0.022 -0.38448,-0.0656 -0.10981,-0.045 -0.20179,-0.1041 -0.27646,-0.17673 -0.0747,-0.0741 -0.13144,-0.15705 -0.1695,-0.24856 -0.0381,-0.093 -0.0569,-0.18732 -0.0569,-0.28319 h 0.59066 c 0.002,0.0639 0.0103,0.11703 0.0264,0.15916 0.0161,0.0407 0.0372,0.0735 0.0636,0.0982 0.0278,0.0247 0.06,0.042 0.0966,0.0522 0.0381,0.009 0.0791,0.0134 0.12299,0.0134 0.16691,0 0.25063,-0.0752 0.25063,-0.22479 0,-0.0305 -0.008,-0.058 -0.0243,-0.0827 -0.0146,-0.0261 -0.0386,-0.0518 -0.0723,-0.0765 -0.0322,-0.0261 -0.0749,-0.0519 -0.12764,-0.078 -0.0527,-0.0261 -0.11541,-0.0554 -0.18862,-0.0873 -0.10835,-0.0436 -0.20438,-0.0878 -0.28784,-0.13281 -0.0835,-0.0465 -0.15374,-0.0984 -0.21084,-0.15503 -0.0571,-0.0581 -0.10041,-0.12261 -0.1297,-0.19379 -0.0293,-0.0726 -0.0439,-0.15621 -0.0439,-0.25063 0,-0.0988 0.0187,-0.19128 0.0553,-0.27698 0.0381,-0.0872 0.092,-0.16243 0.16226,-0.22635 0.0703,-0.0654 0.1558,-0.11612 0.25683,-0.15244 0.10249,-0.0378 0.21842,-0.0568 0.34727,-0.0568 z m 5.63531,0 c 0.0922,0 0.17717,0.0161 0.25477,0.0481 0.0776,0.0305 0.14434,0.0813 0.19998,0.15245 0.0556,0.0712 0.099,0.16429 0.12971,0.27905 0.0308,0.11476 0.046,0.25566 0.046,0.42271 v 1.49914 h -0.62373 v -1.50172 c 0,-0.0755 -0.006,-0.13768 -0.0176,-0.18707 -0.0117,-0.0494 -0.0293,-0.0888 -0.0527,-0.11782 -0.022,-0.0291 -0.0495,-0.0494 -0.0832,-0.061 -0.0337,-0.0116 -0.0735,-0.0176 -0.11885,-0.0176 -0.0586,0 -0.10955,0.0155 -0.15348,0.046 -0.0439,0.0305 -0.0808,0.0729 -0.11007,0.12661 v 1.71256 h -0.62374 v -2.358 h 0.58446 l 0.0176,0.23358 c 0.0688,-0.0901 0.14909,-0.15867 0.24133,-0.20516 0.0922,-0.0479 0.19534,-0.0718 0.30954,-0.0718 z m 1.80351,0 c 0.11567,0 0.21351,0.0227 0.29404,0.0677 0.0805,0.0436 0.14848,0.10511 0.20412,0.185 l 0.0243,-0.20929 h 0.56017 v 2.358 c 0,0.16124 -0.024,0.29978 -0.0724,0.41599 -0.0468,0.11767 -0.1136,0.21437 -0.19998,0.28991 -0.0864,0.0755 -0.1906,0.13163 -0.31213,0.16795 -0.12006,0.0363 -0.25365,0.0543 -0.40153,0.0543 -0.0556,0 -0.11713,-0.006 -0.18448,-0.0176 -0.0674,-0.0116 -0.13471,-0.029 -0.20205,-0.0522 -0.0674,-0.0218 -0.13178,-0.0504 -0.19327,-0.0853 -0.06,-0.0334 -0.11094,-0.0729 -0.15193,-0.11938 l 0.20877,-0.42684 c 0.0278,0.0291 0.0606,0.0559 0.0987,0.0806 0.0395,0.0261 0.0805,0.0477 0.12299,0.0651 0.0439,0.0189 0.0896,0.0333 0.13643,0.0434 0.0469,0.0116 0.092,0.0176 0.13591,0.0176 0.063,0 0.11859,-0.007 0.16691,-0.0217 0.0498,-0.0131 0.0919,-0.0363 0.12557,-0.0698 0.0337,-0.0334 0.0583,-0.0776 0.0744,-0.13281 0.0176,-0.0552 0.0263,-0.12443 0.0263,-0.20722 v -0.18966 c -0.0571,0.0741 -0.12385,0.13141 -0.19998,0.17209 -0.0747,0.0392 -0.16253,0.0594 -0.26355,0.0594 -0.12592,0 -0.23841,-0.025 -0.33797,-0.0744 -0.0981,-0.0494 -0.18181,-0.1222 -0.25063,-0.21808 -0.0673,-0.0959 -0.11893,-0.21411 -0.15554,-0.35501 -0.0366,-0.14236 -0.0553,-0.30654 -0.0553,-0.49248 v -0.15503 c 0,-0.3864 0.0703,-0.67425 0.21084,-0.86455 0.14056,-0.19029 0.33788,-0.28577 0.59118,-0.28577 z m 3.80597,0 c 0.0922,0 0.17715,0.0161 0.25476,0.0481 0.0776,0.0305 0.14436,0.0813 0.19999,0.15245 0.0556,0.0712 0.0984,0.16429 0.12919,0.27905 0.0307,0.11476 0.0465,0.25566 0.0465,0.42271 v 1.49914 h -0.62373 v -1.50172 c 0,-0.0755 -0.006,-0.13768 -0.0176,-0.18707 -0.0117,-0.0494 -0.0293,-0.0888 -0.0527,-0.11782 -0.022,-0.0291 -0.05,-0.0494 -0.0837,-0.061 -0.0337,-0.0116 -0.0729,-0.0176 -0.11834,-0.0176 -0.0586,0 -0.11007,0.0155 -0.15399,0.046 -0.0439,0.0305 -0.0803,0.0729 -0.10956,0.12661 v 1.71256 h -0.62373 v -2.358 h 0.58394 l 0.0176,0.23358 c 0.0688,-0.0901 0.1496,-0.15867 0.24185,-0.20516 0.0922,-0.0479 0.19533,-0.0718 0.30954,-0.0718 z m 1.97197,0 c 0.30162,0 0.52822,0.0967 0.67903,0.28991 0.15081,0.1932 0.22583,0.47921 0.22583,0.85834 v 0.28112 h -1.2361 c 0.004,0.0944 0.0167,0.1738 0.0372,0.23772 0.022,0.0639 0.0512,0.11528 0.0879,0.15451 0.0366,0.0392 0.0805,0.0678 0.13178,0.0853 0.0527,0.0174 0.11187,0.0258 0.17776,0.0258 0.10981,0 0.20706,-0.0179 0.29198,-0.0543 0.0864,-0.0378 0.16252,-0.0897 0.22841,-0.15658 l 0.24391,0.37207 c -0.0307,0.0421 -0.0711,0.0845 -0.12092,0.12661 -0.0498,0.0407 -0.10835,0.0777 -0.1757,0.1111 -0.0674,0.0334 -0.14349,0.0603 -0.22841,0.0806 -0.0849,0.0218 -0.17751,0.0331 -0.27854,0.0331 -0.16252,0 -0.30714,-0.025 -0.43305,-0.0744 -0.12592,-0.0494 -0.23193,-0.12045 -0.31832,-0.21342 -0.0864,-0.093 -0.15203,-0.20639 -0.19741,-0.34004 -0.0439,-0.13509 -0.0661,-0.28851 -0.0661,-0.45992 v -0.19378 c 0,-0.19175 0.0211,-0.35952 0.0636,-0.50333 0.0439,-0.14526 0.10655,-0.26648 0.18707,-0.3638 0.082,-0.0988 0.18156,-0.17282 0.29869,-0.22221 0.1186,-0.0494 0.25218,-0.0744 0.40152,-0.0744 z m 2.15233,0 c 0.3016,0 0.52822,0.0967 0.67902,0.28991 0.15081,0.1932 0.22583,0.47921 0.22583,0.85834 v 0.28112 h -1.2361 c 0.004,0.0944 0.0167,0.1738 0.0372,0.23772 0.022,0.0639 0.0512,0.11528 0.0879,0.15451 0.0366,0.0392 0.0805,0.0678 0.13177,0.0853 0.0527,0.0174 0.11188,0.0258 0.17777,0.0258 0.10981,0 0.20705,-0.0179 0.29197,-0.0543 0.0864,-0.0378 0.16253,-0.0897 0.22841,-0.15658 l 0.24391,0.37207 c -0.0308,0.0421 -0.0711,0.0845 -0.12092,0.12661 -0.0498,0.0407 -0.10834,0.0777 -0.1757,0.1111 -0.0674,0.0334 -0.14348,0.0603 -0.22841,0.0806 -0.0849,0.0218 -0.17751,0.0331 -0.27854,0.0331 -0.16252,0 -0.30712,-0.025 -0.43304,-0.0744 -0.12592,-0.0494 -0.23194,-0.12045 -0.31833,-0.21342 -0.0864,-0.093 -0.15202,-0.20639 -0.19741,-0.34004 -0.0439,-0.13509 -0.0661,-0.28851 -0.0661,-0.45992 v -0.19378 c 0,-0.19175 0.0211,-0.35952 0.0636,-0.50333 0.0439,-0.14526 0.10654,-0.26648 0.18707,-0.3638 0.082,-0.0988 0.18155,-0.17282 0.29869,-0.22221 0.11859,-0.0494 0.25219,-0.0744 0.40153,-0.0744 z m 2.26446,0 c 0.0278,0 0.0577,0.003 0.0899,0.009 0.0337,0.004 0.0611,0.0109 0.0816,0.0196 l -0.007,0.60978 c -0.0278,-0.003 -0.0624,-0.006 -0.10336,-0.0108 -0.0395,-0.004 -0.0741,-0.006 -0.10335,-0.006 -0.0893,0 -0.1614,0.0191 -0.21704,0.0568 -0.0556,0.0378 -0.0984,0.0927 -0.12764,0.16536 v 1.55805 h -0.62373 v -2.35748 h 0.58652 l 0.0181,0.25476 c 0.0469,-0.0944 0.1037,-0.16784 0.17105,-0.22014 0.0688,-0.0523 0.14728,-0.0786 0.23513,-0.0786 z m 2.75435,0 c 0.0922,0 0.17717,0.0161 0.25477,0.0481 0.0776,0.0305 0.14383,0.0813 0.19947,0.15245 0.0556,0.0712 0.099,0.16429 0.1297,0.27905 0.0308,0.11476 0.046,0.25566 0.046,0.42271 v 1.49914 h -0.62374 v -1.50172 c 0,-0.0755 -0.006,-0.13768 -0.0176,-0.18707 -0.0117,-0.0494 -0.0293,-0.0888 -0.0527,-0.11782 -0.022,-0.0291 -0.0495,-0.0494 -0.0832,-0.061 -0.0337,-0.0116 -0.0735,-0.0176 -0.11885,-0.0176 -0.0586,0 -0.10956,0.0155 -0.15348,0.046 -0.0439,0.0305 -0.0808,0.0729 -0.11007,0.12661 v 1.71256 h -0.62374 v -2.358 h 0.58446 l 0.0176,0.23358 c 0.0688,-0.0901 0.14909,-0.15867 0.24133,-0.20516 0.0922,-0.0479 0.19585,-0.0718 0.31006,-0.0718 z m 1.80299,0 c 0.11567,0 0.21351,0.0227 0.29404,0.0677 0.0805,0.0436 0.149,0.10511 0.20464,0.185 l 0.0238,-0.20929 h 0.56017 v 2.358 c 0,0.16124 -0.0239,0.29978 -0.0723,0.41599 -0.0469,0.11767 -0.1136,0.21437 -0.19999,0.28991 -0.0864,0.0755 -0.19008,0.13163 -0.31161,0.16795 -0.12006,0.0363 -0.25416,0.0543 -0.40204,0.0543 -0.0556,0 -0.11714,-0.006 -0.18449,-0.0176 -0.0674,-0.0116 -0.1347,-0.029 -0.20205,-0.0522 -0.0674,-0.0218 -0.13177,-0.0504 -0.19327,-0.0853 -0.06,-0.0334 -0.11043,-0.0729 -0.15142,-0.11938 l 0.20826,-0.42684 c 0.0278,0.0291 0.0611,0.0559 0.0992,0.0806 0.0395,0.0261 0.0805,0.0477 0.12299,0.0651 0.0439,0.0189 0.0891,0.0333 0.13591,0.0434 0.0468,0.0116 0.0925,0.0176 0.13642,0.0176 0.063,0 0.1186,-0.007 0.16692,-0.0217 0.0498,-0.0131 0.0914,-0.0363 0.12506,-0.0698 0.0337,-0.0334 0.0583,-0.0776 0.0744,-0.13281 0.0176,-0.0552 0.0263,-0.12443 0.0263,-0.20722 v -0.18966 c -0.0571,0.0741 -0.12333,0.13141 -0.19947,0.17209 -0.0747,0.0392 -0.16252,0.0594 -0.26355,0.0594 -0.12592,0 -0.23892,-0.025 -0.33848,-0.0744 -0.0981,-0.0494 -0.1813,-0.1222 -0.25011,-0.21808 -0.0673,-0.0959 -0.11945,-0.21411 -0.15606,-0.35501 -0.0366,-0.14236 -0.0548,-0.30654 -0.0548,-0.49248 v -0.15503 c 0,-0.3864 0.0703,-0.67425 0.21084,-0.86455 0.14056,-0.19029 0.33736,-0.28577 0.59066,-0.28577 z m -27.33476,0.0434 h 0.62373 v 2.358 h -0.62373 z m 14.14642,0 h 0.62373 v 2.358 h -0.62373 z m 9.14259,0 h 0.62374 v 2.358 h -0.62374 z m -26.06921,0.46871 c -0.10834,0 -0.18741,0.0388 -0.23719,0.11575 -0.0483,0.077 -0.077,0.20056 -0.0858,0.37052 h 0.62166 v -0.0568 c -0.003,-0.14091 -0.0264,-0.24776 -0.0703,-0.3204 -0.0439,-0.0726 -0.12007,-0.10903 -0.22841,-0.10903 z m 21.1367,0 c -0.10835,0 -0.18741,0.0388 -0.2372,0.11575 -0.0483,0.077 -0.077,0.20056 -0.0858,0.37052 h 0.62167 v -0.0568 c -0.003,-0.14091 -0.0264,-0.24776 -0.0703,-0.3204 -0.0439,-0.0726 -0.12006,-0.10903 -0.22841,-0.10903 z m 2.15232,0 c -0.10835,0 -0.18741,0.0388 -0.23719,0.11575 -0.0483,0.077 -0.077,0.20056 -0.0858,0.37052 h 0.62167 v -0.0568 c -0.003,-0.14091 -0.0264,-0.24776 -0.0703,-0.3204 -0.0439,-0.0726 -0.12007,-0.10903 -0.22841,-0.10903 z m -7.74423,0.004 c -0.12299,0 -0.21437,0.0507 -0.2744,0.1509 -0.0586,0.10023 -0.0879,0.26092 -0.0879,0.48317 v 0.15503 c 0,0.2179 0.0287,0.37726 0.0858,0.47749 0.0571,0.0988 0.14788,0.1478 0.27234,0.1478 0.0674,0 0.12359,-0.0114 0.16898,-0.0346 0.0468,-0.0247 0.0849,-0.0587 0.1142,-0.10232 v -1.12654 c -0.0307,-0.0479 -0.0694,-0.085 -0.11627,-0.11111 -0.0454,-0.0261 -0.0998,-0.0398 -0.16278,-0.0398 z m 14.75259,0 c -0.12299,0 -0.21489,0.0507 -0.27492,0.1509 -0.0586,0.10023 -0.0879,0.26092 -0.0879,0.48317 v 0.15503 c 0,0.2179 0.0287,0.37726 0.0858,0.47749 0.0571,0.0988 0.14788,0.1478 0.27234,0.1478 0.0673,0 0.12359,-0.0114 0.16898,-0.0346 0.0469,-0.0247 0.0849,-0.0587 0.1142,-0.10232 v -1.12654 c -0.0308,-0.0479 -0.0694,-0.085 -0.11627,-0.11111 -0.0454,-0.0261 -0.0993,-0.0398 -0.16226,-0.0398 z m -33.78967,0.81546 c -0.0586,0 -0.10895,0.009 -0.15141,0.0279 -0.0425,0.0189 -0.0782,0.0451 -0.10749,0.0786 -0.0278,0.0334 -0.0489,0.0728 -0.0636,0.11782 -0.0132,0.045 -0.0201,0.0928 -0.0201,0.14366 0,0.0857 0.0176,0.15134 0.0527,0.19637 0.0366,0.0436 0.0881,0.0651 0.15399,0.0651 0.0688,0 0.12738,-0.0137 0.1757,-0.0413 0.0483,-0.0276 0.0841,-0.0604 0.10749,-0.0982 v -0.48989 z m 8.27546,0 c -0.0586,0 -0.10895,0.009 -0.15141,0.0279 -0.0425,0.0189 -0.0782,0.0451 -0.10749,0.0786 -0.0278,0.0334 -0.0489,0.0728 -0.0636,0.11782 -0.0132,0.045 -0.0202,0.0928 -0.0202,0.14366 0,0.0857 0.0176,0.15134 0.0527,0.19637 0.0366,0.0436 0.0881,0.0651 0.15399,0.0651 0.0688,0 0.12738,-0.0137 0.1757,-0.0413 0.0483,-0.0276 0.0841,-0.0604 0.10749,-0.0982 v -0.48989 z" /><path
       id="path155"
       style="fill:#808ff7;fill-opacity:1;stroke-width:0.264583"
       d="m 371.75268,139.08545 c -2.00263,0 -3.62614,1.61086 -3.62614,3.59771 v 3.30471 c 0,1.98686 1.62351,3.59772 3.62614,3.59772 h 43.99886 v -10.50014 z m 44.51666,0 v 10.50014 h 1.96474 v -10.50014 z m 2.48202,0 v 10.50014 h 1.96525 v -10.50014 z m -32.71997,3.47834 h 0.62374 v 3.34657 h -0.62374 z m -2.94039,0.0522 c 0.0512,0 0.097,0.007 0.13798,0.0233 0.0425,0.016 0.0787,0.0386 0.108,0.0677 0.0293,0.0291 0.0516,0.0642 0.0677,0.1049 0.0161,0.0392 0.0243,0.0828 0.0243,0.13074 0,0.0479 -0.008,0.0921 -0.0243,0.13281 -0.0161,0.0392 -0.0384,0.0739 -0.0677,0.10439 -0.0293,0.0291 -0.0656,0.0517 -0.108,0.0677 -0.041,0.016 -0.0867,0.0243 -0.13798,0.0243 -0.0513,0 -0.0981,-0.008 -0.14056,-0.0243 -0.041,-0.016 -0.0761,-0.0386 -0.10542,-0.0677 -0.0293,-0.0305 -0.0521,-0.0652 -0.0682,-0.10439 -0.0161,-0.0407 -0.0243,-0.0849 -0.0243,-0.13281 0,-0.0479 0.008,-0.0915 0.0243,-0.13074 0.0161,-0.0407 0.0389,-0.0758 0.0682,-0.1049 0.0293,-0.0291 0.0644,-0.0517 0.10542,-0.0677 0.0425,-0.016 0.0893,-0.0233 0.14056,-0.0233 z m 14.14591,0 c 0.0513,0 0.0975,0.007 0.13849,0.0233 0.0425,0.016 0.0782,0.0386 0.10749,0.0677 0.0293,0.0291 0.0521,0.0642 0.0682,0.1049 0.0161,0.0392 0.0238,0.0828 0.0238,0.13074 0,0.0479 -0.008,0.0921 -0.0238,0.13281 -0.0161,0.0392 -0.0389,0.0739 -0.0682,0.10439 -0.0293,0.0291 -0.065,0.0517 -0.10749,0.0677 -0.041,0.016 -0.0873,0.0243 -0.13849,0.0243 -0.0512,0 -0.0981,-0.008 -0.14056,-0.0243 -0.041,-0.016 -0.0761,-0.0386 -0.10542,-0.0677 -0.0293,-0.0305 -0.0521,-0.0652 -0.0682,-0.10439 -0.0161,-0.0407 -0.0243,-0.0849 -0.0243,-0.13281 0,-0.0479 0.008,-0.0915 0.0243,-0.13074 0.0161,-0.0407 0.0389,-0.0758 0.0682,-0.1049 0.0293,-0.0291 0.0644,-0.0517 0.10542,-0.0677 0.0425,-0.016 0.0893,-0.0233 0.14056,-0.0233 z m 9.14311,0 c 0.0513,0 0.097,0.007 0.13798,0.0233 0.0425,0.016 0.0787,0.0386 0.108,0.0677 0.0293,0.0291 0.0516,0.0642 0.0677,0.1049 0.0161,0.0392 0.0243,0.0828 0.0243,0.13074 0,0.0479 -0.008,0.0921 -0.0243,0.13281 -0.0161,0.0392 -0.0384,0.0739 -0.0677,0.10439 -0.0293,0.0291 -0.0656,0.0517 -0.108,0.0677 -0.041,0.016 -0.0867,0.0243 -0.13798,0.0243 -0.0513,0 -0.0981,-0.008 -0.14056,-0.0243 -0.041,-0.016 -0.0761,-0.0386 -0.10542,-0.0677 -0.0293,-0.0305 -0.0521,-0.0652 -0.0682,-0.10439 -0.0161,-0.0407 -0.0243,-0.0849 -0.0243,-0.13281 0,-0.0479 0.008,-0.0915 0.0243,-0.13074 0.0161,-0.0407 0.0389,-0.0758 0.0682,-0.1049 0.0293,-0.0291 0.0644,-0.0517 0.10542,-0.0677 0.0425,-0.016 0.0893,-0.0233 0.14056,-0.0233 z m -34.14985,0.12195 h 0.84336 l 0.60409,2.29444 0.60204,-2.29444 h 0.84335 v 3.17242 h -0.64802 v -0.85886 l 0.0594,-1.3224 -0.63924,2.18126 h -0.43925 l -0.63923,-2.18126 0.0594,1.3224 v 0.85886 h -0.64595 z m 18.01595,0 h 1.83193 v 0.53382 h -1.18597 v 0.74931 h 1.00562 v 0.51625 h -1.00562 v 0.84129 h 1.19011 v 0.53175 h -1.83607 z m -12.41733,0.23513 h 0.62115 v 0.57929 h 0.31885 v 0.46406 h -0.31885 v 1.17047 c 0,0.0494 0.003,0.09 0.009,0.12195 0.007,0.032 0.0184,0.0571 0.0331,0.076 0.0161,0.0174 0.036,0.0305 0.0594,0.0377 0.0234,0.006 0.0521,0.009 0.0858,0.009 0.0308,0 0.0583,-0.002 0.0832,-0.005 0.0264,-0.003 0.0474,-0.006 0.0636,-0.0103 l -0.004,0.47905 c -0.0469,0.0174 -0.0972,0.0317 -0.15142,0.0419 -0.0542,0.0116 -0.11799,0.0171 -0.1912,0.0171 -0.0922,0 -0.17596,-0.0131 -0.25063,-0.0393 -0.0747,-0.0247 -0.1391,-0.0647 -0.19327,-0.11989 -0.0527,-0.0567 -0.0937,-0.12946 -0.12299,-0.21807 -0.0278,-0.0886 -0.0413,-0.19495 -0.0413,-0.31988 v -1.24023 h -0.27492 v -0.46406 h 0.27492 z m -1.37046,0.53588 c 0.11859,0 0.22755,0.015 0.32712,0.0455 0.0996,0.0291 0.18568,0.0756 0.25889,0.13953 0.0732,0.0625 0.13058,0.14358 0.17157,0.24236 0.041,0.0973 0.0615,0.21495 0.0615,0.35295 v 1.04593 c 0,0.0683 0.001,0.12919 0.004,0.18293 0.004,0.0523 0.0103,0.10008 0.0176,0.14366 0.007,0.0421 0.0161,0.0804 0.0263,0.11524 0.0117,0.0334 0.0251,0.0656 0.0398,0.0961 v 0.0372 h -0.62581 c -0.0117,-0.0247 -0.0222,-0.0522 -0.031,-0.0827 -0.007,-0.032 -0.0144,-0.0654 -0.0217,-0.10026 -0.0469,0.0639 -0.10774,0.11766 -0.18241,0.16123 -0.0732,0.0436 -0.16338,0.0656 -0.27027,0.0656 -0.0966,0 -0.18742,-0.0172 -0.27234,-0.0506 -0.0835,-0.0334 -0.15666,-0.0801 -0.21962,-0.14108 -0.0615,-0.061 -0.11068,-0.13495 -0.14728,-0.22065 -0.0351,-0.0872 -0.0527,-0.18448 -0.0527,-0.29198 0,-0.11911 0.0193,-0.22658 0.0574,-0.32246 0.0395,-0.0973 0.0981,-0.17916 0.1757,-0.24598 0.0791,-0.0683 0.17691,-0.12026 0.29404,-0.15658 0.1186,-0.0363 0.25796,-0.0553 0.41755,-0.0553 h 0.16898 v -0.18914 c 0,-0.10604 -0.0182,-0.18069 -0.0548,-0.22427 -0.0366,-0.0436 -0.0899,-0.0656 -0.1602,-0.0656 -0.0805,0 -0.14021,0.0244 -0.17828,0.0724 -0.0366,0.0465 -0.0548,0.11221 -0.0548,0.19792 h -0.62166 c 0,-0.10314 0.0199,-0.19985 0.0594,-0.28991 0.041,-0.0915 0.0996,-0.17099 0.1757,-0.23926 0.0761,-0.0683 0.16752,-0.12253 0.27441,-0.16175 0.10688,-0.0407 0.22806,-0.061 0.36276,-0.061 z m 3.54656,0 c 0.30162,0 0.52822,0.0967 0.67903,0.28991 0.15081,0.1932 0.22582,0.47921 0.22582,0.85834 v 0.28112 h -1.2361 c 0.004,0.0944 0.0167,0.1738 0.0372,0.23772 0.022,0.0639 0.0512,0.11528 0.0879,0.15451 0.0366,0.0392 0.0805,0.0678 0.13177,0.0853 0.0527,0.0174 0.11188,0.0258 0.17777,0.0258 0.10982,0 0.20705,-0.0179 0.29197,-0.0543 0.0864,-0.0378 0.16252,-0.0897 0.22841,-0.15658 l 0.24391,0.37207 c -0.0308,0.0421 -0.0711,0.0845 -0.12092,0.12661 -0.0498,0.0407 -0.10835,0.0777 -0.1757,0.1111 -0.0674,0.0334 -0.14349,0.0603 -0.22841,0.0806 -0.0849,0.0218 -0.1775,0.0331 -0.27853,0.0331 -0.16252,0 -0.30713,-0.025 -0.43305,-0.0744 -0.12592,-0.0494 -0.23195,-0.12045 -0.31833,-0.21342 -0.0864,-0.093 -0.15201,-0.20639 -0.1974,-0.34004 -0.0439,-0.13509 -0.0661,-0.28851 -0.0661,-0.45992 v -0.19378 c 0,-0.19175 0.0211,-0.35952 0.0636,-0.50333 0.0439,-0.14526 0.10654,-0.26648 0.18707,-0.3638 0.082,-0.0988 0.18156,-0.17282 0.29869,-0.22221 0.1186,-0.0494 0.25218,-0.0744 0.40153,-0.0744 z m 2.26394,0 h 5.2e-4 c 0.0278,0 0.0577,0.003 0.0899,0.009 0.0337,0.004 0.0611,0.0109 0.0816,0.0196 l -0.007,0.60978 c -0.0278,-0.003 -0.0624,-0.006 -0.10335,-0.0108 -0.0395,-0.004 -0.0741,-0.006 -0.10336,-0.006 -0.0893,0 -0.1614,0.0191 -0.21704,0.0568 -0.0556,0.0378 -0.0984,0.0927 -0.12764,0.16536 v 1.55805 h -0.62373 v -2.35748 h 0.58653 l 0.0176,0.25476 c 0.0469,-0.0944 0.10369,-0.16784 0.17104,-0.22014 0.0688,-0.0523 0.14728,-0.0786 0.23513,-0.0786 z m 2.46497,0 c 0.1186,0 0.22755,0.015 0.32711,0.0455 0.0996,0.0291 0.18569,0.0756 0.2589,0.13953 0.0732,0.0625 0.13056,0.14358 0.17156,0.24236 0.041,0.0973 0.0615,0.21495 0.0615,0.35295 v 1.04593 c 0,0.0683 0.001,0.12919 0.004,0.18293 0.004,0.0523 0.0103,0.10008 0.0176,0.14366 0.007,0.0421 0.0162,0.0804 0.0264,0.11524 0.0117,0.0334 0.0252,0.0656 0.0398,0.0961 v 0.0372 h -0.6258 c -0.0117,-0.0247 -0.0222,-0.0522 -0.031,-0.0827 -0.007,-0.032 -0.0144,-0.0654 -0.0217,-0.10026 -0.0469,0.0639 -0.10775,0.11766 -0.18242,0.16123 -0.0732,0.0436 -0.16339,0.0656 -0.27027,0.0656 -0.0966,0 -0.1874,-0.0172 -0.27233,-0.0506 -0.0835,-0.0334 -0.15667,-0.0801 -0.21963,-0.14108 -0.0615,-0.061 -0.11067,-0.13495 -0.14728,-0.22065 -0.0351,-0.0872 -0.0527,-0.18448 -0.0527,-0.29198 0,-0.11911 0.0193,-0.22658 0.0574,-0.32246 0.0395,-0.0973 0.0981,-0.17916 0.1757,-0.24598 0.0791,-0.0683 0.1769,-0.12026 0.29403,-0.15658 0.1186,-0.0363 0.25795,-0.0553 0.41755,-0.0553 h 0.16898 v -0.18914 c 0,-0.10604 -0.0182,-0.18069 -0.0548,-0.22427 -0.0366,-0.0436 -0.0899,-0.0656 -0.16019,-0.0656 -0.0805,0 -0.14022,0.0244 -0.17829,0.0724 -0.0366,0.0465 -0.0548,0.11221 -0.0548,0.19792 h -0.62167 c 0,-0.10314 0.0199,-0.19985 0.0594,-0.28991 0.041,-0.0915 0.0996,-0.17099 0.1757,-0.23926 0.0761,-0.0683 0.16752,-0.12253 0.2744,-0.16175 0.10689,-0.0407 0.22807,-0.061 0.36277,-0.061 z m 3.19102,0 c 0.13324,0 0.2527,0.0179 0.35812,0.0543 0.10687,0.0349 0.19766,0.0855 0.27233,0.1509 0.0747,0.0639 0.13152,0.14102 0.17105,0.23254 0.0395,0.0901 0.0594,0.19088 0.0594,0.30128 h -0.62167 c 0,-0.0901 -0.0182,-0.16052 -0.0548,-0.21136 -0.0366,-0.0508 -0.0987,-0.0765 -0.18655,-0.0765 -0.0659,0 -0.12032,0.0203 -0.16278,0.061 -0.0425,0.0407 -0.0636,0.0974 -0.0636,0.17001 0,0.0305 0.006,0.058 0.0196,0.0827 0.0146,0.0233 0.0375,0.0465 0.0682,0.0698 0.0322,0.0232 0.0738,0.0471 0.12505,0.0718 0.0513,0.0247 0.11447,0.0533 0.18914,0.0853 0.1186,0.0436 0.22109,0.0895 0.30747,0.13746 0.0879,0.0479 0.15995,0.10116 0.21705,0.16072 0.0571,0.0581 0.0998,0.12435 0.12764,0.19844 0.0278,0.0741 0.0419,0.1595 0.0419,0.25683 0,0.10459 -0.0205,0.20006 -0.0615,0.28577 -0.041,0.0857 -0.0996,0.15913 -0.1757,0.22014 -0.0747,0.061 -0.16545,0.1088 -0.27233,0.14366 -0.10688,0.0334 -0.22635,0.0506 -0.35812,0.0506 -0.14496,0 -0.2732,-0.022 -0.38448,-0.0656 -0.10981,-0.045 -0.20179,-0.1041 -0.27646,-0.17673 -0.0747,-0.0741 -0.13144,-0.15705 -0.1695,-0.24856 -0.0381,-0.093 -0.0569,-0.18732 -0.0569,-0.28319 h 0.59066 c 0.002,0.0639 0.0103,0.11703 0.0264,0.15916 0.0161,0.0407 0.0372,0.0735 0.0636,0.0982 0.0278,0.0247 0.06,0.042 0.0966,0.0522 0.0381,0.009 0.0791,0.0134 0.12299,0.0134 0.16691,0 0.25063,-0.0752 0.25063,-0.22479 0,-0.0305 -0.008,-0.058 -0.0243,-0.0827 -0.0146,-0.0261 -0.0386,-0.0518 -0.0723,-0.0765 -0.0322,-0.0261 -0.0749,-0.0519 -0.12764,-0.078 -0.0527,-0.0261 -0.11541,-0.0554 -0.18862,-0.0873 -0.10835,-0.0436 -0.20438,-0.0878 -0.28784,-0.13281 -0.0835,-0.0465 -0.15374,-0.0984 -0.21084,-0.15503 -0.0571,-0.0581 -0.10041,-0.12261 -0.1297,-0.19379 -0.0293,-0.0726 -0.0439,-0.15621 -0.0439,-0.25063 0,-0.0988 0.0187,-0.19128 0.0553,-0.27698 0.0381,-0.0872 0.092,-0.16243 0.16226,-0.22635 0.0703,-0.0654 0.1558,-0.11612 0.25683,-0.15244 0.10249,-0.0378 0.21842,-0.0568 0.34727,-0.0568 z m 5.63531,0 c 0.0922,0 0.17717,0.0161 0.25477,0.0481 0.0776,0.0305 0.14434,0.0813 0.19998,0.15245 0.0556,0.0712 0.099,0.16429 0.12971,0.27905 0.0308,0.11476 0.046,0.25566 0.046,0.42271 v 1.49914 h -0.62373 v -1.50172 c 0,-0.0755 -0.006,-0.13768 -0.0176,-0.18707 -0.0117,-0.0494 -0.0293,-0.0888 -0.0527,-0.11782 -0.022,-0.0291 -0.0495,-0.0494 -0.0832,-0.061 -0.0337,-0.0116 -0.0735,-0.0176 -0.11885,-0.0176 -0.0586,0 -0.10955,0.0155 -0.15348,0.046 -0.0439,0.0305 -0.0808,0.0729 -0.11007,0.12661 v 1.71256 h -0.62374 v -2.358 h 0.58446 l 0.0176,0.23358 c 0.0688,-0.0901 0.14909,-0.15867 0.24133,-0.20516 0.0922,-0.0479 0.19534,-0.0718 0.30954,-0.0718 z m 1.80351,0 c 0.11567,0 0.21351,0.0227 0.29404,0.0677 0.0805,0.0436 0.14848,0.10511 0.20412,0.185 l 0.0243,-0.20929 h 0.56017 v 2.358 c 0,0.16124 -0.024,0.29978 -0.0724,0.41599 -0.0468,0.11767 -0.1136,0.21437 -0.19998,0.28991 -0.0864,0.0755 -0.1906,0.13163 -0.31213,0.16795 -0.12006,0.0363 -0.25365,0.0543 -0.40153,0.0543 -0.0556,0 -0.11713,-0.006 -0.18448,-0.0176 -0.0674,-0.0116 -0.13471,-0.029 -0.20205,-0.0522 -0.0674,-0.0218 -0.13178,-0.0504 -0.19327,-0.0853 -0.06,-0.0334 -0.11094,-0.0729 -0.15193,-0.11938 l 0.20877,-0.42684 c 0.0278,0.0291 0.0606,0.0559 0.0987,0.0806 0.0395,0.0261 0.0805,0.0477 0.12299,0.0651 0.0439,0.0189 0.0896,0.0333 0.13643,0.0434 0.0469,0.0116 0.092,0.0176 0.13591,0.0176 0.063,0 0.11859,-0.007 0.16691,-0.0217 0.0498,-0.0131 0.0919,-0.0363 0.12557,-0.0698 0.0337,-0.0334 0.0583,-0.0776 0.0744,-0.13281 0.0176,-0.0552 0.0263,-0.12443 0.0263,-0.20722 v -0.18966 c -0.0571,0.0741 -0.12385,0.13141 -0.19998,0.17209 -0.0747,0.0392 -0.16253,0.0594 -0.26355,0.0594 -0.12592,0 -0.23841,-0.025 -0.33797,-0.0744 -0.0981,-0.0494 -0.18181,-0.1222 -0.25063,-0.21808 -0.0673,-0.0959 -0.11893,-0.21411 -0.15554,-0.35501 -0.0366,-0.14236 -0.0553,-0.30654 -0.0553,-0.49248 v -0.15503 c 0,-0.3864 0.0703,-0.67425 0.21084,-0.86455 0.14056,-0.19029 0.33788,-0.28577 0.59118,-0.28577 z m 3.80597,0 c 0.0922,0 0.17715,0.0161 0.25476,0.0481 0.0776,0.0305 0.14436,0.0813 0.19999,0.15245 0.0556,0.0712 0.0984,0.16429 0.12919,0.27905 0.0307,0.11476 0.0465,0.25566 0.0465,0.42271 v 1.49914 h -0.62373 v -1.50172 c 0,-0.0755 -0.006,-0.13768 -0.0176,-0.18707 -0.0117,-0.0494 -0.0293,-0.0888 -0.0527,-0.11782 -0.022,-0.0291 -0.05,-0.0494 -0.0837,-0.061 -0.0337,-0.0116 -0.0729,-0.0176 -0.11834,-0.0176 -0.0586,0 -0.11007,0.0155 -0.15399,0.046 -0.0439,0.0305 -0.0803,0.0729 -0.10956,0.12661 v 1.71256 h -0.62373 v -2.358 h 0.58394 l 0.0176,0.23358 c 0.0688,-0.0901 0.1496,-0.15867 0.24185,-0.20516 0.0922,-0.0479 0.19533,-0.0718 0.30954,-0.0718 z m 1.97197,0 c 0.30162,0 0.52822,0.0967 0.67903,0.28991 0.15081,0.1932 0.22583,0.47921 0.22583,0.85834 v 0.28112 h -1.2361 c 0.004,0.0944 0.0167,0.1738 0.0372,0.23772 0.022,0.0639 0.0512,0.11528 0.0879,0.15451 0.0366,0.0392 0.0805,0.0678 0.13178,0.0853 0.0527,0.0174 0.11187,0.0258 0.17776,0.0258 0.10981,0 0.20706,-0.0179 0.29198,-0.0543 0.0864,-0.0378 0.16252,-0.0897 0.22841,-0.15658 l 0.24391,0.37207 c -0.0307,0.0421 -0.0711,0.0845 -0.12092,0.12661 -0.0498,0.0407 -0.10835,0.0777 -0.1757,0.1111 -0.0674,0.0334 -0.14349,0.0603 -0.22841,0.0806 -0.0849,0.0218 -0.17751,0.0331 -0.27854,0.0331 -0.16252,0 -0.30714,-0.025 -0.43305,-0.0744 -0.12592,-0.0494 -0.23193,-0.12045 -0.31832,-0.21342 -0.0864,-0.093 -0.15203,-0.20639 -0.19741,-0.34004 -0.0439,-0.13509 -0.0661,-0.28851 -0.0661,-0.45992 v -0.19378 c 0,-0.19175 0.0211,-0.35952 0.0636,-0.50333 0.0439,-0.14526 0.10655,-0.26648 0.18707,-0.3638 0.082,-0.0988 0.18156,-0.17282 0.29869,-0.22221 0.1186,-0.0494 0.25218,-0.0744 0.40152,-0.0744 z m 2.15233,0 c 0.3016,0 0.52822,0.0967 0.67902,0.28991 0.15081,0.1932 0.22583,0.47921 0.22583,0.85834 v 0.28112 h -1.2361 c 0.004,0.0944 0.0167,0.1738 0.0372,0.23772 0.022,0.0639 0.0512,0.11528 0.0879,0.15451 0.0366,0.0392 0.0805,0.0678 0.13177,0.0853 0.0527,0.0174 0.11188,0.0258 0.17777,0.0258 0.10981,0 0.20705,-0.0179 0.29197,-0.0543 0.0864,-0.0378 0.16253,-0.0897 0.22841,-0.15658 l 0.24391,0.37207 c -0.0308,0.0421 -0.0711,0.0845 -0.12092,0.12661 -0.0498,0.0407 -0.10834,0.0777 -0.1757,0.1111 -0.0674,0.0334 -0.14348,0.0603 -0.22841,0.0806 -0.0849,0.0218 -0.17751,0.0331 -0.27854,0.0331 -0.16252,0 -0.30712,-0.025 -0.43304,-0.0744 -0.12592,-0.0494 -0.23194,-0.12045 -0.31833,-0.21342 -0.0864,-0.093 -0.15202,-0.20639 -0.19741,-0.34004 -0.0439,-0.13509 -0.0661,-0.28851 -0.0661,-0.45992 v -0.19378 c 0,-0.19175 0.0211,-0.35952 0.0636,-0.50333 0.0439,-0.14526 0.10654,-0.26648 0.18707,-0.3638 0.082,-0.0988 0.18155,-0.17282 0.29869,-0.22221 0.11859,-0.0494 0.25219,-0.0744 0.40153,-0.0744 z m 2.26446,0 c 0.0278,0 0.0577,0.003 0.0899,0.009 0.0337,0.004 0.0611,0.0109 0.0816,0.0196 l -0.007,0.60978 c -0.0278,-0.003 -0.0624,-0.006 -0.10336,-0.0108 -0.0395,-0.004 -0.0741,-0.006 -0.10335,-0.006 -0.0893,0 -0.1614,0.0191 -0.21704,0.0568 -0.0556,0.0378 -0.0984,0.0927 -0.12764,0.16536 v 1.55805 h -0.62373 v -2.35748 h 0.58652 l 0.0181,0.25476 c 0.0469,-0.0944 0.1037,-0.16784 0.17105,-0.22014 0.0688,-0.0523 0.14728,-0.0786 0.23513,-0.0786 z m 2.75435,0 c 0.0922,0 0.17717,0.0161 0.25477,0.0481 0.0776,0.0305 0.14383,0.0813 0.19947,0.15245 0.0556,0.0712 0.099,0.16429 0.1297,0.27905 0.0308,0.11476 0.046,0.25566 0.046,0.42271 v 1.49914 h -0.62374 v -1.50172 c 0,-0.0755 -0.006,-0.13768 -0.0176,-0.18707 -0.0117,-0.0494 -0.0293,-0.0888 -0.0527,-0.11782 -0.022,-0.0291 -0.0495,-0.0494 -0.0832,-0.061 -0.0337,-0.0116 -0.0735,-0.0176 -0.11885,-0.0176 -0.0586,0 -0.10956,0.0155 -0.15348,0.046 -0.0439,0.0305 -0.0808,0.0729 -0.11007,0.12661 v 1.71256 h -0.62374 v -2.358 h 0.58446 l 0.0176,0.23358 c 0.0688,-0.0901 0.14909,-0.15867 0.24133,-0.20516 0.0922,-0.0479 0.19585,-0.0718 0.31006,-0.0718 z m 1.80299,0 c 0.11567,0 0.21351,0.0227 0.29404,0.0677 0.0805,0.0436 0.149,0.10511 0.20464,0.185 l 0.0238,-0.20929 h 0.56017 v 2.358 c 0,0.16124 -0.0239,0.29978 -0.0723,0.41599 -0.0469,0.11767 -0.1136,0.21437 -0.19999,0.28991 -0.0864,0.0755 -0.19008,0.13163 -0.31161,0.16795 -0.12006,0.0363 -0.25416,0.0543 -0.40204,0.0543 -0.0556,0 -0.11714,-0.006 -0.18449,-0.0176 -0.0674,-0.0116 -0.1347,-0.029 -0.20205,-0.0522 -0.0674,-0.0218 -0.13177,-0.0504 -0.19327,-0.0853 -0.06,-0.0334 -0.11043,-0.0729 -0.15142,-0.11938 l 0.20826,-0.42684 c 0.0278,0.0291 0.0611,0.0559 0.0992,0.0806 0.0395,0.0261 0.0805,0.0477 0.12299,0.0651 0.0439,0.0189 0.0891,0.0333 0.13591,0.0434 0.0468,0.0116 0.0925,0.0176 0.13642,0.0176 0.063,0 0.1186,-0.007 0.16692,-0.0217 0.0498,-0.0131 0.0914,-0.0363 0.12506,-0.0698 0.0337,-0.0334 0.0583,-0.0776 0.0744,-0.13281 0.0176,-0.0552 0.0263,-0.12443 0.0263,-0.20722 v -0.18966 c -0.0571,0.0741 -0.12333,0.13141 -0.19947,0.17209 -0.0747,0.0392 -0.16252,0.0594 -0.26355,0.0594 -0.12592,0 -0.23892,-0.025 -0.33848,-0.0744 -0.0981,-0.0494 -0.1813,-0.1222 -0.25011,-0.21808 -0.0673,-0.0959 -0.11945,-0.21411 -0.15606,-0.35501 -0.0366,-0.14236 -0.0548,-0.30654 -0.0548,-0.49248 v -0.15503 c 0,-0.3864 0.0703,-0.67425 0.21084,-0.86455 0.14056,-0.19029 0.33736,-0.28577 0.59066,-0.28577 z m -27.33476,0.0434 h 0.62373 v 2.358 h -0.62373 z m 14.14642,0 h 0.62373 v 2.358 h -0.62373 z m 9.14259,0 h 0.62374 v 2.358 h -0.62374 z m -26.06921,0.46871 c -0.10834,0 -0.18741,0.0388 -0.23719,0.11575 -0.0483,0.077 -0.077,0.20056 -0.0858,0.37052 h 0.62166 v -0.0568 c -0.003,-0.14091 -0.0264,-0.24776 -0.0703,-0.3204 -0.0439,-0.0726 -0.12007,-0.10903 -0.22841,-0.10903 z m 21.1367,0 c -0.10835,0 -0.18741,0.0388 -0.2372,0.11575 -0.0483,0.077 -0.077,0.20056 -0.0858,0.37052 h 0.62167 v -0.0568 c -0.003,-0.14091 -0.0264,-0.24776 -0.0703,-0.3204 -0.0439,-0.0726 -0.12006,-0.10903 -0.22841,-0.10903 z m 2.15232,0 c -0.10835,0 -0.18741,0.0388 -0.23719,0.11575 -0.0483,0.077 -0.077,0.20056 -0.0858,0.37052 h 0.62167 v -0.0568 c -0.003,-0.14091 -0.0264,-0.24776 -0.0703,-0.3204 -0.0439,-0.0726 -0.12007,-0.10903 -0.22841,-0.10903 z m -7.74423,0.004 c -0.12299,0 -0.21437,0.0507 -0.2744,0.1509 -0.0586,0.10023 -0.0879,0.26092 -0.0879,0.48317 v 0.15503 c 0,0.2179 0.0287,0.37726 0.0858,0.47749 0.0571,0.0988 0.14788,0.1478 0.27234,0.1478 0.0674,0 0.12359,-0.0114 0.16898,-0.0346 0.0468,-0.0247 0.0849,-0.0587 0.1142,-0.10232 v -1.12654 c -0.0307,-0.0479 -0.0694,-0.085 -0.11627,-0.11111 -0.0454,-0.0261 -0.0998,-0.0398 -0.16278,-0.0398 z m 14.75259,0 c -0.12299,0 -0.21489,0.0507 -0.27492,0.1509 -0.0586,0.10023 -0.0879,0.26092 -0.0879,0.48317 v 0.15503 c 0,0.2179 0.0287,0.37726 0.0858,0.47749 0.0571,0.0988 0.14788,0.1478 0.27234,0.1478 0.0673,0 0.12359,-0.0114 0.16898,-0.0346 0.0469,-0.0247 0.0849,-0.0587 0.1142,-0.10232 v -1.12654 c -0.0308,-0.0479 -0.0694,-0.085 -0.11627,-0.11111 -0.0454,-0.0261 -0.0993,-0.0398 -0.16226,-0.0398 z m -33.78967,0.81546 c -0.0586,0 -0.10895,0.009 -0.15141,0.0279 -0.0425,0.0189 -0.0782,0.0451 -0.10749,0.0786 -0.0278,0.0334 -0.0489,0.0728 -0.0636,0.11782 -0.0132,0.045 -0.0201,0.0928 -0.0201,0.14366 0,0.0857 0.0176,0.15134 0.0527,0.19637 0.0366,0.0436 0.0881,0.0651 0.15399,0.0651 0.0688,0 0.12738,-0.0137 0.1757,-0.0413 0.0483,-0.0276 0.0841,-0.0604 0.10749,-0.0982 v -0.48989 z m 8.27546,0 c -0.0586,0 -0.10895,0.009 -0.15141,0.0279 -0.0425,0.0189 -0.0782,0.0451 -0.10749,0.0786 -0.0278,0.0334 -0.0489,0.0728 -0.0636,0.11782 -0.0132,0.045 -0.0202,0.0928 -0.0202,0.14366 0,0.0857 0.0176,0.15134 0.0527,0.19637 0.0366,0.0436 0.0881,0.0651 0.15399,0.0651 0.0688,0 0.12738,-0.0137 0.1757,-0.0413 0.0483,-0.0276 0.0841,-0.0604 0.10749,-0.0982 v -0.48989 z" /></g></svg>
