<?xml version="1.0" encoding="UTF-8" standalone="no"?>
<!-- Created with Inkscape (http://www.inkscape.org/) -->

<svg
   width="38.721119mm"
   height="10.500135mm"
   viewBox="0 0 38.721119 10.500135"
   version="1.1"
   id="svg1"
   xml:space="preserve"
   inkscape:version="1.3.1 (91b66b0783, 2023-11-16)"
   sodipodi:docname="topic_15.svg"
   xmlns:inkscape="http://www.inkscape.org/namespaces/inkscape"
   xmlns:sodipodi="http://sodipodi.sourceforge.net/DTD/sodipodi-0.dtd"
   xmlns="http://www.w3.org/2000/svg"
   xmlns:svg="http://www.w3.org/2000/svg"><sodipodi:namedview
     id="namedview1"
     pagecolor="#ffffff"
     bordercolor="#000000"
     borderopacity="0.25"
     inkscape:showpageshadow="2"
     inkscape:pageopacity="0.0"
     inkscape:pagecheckerboard="0"
     inkscape:deskcolor="#d1d1d1"
     inkscape:document-units="mm"
     inkscape:zoom="4"
     inkscape:cx="4.5"
     inkscape:cy="-47.125"
     inkscape:window-width="2560"
     inkscape:window-height="1346"
     inkscape:window-x="-11"
     inkscape:window-y="-11"
     inkscape:window-maximized="1"
     inkscape:current-layer="layer1"
     showgrid="true"><inkscape:grid
       id="grid668"
       units="mm"
       originx="-457.22103"
       originy="-124.61601"
       spacingx="0.5"
       spacingy="0.5"
       empcolor="#0099e5"
       empopacity="0.30196078"
       color="#0099e5"
       opacity="0.14901961"
       empspacing="5"
       dotted="false"
       gridanglex="30"
       gridanglez="30"
       visible="true" /></sodipodi:namedview><defs
     id="defs1" /><g
     inkscape:label="Layer 1"
     inkscape:groupmode="layer"
     id="layer1"
     transform="translate(-457.22102,-124.61602)"><rect
       style="fill:#f9f9f9;stroke-width:0.499999;stroke-linejoin:round;stroke-miterlimit:3.4;stroke-dashoffset:19.8539"
       id="rect18"
       width="24.938622"
       height="7.1517849"
       x="460.0614"
       y="126.03976"
       inkscape:export-filename="topic_15.svg"
       inkscape:export-xdpi="96"
       inkscape:export-ydpi="96" /><path
       id="path750"
       style="fill:#2c2c6f;fill-opacity:1;stroke-width:0.264583"
       d="m 460.75619,124.61601 c -1.95235,0 -3.53518,1.61081 -3.53518,3.59772 v 3.3047 c 0,1.98665 1.58283,3.59772 3.53518,3.59772 h 27.68565 v -10.50014 z m 28.20345,0 v 10.50014 h 1.96474 v -10.50014 z m 2.48254,0 v 10.50014 h 1.99987 v -10.50014 z m 2.49959,0 v 10.50014 h 2.00039 v -10.50014 z m -21.40128,3.62097 c 0.0513,0 0.0975,0.008 0.13849,0.0243 0.0425,0.0164 0.0782,0.0394 0.10749,0.0692 0.0293,0.0299 0.0521,0.0658 0.0682,0.10748 0.0161,0.0402 0.0238,0.0847 0.0238,0.13384 0,0.0491 -0.008,0.0947 -0.0238,0.13643 -0.0161,0.0402 -0.0389,0.0757 -0.0682,0.10697 -0.0293,0.0299 -0.065,0.0534 -0.10749,0.0698 -0.041,0.0164 -0.0872,0.0243 -0.13849,0.0243 -0.0512,0 -0.0981,-0.008 -0.14056,-0.0243 -0.041,-0.0164 -0.0761,-0.04 -0.10542,-0.0698 -0.0293,-0.0312 -0.0521,-0.0668 -0.0682,-0.10697 -0.0161,-0.0418 -0.0243,-0.0872 -0.0243,-0.13643 0,-0.0491 0.008,-0.0937 0.0243,-0.13384 0.0161,-0.0417 0.0389,-0.0776 0.0682,-0.10748 0.0293,-0.0299 0.0644,-0.0528 0.10542,-0.0692 0.0425,-0.0164 0.0893,-0.0243 0.14056,-0.0243 z m -10.35751,0.0801 c 0.18155,0 0.33796,0.0231 0.46974,0.0693 0.13177,0.0462 0.24184,0.11538 0.32969,0.20774 0.0879,0.0909 0.1552,0.20394 0.20206,0.33951 0.0469,0.1341 0.0767,0.28929 0.0899,0.46509 h -0.62787 c -0.009,-0.1028 -0.0234,-0.1883 -0.0439,-0.25683 -0.019,-0.0686 -0.0471,-0.12308 -0.0837,-0.1633 -0.0351,-0.0417 -0.0791,-0.0715 -0.13178,-0.0894 -0.0512,-0.018 -0.11274,-0.0269 -0.18448,-0.0269 -0.0849,0 -0.15873,0.0158 -0.22169,0.047 -0.063,0.0298 -0.11567,0.0787 -0.15813,0.14728 -0.041,0.0671 -0.072,0.15529 -0.0925,0.26407 -0.0205,0.10728 -0.0305,0.23721 -0.0305,0.39067 v 0.55449 c 0,0.15495 0.0111,0.28598 0.0331,0.39326 0.0234,0.10727 0.0574,0.19553 0.10283,0.26406 0.0469,0.0671 0.10542,0.11597 0.1757,0.14728 0.0703,0.0299 0.1534,0.0444 0.24857,0.0444 0.0571,0 0.10515,-0.004 0.14469,-0.0129 0.041,-0.009 0.0755,-0.0196 0.10336,-0.0315 0.0293,-0.0134 0.0527,-0.0269 0.0703,-0.0403 0.019,-0.0134 0.0348,-0.0246 0.048,-0.0336 v -0.59686 h -0.45216 v -0.49609 h 1.10019 v 1.34307 c -0.0337,0.0372 -0.0788,0.0805 -0.13591,0.12815 -0.0571,0.0477 -0.1291,0.0927 -0.21549,0.13591 -0.0849,0.0417 -0.18509,0.0771 -0.30076,0.10542 -0.11567,0.0298 -0.24917,0.0444 -0.39998,0.0444 -0.17863,0 -0.33969,-0.0288 -0.48317,-0.0853 -0.14349,-0.0565 -0.26648,-0.14207 -0.36897,-0.25683 -0.1025,-0.11472 -0.18155,-0.25926 -0.23719,-0.43357 -0.0542,-0.17581 -0.0811,-0.38169 -0.0811,-0.61857 v -0.55035 c 0,-0.23689 0.0264,-0.44218 0.0791,-0.6165 0.0527,-0.17581 0.12763,-0.32201 0.22427,-0.43822 0.0981,-0.1162 0.21645,-0.20279 0.35554,-0.25941 0.14056,-0.0566 0.29809,-0.0848 0.47232,-0.0848 z m 6.69623,0.83561 v 5.1e-4 c 0.13324,0 0.2527,0.0186 0.35812,0.0558 0.10688,0.0357 0.19766,0.0874 0.27233,0.15452 0.0747,0.0655 0.13152,0.14485 0.17105,0.23874 0.0395,0.0924 0.0594,0.19527 0.0594,0.30851 h -0.62167 c 0,-0.0924 -0.0182,-0.16437 -0.0548,-0.21652 -0.0366,-0.0522 -0.0987,-0.0786 -0.18655,-0.0786 -0.0659,0 -0.12033,0.0207 -0.16279,0.0625 -0.0425,0.0418 -0.0636,0.0996 -0.0636,0.17415 0,0.0312 0.007,0.06 0.0196,0.0853 0.0146,0.0238 0.0375,0.0474 0.0682,0.0713 0.0322,0.0238 0.0738,0.0485 0.12506,0.0739 0.0512,0.0253 0.11447,0.0545 0.18914,0.0873 0.1186,0.0446 0.22108,0.0914 0.30747,0.14056 0.0879,0.0491 0.16045,0.10429 0.21756,0.16536 0.0571,0.0596 0.0993,0.12767 0.12712,0.20361 0.0278,0.076 0.0419,0.16323 0.0419,0.26303 0,0.10728 -0.0205,0.2051 -0.0615,0.293 -0.041,0.0879 -0.0996,0.16325 -0.1757,0.22583 -0.0747,0.0626 -0.16545,0.11201 -0.27233,0.1478 -0.10689,0.0343 -0.22635,0.0512 -0.35812,0.0512 -0.14495,0 -0.2732,-0.0225 -0.38447,-0.0672 -0.10982,-0.0462 -0.2018,-0.10641 -0.27647,-0.18087 -0.0747,-0.076 -0.13091,-0.16141 -0.16898,-0.25528 -0.0381,-0.0953 -0.0574,-0.19159 -0.0574,-0.28991 h 0.59066 c 10e-4,0.0655 0.0102,0.11955 0.0263,0.16278 0.0161,0.0418 0.0377,0.0754 0.0641,0.10077 0.0278,0.0253 0.06,0.0429 0.0966,0.0532 0.0381,0.009 0.0791,0.0139 0.12299,0.0139 0.16691,0 0.25011,-0.077 0.25011,-0.23048 0,-0.0312 -0.008,-0.0594 -0.0243,-0.0848 -0.0146,-0.0268 -0.0386,-0.0526 -0.0723,-0.078 -0.0322,-0.0268 -0.0744,-0.0537 -0.12713,-0.0806 -0.0527,-0.0268 -0.11592,-0.0566 -0.18913,-0.0894 -0.10835,-0.0446 -0.20438,-0.0903 -0.28784,-0.13643 -0.0835,-0.0477 -0.15374,-0.10058 -0.21084,-0.15864 -0.0571,-0.0595 -0.0999,-0.12592 -0.12919,-0.19896 -0.0293,-0.0745 -0.0439,-0.15999 -0.0439,-0.25683 0,-0.10135 0.0182,-0.19631 0.0548,-0.28422 0.0381,-0.0895 0.092,-0.16648 0.16226,-0.23203 0.0703,-0.0671 0.15633,-0.11932 0.25735,-0.15658 0.10249,-0.0388 0.21791,-0.0584 0.34675,-0.0584 z m 2.12184,0 v 5.1e-4 c 0.12739,0 0.2428,0.0207 0.34675,0.0625 0.10542,0.0402 0.195,0.10042 0.2682,0.18087 0.0747,0.079 0.13152,0.17736 0.17105,0.29507 0.041,0.11769 0.0621,0.25381 0.0636,0.40876 h -0.58395 c -0.001,-0.13558 -0.0237,-0.23963 -0.0661,-0.31264 -0.0425,-0.0729 -0.11274,-0.10955 -0.21084,-0.10955 -0.0688,0 -0.12333,0.014 -0.16433,0.0424 -0.0395,0.0283 -0.0705,0.0699 -0.0925,0.12506 -0.0205,0.0536 -0.0345,0.12112 -0.0419,0.20154 -0.006,0.079 -0.009,0.17064 -0.009,0.27492 v 0.17414 c 0,0.10579 0.003,0.19861 0.009,0.27906 0.006,0.079 0.0193,0.14584 0.0398,0.19947 0.022,0.0536 0.0536,0.0937 0.0946,0.1204 0.041,0.0268 0.0966,0.0403 0.16691,0.0403 0.0864,0 0.15262,-0.0269 0.19947,-0.0806 0.0483,-0.0552 0.0735,-0.14739 0.0749,-0.27699 h 0.58395 c -0.001,0.13708 -0.0238,0.26028 -0.0677,0.37052 -0.0439,0.10877 -0.10422,0.20151 -0.18035,0.2775 -0.0747,0.076 -0.16313,0.13392 -0.26562,0.17415 -0.10249,0.0402 -0.21316,0.0605 -0.33176,0.0605 -0.1596,0 -0.29843,-0.0258 -0.41703,-0.078 -0.1186,-0.0522 -0.21756,-0.1275 -0.29662,-0.22582 -0.0776,-0.0998 -0.13617,-0.22187 -0.1757,-0.36639 -0.0381,-0.14453 -0.0574,-0.3098 -0.0574,-0.49454 v -0.17363 c 0,-0.18474 0.0193,-0.34952 0.0574,-0.49403 0.0395,-0.14601 0.0981,-0.26915 0.1757,-0.36897 0.0776,-0.0998 0.17544,-0.17574 0.29404,-0.22789 0.11859,-0.0522 0.25735,-0.0786 0.41548,-0.0786 z m 5.62446,0 v 5.1e-4 c 0.0922,0 0.17716,0.0164 0.25476,0.0491 0.0776,0.0312 0.14435,0.0835 0.19999,0.15658 0.0556,0.073 0.0984,0.16806 0.12919,0.28577 0.0308,0.11769 0.0465,0.26274 0.0465,0.43408 v 1.53737 h -0.62373 v -1.54047 c 0,-0.0774 -0.006,-0.14107 -0.0176,-0.19172 -0.0117,-0.0507 -0.0293,-0.0912 -0.0527,-0.12092 -0.022,-0.0298 -0.05,-0.0506 -0.0837,-0.0625 -0.0337,-0.0119 -0.073,-0.0181 -0.11834,-0.0181 -0.0586,0 -0.11006,0.0158 -0.15399,0.047 -0.0439,0.0312 -0.0803,0.0746 -0.10956,0.1297 v 1.75649 h -0.62373 v -2.41794 h 0.58394 l 0.0176,0.23926 c 0.0688,-0.0924 0.14961,-0.16265 0.24185,-0.21033 0.0922,-0.0491 0.19534,-0.0739 0.30954,-0.0739 z m 1.94355,0 v 5.1e-4 c 0.12738,0 0.24332,0.0207 0.34727,0.0625 0.10542,0.0402 0.19447,0.10042 0.26768,0.18087 0.0747,0.079 0.13204,0.17736 0.17157,0.29507 0.041,0.11769 0.0621,0.25381 0.0636,0.40876 h -0.58446 c -10e-4,-0.13558 -0.0232,-0.23963 -0.0656,-0.31264 -0.0425,-0.0729 -0.11274,-0.10955 -0.21084,-0.10955 -0.0688,0 -0.12386,0.014 -0.16485,0.0424 -0.0395,0.0283 -0.07,0.0699 -0.092,0.12506 -0.0205,0.0536 -0.0345,0.12112 -0.0419,0.20154 -0.006,0.079 -0.009,0.17064 -0.009,0.27492 v 0.17414 c 0,0.10579 0.003,0.19861 0.009,0.27906 0.006,0.079 0.0188,0.14584 0.0393,0.19947 0.022,0.0536 0.0536,0.0937 0.0946,0.1204 0.041,0.0268 0.0966,0.0403 0.16692,0.0403 0.0864,0 0.15312,-0.0269 0.19998,-0.0806 0.0483,-0.0552 0.0729,-0.14739 0.0744,-0.27699 h 0.58446 c -0.002,0.13708 -0.0243,0.26028 -0.0682,0.37052 -0.0439,0.10877 -0.10369,0.20151 -0.17983,0.2775 -0.0747,0.076 -0.16364,0.13392 -0.26613,0.17415 -0.10249,0.0402 -0.21266,0.0605 -0.33125,0.0605 -0.1596,0 -0.29894,-0.0258 -0.41754,-0.078 -0.1186,-0.0522 -0.21757,-0.1275 -0.29663,-0.22582 -0.0776,-0.0998 -0.13617,-0.22187 -0.1757,-0.36639 -0.0381,-0.14453 -0.0568,-0.3098 -0.0568,-0.49454 v -0.17363 c 0,-0.18474 0.0188,-0.34952 0.0568,-0.49403 0.0395,-0.14601 0.0981,-0.26915 0.1757,-0.36897 0.0776,-0.0998 0.17597,-0.17574 0.29456,-0.22789 0.1186,-0.0522 0.25683,-0.0786 0.41496,-0.0786 z m 4.14238,0 v 5.1e-4 c 0.13324,0 0.25218,0.0186 0.3576,0.0558 0.10689,0.0357 0.19766,0.0874 0.27234,0.15452 0.0747,0.0655 0.13203,0.14485 0.17156,0.23874 0.0395,0.0924 0.0594,0.19527 0.0594,0.30851 h -0.62167 c 0,-0.0924 -0.0182,-0.16437 -0.0548,-0.21652 -0.0366,-0.0522 -0.0992,-0.0786 -0.18707,-0.0786 -0.0659,0 -0.1198,0.0207 -0.16226,0.0625 -0.0425,0.0418 -0.0636,0.0996 -0.0636,0.17415 0,0.0312 0.006,0.06 0.0196,0.0853 0.0146,0.0238 0.0375,0.0474 0.0682,0.0713 0.0322,0.0238 0.0738,0.0485 0.12506,0.0739 0.0513,0.0253 0.11395,0.0545 0.18862,0.0873 0.1186,0.0446 0.22109,0.0914 0.30747,0.14056 0.0879,0.0491 0.16046,0.10429 0.21756,0.16536 0.0571,0.0596 0.0998,0.12767 0.12764,0.20361 0.0278,0.076 0.0413,0.16323 0.0413,0.26303 0,0.10728 -0.0205,0.2051 -0.0615,0.293 -0.041,0.0879 -0.0996,0.16325 -0.1757,0.22583 -0.0747,0.0626 -0.16546,0.11201 -0.27234,0.1478 -0.10689,0.0343 -0.22583,0.0512 -0.3576,0.0512 -0.14496,0 -0.27319,-0.0225 -0.38447,-0.0672 -0.10981,-0.0462 -0.20232,-0.10641 -0.27699,-0.18087 -0.0747,-0.076 -0.13092,-0.16141 -0.16898,-0.25528 -0.0381,-0.0953 -0.0568,-0.19159 -0.0568,-0.28991 h 0.59066 c 10e-4,0.0655 0.0104,0.11955 0.0264,0.16278 0.0161,0.0418 0.0372,0.0754 0.0636,0.10077 0.0278,0.0253 0.06,0.0429 0.0966,0.0532 0.0381,0.009 0.0791,0.0139 0.12299,0.0139 0.16691,0 0.25063,-0.077 0.25063,-0.23048 0,-0.0312 -0.008,-0.0594 -0.0243,-0.0848 -0.0146,-0.0268 -0.0386,-0.0526 -0.0723,-0.078 -0.0322,-0.0268 -0.0749,-0.0537 -0.12764,-0.0806 -0.0527,-0.0268 -0.11541,-0.0566 -0.18862,-0.0894 -0.10835,-0.0446 -0.20438,-0.0903 -0.28784,-0.13643 -0.0835,-0.0477 -0.15374,-0.10058 -0.21084,-0.15864 -0.0571,-0.0595 -0.10042,-0.12592 -0.12971,-0.19896 -0.0293,-0.0745 -0.0439,-0.15999 -0.0439,-0.25683 0,-0.10135 0.0182,-0.19631 0.0548,-0.28422 0.0381,-0.0895 0.0925,-0.16648 0.16279,-0.23203 0.0703,-0.0671 0.1558,-0.11932 0.25683,-0.15658 0.10249,-0.0388 0.21841,-0.0584 0.34726,-0.0584 z m -18.11465,5.1e-4 c 0.30162,0 0.5277,0.0989 0.67851,0.29714 0.15081,0.19815 0.22634,0.49171 0.22634,0.88057 v 0.28835 h -1.23662 c 0.004,0.0968 0.0167,0.17784 0.0372,0.2434 0.022,0.0656 0.0512,0.11839 0.0879,0.15865 0.0366,0.0402 0.0805,0.0693 0.13178,0.0873 0.0527,0.0179 0.11187,0.0269 0.17776,0.0269 0.10982,0 0.20757,-0.0186 0.29249,-0.0558 0.0864,-0.0388 0.16252,-0.0922 0.22841,-0.16071 l 0.2434,0.38189 c -0.0307,0.0433 -0.0706,0.0865 -0.12041,0.1297 -0.0498,0.0417 -0.10834,0.08 -0.1757,0.11421 -0.0673,0.0343 -0.14349,0.0614 -0.22841,0.0822 -0.0849,0.0223 -0.17802,0.0341 -0.27905,0.0341 -0.16252,0 -0.30661,-0.0258 -0.43253,-0.0765 -0.12592,-0.0507 -0.23246,-0.12326 -0.31885,-0.21859 -0.0864,-0.0953 -0.15201,-0.21174 -0.1974,-0.34882 -0.0439,-0.13855 -0.0661,-0.29549 -0.0661,-0.47129 v -0.19895 c 0,-0.19666 0.0216,-0.36876 0.0641,-0.51625 0.0439,-0.14899 0.10602,-0.2738 0.18655,-0.37362 0.082,-0.10135 0.18156,-0.17671 0.29869,-0.22737 0.1186,-0.0507 0.25271,-0.0765 0.40205,-0.0765 z m 2.14353,0 c 0.14788,0 0.28086,0.0258 0.39946,0.078 0.1186,0.0507 0.21989,0.12601 0.30334,0.22582 0.0835,0.0998 0.14788,0.22244 0.19327,0.36845 0.0454,0.146 0.0677,0.31411 0.0677,0.50333 v 0.15813 c 0,0.1907 -0.0223,0.35939 -0.0677,0.5054 -0.0439,0.14451 -0.10774,0.26656 -0.1912,0.36638 -0.0835,0.0998 -0.18474,0.17517 -0.30334,0.22583 -0.1186,0.0507 -0.25098,0.076 -0.39739,0.076 -0.14788,0 -0.28086,-0.0253 -0.39946,-0.076 -0.1186,-0.0507 -0.21988,-0.12602 -0.30334,-0.22583 -0.0835,-0.0998 -0.14788,-0.22187 -0.19327,-0.36638 -0.0454,-0.14601 -0.0682,-0.3147 -0.0682,-0.5054 v -0.15813 c 0,-0.18922 0.0228,-0.35733 0.0682,-0.50333 0.0454,-0.14601 0.10981,-0.26863 0.19327,-0.36845 0.0835,-0.0998 0.18363,-0.17516 0.30076,-0.22582 0.1186,-0.0522 0.2515,-0.078 0.3979,-0.078 z m 7.49102,0 c 0.30162,0 0.52822,0.0989 0.67903,0.29714 0.15081,0.19815 0.22582,0.49171 0.22582,0.88057 v 0.28835 h -1.2361 c 0.004,0.0968 0.0167,0.17784 0.0372,0.2434 0.022,0.0656 0.0512,0.11839 0.0879,0.15865 0.0366,0.0402 0.0805,0.0693 0.13178,0.0873 0.0527,0.0179 0.11187,0.0269 0.17776,0.0269 0.10982,0 0.20705,-0.0186 0.29198,-0.0558 0.0864,-0.0388 0.16252,-0.0922 0.22841,-0.16071 l 0.24391,0.38189 c -0.0308,0.0433 -0.0711,0.0865 -0.12093,0.1297 -0.0498,0.0417 -0.10834,0.08 -0.17569,0.11421 -0.0674,0.0343 -0.14349,0.0614 -0.22841,0.0822 -0.0849,0.0223 -0.17751,0.0341 -0.27854,0.0341 -0.16252,0 -0.30713,-0.0258 -0.43305,-0.0765 -0.12592,-0.0507 -0.23194,-0.12326 -0.31833,-0.21859 -0.0864,-0.0953 -0.15201,-0.21174 -0.1974,-0.34882 -0.0439,-0.13855 -0.0661,-0.29549 -0.0661,-0.47129 v -0.19895 c 0,-0.19666 0.0211,-0.36876 0.0636,-0.51625 0.0439,-0.14899 0.10653,-0.2738 0.18706,-0.37362 0.082,-0.10135 0.18156,-0.17671 0.29869,-0.22737 0.1186,-0.0507 0.25218,-0.0765 0.40153,-0.0765 z m 6.43527,0 c 0.30162,0 0.5277,0.0989 0.67851,0.29714 0.1508,0.19815 0.22634,0.49171 0.22634,0.88057 v 0.28835 h -1.23662 c 0.004,0.0968 0.0167,0.17784 0.0372,0.2434 0.022,0.0656 0.0512,0.11839 0.0879,0.15865 0.0366,0.0402 0.0805,0.0693 0.13178,0.0873 0.0527,0.0179 0.11239,0.0269 0.17828,0.0269 0.10981,0 0.20705,-0.0186 0.29197,-0.0558 0.0864,-0.0388 0.16252,-0.0922 0.22841,-0.16071 l 0.24391,0.38189 c -0.0308,0.0433 -0.0711,0.0865 -0.12092,0.1297 -0.0498,0.0417 -0.10834,0.08 -0.1757,0.11421 -0.0674,0.0343 -0.14349,0.0614 -0.22841,0.0822 -0.0849,0.0223 -0.17802,0.0341 -0.27905,0.0341 -0.16252,0 -0.30661,-0.0258 -0.43253,-0.0765 -0.12592,-0.0507 -0.23194,-0.12326 -0.31833,-0.21859 -0.0864,-0.0953 -0.15253,-0.21174 -0.19792,-0.34882 -0.0439,-0.13855 -0.0656,-0.29549 -0.0656,-0.47129 v -0.19895 c 0,-0.19666 0.0211,-0.36876 0.0636,-0.51625 0.0439,-0.14899 0.10602,-0.2738 0.18655,-0.37362 0.082,-0.10135 0.18156,-0.17671 0.29869,-0.22737 0.1186,-0.0507 0.25271,-0.0765 0.40205,-0.0765 z m -8.43566,0.0444 h 0.62373 v 2.41845 h -0.62373 z m -7.63881,0.48059 c -0.10834,0 -0.18742,0.0394 -0.2372,0.11834 -0.0483,0.079 -0.077,0.20602 -0.0858,0.38033 h 0.62167 v -0.0584 c -0.003,-0.14452 -0.0264,-0.25417 -0.0703,-0.32866 -0.0439,-0.0745 -0.12007,-0.11162 -0.22841,-0.11162 z m 2.14818,0 c -0.10542,0 -0.18853,0.0534 -0.24856,0.16071 -0.0586,0.10578 -0.0879,0.26938 -0.0879,0.48989 v 0.15813 c 0,0.22497 0.0304,0.39026 0.0904,0.49455 0.06,0.1028 0.14323,0.15399 0.25011,0.15399 0.11274,0 0.19766,-0.0512 0.25476,-0.15399 0.0571,-0.10429 0.0858,-0.26958 0.0858,-0.49455 v -0.15813 c 0,-0.22051 -0.0299,-0.38411 -0.0899,-0.48989 -0.06,-0.10726 -0.14496,-0.16071 -0.25477,-0.16071 z m 7.48689,0 c -0.10834,0 -0.18742,0.0394 -0.2372,0.11834 -0.0483,0.079 -0.077,0.20602 -0.0858,0.38033 h 0.62167 v -0.0584 c -0.003,-0.14452 -0.0264,-0.25417 -0.0703,-0.32866 -0.0439,-0.0745 -0.12007,-0.11162 -0.22841,-0.11162 z m 6.43475,0 c -0.10834,0 -0.18742,0.0394 -0.2372,0.11834 -0.0483,0.079 -0.0765,0.20602 -0.0853,0.38033 h 0.62116 v -0.0584 c -0.003,-0.14452 -0.0264,-0.25417 -0.0703,-0.32866 -0.0439,-0.0745 -0.12006,-0.11162 -0.22841,-0.11162 z" /><path
       id="path162"
       style="fill:#808ff7;fill-opacity:1;stroke-width:0.264583"
       d="m 460.75619,124.61601 c -1.95235,0 -3.53518,1.61081 -3.53518,3.59772 v 3.3047 c 0,1.98665 1.58283,3.59772 3.53518,3.59772 h 27.68565 v -10.50014 z m 28.20345,0 v 10.50014 h 1.96474 v -10.50014 z m 2.48254,0 v 10.50014 h 1.99987 v -10.50014 z m 2.49959,0 v 10.50014 h 2.00039 v -10.50014 z m -21.40128,3.62097 c 0.0513,0 0.0975,0.008 0.13849,0.0243 0.0425,0.0164 0.0782,0.0394 0.10749,0.0692 0.0293,0.0299 0.0521,0.0658 0.0682,0.10748 0.0161,0.0402 0.0238,0.0847 0.0238,0.13384 0,0.0491 -0.008,0.0947 -0.0238,0.13643 -0.0161,0.0402 -0.0389,0.0757 -0.0682,0.10697 -0.0293,0.0299 -0.065,0.0534 -0.10749,0.0698 -0.041,0.0164 -0.0872,0.0243 -0.13849,0.0243 -0.0512,0 -0.0981,-0.008 -0.14056,-0.0243 -0.041,-0.0164 -0.0761,-0.04 -0.10542,-0.0698 -0.0293,-0.0312 -0.0521,-0.0668 -0.0682,-0.10697 -0.0161,-0.0418 -0.0243,-0.0872 -0.0243,-0.13643 0,-0.0491 0.008,-0.0937 0.0243,-0.13384 0.0161,-0.0417 0.0389,-0.0776 0.0682,-0.10748 0.0293,-0.0299 0.0644,-0.0528 0.10542,-0.0692 0.0425,-0.0164 0.0893,-0.0243 0.14056,-0.0243 z m -10.35751,0.0801 c 0.18155,0 0.33796,0.0231 0.46974,0.0693 0.13177,0.0462 0.24184,0.11538 0.32969,0.20774 0.0879,0.0909 0.1552,0.20394 0.20206,0.33951 0.0469,0.1341 0.0767,0.28929 0.0899,0.46509 h -0.62787 c -0.009,-0.1028 -0.0234,-0.1883 -0.0439,-0.25683 -0.019,-0.0686 -0.0471,-0.12308 -0.0837,-0.1633 -0.0351,-0.0417 -0.0791,-0.0715 -0.13178,-0.0894 -0.0512,-0.018 -0.11274,-0.0269 -0.18448,-0.0269 -0.0849,0 -0.15873,0.0158 -0.22169,0.047 -0.063,0.0298 -0.11567,0.0787 -0.15813,0.14728 -0.041,0.0671 -0.072,0.15529 -0.0925,0.26407 -0.0205,0.10728 -0.0305,0.23721 -0.0305,0.39067 v 0.55449 c 0,0.15495 0.0111,0.28598 0.0331,0.39326 0.0234,0.10727 0.0574,0.19553 0.10283,0.26406 0.0469,0.0671 0.10542,0.11597 0.1757,0.14728 0.0703,0.0299 0.1534,0.0444 0.24857,0.0444 0.0571,0 0.10515,-0.004 0.14469,-0.0129 0.041,-0.009 0.0755,-0.0196 0.10336,-0.0315 0.0293,-0.0134 0.0527,-0.0269 0.0703,-0.0403 0.019,-0.0134 0.0348,-0.0246 0.048,-0.0336 v -0.59686 h -0.45216 v -0.49609 h 1.10019 v 1.34307 c -0.0337,0.0372 -0.0788,0.0805 -0.13591,0.12815 -0.0571,0.0477 -0.1291,0.0927 -0.21549,0.13591 -0.0849,0.0417 -0.18509,0.0771 -0.30076,0.10542 -0.11567,0.0298 -0.24917,0.0444 -0.39998,0.0444 -0.17863,0 -0.33969,-0.0288 -0.48317,-0.0853 -0.14349,-0.0565 -0.26648,-0.14207 -0.36897,-0.25683 -0.1025,-0.11472 -0.18155,-0.25926 -0.23719,-0.43357 -0.0542,-0.17581 -0.0811,-0.38169 -0.0811,-0.61857 v -0.55035 c 0,-0.23689 0.0264,-0.44218 0.0791,-0.6165 0.0527,-0.17581 0.12763,-0.32201 0.22427,-0.43822 0.0981,-0.1162 0.21645,-0.20279 0.35554,-0.25941 0.14056,-0.0566 0.29809,-0.0848 0.47232,-0.0848 z m 6.69623,0.83561 v 5.1e-4 c 0.13324,0 0.2527,0.0186 0.35812,0.0558 0.10688,0.0357 0.19766,0.0874 0.27233,0.15452 0.0747,0.0655 0.13152,0.14485 0.17105,0.23874 0.0395,0.0924 0.0594,0.19527 0.0594,0.30851 h -0.62167 c 0,-0.0924 -0.0182,-0.16437 -0.0548,-0.21652 -0.0366,-0.0522 -0.0987,-0.0786 -0.18655,-0.0786 -0.0659,0 -0.12033,0.0207 -0.16279,0.0625 -0.0425,0.0418 -0.0636,0.0996 -0.0636,0.17415 0,0.0312 0.007,0.06 0.0196,0.0853 0.0146,0.0238 0.0375,0.0474 0.0682,0.0713 0.0322,0.0238 0.0738,0.0485 0.12506,0.0739 0.0512,0.0253 0.11447,0.0545 0.18914,0.0873 0.1186,0.0446 0.22108,0.0914 0.30747,0.14056 0.0879,0.0491 0.16045,0.10429 0.21756,0.16536 0.0571,0.0596 0.0993,0.12767 0.12712,0.20361 0.0278,0.076 0.0419,0.16323 0.0419,0.26303 0,0.10728 -0.0205,0.2051 -0.0615,0.293 -0.041,0.0879 -0.0996,0.16325 -0.1757,0.22583 -0.0747,0.0626 -0.16545,0.11201 -0.27233,0.1478 -0.10689,0.0343 -0.22635,0.0512 -0.35812,0.0512 -0.14495,0 -0.2732,-0.0225 -0.38447,-0.0672 -0.10982,-0.0462 -0.2018,-0.10641 -0.27647,-0.18087 -0.0747,-0.076 -0.13091,-0.16141 -0.16898,-0.25528 -0.0381,-0.0953 -0.0574,-0.19159 -0.0574,-0.28991 h 0.59066 c 10e-4,0.0655 0.0102,0.11955 0.0263,0.16278 0.0161,0.0418 0.0377,0.0754 0.0641,0.10077 0.0278,0.0253 0.06,0.0429 0.0966,0.0532 0.0381,0.009 0.0791,0.0139 0.12299,0.0139 0.16691,0 0.25011,-0.077 0.25011,-0.23048 0,-0.0312 -0.008,-0.0594 -0.0243,-0.0848 -0.0146,-0.0268 -0.0386,-0.0526 -0.0723,-0.078 -0.0322,-0.0268 -0.0744,-0.0537 -0.12713,-0.0806 -0.0527,-0.0268 -0.11592,-0.0566 -0.18913,-0.0894 -0.10835,-0.0446 -0.20438,-0.0903 -0.28784,-0.13643 -0.0835,-0.0477 -0.15374,-0.10058 -0.21084,-0.15864 -0.0571,-0.0595 -0.0999,-0.12592 -0.12919,-0.19896 -0.0293,-0.0745 -0.0439,-0.15999 -0.0439,-0.25683 0,-0.10135 0.0182,-0.19631 0.0548,-0.28422 0.0381,-0.0895 0.092,-0.16648 0.16226,-0.23203 0.0703,-0.0671 0.15633,-0.11932 0.25735,-0.15658 0.10249,-0.0388 0.21791,-0.0584 0.34675,-0.0584 z m 2.12184,0 v 5.1e-4 c 0.12739,0 0.2428,0.0207 0.34675,0.0625 0.10542,0.0402 0.195,0.10042 0.2682,0.18087 0.0747,0.079 0.13152,0.17736 0.17105,0.29507 0.041,0.11769 0.0621,0.25381 0.0636,0.40876 h -0.58395 c -0.001,-0.13558 -0.0237,-0.23963 -0.0661,-0.31264 -0.0425,-0.0729 -0.11274,-0.10955 -0.21084,-0.10955 -0.0688,0 -0.12333,0.014 -0.16433,0.0424 -0.0395,0.0283 -0.0705,0.0699 -0.0925,0.12506 -0.0205,0.0536 -0.0345,0.12112 -0.0419,0.20154 -0.006,0.079 -0.009,0.17064 -0.009,0.27492 v 0.17414 c 0,0.10579 0.003,0.19861 0.009,0.27906 0.006,0.079 0.0193,0.14584 0.0398,0.19947 0.022,0.0536 0.0536,0.0937 0.0946,0.1204 0.041,0.0268 0.0966,0.0403 0.16691,0.0403 0.0864,0 0.15262,-0.0269 0.19947,-0.0806 0.0483,-0.0552 0.0735,-0.14739 0.0749,-0.27699 h 0.58395 c -0.001,0.13708 -0.0238,0.26028 -0.0677,0.37052 -0.0439,0.10877 -0.10422,0.20151 -0.18035,0.2775 -0.0747,0.076 -0.16313,0.13392 -0.26562,0.17415 -0.10249,0.0402 -0.21316,0.0605 -0.33176,0.0605 -0.1596,0 -0.29843,-0.0258 -0.41703,-0.078 -0.1186,-0.0522 -0.21756,-0.1275 -0.29662,-0.22582 -0.0776,-0.0998 -0.13617,-0.22187 -0.1757,-0.36639 -0.0381,-0.14453 -0.0574,-0.3098 -0.0574,-0.49454 v -0.17363 c 0,-0.18474 0.0193,-0.34952 0.0574,-0.49403 0.0395,-0.14601 0.0981,-0.26915 0.1757,-0.36897 0.0776,-0.0998 0.17544,-0.17574 0.29404,-0.22789 0.11859,-0.0522 0.25735,-0.0786 0.41548,-0.0786 z m 5.62446,0 v 5.1e-4 c 0.0922,0 0.17716,0.0164 0.25476,0.0491 0.0776,0.0312 0.14435,0.0835 0.19999,0.15658 0.0556,0.073 0.0984,0.16806 0.12919,0.28577 0.0308,0.11769 0.0465,0.26274 0.0465,0.43408 v 1.53737 h -0.62373 v -1.54047 c 0,-0.0774 -0.006,-0.14107 -0.0176,-0.19172 -0.0117,-0.0507 -0.0293,-0.0912 -0.0527,-0.12092 -0.022,-0.0298 -0.05,-0.0506 -0.0837,-0.0625 -0.0337,-0.0119 -0.073,-0.0181 -0.11834,-0.0181 -0.0586,0 -0.11006,0.0158 -0.15399,0.047 -0.0439,0.0312 -0.0803,0.0746 -0.10956,0.1297 v 1.75649 h -0.62373 v -2.41794 h 0.58394 l 0.0176,0.23926 c 0.0688,-0.0924 0.14961,-0.16265 0.24185,-0.21033 0.0922,-0.0491 0.19534,-0.0739 0.30954,-0.0739 z m 1.94355,0 v 5.1e-4 c 0.12738,0 0.24332,0.0207 0.34727,0.0625 0.10542,0.0402 0.19447,0.10042 0.26768,0.18087 0.0747,0.079 0.13204,0.17736 0.17157,0.29507 0.041,0.11769 0.0621,0.25381 0.0636,0.40876 h -0.58446 c -10e-4,-0.13558 -0.0232,-0.23963 -0.0656,-0.31264 -0.0425,-0.0729 -0.11274,-0.10955 -0.21084,-0.10955 -0.0688,0 -0.12386,0.014 -0.16485,0.0424 -0.0395,0.0283 -0.07,0.0699 -0.092,0.12506 -0.0205,0.0536 -0.0345,0.12112 -0.0419,0.20154 -0.006,0.079 -0.009,0.17064 -0.009,0.27492 v 0.17414 c 0,0.10579 0.003,0.19861 0.009,0.27906 0.006,0.079 0.0188,0.14584 0.0393,0.19947 0.022,0.0536 0.0536,0.0937 0.0946,0.1204 0.041,0.0268 0.0966,0.0403 0.16692,0.0403 0.0864,0 0.15312,-0.0269 0.19998,-0.0806 0.0483,-0.0552 0.0729,-0.14739 0.0744,-0.27699 h 0.58446 c -0.002,0.13708 -0.0243,0.26028 -0.0682,0.37052 -0.0439,0.10877 -0.10369,0.20151 -0.17983,0.2775 -0.0747,0.076 -0.16364,0.13392 -0.26613,0.17415 -0.10249,0.0402 -0.21266,0.0605 -0.33125,0.0605 -0.1596,0 -0.29894,-0.0258 -0.41754,-0.078 -0.1186,-0.0522 -0.21757,-0.1275 -0.29663,-0.22582 -0.0776,-0.0998 -0.13617,-0.22187 -0.1757,-0.36639 -0.0381,-0.14453 -0.0568,-0.3098 -0.0568,-0.49454 v -0.17363 c 0,-0.18474 0.0188,-0.34952 0.0568,-0.49403 0.0395,-0.14601 0.0981,-0.26915 0.1757,-0.36897 0.0776,-0.0998 0.17597,-0.17574 0.29456,-0.22789 0.1186,-0.0522 0.25683,-0.0786 0.41496,-0.0786 z m 4.14238,0 v 5.1e-4 c 0.13324,0 0.25218,0.0186 0.3576,0.0558 0.10689,0.0357 0.19766,0.0874 0.27234,0.15452 0.0747,0.0655 0.13203,0.14485 0.17156,0.23874 0.0395,0.0924 0.0594,0.19527 0.0594,0.30851 h -0.62167 c 0,-0.0924 -0.0182,-0.16437 -0.0548,-0.21652 -0.0366,-0.0522 -0.0992,-0.0786 -0.18707,-0.0786 -0.0659,0 -0.1198,0.0207 -0.16226,0.0625 -0.0425,0.0418 -0.0636,0.0996 -0.0636,0.17415 0,0.0312 0.006,0.06 0.0196,0.0853 0.0146,0.0238 0.0375,0.0474 0.0682,0.0713 0.0322,0.0238 0.0738,0.0485 0.12506,0.0739 0.0513,0.0253 0.11395,0.0545 0.18862,0.0873 0.1186,0.0446 0.22109,0.0914 0.30747,0.14056 0.0879,0.0491 0.16046,0.10429 0.21756,0.16536 0.0571,0.0596 0.0998,0.12767 0.12764,0.20361 0.0278,0.076 0.0413,0.16323 0.0413,0.26303 0,0.10728 -0.0205,0.2051 -0.0615,0.293 -0.041,0.0879 -0.0996,0.16325 -0.1757,0.22583 -0.0747,0.0626 -0.16546,0.11201 -0.27234,0.1478 -0.10689,0.0343 -0.22583,0.0512 -0.3576,0.0512 -0.14496,0 -0.27319,-0.0225 -0.38447,-0.0672 -0.10981,-0.0462 -0.20232,-0.10641 -0.27699,-0.18087 -0.0747,-0.076 -0.13092,-0.16141 -0.16898,-0.25528 -0.0381,-0.0953 -0.0568,-0.19159 -0.0568,-0.28991 h 0.59066 c 10e-4,0.0655 0.0104,0.11955 0.0264,0.16278 0.0161,0.0418 0.0372,0.0754 0.0636,0.10077 0.0278,0.0253 0.06,0.0429 0.0966,0.0532 0.0381,0.009 0.0791,0.0139 0.12299,0.0139 0.16691,0 0.25063,-0.077 0.25063,-0.23048 0,-0.0312 -0.008,-0.0594 -0.0243,-0.0848 -0.0146,-0.0268 -0.0386,-0.0526 -0.0723,-0.078 -0.0322,-0.0268 -0.0749,-0.0537 -0.12764,-0.0806 -0.0527,-0.0268 -0.11541,-0.0566 -0.18862,-0.0894 -0.10835,-0.0446 -0.20438,-0.0903 -0.28784,-0.13643 -0.0835,-0.0477 -0.15374,-0.10058 -0.21084,-0.15864 -0.0571,-0.0595 -0.10042,-0.12592 -0.12971,-0.19896 -0.0293,-0.0745 -0.0439,-0.15999 -0.0439,-0.25683 0,-0.10135 0.0182,-0.19631 0.0548,-0.28422 0.0381,-0.0895 0.0925,-0.16648 0.16279,-0.23203 0.0703,-0.0671 0.1558,-0.11932 0.25683,-0.15658 0.10249,-0.0388 0.21841,-0.0584 0.34726,-0.0584 z m -18.11465,5.1e-4 c 0.30162,0 0.5277,0.0989 0.67851,0.29714 0.15081,0.19815 0.22634,0.49171 0.22634,0.88057 v 0.28835 h -1.23662 c 0.004,0.0968 0.0167,0.17784 0.0372,0.2434 0.022,0.0656 0.0512,0.11839 0.0879,0.15865 0.0366,0.0402 0.0805,0.0693 0.13178,0.0873 0.0527,0.0179 0.11187,0.0269 0.17776,0.0269 0.10982,0 0.20757,-0.0186 0.29249,-0.0558 0.0864,-0.0388 0.16252,-0.0922 0.22841,-0.16071 l 0.2434,0.38189 c -0.0307,0.0433 -0.0706,0.0865 -0.12041,0.1297 -0.0498,0.0417 -0.10834,0.08 -0.1757,0.11421 -0.0673,0.0343 -0.14349,0.0614 -0.22841,0.0822 -0.0849,0.0223 -0.17802,0.0341 -0.27905,0.0341 -0.16252,0 -0.30661,-0.0258 -0.43253,-0.0765 -0.12592,-0.0507 -0.23246,-0.12326 -0.31885,-0.21859 -0.0864,-0.0953 -0.15201,-0.21174 -0.1974,-0.34882 -0.0439,-0.13855 -0.0661,-0.29549 -0.0661,-0.47129 v -0.19895 c 0,-0.19666 0.0216,-0.36876 0.0641,-0.51625 0.0439,-0.14899 0.10602,-0.2738 0.18655,-0.37362 0.082,-0.10135 0.18156,-0.17671 0.29869,-0.22737 0.1186,-0.0507 0.25271,-0.0765 0.40205,-0.0765 z m 2.14353,0 c 0.14788,0 0.28086,0.0258 0.39946,0.078 0.1186,0.0507 0.21989,0.12601 0.30334,0.22582 0.0835,0.0998 0.14788,0.22244 0.19327,0.36845 0.0454,0.146 0.0677,0.31411 0.0677,0.50333 v 0.15813 c 0,0.1907 -0.0223,0.35939 -0.0677,0.5054 -0.0439,0.14451 -0.10774,0.26656 -0.1912,0.36638 -0.0835,0.0998 -0.18474,0.17517 -0.30334,0.22583 -0.1186,0.0507 -0.25098,0.076 -0.39739,0.076 -0.14788,0 -0.28086,-0.0253 -0.39946,-0.076 -0.1186,-0.0507 -0.21988,-0.12602 -0.30334,-0.22583 -0.0835,-0.0998 -0.14788,-0.22187 -0.19327,-0.36638 -0.0454,-0.14601 -0.0682,-0.3147 -0.0682,-0.5054 v -0.15813 c 0,-0.18922 0.0228,-0.35733 0.0682,-0.50333 0.0454,-0.14601 0.10981,-0.26863 0.19327,-0.36845 0.0835,-0.0998 0.18363,-0.17516 0.30076,-0.22582 0.1186,-0.0522 0.2515,-0.078 0.3979,-0.078 z m 7.49102,0 c 0.30162,0 0.52822,0.0989 0.67903,0.29714 0.15081,0.19815 0.22582,0.49171 0.22582,0.88057 v 0.28835 h -1.2361 c 0.004,0.0968 0.0167,0.17784 0.0372,0.2434 0.022,0.0656 0.0512,0.11839 0.0879,0.15865 0.0366,0.0402 0.0805,0.0693 0.13178,0.0873 0.0527,0.0179 0.11187,0.0269 0.17776,0.0269 0.10982,0 0.20705,-0.0186 0.29198,-0.0558 0.0864,-0.0388 0.16252,-0.0922 0.22841,-0.16071 l 0.24391,0.38189 c -0.0308,0.0433 -0.0711,0.0865 -0.12093,0.1297 -0.0498,0.0417 -0.10834,0.08 -0.17569,0.11421 -0.0674,0.0343 -0.14349,0.0614 -0.22841,0.0822 -0.0849,0.0223 -0.17751,0.0341 -0.27854,0.0341 -0.16252,0 -0.30713,-0.0258 -0.43305,-0.0765 -0.12592,-0.0507 -0.23194,-0.12326 -0.31833,-0.21859 -0.0864,-0.0953 -0.15201,-0.21174 -0.1974,-0.34882 -0.0439,-0.13855 -0.0661,-0.29549 -0.0661,-0.47129 v -0.19895 c 0,-0.19666 0.0211,-0.36876 0.0636,-0.51625 0.0439,-0.14899 0.10653,-0.2738 0.18706,-0.37362 0.082,-0.10135 0.18156,-0.17671 0.29869,-0.22737 0.1186,-0.0507 0.25218,-0.0765 0.40153,-0.0765 z m 6.43527,0 c 0.30162,0 0.5277,0.0989 0.67851,0.29714 0.1508,0.19815 0.22634,0.49171 0.22634,0.88057 v 0.28835 h -1.23662 c 0.004,0.0968 0.0167,0.17784 0.0372,0.2434 0.022,0.0656 0.0512,0.11839 0.0879,0.15865 0.0366,0.0402 0.0805,0.0693 0.13178,0.0873 0.0527,0.0179 0.11239,0.0269 0.17828,0.0269 0.10981,0 0.20705,-0.0186 0.29197,-0.0558 0.0864,-0.0388 0.16252,-0.0922 0.22841,-0.16071 l 0.24391,0.38189 c -0.0308,0.0433 -0.0711,0.0865 -0.12092,0.1297 -0.0498,0.0417 -0.10834,0.08 -0.1757,0.11421 -0.0674,0.0343 -0.14349,0.0614 -0.22841,0.0822 -0.0849,0.0223 -0.17802,0.0341 -0.27905,0.0341 -0.16252,0 -0.30661,-0.0258 -0.43253,-0.0765 -0.12592,-0.0507 -0.23194,-0.12326 -0.31833,-0.21859 -0.0864,-0.0953 -0.15253,-0.21174 -0.19792,-0.34882 -0.0439,-0.13855 -0.0656,-0.29549 -0.0656,-0.47129 v -0.19895 c 0,-0.19666 0.0211,-0.36876 0.0636,-0.51625 0.0439,-0.14899 0.10602,-0.2738 0.18655,-0.37362 0.082,-0.10135 0.18156,-0.17671 0.29869,-0.22737 0.1186,-0.0507 0.25271,-0.0765 0.40205,-0.0765 z m -8.43566,0.0444 h 0.62373 v 2.41845 h -0.62373 z m -7.63881,0.48059 c -0.10834,0 -0.18742,0.0394 -0.2372,0.11834 -0.0483,0.079 -0.077,0.20602 -0.0858,0.38033 h 0.62167 v -0.0584 c -0.003,-0.14452 -0.0264,-0.25417 -0.0703,-0.32866 -0.0439,-0.0745 -0.12007,-0.11162 -0.22841,-0.11162 z m 2.14818,0 c -0.10542,0 -0.18853,0.0534 -0.24856,0.16071 -0.0586,0.10578 -0.0879,0.26938 -0.0879,0.48989 v 0.15813 c 0,0.22497 0.0304,0.39026 0.0904,0.49455 0.06,0.1028 0.14323,0.15399 0.25011,0.15399 0.11274,0 0.19766,-0.0512 0.25476,-0.15399 0.0571,-0.10429 0.0858,-0.26958 0.0858,-0.49455 v -0.15813 c 0,-0.22051 -0.0299,-0.38411 -0.0899,-0.48989 -0.06,-0.10726 -0.14496,-0.16071 -0.25477,-0.16071 z m 7.48689,0 c -0.10834,0 -0.18742,0.0394 -0.2372,0.11834 -0.0483,0.079 -0.077,0.20602 -0.0858,0.38033 h 0.62167 v -0.0584 c -0.003,-0.14452 -0.0264,-0.25417 -0.0703,-0.32866 -0.0439,-0.0745 -0.12007,-0.11162 -0.22841,-0.11162 z m 6.43475,0 c -0.10834,0 -0.18742,0.0394 -0.2372,0.11834 -0.0483,0.079 -0.0765,0.20602 -0.0853,0.38033 h 0.62116 v -0.0584 c -0.003,-0.14452 -0.0264,-0.25417 -0.0703,-0.32866 -0.0439,-0.0745 -0.12006,-0.11162 -0.22841,-0.11162 z" /></g></svg>
