<?xml version="1.0" encoding="UTF-8" standalone="no"?>
<!-- Created with Inkscape (http://www.inkscape.org/) -->

<svg
   width="104.95851mm"
   height="10.499997mm"
   viewBox="0 0 104.95851 10.499997"
   version="1.1"
   id="svg1"
   xml:space="preserve"
   inkscape:version="1.3.1 (91b66b0783, 2023-11-16)"
   sodipodi:docname="topic_2.svg"
   xmlns:inkscape="http://www.inkscape.org/namespaces/inkscape"
   xmlns:sodipodi="http://sodipodi.sourceforge.net/DTD/sodipodi-0.dtd"
   xmlns="http://www.w3.org/2000/svg"
   xmlns:svg="http://www.w3.org/2000/svg"><sodipodi:namedview
     id="namedview1"
     pagecolor="#ffffff"
     bordercolor="#000000"
     borderopacity="0.25"
     inkscape:showpageshadow="2"
     inkscape:pageopacity="0.0"
     inkscape:pagecheckerboard="0"
     inkscape:deskcolor="#d1d1d1"
     inkscape:document-units="mm"
     inkscape:zoom="1.4142135"
     inkscape:cx="223.0922"
     inkscape:cy="-35.001787"
     inkscape:window-width="2560"
     inkscape:window-height="1346"
     inkscape:window-x="-11"
     inkscape:window-y="-11"
     inkscape:window-maximized="1"
     inkscape:current-layer="layer1"
     showgrid="true"><inkscape:grid
       id="grid668"
       units="mm"
       originx="-378.96233"
       originy="-95.677213"
       spacingx="0.5"
       spacingy="0.5"
       empcolor="#0099e5"
       empopacity="0.30196078"
       color="#0099e5"
       opacity="0.14901961"
       empspacing="5"
       dotted="false"
       gridanglex="30"
       gridanglez="30"
       visible="true" /></sodipodi:namedview><defs
     id="defs1" /><g
     inkscape:label="Layer 1"
     inkscape:groupmode="layer"
     id="layer1"
     transform="translate(-378.96232,-95.677213)"><rect
       style="fill:#f9f9f9;fill-opacity:1;stroke-width:0.499999;stroke-linejoin:round;stroke-miterlimit:3.4;stroke-dashoffset:19.8539"
       id="rect231"
       width="85"
       height="7.5"
       x="382.5"
       y="97.5" /><path
       id="path852"
       style="fill:#2c2c6f;fill-opacity:1;stroke-width:0.264583"
       d="m 382.58845,95.677209 c -2.00267,0 -3.62613,1.61072 -3.62613,3.59759 v 3.303301 c 0,1.98712 1.62346,3.59911 3.62613,3.59911 h 86.3322 V 95.677209 Z m 6.65696,3.47762 h 0.62167 v 1.196631 c 0.0644,-0.0799 0.13763,-0.1415 0.21963,-0.18508 0.0835,-0.0436 0.17544,-0.0656 0.27646,-0.0656 0.0981,0 0.18828,0.0169 0.27027,0.0502 0.082,0.0334 0.15228,0.0863 0.21084,0.15893 0.0586,0.0726 0.10422,0.16731 0.13643,0.28352 0.0322,0.11622 0.0481,0.25747 0.0481,0.42452 v 1.48425 h -0.62374 v -1.48836 c 0,-0.0755 -0.006,-0.13885 -0.0176,-0.18969 -0.0117,-0.0509 -0.0293,-0.0916 -0.0527,-0.12202 -0.0234,-0.0305 -0.0521,-0.052 -0.0858,-0.0651 -0.0337,-0.0131 -0.0729,-0.02 -0.11834,-0.02 -0.0615,0 -0.1136,0.0139 -0.15606,0.0416 -0.0425,0.0276 -0.0782,0.0654 -0.10749,0.11331 v 1.72983 h -0.62166 z m 45.84372,0 h 0.62115 v 1.196631 c 0.0644,-0.0799 0.13763,-0.1415 0.21962,-0.18508 0.0835,-0.0436 0.17596,-0.0656 0.27699,-0.0656 0.0981,0 0.18827,0.0169 0.27027,0.0502 0.082,0.0334 0.15227,0.0863 0.21084,0.15893 0.0586,0.0726 0.10369,0.16731 0.1359,0.28352 0.0322,0.11622 0.0486,0.25747 0.0486,0.42452 v 1.48425 h -0.62373 v -1.48836 c 0,-0.0755 -0.006,-0.13885 -0.0176,-0.18969 -0.0117,-0.0509 -0.0293,-0.0916 -0.0527,-0.12202 -0.0234,-0.0305 -0.0521,-0.0525 -0.0858,-0.0656 -0.0337,-0.0131 -0.0735,-0.0195 -0.11886,-0.0195 -0.0615,0 -0.11308,0.0139 -0.15554,0.0416 -0.0425,0.0276 -0.0787,0.0654 -0.108,0.11331 v 1.72983 h -0.62116 z m -23.85023,5.1e-4 h 0.62115 v 1.180741 c 0.0556,-0.0741 0.12179,-0.13159 0.19792,-0.17226 0.0761,-0.0422 0.16459,-0.0631 0.26562,-0.0631 0.26648,0 0.46147,0.0976 0.58446,0.29224 0.12299,0.1932 0.18449,0.47681 0.18449,0.85159 v 0.15483 c 0,0.38204 -0.0615,0.66906 -0.18449,0.86082 -0.12299,0.19029 -0.31626,0.28556 -0.57981,0.28556 -0.10981,0 -0.20584,-0.0243 -0.28784,-0.0723 -0.0805,-0.0494 -0.1502,-0.11743 -0.20877,-0.20457 l -0.0196,0.23328 h -0.57309 z m 19.18746,0 h 0.6258 v 3.346881 h -0.5643 l -0.0284,-0.23995 c -0.06,0.0886 -0.13144,0.15835 -0.21343,0.20918 -0.0805,0.0494 -0.17312,0.0743 -0.27853,0.0743 -0.25184,0 -0.4439,-0.0969 -0.57568,-0.29018 -0.13031,-0.1932 -0.19534,-0.4762 -0.19534,-0.84953 v -0.15484 c 0,-0.38641 0.0656,-0.67462 0.19741,-0.86492 0.13177,-0.19029 0.32384,-0.28557 0.57567,-0.28557 0.0966,0 0.18216,0.0209 0.25684,0.0631 0.0761,0.0407 0.14288,0.0982 0.19998,0.17226 z m 16.28945,0 h 0.62373 v 3.346881 h -0.62373 z m 4.72839,0 h 0.62373 v 3.346881 h -0.62373 z m -9.73791,0.0518 c 0.0512,0 0.0975,0.008 0.1385,0.0241 0.0425,0.016 0.0782,0.0386 0.10748,0.0677 0.0293,0.0291 0.0521,0.0639 0.0682,0.10459 0.0161,0.0392 0.0238,0.0828 0.0238,0.13074 0,0.0479 -0.008,0.0922 -0.0238,0.13279 -0.0161,0.0392 -0.0389,0.0741 -0.0682,0.10459 -0.0293,0.0291 -0.065,0.0517 -0.10748,0.0677 -0.041,0.016 -0.0872,0.0241 -0.1385,0.0241 -0.0513,0 -0.0981,-0.008 -0.14056,-0.0241 -0.041,-0.016 -0.0761,-0.0386 -0.10542,-0.0677 -0.0293,-0.0305 -0.0521,-0.0654 -0.0682,-0.10459 -0.0161,-0.0407 -0.0243,-0.0848 -0.0243,-0.13279 0,-0.0479 0.008,-0.0916 0.0243,-0.13074 0.0161,-0.0407 0.0389,-0.0755 0.0682,-0.10459 0.0293,-0.0291 0.0644,-0.0517 0.10542,-0.0677 0.0425,-0.016 0.0893,-0.0241 0.14056,-0.0241 z m 17.72605,0 c 0.0512,0 0.097,0.008 0.13798,0.0241 0.0425,0.016 0.0787,0.0386 0.108,0.0677 0.0293,0.0291 0.0516,0.0639 0.0677,0.10459 0.0161,0.0392 0.0243,0.0828 0.0243,0.13074 0,0.0479 -0.008,0.0922 -0.0243,0.13279 -0.0161,0.0392 -0.0384,0.0741 -0.0677,0.10459 -0.0293,0.0291 -0.0655,0.0517 -0.108,0.0677 -0.041,0.016 -0.0867,0.0241 -0.13798,0.0241 -0.0512,0 -0.0981,-0.008 -0.14056,-0.0241 -0.041,-0.016 -0.0761,-0.0386 -0.10542,-0.0677 -0.0293,-0.0305 -0.0521,-0.0654 -0.0682,-0.10459 -0.0161,-0.0407 -0.0243,-0.0848 -0.0243,-0.13279 0,-0.0479 0.008,-0.0916 0.0243,-0.13074 0.0161,-0.0407 0.0389,-0.0755 0.0682,-0.10459 0.0293,-0.0291 0.0644,-0.0517 0.10542,-0.0677 0.0425,-0.016 0.0893,-0.0241 0.14056,-0.0241 z m -67.61964,5.2e-4 c 0.0512,0 0.0975,0.008 0.13849,0.0236 0.0425,0.016 0.0782,0.0386 0.10749,0.0677 0.0293,0.0291 0.0521,0.0639 0.0682,0.10459 0.0161,0.0392 0.0243,0.0828 0.0243,0.13074 0,0.0479 -0.008,0.0922 -0.0243,0.13279 -0.0161,0.0392 -0.0389,0.0741 -0.0682,0.10459 -0.0293,0.0291 -0.065,0.0517 -0.10749,0.0677 -0.041,0.016 -0.0872,0.0241 -0.13849,0.0241 -0.0512,0 -0.0981,-0.008 -0.14056,-0.0241 -0.041,-0.016 -0.0761,-0.0386 -0.10542,-0.0677 -0.0293,-0.0305 -0.0516,-0.0654 -0.0677,-0.10459 -0.0161,-0.0407 -0.0243,-0.0848 -0.0243,-0.13279 0,-0.0479 0.008,-0.0916 0.0243,-0.13074 0.0161,-0.0407 0.0384,-0.0755 0.0677,-0.10459 0.0293,-0.0291 0.0644,-0.0517 0.10542,-0.0677 0.0425,-0.016 0.0893,-0.0236 0.14056,-0.0236 z m 28.36468,0 c 0.0512,0 0.0975,0.008 0.13849,0.0236 0.0425,0.016 0.0782,0.0386 0.10748,0.0677 0.0293,0.0291 0.0521,0.0639 0.0682,0.10459 0.0161,0.0392 0.0243,0.0828 0.0243,0.13074 0,0.0479 -0.008,0.0922 -0.0243,0.13279 -0.0161,0.0392 -0.0389,0.0741 -0.0682,0.10459 -0.0293,0.0291 -0.065,0.0517 -0.10748,0.0677 -0.041,0.016 -0.0872,0.0241 -0.13849,0.0241 -0.0513,0 -0.0981,-0.008 -0.14056,-0.0241 -0.041,-0.016 -0.0761,-0.0386 -0.10542,-0.0677 -0.0293,-0.0305 -0.0521,-0.0654 -0.0682,-0.10459 -0.0161,-0.0407 -0.0238,-0.0848 -0.0238,-0.13279 0,-0.0479 0.008,-0.0916 0.0238,-0.13074 0.0161,-0.0407 0.0389,-0.0755 0.0682,-0.10459 0.0293,-0.0291 0.0644,-0.0517 0.10542,-0.0677 0.0425,-0.016 0.0893,-0.0236 0.14056,-0.0236 z m -36.2996,0.12202 h 0.59066 l 1.00614,3.172561 h -0.68988 l -0.17105,-0.64958 h -0.88056 l -0.17157,0.64958 h -0.68316 z m 23.30452,0 h 0.65009 v 2.178961 c 0,0.10459 0.009,0.18943 0.0264,0.2548 0.0176,0.0654 0.0433,0.11704 0.077,0.15483 0.0351,0.0363 0.0773,0.0613 0.12713,0.0759 0.0512,0.0131 0.10981,0.02 0.1757,0.02 0.0659,0 0.12385,-0.007 0.17363,-0.02 0.0512,-0.0146 0.0935,-0.0396 0.12712,-0.0759 0.0337,-0.0378 0.0594,-0.0895 0.077,-0.15483 0.0176,-0.0654 0.0264,-0.15019 0.0264,-0.2548 v -2.178961 h 0.64596 v 2.178961 c 0,0.18448 -0.0264,0.34196 -0.0791,0.4727 -0.0512,0.13074 -0.12385,0.23823 -0.21756,0.32248 -0.0922,0.0829 -0.20292,0.14381 -0.33176,0.18304 -0.12885,0.0392 -0.26941,0.0589 -0.42168,0.0589 -0.1552,0 -0.29809,-0.0197 -0.4284,-0.0589 -0.12885,-0.0392 -0.24012,-0.10023 -0.33383,-0.18304 -0.0922,-0.0842 -0.16433,-0.19174 -0.21704,-0.32248 -0.0513,-0.13074 -0.077,-0.28822 -0.077,-0.4727 z m 25.39432,0 h 1.08934 c 0.16252,0 0.30721,0.0261 0.4346,0.0785 0.12884,0.0523 0.2378,0.12554 0.32711,0.21994 0.0893,0.093 0.15778,0.20396 0.20464,0.33324 0.0483,0.127841 0.0723,0.267291 0.0723,0.418361 0,0.15398 -0.024,0.29344 -0.0723,0.41836 -0.0469,0.12348 -0.11533,0.22867 -0.20464,0.31583 -0.0893,0.0872 -0.19827,0.1551 -0.32711,0.20303 -0.12885,0.0465 -0.27354,0.0697 -0.4346,0.0697 h -0.4439 v 1.11563 h -0.64544 z m 16.31115,0 h 1.08934 c 0.16252,0 0.30773,0.0261 0.43511,0.0785 0.12885,0.0523 0.2378,0.12554 0.32711,0.21994 0.0893,0.093 0.15727,0.20396 0.20413,0.33324 0.0483,0.127841 0.0729,0.267291 0.0729,0.418361 0,0.15398 -0.0245,0.29344 -0.0729,0.41836 -0.0469,0.12348 -0.11481,0.22867 -0.20413,0.31583 -0.0893,0.0872 -0.19826,0.1551 -0.32711,0.20303 -0.12884,0.0465 -0.27406,0.0697 -0.43511,0.0697 h -0.44339 v 1.11563 h -0.64595 z m -55.55734,0.23533 v 0.579341 h 0.31833 v 0.46399 h -0.31833 v 1.17048 c 0,0.0494 0.003,0.0901 0.009,0.12202 0.007,0.0319 0.0184,0.0574 0.0331,0.0764 0.0161,0.0174 0.036,0.0297 0.0594,0.0369 0.0234,0.006 0.0516,0.009 0.0853,0.009 0.0308,0 0.0588,-9.9e-4 0.0837,-0.004 0.0263,-0.003 0.0474,-0.006 0.0636,-0.0108 l -0.004,0.47937 c -0.0469,0.0175 -0.0978,0.0315 -0.15192,0.0416 -0.0542,0.0116 -0.11748,0.0175 -0.19069,0.0175 -0.0922,0 -0.17596,-0.0134 -0.25063,-0.0395 -0.0747,-0.0247 -0.1391,-0.0642 -0.19327,-0.11946 -0.0527,-0.0566 -0.0937,-0.12932 -0.12299,-0.21789 -0.0278,-0.0886 -0.0419,-0.19551 -0.0419,-0.32044 v -1.2397 h -0.2744 v -0.46449 h 0.2744 v -0.579361 z m 5.60276,0 v 0.579341 h 0.31833 v 0.46399 h -0.31833 v 1.17048 c 0,0.0494 0.003,0.0901 0.009,0.12202 0.007,0.0319 0.0184,0.0574 0.0331,0.0764 0.0161,0.0174 0.036,0.0297 0.0594,0.0369 0.0234,0.006 0.0516,0.009 0.0853,0.009 0.0308,0 0.0588,-9.9e-4 0.0837,-0.004 0.0263,-0.003 0.0475,-0.006 0.0636,-0.0108 l -0.005,0.47937 c -0.0469,0.0175 -0.0972,0.0315 -0.15141,0.0416 -0.0542,0.0116 -0.11799,0.0175 -0.1912,0.0175 -0.0922,0 -0.17544,-0.0134 -0.25012,-0.0395 -0.0747,-0.0247 -0.13909,-0.0642 -0.19326,-0.11946 -0.0527,-0.0566 -0.0937,-0.12932 -0.12299,-0.21789 -0.0278,-0.0886 -0.0419,-0.19551 -0.0419,-0.32044 v -1.2397 h -0.27438 v -0.46449 h 0.27441 v -0.579361 z m 34.28887,0.29838 v 0.988991 h 0.4439 c 0.0673,0 0.1248,-0.0116 0.17311,-0.0348 0.0498,-0.0232 0.0902,-0.0552 0.12093,-0.0958 0.0322,-0.0422 0.0556,-0.0916 0.0703,-0.14817 0.0146,-0.0581 0.0222,-0.12095 0.0222,-0.18919 0,-0.0683 -0.008,-0.1339 -0.0222,-0.19636 -0.0146,-0.0624 -0.0381,-0.11763 -0.0703,-0.1656 -0.0308,-0.0479 -0.0711,-0.0863 -0.12093,-0.115351 -0.0483,-0.0291 -0.10576,-0.0436 -0.17311,-0.0436 z m 16.31166,0 v 0.988991 h 0.44339 c 0.0673,0 0.12531,-0.0116 0.17363,-0.0348 0.0498,-0.0232 0.0902,-0.0552 0.12092,-0.0958 0.0322,-0.0422 0.0556,-0.0916 0.0703,-0.14817 0.0146,-0.0581 0.0217,-0.12095 0.0217,-0.18919 0,-0.0683 -0.007,-0.1339 -0.0217,-0.19636 -0.0146,-0.0624 -0.0381,-0.11763 -0.0703,-0.1656 -0.0308,-0.0479 -0.0711,-0.0863 -0.12092,-0.115351 -0.0483,-0.0291 -0.10628,-0.0436 -0.17363,-0.0436 z m -62.78325,0.236851 c 0.0278,0 0.0577,0.003 0.0899,0.009 0.0337,0.005 0.0611,0.011 0.0817,0.0195 l -0.007,0.61011 c -0.0278,-0.003 -0.0624,-0.006 -0.10335,-0.0108 -0.0395,-0.005 -0.0741,-0.007 -0.10335,-0.007 -0.0893,0 -0.1614,0.0187 -0.21704,0.0564 -0.0556,0.0378 -0.0984,0.093 -0.12764,0.16559 v 1.55809 h -0.62374 v -2.35789 h 0.58653 l 0.0176,0.25533 c 0.0468,-0.0944 0.1037,-0.16816 0.17105,-0.22046 0.0688,-0.0523 0.14728,-0.0785 0.23513,-0.0785 z m 16.06362,0 c 0.0278,0 0.0577,0.003 0.0899,0.009 0.0337,0.005 0.0606,0.011 0.0811,0.0195 l -0.006,0.61011 c -0.0278,-0.003 -0.0624,-0.006 -0.10335,-0.0108 -0.0395,-0.005 -0.0741,-0.007 -0.10335,-0.007 -0.0893,0 -0.16192,0.0187 -0.21756,0.0564 -0.0556,0.0378 -0.0978,0.093 -0.12712,0.16559 v 1.55809 h -0.62374 v -2.35789 h 0.58653 l 0.0176,0.25533 c 0.0469,-0.0944 0.1037,-0.16816 0.17105,-0.22046 0.0688,-0.0523 0.14728,-0.0785 0.23513,-0.0785 z m 7.94164,0 c 0.0278,0 0.0577,0.003 0.0899,0.009 0.0337,0.005 0.0606,0.011 0.0811,0.0195 l -0.007,0.61011 c -0.0278,-0.003 -0.0618,-0.006 -0.10284,-0.0108 -0.0395,-0.005 -0.0741,-0.007 -0.10335,-0.007 -0.0893,0 -0.16192,0.0187 -0.21756,0.0564 -0.0556,0.0378 -0.0978,0.093 -0.12712,0.16559 v 1.55809 h -0.62374 v -2.35789 h 0.58601 l 0.0176,0.25533 c 0.0469,-0.0944 0.10422,-0.16816 0.17157,-0.22046 0.0688,-0.0523 0.14728,-0.0785 0.23513,-0.0785 z m -22.69629,5.1e-4 c 0.12738,0 0.24331,0.0203 0.34726,0.061 0.10542,0.0392 0.19448,0.0979 0.26769,0.17637 0.0747,0.077 0.13203,0.17286 0.17156,0.28762 0.041,0.11476 0.0621,0.24781 0.0636,0.39888 h -0.58446 c -0.002,-0.13219 -0.0232,-0.23387 -0.0656,-0.30505 -0.0425,-0.0712 -0.11274,-0.10665 -0.21084,-0.10665 -0.0688,0 -0.12385,0.0134 -0.16484,0.041 -0.0395,0.0276 -0.07,0.0683 -0.092,0.12202 -0.0205,0.0523 -0.0345,0.11794 -0.0419,0.19636 -0.006,0.077 -0.009,0.16646 -0.009,0.26814 v 0.16971 c 0,0.10314 0.003,0.1938 0.009,0.27224 0.006,0.077 0.0188,0.14201 0.0393,0.19431 0.022,0.0523 0.0536,0.0913 0.0946,0.1174 0.041,0.0261 0.0966,0.0395 0.16691,0.0395 0.0864,0 0.15314,-0.0261 0.19999,-0.0785 0.0483,-0.0538 0.0729,-0.14384 0.0744,-0.27018 h 0.58446 c -0.002,0.13364 -0.0243,0.25394 -0.0682,0.36144 -0.0439,0.10604 -0.1037,0.19611 -0.17983,0.27019 -0.0747,0.0741 -0.16365,0.13099 -0.26614,0.17022 -0.10249,0.0392 -0.21265,0.0589 -0.33124,0.0589 -0.1596,0 -0.29895,-0.0255 -0.41755,-0.0764 -0.1186,-0.0509 -0.21756,-0.12409 -0.29662,-0.21995 -0.0776,-0.0973 -0.13617,-0.21644 -0.1757,-0.35735 -0.0381,-0.1409 -0.0568,-0.3018 -0.0568,-0.48193 v -0.16971 c 0,-0.18012 0.0188,-0.3405 0.0568,-0.48142 0.0395,-0.14236 0.0981,-0.26258 0.1757,-0.35991 0.0776,-0.0973 0.17596,-0.17115 0.29455,-0.222 0.1186,-0.0509 0.25683,-0.0764 0.41496,-0.0764 z m 6.82594,0 c 0.30162,0 0.5277,0.0964 0.67851,0.28968 0.15081,0.1932 0.22634,0.47962 0.22634,0.85876 v 0.28095 h -1.23661 c 0.004,0.0944 0.0172,0.17348 0.0377,0.23738 0.022,0.0639 0.0512,0.11559 0.0879,0.15484 0.0366,0.0392 0.0805,0.0678 0.13177,0.0851 0.0527,0.0175 0.11188,0.0262 0.17777,0.0262 0.10981,0 0.20705,-0.0181 0.29197,-0.0544 0.0864,-0.0378 0.16252,-0.0901 0.22841,-0.15689 l 0.24391,0.37222 c -0.0307,0.0422 -0.0711,0.0845 -0.12092,0.12664 -0.0498,0.0407 -0.10835,0.0779 -0.1757,0.11125 -0.0674,0.0334 -0.14349,0.0601 -0.22841,0.0805 -0.0849,0.0217 -0.17803,0.0328 -0.27905,0.0328 -0.16252,0 -0.30662,-0.0249 -0.43253,-0.0743 -0.12592,-0.0494 -0.23194,-0.12032 -0.31833,-0.21327 -0.0864,-0.093 -0.15253,-0.20629 -0.19792,-0.33993 -0.0439,-0.13508 -0.0656,-0.28847 -0.0656,-0.45988 v -0.1938 c 0,-0.19175 0.0211,-0.35965 0.0636,-0.50346 0.0439,-0.14527 0.10602,-0.2667 0.18655,-0.36402 0.082,-0.0988 0.18156,-0.17261 0.29869,-0.222 0.1186,-0.0494 0.2527,-0.0743 0.40204,-0.0743 z m 2.1239,0 c 0.12738,0 0.24279,0.0203 0.34675,0.061 0.10542,0.0392 0.19499,0.0979 0.2682,0.17637 0.0747,0.077 0.13152,0.17286 0.17105,0.28762 0.041,0.11476 0.0626,0.24781 0.0641,0.39888 h -0.58446 c -0.001,-0.13219 -0.0232,-0.23387 -0.0656,-0.30505 -0.0425,-0.0712 -0.11274,-0.10665 -0.21084,-0.10665 -0.0688,0 -0.12385,0.0134 -0.16485,0.041 -0.0395,0.0276 -0.0705,0.0683 -0.0925,0.12202 -0.0205,0.0523 -0.034,0.11794 -0.0413,0.19636 -0.006,0.077 -0.009,0.16646 -0.009,0.26814 v 0.16971 c 0,0.10314 0.003,0.1938 0.009,0.27224 0.006,0.077 0.0188,0.14201 0.0393,0.19431 0.022,0.0523 0.0536,0.0913 0.0946,0.1174 0.041,0.0261 0.0966,0.0395 0.16692,0.0395 0.0864,0 0.15313,-0.0261 0.19998,-0.0785 0.0483,-0.0538 0.0729,-0.14384 0.0744,-0.27018 h 0.58446 c -0.002,0.13364 -0.0243,0.25394 -0.0682,0.36144 -0.0439,0.10604 -0.10421,0.19611 -0.18035,0.27019 -0.0747,0.0741 -0.16312,0.13099 -0.26561,0.17022 -0.10249,0.0392 -0.21317,0.0589 -0.33177,0.0589 -0.15959,0 -0.29843,-0.0255 -0.41703,-0.0764 -0.11859,-0.0509 -0.21755,-0.12409 -0.29662,-0.21995 -0.0776,-0.0973 -0.13617,-0.21644 -0.1757,-0.35735 -0.0381,-0.1409 -0.0568,-0.3018 -0.0568,-0.48193 v -0.16971 c 0,-0.18012 0.0188,-0.3405 0.0568,-0.48142 0.0395,-0.14236 0.0981,-0.26258 0.1757,-0.35991 0.0776,-0.0973 0.17596,-0.17115 0.29456,-0.222 0.1186,-0.0509 0.25683,-0.0764 0.41496,-0.0764 z m 7.1422,0 c 0.30162,0 0.5277,0.0964 0.67851,0.28968 0.15081,0.1932 0.22634,0.47962 0.22634,0.85876 v 0.28095 h -1.23661 c 0.004,0.0944 0.0172,0.17348 0.0377,0.23738 0.022,0.0639 0.0512,0.11559 0.0879,0.15484 0.0366,0.0392 0.0805,0.0678 0.13177,0.0851 0.0527,0.0175 0.11188,0.0262 0.17777,0.0262 0.10981,0 0.20705,-0.0181 0.29197,-0.0544 0.0864,-0.0378 0.16252,-0.0901 0.22841,-0.15689 l 0.24391,0.37222 c -0.0307,0.0422 -0.0711,0.0845 -0.12092,0.12664 -0.0498,0.0407 -0.10835,0.0779 -0.1757,0.11125 -0.0674,0.0334 -0.14349,0.0601 -0.22841,0.0805 -0.0849,0.0217 -0.17802,0.0328 -0.27905,0.0328 -0.16252,0 -0.30662,-0.0249 -0.43253,-0.0743 -0.12592,-0.0494 -0.23194,-0.12032 -0.31833,-0.21327 -0.0864,-0.093 -0.15253,-0.20629 -0.19792,-0.33993 -0.0439,-0.13508 -0.0656,-0.28847 -0.0656,-0.45988 v -0.1938 c 0,-0.19175 0.0211,-0.35965 0.0636,-0.50346 0.0439,-0.14527 0.10602,-0.2667 0.18655,-0.36402 0.082,-0.0988 0.18156,-0.17261 0.29869,-0.222 0.1186,-0.0494 0.2527,-0.0743 0.40204,-0.0743 z m 10.16217,0 c 0.1186,0 0.22755,0.0157 0.32711,0.0461 0.0996,0.0291 0.18569,0.0755 0.2589,0.13946 0.0732,0.0624 0.13057,0.14267 0.17157,0.24148 0.041,0.0973 0.0615,0.21525 0.0615,0.35325 v 1.0459 c 0,0.0682 0.001,0.12928 0.004,0.18302 0.004,0.0523 0.0103,0.10001 0.0176,0.14356 0.007,0.0422 0.0161,0.081 0.0264,0.11587 0.0117,0.0334 0.0251,0.0649 0.0398,0.0954 v 0.0374 h -0.6258 c -0.0117,-0.0247 -0.0222,-0.0526 -0.031,-0.083 -0.007,-0.0319 -0.0144,-0.0651 -0.0217,-0.1 -0.0468,0.0639 -0.10775,0.11739 -0.18242,0.161 -0.0732,0.0435 -0.16339,0.0656 -0.27027,0.0656 -0.0966,0 -0.18741,-0.0169 -0.27234,-0.0502 -0.0835,-0.0334 -0.15666,-0.0805 -0.21962,-0.1415 -0.0615,-0.061 -0.11067,-0.13422 -0.14728,-0.21995 -0.0351,-0.0872 -0.0527,-0.18474 -0.0527,-0.29223 0,-0.11911 0.0193,-0.22661 0.0574,-0.32249 0.0395,-0.0973 0.0981,-0.17927 0.1757,-0.2461 0.0791,-0.0682 0.17691,-0.12057 0.29404,-0.15688 0.1186,-0.0363 0.25795,-0.0544 0.41755,-0.0544 h 0.16898 v -0.1897 c 0,-0.10604 -0.0182,-0.18098 -0.0548,-0.22456 -0.0366,-0.0436 -0.0899,-0.0651 -0.1602,-0.0651 -0.0805,0 -0.14021,0.0238 -0.17828,0.0718 -0.0366,0.0465 -0.0548,0.11272 -0.0548,0.19842 h -0.62167 c 0,-0.10314 0.0199,-0.20012 0.0594,-0.29019 0.041,-0.0915 0.0996,-0.17115 0.1757,-0.23943 0.0761,-0.0683 0.16752,-0.12228 0.2744,-0.1615 0.10689,-0.0407 0.22807,-0.061 0.36277,-0.061 z m 2.40709,0 c 0.0922,0 0.17716,0.0163 0.25476,0.0482 0.0776,0.0305 0.14384,0.0811 0.19947,0.15227 0.0556,0.0712 0.099,0.16414 0.12971,0.2789 0.0308,0.11476 0.046,0.25592 0.046,0.42298 v 1.49912 h -0.62373 v -1.50168 c 0,-0.0755 -0.006,-0.13775 -0.0176,-0.18714 -0.0117,-0.0494 -0.0293,-0.0889 -0.0527,-0.11792 -0.022,-0.0291 -0.0495,-0.0494 -0.0832,-0.061 -0.0337,-0.0116 -0.0735,-0.0175 -0.11886,-0.0175 -0.0586,0 -0.10955,0.0152 -0.15348,0.0456 -0.0439,0.0305 -0.0808,0.0728 -0.11007,0.12663 v 1.7124 h -0.62373 v -2.35737 h 0.58446 l 0.0176,0.23328 c 0.0688,-0.0901 0.14908,-0.1586 0.24133,-0.20508 0.0922,-0.0479 0.19585,-0.0718 0.31006,-0.0718 z m 1.86448,0 c 0.13324,0 0.2527,0.0181 0.35812,0.0544 0.10689,0.0348 0.19766,0.0848 0.27234,0.15021 0.0747,0.0639 0.13151,0.14174 0.17105,0.23328 0.0395,0.0901 0.0594,0.19056 0.0594,0.30096 h -0.62167 c 0,-0.0901 -0.0182,-0.16091 -0.0548,-0.21174 -0.0366,-0.0509 -0.0987,-0.0759 -0.18655,-0.0759 -0.0659,0 -0.12032,0.0203 -0.16278,0.061 -0.0425,0.0407 -0.0636,0.097 -0.0636,0.16971 0,0.0305 0.006,0.0583 0.0196,0.083 0.0146,0.0232 0.0375,0.0464 0.0682,0.0697 0.0322,0.0232 0.0738,0.047 0.12505,0.0717 0.0512,0.0247 0.11447,0.0532 0.18914,0.0851 0.1186,0.0436 0.22109,0.089 0.30747,0.13688 0.0879,0.0479 0.15994,0.10195 0.21704,0.1615 0.0571,0.0581 0.0998,0.12437 0.12765,0.19842 0.0278,0.0741 0.0419,0.15953 0.0419,0.25686 0,0.10459 -0.0205,0.19986 -0.0615,0.28557 -0.041,0.0857 -0.0996,0.15894 -0.1757,0.21995 -0.0747,0.061 -0.16546,0.10917 -0.27234,0.14406 -0.10688,0.0334 -0.22634,0.0497 -0.35812,0.0497 -0.14495,0 -0.27319,-0.0215 -0.38447,-0.0651 -0.10981,-0.0451 -0.2018,-0.10375 -0.27647,-0.17638 -0.0747,-0.0741 -0.13143,-0.15713 -0.1695,-0.24865 -0.0381,-0.093 -0.0568,-0.18714 -0.0568,-0.28301 h 0.59066 c 0.002,0.0639 0.0102,0.11679 0.0263,0.15893 0.0161,0.0407 0.0372,0.0732 0.0636,0.0979 0.0278,0.0247 0.06,0.0422 0.0966,0.0523 0.0381,0.009 0.0791,0.0133 0.12299,0.0133 0.16692,0 0.25063,-0.0749 0.25063,-0.22456 0,-0.0305 -0.008,-0.0578 -0.0243,-0.0825 -0.0146,-0.0261 -0.0387,-0.0517 -0.0723,-0.0764 -0.0322,-0.0261 -0.0749,-0.0523 -0.12764,-0.0785 -0.0527,-0.0261 -0.1154,-0.0552 -0.18861,-0.0871 -0.10835,-0.0435 -0.20439,-0.0883 -0.28784,-0.1333 -0.0835,-0.0465 -0.15374,-0.0977 -0.21084,-0.15432 -0.0571,-0.0581 -0.10042,-0.12318 -0.12971,-0.19431 -0.0293,-0.0726 -0.0439,-0.15578 -0.0439,-0.2502 0,-0.0988 0.0187,-0.19116 0.0553,-0.27686 0.0381,-0.0871 0.092,-0.1627 0.16226,-0.22661 0.0703,-0.0654 0.15581,-0.11645 0.25684,-0.15278 0.10249,-0.0378 0.21841,-0.0564 0.34726,-0.0564 z m 3.54036,0 c 0.10981,0 0.20765,0.0255 0.29404,0.0764 0.0879,0.0509 0.15752,0.13161 0.20877,0.24199 0.0644,-0.10022 0.14409,-0.17807 0.23926,-0.23327 0.0966,-0.0566 0.21084,-0.0851 0.34261,-0.0851 0.0966,0 0.18389,0.0163 0.26149,0.0482 0.0791,0.0319 0.14641,0.0831 0.20205,0.15432 0.0556,0.0711 0.099,0.16414 0.12971,0.27891 0.0308,0.11475 0.046,0.25532 0.046,0.42092 v 1.49912 h -0.62167 v -1.50168 c 0,-0.0785 -0.006,-0.14236 -0.0176,-0.19175 -0.0102,-0.0494 -0.0261,-0.0878 -0.0481,-0.11537 -0.022,-0.0291 -0.0483,-0.0488 -0.0791,-0.0589 -0.0308,-0.0116 -0.0659,-0.0175 -0.10542,-0.0175 -0.0615,0 -0.1136,0.0191 -0.15606,0.057 -0.0425,0.0378 -0.077,0.089 -0.10335,0.15431 10e-4,0.016 0.003,0.0328 0.003,0.0502 0.002,0.0174 0.002,0.0348 0.002,0.0523 v 1.57089 h -0.62167 v -1.49655 c 0,-0.0785 -0.006,-0.14236 -0.0176,-0.19175 -0.0102,-0.0509 -0.0261,-0.091 -0.0481,-0.11997 -0.0205,-0.0291 -0.0469,-0.0488 -0.0791,-0.0589 -0.0308,-0.0116 -0.0659,-0.0175 -0.10542,-0.0175 -0.0571,0 -0.10688,0.0152 -0.14934,0.0456 -0.041,0.0305 -0.0761,0.0728 -0.10542,0.12663 v 1.7124 h -0.62167 v -2.35737 h 0.58188 l 0.0176,0.21789 c 0.0659,-0.0828 0.14434,-0.14671 0.23512,-0.19174 0.0922,-0.0465 0.19767,-0.0697 0.31626,-0.0697 z m 3.67109,0 c 0.1186,0 0.22755,0.0157 0.32711,0.0461 0.0996,0.0291 0.18621,0.0755 0.25942,0.13946 0.0732,0.0624 0.13005,0.14267 0.17105,0.24148 0.041,0.0973 0.0615,0.21525 0.0615,0.35325 v 1.0459 c 0,0.0682 0.002,0.12928 0.005,0.18302 0.004,0.0523 0.0103,0.10001 0.0176,0.14356 0.007,0.0422 0.0161,0.081 0.0264,0.11587 0.0117,0.0334 0.0246,0.0649 0.0393,0.0954 v 0.0374 h -0.6258 c -0.0117,-0.0247 -0.0222,-0.0526 -0.031,-0.083 -0.007,-0.0319 -0.0144,-0.0651 -0.0217,-0.1 -0.0469,0.0639 -0.10775,0.11739 -0.18242,0.161 -0.0732,0.0435 -0.16339,0.0656 -0.27027,0.0656 -0.0966,0 -0.18741,-0.0169 -0.27234,-0.0502 -0.0835,-0.0334 -0.15666,-0.0805 -0.21962,-0.1415 -0.0615,-0.061 -0.11016,-0.13422 -0.14676,-0.21995 -0.0351,-0.0872 -0.0527,-0.18474 -0.0527,-0.29223 0,-0.11911 0.0188,-0.22661 0.0568,-0.32249 0.0395,-0.0973 0.0981,-0.17927 0.1757,-0.2461 0.0791,-0.0682 0.17742,-0.12057 0.29455,-0.15688 0.1186,-0.0363 0.25744,-0.0544 0.41703,-0.0544 h 0.16893 v -0.1897 c 0,-0.10604 -0.0182,-0.18098 -0.0548,-0.22456 -0.0366,-0.0436 -0.0899,-0.0651 -0.16019,-0.0651 -0.0805,0 -0.1397,0.0238 -0.17777,0.0718 -0.0366,0.0465 -0.0553,0.11272 -0.0553,0.19842 h -0.62115 c 0,-0.10314 0.0194,-0.20012 0.0589,-0.29019 0.041,-0.0915 0.0996,-0.17115 0.1757,-0.23943 0.0761,-0.0683 0.16803,-0.12228 0.27492,-0.1615 0.10688,-0.0407 0.22755,-0.061 0.36225,-0.061 z m 2.40709,0 c 0.0922,0 0.17716,0.0163 0.25476,0.0482 0.0776,0.0305 0.14435,0.0811 0.19999,0.15227 0.0556,0.0712 0.0984,0.16414 0.12919,0.2789 0.0308,0.11476 0.0465,0.25592 0.0465,0.42298 v 1.49912 h -0.62373 v -1.50168 c 0,-0.0755 -0.006,-0.13775 -0.0176,-0.18714 -0.0117,-0.0494 -0.0293,-0.0889 -0.0527,-0.11792 -0.022,-0.0291 -0.05,-0.0494 -0.0837,-0.061 -0.0337,-0.0116 -0.0729,-0.0175 -0.11834,-0.0175 -0.0586,0 -0.11007,0.0152 -0.154,0.0456 -0.0439,0.0305 -0.0803,0.0728 -0.10955,0.12663 v 1.7124 h -0.62373 v -2.35737 h 0.58394 l 0.0176,0.23328 c 0.0688,-0.0901 0.1496,-0.1586 0.24184,-0.20508 0.0922,-0.0479 0.19534,-0.0718 0.30955,-0.0718 z m 11.91038,0 c 0.13324,0 0.25218,0.0181 0.3576,0.0544 0.10689,0.0348 0.19767,0.0848 0.27234,0.15021 0.0747,0.0639 0.13203,0.14174 0.17156,0.23328 0.0395,0.0901 0.0594,0.19056 0.0594,0.30096 h -0.62167 c 0,-0.0901 -0.0182,-0.16091 -0.0548,-0.21174 -0.0366,-0.0509 -0.0992,-0.0764 -0.18706,-0.0764 -0.0659,0 -0.11981,0.0203 -0.16227,0.061 -0.0425,0.0407 -0.0636,0.0976 -0.0636,0.17022 0,0.0305 0.007,0.0583 0.0196,0.083 0.0146,0.0232 0.0375,0.0464 0.0682,0.0697 0.0322,0.0232 0.0738,0.047 0.12506,0.0717 0.0513,0.0247 0.11395,0.0532 0.18862,0.0851 0.11859,0.0436 0.22109,0.089 0.30747,0.13688 0.0879,0.0479 0.16046,0.10195 0.21756,0.1615 0.0571,0.0581 0.0998,0.12437 0.12764,0.19842 0.0278,0.0741 0.0413,0.15953 0.0413,0.25686 0,0.10459 -0.0205,0.19986 -0.0615,0.28557 -0.041,0.0857 -0.0996,0.15894 -0.1757,0.21995 -0.0747,0.061 -0.16545,0.10917 -0.27233,0.14406 -0.10689,0.0334 -0.22583,0.0497 -0.35761,0.0497 -0.14495,0 -0.27319,-0.0215 -0.38447,-0.0651 -0.10981,-0.045 -0.20231,-0.10426 -0.27698,-0.17688 -0.0747,-0.0741 -0.13092,-0.15662 -0.16899,-0.24814 -0.0381,-0.093 -0.0568,-0.18765 -0.0568,-0.28352 h 0.59067 c 10e-4,0.0639 0.0103,0.1173 0.0263,0.15944 0.0161,0.0407 0.0372,0.0732 0.0636,0.0979 0.0278,0.0247 0.06,0.0422 0.0966,0.0523 0.0381,0.009 0.0791,0.0128 0.12299,0.0128 0.16691,0 0.25063,-0.0744 0.25063,-0.22404 0,-0.0305 -0.008,-0.0583 -0.0243,-0.083 -0.0146,-0.0261 -0.0387,-0.0511 -0.0723,-0.0759 -0.0322,-0.0261 -0.0749,-0.0523 -0.12764,-0.0785 -0.0527,-0.0261 -0.11541,-0.0552 -0.18862,-0.0871 -0.10835,-0.0436 -0.20438,-0.0883 -0.28784,-0.1333 -0.0835,-0.0465 -0.15374,-0.0977 -0.21084,-0.15432 -0.0571,-0.0581 -0.10042,-0.12318 -0.12971,-0.19431 -0.0293,-0.0726 -0.0439,-0.15578 -0.0439,-0.2502 0,-0.0988 0.0182,-0.19116 0.0548,-0.27686 0.0381,-0.0871 0.0925,-0.1627 0.16278,-0.22661 0.0703,-0.0654 0.15581,-0.11645 0.25683,-0.15278 0.1025,-0.0378 0.21842,-0.0563 0.34727,-0.0563 z m 3.25458,0 c 0.12739,0 0.24332,0.0203 0.34727,0.061 0.10542,0.0392 0.19448,0.0979 0.26768,0.17637 0.0747,0.077 0.13204,0.17286 0.17157,0.28762 0.041,0.11476 0.0621,0.24781 0.0636,0.39888 h -0.58446 c -0.002,-0.13219 -0.0232,-0.23387 -0.0656,-0.30505 -0.0425,-0.0712 -0.11274,-0.10665 -0.21084,-0.10665 -0.0688,0 -0.12385,0.0134 -0.16485,0.041 -0.0395,0.0276 -0.07,0.0683 -0.092,0.12202 -0.0205,0.0523 -0.0345,0.11794 -0.0419,0.19636 -0.006,0.077 -0.009,0.16646 -0.009,0.26814 v 0.16971 c 0,0.10314 0.003,0.1938 0.009,0.27224 0.006,0.077 0.0188,0.14201 0.0393,0.19431 0.022,0.0523 0.0536,0.0913 0.0946,0.1174 0.041,0.0261 0.0966,0.0395 0.16692,0.0395 0.0864,0 0.15313,-0.0261 0.19998,-0.0785 0.0483,-0.0538 0.0729,-0.14384 0.0744,-0.27018 h 0.58446 c -0.002,0.13364 -0.0243,0.25394 -0.0682,0.36144 -0.0439,0.10604 -0.10369,0.19611 -0.17983,0.27019 -0.0747,0.0741 -0.16364,0.13099 -0.26613,0.17022 -0.10249,0.0392 -0.21265,0.0589 -0.33125,0.0589 -0.15959,0 -0.29895,-0.0255 -0.41754,-0.0764 -0.1186,-0.0509 -0.21756,-0.12461 -0.29663,-0.22046 -0.0776,-0.0973 -0.13616,-0.21644 -0.1757,-0.35735 -0.0381,-0.1409 -0.0568,-0.30129 -0.0568,-0.48142 v -0.16971 c 0,-0.18012 0.0188,-0.34102 0.0568,-0.48193 0.0395,-0.14235 0.0981,-0.26207 0.1757,-0.3594 0.0776,-0.0973 0.17596,-0.17115 0.29456,-0.222 0.1186,-0.0509 0.25683,-0.0764 0.41496,-0.0764 z m 2.04897,0 c 0.1186,0 0.22807,0.0152 0.32763,0.0456 0.0996,0.0291 0.18569,0.0755 0.2589,0.13945 0.0732,0.0624 0.13057,0.14318 0.17157,0.24199 0.041,0.0973 0.0615,0.21525 0.0615,0.35325 v 1.0459 c 0,0.0682 0.001,0.12928 0.004,0.18302 0.004,0.0523 0.0103,0.10001 0.0176,0.14356 0.007,0.0422 0.0161,0.0805 0.0263,0.11536 0.0117,0.0334 0.0251,0.0654 0.0398,0.0958 v 0.0374 h -0.62628 c -0.0117,-0.0247 -0.0217,-0.0526 -0.0305,-0.083 -0.007,-0.0319 -0.0149,-0.0651 -0.0222,-0.1 -0.0468,0.0639 -0.10722,0.11739 -0.1819,0.161 -0.0732,0.0436 -0.16338,0.0656 -0.27026,0.0656 -0.0966,0 -0.18742,-0.0169 -0.27234,-0.0502 -0.0835,-0.0334 -0.15667,-0.0805 -0.21962,-0.1415 -0.0615,-0.061 -0.11068,-0.13472 -0.14728,-0.22046 -0.0351,-0.0872 -0.0527,-0.18423 -0.0527,-0.29172 0,-0.11911 0.0193,-0.22661 0.0574,-0.32249 0.0395,-0.0973 0.0981,-0.17927 0.1757,-0.2461 0.0791,-0.0683 0.1769,-0.12057 0.29404,-0.15688 0.11859,-0.0363 0.25795,-0.0544 0.41754,-0.0544 h 0.16898 v -0.1897 c 0,-0.10604 -0.0182,-0.18098 -0.0548,-0.22456 -0.0366,-0.0436 -0.0904,-0.0656 -0.16071,-0.0656 -0.0805,0 -0.1397,0.0243 -0.17777,0.0723 -0.0366,0.0465 -0.0548,0.11272 -0.0548,0.19842 h -0.62166 c 0,-0.10314 0.0199,-0.20012 0.0594,-0.29019 0.041,-0.0915 0.0996,-0.17115 0.1757,-0.23943 0.0761,-0.0683 0.16751,-0.12228 0.2744,-0.1615 0.10688,-0.0407 0.22755,-0.061 0.36225,-0.061 z m 7.97936,0 c 0.1186,0 0.22755,0.0152 0.32711,0.0456 0.0996,0.0291 0.1857,0.0755 0.2589,0.13945 0.0732,0.0624 0.13057,0.14318 0.17157,0.24199 0.041,0.0973 0.0615,0.21525 0.0615,0.35325 v 1.0459 c 0,0.0682 10e-4,0.12928 0.004,0.18302 0.004,0.0523 0.0103,0.10001 0.0176,0.14356 0.007,0.0422 0.0161,0.0805 0.0264,0.11536 0.0117,0.0334 0.0251,0.0654 0.0398,0.0958 v 0.0374 h -0.6258 c -0.0117,-0.0247 -0.0222,-0.0526 -0.031,-0.083 -0.007,-0.0319 -0.0144,-0.0651 -0.0217,-0.1 -0.0469,0.0639 -0.10775,0.11739 -0.18242,0.161 -0.0732,0.0436 -0.16339,0.0656 -0.27027,0.0656 -0.0966,0 -0.18741,-0.0169 -0.27233,-0.0502 -0.0835,-0.0334 -0.15667,-0.0805 -0.21963,-0.1415 -0.0615,-0.061 -0.11067,-0.13472 -0.14728,-0.22046 -0.0351,-0.0872 -0.0527,-0.18423 -0.0527,-0.29172 0,-0.11911 0.0193,-0.22661 0.0574,-0.32249 0.0395,-0.0973 0.0981,-0.17927 0.1757,-0.2461 0.0791,-0.0683 0.17691,-0.12057 0.29404,-0.15688 0.1186,-0.0363 0.25795,-0.0544 0.41755,-0.0544 h 0.16898 v -0.1897 c 0,-0.10604 -0.0182,-0.18098 -0.0548,-0.22456 -0.0366,-0.0436 -0.0899,-0.0656 -0.1602,-0.0656 -0.0805,0 -0.14021,0.0243 -0.17828,0.0723 -0.0366,0.0465 -0.0548,0.11272 -0.0548,0.19842 h -0.62163 c 0,-0.10314 0.0199,-0.20012 0.0594,-0.29019 0.041,-0.0915 0.0996,-0.17115 0.1757,-0.23943 0.0761,-0.0683 0.16752,-0.12228 0.27441,-0.1615 0.10688,-0.0407 0.22806,-0.061 0.36276,-0.061 z m 2.40709,0 c 0.0922,0 0.17717,0.0158 0.25477,0.0477 0.0776,0.0305 0.14383,0.0815 0.19947,0.15279 0.0556,0.0712 0.099,0.16414 0.1297,0.2789 0.0308,0.11476 0.046,0.25541 0.046,0.42246 v 1.49964 h -0.62373 v -1.50168 c 0,-0.0755 -0.006,-0.13775 -0.0176,-0.18714 -0.0117,-0.0494 -0.0293,-0.0889 -0.0527,-0.11792 -0.022,-0.0291 -0.0495,-0.0494 -0.0832,-0.061 -0.0337,-0.0116 -0.0735,-0.0175 -0.11886,-0.0175 -0.0586,0 -0.10955,0.0152 -0.15347,0.0456 -0.0439,0.0305 -0.0808,0.0728 -0.11008,0.12663 v 1.7124 h -0.62373 v -2.35737 h 0.58446 l 0.0176,0.23328 c 0.0688,-0.0901 0.14909,-0.1586 0.24133,-0.20508 0.0922,-0.0479 0.19586,-0.0718 0.31006,-0.0718 z m 2.21382,0 c 0.0922,0 0.17716,0.0158 0.25476,0.0477 0.0776,0.0305 0.14384,0.0815 0.19948,0.15279 0.0556,0.0712 0.099,0.16414 0.1297,0.2789 0.0308,0.11476 0.046,0.25541 0.046,0.42246 v 1.49964 h -0.62373 v -1.50168 c 0,-0.0755 -0.006,-0.13775 -0.0176,-0.18714 -0.0117,-0.0494 -0.0293,-0.0889 -0.0527,-0.11792 -0.022,-0.0291 -0.0495,-0.0494 -0.0832,-0.061 -0.0337,-0.0116 -0.0735,-0.0175 -0.11886,-0.0175 -0.0586,0 -0.10955,0.0152 -0.15348,0.0456 -0.0439,0.0305 -0.0808,0.0728 -0.11007,0.12663 v 1.7124 h -0.62373 v -2.35737 h 0.58446 l 0.0176,0.23328 c 0.0688,-0.0901 0.14908,-0.1586 0.24133,-0.20508 0.0922,-0.0479 0.19585,-0.0718 0.31006,-0.0718 z m 3.34708,0 c 0.0922,0 0.17717,0.0158 0.25477,0.0477 0.0776,0.0305 0.14383,0.0815 0.19947,0.15279 0.0556,0.0712 0.099,0.16414 0.12971,0.2789 0.0307,0.11476 0.046,0.25541 0.046,0.42246 v 1.49964 h -0.62374 v -1.50168 c 0,-0.0755 -0.006,-0.13775 -0.0176,-0.18714 -0.0117,-0.0494 -0.0293,-0.0889 -0.0527,-0.11792 -0.022,-0.0291 -0.0495,-0.0494 -0.0832,-0.061 -0.0337,-0.0116 -0.0735,-0.0175 -0.11885,-0.0175 -0.0586,0 -0.10956,0.0152 -0.15348,0.0456 -0.0439,0.0305 -0.0808,0.0728 -0.11007,0.12663 v 1.7124 h -0.62374 v -2.35737 h 0.58446 l 0.0176,0.23328 c 0.0688,-0.0901 0.14909,-0.1586 0.24133,-0.20508 0.0922,-0.0479 0.19585,-0.0718 0.31006,-0.0718 z m 1.80299,0 c 0.11567,0 0.21351,0.0226 0.29404,0.0677 0.0805,0.0436 0.149,0.1052 0.20464,0.18508 l 0.0238,-0.20918 h 0.56017 v 2.35789 c 0,0.16124 -0.024,0.29958 -0.0723,0.41579 -0.0469,0.11767 -0.1136,0.21465 -0.19998,0.29019 -0.0864,0.0755 -0.19009,0.13134 -0.31161,0.16765 -0.12007,0.0363 -0.25417,0.0544 -0.40205,0.0544 -0.0556,0 -0.11713,-0.006 -0.18448,-0.0175 -0.0674,-0.0116 -0.1347,-0.0291 -0.20206,-0.0523 -0.0674,-0.0217 -0.13177,-0.0502 -0.19327,-0.0851 -0.06,-0.0334 -0.11041,-0.0735 -0.15141,-0.11996 l 0.20826,-0.42708 c 0.0278,0.0291 0.0611,0.0562 0.0992,0.0811 0.0395,0.0261 0.0805,0.0476 0.12299,0.0651 0.0439,0.0189 0.0891,0.0334 0.13591,0.0435 0.0469,0.0116 0.0925,0.0175 0.13642,0.0175 0.063,0 0.1186,-0.007 0.16692,-0.0215 0.0498,-0.0131 0.0914,-0.0363 0.12505,-0.0697 0.0337,-0.0334 0.0583,-0.0781 0.0744,-0.13331 0.0176,-0.0552 0.0264,-0.12377 0.0264,-0.20661 v -0.1897 c -0.0571,0.0741 -0.12333,0.1316 -0.19947,0.17227 -0.0747,0.0392 -0.16252,0.0584 -0.26355,0.0584 -0.12591,0 -0.23891,-0.0244 -0.33848,-0.0738 -0.0981,-0.0494 -0.1813,-0.12203 -0.25011,-0.21789 -0.0674,-0.0958 -0.11946,-0.21439 -0.15606,-0.3553 -0.0366,-0.14236 -0.0548,-0.30625 -0.0548,-0.49218 v -0.15484 c 0,-0.38641 0.0703,-0.67462 0.21084,-0.86492 0.14056,-0.19029 0.33736,-0.28557 0.59066,-0.28557 z m -26.04079,0.0431 h 0.66766 l 0.28526,1.33199 0.31626,-1.33148 h 0.66352 l -0.78186,2.71062 c -0.0176,0.0595 -0.0421,0.12405 -0.0729,0.1938 -0.0293,0.0697 -0.0692,0.13475 -0.12041,0.19431 -0.0512,0.061 -0.11506,0.11097 -0.1912,0.15022 -0.0761,0.0407 -0.16864,0.061 -0.27699,0.061 -0.0278,0 -0.0525,-9.9e-4 -0.0744,-0.004 -0.0205,-0.001 -0.0404,-0.003 -0.0594,-0.007 -0.0176,-0.003 -0.0357,-0.007 -0.0548,-0.0133 -0.019,-0.005 -0.0412,-0.0104 -0.0661,-0.0175 v -0.48141 c 0.0117,9.9e-4 0.0234,0.002 0.0351,0.002 h 0.0377 c 0.0498,0 0.0926,-0.005 0.12919,-0.0154 0.0366,-0.009 0.0676,-0.0232 0.0925,-0.0436 0.0263,-0.0203 0.0474,-0.0464 0.0636,-0.0785 0.0176,-0.0305 0.0322,-0.0677 0.0439,-0.11125 l 0.0486,-0.15894 z m -45.62408,5.1e-4 h 0.62373 v 2.35789 h -0.62373 z m 8.07341,0 h 0.62166 v 1.52988 c 0,0.12929 0.0211,0.22166 0.0636,0.27686 0.0425,0.0538 0.0981,0.0805 0.16692,0.0805 0.0761,0 0.13935,-0.0163 0.18913,-0.0482 0.0498,-0.0334 0.089,-0.0782 0.11834,-0.13484 v -1.7042 h 0.6258 v 2.35789 h -0.58394 l -0.0176,-0.21585 c -0.0615,0.0828 -0.1353,0.14672 -0.22169,0.19175 -0.0849,0.045 -0.18388,0.0677 -0.29662,0.0677 -0.0996,0 -0.19035,-0.0163 -0.27234,-0.0482 -0.0805,-0.0334 -0.15021,-0.0846 -0.20877,-0.15433 -0.0586,-0.0712 -0.1037,-0.16235 -0.13591,-0.27275 -0.0322,-0.11186 -0.0486,-0.2455 -0.0486,-0.40093 z m 20.29126,0 h 0.62374 v 2.35789 h -0.62374 z m 21.52892,0 h 0.62374 v 2.35789 h -0.62374 z m 17.72553,0 h 0.62374 v 2.35789 h -0.62374 z m -74.94994,0.0436 -0.29869,1.13101 h 0.59738 z m 10.7089,0.42502 c -0.10834,0 -0.18741,0.0384 -0.23719,0.11536 -0.0483,0.077 -0.077,0.20073 -0.0858,0.37068 h 0.62167 v -0.057 c -0.003,-0.1409 -0.0264,-0.2478 -0.0703,-0.32043 -0.0439,-0.0726 -0.12007,-0.1087 -0.22841,-0.1087 z m 9.26611,0 c -0.10835,0 -0.18742,0.0384 -0.2372,0.11536 -0.0483,0.077 -0.077,0.20073 -0.0858,0.37068 h 0.62167 v -0.057 c -0.003,-0.1409 -0.0264,-0.2478 -0.0703,-0.32043 -0.0439,-0.0726 -0.12007,-0.1087 -0.22841,-0.1087 z m 7.99847,0.004 c -0.0703,0 -0.12884,0.0163 -0.1757,0.0482 -0.0454,0.0305 -0.0822,0.0735 -0.11007,0.12869 v 1.07409 c 0.0264,0.0523 0.0632,0.093 0.11007,0.12203 0.0469,0.0291 0.10663,0.0436 0.17984,0.0436 0.0673,0 0.12239,-0.0116 0.16485,-0.0348 0.0425,-0.0232 0.0747,-0.0604 0.0966,-0.11126 0.0234,-0.0509 0.0387,-0.11598 0.046,-0.19586 0.009,-0.0799 0.0134,-0.17748 0.0134,-0.29223 v -0.15483 c 0,-0.10605 -0.005,-0.1979 -0.0134,-0.27634 -0.007,-0.0785 -0.0226,-0.14407 -0.046,-0.19637 -0.0234,-0.0523 -0.0562,-0.0907 -0.0987,-0.11535 -0.0425,-0.0261 -0.0981,-0.0395 -0.16692,-0.0395 z m 18.00356,0 c -0.0615,0 -0.11309,0.0128 -0.15555,0.0374 -0.041,0.0247 -0.0749,0.0624 -0.10129,0.1133 -0.0263,0.0509 -0.0451,0.11657 -0.0568,0.19791 -0.0103,0.0799 -0.0155,0.17516 -0.0155,0.28556 v 0.15484 c 0,0.10895 0.005,0.20251 0.0155,0.28095 0.0102,0.0785 0.0278,0.14407 0.0527,0.19636 0.0263,0.0509 0.0598,0.0886 0.10077,0.11331 0.0425,0.0232 0.0952,0.0348 0.15813,0.0348 0.0659,0 0.12153,-0.0146 0.16692,-0.0436 0.0454,-0.0291 0.0829,-0.0691 0.11214,-0.11997 v -1.07665 c -0.0293,-0.0553 -0.0674,-0.0977 -0.11421,-0.12818 -0.0454,-0.0305 -0.0998,-0.0461 -0.16278,-0.0461 z m 33.20107,0 c -0.12299,0 -0.21489,0.0505 -0.27492,0.15073 -0.0586,0.10023 -0.0879,0.26121 -0.0879,0.48347 v 0.15484 c 0,0.21789 0.0287,0.37709 0.0858,0.47731 0.0571,0.0988 0.14788,0.14818 0.27234,0.14818 0.0674,0 0.12359,-0.0116 0.16898,-0.0348 0.0469,-0.0247 0.0849,-0.0589 0.1142,-0.10253 v -1.1264 c -0.0308,-0.0479 -0.0694,-0.0851 -0.11627,-0.11125 -0.0454,-0.0261 -0.0993,-0.0395 -0.16226,-0.0395 z m -48.98667,0.81518 c -0.0586,0 -0.10895,0.009 -0.15142,0.0282 -0.0425,0.0189 -0.0782,0.0449 -0.10748,0.0785 -0.0278,0.0334 -0.0489,0.0728 -0.0636,0.11791 -0.0132,0.045 -0.0201,0.0928 -0.0201,0.14356 0,0.0857 0.0176,0.15133 0.0527,0.19636 0.0366,0.0436 0.0881,0.0651 0.15399,0.0651 0.0688,0 0.12739,-0.014 0.1757,-0.0416 0.0483,-0.0276 0.0841,-0.0601 0.10749,-0.0979 v -0.49014 z m 11.48353,0 c -0.0586,0 -0.10946,0.009 -0.15193,0.0282 -0.0425,0.0189 -0.0782,0.0449 -0.10748,0.0785 -0.0278,0.0334 -0.0489,0.0728 -0.0636,0.11791 -0.0132,0.045 -0.0196,0.0928 -0.0196,0.14356 0,0.0857 0.0176,0.15133 0.0527,0.19636 0.0366,0.0436 0.0876,0.0651 0.15348,0.0651 0.0688,0 0.12738,-0.014 0.1757,-0.0416 0.0483,-0.0276 0.0841,-0.0601 0.10748,-0.0979 v -0.49014 z m 19.62103,0 c -0.0586,0 -0.10895,0.009 -0.15141,0.0282 -0.0425,0.0189 -0.0782,0.0449 -0.10749,0.0785 -0.0278,0.0334 -0.0494,0.0728 -0.0641,0.11791 -0.0132,0.045 -0.0196,0.0928 -0.0196,0.14356 0,0.0857 0.0176,0.15133 0.0527,0.19636 0.0366,0.0436 0.0881,0.0651 0.15399,0.0651 0.0688,0 0.12739,-0.014 0.1757,-0.0416 0.0483,-0.0276 0.0841,-0.0601 0.10749,-0.0979 v -0.49014 z m 7.97884,0 c -0.0586,0 -0.10895,0.009 -0.15141,0.0282 -0.0425,0.0189 -0.0782,0.0449 -0.10749,0.0785 -0.0278,0.0334 -0.0489,0.0728 -0.0636,0.11791 -0.0132,0.045 -0.0202,0.0928 -0.0202,0.14356 0,0.0857 0.0176,0.15133 0.0527,0.19636 0.0366,0.0436 0.0881,0.0651 0.15399,0.0651 0.0688,0 0.12739,-0.014 0.1757,-0.0416 0.0483,-0.0276 0.0841,-0.0601 0.10749,-0.0979 v -0.49014 z m -47.95831,0.53372 h 0.54053 l -0.002,0.43169 c 0,0.0828 -0.0111,0.16594 -0.0331,0.2502 -0.022,0.0842 -0.0518,0.16559 -0.0899,0.24404 -0.0381,0.0799 -0.0843,0.15483 -0.13849,0.22456 -0.0527,0.0697 -0.11067,0.13133 -0.17363,0.18508 l -0.33177,-0.17175 c 0.0263,-0.0494 0.0527,-0.0988 0.0791,-0.14817 0.0278,-0.0494 0.053,-0.10171 0.0749,-0.15689 0.022,-0.0553 0.0395,-0.11563 0.0527,-0.18097 0.0146,-0.0639 0.0217,-0.13534 0.0217,-0.2138 z" /><path
       id="rect852"
       style="fill:#2c2c6f;fill-opacity:1;stroke-width:0.499999;stroke-linejoin:round;stroke-miterlimit:3.4;stroke-dashoffset:19.8539;stroke-opacity:0.509044"
       d="m 469.43801,95.677364 v 10.499616 h 1.96526 V 95.677364 Z m 2.48254,0 v 10.499616 h 1.99988 V 95.677364 Z m 2.5001,0 v 10.499616 h 1.99988 V 95.677364 Z m 2.50011,0 v 10.499616 h 1.99988 V 95.677364 Z m 2.50011,0 v 10.499616 h 1.99987 V 95.677364 Z m 2.49958,0 v 10.499616 h 2.0004 V 95.677364 Z" /><path
       id="path173"
       style="fill:#808ff7;fill-opacity:1;stroke-width:0.264583"
       d="m 382.58845,95.677209 c -2.00267,0 -3.62613,1.61072 -3.62613,3.59759 v 3.303301 c 0,1.98712 1.62346,3.59911 3.62613,3.59911 h 86.3322 V 95.677209 Z m 6.65696,3.47762 h 0.62167 v 1.196631 c 0.0644,-0.0799 0.13763,-0.1415 0.21963,-0.18508 0.0835,-0.0436 0.17544,-0.0656 0.27646,-0.0656 0.0981,0 0.18828,0.0169 0.27027,0.0502 0.082,0.0334 0.15228,0.0863 0.21084,0.15893 0.0586,0.0726 0.10422,0.16731 0.13643,0.28352 0.0322,0.11622 0.0481,0.25747 0.0481,0.42452 v 1.48425 h -0.62374 v -1.48836 c 0,-0.0755 -0.006,-0.13885 -0.0176,-0.18969 -0.0117,-0.0509 -0.0293,-0.0916 -0.0527,-0.12202 -0.0234,-0.0305 -0.0521,-0.052 -0.0858,-0.0651 -0.0337,-0.0131 -0.0729,-0.02 -0.11834,-0.02 -0.0615,0 -0.1136,0.0139 -0.15606,0.0416 -0.0425,0.0276 -0.0782,0.0654 -0.10749,0.11331 v 1.72983 h -0.62166 z m 45.84372,0 h 0.62115 v 1.196631 c 0.0644,-0.0799 0.13763,-0.1415 0.21962,-0.18508 0.0835,-0.0436 0.17596,-0.0656 0.27699,-0.0656 0.0981,0 0.18827,0.0169 0.27027,0.0502 0.082,0.0334 0.15227,0.0863 0.21084,0.15893 0.0586,0.0726 0.10369,0.16731 0.1359,0.28352 0.0322,0.11622 0.0486,0.25747 0.0486,0.42452 v 1.48425 h -0.62373 v -1.48836 c 0,-0.0755 -0.006,-0.13885 -0.0176,-0.18969 -0.0117,-0.0509 -0.0293,-0.0916 -0.0527,-0.12202 -0.0234,-0.0305 -0.0521,-0.0525 -0.0858,-0.0656 -0.0337,-0.0131 -0.0735,-0.0195 -0.11886,-0.0195 -0.0615,0 -0.11308,0.0139 -0.15554,0.0416 -0.0425,0.0276 -0.0787,0.0654 -0.108,0.11331 v 1.72983 h -0.62116 z m -23.85023,5.1e-4 h 0.62115 v 1.180741 c 0.0556,-0.0741 0.12179,-0.13159 0.19792,-0.17226 0.0761,-0.0422 0.16459,-0.0631 0.26562,-0.0631 0.26648,0 0.46147,0.0976 0.58446,0.29224 0.12299,0.1932 0.18449,0.47681 0.18449,0.85159 v 0.15483 c 0,0.38204 -0.0615,0.66906 -0.18449,0.86082 -0.12299,0.19029 -0.31626,0.28556 -0.57981,0.28556 -0.10981,0 -0.20584,-0.0243 -0.28784,-0.0723 -0.0805,-0.0494 -0.1502,-0.11743 -0.20877,-0.20457 l -0.0196,0.23328 h -0.57309 z m 19.18746,0 h 0.6258 v 3.346881 h -0.5643 l -0.0284,-0.23995 c -0.06,0.0886 -0.13144,0.15835 -0.21343,0.20918 -0.0805,0.0494 -0.17312,0.0743 -0.27853,0.0743 -0.25184,0 -0.4439,-0.0969 -0.57568,-0.29018 -0.13031,-0.1932 -0.19534,-0.4762 -0.19534,-0.84953 v -0.15484 c 0,-0.38641 0.0656,-0.67462 0.19741,-0.86492 0.13177,-0.19029 0.32384,-0.28557 0.57567,-0.28557 0.0966,0 0.18216,0.0209 0.25684,0.0631 0.0761,0.0407 0.14288,0.0982 0.19998,0.17226 z m 16.28945,0 h 0.62373 v 3.346881 h -0.62373 z m 4.72839,0 h 0.62373 v 3.346881 h -0.62373 z m -9.73791,0.0518 c 0.0512,0 0.0975,0.008 0.1385,0.0241 0.0425,0.016 0.0782,0.0386 0.10748,0.0677 0.0293,0.0291 0.0521,0.0639 0.0682,0.10459 0.0161,0.0392 0.0238,0.0828 0.0238,0.13074 0,0.0479 -0.008,0.0922 -0.0238,0.13279 -0.0161,0.0392 -0.0389,0.0741 -0.0682,0.10459 -0.0293,0.0291 -0.065,0.0517 -0.10748,0.0677 -0.041,0.016 -0.0872,0.0241 -0.1385,0.0241 -0.0513,0 -0.0981,-0.008 -0.14056,-0.0241 -0.041,-0.016 -0.0761,-0.0386 -0.10542,-0.0677 -0.0293,-0.0305 -0.0521,-0.0654 -0.0682,-0.10459 -0.0161,-0.0407 -0.0243,-0.0848 -0.0243,-0.13279 0,-0.0479 0.008,-0.0916 0.0243,-0.13074 0.0161,-0.0407 0.0389,-0.0755 0.0682,-0.10459 0.0293,-0.0291 0.0644,-0.0517 0.10542,-0.0677 0.0425,-0.016 0.0893,-0.0241 0.14056,-0.0241 z m 17.72605,0 c 0.0512,0 0.097,0.008 0.13798,0.0241 0.0425,0.016 0.0787,0.0386 0.108,0.0677 0.0293,0.0291 0.0516,0.0639 0.0677,0.10459 0.0161,0.0392 0.0243,0.0828 0.0243,0.13074 0,0.0479 -0.008,0.0922 -0.0243,0.13279 -0.0161,0.0392 -0.0384,0.0741 -0.0677,0.10459 -0.0293,0.0291 -0.0655,0.0517 -0.108,0.0677 -0.041,0.016 -0.0867,0.0241 -0.13798,0.0241 -0.0512,0 -0.0981,-0.008 -0.14056,-0.0241 -0.041,-0.016 -0.0761,-0.0386 -0.10542,-0.0677 -0.0293,-0.0305 -0.0521,-0.0654 -0.0682,-0.10459 -0.0161,-0.0407 -0.0243,-0.0848 -0.0243,-0.13279 0,-0.0479 0.008,-0.0916 0.0243,-0.13074 0.0161,-0.0407 0.0389,-0.0755 0.0682,-0.10459 0.0293,-0.0291 0.0644,-0.0517 0.10542,-0.0677 0.0425,-0.016 0.0893,-0.0241 0.14056,-0.0241 z m -67.61964,5.2e-4 c 0.0512,0 0.0975,0.008 0.13849,0.0236 0.0425,0.016 0.0782,0.0386 0.10749,0.0677 0.0293,0.0291 0.0521,0.0639 0.0682,0.10459 0.0161,0.0392 0.0243,0.0828 0.0243,0.13074 0,0.0479 -0.008,0.0922 -0.0243,0.13279 -0.0161,0.0392 -0.0389,0.0741 -0.0682,0.10459 -0.0293,0.0291 -0.065,0.0517 -0.10749,0.0677 -0.041,0.016 -0.0872,0.0241 -0.13849,0.0241 -0.0512,0 -0.0981,-0.008 -0.14056,-0.0241 -0.041,-0.016 -0.0761,-0.0386 -0.10542,-0.0677 -0.0293,-0.0305 -0.0516,-0.0654 -0.0677,-0.10459 -0.0161,-0.0407 -0.0243,-0.0848 -0.0243,-0.13279 0,-0.0479 0.008,-0.0916 0.0243,-0.13074 0.0161,-0.0407 0.0384,-0.0755 0.0677,-0.10459 0.0293,-0.0291 0.0644,-0.0517 0.10542,-0.0677 0.0425,-0.016 0.0893,-0.0236 0.14056,-0.0236 z m 28.36468,0 c 0.0512,0 0.0975,0.008 0.13849,0.0236 0.0425,0.016 0.0782,0.0386 0.10748,0.0677 0.0293,0.0291 0.0521,0.0639 0.0682,0.10459 0.0161,0.0392 0.0243,0.0828 0.0243,0.13074 0,0.0479 -0.008,0.0922 -0.0243,0.13279 -0.0161,0.0392 -0.0389,0.0741 -0.0682,0.10459 -0.0293,0.0291 -0.065,0.0517 -0.10748,0.0677 -0.041,0.016 -0.0872,0.0241 -0.13849,0.0241 -0.0513,0 -0.0981,-0.008 -0.14056,-0.0241 -0.041,-0.016 -0.0761,-0.0386 -0.10542,-0.0677 -0.0293,-0.0305 -0.0521,-0.0654 -0.0682,-0.10459 -0.0161,-0.0407 -0.0238,-0.0848 -0.0238,-0.13279 0,-0.0479 0.008,-0.0916 0.0238,-0.13074 0.0161,-0.0407 0.0389,-0.0755 0.0682,-0.10459 0.0293,-0.0291 0.0644,-0.0517 0.10542,-0.0677 0.0425,-0.016 0.0893,-0.0236 0.14056,-0.0236 z m -36.2996,0.12202 h 0.59066 l 1.00614,3.172561 h -0.68988 l -0.17105,-0.64958 h -0.88056 l -0.17157,0.64958 h -0.68316 z m 23.30452,0 h 0.65009 v 2.178961 c 0,0.10459 0.009,0.18943 0.0264,0.2548 0.0176,0.0654 0.0433,0.11704 0.077,0.15483 0.0351,0.0363 0.0773,0.0613 0.12713,0.0759 0.0512,0.0131 0.10981,0.02 0.1757,0.02 0.0659,0 0.12385,-0.007 0.17363,-0.02 0.0512,-0.0146 0.0935,-0.0396 0.12712,-0.0759 0.0337,-0.0378 0.0594,-0.0895 0.077,-0.15483 0.0176,-0.0654 0.0264,-0.15019 0.0264,-0.2548 v -2.178961 h 0.64596 v 2.178961 c 0,0.18448 -0.0264,0.34196 -0.0791,0.4727 -0.0512,0.13074 -0.12385,0.23823 -0.21756,0.32248 -0.0922,0.0829 -0.20292,0.14381 -0.33176,0.18304 -0.12885,0.0392 -0.26941,0.0589 -0.42168,0.0589 -0.1552,0 -0.29809,-0.0197 -0.4284,-0.0589 -0.12885,-0.0392 -0.24012,-0.10023 -0.33383,-0.18304 -0.0922,-0.0842 -0.16433,-0.19174 -0.21704,-0.32248 -0.0513,-0.13074 -0.077,-0.28822 -0.077,-0.4727 z m 25.39432,0 h 1.08934 c 0.16252,0 0.30721,0.0261 0.4346,0.0785 0.12884,0.0523 0.2378,0.12554 0.32711,0.21994 0.0893,0.093 0.15778,0.20396 0.20464,0.33324 0.0483,0.127841 0.0723,0.267291 0.0723,0.418361 0,0.15398 -0.024,0.29344 -0.0723,0.41836 -0.0469,0.12348 -0.11533,0.22867 -0.20464,0.31583 -0.0893,0.0872 -0.19827,0.1551 -0.32711,0.20303 -0.12885,0.0465 -0.27354,0.0697 -0.4346,0.0697 h -0.4439 v 1.11563 h -0.64544 z m 16.31115,0 h 1.08934 c 0.16252,0 0.30773,0.0261 0.43511,0.0785 0.12885,0.0523 0.2378,0.12554 0.32711,0.21994 0.0893,0.093 0.15727,0.20396 0.20413,0.33324 0.0483,0.127841 0.0729,0.267291 0.0729,0.418361 0,0.15398 -0.0245,0.29344 -0.0729,0.41836 -0.0469,0.12348 -0.11481,0.22867 -0.20413,0.31583 -0.0893,0.0872 -0.19826,0.1551 -0.32711,0.20303 -0.12884,0.0465 -0.27406,0.0697 -0.43511,0.0697 h -0.44339 v 1.11563 h -0.64595 z m -55.55734,0.23533 v 0.579341 h 0.31833 v 0.46399 h -0.31833 v 1.17048 c 0,0.0494 0.003,0.0901 0.009,0.12202 0.007,0.0319 0.0184,0.0574 0.0331,0.0764 0.0161,0.0174 0.036,0.0297 0.0594,0.0369 0.0234,0.006 0.0516,0.009 0.0853,0.009 0.0308,0 0.0588,-9.9e-4 0.0837,-0.004 0.0263,-0.003 0.0474,-0.006 0.0636,-0.0108 l -0.004,0.47937 c -0.0469,0.0175 -0.0978,0.0315 -0.15192,0.0416 -0.0542,0.0116 -0.11748,0.0175 -0.19069,0.0175 -0.0922,0 -0.17596,-0.0134 -0.25063,-0.0395 -0.0747,-0.0247 -0.1391,-0.0642 -0.19327,-0.11946 -0.0527,-0.0566 -0.0937,-0.12932 -0.12299,-0.21789 -0.0278,-0.0886 -0.0419,-0.19551 -0.0419,-0.32044 v -1.2397 h -0.2744 v -0.46449 h 0.2744 v -0.579361 z m 5.60276,0 v 0.579341 h 0.31833 v 0.46399 h -0.31833 v 1.17048 c 0,0.0494 0.003,0.0901 0.009,0.12202 0.007,0.0319 0.0184,0.0574 0.0331,0.0764 0.0161,0.0174 0.036,0.0297 0.0594,0.0369 0.0234,0.006 0.0516,0.009 0.0853,0.009 0.0308,0 0.0588,-9.9e-4 0.0837,-0.004 0.0263,-0.003 0.0475,-0.006 0.0636,-0.0108 l -0.005,0.47937 c -0.0469,0.0175 -0.0972,0.0315 -0.15141,0.0416 -0.0542,0.0116 -0.11799,0.0175 -0.1912,0.0175 -0.0922,0 -0.17544,-0.0134 -0.25012,-0.0395 -0.0747,-0.0247 -0.13909,-0.0642 -0.19326,-0.11946 -0.0527,-0.0566 -0.0937,-0.12932 -0.12299,-0.21789 -0.0278,-0.0886 -0.0419,-0.19551 -0.0419,-0.32044 v -1.2397 h -0.27438 v -0.46449 h 0.27441 v -0.579361 z m 34.28887,0.29838 v 0.988991 h 0.4439 c 0.0673,0 0.1248,-0.0116 0.17311,-0.0348 0.0498,-0.0232 0.0902,-0.0552 0.12093,-0.0958 0.0322,-0.0422 0.0556,-0.0916 0.0703,-0.14817 0.0146,-0.0581 0.0222,-0.12095 0.0222,-0.18919 0,-0.0683 -0.008,-0.1339 -0.0222,-0.19636 -0.0146,-0.0624 -0.0381,-0.11763 -0.0703,-0.1656 -0.0308,-0.0479 -0.0711,-0.0863 -0.12093,-0.115351 -0.0483,-0.0291 -0.10576,-0.0436 -0.17311,-0.0436 z m 16.31166,0 v 0.988991 h 0.44339 c 0.0673,0 0.12531,-0.0116 0.17363,-0.0348 0.0498,-0.0232 0.0902,-0.0552 0.12092,-0.0958 0.0322,-0.0422 0.0556,-0.0916 0.0703,-0.14817 0.0146,-0.0581 0.0217,-0.12095 0.0217,-0.18919 0,-0.0683 -0.007,-0.1339 -0.0217,-0.19636 -0.0146,-0.0624 -0.0381,-0.11763 -0.0703,-0.1656 -0.0308,-0.0479 -0.0711,-0.0863 -0.12092,-0.115351 -0.0483,-0.0291 -0.10628,-0.0436 -0.17363,-0.0436 z m -62.78325,0.236851 c 0.0278,0 0.0577,0.003 0.0899,0.009 0.0337,0.005 0.0611,0.011 0.0817,0.0195 l -0.007,0.61011 c -0.0278,-0.003 -0.0624,-0.006 -0.10335,-0.0108 -0.0395,-0.005 -0.0741,-0.007 -0.10335,-0.007 -0.0893,0 -0.1614,0.0187 -0.21704,0.0564 -0.0556,0.0378 -0.0984,0.093 -0.12764,0.16559 v 1.55809 h -0.62374 v -2.35789 h 0.58653 l 0.0176,0.25533 c 0.0468,-0.0944 0.1037,-0.16816 0.17105,-0.22046 0.0688,-0.0523 0.14728,-0.0785 0.23513,-0.0785 z m 16.06362,0 c 0.0278,0 0.0577,0.003 0.0899,0.009 0.0337,0.005 0.0606,0.011 0.0811,0.0195 l -0.006,0.61011 c -0.0278,-0.003 -0.0624,-0.006 -0.10335,-0.0108 -0.0395,-0.005 -0.0741,-0.007 -0.10335,-0.007 -0.0893,0 -0.16192,0.0187 -0.21756,0.0564 -0.0556,0.0378 -0.0978,0.093 -0.12712,0.16559 v 1.55809 h -0.62374 v -2.35789 h 0.58653 l 0.0176,0.25533 c 0.0469,-0.0944 0.1037,-0.16816 0.17105,-0.22046 0.0688,-0.0523 0.14728,-0.0785 0.23513,-0.0785 z m 7.94164,0 c 0.0278,0 0.0577,0.003 0.0899,0.009 0.0337,0.005 0.0606,0.011 0.0811,0.0195 l -0.007,0.61011 c -0.0278,-0.003 -0.0618,-0.006 -0.10284,-0.0108 -0.0395,-0.005 -0.0741,-0.007 -0.10335,-0.007 -0.0893,0 -0.16192,0.0187 -0.21756,0.0564 -0.0556,0.0378 -0.0978,0.093 -0.12712,0.16559 v 1.55809 h -0.62374 v -2.35789 h 0.58601 l 0.0176,0.25533 c 0.0469,-0.0944 0.10422,-0.16816 0.17157,-0.22046 0.0688,-0.0523 0.14728,-0.0785 0.23513,-0.0785 z m -22.69629,5.1e-4 c 0.12738,0 0.24331,0.0203 0.34726,0.061 0.10542,0.0392 0.19448,0.0979 0.26769,0.17637 0.0747,0.077 0.13203,0.17286 0.17156,0.28762 0.041,0.11476 0.0621,0.24781 0.0636,0.39888 h -0.58446 c -0.002,-0.13219 -0.0232,-0.23387 -0.0656,-0.30505 -0.0425,-0.0712 -0.11274,-0.10665 -0.21084,-0.10665 -0.0688,0 -0.12385,0.0134 -0.16484,0.041 -0.0395,0.0276 -0.07,0.0683 -0.092,0.12202 -0.0205,0.0523 -0.0345,0.11794 -0.0419,0.19636 -0.006,0.077 -0.009,0.16646 -0.009,0.26814 v 0.16971 c 0,0.10314 0.003,0.1938 0.009,0.27224 0.006,0.077 0.0188,0.14201 0.0393,0.19431 0.022,0.0523 0.0536,0.0913 0.0946,0.1174 0.041,0.0261 0.0966,0.0395 0.16691,0.0395 0.0864,0 0.15314,-0.0261 0.19999,-0.0785 0.0483,-0.0538 0.0729,-0.14384 0.0744,-0.27018 h 0.58446 c -0.002,0.13364 -0.0243,0.25394 -0.0682,0.36144 -0.0439,0.10604 -0.1037,0.19611 -0.17983,0.27019 -0.0747,0.0741 -0.16365,0.13099 -0.26614,0.17022 -0.10249,0.0392 -0.21265,0.0589 -0.33124,0.0589 -0.1596,0 -0.29895,-0.0255 -0.41755,-0.0764 -0.1186,-0.0509 -0.21756,-0.12409 -0.29662,-0.21995 -0.0776,-0.0973 -0.13617,-0.21644 -0.1757,-0.35735 -0.0381,-0.1409 -0.0568,-0.3018 -0.0568,-0.48193 v -0.16971 c 0,-0.18012 0.0188,-0.3405 0.0568,-0.48142 0.0395,-0.14236 0.0981,-0.26258 0.1757,-0.35991 0.0776,-0.0973 0.17596,-0.17115 0.29455,-0.222 0.1186,-0.0509 0.25683,-0.0764 0.41496,-0.0764 z m 6.82594,0 c 0.30162,0 0.5277,0.0964 0.67851,0.28968 0.15081,0.1932 0.22634,0.47962 0.22634,0.85876 v 0.28095 h -1.23661 c 0.004,0.0944 0.0172,0.17348 0.0377,0.23738 0.022,0.0639 0.0512,0.11559 0.0879,0.15484 0.0366,0.0392 0.0805,0.0678 0.13177,0.0851 0.0527,0.0175 0.11188,0.0262 0.17777,0.0262 0.10981,0 0.20705,-0.0181 0.29197,-0.0544 0.0864,-0.0378 0.16252,-0.0901 0.22841,-0.15689 l 0.24391,0.37222 c -0.0307,0.0422 -0.0711,0.0845 -0.12092,0.12664 -0.0498,0.0407 -0.10835,0.0779 -0.1757,0.11125 -0.0674,0.0334 -0.14349,0.0601 -0.22841,0.0805 -0.0849,0.0217 -0.17803,0.0328 -0.27905,0.0328 -0.16252,0 -0.30662,-0.0249 -0.43253,-0.0743 -0.12592,-0.0494 -0.23194,-0.12032 -0.31833,-0.21327 -0.0864,-0.093 -0.15253,-0.20629 -0.19792,-0.33993 -0.0439,-0.13508 -0.0656,-0.28847 -0.0656,-0.45988 v -0.1938 c 0,-0.19175 0.0211,-0.35965 0.0636,-0.50346 0.0439,-0.14527 0.10602,-0.2667 0.18655,-0.36402 0.082,-0.0988 0.18156,-0.17261 0.29869,-0.222 0.1186,-0.0494 0.2527,-0.0743 0.40204,-0.0743 z m 2.1239,0 c 0.12738,0 0.24279,0.0203 0.34675,0.061 0.10542,0.0392 0.19499,0.0979 0.2682,0.17637 0.0747,0.077 0.13152,0.17286 0.17105,0.28762 0.041,0.11476 0.0626,0.24781 0.0641,0.39888 h -0.58446 c -0.001,-0.13219 -0.0232,-0.23387 -0.0656,-0.30505 -0.0425,-0.0712 -0.11274,-0.10665 -0.21084,-0.10665 -0.0688,0 -0.12385,0.0134 -0.16485,0.041 -0.0395,0.0276 -0.0705,0.0683 -0.0925,0.12202 -0.0205,0.0523 -0.034,0.11794 -0.0413,0.19636 -0.006,0.077 -0.009,0.16646 -0.009,0.26814 v 0.16971 c 0,0.10314 0.003,0.1938 0.009,0.27224 0.006,0.077 0.0188,0.14201 0.0393,0.19431 0.022,0.0523 0.0536,0.0913 0.0946,0.1174 0.041,0.0261 0.0966,0.0395 0.16692,0.0395 0.0864,0 0.15313,-0.0261 0.19998,-0.0785 0.0483,-0.0538 0.0729,-0.14384 0.0744,-0.27018 h 0.58446 c -0.002,0.13364 -0.0243,0.25394 -0.0682,0.36144 -0.0439,0.10604 -0.10421,0.19611 -0.18035,0.27019 -0.0747,0.0741 -0.16312,0.13099 -0.26561,0.17022 -0.10249,0.0392 -0.21317,0.0589 -0.33177,0.0589 -0.15959,0 -0.29843,-0.0255 -0.41703,-0.0764 -0.11859,-0.0509 -0.21755,-0.12409 -0.29662,-0.21995 -0.0776,-0.0973 -0.13617,-0.21644 -0.1757,-0.35735 -0.0381,-0.1409 -0.0568,-0.3018 -0.0568,-0.48193 v -0.16971 c 0,-0.18012 0.0188,-0.3405 0.0568,-0.48142 0.0395,-0.14236 0.0981,-0.26258 0.1757,-0.35991 0.0776,-0.0973 0.17596,-0.17115 0.29456,-0.222 0.1186,-0.0509 0.25683,-0.0764 0.41496,-0.0764 z m 7.1422,0 c 0.30162,0 0.5277,0.0964 0.67851,0.28968 0.15081,0.1932 0.22634,0.47962 0.22634,0.85876 v 0.28095 h -1.23661 c 0.004,0.0944 0.0172,0.17348 0.0377,0.23738 0.022,0.0639 0.0512,0.11559 0.0879,0.15484 0.0366,0.0392 0.0805,0.0678 0.13177,0.0851 0.0527,0.0175 0.11188,0.0262 0.17777,0.0262 0.10981,0 0.20705,-0.0181 0.29197,-0.0544 0.0864,-0.0378 0.16252,-0.0901 0.22841,-0.15689 l 0.24391,0.37222 c -0.0307,0.0422 -0.0711,0.0845 -0.12092,0.12664 -0.0498,0.0407 -0.10835,0.0779 -0.1757,0.11125 -0.0674,0.0334 -0.14349,0.0601 -0.22841,0.0805 -0.0849,0.0217 -0.17802,0.0328 -0.27905,0.0328 -0.16252,0 -0.30662,-0.0249 -0.43253,-0.0743 -0.12592,-0.0494 -0.23194,-0.12032 -0.31833,-0.21327 -0.0864,-0.093 -0.15253,-0.20629 -0.19792,-0.33993 -0.0439,-0.13508 -0.0656,-0.28847 -0.0656,-0.45988 v -0.1938 c 0,-0.19175 0.0211,-0.35965 0.0636,-0.50346 0.0439,-0.14527 0.10602,-0.2667 0.18655,-0.36402 0.082,-0.0988 0.18156,-0.17261 0.29869,-0.222 0.1186,-0.0494 0.2527,-0.0743 0.40204,-0.0743 z m 10.16217,0 c 0.1186,0 0.22755,0.0157 0.32711,0.0461 0.0996,0.0291 0.18569,0.0755 0.2589,0.13946 0.0732,0.0624 0.13057,0.14267 0.17157,0.24148 0.041,0.0973 0.0615,0.21525 0.0615,0.35325 v 1.0459 c 0,0.0682 0.001,0.12928 0.004,0.18302 0.004,0.0523 0.0103,0.10001 0.0176,0.14356 0.007,0.0422 0.0161,0.081 0.0264,0.11587 0.0117,0.0334 0.0251,0.0649 0.0398,0.0954 v 0.0374 h -0.6258 c -0.0117,-0.0247 -0.0222,-0.0526 -0.031,-0.083 -0.007,-0.0319 -0.0144,-0.0651 -0.0217,-0.1 -0.0468,0.0639 -0.10775,0.11739 -0.18242,0.161 -0.0732,0.0435 -0.16339,0.0656 -0.27027,0.0656 -0.0966,0 -0.18741,-0.0169 -0.27234,-0.0502 -0.0835,-0.0334 -0.15666,-0.0805 -0.21962,-0.1415 -0.0615,-0.061 -0.11067,-0.13422 -0.14728,-0.21995 -0.0351,-0.0872 -0.0527,-0.18474 -0.0527,-0.29223 0,-0.11911 0.0193,-0.22661 0.0574,-0.32249 0.0395,-0.0973 0.0981,-0.17927 0.1757,-0.2461 0.0791,-0.0682 0.17691,-0.12057 0.29404,-0.15688 0.1186,-0.0363 0.25795,-0.0544 0.41755,-0.0544 h 0.16898 v -0.1897 c 0,-0.10604 -0.0182,-0.18098 -0.0548,-0.22456 -0.0366,-0.0436 -0.0899,-0.0651 -0.1602,-0.0651 -0.0805,0 -0.14021,0.0238 -0.17828,0.0718 -0.0366,0.0465 -0.0548,0.11272 -0.0548,0.19842 h -0.62167 c 0,-0.10314 0.0199,-0.20012 0.0594,-0.29019 0.041,-0.0915 0.0996,-0.17115 0.1757,-0.23943 0.0761,-0.0683 0.16752,-0.12228 0.2744,-0.1615 0.10689,-0.0407 0.22807,-0.061 0.36277,-0.061 z m 2.40709,0 c 0.0922,0 0.17716,0.0163 0.25476,0.0482 0.0776,0.0305 0.14384,0.0811 0.19947,0.15227 0.0556,0.0712 0.099,0.16414 0.12971,0.2789 0.0308,0.11476 0.046,0.25592 0.046,0.42298 v 1.49912 h -0.62373 v -1.50168 c 0,-0.0755 -0.006,-0.13775 -0.0176,-0.18714 -0.0117,-0.0494 -0.0293,-0.0889 -0.0527,-0.11792 -0.022,-0.0291 -0.0495,-0.0494 -0.0832,-0.061 -0.0337,-0.0116 -0.0735,-0.0175 -0.11886,-0.0175 -0.0586,0 -0.10955,0.0152 -0.15348,0.0456 -0.0439,0.0305 -0.0808,0.0728 -0.11007,0.12663 v 1.7124 h -0.62373 v -2.35737 h 0.58446 l 0.0176,0.23328 c 0.0688,-0.0901 0.14908,-0.1586 0.24133,-0.20508 0.0922,-0.0479 0.19585,-0.0718 0.31006,-0.0718 z m 1.86448,0 c 0.13324,0 0.2527,0.0181 0.35812,0.0544 0.10689,0.0348 0.19766,0.0848 0.27234,0.15021 0.0747,0.0639 0.13151,0.14174 0.17105,0.23328 0.0395,0.0901 0.0594,0.19056 0.0594,0.30096 h -0.62167 c 0,-0.0901 -0.0182,-0.16091 -0.0548,-0.21174 -0.0366,-0.0509 -0.0987,-0.0759 -0.18655,-0.0759 -0.0659,0 -0.12032,0.0203 -0.16278,0.061 -0.0425,0.0407 -0.0636,0.097 -0.0636,0.16971 0,0.0305 0.006,0.0583 0.0196,0.083 0.0146,0.0232 0.0375,0.0464 0.0682,0.0697 0.0322,0.0232 0.0738,0.047 0.12505,0.0717 0.0512,0.0247 0.11447,0.0532 0.18914,0.0851 0.1186,0.0436 0.22109,0.089 0.30747,0.13688 0.0879,0.0479 0.15994,0.10195 0.21704,0.1615 0.0571,0.0581 0.0998,0.12437 0.12765,0.19842 0.0278,0.0741 0.0419,0.15953 0.0419,0.25686 0,0.10459 -0.0205,0.19986 -0.0615,0.28557 -0.041,0.0857 -0.0996,0.15894 -0.1757,0.21995 -0.0747,0.061 -0.16546,0.10917 -0.27234,0.14406 -0.10688,0.0334 -0.22634,0.0497 -0.35812,0.0497 -0.14495,0 -0.27319,-0.0215 -0.38447,-0.0651 -0.10981,-0.0451 -0.2018,-0.10375 -0.27647,-0.17638 -0.0747,-0.0741 -0.13143,-0.15713 -0.1695,-0.24865 -0.0381,-0.093 -0.0568,-0.18714 -0.0568,-0.28301 h 0.59066 c 0.002,0.0639 0.0102,0.11679 0.0263,0.15893 0.0161,0.0407 0.0372,0.0732 0.0636,0.0979 0.0278,0.0247 0.06,0.0422 0.0966,0.0523 0.0381,0.009 0.0791,0.0133 0.12299,0.0133 0.16692,0 0.25063,-0.0749 0.25063,-0.22456 0,-0.0305 -0.008,-0.0578 -0.0243,-0.0825 -0.0146,-0.0261 -0.0387,-0.0517 -0.0723,-0.0764 -0.0322,-0.0261 -0.0749,-0.0523 -0.12764,-0.0785 -0.0527,-0.0261 -0.1154,-0.0552 -0.18861,-0.0871 -0.10835,-0.0435 -0.20439,-0.0883 -0.28784,-0.1333 -0.0835,-0.0465 -0.15374,-0.0977 -0.21084,-0.15432 -0.0571,-0.0581 -0.10042,-0.12318 -0.12971,-0.19431 -0.0293,-0.0726 -0.0439,-0.15578 -0.0439,-0.2502 0,-0.0988 0.0187,-0.19116 0.0553,-0.27686 0.0381,-0.0871 0.092,-0.1627 0.16226,-0.22661 0.0703,-0.0654 0.15581,-0.11645 0.25684,-0.15278 0.10249,-0.0378 0.21841,-0.0564 0.34726,-0.0564 z m 3.54036,0 c 0.10981,0 0.20765,0.0255 0.29404,0.0764 0.0879,0.0509 0.15752,0.13161 0.20877,0.24199 0.0644,-0.10022 0.14409,-0.17807 0.23926,-0.23327 0.0966,-0.0566 0.21084,-0.0851 0.34261,-0.0851 0.0966,0 0.18389,0.0163 0.26149,0.0482 0.0791,0.0319 0.14641,0.0831 0.20205,0.15432 0.0556,0.0711 0.099,0.16414 0.12971,0.27891 0.0308,0.11475 0.046,0.25532 0.046,0.42092 v 1.49912 h -0.62167 v -1.50168 c 0,-0.0785 -0.006,-0.14236 -0.0176,-0.19175 -0.0102,-0.0494 -0.0261,-0.0878 -0.0481,-0.11537 -0.022,-0.0291 -0.0483,-0.0488 -0.0791,-0.0589 -0.0308,-0.0116 -0.0659,-0.0175 -0.10542,-0.0175 -0.0615,0 -0.1136,0.0191 -0.15606,0.057 -0.0425,0.0378 -0.077,0.089 -0.10335,0.15431 10e-4,0.016 0.003,0.0328 0.003,0.0502 0.002,0.0174 0.002,0.0348 0.002,0.0523 v 1.57089 h -0.62167 v -1.49655 c 0,-0.0785 -0.006,-0.14236 -0.0176,-0.19175 -0.0102,-0.0509 -0.0261,-0.091 -0.0481,-0.11997 -0.0205,-0.0291 -0.0469,-0.0488 -0.0791,-0.0589 -0.0308,-0.0116 -0.0659,-0.0175 -0.10542,-0.0175 -0.0571,0 -0.10688,0.0152 -0.14934,0.0456 -0.041,0.0305 -0.0761,0.0728 -0.10542,0.12663 v 1.7124 h -0.62167 v -2.35737 h 0.58188 l 0.0176,0.21789 c 0.0659,-0.0828 0.14434,-0.14671 0.23512,-0.19174 0.0922,-0.0465 0.19767,-0.0697 0.31626,-0.0697 z m 3.67109,0 c 0.1186,0 0.22755,0.0157 0.32711,0.0461 0.0996,0.0291 0.18621,0.0755 0.25942,0.13946 0.0732,0.0624 0.13005,0.14267 0.17105,0.24148 0.041,0.0973 0.0615,0.21525 0.0615,0.35325 v 1.0459 c 0,0.0682 0.002,0.12928 0.005,0.18302 0.004,0.0523 0.0103,0.10001 0.0176,0.14356 0.007,0.0422 0.0161,0.081 0.0264,0.11587 0.0117,0.0334 0.0246,0.0649 0.0393,0.0954 v 0.0374 h -0.6258 c -0.0117,-0.0247 -0.0222,-0.0526 -0.031,-0.083 -0.007,-0.0319 -0.0144,-0.0651 -0.0217,-0.1 -0.0469,0.0639 -0.10775,0.11739 -0.18242,0.161 -0.0732,0.0435 -0.16339,0.0656 -0.27027,0.0656 -0.0966,0 -0.18741,-0.0169 -0.27234,-0.0502 -0.0835,-0.0334 -0.15666,-0.0805 -0.21962,-0.1415 -0.0615,-0.061 -0.11016,-0.13422 -0.14676,-0.21995 -0.0351,-0.0872 -0.0527,-0.18474 -0.0527,-0.29223 0,-0.11911 0.0188,-0.22661 0.0568,-0.32249 0.0395,-0.0973 0.0981,-0.17927 0.1757,-0.2461 0.0791,-0.0682 0.17742,-0.12057 0.29455,-0.15688 0.1186,-0.0363 0.25744,-0.0544 0.41703,-0.0544 h 0.16893 v -0.1897 c 0,-0.10604 -0.0182,-0.18098 -0.0548,-0.22456 -0.0366,-0.0436 -0.0899,-0.0651 -0.16019,-0.0651 -0.0805,0 -0.1397,0.0238 -0.17777,0.0718 -0.0366,0.0465 -0.0553,0.11272 -0.0553,0.19842 h -0.62115 c 0,-0.10314 0.0194,-0.20012 0.0589,-0.29019 0.041,-0.0915 0.0996,-0.17115 0.1757,-0.23943 0.0761,-0.0683 0.16803,-0.12228 0.27492,-0.1615 0.10688,-0.0407 0.22755,-0.061 0.36225,-0.061 z m 2.40709,0 c 0.0922,0 0.17716,0.0163 0.25476,0.0482 0.0776,0.0305 0.14435,0.0811 0.19999,0.15227 0.0556,0.0712 0.0984,0.16414 0.12919,0.2789 0.0308,0.11476 0.0465,0.25592 0.0465,0.42298 v 1.49912 h -0.62373 v -1.50168 c 0,-0.0755 -0.006,-0.13775 -0.0176,-0.18714 -0.0117,-0.0494 -0.0293,-0.0889 -0.0527,-0.11792 -0.022,-0.0291 -0.05,-0.0494 -0.0837,-0.061 -0.0337,-0.0116 -0.0729,-0.0175 -0.11834,-0.0175 -0.0586,0 -0.11007,0.0152 -0.154,0.0456 -0.0439,0.0305 -0.0803,0.0728 -0.10955,0.12663 v 1.7124 h -0.62373 v -2.35737 h 0.58394 l 0.0176,0.23328 c 0.0688,-0.0901 0.1496,-0.1586 0.24184,-0.20508 0.0922,-0.0479 0.19534,-0.0718 0.30955,-0.0718 z m 11.91038,0 c 0.13324,0 0.25218,0.0181 0.3576,0.0544 0.10689,0.0348 0.19767,0.0848 0.27234,0.15021 0.0747,0.0639 0.13203,0.14174 0.17156,0.23328 0.0395,0.0901 0.0594,0.19056 0.0594,0.30096 h -0.62167 c 0,-0.0901 -0.0182,-0.16091 -0.0548,-0.21174 -0.0366,-0.0509 -0.0992,-0.0764 -0.18706,-0.0764 -0.0659,0 -0.11981,0.0203 -0.16227,0.061 -0.0425,0.0407 -0.0636,0.0976 -0.0636,0.17022 0,0.0305 0.007,0.0583 0.0196,0.083 0.0146,0.0232 0.0375,0.0464 0.0682,0.0697 0.0322,0.0232 0.0738,0.047 0.12506,0.0717 0.0513,0.0247 0.11395,0.0532 0.18862,0.0851 0.11859,0.0436 0.22109,0.089 0.30747,0.13688 0.0879,0.0479 0.16046,0.10195 0.21756,0.1615 0.0571,0.0581 0.0998,0.12437 0.12764,0.19842 0.0278,0.0741 0.0413,0.15953 0.0413,0.25686 0,0.10459 -0.0205,0.19986 -0.0615,0.28557 -0.041,0.0857 -0.0996,0.15894 -0.1757,0.21995 -0.0747,0.061 -0.16545,0.10917 -0.27233,0.14406 -0.10689,0.0334 -0.22583,0.0497 -0.35761,0.0497 -0.14495,0 -0.27319,-0.0215 -0.38447,-0.0651 -0.10981,-0.045 -0.20231,-0.10426 -0.27698,-0.17688 -0.0747,-0.0741 -0.13092,-0.15662 -0.16899,-0.24814 -0.0381,-0.093 -0.0568,-0.18765 -0.0568,-0.28352 h 0.59067 c 10e-4,0.0639 0.0103,0.1173 0.0263,0.15944 0.0161,0.0407 0.0372,0.0732 0.0636,0.0979 0.0278,0.0247 0.06,0.0422 0.0966,0.0523 0.0381,0.009 0.0791,0.0128 0.12299,0.0128 0.16691,0 0.25063,-0.0744 0.25063,-0.22404 0,-0.0305 -0.008,-0.0583 -0.0243,-0.083 -0.0146,-0.0261 -0.0387,-0.0511 -0.0723,-0.0759 -0.0322,-0.0261 -0.0749,-0.0523 -0.12764,-0.0785 -0.0527,-0.0261 -0.11541,-0.0552 -0.18862,-0.0871 -0.10835,-0.0436 -0.20438,-0.0883 -0.28784,-0.1333 -0.0835,-0.0465 -0.15374,-0.0977 -0.21084,-0.15432 -0.0571,-0.0581 -0.10042,-0.12318 -0.12971,-0.19431 -0.0293,-0.0726 -0.0439,-0.15578 -0.0439,-0.2502 0,-0.0988 0.0182,-0.19116 0.0548,-0.27686 0.0381,-0.0871 0.0925,-0.1627 0.16278,-0.22661 0.0703,-0.0654 0.15581,-0.11645 0.25683,-0.15278 0.1025,-0.0378 0.21842,-0.0563 0.34727,-0.0563 z m 3.25458,0 c 0.12739,0 0.24332,0.0203 0.34727,0.061 0.10542,0.0392 0.19448,0.0979 0.26768,0.17637 0.0747,0.077 0.13204,0.17286 0.17157,0.28762 0.041,0.11476 0.0621,0.24781 0.0636,0.39888 h -0.58446 c -0.002,-0.13219 -0.0232,-0.23387 -0.0656,-0.30505 -0.0425,-0.0712 -0.11274,-0.10665 -0.21084,-0.10665 -0.0688,0 -0.12385,0.0134 -0.16485,0.041 -0.0395,0.0276 -0.07,0.0683 -0.092,0.12202 -0.0205,0.0523 -0.0345,0.11794 -0.0419,0.19636 -0.006,0.077 -0.009,0.16646 -0.009,0.26814 v 0.16971 c 0,0.10314 0.003,0.1938 0.009,0.27224 0.006,0.077 0.0188,0.14201 0.0393,0.19431 0.022,0.0523 0.0536,0.0913 0.0946,0.1174 0.041,0.0261 0.0966,0.0395 0.16692,0.0395 0.0864,0 0.15313,-0.0261 0.19998,-0.0785 0.0483,-0.0538 0.0729,-0.14384 0.0744,-0.27018 h 0.58446 c -0.002,0.13364 -0.0243,0.25394 -0.0682,0.36144 -0.0439,0.10604 -0.10369,0.19611 -0.17983,0.27019 -0.0747,0.0741 -0.16364,0.13099 -0.26613,0.17022 -0.10249,0.0392 -0.21265,0.0589 -0.33125,0.0589 -0.15959,0 -0.29895,-0.0255 -0.41754,-0.0764 -0.1186,-0.0509 -0.21756,-0.12461 -0.29663,-0.22046 -0.0776,-0.0973 -0.13616,-0.21644 -0.1757,-0.35735 -0.0381,-0.1409 -0.0568,-0.30129 -0.0568,-0.48142 v -0.16971 c 0,-0.18012 0.0188,-0.34102 0.0568,-0.48193 0.0395,-0.14235 0.0981,-0.26207 0.1757,-0.3594 0.0776,-0.0973 0.17596,-0.17115 0.29456,-0.222 0.1186,-0.0509 0.25683,-0.0764 0.41496,-0.0764 z m 2.04897,0 c 0.1186,0 0.22807,0.0152 0.32763,0.0456 0.0996,0.0291 0.18569,0.0755 0.2589,0.13945 0.0732,0.0624 0.13057,0.14318 0.17157,0.24199 0.041,0.0973 0.0615,0.21525 0.0615,0.35325 v 1.0459 c 0,0.0682 0.001,0.12928 0.004,0.18302 0.004,0.0523 0.0103,0.10001 0.0176,0.14356 0.007,0.0422 0.0161,0.0805 0.0263,0.11536 0.0117,0.0334 0.0251,0.0654 0.0398,0.0958 v 0.0374 h -0.62628 c -0.0117,-0.0247 -0.0217,-0.0526 -0.0305,-0.083 -0.007,-0.0319 -0.0149,-0.0651 -0.0222,-0.1 -0.0468,0.0639 -0.10722,0.11739 -0.1819,0.161 -0.0732,0.0436 -0.16338,0.0656 -0.27026,0.0656 -0.0966,0 -0.18742,-0.0169 -0.27234,-0.0502 -0.0835,-0.0334 -0.15667,-0.0805 -0.21962,-0.1415 -0.0615,-0.061 -0.11068,-0.13472 -0.14728,-0.22046 -0.0351,-0.0872 -0.0527,-0.18423 -0.0527,-0.29172 0,-0.11911 0.0193,-0.22661 0.0574,-0.32249 0.0395,-0.0973 0.0981,-0.17927 0.1757,-0.2461 0.0791,-0.0683 0.1769,-0.12057 0.29404,-0.15688 0.11859,-0.0363 0.25795,-0.0544 0.41754,-0.0544 h 0.16898 v -0.1897 c 0,-0.10604 -0.0182,-0.18098 -0.0548,-0.22456 -0.0366,-0.0436 -0.0904,-0.0656 -0.16071,-0.0656 -0.0805,0 -0.1397,0.0243 -0.17777,0.0723 -0.0366,0.0465 -0.0548,0.11272 -0.0548,0.19842 h -0.62166 c 0,-0.10314 0.0199,-0.20012 0.0594,-0.29019 0.041,-0.0915 0.0996,-0.17115 0.1757,-0.23943 0.0761,-0.0683 0.16751,-0.12228 0.2744,-0.1615 0.10688,-0.0407 0.22755,-0.061 0.36225,-0.061 z m 7.97936,0 c 0.1186,0 0.22755,0.0152 0.32711,0.0456 0.0996,0.0291 0.1857,0.0755 0.2589,0.13945 0.0732,0.0624 0.13057,0.14318 0.17157,0.24199 0.041,0.0973 0.0615,0.21525 0.0615,0.35325 v 1.0459 c 0,0.0682 10e-4,0.12928 0.004,0.18302 0.004,0.0523 0.0103,0.10001 0.0176,0.14356 0.007,0.0422 0.0161,0.0805 0.0264,0.11536 0.0117,0.0334 0.0251,0.0654 0.0398,0.0958 v 0.0374 h -0.6258 c -0.0117,-0.0247 -0.0222,-0.0526 -0.031,-0.083 -0.007,-0.0319 -0.0144,-0.0651 -0.0217,-0.1 -0.0469,0.0639 -0.10775,0.11739 -0.18242,0.161 -0.0732,0.0436 -0.16339,0.0656 -0.27027,0.0656 -0.0966,0 -0.18741,-0.0169 -0.27233,-0.0502 -0.0835,-0.0334 -0.15667,-0.0805 -0.21963,-0.1415 -0.0615,-0.061 -0.11067,-0.13472 -0.14728,-0.22046 -0.0351,-0.0872 -0.0527,-0.18423 -0.0527,-0.29172 0,-0.11911 0.0193,-0.22661 0.0574,-0.32249 0.0395,-0.0973 0.0981,-0.17927 0.1757,-0.2461 0.0791,-0.0683 0.17691,-0.12057 0.29404,-0.15688 0.1186,-0.0363 0.25795,-0.0544 0.41755,-0.0544 h 0.16898 v -0.1897 c 0,-0.10604 -0.0182,-0.18098 -0.0548,-0.22456 -0.0366,-0.0436 -0.0899,-0.0656 -0.1602,-0.0656 -0.0805,0 -0.14021,0.0243 -0.17828,0.0723 -0.0366,0.0465 -0.0548,0.11272 -0.0548,0.19842 h -0.62163 c 0,-0.10314 0.0199,-0.20012 0.0594,-0.29019 0.041,-0.0915 0.0996,-0.17115 0.1757,-0.23943 0.0761,-0.0683 0.16752,-0.12228 0.27441,-0.1615 0.10688,-0.0407 0.22806,-0.061 0.36276,-0.061 z m 2.40709,0 c 0.0922,0 0.17717,0.0158 0.25477,0.0477 0.0776,0.0305 0.14383,0.0815 0.19947,0.15279 0.0556,0.0712 0.099,0.16414 0.1297,0.2789 0.0308,0.11476 0.046,0.25541 0.046,0.42246 v 1.49964 h -0.62373 v -1.50168 c 0,-0.0755 -0.006,-0.13775 -0.0176,-0.18714 -0.0117,-0.0494 -0.0293,-0.0889 -0.0527,-0.11792 -0.022,-0.0291 -0.0495,-0.0494 -0.0832,-0.061 -0.0337,-0.0116 -0.0735,-0.0175 -0.11886,-0.0175 -0.0586,0 -0.10955,0.0152 -0.15347,0.0456 -0.0439,0.0305 -0.0808,0.0728 -0.11008,0.12663 v 1.7124 h -0.62373 v -2.35737 h 0.58446 l 0.0176,0.23328 c 0.0688,-0.0901 0.14909,-0.1586 0.24133,-0.20508 0.0922,-0.0479 0.19586,-0.0718 0.31006,-0.0718 z m 2.21382,0 c 0.0922,0 0.17716,0.0158 0.25476,0.0477 0.0776,0.0305 0.14384,0.0815 0.19948,0.15279 0.0556,0.0712 0.099,0.16414 0.1297,0.2789 0.0308,0.11476 0.046,0.25541 0.046,0.42246 v 1.49964 h -0.62373 v -1.50168 c 0,-0.0755 -0.006,-0.13775 -0.0176,-0.18714 -0.0117,-0.0494 -0.0293,-0.0889 -0.0527,-0.11792 -0.022,-0.0291 -0.0495,-0.0494 -0.0832,-0.061 -0.0337,-0.0116 -0.0735,-0.0175 -0.11886,-0.0175 -0.0586,0 -0.10955,0.0152 -0.15348,0.0456 -0.0439,0.0305 -0.0808,0.0728 -0.11007,0.12663 v 1.7124 h -0.62373 v -2.35737 h 0.58446 l 0.0176,0.23328 c 0.0688,-0.0901 0.14908,-0.1586 0.24133,-0.20508 0.0922,-0.0479 0.19585,-0.0718 0.31006,-0.0718 z m 3.34708,0 c 0.0922,0 0.17717,0.0158 0.25477,0.0477 0.0776,0.0305 0.14383,0.0815 0.19947,0.15279 0.0556,0.0712 0.099,0.16414 0.12971,0.2789 0.0307,0.11476 0.046,0.25541 0.046,0.42246 v 1.49964 h -0.62374 v -1.50168 c 0,-0.0755 -0.006,-0.13775 -0.0176,-0.18714 -0.0117,-0.0494 -0.0293,-0.0889 -0.0527,-0.11792 -0.022,-0.0291 -0.0495,-0.0494 -0.0832,-0.061 -0.0337,-0.0116 -0.0735,-0.0175 -0.11885,-0.0175 -0.0586,0 -0.10956,0.0152 -0.15348,0.0456 -0.0439,0.0305 -0.0808,0.0728 -0.11007,0.12663 v 1.7124 h -0.62374 v -2.35737 h 0.58446 l 0.0176,0.23328 c 0.0688,-0.0901 0.14909,-0.1586 0.24133,-0.20508 0.0922,-0.0479 0.19585,-0.0718 0.31006,-0.0718 z m 1.80299,0 c 0.11567,0 0.21351,0.0226 0.29404,0.0677 0.0805,0.0436 0.149,0.1052 0.20464,0.18508 l 0.0238,-0.20918 h 0.56017 v 2.35789 c 0,0.16124 -0.024,0.29958 -0.0723,0.41579 -0.0469,0.11767 -0.1136,0.21465 -0.19998,0.29019 -0.0864,0.0755 -0.19009,0.13134 -0.31161,0.16765 -0.12007,0.0363 -0.25417,0.0544 -0.40205,0.0544 -0.0556,0 -0.11713,-0.006 -0.18448,-0.0175 -0.0674,-0.0116 -0.1347,-0.0291 -0.20206,-0.0523 -0.0674,-0.0217 -0.13177,-0.0502 -0.19327,-0.0851 -0.06,-0.0334 -0.11041,-0.0735 -0.15141,-0.11996 l 0.20826,-0.42708 c 0.0278,0.0291 0.0611,0.0562 0.0992,0.0811 0.0395,0.0261 0.0805,0.0476 0.12299,0.0651 0.0439,0.0189 0.0891,0.0334 0.13591,0.0435 0.0469,0.0116 0.0925,0.0175 0.13642,0.0175 0.063,0 0.1186,-0.007 0.16692,-0.0215 0.0498,-0.0131 0.0914,-0.0363 0.12505,-0.0697 0.0337,-0.0334 0.0583,-0.0781 0.0744,-0.13331 0.0176,-0.0552 0.0264,-0.12377 0.0264,-0.20661 v -0.1897 c -0.0571,0.0741 -0.12333,0.1316 -0.19947,0.17227 -0.0747,0.0392 -0.16252,0.0584 -0.26355,0.0584 -0.12591,0 -0.23891,-0.0244 -0.33848,-0.0738 -0.0981,-0.0494 -0.1813,-0.12203 -0.25011,-0.21789 -0.0674,-0.0958 -0.11946,-0.21439 -0.15606,-0.3553 -0.0366,-0.14236 -0.0548,-0.30625 -0.0548,-0.49218 v -0.15484 c 0,-0.38641 0.0703,-0.67462 0.21084,-0.86492 0.14056,-0.19029 0.33736,-0.28557 0.59066,-0.28557 z m -26.04079,0.0431 h 0.66766 l 0.28526,1.33199 0.31626,-1.33148 h 0.66352 l -0.78186,2.71062 c -0.0176,0.0595 -0.0421,0.12405 -0.0729,0.1938 -0.0293,0.0697 -0.0692,0.13475 -0.12041,0.19431 -0.0512,0.061 -0.11506,0.11097 -0.1912,0.15022 -0.0761,0.0407 -0.16864,0.061 -0.27699,0.061 -0.0278,0 -0.0525,-9.9e-4 -0.0744,-0.004 -0.0205,-0.001 -0.0404,-0.003 -0.0594,-0.007 -0.0176,-0.003 -0.0357,-0.007 -0.0548,-0.0133 -0.019,-0.005 -0.0412,-0.0104 -0.0661,-0.0175 v -0.48141 c 0.0117,9.9e-4 0.0234,0.002 0.0351,0.002 h 0.0377 c 0.0498,0 0.0926,-0.005 0.12919,-0.0154 0.0366,-0.009 0.0676,-0.0232 0.0925,-0.0436 0.0263,-0.0203 0.0474,-0.0464 0.0636,-0.0785 0.0176,-0.0305 0.0322,-0.0677 0.0439,-0.11125 l 0.0486,-0.15894 z m -45.62408,5.1e-4 h 0.62373 v 2.35789 h -0.62373 z m 8.07341,0 h 0.62166 v 1.52988 c 0,0.12929 0.0211,0.22166 0.0636,0.27686 0.0425,0.0538 0.0981,0.0805 0.16692,0.0805 0.0761,0 0.13935,-0.0163 0.18913,-0.0482 0.0498,-0.0334 0.089,-0.0782 0.11834,-0.13484 v -1.7042 h 0.6258 v 2.35789 h -0.58394 l -0.0176,-0.21585 c -0.0615,0.0828 -0.1353,0.14672 -0.22169,0.19175 -0.0849,0.045 -0.18388,0.0677 -0.29662,0.0677 -0.0996,0 -0.19035,-0.0163 -0.27234,-0.0482 -0.0805,-0.0334 -0.15021,-0.0846 -0.20877,-0.15433 -0.0586,-0.0712 -0.1037,-0.16235 -0.13591,-0.27275 -0.0322,-0.11186 -0.0486,-0.2455 -0.0486,-0.40093 z m 20.29126,0 h 0.62374 v 2.35789 h -0.62374 z m 21.52892,0 h 0.62374 v 2.35789 h -0.62374 z m 17.72553,0 h 0.62374 v 2.35789 h -0.62374 z m -74.94994,0.0436 -0.29869,1.13101 h 0.59738 z m 10.7089,0.42502 c -0.10834,0 -0.18741,0.0384 -0.23719,0.11536 -0.0483,0.077 -0.077,0.20073 -0.0858,0.37068 h 0.62167 v -0.057 c -0.003,-0.1409 -0.0264,-0.2478 -0.0703,-0.32043 -0.0439,-0.0726 -0.12007,-0.1087 -0.22841,-0.1087 z m 9.26611,0 c -0.10835,0 -0.18742,0.0384 -0.2372,0.11536 -0.0483,0.077 -0.077,0.20073 -0.0858,0.37068 h 0.62167 v -0.057 c -0.003,-0.1409 -0.0264,-0.2478 -0.0703,-0.32043 -0.0439,-0.0726 -0.12007,-0.1087 -0.22841,-0.1087 z m 7.99847,0.004 c -0.0703,0 -0.12884,0.0163 -0.1757,0.0482 -0.0454,0.0305 -0.0822,0.0735 -0.11007,0.12869 v 1.07409 c 0.0264,0.0523 0.0632,0.093 0.11007,0.12203 0.0469,0.0291 0.10663,0.0436 0.17984,0.0436 0.0673,0 0.12239,-0.0116 0.16485,-0.0348 0.0425,-0.0232 0.0747,-0.0604 0.0966,-0.11126 0.0234,-0.0509 0.0387,-0.11598 0.046,-0.19586 0.009,-0.0799 0.0134,-0.17748 0.0134,-0.29223 v -0.15483 c 0,-0.10605 -0.005,-0.1979 -0.0134,-0.27634 -0.007,-0.0785 -0.0226,-0.14407 -0.046,-0.19637 -0.0234,-0.0523 -0.0562,-0.0907 -0.0987,-0.11535 -0.0425,-0.0261 -0.0981,-0.0395 -0.16692,-0.0395 z m 18.00356,0 c -0.0615,0 -0.11309,0.0128 -0.15555,0.0374 -0.041,0.0247 -0.0749,0.0624 -0.10129,0.1133 -0.0263,0.0509 -0.0451,0.11657 -0.0568,0.19791 -0.0103,0.0799 -0.0155,0.17516 -0.0155,0.28556 v 0.15484 c 0,0.10895 0.005,0.20251 0.0155,0.28095 0.0102,0.0785 0.0278,0.14407 0.0527,0.19636 0.0263,0.0509 0.0598,0.0886 0.10077,0.11331 0.0425,0.0232 0.0952,0.0348 0.15813,0.0348 0.0659,0 0.12153,-0.0146 0.16692,-0.0436 0.0454,-0.0291 0.0829,-0.0691 0.11214,-0.11997 v -1.07665 c -0.0293,-0.0553 -0.0674,-0.0977 -0.11421,-0.12818 -0.0454,-0.0305 -0.0998,-0.0461 -0.16278,-0.0461 z m 33.20107,0 c -0.12299,0 -0.21489,0.0505 -0.27492,0.15073 -0.0586,0.10023 -0.0879,0.26121 -0.0879,0.48347 v 0.15484 c 0,0.21789 0.0287,0.37709 0.0858,0.47731 0.0571,0.0988 0.14788,0.14818 0.27234,0.14818 0.0674,0 0.12359,-0.0116 0.16898,-0.0348 0.0469,-0.0247 0.0849,-0.0589 0.1142,-0.10253 v -1.1264 c -0.0308,-0.0479 -0.0694,-0.0851 -0.11627,-0.11125 -0.0454,-0.0261 -0.0993,-0.0395 -0.16226,-0.0395 z m -48.98667,0.81518 c -0.0586,0 -0.10895,0.009 -0.15142,0.0282 -0.0425,0.0189 -0.0782,0.0449 -0.10748,0.0785 -0.0278,0.0334 -0.0489,0.0728 -0.0636,0.11791 -0.0132,0.045 -0.0201,0.0928 -0.0201,0.14356 0,0.0857 0.0176,0.15133 0.0527,0.19636 0.0366,0.0436 0.0881,0.0651 0.15399,0.0651 0.0688,0 0.12739,-0.014 0.1757,-0.0416 0.0483,-0.0276 0.0841,-0.0601 0.10749,-0.0979 v -0.49014 z m 11.48353,0 c -0.0586,0 -0.10946,0.009 -0.15193,0.0282 -0.0425,0.0189 -0.0782,0.0449 -0.10748,0.0785 -0.0278,0.0334 -0.0489,0.0728 -0.0636,0.11791 -0.0132,0.045 -0.0196,0.0928 -0.0196,0.14356 0,0.0857 0.0176,0.15133 0.0527,0.19636 0.0366,0.0436 0.0876,0.0651 0.15348,0.0651 0.0688,0 0.12738,-0.014 0.1757,-0.0416 0.0483,-0.0276 0.0841,-0.0601 0.10748,-0.0979 v -0.49014 z m 19.62103,0 c -0.0586,0 -0.10895,0.009 -0.15141,0.0282 -0.0425,0.0189 -0.0782,0.0449 -0.10749,0.0785 -0.0278,0.0334 -0.0494,0.0728 -0.0641,0.11791 -0.0132,0.045 -0.0196,0.0928 -0.0196,0.14356 0,0.0857 0.0176,0.15133 0.0527,0.19636 0.0366,0.0436 0.0881,0.0651 0.15399,0.0651 0.0688,0 0.12739,-0.014 0.1757,-0.0416 0.0483,-0.0276 0.0841,-0.0601 0.10749,-0.0979 v -0.49014 z m 7.97884,0 c -0.0586,0 -0.10895,0.009 -0.15141,0.0282 -0.0425,0.0189 -0.0782,0.0449 -0.10749,0.0785 -0.0278,0.0334 -0.0489,0.0728 -0.0636,0.11791 -0.0132,0.045 -0.0202,0.0928 -0.0202,0.14356 0,0.0857 0.0176,0.15133 0.0527,0.19636 0.0366,0.0436 0.0881,0.0651 0.15399,0.0651 0.0688,0 0.12739,-0.014 0.1757,-0.0416 0.0483,-0.0276 0.0841,-0.0601 0.10749,-0.0979 v -0.49014 z m -47.95831,0.53372 h 0.54053 l -0.002,0.43169 c 0,0.0828 -0.0111,0.16594 -0.0331,0.2502 -0.022,0.0842 -0.0518,0.16559 -0.0899,0.24404 -0.0381,0.0799 -0.0843,0.15483 -0.13849,0.22456 -0.0527,0.0697 -0.11067,0.13133 -0.17363,0.18508 l -0.33177,-0.17175 c 0.0263,-0.0494 0.0527,-0.0988 0.0791,-0.14817 0.0278,-0.0494 0.053,-0.10171 0.0749,-0.15689 0.022,-0.0553 0.0395,-0.11563 0.0527,-0.18097 0.0146,-0.0639 0.0217,-0.13534 0.0217,-0.2138 z" /><path
       id="path174"
       style="fill:#808ff7;fill-opacity:1;stroke-width:0.499999;stroke-linejoin:round;stroke-miterlimit:3.4;stroke-dashoffset:19.8539;stroke-opacity:0.509044"
       d="m 469.43801,95.677364 v 10.499616 h 1.96526 V 95.677364 Z m 2.48254,0 v 10.499616 h 1.99988 V 95.677364 Z m 2.5001,0 v 10.499616 h 1.99988 V 95.677364 Z m 2.50011,0 v 10.499616 h 1.99988 V 95.677364 Z m 2.50011,0 v 10.499616 h 1.99987 V 95.677364 Z m 2.49958,0 v 10.499616 h 2.0004 V 95.677364 Z" /></g></svg>
