<?xml version="1.0" encoding="UTF-8" standalone="no"?>
<!-- Created with Inkscape (http://www.inkscape.org/) -->

<svg
   width="45.080452mm"
   height="10.500135mm"
   viewBox="0 0 45.080452 10.500135"
   version="1.1"
   id="svg1"
   xml:space="preserve"
   inkscape:version="1.3.1 (91b66b0783, 2023-11-16)"
   sodipodi:docname="topic_19.svg"
   xmlns:inkscape="http://www.inkscape.org/namespaces/inkscape"
   xmlns:sodipodi="http://sodipodi.sourceforge.net/DTD/sodipodi-0.dtd"
   xmlns="http://www.w3.org/2000/svg"
   xmlns:svg="http://www.w3.org/2000/svg"><sodipodi:namedview
     id="namedview1"
     pagecolor="#ffffff"
     bordercolor="#000000"
     borderopacity="0.25"
     inkscape:showpageshadow="2"
     inkscape:pageopacity="0.0"
     inkscape:pagecheckerboard="0"
     inkscape:deskcolor="#d1d1d1"
     inkscape:document-units="mm"
     inkscape:zoom="2"
     inkscape:cx="-50.5"
     inkscape:cy="45.25"
     inkscape:window-width="2560"
     inkscape:window-height="1346"
     inkscape:window-x="-11"
     inkscape:window-y="-11"
     inkscape:window-maximized="1"
     inkscape:current-layer="layer1"
     showgrid="true"><inkscape:grid
       id="grid668"
       units="mm"
       originx="-319.07682"
       originy="-139.08546"
       spacingx="0.5"
       spacingy="0.5"
       empcolor="#0099e5"
       empopacity="0.30196078"
       color="#0099e5"
       opacity="0.14901961"
       empspacing="5"
       dotted="false"
       gridanglex="30"
       gridanglez="30"
       visible="true" /></sodipodi:namedview><defs
     id="defs1" /><g
     inkscape:label="Layer 1"
     inkscape:groupmode="layer"
     id="layer1"
     transform="translate(-319.07682,-139.08546)"><rect
       style="fill:#f9f9f9;stroke-width:0.499999;stroke-linejoin:round;stroke-miterlimit:3.4;stroke-dashoffset:19.8539"
       id="rect28"
       width="36.238194"
       height="7.1517849"
       x="322.5"
       y="141.4241" /><path
       id="path747"
       style="fill:#2c2c6f;fill-opacity:1;stroke-width:0.264583"
       d="m 322.70294,139.08545 c -2.00263,0 -3.62613,1.61087 -3.62613,3.59772 v 3.3047 c 0,1.98685 1.6235,3.59772 3.62613,3.59772 h 38.97178 v -10.50014 z m 39.48958,0 v 10.50014 h 1.96474 v -10.50014 z m -19.45256,3.47731 h 0.62167 v 1.19683 c 0.0644,-0.0799 0.13763,-0.14144 0.21962,-0.18501 0.0835,-0.0436 0.17596,-0.0656 0.27699,-0.0656 0.0981,0 0.18776,0.0168 0.26975,0.0501 0.082,0.0334 0.15227,0.0865 0.21084,0.15917 0.0586,0.0726 0.10422,0.16697 0.13643,0.28318 0.0322,0.11621 0.0481,0.25773 0.0481,0.42478 v 1.48415 h -0.62373 v -1.48828 c 0,-0.0755 -0.006,-0.13882 -0.0176,-0.18965 -0.0117,-0.0509 -0.0293,-0.0915 -0.0527,-0.12196 -0.0234,-0.0305 -0.0516,-0.052 -0.0853,-0.0651 -0.0337,-0.0131 -0.0735,-0.0202 -0.11885,-0.0202 -0.0615,0 -0.11359,0.0137 -0.15606,0.0413 -0.0425,0.0276 -0.0782,0.0658 -0.10749,0.11369 v 1.72961 h -0.62167 z m 6.70967,5.2e-4 h 0.62373 v 3.34708 h -0.62373 z m -19.22828,0.0527 c 0.0513,0 0.0975,0.008 0.13849,0.0232 0.0425,0.016 0.0782,0.0386 0.10749,0.0677 0.0293,0.0291 0.0521,0.0642 0.0682,0.1049 0.0161,0.0392 0.0243,0.0828 0.0243,0.13074 0,0.0479 -0.008,0.0921 -0.0243,0.13281 -0.0161,0.0392 -0.0389,0.0739 -0.0682,0.10439 -0.0293,0.0291 -0.065,0.0517 -0.10749,0.0677 -0.041,0.016 -0.0872,0.0243 -0.13849,0.0243 -0.0512,0 -0.0981,-0.008 -0.14056,-0.0243 -0.041,-0.016 -0.0761,-0.0386 -0.10542,-0.0677 -0.0293,-0.0305 -0.0516,-0.0652 -0.0677,-0.10439 -0.0161,-0.0407 -0.0243,-0.0848 -0.0243,-0.13281 0,-0.0479 0.008,-0.0916 0.0243,-0.13074 0.0161,-0.0407 0.0384,-0.0758 0.0677,-0.1049 0.0293,-0.0291 0.0644,-0.0517 0.10542,-0.0677 0.0425,-0.016 0.0893,-0.0232 0.14056,-0.0232 z m -7.32669,0.12195 h 0.84336 l 0.6041,2.29444 0.60203,-2.29444 h 0.84336 v 3.17243 h -0.64803 v -0.85886 l 0.0594,-1.3224 -0.6392,2.18126 h -0.43925 l -0.63924,-2.18126 0.0594,1.3224 v 0.85886 h -0.64596 z m 13.27878,0 h 2.21588 v 0.53382 h -0.79065 v 2.63861 h -0.64802 v -2.6386 h -0.77721 z m -6.77323,0.76998 v 5.2e-4 c 0.0278,0 0.0577,0.003 0.0899,0.009 0.0337,0.005 0.0606,0.0111 0.0811,0.0196 l -0.006,0.6103 c -0.0278,-0.003 -0.0624,-0.006 -0.10335,-0.0108 -0.0395,-0.005 -0.0741,-0.007 -0.10335,-0.007 -0.0893,0 -0.16192,0.0186 -0.21756,0.0563 -0.0556,0.0378 -0.0978,0.0933 -0.12712,0.16588 v 1.55805 h -0.62374 v -2.358 h 0.58653 l 0.0176,0.25528 c 0.0469,-0.0944 0.1037,-0.16785 0.17105,-0.22014 0.0688,-0.0523 0.14728,-0.0786 0.23513,-0.0786 z m -2.27738,10e-4 c 0.1186,0 0.22755,0.0151 0.32711,0.0455 0.0996,0.0291 0.18569,0.0756 0.2589,0.13953 0.0732,0.0624 0.13057,0.14303 0.17156,0.24184 0.041,0.0973 0.0615,0.21546 0.0615,0.35347 v 1.04593 c 0,0.0683 0.001,0.1292 0.004,0.18294 0.004,0.0523 0.0103,0.10011 0.0176,0.14366 0.007,0.0422 0.0161,0.0804 0.0264,0.11523 0.0117,0.0334 0.0251,0.0652 0.0398,0.0956 v 0.0372 l -0.62575,5.5e-4 c -0.0117,-0.0247 -0.0222,-0.0527 -0.031,-0.0832 -0.007,-0.0319 -0.0144,-0.0648 -0.0217,-0.0997 -0.0469,0.0639 -0.10774,0.11711 -0.18242,0.16071 -0.0732,0.0435 -0.16339,0.0656 -0.27027,0.0656 -0.0966,0 -0.18741,-0.0168 -0.27233,-0.0501 -0.0835,-0.0334 -0.15667,-0.0806 -0.21963,-0.14159 -0.0615,-0.061 -0.11067,-0.13441 -0.14728,-0.22014 -0.0351,-0.0872 -0.0527,-0.18447 -0.0527,-0.29198 0,-0.11911 0.0193,-0.22659 0.0574,-0.32246 0.0395,-0.0973 0.0981,-0.17916 0.1757,-0.24598 0.0791,-0.0683 0.17691,-0.12077 0.29404,-0.15709 0.1186,-0.0363 0.25796,-0.0548 0.41755,-0.0548 h 0.16898 v -0.18914 c 0,-0.10602 -0.0182,-0.18122 -0.0548,-0.22479 -0.0366,-0.0436 -0.0899,-0.0656 -0.16019,-0.0656 -0.0805,0 -0.14023,0.0243 -0.17829,0.0724 -0.0366,0.0465 -0.0548,0.11222 -0.0548,0.19792 h -0.62167 c 0,-0.10314 0.0199,-0.19932 0.0594,-0.28939 0.041,-0.0915 0.0996,-0.17151 0.1757,-0.23978 0.0761,-0.0683 0.16752,-0.12201 0.2744,-0.16123 0.10688,-0.0407 0.22806,-0.061 0.36277,-0.061 z m 5.03121,0 c 0.0922,0 0.17717,0.0161 0.25477,0.048 0.0776,0.0305 0.14435,0.0813 0.19999,0.15245 0.0556,0.0711 0.099,0.16429 0.1297,0.27905 0.0307,0.11476 0.046,0.25566 0.046,0.42272 v 1.49923 h -0.62374 v -1.50172 c 0,-0.0755 -0.006,-0.13767 -0.0176,-0.18707 -0.0117,-0.0494 -0.0293,-0.0888 -0.0527,-0.11782 -0.022,-0.0291 -0.0495,-0.0494 -0.0832,-0.061 -0.0337,-0.0116 -0.0735,-0.0176 -0.11885,-0.0176 -0.0586,0 -0.10956,0.0151 -0.15348,0.0455 -0.0439,0.0305 -0.0808,0.0729 -0.11007,0.12661 v 1.7131 h -0.62374 v -2.358 h 0.58446 l 0.0176,0.23306 c 0.0688,-0.0901 0.14909,-0.15815 0.24133,-0.20463 0.0922,-0.0479 0.19534,-0.0718 0.30954,-0.0718 z m 1.97249,0 c 0.30162,0 0.52772,0.0961 0.67851,0.28938 0.15081,0.19321 0.22635,0.47974 0.22635,0.85887 v 0.28112 h -1.23662 c 0.004,0.0945 0.0167,0.17328 0.0372,0.23719 0.022,0.0639 0.0512,0.11579 0.0879,0.15503 0.0366,0.0392 0.0805,0.0679 0.13177,0.0853 0.0527,0.0175 0.1124,0.0258 0.17829,0.0258 0.10981,0 0.20705,-0.018 0.29197,-0.0543 0.0864,-0.0378 0.16253,-0.0903 0.22841,-0.15709 l 0.24391,0.37258 c -0.0307,0.0422 -0.0711,0.0845 -0.12092,0.12661 -0.0498,0.0407 -0.10834,0.0778 -0.1757,0.11111 -0.0674,0.0334 -0.14349,0.0602 -0.22841,0.0806 -0.0849,0.0217 -0.17802,0.0326 -0.27905,0.0326 -0.16252,0 -0.30662,-0.025 -0.43254,-0.0744 -0.12592,-0.0494 -0.23193,-0.11996 -0.31832,-0.2129 -0.0864,-0.093 -0.15253,-0.20639 -0.19792,-0.34003 -0.0439,-0.1351 -0.0656,-0.2885 -0.0656,-0.45992 v -0.19379 c 0,-0.19176 0.0211,-0.35951 0.0636,-0.50333 0.0439,-0.14526 0.10603,-0.267 0.18655,-0.36432 0.082,-0.0988 0.18156,-0.1723 0.29869,-0.22169 0.1186,-0.0494 0.25269,-0.0744 0.40204,-0.0744 z m 5.30407,0 c 0.30162,0 0.5277,0.0961 0.67851,0.28938 0.1508,0.19321 0.22635,0.47974 0.22635,0.85887 v 0.28112 h -1.23662 c 0.004,0.0945 0.0167,0.17328 0.0372,0.23719 0.022,0.0639 0.0512,0.11579 0.0879,0.15503 0.0366,0.0392 0.0805,0.0679 0.13177,0.0853 0.0527,0.0175 0.11188,0.0258 0.17777,0.0258 0.10982,0 0.20757,-0.018 0.29249,-0.0543 0.0864,-0.0378 0.16252,-0.0903 0.22841,-0.15709 l 0.24339,0.37258 c -0.0307,0.0422 -0.0706,0.0845 -0.1204,0.12661 -0.0498,0.0407 -0.10834,0.0778 -0.1757,0.11111 -0.0674,0.0334 -0.14349,0.0602 -0.22841,0.0806 -0.0849,0.0217 -0.17803,0.0326 -0.27906,0.0326 -0.16252,0 -0.30661,-0.025 -0.43253,-0.0744 -0.12592,-0.0494 -0.23245,-0.11996 -0.31884,-0.2129 -0.0864,-0.093 -0.15201,-0.20639 -0.1974,-0.34003 -0.0439,-0.1351 -0.0661,-0.2885 -0.0661,-0.45992 v -0.19379 c 0,-0.19176 0.0216,-0.35951 0.0641,-0.50333 0.0439,-0.14526 0.10603,-0.267 0.18655,-0.36432 0.082,-0.0988 0.18156,-0.1723 0.29869,-0.22169 0.1186,-0.0494 0.2527,-0.0744 0.40204,-0.0744 z m 2.12339,0 c 0.12738,0 0.24331,0.0203 0.34726,0.061 0.10542,0.0392 0.19448,0.0978 0.26769,0.17622 0.0747,0.077 0.13203,0.17307 0.17156,0.28784 0.041,0.11475 0.0621,0.24787 0.0636,0.39894 h -0.58394 c -10e-4,-0.13219 -0.0237,-0.23424 -0.0661,-0.30541 -0.0425,-0.0711 -0.11274,-0.10645 -0.21084,-0.10645 -0.0688,0 -0.12384,0.0132 -0.16484,0.0408 -0.0395,0.0276 -0.07,0.0682 -0.092,0.12196 -0.0205,0.0523 -0.0344,0.11795 -0.0418,0.19637 -0.006,0.077 -0.009,0.16651 -0.009,0.2682 v 0.17002 c 0,0.10313 0.003,0.19388 0.009,0.27233 0.006,0.077 0.0193,0.14202 0.0398,0.1943 0.022,0.0523 0.053,0.0912 0.0941,0.11731 0.041,0.0261 0.0966,0.0393 0.16691,0.0393 0.0864,0 0.15314,-0.0261 0.19999,-0.0785 0.0483,-0.0538 0.0735,-0.14392 0.0749,-0.27027 h 0.58394 c -0.002,0.13365 -0.0243,0.25423 -0.0682,0.36173 -0.0439,0.10605 -0.10369,0.19618 -0.17983,0.27027 -0.0747,0.0741 -0.16313,0.1308 -0.26562,0.17002 -0.10249,0.0392 -0.21317,0.0589 -0.33176,0.0589 -0.1596,0 -0.29895,-0.0256 -0.41755,-0.0765 -0.1186,-0.0509 -0.21703,-0.12378 -0.2961,-0.21963 -0.0776,-0.0973 -0.13616,-0.2167 -0.1757,-0.3576 -0.0381,-0.14091 -0.0574,-0.3015 -0.0574,-0.48162 v -0.17002 c 0,-0.18013 0.0193,-0.34021 0.0574,-0.48111 0.0395,-0.14238 0.0981,-0.26286 0.1757,-0.36018 0.0776,-0.0973 0.17544,-0.17136 0.29404,-0.22221 0.1186,-0.0509 0.25683,-0.076 0.41496,-0.076 z m 4.55321,0 c 0.0922,0 0.17716,0.0161 0.25476,0.048 0.0776,0.0305 0.14384,0.0813 0.19947,0.15245 0.0556,0.0711 0.099,0.16429 0.12971,0.27905 0.0307,0.11476 0.046,0.25566 0.046,0.42272 v 1.49923 h -0.62373 v -1.50172 c 0,-0.0755 -0.006,-0.13767 -0.0176,-0.18707 -0.0117,-0.0494 -0.0293,-0.0888 -0.0527,-0.11782 -0.022,-0.0291 -0.0495,-0.0494 -0.0832,-0.061 -0.0337,-0.0116 -0.0735,-0.0176 -0.11886,-0.0176 -0.0586,0 -0.10955,0.0151 -0.15348,0.0455 -0.0439,0.0305 -0.0808,0.0729 -0.11007,0.12661 v 1.7131 h -0.62373 v -2.358 h 0.58446 l 0.0176,0.23306 c 0.0688,-0.0901 0.14908,-0.15815 0.24133,-0.20463 0.0922,-0.0479 0.19585,-0.0718 0.31006,-0.0718 z m 1.96319,0 c 0.14786,0 0.28137,0.0256 0.39997,0.0765 0.1186,0.0494 0.21936,0.12231 0.30282,0.21962 0.0835,0.0973 0.14788,0.21732 0.19327,0.35967 0.0454,0.14236 0.0682,0.30591 0.0682,0.49041 v 0.15451 c 0,0.18594 -0.0228,0.35013 -0.0682,0.49248 -0.0439,0.14091 -0.10774,0.26027 -0.1912,0.3576 -0.0835,0.0973 -0.18422,0.17076 -0.30282,0.22014 -0.1186,0.0494 -0.25098,0.0739 -0.39739,0.0739 -0.14788,0 -0.28138,-0.0245 -0.39998,-0.0739 -0.1186,-0.0494 -0.21936,-0.12283 -0.30282,-0.22014 -0.0835,-0.0973 -0.14788,-0.21669 -0.19327,-0.3576 -0.0454,-0.14235 -0.0682,-0.30654 -0.0682,-0.49248 v -0.15451 c 0,-0.1845 0.0228,-0.34805 0.0682,-0.49041 0.0454,-0.14235 0.10981,-0.26235 0.19327,-0.35967 0.0835,-0.0973 0.18362,-0.17023 0.30075,-0.21962 0.1186,-0.0509 0.25098,-0.0765 0.3974,-0.0765 z m 3.37137,0 c 0.14788,0 0.28085,0.0256 0.39945,0.0765 0.11859,0.0494 0.2199,0.12231 0.30334,0.21962 0.0835,0.0973 0.14788,0.21732 0.19327,0.35967 0.0454,0.14236 0.0682,0.30591 0.0682,0.49041 v 0.15451 c 0,0.18594 -0.0228,0.35013 -0.0682,0.49248 -0.0439,0.14091 -0.10774,0.26027 -0.1912,0.3576 -0.0835,0.0973 -0.18422,0.17076 -0.30282,0.22014 -0.1186,0.0494 -0.25149,0.0739 -0.39791,0.0739 -0.14788,0 -0.28086,-0.0245 -0.39946,-0.0739 -0.1186,-0.0494 -0.21988,-0.12283 -0.30334,-0.22014 -0.0835,-0.0973 -0.14788,-0.21669 -0.19327,-0.3576 -0.0454,-0.14235 -0.0677,-0.30654 -0.0677,-0.49248 v -0.15451 c 0,-0.1845 0.0223,-0.34805 0.0677,-0.49041 0.0454,-0.14235 0.10981,-0.26235 0.19327,-0.35967 0.0835,-0.0973 0.18413,-0.17023 0.30127,-0.21962 0.11859,-0.0509 0.25098,-0.0765 0.3974,-0.0765 z m 2.07739,0 c 0.11567,0 0.21402,0.0226 0.29455,0.0677 0.0805,0.0436 0.14849,0.10512 0.20413,0.185 l 0.0243,-0.20929 h 0.56018 v 2.35804 c 0,0.16124 -0.0245,0.2998 -0.0729,0.41599 -0.0469,0.11767 -0.11308,0.21438 -0.19947,0.28991 -0.0864,0.0755 -0.19059,0.13164 -0.31212,0.16795 -0.12006,0.0363 -0.25417,0.0543 -0.40205,0.0543 -0.0556,0 -0.11713,-0.006 -0.18448,-0.0176 -0.0673,-0.0116 -0.13471,-0.029 -0.20206,-0.0522 -0.0674,-0.0217 -0.13177,-0.0504 -0.19327,-0.0853 -0.06,-0.0334 -0.11042,-0.0728 -0.15141,-0.11937 l 0.20877,-0.42685 c 0.0278,0.0291 0.0606,0.0554 0.0987,0.0801 0.0395,0.0261 0.0805,0.0476 0.12299,0.0651 0.0439,0.0189 0.0896,0.0336 0.13642,0.0439 0.0469,0.0116 0.092,0.0176 0.13591,0.0176 0.063,0 0.11861,-0.007 0.16692,-0.0217 0.0498,-0.0131 0.0914,-0.0364 0.12505,-0.0698 0.0337,-0.0334 0.0588,-0.0776 0.0749,-0.13281 0.0176,-0.0553 0.0264,-0.12443 0.0264,-0.20722 v -0.18966 c -0.0571,0.0741 -0.12385,0.13194 -0.19999,0.1726 -0.0747,0.0392 -0.16252,0.0589 -0.26355,0.0589 -0.12592,0 -0.2384,-0.025 -0.33796,-0.0744 -0.0981,-0.0494 -0.18182,-0.12221 -0.25063,-0.21807 -0.0674,-0.0958 -0.11947,-0.21411 -0.15607,-0.35502 -0.0366,-0.14237 -0.0548,-0.30654 -0.0548,-0.49248 v -0.15503 c 0,-0.3864 0.0703,-0.67424 0.21084,-0.86454 0.14056,-0.1903 0.33736,-0.28577 0.59066,-0.28577 z m -23.60735,0.0434 h 0.62374 v 2.35805 h -0.62374 z m 24.95145,0 h 0.66766 l 0.28577,1.33171 0.31626,-1.33171 h 0.66301 l -0.78186,2.71043 c -0.0176,0.0595 -0.0416,0.12403 -0.0724,0.19379 -0.0293,0.0697 -0.0697,0.13474 -0.12092,0.1943 -0.0512,0.061 -0.11456,0.11113 -0.19069,0.15038 -0.0761,0.0407 -0.16864,0.061 -0.27699,0.061 -0.0278,0 -0.0524,-0.001 -0.0744,-0.004 -0.0205,-0.001 -0.0404,-0.003 -0.0594,-0.007 -0.0176,-0.003 -0.0357,-0.007 -0.0548,-0.0134 -0.019,-0.005 -0.0412,-0.0105 -0.0661,-0.0176 v -0.48111 c 0.0117,9.9e-4 0.0234,0.002 0.0351,0.002 h 0.0372 c 0.0498,0 0.0931,-0.005 0.1297,-0.0155 0.0366,-0.009 0.0676,-0.0232 0.0925,-0.0434 0.0264,-0.0203 0.0475,-0.0465 0.0636,-0.0786 0.0176,-0.0305 0.0322,-0.0681 0.0439,-0.11162 l 0.0481,-0.15865 z m -20.74137,0.46871 c -0.10834,0 -0.18741,0.0383 -0.23719,0.11524 -0.0483,0.077 -0.0765,0.20056 -0.0853,0.37052 h 0.62115 v -0.0568 c -0.003,-0.14091 -0.0264,-0.24775 -0.0703,-0.32039 -0.0439,-0.0726 -0.12006,-0.10852 -0.22841,-0.10852 z m 5.30407,0 c -0.10835,0 -0.18741,0.0383 -0.23719,0.11524 -0.0483,0.077 -0.077,0.20056 -0.0858,0.37052 h 0.62167 v -0.0568 c -0.003,-0.14091 -0.0264,-0.24775 -0.0703,-0.32039 -0.0439,-0.0726 -0.12007,-0.10852 -0.22841,-0.10852 z m 8.64444,0 c -0.10542,0 -0.18802,0.052 -0.24805,0.15658 -0.0586,0.10313 -0.0879,0.2625 -0.0879,0.47749 v 0.15451 c 0,0.21935 0.0299,0.37995 0.0899,0.48163 0.06,0.10024 0.14375,0.15037 0.25063,0.15037 0.11274,0 0.19765,-0.0502 0.25476,-0.15037 0.0571,-0.10168 0.0853,-0.26228 0.0853,-0.48163 v -0.15451 c 0,-0.21499 -0.0299,-0.37436 -0.0899,-0.47749 -0.06,-0.10459 -0.14497,-0.15658 -0.25476,-0.15658 z m 3.37137,0 c -0.10542,0 -0.18802,0.052 -0.24805,0.15658 -0.0586,0.10313 -0.0879,0.2625 -0.0879,0.47749 v 0.15451 c 0,0.21935 0.0299,0.37995 0.0899,0.48163 0.06,0.10024 0.14323,0.15037 0.25011,0.15037 0.11274,0 0.19766,-0.0502 0.25476,-0.15037 0.0571,-0.10168 0.0858,-0.26228 0.0858,-0.48163 v -0.15451 c 0,-0.21499 -0.0299,-0.37436 -0.0899,-0.47749 -0.06,-0.10459 -0.14495,-0.15658 -0.25476,-0.15658 z m 2.25981,0.005 c -0.12299,0 -0.21438,0.0496 -0.27441,0.14986 -0.0586,0.10024 -0.0879,0.26143 -0.0879,0.48369 v 0.15451 c 0,0.2179 0.0287,0.37725 0.0858,0.47749 0.0571,0.0988 0.14787,0.14831 0.27233,0.14831 0.0674,0 0.12359,-0.0114 0.16898,-0.0346 0.0469,-0.0247 0.0849,-0.0592 0.11421,-0.10284 v -1.12654 c -0.0308,-0.0479 -0.0694,-0.085 -0.11627,-0.11111 -0.0454,-0.0261 -0.0998,-0.0387 -0.16278,-0.0387 z m -26.52862,0.81442 c -0.0586,0 -0.10895,0.009 -0.15141,0.0284 -0.0425,0.0188 -0.0782,0.045 -0.10749,0.0786 -0.0278,0.0334 -0.0489,0.0728 -0.0636,0.11782 -0.0132,0.045 -0.0202,0.0929 -0.0202,0.14366 0,0.0857 0.0176,0.15133 0.0527,0.19637 0.0366,0.0436 0.0881,0.0651 0.15399,0.0651 0.0688,0 0.12738,-0.0142 0.1757,-0.0418 0.0483,-0.0276 0.0841,-0.0599 0.10749,-0.0977 v -0.49041 z" /><path
       id="path158"
       style="fill:#808ff7;fill-opacity:1;stroke-width:0.264583"
       d="m 322.70294,139.08545 c -2.00263,0 -3.62613,1.61087 -3.62613,3.59772 v 3.3047 c 0,1.98685 1.6235,3.59772 3.62613,3.59772 h 38.97178 v -10.50014 z m 39.48958,0 v 10.50014 h 1.96474 v -10.50014 z m -19.45256,3.47731 h 0.62167 v 1.19683 c 0.0644,-0.0799 0.13763,-0.14144 0.21962,-0.18501 0.0835,-0.0436 0.17596,-0.0656 0.27699,-0.0656 0.0981,0 0.18776,0.0168 0.26975,0.0501 0.082,0.0334 0.15227,0.0865 0.21084,0.15917 0.0586,0.0726 0.10422,0.16697 0.13643,0.28318 0.0322,0.11621 0.0481,0.25773 0.0481,0.42478 v 1.48415 h -0.62373 v -1.48828 c 0,-0.0755 -0.006,-0.13882 -0.0176,-0.18965 -0.0117,-0.0509 -0.0293,-0.0915 -0.0527,-0.12196 -0.0234,-0.0305 -0.0516,-0.052 -0.0853,-0.0651 -0.0337,-0.0131 -0.0735,-0.0202 -0.11885,-0.0202 -0.0615,0 -0.11359,0.0137 -0.15606,0.0413 -0.0425,0.0276 -0.0782,0.0658 -0.10749,0.11369 v 1.72961 h -0.62167 z m 6.70967,5.2e-4 h 0.62373 v 3.34708 h -0.62373 z m -19.22828,0.0527 c 0.0513,0 0.0975,0.008 0.13849,0.0232 0.0425,0.016 0.0782,0.0386 0.10749,0.0677 0.0293,0.0291 0.0521,0.0642 0.0682,0.1049 0.0161,0.0392 0.0243,0.0828 0.0243,0.13074 0,0.0479 -0.008,0.0921 -0.0243,0.13281 -0.0161,0.0392 -0.0389,0.0739 -0.0682,0.10439 -0.0293,0.0291 -0.065,0.0517 -0.10749,0.0677 -0.041,0.016 -0.0872,0.0243 -0.13849,0.0243 -0.0512,0 -0.0981,-0.008 -0.14056,-0.0243 -0.041,-0.016 -0.0761,-0.0386 -0.10542,-0.0677 -0.0293,-0.0305 -0.0516,-0.0652 -0.0677,-0.10439 -0.0161,-0.0407 -0.0243,-0.0848 -0.0243,-0.13281 0,-0.0479 0.008,-0.0916 0.0243,-0.13074 0.0161,-0.0407 0.0384,-0.0758 0.0677,-0.1049 0.0293,-0.0291 0.0644,-0.0517 0.10542,-0.0677 0.0425,-0.016 0.0893,-0.0232 0.14056,-0.0232 z m -7.32669,0.12195 h 0.84336 l 0.6041,2.29444 0.60203,-2.29444 h 0.84336 v 3.17243 h -0.64803 v -0.85886 l 0.0594,-1.3224 -0.6392,2.18126 h -0.43925 l -0.63924,-2.18126 0.0594,1.3224 v 0.85886 h -0.64596 z m 13.27878,0 h 2.21588 v 0.53382 h -0.79065 v 2.63861 h -0.64802 v -2.6386 h -0.77721 z m -6.77323,0.76998 v 5.2e-4 c 0.0278,0 0.0577,0.003 0.0899,0.009 0.0337,0.005 0.0606,0.0111 0.0811,0.0196 l -0.006,0.6103 c -0.0278,-0.003 -0.0624,-0.006 -0.10335,-0.0108 -0.0395,-0.005 -0.0741,-0.007 -0.10335,-0.007 -0.0893,0 -0.16192,0.0186 -0.21756,0.0563 -0.0556,0.0378 -0.0978,0.0933 -0.12712,0.16588 v 1.55805 h -0.62374 v -2.358 h 0.58653 l 0.0176,0.25528 c 0.0469,-0.0944 0.1037,-0.16785 0.17105,-0.22014 0.0688,-0.0523 0.14728,-0.0786 0.23513,-0.0786 z m -2.27738,10e-4 c 0.1186,0 0.22755,0.0151 0.32711,0.0455 0.0996,0.0291 0.18569,0.0756 0.2589,0.13953 0.0732,0.0624 0.13057,0.14303 0.17156,0.24184 0.041,0.0973 0.0615,0.21546 0.0615,0.35347 v 1.04593 c 0,0.0683 0.001,0.1292 0.004,0.18294 0.004,0.0523 0.0103,0.10011 0.0176,0.14366 0.007,0.0422 0.0161,0.0804 0.0264,0.11523 0.0117,0.0334 0.0251,0.0652 0.0398,0.0956 v 0.0372 l -0.62575,5.5e-4 c -0.0117,-0.0247 -0.0222,-0.0527 -0.031,-0.0832 -0.007,-0.0319 -0.0144,-0.0648 -0.0217,-0.0997 -0.0469,0.0639 -0.10774,0.11711 -0.18242,0.16071 -0.0732,0.0435 -0.16339,0.0656 -0.27027,0.0656 -0.0966,0 -0.18741,-0.0168 -0.27233,-0.0501 -0.0835,-0.0334 -0.15667,-0.0806 -0.21963,-0.14159 -0.0615,-0.061 -0.11067,-0.13441 -0.14728,-0.22014 -0.0351,-0.0872 -0.0527,-0.18447 -0.0527,-0.29198 0,-0.11911 0.0193,-0.22659 0.0574,-0.32246 0.0395,-0.0973 0.0981,-0.17916 0.1757,-0.24598 0.0791,-0.0683 0.17691,-0.12077 0.29404,-0.15709 0.1186,-0.0363 0.25796,-0.0548 0.41755,-0.0548 h 0.16898 v -0.18914 c 0,-0.10602 -0.0182,-0.18122 -0.0548,-0.22479 -0.0366,-0.0436 -0.0899,-0.0656 -0.16019,-0.0656 -0.0805,0 -0.14023,0.0243 -0.17829,0.0724 -0.0366,0.0465 -0.0548,0.11222 -0.0548,0.19792 h -0.62167 c 0,-0.10314 0.0199,-0.19932 0.0594,-0.28939 0.041,-0.0915 0.0996,-0.17151 0.1757,-0.23978 0.0761,-0.0683 0.16752,-0.12201 0.2744,-0.16123 0.10688,-0.0407 0.22806,-0.061 0.36277,-0.061 z m 5.03121,0 c 0.0922,0 0.17717,0.0161 0.25477,0.048 0.0776,0.0305 0.14435,0.0813 0.19999,0.15245 0.0556,0.0711 0.099,0.16429 0.1297,0.27905 0.0307,0.11476 0.046,0.25566 0.046,0.42272 v 1.49923 h -0.62374 v -1.50172 c 0,-0.0755 -0.006,-0.13767 -0.0176,-0.18707 -0.0117,-0.0494 -0.0293,-0.0888 -0.0527,-0.11782 -0.022,-0.0291 -0.0495,-0.0494 -0.0832,-0.061 -0.0337,-0.0116 -0.0735,-0.0176 -0.11885,-0.0176 -0.0586,0 -0.10956,0.0151 -0.15348,0.0455 -0.0439,0.0305 -0.0808,0.0729 -0.11007,0.12661 v 1.7131 h -0.62374 v -2.358 h 0.58446 l 0.0176,0.23306 c 0.0688,-0.0901 0.14909,-0.15815 0.24133,-0.20463 0.0922,-0.0479 0.19534,-0.0718 0.30954,-0.0718 z m 1.97249,0 c 0.30162,0 0.52772,0.0961 0.67851,0.28938 0.15081,0.19321 0.22635,0.47974 0.22635,0.85887 v 0.28112 h -1.23662 c 0.004,0.0945 0.0167,0.17328 0.0372,0.23719 0.022,0.0639 0.0512,0.11579 0.0879,0.15503 0.0366,0.0392 0.0805,0.0679 0.13177,0.0853 0.0527,0.0175 0.1124,0.0258 0.17829,0.0258 0.10981,0 0.20705,-0.018 0.29197,-0.0543 0.0864,-0.0378 0.16253,-0.0903 0.22841,-0.15709 l 0.24391,0.37258 c -0.0307,0.0422 -0.0711,0.0845 -0.12092,0.12661 -0.0498,0.0407 -0.10834,0.0778 -0.1757,0.11111 -0.0674,0.0334 -0.14349,0.0602 -0.22841,0.0806 -0.0849,0.0217 -0.17802,0.0326 -0.27905,0.0326 -0.16252,0 -0.30662,-0.025 -0.43254,-0.0744 -0.12592,-0.0494 -0.23193,-0.11996 -0.31832,-0.2129 -0.0864,-0.093 -0.15253,-0.20639 -0.19792,-0.34003 -0.0439,-0.1351 -0.0656,-0.2885 -0.0656,-0.45992 v -0.19379 c 0,-0.19176 0.0211,-0.35951 0.0636,-0.50333 0.0439,-0.14526 0.10603,-0.267 0.18655,-0.36432 0.082,-0.0988 0.18156,-0.1723 0.29869,-0.22169 0.1186,-0.0494 0.25269,-0.0744 0.40204,-0.0744 z m 5.30407,0 c 0.30162,0 0.5277,0.0961 0.67851,0.28938 0.1508,0.19321 0.22635,0.47974 0.22635,0.85887 v 0.28112 h -1.23662 c 0.004,0.0945 0.0167,0.17328 0.0372,0.23719 0.022,0.0639 0.0512,0.11579 0.0879,0.15503 0.0366,0.0392 0.0805,0.0679 0.13177,0.0853 0.0527,0.0175 0.11188,0.0258 0.17777,0.0258 0.10982,0 0.20757,-0.018 0.29249,-0.0543 0.0864,-0.0378 0.16252,-0.0903 0.22841,-0.15709 l 0.24339,0.37258 c -0.0307,0.0422 -0.0706,0.0845 -0.1204,0.12661 -0.0498,0.0407 -0.10834,0.0778 -0.1757,0.11111 -0.0674,0.0334 -0.14349,0.0602 -0.22841,0.0806 -0.0849,0.0217 -0.17803,0.0326 -0.27906,0.0326 -0.16252,0 -0.30661,-0.025 -0.43253,-0.0744 -0.12592,-0.0494 -0.23245,-0.11996 -0.31884,-0.2129 -0.0864,-0.093 -0.15201,-0.20639 -0.1974,-0.34003 -0.0439,-0.1351 -0.0661,-0.2885 -0.0661,-0.45992 v -0.19379 c 0,-0.19176 0.0216,-0.35951 0.0641,-0.50333 0.0439,-0.14526 0.10603,-0.267 0.18655,-0.36432 0.082,-0.0988 0.18156,-0.1723 0.29869,-0.22169 0.1186,-0.0494 0.2527,-0.0744 0.40204,-0.0744 z m 2.12339,0 c 0.12738,0 0.24331,0.0203 0.34726,0.061 0.10542,0.0392 0.19448,0.0978 0.26769,0.17622 0.0747,0.077 0.13203,0.17307 0.17156,0.28784 0.041,0.11475 0.0621,0.24787 0.0636,0.39894 h -0.58394 c -10e-4,-0.13219 -0.0237,-0.23424 -0.0661,-0.30541 -0.0425,-0.0711 -0.11274,-0.10645 -0.21084,-0.10645 -0.0688,0 -0.12384,0.0132 -0.16484,0.0408 -0.0395,0.0276 -0.07,0.0682 -0.092,0.12196 -0.0205,0.0523 -0.0344,0.11795 -0.0418,0.19637 -0.006,0.077 -0.009,0.16651 -0.009,0.2682 v 0.17002 c 0,0.10313 0.003,0.19388 0.009,0.27233 0.006,0.077 0.0193,0.14202 0.0398,0.1943 0.022,0.0523 0.053,0.0912 0.0941,0.11731 0.041,0.0261 0.0966,0.0393 0.16691,0.0393 0.0864,0 0.15314,-0.0261 0.19999,-0.0785 0.0483,-0.0538 0.0735,-0.14392 0.0749,-0.27027 h 0.58394 c -0.002,0.13365 -0.0243,0.25423 -0.0682,0.36173 -0.0439,0.10605 -0.10369,0.19618 -0.17983,0.27027 -0.0747,0.0741 -0.16313,0.1308 -0.26562,0.17002 -0.10249,0.0392 -0.21317,0.0589 -0.33176,0.0589 -0.1596,0 -0.29895,-0.0256 -0.41755,-0.0765 -0.1186,-0.0509 -0.21703,-0.12378 -0.2961,-0.21963 -0.0776,-0.0973 -0.13616,-0.2167 -0.1757,-0.3576 -0.0381,-0.14091 -0.0574,-0.3015 -0.0574,-0.48162 v -0.17002 c 0,-0.18013 0.0193,-0.34021 0.0574,-0.48111 0.0395,-0.14238 0.0981,-0.26286 0.1757,-0.36018 0.0776,-0.0973 0.17544,-0.17136 0.29404,-0.22221 0.1186,-0.0509 0.25683,-0.076 0.41496,-0.076 z m 4.55321,0 c 0.0922,0 0.17716,0.0161 0.25476,0.048 0.0776,0.0305 0.14384,0.0813 0.19947,0.15245 0.0556,0.0711 0.099,0.16429 0.12971,0.27905 0.0307,0.11476 0.046,0.25566 0.046,0.42272 v 1.49923 h -0.62373 v -1.50172 c 0,-0.0755 -0.006,-0.13767 -0.0176,-0.18707 -0.0117,-0.0494 -0.0293,-0.0888 -0.0527,-0.11782 -0.022,-0.0291 -0.0495,-0.0494 -0.0832,-0.061 -0.0337,-0.0116 -0.0735,-0.0176 -0.11886,-0.0176 -0.0586,0 -0.10955,0.0151 -0.15348,0.0455 -0.0439,0.0305 -0.0808,0.0729 -0.11007,0.12661 v 1.7131 h -0.62373 v -2.358 h 0.58446 l 0.0176,0.23306 c 0.0688,-0.0901 0.14908,-0.15815 0.24133,-0.20463 0.0922,-0.0479 0.19585,-0.0718 0.31006,-0.0718 z m 1.96319,0 c 0.14786,0 0.28137,0.0256 0.39997,0.0765 0.1186,0.0494 0.21936,0.12231 0.30282,0.21962 0.0835,0.0973 0.14788,0.21732 0.19327,0.35967 0.0454,0.14236 0.0682,0.30591 0.0682,0.49041 v 0.15451 c 0,0.18594 -0.0228,0.35013 -0.0682,0.49248 -0.0439,0.14091 -0.10774,0.26027 -0.1912,0.3576 -0.0835,0.0973 -0.18422,0.17076 -0.30282,0.22014 -0.1186,0.0494 -0.25098,0.0739 -0.39739,0.0739 -0.14788,0 -0.28138,-0.0245 -0.39998,-0.0739 -0.1186,-0.0494 -0.21936,-0.12283 -0.30282,-0.22014 -0.0835,-0.0973 -0.14788,-0.21669 -0.19327,-0.3576 -0.0454,-0.14235 -0.0682,-0.30654 -0.0682,-0.49248 v -0.15451 c 0,-0.1845 0.0228,-0.34805 0.0682,-0.49041 0.0454,-0.14235 0.10981,-0.26235 0.19327,-0.35967 0.0835,-0.0973 0.18362,-0.17023 0.30075,-0.21962 0.1186,-0.0509 0.25098,-0.0765 0.3974,-0.0765 z m 3.37137,0 c 0.14788,0 0.28085,0.0256 0.39945,0.0765 0.11859,0.0494 0.2199,0.12231 0.30334,0.21962 0.0835,0.0973 0.14788,0.21732 0.19327,0.35967 0.0454,0.14236 0.0682,0.30591 0.0682,0.49041 v 0.15451 c 0,0.18594 -0.0228,0.35013 -0.0682,0.49248 -0.0439,0.14091 -0.10774,0.26027 -0.1912,0.3576 -0.0835,0.0973 -0.18422,0.17076 -0.30282,0.22014 -0.1186,0.0494 -0.25149,0.0739 -0.39791,0.0739 -0.14788,0 -0.28086,-0.0245 -0.39946,-0.0739 -0.1186,-0.0494 -0.21988,-0.12283 -0.30334,-0.22014 -0.0835,-0.0973 -0.14788,-0.21669 -0.19327,-0.3576 -0.0454,-0.14235 -0.0677,-0.30654 -0.0677,-0.49248 v -0.15451 c 0,-0.1845 0.0223,-0.34805 0.0677,-0.49041 0.0454,-0.14235 0.10981,-0.26235 0.19327,-0.35967 0.0835,-0.0973 0.18413,-0.17023 0.30127,-0.21962 0.11859,-0.0509 0.25098,-0.0765 0.3974,-0.0765 z m 2.07739,0 c 0.11567,0 0.21402,0.0226 0.29455,0.0677 0.0805,0.0436 0.14849,0.10512 0.20413,0.185 l 0.0243,-0.20929 h 0.56018 v 2.35804 c 0,0.16124 -0.0245,0.2998 -0.0729,0.41599 -0.0469,0.11767 -0.11308,0.21438 -0.19947,0.28991 -0.0864,0.0755 -0.19059,0.13164 -0.31212,0.16795 -0.12006,0.0363 -0.25417,0.0543 -0.40205,0.0543 -0.0556,0 -0.11713,-0.006 -0.18448,-0.0176 -0.0673,-0.0116 -0.13471,-0.029 -0.20206,-0.0522 -0.0674,-0.0217 -0.13177,-0.0504 -0.19327,-0.0853 -0.06,-0.0334 -0.11042,-0.0728 -0.15141,-0.11937 l 0.20877,-0.42685 c 0.0278,0.0291 0.0606,0.0554 0.0987,0.0801 0.0395,0.0261 0.0805,0.0476 0.12299,0.0651 0.0439,0.0189 0.0896,0.0336 0.13642,0.0439 0.0469,0.0116 0.092,0.0176 0.13591,0.0176 0.063,0 0.11861,-0.007 0.16692,-0.0217 0.0498,-0.0131 0.0914,-0.0364 0.12505,-0.0698 0.0337,-0.0334 0.0588,-0.0776 0.0749,-0.13281 0.0176,-0.0553 0.0264,-0.12443 0.0264,-0.20722 v -0.18966 c -0.0571,0.0741 -0.12385,0.13194 -0.19999,0.1726 -0.0747,0.0392 -0.16252,0.0589 -0.26355,0.0589 -0.12592,0 -0.2384,-0.025 -0.33796,-0.0744 -0.0981,-0.0494 -0.18182,-0.12221 -0.25063,-0.21807 -0.0674,-0.0958 -0.11947,-0.21411 -0.15607,-0.35502 -0.0366,-0.14237 -0.0548,-0.30654 -0.0548,-0.49248 v -0.15503 c 0,-0.3864 0.0703,-0.67424 0.21084,-0.86454 0.14056,-0.1903 0.33736,-0.28577 0.59066,-0.28577 z m -23.60735,0.0434 h 0.62374 v 2.35805 h -0.62374 z m 24.95145,0 h 0.66766 l 0.28577,1.33171 0.31626,-1.33171 h 0.66301 l -0.78186,2.71043 c -0.0176,0.0595 -0.0416,0.12403 -0.0724,0.19379 -0.0293,0.0697 -0.0697,0.13474 -0.12092,0.1943 -0.0512,0.061 -0.11456,0.11113 -0.19069,0.15038 -0.0761,0.0407 -0.16864,0.061 -0.27699,0.061 -0.0278,0 -0.0524,-0.001 -0.0744,-0.004 -0.0205,-0.001 -0.0404,-0.003 -0.0594,-0.007 -0.0176,-0.003 -0.0357,-0.007 -0.0548,-0.0134 -0.019,-0.005 -0.0412,-0.0105 -0.0661,-0.0176 v -0.48111 c 0.0117,9.9e-4 0.0234,0.002 0.0351,0.002 h 0.0372 c 0.0498,0 0.0931,-0.005 0.1297,-0.0155 0.0366,-0.009 0.0676,-0.0232 0.0925,-0.0434 0.0264,-0.0203 0.0475,-0.0465 0.0636,-0.0786 0.0176,-0.0305 0.0322,-0.0681 0.0439,-0.11162 l 0.0481,-0.15865 z m -20.74137,0.46871 c -0.10834,0 -0.18741,0.0383 -0.23719,0.11524 -0.0483,0.077 -0.0765,0.20056 -0.0853,0.37052 h 0.62115 v -0.0568 c -0.003,-0.14091 -0.0264,-0.24775 -0.0703,-0.32039 -0.0439,-0.0726 -0.12006,-0.10852 -0.22841,-0.10852 z m 5.30407,0 c -0.10835,0 -0.18741,0.0383 -0.23719,0.11524 -0.0483,0.077 -0.077,0.20056 -0.0858,0.37052 h 0.62167 v -0.0568 c -0.003,-0.14091 -0.0264,-0.24775 -0.0703,-0.32039 -0.0439,-0.0726 -0.12007,-0.10852 -0.22841,-0.10852 z m 8.64444,0 c -0.10542,0 -0.18802,0.052 -0.24805,0.15658 -0.0586,0.10313 -0.0879,0.2625 -0.0879,0.47749 v 0.15451 c 0,0.21935 0.0299,0.37995 0.0899,0.48163 0.06,0.10024 0.14375,0.15037 0.25063,0.15037 0.11274,0 0.19765,-0.0502 0.25476,-0.15037 0.0571,-0.10168 0.0853,-0.26228 0.0853,-0.48163 v -0.15451 c 0,-0.21499 -0.0299,-0.37436 -0.0899,-0.47749 -0.06,-0.10459 -0.14497,-0.15658 -0.25476,-0.15658 z m 3.37137,0 c -0.10542,0 -0.18802,0.052 -0.24805,0.15658 -0.0586,0.10313 -0.0879,0.2625 -0.0879,0.47749 v 0.15451 c 0,0.21935 0.0299,0.37995 0.0899,0.48163 0.06,0.10024 0.14323,0.15037 0.25011,0.15037 0.11274,0 0.19766,-0.0502 0.25476,-0.15037 0.0571,-0.10168 0.0858,-0.26228 0.0858,-0.48163 v -0.15451 c 0,-0.21499 -0.0299,-0.37436 -0.0899,-0.47749 -0.06,-0.10459 -0.14495,-0.15658 -0.25476,-0.15658 z m 2.25981,0.005 c -0.12299,0 -0.21438,0.0496 -0.27441,0.14986 -0.0586,0.10024 -0.0879,0.26143 -0.0879,0.48369 v 0.15451 c 0,0.2179 0.0287,0.37725 0.0858,0.47749 0.0571,0.0988 0.14787,0.14831 0.27233,0.14831 0.0674,0 0.12359,-0.0114 0.16898,-0.0346 0.0469,-0.0247 0.0849,-0.0592 0.11421,-0.10284 v -1.12654 c -0.0308,-0.0479 -0.0694,-0.085 -0.11627,-0.11111 -0.0454,-0.0261 -0.0998,-0.0387 -0.16278,-0.0387 z m -26.52862,0.81442 c -0.0586,0 -0.10895,0.009 -0.15141,0.0284 -0.0425,0.0188 -0.0782,0.045 -0.10749,0.0786 -0.0278,0.0334 -0.0489,0.0728 -0.0636,0.11782 -0.0132,0.045 -0.0202,0.0929 -0.0202,0.14366 0,0.0857 0.0176,0.15133 0.0527,0.19637 0.0366,0.0436 0.0881,0.0651 0.15399,0.0651 0.0688,0 0.12738,-0.0142 0.1757,-0.0418 0.0483,-0.0276 0.0841,-0.0599 0.10749,-0.0977 v -0.49041 z" /></g></svg>
