<?xml version="1.0" encoding="UTF-8" standalone="no"?>
<!-- Created with Inkscape (http://www.inkscape.org/) -->

<svg
   width="44.277336mm"
   height="10.499618mm"
   viewBox="0 0 44.277336 10.499618"
   version="1.1"
   id="svg1"
   xml:space="preserve"
   inkscape:version="1.3.1 (91b66b0783, 2023-11-16)"
   sodipodi:docname="topic_25.svg"
   xmlns:inkscape="http://www.inkscape.org/namespaces/inkscape"
   xmlns:sodipodi="http://sodipodi.sourceforge.net/DTD/sodipodi-0.dtd"
   xmlns="http://www.w3.org/2000/svg"
   xmlns:svg="http://www.w3.org/2000/svg"><sodipodi:namedview
     id="namedview1"
     pagecolor="#ffffff"
     bordercolor="#000000"
     borderopacity="0.25"
     inkscape:showpageshadow="2"
     inkscape:pageopacity="0.0"
     inkscape:pagecheckerboard="0"
     inkscape:deskcolor="#d1d1d1"
     inkscape:document-units="mm"
     inkscape:zoom="4"
     inkscape:cx="94.625"
     inkscape:cy="92.375"
     inkscape:window-width="2560"
     inkscape:window-height="1346"
     inkscape:window-x="-11"
     inkscape:window-y="-11"
     inkscape:window-maximized="1"
     inkscape:current-layer="layer1"
     showgrid="true"><inkscape:grid
       id="grid668"
       units="mm"
       originx="-656.46766"
       originy="-139.08573"
       spacingx="0.5"
       spacingy="0.5"
       empcolor="#0099e5"
       empopacity="0.30196078"
       color="#0099e5"
       opacity="0.14901961"
       empspacing="5"
       dotted="false"
       gridanglex="30"
       gridanglez="30"
       visible="true" /></sodipodi:namedview><defs
     id="defs1" /><g
     inkscape:label="Layer 1"
     inkscape:groupmode="layer"
     id="layer1"
     transform="translate(-656.46767,-139.08572)"><rect
       style="fill:#f9f9f9;stroke-width:0.5;stroke-linejoin:round;stroke-miterlimit:3.4;stroke-dashoffset:19.8539"
       id="rect22"
       width="31.072514"
       height="7.1517849"
       x="660"
       y="140.72504" /><path
       id="path755"
       style="fill:#2c2c6f;fill-opacity:1;stroke-width:0.264583"
       d="m 660.00283,139.08571 c -1.95235,0 -3.53518,1.60976 -3.53518,3.59668 v 3.30574 c 0,1.98693 1.58283,3.5972 3.53518,3.5972 h 33.2419 v -10.49962 z m 33.7597,0 v 10.49962 h 1.96474 v -10.49962 z m 2.48254,0 v 10.49962 h 1.99987 v -10.49962 z m 2.49959,0 v 10.49962 h 2.00039 v -10.49962 z m -28.24944,3.29799 h 0.62373 v 3.43235 h -0.62373 z m -2.94091,0.0538 c 0.0512,0 0.0975,0.008 0.13849,0.0238 0.0425,0.0164 0.0782,0.04 0.10749,0.0698 0.0293,0.0298 0.0521,0.0652 0.0682,0.10697 0.0161,0.0402 0.0238,0.0852 0.0238,0.13436 0,0.0491 -0.008,0.0942 -0.0238,0.13591 -0.0161,0.0402 -0.0389,0.0762 -0.0682,0.10749 -0.0293,0.0298 -0.065,0.0529 -0.10749,0.0692 -0.041,0.0164 -0.0873,0.0248 -0.13849,0.0248 -0.0513,0 -0.0981,-0.008 -0.14056,-0.0248 -0.041,-0.0164 -0.0761,-0.0395 -0.10542,-0.0692 -0.0293,-0.0312 -0.0521,-0.0673 -0.0682,-0.10749 -0.0161,-0.0418 -0.0243,-0.0867 -0.0243,-0.13591 0,-0.0491 0.008,-0.0943 0.0243,-0.13436 0.0161,-0.0417 0.0389,-0.0771 0.0682,-0.10697 0.0293,-0.0299 0.0644,-0.0534 0.10542,-0.0698 0.0425,-0.0164 0.0893,-0.0238 0.14056,-0.0238 z m 9.91826,0 c 0.0513,0 0.0975,0.008 0.13849,0.0238 0.0425,0.0164 0.0782,0.04 0.10749,0.0698 0.0293,0.0298 0.0521,0.0652 0.0682,0.10697 0.0161,0.0402 0.0238,0.0852 0.0238,0.13436 0,0.0491 -0.008,0.0942 -0.0238,0.13591 -0.0161,0.0402 -0.0389,0.0762 -0.0682,0.10749 -0.0293,0.0298 -0.065,0.0529 -0.10749,0.0692 -0.041,0.0164 -0.0872,0.0248 -0.13849,0.0248 -0.0512,0 -0.0981,-0.008 -0.14056,-0.0248 -0.041,-0.0164 -0.0761,-0.0395 -0.10542,-0.0692 -0.0293,-0.0312 -0.0521,-0.0673 -0.0682,-0.10749 -0.0161,-0.0418 -0.0243,-0.0867 -0.0243,-0.13591 0,-0.0491 0.008,-0.0943 0.0243,-0.13436 0.0161,-0.0417 0.0389,-0.0771 0.0682,-0.10697 0.0293,-0.0299 0.0644,-0.0534 0.10542,-0.0698 0.0425,-0.0164 0.0893,-0.0238 0.14056,-0.0238 z m -15.96233,0.0801 c 0.15374,0 0.29197,0.0253 0.41496,0.076 0.12445,0.0491 0.22987,0.11837 0.31626,0.20774 0.0878,0.0879 0.1552,0.19363 0.20205,0.31729 0.0469,0.12217 0.0703,0.25714 0.0703,0.40463 h -0.64337 c 0,-0.0685 -0.008,-0.13097 -0.0222,-0.18759 -0.0132,-0.0581 -0.0349,-0.10709 -0.0656,-0.14728 -0.0293,-0.0418 -0.0674,-0.0743 -0.1142,-0.0966 -0.0469,-0.0238 -0.1031,-0.0357 -0.16899,-0.0357 -0.0615,0 -0.11532,0.009 -0.16071,0.0289 -0.0439,0.0193 -0.0803,0.0462 -0.10955,0.0806 -0.0293,0.0327 -0.0516,0.0726 -0.0661,0.11885 -0.0146,0.0462 -0.0217,0.095 -0.0217,0.14728 0,0.0536 0.0111,0.10205 0.0331,0.14521 0.0234,0.0433 0.0556,0.0836 0.0966,0.12092 0.0425,0.0372 0.0928,0.072 0.15142,0.10491 0.06,0.0327 0.12566,0.0648 0.1974,0.0961 0.14934,0.0552 0.27991,0.11643 0.39119,0.18345 0.11128,0.0671 0.20438,0.14243 0.27905,0.22737 0.0747,0.0849 0.13031,0.18108 0.16692,0.28836 0.0366,0.10577 0.0548,0.22609 0.0548,0.36018 0,0.14303 -0.0234,0.27016 -0.0703,0.38189 -0.0454,0.11174 -0.11153,0.20622 -0.19792,0.2837 -0.0849,0.076 -0.18802,0.13502 -0.30954,0.17674 -0.12153,0.0402 -0.25856,0.0605 -0.41083,0.0605 -0.13763,0 -0.27293,-0.0207 -0.40617,-0.0625 -0.13177,-0.0433 -0.24951,-0.10899 -0.35347,-0.19689 -0.10395,-0.0879 -0.18828,-0.19922 -0.2527,-0.33331 -0.063,-0.13409 -0.0946,-0.29327 -0.0946,-0.47801 h 0.64802 c 0,0.0983 0.009,0.1821 0.0284,0.25063 0.019,0.0685 0.0477,0.12423 0.0858,0.16744 0.0395,0.0418 0.0881,0.0721 0.14521,0.0915 0.0571,0.0179 0.12333,0.0269 0.19947,0.0269 0.0615,0 0.11361,-0.009 0.15607,-0.0269 0.0439,-0.0194 0.0791,-0.0446 0.10542,-0.076 0.0278,-0.0327 0.0477,-0.0716 0.0594,-0.11627 0.0117,-0.0446 0.0176,-0.0931 0.0176,-0.14521 0,-0.0567 -0.005,-0.10725 -0.0155,-0.15193 -0.0103,-0.0446 -0.032,-0.0863 -0.0656,-0.12506 -0.0322,-0.0402 -0.0791,-0.079 -0.14056,-0.11627 -0.06,-0.0372 -0.14082,-0.0766 -0.24184,-0.11834 -0.12006,-0.0462 -0.23487,-0.0991 -0.34468,-0.15865 -0.10835,-0.0596 -0.20438,-0.12937 -0.28784,-0.2098 -0.082,-0.0819 -0.14762,-0.17638 -0.19741,-0.28216 -0.0483,-0.10728 -0.0729,-0.23155 -0.0729,-0.3731 0,-0.13557 0.0251,-0.2593 0.0749,-0.37104 0.0498,-0.11324 0.11945,-0.20887 0.20877,-0.28784 0.0908,-0.079 0.19741,-0.14024 0.3204,-0.18345 0.12445,-0.0447 0.26148,-0.0672 0.41083,-0.0672 z m 12.15636,0 c 0.15373,0 0.29197,0.0253 0.41496,0.076 0.12445,0.0491 0.22987,0.11837 0.31626,0.20774 0.0879,0.0879 0.15521,0.19363 0.20206,0.31729 0.0469,0.12217 0.0703,0.25714 0.0703,0.40463 h -0.64338 c 0,-0.0685 -0.008,-0.13097 -0.0222,-0.18759 -0.0132,-0.0581 -0.0349,-0.10709 -0.0656,-0.14728 -0.0293,-0.0418 -0.0674,-0.0743 -0.1142,-0.0966 -0.0469,-0.0238 -0.10361,-0.0357 -0.1695,-0.0357 -0.0615,0 -0.11481,0.009 -0.1602,0.0289 -0.0439,0.0193 -0.0803,0.0462 -0.10955,0.0806 -0.0293,0.0327 -0.0516,0.0726 -0.0661,0.11885 -0.0146,0.0462 -0.0217,0.095 -0.0217,0.14728 0,0.0536 0.0106,0.10205 0.0326,0.14521 0.0234,0.0433 0.0556,0.0836 0.0966,0.12092 0.0425,0.0372 0.0934,0.072 0.15193,0.10491 0.06,0.0327 0.12566,0.0648 0.1974,0.0961 0.14935,0.0552 0.27991,0.11643 0.39119,0.18345 0.11128,0.0671 0.20386,0.14243 0.27854,0.22737 0.0747,0.0849 0.13031,0.18108 0.16691,0.28836 0.0366,0.10577 0.0553,0.22609 0.0553,0.36018 0,0.14303 -0.0234,0.27016 -0.0703,0.38189 -0.0454,0.11174 -0.11153,0.20622 -0.19792,0.2837 -0.0849,0.076 -0.18801,0.13502 -0.30954,0.17674 -0.12153,0.0402 -0.25856,0.0605 -0.41083,0.0605 -0.13763,0 -0.27294,-0.0207 -0.40618,-0.0625 -0.13177,-0.0433 -0.24952,-0.10899 -0.35346,-0.19689 -0.10396,-0.0879 -0.18828,-0.19922 -0.2527,-0.33331 -0.063,-0.13409 -0.0946,-0.29327 -0.0946,-0.47801 h 0.64802 c 0,0.0983 0.009,0.1821 0.0284,0.25063 0.019,0.0685 0.0477,0.12423 0.0858,0.16744 0.0395,0.0418 0.0876,0.0721 0.14469,0.0915 0.0571,0.0179 0.12386,0.0269 0.19999,0.0269 0.0615,0 0.1136,-0.009 0.15606,-0.0269 0.0439,-0.0194 0.0791,-0.0446 0.10542,-0.076 0.0278,-0.0327 0.0477,-0.0716 0.0594,-0.11627 0.0117,-0.0446 0.0176,-0.0931 0.0176,-0.14521 0,-0.0567 -0.005,-0.10725 -0.0155,-0.15193 -0.0102,-0.0446 -0.0326,-0.0863 -0.0661,-0.12506 -0.0322,-0.0402 -0.0791,-0.079 -0.14056,-0.11627 -0.06,-0.0372 -0.14031,-0.0766 -0.24133,-0.11834 -0.12006,-0.0462 -0.23487,-0.0991 -0.34468,-0.15865 -0.10835,-0.0596 -0.20438,-0.12937 -0.28784,-0.2098 -0.082,-0.0819 -0.14814,-0.17638 -0.19792,-0.28216 -0.0483,-0.10728 -0.0723,-0.23155 -0.0723,-0.3731 0,-0.13557 0.0251,-0.2593 0.0749,-0.37104 0.0498,-0.11324 0.11894,-0.20887 0.20825,-0.28784 0.0908,-0.079 0.19793,-0.14024 0.32091,-0.18345 0.12446,-0.0447 0.26149,-0.0672 0.41083,-0.0672 z m -9.8702,0.83561 c 0.14788,0 0.28139,0.0264 0.39998,0.0786 0.1186,0.0507 0.21936,0.12551 0.30282,0.22531 0.0835,0.0998 0.14788,0.22296 0.19327,0.36897 0.0454,0.146 0.0682,0.31411 0.0682,0.50333 v 0.15813 c 0,0.1907 -0.0228,0.35938 -0.0682,0.50539 -0.0439,0.14451 -0.10775,0.26656 -0.1912,0.36639 -0.0835,0.0998 -0.18423,0.17466 -0.30283,0.22531 -0.1186,0.0507 -0.25097,0.0765 -0.39739,0.0765 -0.14788,0 -0.28137,-0.0258 -0.39997,-0.0765 -0.11859,-0.0507 -0.21937,-0.12551 -0.30283,-0.22531 -0.0835,-0.0998 -0.14788,-0.22188 -0.19327,-0.36639 -0.0454,-0.14601 -0.0682,-0.31469 -0.0682,-0.50539 v -0.15813 c 0,-0.18922 0.0228,-0.35733 0.0682,-0.50333 0.0454,-0.14601 0.10981,-0.26915 0.19327,-0.36897 0.0835,-0.0998 0.18362,-0.17467 0.30076,-0.22531 0.11859,-0.0522 0.25097,-0.0786 0.39739,-0.0786 z m 2.21847,0 c 0.12738,0 0.24279,0.0207 0.34675,0.0625 0.10542,0.0402 0.19499,0.1004 0.2682,0.18087 0.0747,0.079 0.13151,0.17738 0.17105,0.29507 0.041,0.11771 0.0621,0.25434 0.0636,0.40928 h -0.58394 c -0.002,-0.13559 -0.0237,-0.24015 -0.0662,-0.31316 -0.0425,-0.0729 -0.11274,-0.10904 -0.21084,-0.10904 -0.0688,0 -0.12333,0.0135 -0.16433,0.0419 -0.0395,0.0283 -0.0705,0.0699 -0.0925,0.12506 -0.0205,0.0536 -0.0345,0.1211 -0.0419,0.20153 -0.006,0.079 -0.009,0.17063 -0.009,0.27492 v 0.17415 c 0,0.10579 0.003,0.19861 0.009,0.27906 0.006,0.079 0.0193,0.14584 0.0398,0.19947 0.022,0.0536 0.0536,0.0937 0.0946,0.1204 0.041,0.0268 0.0966,0.0408 0.16692,0.0408 0.0864,0 0.15262,-0.0269 0.19947,-0.0806 0.0483,-0.0552 0.0735,-0.14738 0.0749,-0.27698 h 0.58394 c -10e-4,0.13707 -0.0238,0.26027 -0.0677,0.37052 -0.0439,0.10877 -0.10421,0.20099 -0.18035,0.27698 -0.0747,0.076 -0.16312,0.13443 -0.26561,0.17467 -0.1025,0.0402 -0.21317,0.0605 -0.33177,0.0605 -0.15959,0 -0.29842,-0.0263 -0.41702,-0.0785 -0.11859,-0.0522 -0.21756,-0.12699 -0.29663,-0.22531 -0.0776,-0.0998 -0.13617,-0.22239 -0.1757,-0.3669 -0.0381,-0.14453 -0.0574,-0.30928 -0.0574,-0.49403 v -0.17415 c 0,-0.18475 0.0193,-0.34899 0.0574,-0.49351 0.0395,-0.14601 0.0981,-0.26965 0.1757,-0.36948 0.0776,-0.0998 0.17544,-0.17523 0.29404,-0.22738 0.1186,-0.0522 0.25735,-0.0786 0.41548,-0.0786 z m 3.18223,0 h 5.2e-4 c 0.11839,5e-5 0.22719,0.0159 0.3266,0.047 0.0996,0.0298 0.1862,0.0775 0.25941,0.14314 0.0732,0.064 0.13005,0.14672 0.17105,0.24805 0.041,0.0998 0.0615,0.2207 0.0615,0.36225 v 1.0728 c 0,0.0701 0.002,0.13247 0.005,0.18759 0.004,0.0537 0.0103,0.10262 0.0176,0.14728 0.007,0.0433 0.0161,0.0825 0.0264,0.11834 0.0117,0.0343 0.0246,0.067 0.0393,0.0982 v 0.0377 l -0.6258,5.2e-4 c -0.0117,-0.0253 -0.0222,-0.0535 -0.031,-0.0848 -0.007,-0.0327 -0.0144,-0.0671 -0.0217,-0.10283 -0.0468,0.0655 -0.10775,0.12063 -0.18242,0.16536 -0.0732,0.0446 -0.16337,0.0672 -0.27026,0.0672 -0.0966,0 -0.18742,-0.0175 -0.27234,-0.0517 -0.0835,-0.0343 -0.15666,-0.0826 -0.21962,-0.14521 -0.0615,-0.0626 -0.11015,-0.13788 -0.14676,-0.22582 -0.0351,-0.0894 -0.0527,-0.18896 -0.0527,-0.29921 0,-0.12217 0.0188,-0.23241 0.0568,-0.33073 0.0395,-0.0998 0.0981,-0.18416 0.1757,-0.2527 0.0791,-0.07 0.17741,-0.12346 0.29455,-0.16071 0.1186,-0.0372 0.25743,-0.0563 0.41703,-0.0563 h 0.16899 v -0.19378 c 0,-0.10876 -0.0182,-0.18578 -0.0548,-0.23048 -0.0366,-0.0446 -0.0899,-0.0672 -0.1602,-0.0672 -0.0805,0 -0.1397,0.0246 -0.17777,0.0739 -0.0366,0.0477 -0.0553,0.11519 -0.0553,0.20308 h -0.62115 c 0,-0.10578 0.0194,-0.20477 0.0589,-0.29713 0.041,-0.0939 0.0996,-0.17545 0.1757,-0.24547 0.0761,-0.0701 0.16804,-0.12514 0.27492,-0.16536 0.10675,-0.0418 0.22725,-0.063 0.36173,-0.0631 z m 6.73603,0 c 0.12738,0 0.2428,0.0207 0.34675,0.0625 0.10542,0.0402 0.19499,0.1004 0.2682,0.18087 0.0747,0.079 0.13152,0.17738 0.17105,0.29507 0.041,0.11771 0.0621,0.25434 0.0636,0.40928 h -0.58395 c -0.002,-0.13559 -0.0236,-0.24015 -0.0661,-0.31316 -0.0425,-0.0729 -0.11274,-0.10904 -0.21084,-0.10904 -0.0688,0 -0.12333,0.0135 -0.16433,0.0419 -0.0395,0.0283 -0.0705,0.0699 -0.0925,0.12506 -0.0205,0.0536 -0.0345,0.1211 -0.0419,0.20153 -0.006,0.079 -0.009,0.17063 -0.009,0.27492 v 0.17415 c 0,0.10579 0.003,0.19861 0.009,0.27906 0.006,0.079 0.0193,0.14584 0.0398,0.19947 0.022,0.0536 0.0536,0.0937 0.0946,0.1204 0.041,0.0268 0.0966,0.0408 0.16691,0.0408 0.0864,0 0.15261,-0.0269 0.19947,-0.0806 0.0483,-0.0552 0.0735,-0.14738 0.0749,-0.27698 h 0.58395 c -10e-4,0.13707 -0.0238,0.26027 -0.0677,0.37052 -0.0439,0.10877 -0.10422,0.20099 -0.18035,0.27698 -0.0747,0.076 -0.16313,0.13443 -0.26562,0.17467 -0.10249,0.0402 -0.21316,0.0605 -0.33176,0.0605 -0.15959,0 -0.29843,-0.0263 -0.41703,-0.0785 -0.1186,-0.0522 -0.21756,-0.12699 -0.29662,-0.22531 -0.0776,-0.0998 -0.13617,-0.22239 -0.1757,-0.3669 -0.0381,-0.14453 -0.0574,-0.30928 -0.0574,-0.49403 v -0.17415 c 0,-0.18475 0.0193,-0.34899 0.0574,-0.49351 0.0395,-0.14601 0.0981,-0.26965 0.1757,-0.36948 0.0776,-0.0998 0.17544,-0.17523 0.29404,-0.22738 0.11859,-0.0522 0.25736,-0.0786 0.41548,-0.0786 z m 3.23029,0 c 0.30162,0 0.52822,0.0989 0.67903,0.29714 0.15081,0.19815 0.22583,0.49223 0.22583,0.88108 v 0.28784 h -1.2361 c 0.004,0.0969 0.0167,0.17785 0.0372,0.2434 0.022,0.0655 0.0512,0.11891 0.0879,0.15916 0.0366,0.0402 0.0805,0.0694 0.13178,0.0873 0.0527,0.0179 0.11186,0.0269 0.17776,0.0269 0.10981,0 0.20706,-0.0186 0.29198,-0.0558 0.0864,-0.0388 0.16252,-0.0927 0.22841,-0.16123 l 0.24391,0.38188 c -0.0307,0.0433 -0.0711,0.0865 -0.12092,0.12971 -0.0498,0.0418 -0.10835,0.08 -0.1757,0.11421 -0.0674,0.0343 -0.14349,0.0619 -0.22841,0.0827 -0.0849,0.0223 -0.17751,0.0336 -0.27854,0.0336 -0.16252,0 -0.30713,-0.0258 -0.43305,-0.0765 -0.12591,-0.0507 -0.23195,-0.12325 -0.31832,-0.21859 -0.0864,-0.0953 -0.15202,-0.21175 -0.19741,-0.34882 -0.0439,-0.13855 -0.0661,-0.29549 -0.0661,-0.47129 v -0.19895 c 0,-0.19666 0.0211,-0.36875 0.0636,-0.51625 0.0439,-0.14899 0.10654,-0.27379 0.18707,-0.37362 0.082,-0.10134 0.18156,-0.17673 0.29869,-0.22738 0.1186,-0.0507 0.25217,-0.0765 0.40152,-0.0765 z m 2.39417,0 c 0.0922,0 0.17717,0.0169 0.25477,0.0496 0.0776,0.0312 0.14434,0.083 0.19998,0.15606 0.0556,0.0731 0.0985,0.16859 0.12919,0.28629 0.0307,0.1177 0.0465,0.26224 0.0465,0.43357 v 1.53737 h -0.62373 v -1.53996 c 0,-0.0774 -0.006,-0.14107 -0.0176,-0.19172 -0.0117,-0.0507 -0.0293,-0.0917 -0.0527,-0.12144 -0.022,-0.0298 -0.05,-0.0506 -0.0837,-0.0625 -0.0337,-0.0119 -0.0729,-0.0176 -0.11834,-0.0176 -0.0586,0 -0.11006,0.0153 -0.15399,0.0465 -0.0439,0.0313 -0.0803,0.0746 -0.10956,0.12971 v 1.75644 h -0.62373 v -2.41794 h 0.58394 l 0.0176,0.23927 c 0.0688,-0.0924 0.14961,-0.16265 0.24185,-0.21033 0.0922,-0.0491 0.19533,-0.0734 0.30954,-0.0734 z m 1.94355,0 c 0.12738,0 0.24332,0.0207 0.34727,0.0625 0.10542,0.0402 0.19447,0.1004 0.26768,0.18087 0.0747,0.079 0.13204,0.17738 0.17157,0.29507 0.041,0.11771 0.0621,0.25434 0.0636,0.40928 h -0.58446 c -10e-4,-0.13559 -0.0232,-0.24015 -0.0656,-0.31316 -0.0425,-0.0729 -0.11274,-0.10904 -0.21084,-0.10904 -0.0688,0 -0.12386,0.0135 -0.16485,0.0419 -0.0395,0.0283 -0.07,0.0699 -0.092,0.12506 -0.0205,0.0536 -0.0345,0.1211 -0.0419,0.20153 -0.006,0.079 -0.009,0.17063 -0.009,0.27492 v 0.17415 c 0,0.10579 0.003,0.19861 0.009,0.27906 0.006,0.079 0.0188,0.14584 0.0393,0.19947 0.022,0.0536 0.0536,0.0937 0.0946,0.1204 0.041,0.0268 0.0966,0.0408 0.16692,0.0408 0.0864,0 0.15313,-0.0269 0.19998,-0.0806 0.0483,-0.0552 0.0729,-0.14738 0.0744,-0.27698 h 0.58446 c -10e-4,0.13707 -0.0243,0.26027 -0.0682,0.37052 -0.0439,0.10877 -0.10371,0.20099 -0.17984,0.27698 -0.0747,0.076 -0.16364,0.13443 -0.26613,0.17467 -0.10249,0.0402 -0.21266,0.0605 -0.33125,0.0605 -0.1596,0 -0.29894,-0.0263 -0.41754,-0.0785 -0.1186,-0.0522 -0.21757,-0.12699 -0.29663,-0.22531 -0.0776,-0.0998 -0.13617,-0.22239 -0.1757,-0.3669 -0.0381,-0.14453 -0.0568,-0.30928 -0.0568,-0.49403 v -0.17415 c 0,-0.18475 0.0188,-0.34899 0.0568,-0.49351 0.0395,-0.14601 0.0981,-0.26965 0.1757,-0.36948 0.0776,-0.0998 0.17597,-0.17523 0.29456,-0.22738 0.1186,-0.0522 0.25683,-0.0786 0.41496,-0.0786 z m 2.09755,0 c 0.30161,0 0.5277,0.0989 0.67851,0.29714 0.15081,0.19815 0.22634,0.49223 0.22634,0.88108 v 0.28784 h -1.23661 c 0.004,0.0969 0.0167,0.17785 0.0372,0.2434 0.022,0.0655 0.0511,0.11891 0.0878,0.15916 0.0366,0.0402 0.0805,0.0694 0.13178,0.0873 0.0527,0.0179 0.11239,0.0269 0.17828,0.0269 0.10981,0 0.20705,-0.0186 0.29197,-0.0558 0.0864,-0.0388 0.16253,-0.0927 0.22841,-0.16123 l 0.24391,0.38188 c -0.0308,0.0433 -0.0711,0.0865 -0.12092,0.12971 -0.0498,0.0418 -0.10834,0.08 -0.1757,0.11421 -0.0674,0.0343 -0.14348,0.0619 -0.22841,0.0827 -0.0849,0.0223 -0.17802,0.0336 -0.27905,0.0336 -0.16252,0 -0.30661,-0.0258 -0.43253,-0.0765 -0.12592,-0.0507 -0.23194,-0.12325 -0.31833,-0.21859 -0.0864,-0.0953 -0.15253,-0.21175 -0.19792,-0.34882 -0.0439,-0.13855 -0.0656,-0.29549 -0.0656,-0.47129 v -0.19895 c 0,-0.19666 0.0211,-0.36875 0.0636,-0.51625 0.0439,-0.14899 0.10604,-0.27379 0.18656,-0.37362 0.082,-0.10134 0.18156,-0.17673 0.29869,-0.22738 0.11859,-0.0507 0.25269,-0.0765 0.40204,-0.0765 z m 2.04483,0 c 0.13324,0 0.25219,0.0186 0.35761,0.0558 0.10688,0.0357 0.19766,0.0874 0.27233,0.15452 0.0747,0.0655 0.13204,0.14486 0.17157,0.23874 0.0395,0.0924 0.0594,0.19579 0.0594,0.30903 h -0.62166 c 0,-0.0924 -0.0182,-0.1649 -0.0548,-0.21705 -0.0366,-0.0522 -0.0992,-0.078 -0.18707,-0.078 -0.0659,0 -0.1198,0.0207 -0.16226,0.0625 -0.0425,0.0418 -0.0636,0.0996 -0.0636,0.17415 0,0.0312 0.007,0.0594 0.0196,0.0847 0.0146,0.0238 0.0375,0.0479 0.0682,0.0718 0.0322,0.0238 0.0738,0.048 0.12506,0.0734 0.0513,0.0253 0.11395,0.0545 0.18862,0.0873 0.1186,0.0446 0.2211,0.092 0.30747,0.14108 0.0879,0.0491 0.16046,0.10378 0.21756,0.16485 0.0571,0.0596 0.0998,0.12764 0.12764,0.2036 0.0278,0.076 0.0413,0.16373 0.0413,0.26355 0,0.10727 -0.0205,0.20509 -0.0615,0.29301 -0.041,0.0879 -0.0996,0.16273 -0.1757,0.22531 -0.0747,0.0626 -0.16546,0.11201 -0.27233,0.14779 -0.10689,0.0343 -0.22584,0.0517 -0.35761,0.0517 -0.14496,0 -0.27319,-0.023 -0.38447,-0.0677 -0.10981,-0.0462 -0.20231,-0.10638 -0.27698,-0.18086 -0.0747,-0.076 -0.13092,-0.1609 -0.16899,-0.25477 -0.0381,-0.0953 -0.0568,-0.19209 -0.0568,-0.29042 h 0.59066 c 10e-4,0.0656 0.0103,0.12007 0.0264,0.1633 0.0161,0.0418 0.0372,0.0749 0.0636,0.10025 0.0278,0.0253 0.06,0.0434 0.0966,0.0537 0.0381,0.009 0.0791,0.0134 0.12299,0.0134 0.16691,0 0.25063,-0.077 0.25063,-0.23048 0,-0.0313 -0.008,-0.0589 -0.0243,-0.0842 -0.0146,-0.0268 -0.0386,-0.0531 -0.0723,-0.0786 -0.0322,-0.0268 -0.0749,-0.0537 -0.12764,-0.0806 -0.0527,-0.0268 -0.11541,-0.0566 -0.18862,-0.0894 -0.10835,-0.0446 -0.20438,-0.0898 -0.28784,-0.13591 -0.0835,-0.0477 -0.15374,-0.1011 -0.21084,-0.15917 -0.0571,-0.0595 -0.10042,-0.12539 -0.12971,-0.19843 -0.0293,-0.0745 -0.0439,-0.16051 -0.0439,-0.25735 0,-0.10136 0.0182,-0.1958 0.0548,-0.28371 0.0381,-0.0894 0.0925,-0.16698 0.16278,-0.23254 0.0703,-0.0671 0.1558,-0.1188 0.25683,-0.15606 0.10249,-0.0388 0.21841,-0.0584 0.34726,-0.0584 z m -20.39875,0.0444 h 0.62373 v 2.41846 h -0.62373 z m 9.91826,0 h 0.62373 v 2.41846 h -0.62373 z m 1.99626,0.48059 v 5.2e-4 c -0.10835,0 -0.18742,0.0389 -0.2372,0.11782 -0.0483,0.079 -0.077,0.20604 -0.0858,0.38034 h 0.62167 v -0.0584 c -0.003,-0.14452 -0.0264,-0.25418 -0.0703,-0.32866 -0.0439,-0.0745 -0.12006,-0.11163 -0.22841,-0.11163 z m 6.43475,0 v 5.2e-4 c -0.10834,0 -0.18742,0.0389 -0.2372,0.11782 -0.0483,0.079 -0.0765,0.20604 -0.0853,0.38034 h 0.62115 v -0.0584 c -0.003,-0.14452 -0.0264,-0.25418 -0.0703,-0.32866 -0.0439,-0.0745 -0.12006,-0.11163 -0.22841,-0.11163 z m -21.79764,5.2e-4 c -0.10542,0 -0.18802,0.0534 -0.24805,0.16072 -0.0586,0.10578 -0.0879,0.26886 -0.0879,0.48937 v 0.15865 c 0,0.22496 0.0299,0.38973 0.0899,0.49402 0.06,0.1028 0.14375,0.154 0.25063,0.154 0.11274,0 0.19767,-0.0512 0.25477,-0.154 0.0571,-0.10429 0.0853,-0.26906 0.0853,-0.49402 v -0.15865 c 0,-0.22051 -0.0299,-0.38359 -0.0899,-0.48937 -0.06,-0.10727 -0.14496,-0.16072 -0.25477,-0.16072 z m 5.59811,0.83974 -0.14676,5.2e-4 c -0.0586,0 -0.10947,0.009 -0.15193,0.0289 -0.0425,0.0195 -0.0782,0.0458 -0.10749,0.0801 -0.0278,0.0343 -0.0489,0.0748 -0.0636,0.12092 -0.0132,0.0462 -0.0196,0.0952 -0.0196,0.14728 0,0.0879 0.0176,0.15536 0.0527,0.20154 0.0366,0.0446 0.0876,0.0667 0.15348,0.0667 0.0688,0 0.12738,-0.0141 0.1757,-0.0424 0.0483,-0.0283 0.0841,-0.062 0.10749,-0.10076 z" /><path
       id="path159"
       style="fill:#808ff7;fill-opacity:1;stroke-width:0.264583"
       d="m 660.00283,139.08571 c -1.95235,0 -3.53518,1.60976 -3.53518,3.59668 v 3.30574 c 0,1.98693 1.58283,3.5972 3.53518,3.5972 h 33.2419 v -10.49962 z m 33.7597,0 v 10.49962 h 1.96474 v -10.49962 z m 2.48254,0 v 10.49962 h 1.99987 v -10.49962 z m 2.49959,0 v 10.49962 h 2.00039 v -10.49962 z m -28.24944,3.29799 h 0.62373 v 3.43235 h -0.62373 z m -2.94091,0.0538 c 0.0512,0 0.0975,0.008 0.13849,0.0238 0.0425,0.0164 0.0782,0.04 0.10749,0.0698 0.0293,0.0298 0.0521,0.0652 0.0682,0.10697 0.0161,0.0402 0.0238,0.0852 0.0238,0.13436 0,0.0491 -0.008,0.0942 -0.0238,0.13591 -0.0161,0.0402 -0.0389,0.0762 -0.0682,0.10749 -0.0293,0.0298 -0.065,0.0529 -0.10749,0.0692 -0.041,0.0164 -0.0873,0.0248 -0.13849,0.0248 -0.0513,0 -0.0981,-0.008 -0.14056,-0.0248 -0.041,-0.0164 -0.0761,-0.0395 -0.10542,-0.0692 -0.0293,-0.0312 -0.0521,-0.0673 -0.0682,-0.10749 -0.0161,-0.0418 -0.0243,-0.0867 -0.0243,-0.13591 0,-0.0491 0.008,-0.0943 0.0243,-0.13436 0.0161,-0.0417 0.0389,-0.0771 0.0682,-0.10697 0.0293,-0.0299 0.0644,-0.0534 0.10542,-0.0698 0.0425,-0.0164 0.0893,-0.0238 0.14056,-0.0238 z m 9.91826,0 c 0.0513,0 0.0975,0.008 0.13849,0.0238 0.0425,0.0164 0.0782,0.04 0.10749,0.0698 0.0293,0.0298 0.0521,0.0652 0.0682,0.10697 0.0161,0.0402 0.0238,0.0852 0.0238,0.13436 0,0.0491 -0.008,0.0942 -0.0238,0.13591 -0.0161,0.0402 -0.0389,0.0762 -0.0682,0.10749 -0.0293,0.0298 -0.065,0.0529 -0.10749,0.0692 -0.041,0.0164 -0.0872,0.0248 -0.13849,0.0248 -0.0512,0 -0.0981,-0.008 -0.14056,-0.0248 -0.041,-0.0164 -0.0761,-0.0395 -0.10542,-0.0692 -0.0293,-0.0312 -0.0521,-0.0673 -0.0682,-0.10749 -0.0161,-0.0418 -0.0243,-0.0867 -0.0243,-0.13591 0,-0.0491 0.008,-0.0943 0.0243,-0.13436 0.0161,-0.0417 0.0389,-0.0771 0.0682,-0.10697 0.0293,-0.0299 0.0644,-0.0534 0.10542,-0.0698 0.0425,-0.0164 0.0893,-0.0238 0.14056,-0.0238 z m -15.96233,0.0801 c 0.15374,0 0.29197,0.0253 0.41496,0.076 0.12445,0.0491 0.22987,0.11837 0.31626,0.20774 0.0878,0.0879 0.1552,0.19363 0.20205,0.31729 0.0469,0.12217 0.0703,0.25714 0.0703,0.40463 h -0.64337 c 0,-0.0685 -0.008,-0.13097 -0.0222,-0.18759 -0.0132,-0.0581 -0.0349,-0.10709 -0.0656,-0.14728 -0.0293,-0.0418 -0.0674,-0.0743 -0.1142,-0.0966 -0.0469,-0.0238 -0.1031,-0.0357 -0.16899,-0.0357 -0.0615,0 -0.11532,0.009 -0.16071,0.0289 -0.0439,0.0193 -0.0803,0.0462 -0.10955,0.0806 -0.0293,0.0327 -0.0516,0.0726 -0.0661,0.11885 -0.0146,0.0462 -0.0217,0.095 -0.0217,0.14728 0,0.0536 0.0111,0.10205 0.0331,0.14521 0.0234,0.0433 0.0556,0.0836 0.0966,0.12092 0.0425,0.0372 0.0928,0.072 0.15142,0.10491 0.06,0.0327 0.12566,0.0648 0.1974,0.0961 0.14934,0.0552 0.27991,0.11643 0.39119,0.18345 0.11128,0.0671 0.20438,0.14243 0.27905,0.22737 0.0747,0.0849 0.13031,0.18108 0.16692,0.28836 0.0366,0.10577 0.0548,0.22609 0.0548,0.36018 0,0.14303 -0.0234,0.27016 -0.0703,0.38189 -0.0454,0.11174 -0.11153,0.20622 -0.19792,0.2837 -0.0849,0.076 -0.18802,0.13502 -0.30954,0.17674 -0.12153,0.0402 -0.25856,0.0605 -0.41083,0.0605 -0.13763,0 -0.27293,-0.0207 -0.40617,-0.0625 -0.13177,-0.0433 -0.24951,-0.10899 -0.35347,-0.19689 -0.10395,-0.0879 -0.18828,-0.19922 -0.2527,-0.33331 -0.063,-0.13409 -0.0946,-0.29327 -0.0946,-0.47801 h 0.64802 c 0,0.0983 0.009,0.1821 0.0284,0.25063 0.019,0.0685 0.0477,0.12423 0.0858,0.16744 0.0395,0.0418 0.0881,0.0721 0.14521,0.0915 0.0571,0.0179 0.12333,0.0269 0.19947,0.0269 0.0615,0 0.11361,-0.009 0.15607,-0.0269 0.0439,-0.0194 0.0791,-0.0446 0.10542,-0.076 0.0278,-0.0327 0.0477,-0.0716 0.0594,-0.11627 0.0117,-0.0446 0.0176,-0.0931 0.0176,-0.14521 0,-0.0567 -0.005,-0.10725 -0.0155,-0.15193 -0.0103,-0.0446 -0.032,-0.0863 -0.0656,-0.12506 -0.0322,-0.0402 -0.0791,-0.079 -0.14056,-0.11627 -0.06,-0.0372 -0.14082,-0.0766 -0.24184,-0.11834 -0.12006,-0.0462 -0.23487,-0.0991 -0.34468,-0.15865 -0.10835,-0.0596 -0.20438,-0.12937 -0.28784,-0.2098 -0.082,-0.0819 -0.14762,-0.17638 -0.19741,-0.28216 -0.0483,-0.10728 -0.0729,-0.23155 -0.0729,-0.3731 0,-0.13557 0.0251,-0.2593 0.0749,-0.37104 0.0498,-0.11324 0.11945,-0.20887 0.20877,-0.28784 0.0908,-0.079 0.19741,-0.14024 0.3204,-0.18345 0.12445,-0.0447 0.26148,-0.0672 0.41083,-0.0672 z m 12.15636,0 c 0.15373,0 0.29197,0.0253 0.41496,0.076 0.12445,0.0491 0.22987,0.11837 0.31626,0.20774 0.0879,0.0879 0.15521,0.19363 0.20206,0.31729 0.0469,0.12217 0.0703,0.25714 0.0703,0.40463 h -0.64338 c 0,-0.0685 -0.008,-0.13097 -0.0222,-0.18759 -0.0132,-0.0581 -0.0349,-0.10709 -0.0656,-0.14728 -0.0293,-0.0418 -0.0674,-0.0743 -0.1142,-0.0966 -0.0469,-0.0238 -0.10361,-0.0357 -0.1695,-0.0357 -0.0615,0 -0.11481,0.009 -0.1602,0.0289 -0.0439,0.0193 -0.0803,0.0462 -0.10955,0.0806 -0.0293,0.0327 -0.0516,0.0726 -0.0661,0.11885 -0.0146,0.0462 -0.0217,0.095 -0.0217,0.14728 0,0.0536 0.0106,0.10205 0.0326,0.14521 0.0234,0.0433 0.0556,0.0836 0.0966,0.12092 0.0425,0.0372 0.0934,0.072 0.15193,0.10491 0.06,0.0327 0.12566,0.0648 0.1974,0.0961 0.14935,0.0552 0.27991,0.11643 0.39119,0.18345 0.11128,0.0671 0.20386,0.14243 0.27854,0.22737 0.0747,0.0849 0.13031,0.18108 0.16691,0.28836 0.0366,0.10577 0.0553,0.22609 0.0553,0.36018 0,0.14303 -0.0234,0.27016 -0.0703,0.38189 -0.0454,0.11174 -0.11153,0.20622 -0.19792,0.2837 -0.0849,0.076 -0.18801,0.13502 -0.30954,0.17674 -0.12153,0.0402 -0.25856,0.0605 -0.41083,0.0605 -0.13763,0 -0.27294,-0.0207 -0.40618,-0.0625 -0.13177,-0.0433 -0.24952,-0.10899 -0.35346,-0.19689 -0.10396,-0.0879 -0.18828,-0.19922 -0.2527,-0.33331 -0.063,-0.13409 -0.0946,-0.29327 -0.0946,-0.47801 h 0.64802 c 0,0.0983 0.009,0.1821 0.0284,0.25063 0.019,0.0685 0.0477,0.12423 0.0858,0.16744 0.0395,0.0418 0.0876,0.0721 0.14469,0.0915 0.0571,0.0179 0.12386,0.0269 0.19999,0.0269 0.0615,0 0.1136,-0.009 0.15606,-0.0269 0.0439,-0.0194 0.0791,-0.0446 0.10542,-0.076 0.0278,-0.0327 0.0477,-0.0716 0.0594,-0.11627 0.0117,-0.0446 0.0176,-0.0931 0.0176,-0.14521 0,-0.0567 -0.005,-0.10725 -0.0155,-0.15193 -0.0102,-0.0446 -0.0326,-0.0863 -0.0661,-0.12506 -0.0322,-0.0402 -0.0791,-0.079 -0.14056,-0.11627 -0.06,-0.0372 -0.14031,-0.0766 -0.24133,-0.11834 -0.12006,-0.0462 -0.23487,-0.0991 -0.34468,-0.15865 -0.10835,-0.0596 -0.20438,-0.12937 -0.28784,-0.2098 -0.082,-0.0819 -0.14814,-0.17638 -0.19792,-0.28216 -0.0483,-0.10728 -0.0723,-0.23155 -0.0723,-0.3731 0,-0.13557 0.0251,-0.2593 0.0749,-0.37104 0.0498,-0.11324 0.11894,-0.20887 0.20825,-0.28784 0.0908,-0.079 0.19793,-0.14024 0.32091,-0.18345 0.12446,-0.0447 0.26149,-0.0672 0.41083,-0.0672 z m -9.8702,0.83561 c 0.14788,0 0.28139,0.0264 0.39998,0.0786 0.1186,0.0507 0.21936,0.12551 0.30282,0.22531 0.0835,0.0998 0.14788,0.22296 0.19327,0.36897 0.0454,0.146 0.0682,0.31411 0.0682,0.50333 v 0.15813 c 0,0.1907 -0.0228,0.35938 -0.0682,0.50539 -0.0439,0.14451 -0.10775,0.26656 -0.1912,0.36639 -0.0835,0.0998 -0.18423,0.17466 -0.30283,0.22531 -0.1186,0.0507 -0.25097,0.0765 -0.39739,0.0765 -0.14788,0 -0.28137,-0.0258 -0.39997,-0.0765 -0.11859,-0.0507 -0.21937,-0.12551 -0.30283,-0.22531 -0.0835,-0.0998 -0.14788,-0.22188 -0.19327,-0.36639 -0.0454,-0.14601 -0.0682,-0.31469 -0.0682,-0.50539 v -0.15813 c 0,-0.18922 0.0228,-0.35733 0.0682,-0.50333 0.0454,-0.14601 0.10981,-0.26915 0.19327,-0.36897 0.0835,-0.0998 0.18362,-0.17467 0.30076,-0.22531 0.11859,-0.0522 0.25097,-0.0786 0.39739,-0.0786 z m 2.21847,0 c 0.12738,0 0.24279,0.0207 0.34675,0.0625 0.10542,0.0402 0.19499,0.1004 0.2682,0.18087 0.0747,0.079 0.13151,0.17738 0.17105,0.29507 0.041,0.11771 0.0621,0.25434 0.0636,0.40928 h -0.58394 c -0.002,-0.13559 -0.0237,-0.24015 -0.0662,-0.31316 -0.0425,-0.0729 -0.11274,-0.10904 -0.21084,-0.10904 -0.0688,0 -0.12333,0.0135 -0.16433,0.0419 -0.0395,0.0283 -0.0705,0.0699 -0.0925,0.12506 -0.0205,0.0536 -0.0345,0.1211 -0.0419,0.20153 -0.006,0.079 -0.009,0.17063 -0.009,0.27492 v 0.17415 c 0,0.10579 0.003,0.19861 0.009,0.27906 0.006,0.079 0.0193,0.14584 0.0398,0.19947 0.022,0.0536 0.0536,0.0937 0.0946,0.1204 0.041,0.0268 0.0966,0.0408 0.16692,0.0408 0.0864,0 0.15262,-0.0269 0.19947,-0.0806 0.0483,-0.0552 0.0735,-0.14738 0.0749,-0.27698 h 0.58394 c -10e-4,0.13707 -0.0238,0.26027 -0.0677,0.37052 -0.0439,0.10877 -0.10421,0.20099 -0.18035,0.27698 -0.0747,0.076 -0.16312,0.13443 -0.26561,0.17467 -0.1025,0.0402 -0.21317,0.0605 -0.33177,0.0605 -0.15959,0 -0.29842,-0.0263 -0.41702,-0.0785 -0.11859,-0.0522 -0.21756,-0.12699 -0.29663,-0.22531 -0.0776,-0.0998 -0.13617,-0.22239 -0.1757,-0.3669 -0.0381,-0.14453 -0.0574,-0.30928 -0.0574,-0.49403 v -0.17415 c 0,-0.18475 0.0193,-0.34899 0.0574,-0.49351 0.0395,-0.14601 0.0981,-0.26965 0.1757,-0.36948 0.0776,-0.0998 0.17544,-0.17523 0.29404,-0.22738 0.1186,-0.0522 0.25735,-0.0786 0.41548,-0.0786 z m 3.18223,0 h 5.2e-4 c 0.11839,5e-5 0.22719,0.0159 0.3266,0.047 0.0996,0.0298 0.1862,0.0775 0.25941,0.14314 0.0732,0.064 0.13005,0.14672 0.17105,0.24805 0.041,0.0998 0.0615,0.2207 0.0615,0.36225 v 1.0728 c 0,0.0701 0.002,0.13247 0.005,0.18759 0.004,0.0537 0.0103,0.10262 0.0176,0.14728 0.007,0.0433 0.0161,0.0825 0.0264,0.11834 0.0117,0.0343 0.0246,0.067 0.0393,0.0982 v 0.0377 l -0.6258,5.2e-4 c -0.0117,-0.0253 -0.0222,-0.0535 -0.031,-0.0848 -0.007,-0.0327 -0.0144,-0.0671 -0.0217,-0.10283 -0.0468,0.0655 -0.10775,0.12063 -0.18242,0.16536 -0.0732,0.0446 -0.16337,0.0672 -0.27026,0.0672 -0.0966,0 -0.18742,-0.0175 -0.27234,-0.0517 -0.0835,-0.0343 -0.15666,-0.0826 -0.21962,-0.14521 -0.0615,-0.0626 -0.11015,-0.13788 -0.14676,-0.22582 -0.0351,-0.0894 -0.0527,-0.18896 -0.0527,-0.29921 0,-0.12217 0.0188,-0.23241 0.0568,-0.33073 0.0395,-0.0998 0.0981,-0.18416 0.1757,-0.2527 0.0791,-0.07 0.17741,-0.12346 0.29455,-0.16071 0.1186,-0.0372 0.25743,-0.0563 0.41703,-0.0563 h 0.16899 v -0.19378 c 0,-0.10876 -0.0182,-0.18578 -0.0548,-0.23048 -0.0366,-0.0446 -0.0899,-0.0672 -0.1602,-0.0672 -0.0805,0 -0.1397,0.0246 -0.17777,0.0739 -0.0366,0.0477 -0.0553,0.11519 -0.0553,0.20308 h -0.62115 c 0,-0.10578 0.0194,-0.20477 0.0589,-0.29713 0.041,-0.0939 0.0996,-0.17545 0.1757,-0.24547 0.0761,-0.0701 0.16804,-0.12514 0.27492,-0.16536 0.10675,-0.0418 0.22725,-0.063 0.36173,-0.0631 z m 6.73603,0 c 0.12738,0 0.2428,0.0207 0.34675,0.0625 0.10542,0.0402 0.19499,0.1004 0.2682,0.18087 0.0747,0.079 0.13152,0.17738 0.17105,0.29507 0.041,0.11771 0.0621,0.25434 0.0636,0.40928 h -0.58395 c -0.002,-0.13559 -0.0236,-0.24015 -0.0661,-0.31316 -0.0425,-0.0729 -0.11274,-0.10904 -0.21084,-0.10904 -0.0688,0 -0.12333,0.0135 -0.16433,0.0419 -0.0395,0.0283 -0.0705,0.0699 -0.0925,0.12506 -0.0205,0.0536 -0.0345,0.1211 -0.0419,0.20153 -0.006,0.079 -0.009,0.17063 -0.009,0.27492 v 0.17415 c 0,0.10579 0.003,0.19861 0.009,0.27906 0.006,0.079 0.0193,0.14584 0.0398,0.19947 0.022,0.0536 0.0536,0.0937 0.0946,0.1204 0.041,0.0268 0.0966,0.0408 0.16691,0.0408 0.0864,0 0.15261,-0.0269 0.19947,-0.0806 0.0483,-0.0552 0.0735,-0.14738 0.0749,-0.27698 h 0.58395 c -10e-4,0.13707 -0.0238,0.26027 -0.0677,0.37052 -0.0439,0.10877 -0.10422,0.20099 -0.18035,0.27698 -0.0747,0.076 -0.16313,0.13443 -0.26562,0.17467 -0.10249,0.0402 -0.21316,0.0605 -0.33176,0.0605 -0.15959,0 -0.29843,-0.0263 -0.41703,-0.0785 -0.1186,-0.0522 -0.21756,-0.12699 -0.29662,-0.22531 -0.0776,-0.0998 -0.13617,-0.22239 -0.1757,-0.3669 -0.0381,-0.14453 -0.0574,-0.30928 -0.0574,-0.49403 v -0.17415 c 0,-0.18475 0.0193,-0.34899 0.0574,-0.49351 0.0395,-0.14601 0.0981,-0.26965 0.1757,-0.36948 0.0776,-0.0998 0.17544,-0.17523 0.29404,-0.22738 0.11859,-0.0522 0.25736,-0.0786 0.41548,-0.0786 z m 3.23029,0 c 0.30162,0 0.52822,0.0989 0.67903,0.29714 0.15081,0.19815 0.22583,0.49223 0.22583,0.88108 v 0.28784 h -1.2361 c 0.004,0.0969 0.0167,0.17785 0.0372,0.2434 0.022,0.0655 0.0512,0.11891 0.0879,0.15916 0.0366,0.0402 0.0805,0.0694 0.13178,0.0873 0.0527,0.0179 0.11186,0.0269 0.17776,0.0269 0.10981,0 0.20706,-0.0186 0.29198,-0.0558 0.0864,-0.0388 0.16252,-0.0927 0.22841,-0.16123 l 0.24391,0.38188 c -0.0307,0.0433 -0.0711,0.0865 -0.12092,0.12971 -0.0498,0.0418 -0.10835,0.08 -0.1757,0.11421 -0.0674,0.0343 -0.14349,0.0619 -0.22841,0.0827 -0.0849,0.0223 -0.17751,0.0336 -0.27854,0.0336 -0.16252,0 -0.30713,-0.0258 -0.43305,-0.0765 -0.12591,-0.0507 -0.23195,-0.12325 -0.31832,-0.21859 -0.0864,-0.0953 -0.15202,-0.21175 -0.19741,-0.34882 -0.0439,-0.13855 -0.0661,-0.29549 -0.0661,-0.47129 v -0.19895 c 0,-0.19666 0.0211,-0.36875 0.0636,-0.51625 0.0439,-0.14899 0.10654,-0.27379 0.18707,-0.37362 0.082,-0.10134 0.18156,-0.17673 0.29869,-0.22738 0.1186,-0.0507 0.25217,-0.0765 0.40152,-0.0765 z m 2.39417,0 c 0.0922,0 0.17717,0.0169 0.25477,0.0496 0.0776,0.0312 0.14434,0.083 0.19998,0.15606 0.0556,0.0731 0.0985,0.16859 0.12919,0.28629 0.0307,0.1177 0.0465,0.26224 0.0465,0.43357 v 1.53737 h -0.62373 v -1.53996 c 0,-0.0774 -0.006,-0.14107 -0.0176,-0.19172 -0.0117,-0.0507 -0.0293,-0.0917 -0.0527,-0.12144 -0.022,-0.0298 -0.05,-0.0506 -0.0837,-0.0625 -0.0337,-0.0119 -0.0729,-0.0176 -0.11834,-0.0176 -0.0586,0 -0.11006,0.0153 -0.15399,0.0465 -0.0439,0.0313 -0.0803,0.0746 -0.10956,0.12971 v 1.75644 h -0.62373 v -2.41794 h 0.58394 l 0.0176,0.23927 c 0.0688,-0.0924 0.14961,-0.16265 0.24185,-0.21033 0.0922,-0.0491 0.19533,-0.0734 0.30954,-0.0734 z m 1.94355,0 c 0.12738,0 0.24332,0.0207 0.34727,0.0625 0.10542,0.0402 0.19447,0.1004 0.26768,0.18087 0.0747,0.079 0.13204,0.17738 0.17157,0.29507 0.041,0.11771 0.0621,0.25434 0.0636,0.40928 h -0.58446 c -10e-4,-0.13559 -0.0232,-0.24015 -0.0656,-0.31316 -0.0425,-0.0729 -0.11274,-0.10904 -0.21084,-0.10904 -0.0688,0 -0.12386,0.0135 -0.16485,0.0419 -0.0395,0.0283 -0.07,0.0699 -0.092,0.12506 -0.0205,0.0536 -0.0345,0.1211 -0.0419,0.20153 -0.006,0.079 -0.009,0.17063 -0.009,0.27492 v 0.17415 c 0,0.10579 0.003,0.19861 0.009,0.27906 0.006,0.079 0.0188,0.14584 0.0393,0.19947 0.022,0.0536 0.0536,0.0937 0.0946,0.1204 0.041,0.0268 0.0966,0.0408 0.16692,0.0408 0.0864,0 0.15313,-0.0269 0.19998,-0.0806 0.0483,-0.0552 0.0729,-0.14738 0.0744,-0.27698 h 0.58446 c -10e-4,0.13707 -0.0243,0.26027 -0.0682,0.37052 -0.0439,0.10877 -0.10371,0.20099 -0.17984,0.27698 -0.0747,0.076 -0.16364,0.13443 -0.26613,0.17467 -0.10249,0.0402 -0.21266,0.0605 -0.33125,0.0605 -0.1596,0 -0.29894,-0.0263 -0.41754,-0.0785 -0.1186,-0.0522 -0.21757,-0.12699 -0.29663,-0.22531 -0.0776,-0.0998 -0.13617,-0.22239 -0.1757,-0.3669 -0.0381,-0.14453 -0.0568,-0.30928 -0.0568,-0.49403 v -0.17415 c 0,-0.18475 0.0188,-0.34899 0.0568,-0.49351 0.0395,-0.14601 0.0981,-0.26965 0.1757,-0.36948 0.0776,-0.0998 0.17597,-0.17523 0.29456,-0.22738 0.1186,-0.0522 0.25683,-0.0786 0.41496,-0.0786 z m 2.09755,0 c 0.30161,0 0.5277,0.0989 0.67851,0.29714 0.15081,0.19815 0.22634,0.49223 0.22634,0.88108 v 0.28784 h -1.23661 c 0.004,0.0969 0.0167,0.17785 0.0372,0.2434 0.022,0.0655 0.0511,0.11891 0.0878,0.15916 0.0366,0.0402 0.0805,0.0694 0.13178,0.0873 0.0527,0.0179 0.11239,0.0269 0.17828,0.0269 0.10981,0 0.20705,-0.0186 0.29197,-0.0558 0.0864,-0.0388 0.16253,-0.0927 0.22841,-0.16123 l 0.24391,0.38188 c -0.0308,0.0433 -0.0711,0.0865 -0.12092,0.12971 -0.0498,0.0418 -0.10834,0.08 -0.1757,0.11421 -0.0674,0.0343 -0.14348,0.0619 -0.22841,0.0827 -0.0849,0.0223 -0.17802,0.0336 -0.27905,0.0336 -0.16252,0 -0.30661,-0.0258 -0.43253,-0.0765 -0.12592,-0.0507 -0.23194,-0.12325 -0.31833,-0.21859 -0.0864,-0.0953 -0.15253,-0.21175 -0.19792,-0.34882 -0.0439,-0.13855 -0.0656,-0.29549 -0.0656,-0.47129 v -0.19895 c 0,-0.19666 0.0211,-0.36875 0.0636,-0.51625 0.0439,-0.14899 0.10604,-0.27379 0.18656,-0.37362 0.082,-0.10134 0.18156,-0.17673 0.29869,-0.22738 0.11859,-0.0507 0.25269,-0.0765 0.40204,-0.0765 z m 2.04483,0 c 0.13324,0 0.25219,0.0186 0.35761,0.0558 0.10688,0.0357 0.19766,0.0874 0.27233,0.15452 0.0747,0.0655 0.13204,0.14486 0.17157,0.23874 0.0395,0.0924 0.0594,0.19579 0.0594,0.30903 h -0.62166 c 0,-0.0924 -0.0182,-0.1649 -0.0548,-0.21705 -0.0366,-0.0522 -0.0992,-0.078 -0.18707,-0.078 -0.0659,0 -0.1198,0.0207 -0.16226,0.0625 -0.0425,0.0418 -0.0636,0.0996 -0.0636,0.17415 0,0.0312 0.007,0.0594 0.0196,0.0847 0.0146,0.0238 0.0375,0.0479 0.0682,0.0718 0.0322,0.0238 0.0738,0.048 0.12506,0.0734 0.0513,0.0253 0.11395,0.0545 0.18862,0.0873 0.1186,0.0446 0.2211,0.092 0.30747,0.14108 0.0879,0.0491 0.16046,0.10378 0.21756,0.16485 0.0571,0.0596 0.0998,0.12764 0.12764,0.2036 0.0278,0.076 0.0413,0.16373 0.0413,0.26355 0,0.10727 -0.0205,0.20509 -0.0615,0.29301 -0.041,0.0879 -0.0996,0.16273 -0.1757,0.22531 -0.0747,0.0626 -0.16546,0.11201 -0.27233,0.14779 -0.10689,0.0343 -0.22584,0.0517 -0.35761,0.0517 -0.14496,0 -0.27319,-0.023 -0.38447,-0.0677 -0.10981,-0.0462 -0.20231,-0.10638 -0.27698,-0.18086 -0.0747,-0.076 -0.13092,-0.1609 -0.16899,-0.25477 -0.0381,-0.0953 -0.0568,-0.19209 -0.0568,-0.29042 h 0.59066 c 10e-4,0.0656 0.0103,0.12007 0.0264,0.1633 0.0161,0.0418 0.0372,0.0749 0.0636,0.10025 0.0278,0.0253 0.06,0.0434 0.0966,0.0537 0.0381,0.009 0.0791,0.0134 0.12299,0.0134 0.16691,0 0.25063,-0.077 0.25063,-0.23048 0,-0.0313 -0.008,-0.0589 -0.0243,-0.0842 -0.0146,-0.0268 -0.0386,-0.0531 -0.0723,-0.0786 -0.0322,-0.0268 -0.0749,-0.0537 -0.12764,-0.0806 -0.0527,-0.0268 -0.11541,-0.0566 -0.18862,-0.0894 -0.10835,-0.0446 -0.20438,-0.0898 -0.28784,-0.13591 -0.0835,-0.0477 -0.15374,-0.1011 -0.21084,-0.15917 -0.0571,-0.0595 -0.10042,-0.12539 -0.12971,-0.19843 -0.0293,-0.0745 -0.0439,-0.16051 -0.0439,-0.25735 0,-0.10136 0.0182,-0.1958 0.0548,-0.28371 0.0381,-0.0894 0.0925,-0.16698 0.16278,-0.23254 0.0703,-0.0671 0.1558,-0.1188 0.25683,-0.15606 0.10249,-0.0388 0.21841,-0.0584 0.34726,-0.0584 z m -20.39875,0.0444 h 0.62373 v 2.41846 h -0.62373 z m 9.91826,0 h 0.62373 v 2.41846 h -0.62373 z m 1.99626,0.48059 v 5.2e-4 c -0.10835,0 -0.18742,0.0389 -0.2372,0.11782 -0.0483,0.079 -0.077,0.20604 -0.0858,0.38034 h 0.62167 v -0.0584 c -0.003,-0.14452 -0.0264,-0.25418 -0.0703,-0.32866 -0.0439,-0.0745 -0.12006,-0.11163 -0.22841,-0.11163 z m 6.43475,0 v 5.2e-4 c -0.10834,0 -0.18742,0.0389 -0.2372,0.11782 -0.0483,0.079 -0.0765,0.20604 -0.0853,0.38034 h 0.62115 v -0.0584 c -0.003,-0.14452 -0.0264,-0.25418 -0.0703,-0.32866 -0.0439,-0.0745 -0.12006,-0.11163 -0.22841,-0.11163 z m -21.79764,5.2e-4 c -0.10542,0 -0.18802,0.0534 -0.24805,0.16072 -0.0586,0.10578 -0.0879,0.26886 -0.0879,0.48937 v 0.15865 c 0,0.22496 0.0299,0.38973 0.0899,0.49402 0.06,0.1028 0.14375,0.154 0.25063,0.154 0.11274,0 0.19767,-0.0512 0.25477,-0.154 0.0571,-0.10429 0.0853,-0.26906 0.0853,-0.49402 v -0.15865 c 0,-0.22051 -0.0299,-0.38359 -0.0899,-0.48937 -0.06,-0.10727 -0.14496,-0.16072 -0.25477,-0.16072 z m 5.59811,0.83974 -0.14676,5.2e-4 c -0.0586,0 -0.10947,0.009 -0.15193,0.0289 -0.0425,0.0195 -0.0782,0.0458 -0.10749,0.0801 -0.0278,0.0343 -0.0489,0.0748 -0.0636,0.12092 -0.0132,0.0462 -0.0196,0.0952 -0.0196,0.14728 0,0.0879 0.0176,0.15536 0.0527,0.20154 0.0366,0.0446 0.0876,0.0667 0.15348,0.0667 0.0688,0 0.12738,-0.0141 0.1757,-0.0424 0.0483,-0.0283 0.0841,-0.062 0.10749,-0.10076 z" /></g></svg>
