<?xml version="1.0" encoding="UTF-8" standalone="no"?>
<!-- Created with Inkscape (http://www.inkscape.org/) -->

<svg
   width="57.489513mm"
   height="10.499618mm"
   viewBox="0 0 57.489513 10.499618"
   version="1.1"
   id="svg1"
   xml:space="preserve"
   inkscape:version="1.3.1 (91b66b0783, 2023-11-16)"
   sodipodi:docname="topic_23.svg"
   xmlns:inkscape="http://www.inkscape.org/namespaces/inkscape"
   xmlns:sodipodi="http://sodipodi.sourceforge.net/DTD/sodipodi-0.dtd"
   xmlns="http://www.w3.org/2000/svg"
   xmlns:svg="http://www.w3.org/2000/svg"><sodipodi:namedview
     id="namedview1"
     pagecolor="#ffffff"
     bordercolor="#000000"
     borderopacity="0.25"
     inkscape:showpageshadow="2"
     inkscape:pageopacity="0.0"
     inkscape:pagecheckerboard="0"
     inkscape:deskcolor="#d1d1d1"
     inkscape:document-units="mm"
     inkscape:zoom="2"
     inkscape:cx="199.25"
     inkscape:cy="100.25"
     inkscape:window-width="2560"
     inkscape:window-height="1346"
     inkscape:window-x="-11"
     inkscape:window-y="-11"
     inkscape:window-maximized="1"
     inkscape:current-layer="layer1"
     showgrid="true"><inkscape:grid
       id="grid668"
       units="mm"
       originx="-545.43927"
       originy="-139.08573"
       spacingx="0.5"
       spacingy="0.5"
       empcolor="#0099e5"
       empopacity="0.30196078"
       color="#0099e5"
       opacity="0.14901961"
       empspacing="5"
       dotted="false"
       gridanglex="30"
       gridanglez="30"
       visible="true" /></sodipodi:namedview><defs
     id="defs1" /><g
     inkscape:label="Layer 1"
     inkscape:groupmode="layer"
     id="layer1"
     transform="translate(-545.43928,-139.08572)"><rect
       style="fill:#f9f9f9;stroke-width:0.5;stroke-linejoin:round;stroke-miterlimit:3.4;stroke-dashoffset:19.8539"
       id="rect24"
       width="17.012718"
       height="7.1517849"
       x="547.9873"
       y="141.34822" /><path
       id="path737"
       style="fill:#2c2c6f;fill-opacity:1;stroke-width:0.264583"
       d="m 548.97496,139.08571 c -1.95263,0 -3.5357,1.61079 -3.5357,3.59771 v 3.3042 c 0,1.98692 1.58307,3.59771 3.5357,3.59771 h 18.95388 v -10.49961 z m 19.47168,0 v 10.49961 h 1.96474 v -10.49961 z m 2.48202,0 v 10.49961 h 2.00039 v -10.49961 z m 2.50011,0 v 10.49961 h 1.99987 v -10.49961 z m 2.5001,0 v 10.49961 h 1.99988 v -10.49961 z m 2.50011,0 v 10.49961 h 1.99987 v -10.49961 z m 2.5001,0 v 10.49961 h 1.99988 v -10.49961 z m 2.50011,0 v 10.49961 h 1.99988 v -10.49961 z m 2.49959,0 v 10.49961 h 2.00039 v -10.49961 z m 2.5001,0 v 10.49961 h 1.99988 v -10.49961 z m 2.50011,0 v 10.49961 h 1.99988 v -10.49961 z m 2.5001,0 v 10.49961 h 1.99988 v -10.49961 z m 2.49959,0 v 10.49961 h 2.0004 v -10.49961 z m 2.50011,0 v 10.49961 h 2.00039 v -10.49961 z m 2.50011,0 v 10.49961 h 1.99987 v -10.49961 z m -49.03784,3.56722 h 0.62167 v 1.2268 c 0.0644,-0.0819 0.13763,-0.14547 0.21962,-0.19017 0.0835,-0.0447 0.17544,-0.0672 0.27647,-0.0672 0.0981,0 0.18827,0.0174 0.27027,0.0517 0.082,0.0343 0.15227,0.0883 0.21084,0.16278 0.0586,0.0745 0.1037,0.17175 0.13591,0.29094 0.0322,0.11919 0.0486,0.26429 0.0486,0.43563 v 1.52187 h -0.62374 v -1.52652 c 0,-0.0775 -0.006,-0.14215 -0.0176,-0.19431 -0.0117,-0.0521 -0.0293,-0.0938 -0.0527,-0.12504 -0.0234,-0.0313 -0.0521,-0.0533 -0.0858,-0.0667 -0.0337,-0.0134 -0.0729,-0.0207 -0.11834,-0.0207 -0.0615,0 -0.11359,0.0141 -0.15606,0.0424 -0.0425,0.0283 -0.0782,0.0671 -0.10749,0.11627 v 1.77457 h -0.62167 z m 6.61717,0.0537 c 0.0513,0 0.0975,0.007 0.13849,0.0238 0.0425,0.0164 0.0782,0.04 0.10749,0.0698 0.0293,0.0298 0.0521,0.0653 0.0682,0.10697 0.0161,0.0402 0.0243,0.0852 0.0243,0.13436 0,0.0492 -0.008,0.0942 -0.0243,0.13591 -0.0161,0.0402 -0.0389,0.0762 -0.0682,0.10748 -0.0293,0.0298 -0.065,0.0529 -0.10749,0.0692 -0.041,0.0164 -0.0873,0.0248 -0.13849,0.0248 -0.0512,0 -0.0981,-0.008 -0.14056,-0.0248 -0.041,-0.0164 -0.0761,-0.0394 -0.10542,-0.0692 -0.0293,-0.0313 -0.0521,-0.0673 -0.0682,-0.10748 -0.0161,-0.0417 -0.0238,-0.0867 -0.0238,-0.13591 0,-0.0492 0.008,-0.0941 0.0238,-0.13436 0.0161,-0.0417 0.0389,-0.0772 0.0682,-0.10697 0.0293,-0.0298 0.0644,-0.0534 0.10542,-0.0698 0.0425,-0.0164 0.0893,-0.0238 0.14056,-0.0238 z m -9.12968,0.12506 h 1.08934 c 0.16252,0 0.30721,0.0265 0.4346,0.0801 0.12884,0.0536 0.23832,0.12898 0.32763,0.22583 0.0893,0.0953 0.15726,0.20898 0.20412,0.34158 0.0483,0.13111 0.0724,0.27448 0.0724,0.42943 0,0.15793 -0.024,0.30078 -0.0724,0.42891 -0.0469,0.12664 -0.1148,0.23462 -0.20412,0.32401 -0.0893,0.0894 -0.19879,0.15909 -0.32763,0.20826 -0.12885,0.0477 -0.27354,0.0713 -0.4346,0.0713 h -0.4439 v 1.14412 h -0.64544 z m 0.64544,0.54725 v 1.01441 h 0.4439 c 0.0674,0 0.12532,-0.0118 0.17364,-0.0357 0.0498,-0.0238 0.0897,-0.057 0.1204,-0.0987 0.0322,-0.0432 0.0556,-0.0938 0.0703,-0.15192 0.0146,-0.0596 0.0222,-0.12377 0.0222,-0.19379 0,-0.07 -0.008,-0.13747 -0.0222,-0.20154 -0.0146,-0.0641 -0.0381,-0.12085 -0.0703,-0.17001 -0.0308,-0.0492 -0.0706,-0.088 -0.1204,-0.11783 -0.0483,-0.0298 -0.10629,-0.045 -0.17364,-0.045 z m 6.89209,0.2434 c 0.13324,0 0.2527,0.0186 0.35812,0.0558 0.10688,0.0358 0.19765,0.0875 0.27233,0.15451 0.0747,0.0656 0.13152,0.14489 0.17105,0.23875 0.0395,0.0924 0.0594,0.19528 0.0594,0.30851 h -0.62167 c 0,-0.0924 -0.0182,-0.16438 -0.0548,-0.21653 -0.0366,-0.0521 -0.0987,-0.078 -0.18655,-0.078 -0.0659,0 -0.12031,0.0208 -0.16278,0.0625 -0.0425,0.0417 -0.0636,0.0997 -0.0636,0.17415 0,0.0313 0.007,0.0594 0.0196,0.0847 0.0146,0.0238 0.0375,0.048 0.0682,0.0718 0.0322,0.0238 0.0738,0.0481 0.12506,0.0734 0.0512,0.0253 0.11446,0.0546 0.18913,0.0873 0.11859,0.0447 0.2211,0.0919 0.30748,0.14108 0.0879,0.0492 0.15994,0.10376 0.21704,0.16485 0.0571,0.0596 0.0998,0.12762 0.12764,0.2036 0.0278,0.076 0.0419,0.16373 0.0419,0.26355 0,0.10727 -0.0205,0.2051 -0.0615,0.29301 -0.041,0.0879 -0.0996,0.16273 -0.1757,0.22531 -0.0747,0.0626 -0.16545,0.11203 -0.27233,0.14779 -0.10689,0.0343 -0.22634,0.0517 -0.35812,0.0517 -0.14495,0 -0.27319,-0.0225 -0.38447,-0.0672 -0.10981,-0.0462 -0.2018,-0.10637 -0.27647,-0.18087 -0.0747,-0.076 -0.13143,-0.16142 -0.1695,-0.25528 -0.0381,-0.0953 -0.0568,-0.19209 -0.0568,-0.29042 h 0.59067 c 10e-4,0.0656 0.0102,0.12009 0.0263,0.1633 0.0161,0.0417 0.0372,0.0749 0.0636,0.10025 0.0278,0.0253 0.06,0.0433 0.0966,0.0537 0.0381,0.009 0.0791,0.0134 0.12299,0.0134 0.16692,0 0.25063,-0.0765 0.25063,-0.22996 0,-0.0313 -0.008,-0.0594 -0.0243,-0.0848 -0.0146,-0.0268 -0.0386,-0.0532 -0.0723,-0.0786 -0.0322,-0.0268 -0.0749,-0.0533 -0.12764,-0.0801 -0.0527,-0.0268 -0.1154,-0.0566 -0.18862,-0.0894 -0.10834,-0.0447 -0.20438,-0.0902 -0.28783,-0.13642 -0.0835,-0.0477 -0.15374,-0.10055 -0.21084,-0.15865 -0.0571,-0.0596 -0.10043,-0.12595 -0.12971,-0.19896 -0.0293,-0.0745 -0.0439,-0.15999 -0.0439,-0.25683 0,-0.10131 0.0187,-0.19632 0.0553,-0.28422 0.0381,-0.0894 0.092,-0.16699 0.16226,-0.23254 0.0703,-0.067 0.15581,-0.11882 0.25683,-0.15606 0.1025,-0.0387 0.21842,-0.0584 0.34727,-0.0584 z m 3.25458,0 c 0.12739,0 0.24331,0.0208 0.34727,0.0625 0.10542,0.0402 0.19448,0.10041 0.26768,0.18087 0.0747,0.079 0.13204,0.17737 0.17157,0.29507 0.041,0.1177 0.0621,0.25433 0.0636,0.40928 h -0.58395 c -10e-4,-0.13558 -0.0237,-0.24016 -0.0661,-0.31316 -0.0425,-0.073 -0.11274,-0.10904 -0.21084,-0.10904 -0.0688,0 -0.12385,0.0141 -0.16485,0.0424 -0.0395,0.0283 -0.07,0.0699 -0.092,0.12506 -0.0205,0.0536 -0.0345,0.12057 -0.0419,0.20102 -0.006,0.079 -0.009,0.17063 -0.009,0.27492 v 0.17415 c 0,0.10578 0.003,0.19912 0.009,0.27957 0.006,0.079 0.0193,0.14532 0.0398,0.19896 0.022,0.0536 0.0529,0.0936 0.094,0.1204 0.041,0.0268 0.0966,0.0403 0.16691,0.0403 0.0864,0 0.15314,-0.0265 0.19999,-0.0801 0.0483,-0.0551 0.0735,-0.14788 0.0749,-0.2775 h 0.58395 c -10e-4,0.13707 -0.0243,0.26078 -0.0682,0.37103 -0.0439,0.10877 -0.10369,0.20101 -0.17983,0.27699 -0.0747,0.076 -0.16312,0.13444 -0.26562,0.17467 -0.10249,0.0402 -0.21316,0.0605 -0.33176,0.0605 -0.15959,0 -0.29895,-0.0264 -0.41754,-0.0785 -0.1186,-0.0522 -0.21705,-0.12698 -0.29611,-0.22531 -0.0776,-0.0998 -0.13617,-0.22187 -0.1757,-0.36639 -0.0381,-0.14451 -0.0574,-0.30979 -0.0574,-0.49454 v -0.17415 c 0,-0.18474 0.0193,-0.34899 0.0574,-0.49351 0.0395,-0.14601 0.0981,-0.26966 0.1757,-0.36948 0.0776,-0.0998 0.17544,-0.17524 0.29404,-0.22738 0.1186,-0.0522 0.25683,-0.0786 0.41496,-0.0786 z m 1.99006,0 c 0.13324,0 0.2527,0.0186 0.35812,0.0558 0.10689,0.0358 0.19765,0.0875 0.27233,0.15451 0.0747,0.0656 0.13151,0.14489 0.17105,0.23875 0.0395,0.0924 0.0594,0.19528 0.0594,0.30851 h -0.62167 c 0,-0.0924 -0.0182,-0.16438 -0.0548,-0.21653 -0.0366,-0.0521 -0.0987,-0.078 -0.18655,-0.078 -0.0659,0 -0.12032,0.0208 -0.16278,0.0625 -0.0425,0.0417 -0.0636,0.0997 -0.0636,0.17415 0,0.0313 0.007,0.0594 0.0196,0.0847 0.0146,0.0238 0.0375,0.048 0.0682,0.0718 0.0322,0.0238 0.0738,0.0481 0.12506,0.0734 0.0513,0.0253 0.11445,0.0546 0.18913,0.0873 0.11859,0.0447 0.22109,0.0919 0.30748,0.14108 0.0879,0.0492 0.15994,0.10376 0.21704,0.16485 0.0571,0.0596 0.0998,0.12762 0.12764,0.2036 0.0278,0.076 0.0419,0.16373 0.0419,0.26355 0,0.10727 -0.0205,0.2051 -0.0615,0.29301 -0.041,0.0879 -0.0996,0.16273 -0.1757,0.22531 -0.0747,0.0626 -0.16545,0.11203 -0.27233,0.14779 -0.10689,0.0343 -0.22634,0.0517 -0.35812,0.0517 -0.14495,0 -0.2732,-0.0225 -0.38447,-0.0672 -0.10982,-0.0462 -0.2018,-0.10637 -0.27647,-0.18087 -0.0747,-0.076 -0.13143,-0.16142 -0.1695,-0.25528 -0.0381,-0.0953 -0.0568,-0.19209 -0.0568,-0.29042 h 0.59067 c 10e-4,0.0656 0.0102,0.12009 0.0263,0.1633 0.0161,0.0417 0.0372,0.0749 0.0636,0.10025 0.0278,0.0253 0.06,0.0433 0.0966,0.0537 0.0381,0.009 0.0791,0.0134 0.12299,0.0134 0.16692,0 0.25063,-0.0765 0.25063,-0.22996 0,-0.0313 -0.008,-0.0594 -0.0243,-0.0848 -0.0146,-0.0268 -0.0386,-0.0532 -0.0723,-0.0786 -0.0322,-0.0268 -0.0749,-0.0533 -0.12764,-0.0801 -0.0527,-0.0268 -0.11541,-0.0566 -0.18862,-0.0894 -0.10835,-0.0447 -0.20437,-0.0902 -0.28783,-0.13642 -0.0835,-0.0477 -0.15373,-0.10055 -0.21084,-0.15865 -0.0571,-0.0596 -0.10043,-0.12595 -0.12971,-0.19896 -0.0293,-0.0745 -0.0439,-0.15999 -0.0439,-0.25683 0,-0.10131 0.0187,-0.19632 0.0553,-0.28422 0.0381,-0.0894 0.092,-0.16699 0.16226,-0.23254 0.0703,-0.067 0.15581,-0.11882 0.25683,-0.15606 0.10249,-0.0387 0.21842,-0.0584 0.34727,-0.0584 z m -8.23154,0.045 h 0.66766 l 0.28525,1.36529 0.31626,-1.36529 h 0.66353 l -0.78187,2.78019 c -0.0176,0.0611 -0.0415,0.12692 -0.0723,0.19844 -0.0293,0.0715 -0.0697,0.13838 -0.12093,0.19947 -0.0513,0.0626 -0.11506,0.11377 -0.1912,0.154 -0.0761,0.0417 -0.16812,0.0625 -0.27647,0.0625 -0.0278,0 -0.053,-0.002 -0.0749,-0.005 -0.0205,-0.001 -0.0404,-0.003 -0.0594,-0.006 -0.0176,-0.003 -0.0357,-0.008 -0.0548,-0.0139 -0.019,-0.004 -0.0407,-0.0101 -0.0656,-0.0176 v -0.49403 c 0.0117,0.001 0.0234,0.002 0.0351,0.002 h 0.0372 c 0.0498,0 0.0931,-0.005 0.1297,-0.0155 0.0366,-0.009 0.0671,-0.0241 0.092,-0.045 0.0263,-0.0209 0.0475,-0.0478 0.0636,-0.0806 0.0176,-0.0313 0.0322,-0.0685 0.0439,-0.11317 l 0.0486,-0.16381 z m 4.26951,0 h 0.62373 v 2.41794 h -0.62373 z" /><path
       id="path154"
       style="fill:#808ff7;fill-opacity:1;stroke-width:0.264583"
       d="m 548.97496,139.08571 c -1.95263,0 -3.5357,1.61079 -3.5357,3.59771 v 3.3042 c 0,1.98692 1.58307,3.59771 3.5357,3.59771 h 18.95388 v -10.49961 z m 19.47168,0 v 10.49961 h 1.96474 v -10.49961 z m 2.48202,0 v 10.49961 h 2.00039 v -10.49961 z m 2.50011,0 v 10.49961 h 1.99987 v -10.49961 z m 2.5001,0 v 10.49961 h 1.99988 v -10.49961 z m 2.50011,0 v 10.49961 h 1.99987 v -10.49961 z m 2.5001,0 v 10.49961 h 1.99988 v -10.49961 z m 2.50011,0 v 10.49961 h 1.99988 v -10.49961 z m 2.49959,0 v 10.49961 h 2.00039 v -10.49961 z m 2.5001,0 v 10.49961 h 1.99988 v -10.49961 z m 2.50011,0 v 10.49961 h 1.99988 v -10.49961 z m 2.5001,0 v 10.49961 h 1.99988 v -10.49961 z m 2.49959,0 v 10.49961 h 2.0004 v -10.49961 z m 2.50011,0 v 10.49961 h 2.00039 v -10.49961 z m 2.50011,0 v 10.49961 h 1.99987 v -10.49961 z m -49.03784,3.56722 h 0.62167 v 1.2268 c 0.0644,-0.0819 0.13763,-0.14547 0.21962,-0.19017 0.0835,-0.0447 0.17544,-0.0672 0.27647,-0.0672 0.0981,0 0.18827,0.0174 0.27027,0.0517 0.082,0.0343 0.15227,0.0883 0.21084,0.16278 0.0586,0.0745 0.1037,0.17175 0.13591,0.29094 0.0322,0.11919 0.0486,0.26429 0.0486,0.43563 v 1.52187 h -0.62374 v -1.52652 c 0,-0.0775 -0.006,-0.14215 -0.0176,-0.19431 -0.0117,-0.0521 -0.0293,-0.0938 -0.0527,-0.12504 -0.0234,-0.0313 -0.0521,-0.0533 -0.0858,-0.0667 -0.0337,-0.0134 -0.0729,-0.0207 -0.11834,-0.0207 -0.0615,0 -0.11359,0.0141 -0.15606,0.0424 -0.0425,0.0283 -0.0782,0.0671 -0.10749,0.11627 v 1.77457 h -0.62167 z m 6.61717,0.0537 c 0.0513,0 0.0975,0.007 0.13849,0.0238 0.0425,0.0164 0.0782,0.04 0.10749,0.0698 0.0293,0.0298 0.0521,0.0653 0.0682,0.10697 0.0161,0.0402 0.0243,0.0852 0.0243,0.13436 0,0.0492 -0.008,0.0942 -0.0243,0.13591 -0.0161,0.0402 -0.0389,0.0762 -0.0682,0.10748 -0.0293,0.0298 -0.065,0.0529 -0.10749,0.0692 -0.041,0.0164 -0.0873,0.0248 -0.13849,0.0248 -0.0512,0 -0.0981,-0.008 -0.14056,-0.0248 -0.041,-0.0164 -0.0761,-0.0394 -0.10542,-0.0692 -0.0293,-0.0313 -0.0521,-0.0673 -0.0682,-0.10748 -0.0161,-0.0417 -0.0238,-0.0867 -0.0238,-0.13591 0,-0.0492 0.008,-0.0941 0.0238,-0.13436 0.0161,-0.0417 0.0389,-0.0772 0.0682,-0.10697 0.0293,-0.0298 0.0644,-0.0534 0.10542,-0.0698 0.0425,-0.0164 0.0893,-0.0238 0.14056,-0.0238 z m -9.12968,0.12506 h 1.08934 c 0.16252,0 0.30721,0.0265 0.4346,0.0801 0.12884,0.0536 0.23832,0.12898 0.32763,0.22583 0.0893,0.0953 0.15726,0.20898 0.20412,0.34158 0.0483,0.13111 0.0724,0.27448 0.0724,0.42943 0,0.15793 -0.024,0.30078 -0.0724,0.42891 -0.0469,0.12664 -0.1148,0.23462 -0.20412,0.32401 -0.0893,0.0894 -0.19879,0.15909 -0.32763,0.20826 -0.12885,0.0477 -0.27354,0.0713 -0.4346,0.0713 h -0.4439 v 1.14412 h -0.64544 z m 0.64544,0.54725 v 1.01441 h 0.4439 c 0.0674,0 0.12532,-0.0118 0.17364,-0.0357 0.0498,-0.0238 0.0897,-0.057 0.1204,-0.0987 0.0322,-0.0432 0.0556,-0.0938 0.0703,-0.15192 0.0146,-0.0596 0.0222,-0.12377 0.0222,-0.19379 0,-0.07 -0.008,-0.13747 -0.0222,-0.20154 -0.0146,-0.0641 -0.0381,-0.12085 -0.0703,-0.17001 -0.0308,-0.0492 -0.0706,-0.088 -0.1204,-0.11783 -0.0483,-0.0298 -0.10629,-0.045 -0.17364,-0.045 z m 6.89209,0.2434 c 0.13324,0 0.2527,0.0186 0.35812,0.0558 0.10688,0.0358 0.19765,0.0875 0.27233,0.15451 0.0747,0.0656 0.13152,0.14489 0.17105,0.23875 0.0395,0.0924 0.0594,0.19528 0.0594,0.30851 h -0.62167 c 0,-0.0924 -0.0182,-0.16438 -0.0548,-0.21653 -0.0366,-0.0521 -0.0987,-0.078 -0.18655,-0.078 -0.0659,0 -0.12031,0.0208 -0.16278,0.0625 -0.0425,0.0417 -0.0636,0.0997 -0.0636,0.17415 0,0.0313 0.007,0.0594 0.0196,0.0847 0.0146,0.0238 0.0375,0.048 0.0682,0.0718 0.0322,0.0238 0.0738,0.0481 0.12506,0.0734 0.0512,0.0253 0.11446,0.0546 0.18913,0.0873 0.11859,0.0447 0.2211,0.0919 0.30748,0.14108 0.0879,0.0492 0.15994,0.10376 0.21704,0.16485 0.0571,0.0596 0.0998,0.12762 0.12764,0.2036 0.0278,0.076 0.0419,0.16373 0.0419,0.26355 0,0.10727 -0.0205,0.2051 -0.0615,0.29301 -0.041,0.0879 -0.0996,0.16273 -0.1757,0.22531 -0.0747,0.0626 -0.16545,0.11203 -0.27233,0.14779 -0.10689,0.0343 -0.22634,0.0517 -0.35812,0.0517 -0.14495,0 -0.27319,-0.0225 -0.38447,-0.0672 -0.10981,-0.0462 -0.2018,-0.10637 -0.27647,-0.18087 -0.0747,-0.076 -0.13143,-0.16142 -0.1695,-0.25528 -0.0381,-0.0953 -0.0568,-0.19209 -0.0568,-0.29042 h 0.59067 c 10e-4,0.0656 0.0102,0.12009 0.0263,0.1633 0.0161,0.0417 0.0372,0.0749 0.0636,0.10025 0.0278,0.0253 0.06,0.0433 0.0966,0.0537 0.0381,0.009 0.0791,0.0134 0.12299,0.0134 0.16692,0 0.25063,-0.0765 0.25063,-0.22996 0,-0.0313 -0.008,-0.0594 -0.0243,-0.0848 -0.0146,-0.0268 -0.0386,-0.0532 -0.0723,-0.0786 -0.0322,-0.0268 -0.0749,-0.0533 -0.12764,-0.0801 -0.0527,-0.0268 -0.1154,-0.0566 -0.18862,-0.0894 -0.10834,-0.0447 -0.20438,-0.0902 -0.28783,-0.13642 -0.0835,-0.0477 -0.15374,-0.10055 -0.21084,-0.15865 -0.0571,-0.0596 -0.10043,-0.12595 -0.12971,-0.19896 -0.0293,-0.0745 -0.0439,-0.15999 -0.0439,-0.25683 0,-0.10131 0.0187,-0.19632 0.0553,-0.28422 0.0381,-0.0894 0.092,-0.16699 0.16226,-0.23254 0.0703,-0.067 0.15581,-0.11882 0.25683,-0.15606 0.1025,-0.0387 0.21842,-0.0584 0.34727,-0.0584 z m 3.25458,0 c 0.12739,0 0.24331,0.0208 0.34727,0.0625 0.10542,0.0402 0.19448,0.10041 0.26768,0.18087 0.0747,0.079 0.13204,0.17737 0.17157,0.29507 0.041,0.1177 0.0621,0.25433 0.0636,0.40928 h -0.58395 c -10e-4,-0.13558 -0.0237,-0.24016 -0.0661,-0.31316 -0.0425,-0.073 -0.11274,-0.10904 -0.21084,-0.10904 -0.0688,0 -0.12385,0.0141 -0.16485,0.0424 -0.0395,0.0283 -0.07,0.0699 -0.092,0.12506 -0.0205,0.0536 -0.0345,0.12057 -0.0419,0.20102 -0.006,0.079 -0.009,0.17063 -0.009,0.27492 v 0.17415 c 0,0.10578 0.003,0.19912 0.009,0.27957 0.006,0.079 0.0193,0.14532 0.0398,0.19896 0.022,0.0536 0.0529,0.0936 0.094,0.1204 0.041,0.0268 0.0966,0.0403 0.16691,0.0403 0.0864,0 0.15314,-0.0265 0.19999,-0.0801 0.0483,-0.0551 0.0735,-0.14788 0.0749,-0.2775 h 0.58395 c -10e-4,0.13707 -0.0243,0.26078 -0.0682,0.37103 -0.0439,0.10877 -0.10369,0.20101 -0.17983,0.27699 -0.0747,0.076 -0.16312,0.13444 -0.26562,0.17467 -0.10249,0.0402 -0.21316,0.0605 -0.33176,0.0605 -0.15959,0 -0.29895,-0.0264 -0.41754,-0.0785 -0.1186,-0.0522 -0.21705,-0.12698 -0.29611,-0.22531 -0.0776,-0.0998 -0.13617,-0.22187 -0.1757,-0.36639 -0.0381,-0.14451 -0.0574,-0.30979 -0.0574,-0.49454 v -0.17415 c 0,-0.18474 0.0193,-0.34899 0.0574,-0.49351 0.0395,-0.14601 0.0981,-0.26966 0.1757,-0.36948 0.0776,-0.0998 0.17544,-0.17524 0.29404,-0.22738 0.1186,-0.0522 0.25683,-0.0786 0.41496,-0.0786 z m 1.99006,0 c 0.13324,0 0.2527,0.0186 0.35812,0.0558 0.10689,0.0358 0.19765,0.0875 0.27233,0.15451 0.0747,0.0656 0.13151,0.14489 0.17105,0.23875 0.0395,0.0924 0.0594,0.19528 0.0594,0.30851 h -0.62167 c 0,-0.0924 -0.0182,-0.16438 -0.0548,-0.21653 -0.0366,-0.0521 -0.0987,-0.078 -0.18655,-0.078 -0.0659,0 -0.12032,0.0208 -0.16278,0.0625 -0.0425,0.0417 -0.0636,0.0997 -0.0636,0.17415 0,0.0313 0.007,0.0594 0.0196,0.0847 0.0146,0.0238 0.0375,0.048 0.0682,0.0718 0.0322,0.0238 0.0738,0.0481 0.12506,0.0734 0.0513,0.0253 0.11445,0.0546 0.18913,0.0873 0.11859,0.0447 0.22109,0.0919 0.30748,0.14108 0.0879,0.0492 0.15994,0.10376 0.21704,0.16485 0.0571,0.0596 0.0998,0.12762 0.12764,0.2036 0.0278,0.076 0.0419,0.16373 0.0419,0.26355 0,0.10727 -0.0205,0.2051 -0.0615,0.29301 -0.041,0.0879 -0.0996,0.16273 -0.1757,0.22531 -0.0747,0.0626 -0.16545,0.11203 -0.27233,0.14779 -0.10689,0.0343 -0.22634,0.0517 -0.35812,0.0517 -0.14495,0 -0.2732,-0.0225 -0.38447,-0.0672 -0.10982,-0.0462 -0.2018,-0.10637 -0.27647,-0.18087 -0.0747,-0.076 -0.13143,-0.16142 -0.1695,-0.25528 -0.0381,-0.0953 -0.0568,-0.19209 -0.0568,-0.29042 h 0.59067 c 10e-4,0.0656 0.0102,0.12009 0.0263,0.1633 0.0161,0.0417 0.0372,0.0749 0.0636,0.10025 0.0278,0.0253 0.06,0.0433 0.0966,0.0537 0.0381,0.009 0.0791,0.0134 0.12299,0.0134 0.16692,0 0.25063,-0.0765 0.25063,-0.22996 0,-0.0313 -0.008,-0.0594 -0.0243,-0.0848 -0.0146,-0.0268 -0.0386,-0.0532 -0.0723,-0.0786 -0.0322,-0.0268 -0.0749,-0.0533 -0.12764,-0.0801 -0.0527,-0.0268 -0.11541,-0.0566 -0.18862,-0.0894 -0.10835,-0.0447 -0.20437,-0.0902 -0.28783,-0.13642 -0.0835,-0.0477 -0.15373,-0.10055 -0.21084,-0.15865 -0.0571,-0.0596 -0.10043,-0.12595 -0.12971,-0.19896 -0.0293,-0.0745 -0.0439,-0.15999 -0.0439,-0.25683 0,-0.10131 0.0187,-0.19632 0.0553,-0.28422 0.0381,-0.0894 0.092,-0.16699 0.16226,-0.23254 0.0703,-0.067 0.15581,-0.11882 0.25683,-0.15606 0.10249,-0.0387 0.21842,-0.0584 0.34727,-0.0584 z m -8.23154,0.045 h 0.66766 l 0.28525,1.36529 0.31626,-1.36529 h 0.66353 l -0.78187,2.78019 c -0.0176,0.0611 -0.0415,0.12692 -0.0723,0.19844 -0.0293,0.0715 -0.0697,0.13838 -0.12093,0.19947 -0.0513,0.0626 -0.11506,0.11377 -0.1912,0.154 -0.0761,0.0417 -0.16812,0.0625 -0.27647,0.0625 -0.0278,0 -0.053,-0.002 -0.0749,-0.005 -0.0205,-0.001 -0.0404,-0.003 -0.0594,-0.006 -0.0176,-0.003 -0.0357,-0.008 -0.0548,-0.0139 -0.019,-0.004 -0.0407,-0.0101 -0.0656,-0.0176 v -0.49403 c 0.0117,0.001 0.0234,0.002 0.0351,0.002 h 0.0372 c 0.0498,0 0.0931,-0.005 0.1297,-0.0155 0.0366,-0.009 0.0671,-0.0241 0.092,-0.045 0.0263,-0.0209 0.0475,-0.0478 0.0636,-0.0806 0.0176,-0.0313 0.0322,-0.0685 0.0439,-0.11317 l 0.0486,-0.16381 z m 4.26951,0 h 0.62373 v 2.41794 h -0.62373 z" /></g></svg>
