<?xml version="1.0" encoding="UTF-8" standalone="no"?>
<!-- Created with Inkscape (http://www.inkscape.org/) -->

<svg
   width="54.706512mm"
   height="10.499997mm"
   viewBox="0 0 54.706512 10.499997"
   version="1.1"
   id="svg1"
   xml:space="preserve"
   sodipodi:docname="topic_1.svg"
   inkscape:version="1.3.1 (91b66b0783, 2023-11-16)"
   xmlns:inkscape="http://www.inkscape.org/namespaces/inkscape"
   xmlns:sodipodi="http://sodipodi.sourceforge.net/DTD/sodipodi-0.dtd"
   xmlns="http://www.w3.org/2000/svg"
   xmlns:svg="http://www.w3.org/2000/svg"><sodipodi:namedview
     id="namedview1"
     pagecolor="#ffffff"
     bordercolor="#000000"
     borderopacity="0.25"
     inkscape:showpageshadow="2"
     inkscape:pageopacity="0.0"
     inkscape:pagecheckerboard="0"
     inkscape:deskcolor="#d1d1d1"
     inkscape:document-units="mm"
     inkscape:zoom="5.5473667"
     inkscape:cx="103.38239"
     inkscape:cy="19.919361"
     inkscape:window-width="2560"
     inkscape:window-height="1346"
     inkscape:window-x="-11"
     inkscape:window-y="-11"
     inkscape:window-maximized="1"
     inkscape:current-layer="svg1" /><defs
     id="defs1" /><rect
     style="fill:#f9f9f9;fill-opacity:1;stroke-width:0.499999;stroke-linejoin:round;stroke-miterlimit:3.4;stroke-dashoffset:19.8539"
     id="rect230"
     width="45.000004"
     height="7.5"
     x="2.2133701"
     y="1.822787" /><path
     id="path748"
     style="fill:#2c2c6f;fill-opacity:1;stroke-width:0.264583"
     d="M 3.62611,1e-6 C 1.62348,1e-6 -2e-5,1.610731 -2e-5,3.597581 v 3.304846 c 0,1.98685 1.6235,3.59757 3.62613,3.59757 H 49.74165 V 1e-6 Z m 27.52597,3.53043 c 0.0513,0 0.0975,0.008 0.13849,0.0236 0.0425,0.016 0.0782,0.0386 0.10749,0.0677 0.0293,0.0291 0.0521,0.0639 0.0682,0.10459 0.0161,0.0392 0.0243,0.0828 0.0243,0.13074 0,0.0479 -0.008,0.0927 -0.0243,0.1333 -0.0161,0.0392 -0.0389,0.0741 -0.0682,0.10459 -0.0293,0.0291 -0.065,0.0512 -0.10749,0.0672 -0.041,0.016 -0.0873,0.0241 -0.13849,0.0241 -0.0512,0 -0.0981,-0.008 -0.14056,-0.0241 -0.041,-0.016 -0.0761,-0.0381 -0.10542,-0.0672 -0.0293,-0.0305 -0.0516,-0.0654 -0.0677,-0.10459 -0.0161,-0.0407 -0.0243,-0.0853 -0.0243,-0.1333 0,-0.0479 0.008,-0.0916 0.0243,-0.13074 0.0161,-0.0407 0.0384,-0.0755 0.0677,-0.10459 0.0293,-0.0291 0.0644,-0.0517 0.10542,-0.0677 0.0425,-0.016 0.0893,-0.0236 0.14056,-0.0236 z m 9.14311,0 c 0.0513,0 0.0975,0.008 0.1385,0.0236 0.0425,0.016 0.0782,0.0386 0.10748,0.0677 0.0293,0.0291 0.0521,0.0639 0.0682,0.10459 0.0161,0.0392 0.0243,0.0828 0.0243,0.13074 0,0.0479 -0.008,0.0927 -0.0243,0.1333 -0.0161,0.0392 -0.0389,0.0741 -0.0682,0.10459 -0.0293,0.0291 -0.065,0.0512 -0.10748,0.0672 -0.041,0.016 -0.0872,0.0241 -0.1385,0.0241 -0.0513,0 -0.0981,-0.008 -0.14056,-0.0241 -0.041,-0.016 -0.0761,-0.0381 -0.10542,-0.0672 -0.0293,-0.0305 -0.0516,-0.0654 -0.0677,-0.10459 -0.0161,-0.0407 -0.0243,-0.0853 -0.0243,-0.1333 0,-0.0479 0.008,-0.0916 0.0243,-0.13074 0.0161,-0.0407 0.0384,-0.0755 0.0677,-0.10459 0.0293,-0.0291 0.0644,-0.0517 0.10542,-0.0677 0.0425,-0.016 0.0893,-0.0236 0.14056,-0.0236 z M 4.81932,3.652451 H 5.40998 L 6.41612,6.824997 H 5.72624 L 5.55519,6.175417 H 4.67411 L 4.50306,6.824997 H 3.8199 Z m 19.34249,0 h 1.83141 v 0.53371 h -1.18597 v 0.749556 h 1.00614 v 0.51629 h -1.00614 v 0.84133 h 1.19062 v 0.53166 H 24.16181 Z M 9.84434,4.423017 c 0.0278,0 0.0577,0.003 0.0899,0.009 0.0337,0.005 0.0606,0.011 0.0811,0.0194 l -0.006,0.61011 c -0.0278,-0.003 -0.0624,-0.006 -0.10336,-0.0108 -0.0395,-0.005 -0.0741,-0.007 -0.10335,-0.007 -0.0893,0 -0.16192,0.0187 -0.21756,0.0564 -0.0556,0.0378 -0.0978,0.093 -0.12712,0.1656 v 1.55808 H 8.83422 v -2.35789 h 0.58652 l 0.0176,0.25533 c 0.0469,-0.0944 0.1037,-0.16817 0.17105,-0.22046 0.0688,-0.0523 0.14728,-0.0785 0.23513,-0.0785 z m 29.62971,0 c 0.0278,0 0.0577,0.003 0.0899,0.009 0.0337,0.005 0.0606,0.011 0.0811,0.0194 l -0.006,0.61011 c -0.0278,-0.003 -0.0624,-0.006 -0.10335,-0.0108 -0.0395,-0.005 -0.0741,-0.007 -0.10335,-0.007 -0.0893,0 -0.16192,0.0187 -0.21756,0.0564 -0.0556,0.0378 -0.0978,0.093 -0.12712,0.1656 v 1.55808 h -0.62374 v -2.35789 h 0.58653 l 0.0176,0.25533 c 0.0468,-0.0944 0.1037,-0.16817 0.17105,-0.22046 0.0688,-0.0523 0.14728,-0.0785 0.23513,-0.0785 z m -31.89417,5.2e-4 c 0.30161,0 0.5277,0.0964 0.67851,0.28967 0.15081,0.19321 0.22634,0.47963 0.22634,0.85876 v 0.28096 H 7.24811 c 0.004,0.0945 0.0172,0.17347 0.0377,0.23738 0.022,0.0639 0.0512,0.11558 0.0879,0.15483 0.0366,0.0392 0.0805,0.0677 0.13178,0.0851 0.0527,0.0175 0.11187,0.0261 0.17777,0.0261 0.10981,0 0.20705,-0.0181 0.29197,-0.0544 0.0864,-0.0378 0.16252,-0.0901 0.22841,-0.15688 l 0.24391,0.37221 c -0.0308,0.0422 -0.0711,0.0845 -0.12092,0.12664 -0.0498,0.0407 -0.10835,0.0779 -0.1757,0.11124 -0.0673,0.0334 -0.14349,0.0601 -0.22841,0.0805 -0.0849,0.0217 -0.17803,0.0328 -0.27906,0.0328 -0.16252,0 -0.30661,-0.0249 -0.43253,-0.0743 -0.12592,-0.0494 -0.23194,-0.12033 -0.31832,-0.21327 -0.0864,-0.093 -0.15254,-0.20629 -0.19792,-0.33993 -0.0439,-0.13509 -0.0656,-0.28848 -0.0656,-0.45989 v -0.19379 c 0,-0.19175 0.0211,-0.35965 0.0636,-0.50347 0.0439,-0.14527 0.10602,-0.26669 0.18655,-0.36401 0.082,-0.0988 0.18155,-0.17261 0.29869,-0.222 0.11859,-0.0494 0.25269,-0.0743 0.40204,-0.0743 z m 3.55585,0 c 0.14788,0 0.28086,0.0255 0.39946,0.0764 0.1186,0.0494 0.21988,0.12264 0.30334,0.21995 0.0835,0.0973 0.14788,0.21704 0.19327,0.35939 0.0454,0.14237 0.0682,0.30617 0.0682,0.49066 v 0.15432 c 0,0.18594 -0.0228,0.35034 -0.0682,0.4927 -0.0439,0.1409 -0.10775,0.26002 -0.1912,0.35735 -0.0835,0.0973 -0.18423,0.17056 -0.30283,0.21994 -0.11859,0.0494 -0.25149,0.0743 -0.3979,0.0743 -0.14788,0 -0.28087,-0.0249 -0.39946,-0.0743 -0.1186,-0.0494 -0.21989,-0.12263 -0.30334,-0.21994 -0.0835,-0.0973 -0.14788,-0.21645 -0.19327,-0.35735 -0.0454,-0.14236 -0.0677,-0.30676 -0.0677,-0.4927 v -0.15432 c 0,-0.18449 0.0223,-0.34829 0.0677,-0.49066 0.0454,-0.14235 0.10981,-0.26207 0.19327,-0.35939 0.0835,-0.0973 0.18414,-0.17056 0.30127,-0.21995 0.1186,-0.0509 0.25098,-0.0764 0.39739,-0.0764 z m 2.13889,0 c 0.13324,0 0.2527,0.0181 0.35812,0.0544 0.10688,0.0348 0.19766,0.0848 0.27233,0.15021 0.0747,0.0639 0.13203,0.14174 0.17157,0.23328 0.0395,0.0901 0.0589,0.19056 0.0589,0.30096 h -0.62115 c 0,-0.0901 -0.0187,-0.16092 -0.0553,-0.21175 -0.0366,-0.0509 -0.0987,-0.0759 -0.18656,-0.0759 -0.0659,0 -0.1198,0.0203 -0.16226,0.061 -0.0425,0.0407 -0.0641,0.097 -0.0641,0.16971 0,0.0305 0.007,0.0583 0.0202,0.083 0.0146,0.0232 0.0369,0.0464 0.0677,0.0697 0.0322,0.0232 0.0743,0.047 0.12557,0.0718 0.0513,0.0247 0.11395,0.0531 0.18862,0.0851 0.1186,0.0436 0.22109,0.0895 0.30748,0.13741 0.0879,0.0479 0.16045,0.10144 0.21756,0.16098 0.0571,0.0581 0.0993,0.12436 0.12712,0.19842 0.0278,0.0741 0.0419,0.15953 0.0419,0.25686 0,0.10459 -0.0205,0.19986 -0.0615,0.28556 -0.041,0.0857 -0.0996,0.15894 -0.1757,0.21996 -0.0747,0.061 -0.16545,0.10917 -0.27234,0.14406 -0.10688,0.0334 -0.22634,0.0502 -0.35811,0.0502 -0.14496,0 -0.27268,-0.022 -0.38396,-0.0656 -0.10981,-0.045 -0.20231,-0.10373 -0.27698,-0.17636 -0.0747,-0.0741 -0.13092,-0.15714 -0.16899,-0.24865 -0.0381,-0.093 -0.0574,-0.18714 -0.0574,-0.28302 h 0.59118 c 0.001,0.0639 0.0103,0.1168 0.0264,0.15894 0.0161,0.0407 0.0372,0.0732 0.0636,0.0979 0.0278,0.0247 0.06,0.0421 0.0966,0.0523 0.0381,0.009 0.0791,0.0133 0.12299,0.0133 0.16692,0 0.25012,-0.0749 0.25012,-0.22456 0,-0.0305 -0.008,-0.0578 -0.0238,-0.0825 -0.0146,-0.0261 -0.0392,-0.0517 -0.0729,-0.0764 -0.0322,-0.0261 -0.0744,-0.0523 -0.12713,-0.0785 -0.0527,-0.0261 -0.11592,-0.0552 -0.18913,-0.0871 -0.10835,-0.0436 -0.20387,-0.0883 -0.28732,-0.1333 -0.0835,-0.0465 -0.15374,-0.0976 -0.21084,-0.15432 -0.0571,-0.0581 -0.10043,-0.12317 -0.12971,-0.19431 -0.0293,-0.0726 -0.0439,-0.15578 -0.0439,-0.2502 0,-0.0988 0.0182,-0.19114 0.0548,-0.27685 0.0381,-0.0872 0.0925,-0.16269 0.16278,-0.22661 0.0703,-0.0654 0.1558,-0.11646 0.25683,-0.15279 0.10249,-0.0378 0.2179,-0.0563 0.34675,-0.0563 z m 2.33681,0 c 0.25623,0 0.44829,0.0936 0.57567,0.28096 0.12885,0.18739 0.19327,0.47441 0.19327,0.86081 v 0.15484 c 0,0.37042 -0.0644,0.65453 -0.19327,0.8521 -0.12738,0.19756 -0.31772,0.29633 -0.57102,0.29633 -0.10103,0 -0.1906,-0.0203 -0.2682,-0.061 -0.0761,-0.0407 -0.14177,-0.0982 -0.19741,-0.17226 v 1.09614 h -0.62166 v -3.26433 h 0.57567 l 0.0217,0.21584 c 0.0571,-0.0828 0.12506,-0.14672 0.20412,-0.19175 0.0805,-0.045 0.17424,-0.0677 0.28112,-0.0677 z m 1.99212,0 c 0.1186,0 0.22755,0.0152 0.32712,0.0456 0.0996,0.0291 0.1862,0.0755 0.25941,0.13945 0.0732,0.0624 0.13005,0.14318 0.17105,0.242 0.041,0.0973 0.0615,0.21524 0.0615,0.35325 v 1.0459 c 0,0.0683 0.002,0.12927 0.005,0.18302 0.004,0.0523 0.0103,0.1 0.0176,0.14355 0.007,0.0422 0.0161,0.0805 0.0264,0.11537 0.0117,0.0334 0.0246,0.0654 0.0393,0.0958 v 0.0374 h -0.6258 c -0.0117,-0.0247 -0.0217,-0.0525 -0.0305,-0.083 -0.007,-0.0319 -0.0149,-0.0651 -0.0222,-0.1 -0.0469,0.0639 -0.10775,0.11739 -0.18242,0.16099 -0.0732,0.0435 -0.16287,0.0656 -0.26975,0.0656 -0.0966,0 -0.18741,-0.0169 -0.27233,-0.0502 -0.0835,-0.0334 -0.15667,-0.0805 -0.21963,-0.1415 -0.0615,-0.061 -0.11067,-0.13479 -0.14728,-0.22046 -0.0351,-0.0872 -0.0527,-0.18423 -0.0527,-0.29173 0,-0.11911 0.0188,-0.22661 0.0568,-0.32248 0.0395,-0.0973 0.0981,-0.17928 0.1757,-0.2461 0.0791,-0.0683 0.17743,-0.12057 0.29456,-0.15688 0.1186,-0.0363 0.25743,-0.0549 0.41703,-0.0549 h 0.1695 v -0.18918 c 0,-0.10605 -0.0187,-0.18099 -0.0553,-0.22456 -0.0366,-0.0436 -0.0899,-0.0656 -0.1602,-0.0656 -0.0805,0 -0.1397,0.0243 -0.17777,0.0723 -0.0366,0.0465 -0.0548,0.1122 -0.0548,0.1979 h -0.62167 c 0,-0.10314 0.0199,-0.1996 0.0594,-0.28967 0.041,-0.0916 0.0996,-0.17116 0.1757,-0.23943 0.0761,-0.0683 0.16752,-0.12228 0.27441,-0.1615 0.10688,-0.0407 0.22754,-0.061 0.36225,-0.061 z m 2.13682,0 c 0.12739,0 0.24331,0.0203 0.34727,0.061 0.10542,0.0392 0.19448,0.0979 0.26768,0.17636 0.0747,0.077 0.13204,0.17287 0.17157,0.28763 0.041,0.11475 0.0621,0.24781 0.0636,0.39888 h -0.58394 c -0.001,-0.13219 -0.0237,-0.23388 -0.0661,-0.30505 -0.0425,-0.0712 -0.11274,-0.10665 -0.21084,-0.10665 -0.0688,0 -0.12385,0.014 -0.16485,0.0416 -0.0395,0.0276 -0.07,0.0683 -0.092,0.12203 -0.0205,0.0523 -0.0345,0.11742 -0.0419,0.19584 -0.006,0.077 -0.009,0.16645 -0.009,0.26814 v 0.16971 c 0,0.10313 0.003,0.1943 0.009,0.27275 0.006,0.077 0.0193,0.1415 0.0398,0.19379 0.022,0.0523 0.053,0.0913 0.094,0.11741 0.041,0.0261 0.0966,0.0395 0.16691,0.0395 0.0864,0 0.15314,-0.0261 0.19999,-0.0785 0.0483,-0.0538 0.0735,-0.14384 0.0749,-0.27019 h 0.58394 c -0.002,0.13364 -0.0243,0.25395 -0.0682,0.36145 -0.0439,0.10605 -0.10369,0.1961 -0.17983,0.27019 -0.0747,0.0741 -0.16312,0.13099 -0.26562,0.17021 -0.10249,0.0392 -0.21316,0.0589 -0.33176,0.0589 -0.15959,0 -0.29895,-0.0255 -0.41754,-0.0764 -0.1186,-0.0509 -0.21705,-0.12409 -0.29611,-0.21994 -0.0776,-0.0973 -0.13617,-0.21645 -0.1757,-0.35735 -0.0381,-0.14091 -0.0574,-0.30181 -0.0574,-0.48193 v -0.16971 c 0,-0.18013 0.0193,-0.34051 0.0574,-0.48142 0.0395,-0.14236 0.0981,-0.26258 0.1757,-0.35991 0.0776,-0.0973 0.17544,-0.17115 0.29404,-0.222 0.1186,-0.0509 0.25683,-0.0764 0.41496,-0.0764 z m 2.09755,0 c 0.30162,0 0.5277,0.0964 0.67851,0.28967 0.15081,0.19321 0.22635,0.47963 0.22635,0.85876 v 0.28096 h -1.23662 c 0.004,0.0945 0.0172,0.17347 0.0377,0.23738 0.022,0.0639 0.0512,0.11558 0.0878,0.15483 0.0366,0.0392 0.0805,0.0677 0.13177,0.0851 0.0527,0.0175 0.11188,0.0261 0.17777,0.0261 0.10981,0 0.20705,-0.0181 0.29197,-0.0544 0.0864,-0.0378 0.16253,-0.0901 0.22841,-0.15688 l 0.24392,0.37221 c -0.0308,0.0422 -0.0711,0.0845 -0.12093,0.12664 -0.0498,0.0407 -0.10834,0.0779 -0.1757,0.11124 -0.0674,0.0334 -0.14349,0.0601 -0.22841,0.0805 -0.0849,0.0217 -0.17802,0.0328 -0.27905,0.0328 -0.16252,0 -0.30661,-0.0249 -0.43253,-0.0743 -0.12592,-0.0494 -0.23194,-0.12033 -0.31833,-0.21327 -0.0864,-0.093 -0.15253,-0.20629 -0.19792,-0.33993 -0.0439,-0.13509 -0.0656,-0.28848 -0.0656,-0.45989 v -0.19379 c 0,-0.19175 0.0211,-0.35965 0.0636,-0.50347 0.0439,-0.14527 0.10602,-0.26669 0.18655,-0.36401 0.082,-0.0988 0.18156,-0.17261 0.29869,-0.222 0.1186,-0.0494 0.2527,-0.0743 0.40204,-0.0743 z m 5.6379,0 c 0.0922,0 0.17716,0.0163 0.25476,0.0482 0.0776,0.0305 0.14435,0.0811 0.19999,0.15227 0.0556,0.0711 0.099,0.16413 0.12971,0.2789 0.0308,0.11475 0.046,0.25592 0.046,0.42298 v 1.49911 h -0.62373 v -1.50168 c 0,-0.0755 -0.006,-0.13775 -0.0176,-0.18714 -0.0117,-0.0494 -0.0293,-0.0889 -0.0527,-0.11791 -0.022,-0.0291 -0.05,-0.0494 -0.0837,-0.061 -0.0337,-0.0116 -0.073,-0.0175 -0.11834,-0.0175 -0.0586,0 -0.11007,0.0157 -0.154,0.0461 -0.0439,0.0305 -0.0803,0.0723 -0.10955,0.12612 v 1.71291 h -0.62374 v -2.35788 h 0.58395 l 0.0176,0.23327 c 0.0688,-0.0901 0.1496,-0.15807 0.24184,-0.20456 0.0922,-0.0479 0.19534,-0.0723 0.30954,-0.0723 z m 1.80299,0 c 0.11567,0 0.21403,0.0226 0.29456,0.0677 0.0805,0.0436 0.14848,0.10521 0.20412,0.18509 l 0.0243,-0.20918 h 0.55965 v 2.35788 c 0,0.16124 -0.024,0.3001 -0.0724,0.41632 -0.0469,0.11766 -0.1136,0.21413 -0.19998,0.28967 -0.0864,0.0755 -0.19009,0.13133 -0.31161,0.16765 -0.12006,0.0363 -0.25417,0.0544 -0.40205,0.0544 -0.0556,0 -0.11713,-0.006 -0.18448,-0.0175 -0.0674,-0.0116 -0.1347,-0.0291 -0.20206,-0.0523 -0.0674,-0.0217 -0.13177,-0.0497 -0.19327,-0.0846 -0.06,-0.0334 -0.11041,-0.0735 -0.15141,-0.11997 l 0.20878,-0.42708 c 0.0278,0.0291 0.0606,0.0558 0.0987,0.0805 0.0395,0.0261 0.0805,0.0481 0.12299,0.0656 0.0439,0.0188 0.0891,0.0334 0.1359,0.0436 0.0469,0.0116 0.0925,0.0175 0.13643,0.0175 0.063,0 0.1186,-0.008 0.16692,-0.022 0.0498,-0.0131 0.0914,-0.0363 0.12505,-0.0697 0.0337,-0.0334 0.0588,-0.0776 0.0749,-0.1328 0.0176,-0.0553 0.0263,-0.12435 0.0263,-0.20713 v -0.18969 c -0.0571,0.0741 -0.12385,0.13159 -0.19998,0.17226 -0.0747,0.0392 -0.16253,0.0589 -0.26355,0.0589 -0.12592,0 -0.23892,-0.0249 -0.33849,-0.0743 -0.0981,-0.0494 -0.18129,-0.12205 -0.25011,-0.21791 -0.0673,-0.0958 -0.11946,-0.21387 -0.15606,-0.35478 -0.0366,-0.14235 -0.0548,-0.30676 -0.0548,-0.4927 v -0.15483 c 0,-0.3864 0.0703,-0.67462 0.21084,-0.86492 0.14056,-0.1903 0.33736,-0.28557 0.59066,-0.28557 z m 3.80649,0 c 0.0922,0 0.17716,0.0163 0.25476,0.0482 0.0776,0.0305 0.14383,0.0811 0.19947,0.15227 0.0556,0.0711 0.099,0.16413 0.12971,0.2789 0.0307,0.11475 0.046,0.25592 0.046,0.42298 v 1.49911 h -0.62373 v -1.50168 c 0,-0.0755 -0.006,-0.13775 -0.0176,-0.18714 -0.0117,-0.0494 -0.0293,-0.0889 -0.0527,-0.11791 -0.022,-0.0291 -0.0495,-0.0494 -0.0832,-0.061 -0.0337,-0.0116 -0.0735,-0.0175 -0.11886,-0.0175 -0.0586,0 -0.10955,0.0157 -0.15348,0.0461 -0.0439,0.0305 -0.0808,0.0723 -0.11007,0.12612 v 1.71291 h -0.62373 v -2.35788 h 0.58446 l 0.0176,0.23327 c 0.0688,-0.0901 0.14908,-0.15807 0.24132,-0.20456 0.0922,-0.0479 0.19586,-0.0723 0.31006,-0.0723 z m 1.97197,0 c 0.30162,0 0.5277,0.0964 0.67851,0.28967 0.15081,0.19321 0.22634,0.47963 0.22634,0.85876 v 0.28096 h -1.23661 c 0.004,0.0945 0.0172,0.17347 0.0377,0.23738 0.022,0.0639 0.0512,0.11558 0.0879,0.15483 0.0366,0.0392 0.0805,0.0677 0.13177,0.0851 0.0527,0.0175 0.11188,0.0261 0.17777,0.0261 0.10981,0 0.20705,-0.0181 0.29197,-0.0544 0.0864,-0.0378 0.16252,-0.0901 0.22841,-0.15688 l 0.24391,0.37221 c -0.0307,0.0422 -0.0711,0.0845 -0.12092,0.12664 -0.0498,0.0407 -0.10835,0.0779 -0.1757,0.11124 -0.0674,0.0334 -0.14349,0.0601 -0.22841,0.0805 -0.0849,0.0217 -0.17803,0.0328 -0.27905,0.0328 -0.16252,0 -0.30662,-0.0249 -0.43253,-0.0743 -0.12592,-0.0494 -0.23195,-0.12033 -0.31833,-0.21327 -0.0864,-0.093 -0.15253,-0.20629 -0.19792,-0.33993 -0.0439,-0.13509 -0.0656,-0.28848 -0.0656,-0.45989 v -0.19379 c 0,-0.19175 0.0211,-0.35965 0.0636,-0.50347 0.0439,-0.14527 0.10602,-0.26669 0.18655,-0.36401 0.082,-0.0988 0.18156,-0.17261 0.29869,-0.222 0.1186,-0.0494 0.2527,-0.0743 0.40204,-0.0743 z m 2.15232,0 c 0.30162,0 0.5277,0.0964 0.67851,0.28967 0.15081,0.19321 0.22635,0.47963 0.22635,0.85876 v 0.28096 h -1.23662 c 0.004,0.0945 0.0172,0.17347 0.0377,0.23738 0.022,0.0639 0.0512,0.11558 0.0879,0.15483 0.0366,0.0392 0.0805,0.0677 0.13177,0.0851 0.0527,0.0175 0.11188,0.0261 0.17777,0.0261 0.10981,0 0.20705,-0.0181 0.29197,-0.0544 0.0864,-0.0378 0.16253,-0.0901 0.22841,-0.15688 l 0.24392,0.37221 c -0.0308,0.0422 -0.0711,0.0845 -0.12093,0.12664 -0.0498,0.0407 -0.10834,0.0779 -0.1757,0.11124 -0.0674,0.0334 -0.14349,0.0601 -0.22841,0.0805 -0.0849,0.0217 -0.17802,0.0328 -0.27905,0.0328 -0.16252,0 -0.30661,-0.0249 -0.43253,-0.0743 -0.12592,-0.0494 -0.23194,-0.12033 -0.31833,-0.21327 -0.0864,-0.093 -0.15253,-0.20629 -0.19792,-0.33993 -0.0439,-0.13509 -0.0656,-0.28848 -0.0656,-0.45989 v -0.19379 c 0,-0.19175 0.0211,-0.35965 0.0636,-0.50347 0.0439,-0.14527 0.10603,-0.26669 0.18655,-0.36401 0.082,-0.0988 0.18156,-0.17261 0.29869,-0.222 0.1186,-0.0494 0.2527,-0.0743 0.40205,-0.0743 z m 5.0183,0 c 0.0922,0 0.17716,0.0163 0.25477,0.0482 0.0776,0.0305 0.14435,0.0811 0.19998,0.15227 0.0556,0.0711 0.099,0.16413 0.12971,0.2789 0.0308,0.11475 0.046,0.25592 0.046,0.42298 v 1.49911 h -0.62373 v -1.50168 c 0,-0.0755 -0.006,-0.13775 -0.0176,-0.18714 -0.0117,-0.0494 -0.0293,-0.0889 -0.0527,-0.11791 -0.022,-0.0291 -0.0495,-0.0494 -0.0832,-0.061 -0.0337,-0.0116 -0.0735,-0.0175 -0.11886,-0.0175 -0.0586,0 -0.10955,0.0157 -0.15348,0.0461 -0.0439,0.0305 -0.0808,0.0723 -0.11007,0.12612 v 1.71291 h -0.62373 v -2.35788 h 0.58446 l 0.0176,0.23327 c 0.0688,-0.0901 0.14908,-0.15807 0.24133,-0.20456 0.0922,-0.0479 0.19533,-0.0723 0.30954,-0.0723 z m 1.80351,0 c 0.11567,0 0.21351,0.0226 0.29404,0.0677 0.0805,0.0436 0.14848,0.10521 0.20412,0.18509 l 0.0243,-0.20918 h 0.56017 v 2.35788 c 0,0.16124 -0.024,0.3001 -0.0724,0.41632 -0.0469,0.11766 -0.1136,0.21413 -0.19999,0.28967 -0.0864,0.0755 -0.1906,0.13133 -0.31212,0.16765 -0.12006,0.0363 -0.25365,0.0544 -0.40153,0.0544 -0.0556,0 -0.11713,-0.006 -0.18448,-0.0175 -0.0674,-0.0116 -0.1347,-0.0291 -0.20206,-0.0523 -0.0674,-0.0217 -0.13177,-0.0497 -0.19327,-0.0846 -0.06,-0.0334 -0.11093,-0.0735 -0.15193,-0.11997 l 0.20878,-0.42708 c 0.0278,0.0291 0.0606,0.0558 0.0987,0.0805 0.0395,0.0261 0.0805,0.0481 0.12299,0.0656 0.0439,0.0188 0.0896,0.0334 0.13642,0.0436 0.0469,0.0116 0.092,0.0175 0.13591,0.0175 0.063,0 0.1186,-0.008 0.16692,-0.022 0.0498,-0.0131 0.0919,-0.0363 0.12557,-0.0697 0.0337,-0.0334 0.0583,-0.0776 0.0744,-0.1328 0.0176,-0.0553 0.0264,-0.12435 0.0264,-0.20713 v -0.18969 c -0.0571,0.0741 -0.12385,0.13159 -0.19999,0.17226 -0.0747,0.0392 -0.16252,0.0589 -0.26355,0.0589 -0.12592,0 -0.2384,-0.0249 -0.33796,-0.0743 -0.0981,-0.0494 -0.18182,-0.12205 -0.25063,-0.21791 -0.0674,-0.0958 -0.11894,-0.21387 -0.15555,-0.35478 -0.0366,-0.14235 -0.0553,-0.30676 -0.0553,-0.4927 v -0.15483 c 0,-0.3864 0.0703,-0.67462 0.21084,-0.86492 0.14056,-0.1903 0.33788,-0.28557 0.59118,-0.28557 z m -13.18886,0.0435 h 0.62373 v 2.35788 h -0.62373 z m 9.14311,0 h 0.62373 v 2.35788 h -0.62373 z m -34.87229,0.0436 -0.29869,1.131 h 0.59738 z m 2.46238,0.42502 c -0.10835,0 -0.18741,0.0384 -0.23719,0.11536 -0.0483,0.077 -0.077,0.20072 -0.0858,0.37068 h 0.62167 v -0.057 c -0.003,-0.1409 -0.0264,-0.24779 -0.0703,-0.32044 -0.0439,-0.0726 -0.12007,-0.10869 -0.22841,-0.10869 z m 3.55999,0 c -0.10542,0 -0.18801,0.0523 -0.24805,0.15689 -0.0586,0.10314 -0.0879,0.26233 -0.0879,0.47732 v 0.15432 c 0,0.21936 0.0299,0.38025 0.0899,0.48193 0.06,0.10024 0.14324,0.15022 0.25012,0.15022 0.11274,0 0.19766,-0.05 0.25476,-0.15022 0.0571,-0.10168 0.0858,-0.26257 0.0858,-0.48193 v -0.15432 c 0,-0.21499 -0.0299,-0.37418 -0.0899,-0.47732 -0.06,-0.10459 -0.14495,-0.15689 -0.25476,-0.15689 z m 10.69806,0 c -0.10835,0 -0.18742,0.0384 -0.2372,0.11536 -0.0483,0.077 -0.077,0.20072 -0.0858,0.37068 h 0.62167 v -0.057 c -0.003,-0.1409 -0.0264,-0.24729 -0.0703,-0.31992 -0.0439,-0.0726 -0.12006,-0.10921 -0.22841,-0.10921 z m 13.21934,0 c -0.10834,0 -0.18741,0.0384 -0.23719,0.11536 -0.0483,0.077 -0.077,0.20072 -0.0858,0.37068 h 0.62167 v -0.057 c -0.003,-0.1409 -0.0264,-0.24729 -0.0703,-0.31992 -0.0439,-0.0726 -0.12007,-0.10921 -0.22841,-0.10921 z m 2.15233,0 c -0.10835,0 -0.18741,0.0384 -0.2372,0.11536 -0.0483,0.077 -0.077,0.20072 -0.0858,0.37068 h 0.62167 v -0.057 c -0.003,-0.1409 -0.0264,-0.24729 -0.0703,-0.31992 -0.0439,-0.0726 -0.12006,-0.10921 -0.22841,-0.10921 z m -21.77593,0.004 c -0.0659,0 -0.12265,0.014 -0.1695,0.0416 -0.0454,0.0276 -0.0817,0.0671 -0.10956,0.11793 v 1.10434 c 0.0264,0.0479 0.0621,0.0857 0.10749,0.1133 0.0469,0.0261 0.10542,0.0395 0.1757,0.0395 0.12299,0 0.20791,-0.0517 0.25477,-0.15483 0.0483,-0.10313 0.0724,-0.26353 0.0724,-0.48142 v -0.15484 c 0,-0.11184 -0.006,-0.20713 -0.0176,-0.28557 -0.0117,-0.0799 -0.0305,-0.1444 -0.0568,-0.1938 -0.0263,-0.0509 -0.0609,-0.088 -0.10336,-0.11125 -0.041,-0.0232 -0.092,-0.0348 -0.15348,-0.0348 z m 14.0317,5.2e-4 c -0.12299,0 -0.21437,0.05 -0.2744,0.15022 -0.0586,0.10023 -0.0879,0.26122 -0.0879,0.48347 v 0.15483 c 0,0.21789 0.0282,0.37709 0.0853,0.47732 0.0571,0.0988 0.14787,0.14818 0.27233,0.14818 0.0673,0 0.12411,-0.0116 0.1695,-0.0348 0.0468,-0.0247 0.0849,-0.0589 0.1142,-0.10254 v -1.12639 c -0.0307,-0.0479 -0.0699,-0.0851 -0.11678,-0.11126 -0.0454,-0.0261 -0.0993,-0.039 -0.16227,-0.039 z m 14.75207,0 c -0.12299,0 -0.21437,0.05 -0.2744,0.15022 -0.0586,0.10023 -0.0879,0.26122 -0.0879,0.48347 v 0.15483 c 0,0.21789 0.0287,0.37709 0.0858,0.47732 0.0571,0.0988 0.14788,0.14818 0.27233,0.14818 0.0674,0 0.12359,-0.0116 0.16898,-0.0348 0.0468,-0.0247 0.0849,-0.0589 0.11421,-0.10254 v -1.12639 c -0.0308,-0.0479 -0.0694,-0.0851 -0.11627,-0.11126 -0.0454,-0.0261 -0.0998,-0.039 -0.16278,-0.039 z m -26.5591,0.81467 c -0.0586,0 -0.10895,0.009 -0.15142,0.0282 -0.0425,0.0188 -0.0787,0.0449 -0.108,0.0785 -0.0278,0.0334 -0.0489,0.0729 -0.0636,0.11792 -0.0132,0.045 -0.0196,0.0928 -0.0196,0.14355 0,0.0857 0.0176,0.15134 0.0527,0.19637 0.0366,0.0436 0.0876,0.0651 0.15348,0.0651 0.0688,0 0.12738,-0.0139 0.1757,-0.0416 0.0483,-0.0276 0.0846,-0.0601 0.108,-0.0979 v -0.49013 z" /><path
     id="rect771"
     style="fill:#2c2c6f;fill-opacity:1;stroke-width:0.499999;stroke-linejoin:round;stroke-miterlimit:3.4;stroke-dashoffset:19.8539;stroke-opacity:0.509044"
     d="m 50.25923,1.51e-4 v 10.499616 h 1.96474 V 1.51e-4 Z m 2.48253,0 V 10.499767 H 54.7065 V 1.51e-4 Z" /><path
     id="path171"
     style="fill:#808ff7;fill-opacity:1;stroke-width:0.264583"
     d="M 3.62611,1e-6 C 1.62348,1e-6 -2e-5,1.610731 -2e-5,3.597581 v 3.304846 c 0,1.98685 1.6235,3.59757 3.62613,3.59757 H 49.74165 V 1e-6 Z m 27.52597,3.53043 c 0.0513,0 0.0975,0.008 0.13849,0.0236 0.0425,0.016 0.0782,0.0386 0.10749,0.0677 0.0293,0.0291 0.0521,0.0639 0.0682,0.10459 0.0161,0.0392 0.0243,0.0828 0.0243,0.13074 0,0.0479 -0.008,0.0927 -0.0243,0.1333 -0.0161,0.0392 -0.0389,0.0741 -0.0682,0.10459 -0.0293,0.0291 -0.065,0.0512 -0.10749,0.0672 -0.041,0.016 -0.0873,0.0241 -0.13849,0.0241 -0.0512,0 -0.0981,-0.008 -0.14056,-0.0241 -0.041,-0.016 -0.0761,-0.0381 -0.10542,-0.0672 -0.0293,-0.0305 -0.0516,-0.0654 -0.0677,-0.10459 -0.0161,-0.0407 -0.0243,-0.0853 -0.0243,-0.1333 0,-0.0479 0.008,-0.0916 0.0243,-0.13074 0.0161,-0.0407 0.0384,-0.0755 0.0677,-0.10459 0.0293,-0.0291 0.0644,-0.0517 0.10542,-0.0677 0.0425,-0.016 0.0893,-0.0236 0.14056,-0.0236 z m 9.14311,0 c 0.0513,0 0.0975,0.008 0.1385,0.0236 0.0425,0.016 0.0782,0.0386 0.10748,0.0677 0.0293,0.0291 0.0521,0.0639 0.0682,0.10459 0.0161,0.0392 0.0243,0.0828 0.0243,0.13074 0,0.0479 -0.008,0.0927 -0.0243,0.1333 -0.0161,0.0392 -0.0389,0.0741 -0.0682,0.10459 -0.0293,0.0291 -0.065,0.0512 -0.10748,0.0672 -0.041,0.016 -0.0872,0.0241 -0.1385,0.0241 -0.0513,0 -0.0981,-0.008 -0.14056,-0.0241 -0.041,-0.016 -0.0761,-0.0381 -0.10542,-0.0672 -0.0293,-0.0305 -0.0516,-0.0654 -0.0677,-0.10459 -0.0161,-0.0407 -0.0243,-0.0853 -0.0243,-0.1333 0,-0.0479 0.008,-0.0916 0.0243,-0.13074 0.0161,-0.0407 0.0384,-0.0755 0.0677,-0.10459 0.0293,-0.0291 0.0644,-0.0517 0.10542,-0.0677 0.0425,-0.016 0.0893,-0.0236 0.14056,-0.0236 z M 4.81932,3.652451 H 5.40998 L 6.41612,6.824997 H 5.72624 L 5.55519,6.175417 H 4.67411 L 4.50306,6.824997 H 3.8199 Z m 19.34249,0 h 1.83141 v 0.53371 h -1.18597 v 0.749556 h 1.00614 v 0.51629 h -1.00614 v 0.84133 h 1.19062 v 0.53166 H 24.16181 Z M 9.84434,4.423017 c 0.0278,0 0.0577,0.003 0.0899,0.009 0.0337,0.005 0.0606,0.011 0.0811,0.0194 l -0.006,0.61011 c -0.0278,-0.003 -0.0624,-0.006 -0.10336,-0.0108 -0.0395,-0.005 -0.0741,-0.007 -0.10335,-0.007 -0.0893,0 -0.16192,0.0187 -0.21756,0.0564 -0.0556,0.0378 -0.0978,0.093 -0.12712,0.1656 v 1.55808 H 8.83422 v -2.35789 h 0.58652 l 0.0176,0.25533 c 0.0469,-0.0944 0.1037,-0.16817 0.17105,-0.22046 0.0688,-0.0523 0.14728,-0.0785 0.23513,-0.0785 z m 29.62971,0 c 0.0278,0 0.0577,0.003 0.0899,0.009 0.0337,0.005 0.0606,0.011 0.0811,0.0194 l -0.006,0.61011 c -0.0278,-0.003 -0.0624,-0.006 -0.10335,-0.0108 -0.0395,-0.005 -0.0741,-0.007 -0.10335,-0.007 -0.0893,0 -0.16192,0.0187 -0.21756,0.0564 -0.0556,0.0378 -0.0978,0.093 -0.12712,0.1656 v 1.55808 h -0.62374 v -2.35789 h 0.58653 l 0.0176,0.25533 c 0.0468,-0.0944 0.1037,-0.16817 0.17105,-0.22046 0.0688,-0.0523 0.14728,-0.0785 0.23513,-0.0785 z m -31.89417,5.2e-4 c 0.30161,0 0.5277,0.0964 0.67851,0.28967 0.15081,0.19321 0.22634,0.47963 0.22634,0.85876 v 0.28096 H 7.24811 c 0.004,0.0945 0.0172,0.17347 0.0377,0.23738 0.022,0.0639 0.0512,0.11558 0.0879,0.15483 0.0366,0.0392 0.0805,0.0677 0.13178,0.0851 0.0527,0.0175 0.11187,0.0261 0.17777,0.0261 0.10981,0 0.20705,-0.0181 0.29197,-0.0544 0.0864,-0.0378 0.16252,-0.0901 0.22841,-0.15688 l 0.24391,0.37221 c -0.0308,0.0422 -0.0711,0.0845 -0.12092,0.12664 -0.0498,0.0407 -0.10835,0.0779 -0.1757,0.11124 -0.0673,0.0334 -0.14349,0.0601 -0.22841,0.0805 -0.0849,0.0217 -0.17803,0.0328 -0.27906,0.0328 -0.16252,0 -0.30661,-0.0249 -0.43253,-0.0743 -0.12592,-0.0494 -0.23194,-0.12033 -0.31832,-0.21327 -0.0864,-0.093 -0.15254,-0.20629 -0.19792,-0.33993 -0.0439,-0.13509 -0.0656,-0.28848 -0.0656,-0.45989 v -0.19379 c 0,-0.19175 0.0211,-0.35965 0.0636,-0.50347 0.0439,-0.14527 0.10602,-0.26669 0.18655,-0.36401 0.082,-0.0988 0.18155,-0.17261 0.29869,-0.222 0.11859,-0.0494 0.25269,-0.0743 0.40204,-0.0743 z m 3.55585,0 c 0.14788,0 0.28086,0.0255 0.39946,0.0764 0.1186,0.0494 0.21988,0.12264 0.30334,0.21995 0.0835,0.0973 0.14788,0.21704 0.19327,0.35939 0.0454,0.14237 0.0682,0.30617 0.0682,0.49066 v 0.15432 c 0,0.18594 -0.0228,0.35034 -0.0682,0.4927 -0.0439,0.1409 -0.10775,0.26002 -0.1912,0.35735 -0.0835,0.0973 -0.18423,0.17056 -0.30283,0.21994 -0.11859,0.0494 -0.25149,0.0743 -0.3979,0.0743 -0.14788,0 -0.28087,-0.0249 -0.39946,-0.0743 -0.1186,-0.0494 -0.21989,-0.12263 -0.30334,-0.21994 -0.0835,-0.0973 -0.14788,-0.21645 -0.19327,-0.35735 -0.0454,-0.14236 -0.0677,-0.30676 -0.0677,-0.4927 v -0.15432 c 0,-0.18449 0.0223,-0.34829 0.0677,-0.49066 0.0454,-0.14235 0.10981,-0.26207 0.19327,-0.35939 0.0835,-0.0973 0.18414,-0.17056 0.30127,-0.21995 0.1186,-0.0509 0.25098,-0.0764 0.39739,-0.0764 z m 2.13889,0 c 0.13324,0 0.2527,0.0181 0.35812,0.0544 0.10688,0.0348 0.19766,0.0848 0.27233,0.15021 0.0747,0.0639 0.13203,0.14174 0.17157,0.23328 0.0395,0.0901 0.0589,0.19056 0.0589,0.30096 h -0.62115 c 0,-0.0901 -0.0187,-0.16092 -0.0553,-0.21175 -0.0366,-0.0509 -0.0987,-0.0759 -0.18656,-0.0759 -0.0659,0 -0.1198,0.0203 -0.16226,0.061 -0.0425,0.0407 -0.0641,0.097 -0.0641,0.16971 0,0.0305 0.007,0.0583 0.0202,0.083 0.0146,0.0232 0.0369,0.0464 0.0677,0.0697 0.0322,0.0232 0.0743,0.047 0.12557,0.0718 0.0513,0.0247 0.11395,0.0531 0.18862,0.0851 0.1186,0.0436 0.22109,0.0895 0.30748,0.13741 0.0879,0.0479 0.16045,0.10144 0.21756,0.16098 0.0571,0.0581 0.0993,0.12436 0.12712,0.19842 0.0278,0.0741 0.0419,0.15953 0.0419,0.25686 0,0.10459 -0.0205,0.19986 -0.0615,0.28556 -0.041,0.0857 -0.0996,0.15894 -0.1757,0.21996 -0.0747,0.061 -0.16545,0.10917 -0.27234,0.14406 -0.10688,0.0334 -0.22634,0.0502 -0.35811,0.0502 -0.14496,0 -0.27268,-0.022 -0.38396,-0.0656 -0.10981,-0.045 -0.20231,-0.10373 -0.27698,-0.17636 -0.0747,-0.0741 -0.13092,-0.15714 -0.16899,-0.24865 -0.0381,-0.093 -0.0574,-0.18714 -0.0574,-0.28302 h 0.59118 c 0.001,0.0639 0.0103,0.1168 0.0264,0.15894 0.0161,0.0407 0.0372,0.0732 0.0636,0.0979 0.0278,0.0247 0.06,0.0421 0.0966,0.0523 0.0381,0.009 0.0791,0.0133 0.12299,0.0133 0.16692,0 0.25012,-0.0749 0.25012,-0.22456 0,-0.0305 -0.008,-0.0578 -0.0238,-0.0825 -0.0146,-0.0261 -0.0392,-0.0517 -0.0729,-0.0764 -0.0322,-0.0261 -0.0744,-0.0523 -0.12713,-0.0785 -0.0527,-0.0261 -0.11592,-0.0552 -0.18913,-0.0871 -0.10835,-0.0436 -0.20387,-0.0883 -0.28732,-0.1333 -0.0835,-0.0465 -0.15374,-0.0976 -0.21084,-0.15432 -0.0571,-0.0581 -0.10043,-0.12317 -0.12971,-0.19431 -0.0293,-0.0726 -0.0439,-0.15578 -0.0439,-0.2502 0,-0.0988 0.0182,-0.19114 0.0548,-0.27685 0.0381,-0.0872 0.0925,-0.16269 0.16278,-0.22661 0.0703,-0.0654 0.1558,-0.11646 0.25683,-0.15279 0.10249,-0.0378 0.2179,-0.0563 0.34675,-0.0563 z m 2.33681,0 c 0.25623,0 0.44829,0.0936 0.57567,0.28096 0.12885,0.18739 0.19327,0.47441 0.19327,0.86081 v 0.15484 c 0,0.37042 -0.0644,0.65453 -0.19327,0.8521 -0.12738,0.19756 -0.31772,0.29633 -0.57102,0.29633 -0.10103,0 -0.1906,-0.0203 -0.2682,-0.061 -0.0761,-0.0407 -0.14177,-0.0982 -0.19741,-0.17226 v 1.09614 h -0.62166 v -3.26433 h 0.57567 l 0.0217,0.21584 c 0.0571,-0.0828 0.12506,-0.14672 0.20412,-0.19175 0.0805,-0.045 0.17424,-0.0677 0.28112,-0.0677 z m 1.99212,0 c 0.1186,0 0.22755,0.0152 0.32712,0.0456 0.0996,0.0291 0.1862,0.0755 0.25941,0.13945 0.0732,0.0624 0.13005,0.14318 0.17105,0.242 0.041,0.0973 0.0615,0.21524 0.0615,0.35325 v 1.0459 c 0,0.0683 0.002,0.12927 0.005,0.18302 0.004,0.0523 0.0103,0.1 0.0176,0.14355 0.007,0.0422 0.0161,0.0805 0.0264,0.11537 0.0117,0.0334 0.0246,0.0654 0.0393,0.0958 v 0.0374 h -0.6258 c -0.0117,-0.0247 -0.0217,-0.0525 -0.0305,-0.083 -0.007,-0.0319 -0.0149,-0.0651 -0.0222,-0.1 -0.0469,0.0639 -0.10775,0.11739 -0.18242,0.16099 -0.0732,0.0435 -0.16287,0.0656 -0.26975,0.0656 -0.0966,0 -0.18741,-0.0169 -0.27233,-0.0502 -0.0835,-0.0334 -0.15667,-0.0805 -0.21963,-0.1415 -0.0615,-0.061 -0.11067,-0.13479 -0.14728,-0.22046 -0.0351,-0.0872 -0.0527,-0.18423 -0.0527,-0.29173 0,-0.11911 0.0188,-0.22661 0.0568,-0.32248 0.0395,-0.0973 0.0981,-0.17928 0.1757,-0.2461 0.0791,-0.0683 0.17743,-0.12057 0.29456,-0.15688 0.1186,-0.0363 0.25743,-0.0549 0.41703,-0.0549 h 0.1695 v -0.18918 c 0,-0.10605 -0.0187,-0.18099 -0.0553,-0.22456 -0.0366,-0.0436 -0.0899,-0.0656 -0.1602,-0.0656 -0.0805,0 -0.1397,0.0243 -0.17777,0.0723 -0.0366,0.0465 -0.0548,0.1122 -0.0548,0.1979 h -0.62167 c 0,-0.10314 0.0199,-0.1996 0.0594,-0.28967 0.041,-0.0916 0.0996,-0.17116 0.1757,-0.23943 0.0761,-0.0683 0.16752,-0.12228 0.27441,-0.1615 0.10688,-0.0407 0.22754,-0.061 0.36225,-0.061 z m 2.13682,0 c 0.12739,0 0.24331,0.0203 0.34727,0.061 0.10542,0.0392 0.19448,0.0979 0.26768,0.17636 0.0747,0.077 0.13204,0.17287 0.17157,0.28763 0.041,0.11475 0.0621,0.24781 0.0636,0.39888 h -0.58394 c -0.001,-0.13219 -0.0237,-0.23388 -0.0661,-0.30505 -0.0425,-0.0712 -0.11274,-0.10665 -0.21084,-0.10665 -0.0688,0 -0.12385,0.014 -0.16485,0.0416 -0.0395,0.0276 -0.07,0.0683 -0.092,0.12203 -0.0205,0.0523 -0.0345,0.11742 -0.0419,0.19584 -0.006,0.077 -0.009,0.16645 -0.009,0.26814 v 0.16971 c 0,0.10313 0.003,0.1943 0.009,0.27275 0.006,0.077 0.0193,0.1415 0.0398,0.19379 0.022,0.0523 0.053,0.0913 0.094,0.11741 0.041,0.0261 0.0966,0.0395 0.16691,0.0395 0.0864,0 0.15314,-0.0261 0.19999,-0.0785 0.0483,-0.0538 0.0735,-0.14384 0.0749,-0.27019 h 0.58394 c -0.002,0.13364 -0.0243,0.25395 -0.0682,0.36145 -0.0439,0.10605 -0.10369,0.1961 -0.17983,0.27019 -0.0747,0.0741 -0.16312,0.13099 -0.26562,0.17021 -0.10249,0.0392 -0.21316,0.0589 -0.33176,0.0589 -0.15959,0 -0.29895,-0.0255 -0.41754,-0.0764 -0.1186,-0.0509 -0.21705,-0.12409 -0.29611,-0.21994 -0.0776,-0.0973 -0.13617,-0.21645 -0.1757,-0.35735 -0.0381,-0.14091 -0.0574,-0.30181 -0.0574,-0.48193 v -0.16971 c 0,-0.18013 0.0193,-0.34051 0.0574,-0.48142 0.0395,-0.14236 0.0981,-0.26258 0.1757,-0.35991 0.0776,-0.0973 0.17544,-0.17115 0.29404,-0.222 0.1186,-0.0509 0.25683,-0.0764 0.41496,-0.0764 z m 2.09755,0 c 0.30162,0 0.5277,0.0964 0.67851,0.28967 0.15081,0.19321 0.22635,0.47963 0.22635,0.85876 v 0.28096 h -1.23662 c 0.004,0.0945 0.0172,0.17347 0.0377,0.23738 0.022,0.0639 0.0512,0.11558 0.0878,0.15483 0.0366,0.0392 0.0805,0.0677 0.13177,0.0851 0.0527,0.0175 0.11188,0.0261 0.17777,0.0261 0.10981,0 0.20705,-0.0181 0.29197,-0.0544 0.0864,-0.0378 0.16253,-0.0901 0.22841,-0.15688 l 0.24392,0.37221 c -0.0308,0.0422 -0.0711,0.0845 -0.12093,0.12664 -0.0498,0.0407 -0.10834,0.0779 -0.1757,0.11124 -0.0674,0.0334 -0.14349,0.0601 -0.22841,0.0805 -0.0849,0.0217 -0.17802,0.0328 -0.27905,0.0328 -0.16252,0 -0.30661,-0.0249 -0.43253,-0.0743 -0.12592,-0.0494 -0.23194,-0.12033 -0.31833,-0.21327 -0.0864,-0.093 -0.15253,-0.20629 -0.19792,-0.33993 -0.0439,-0.13509 -0.0656,-0.28848 -0.0656,-0.45989 v -0.19379 c 0,-0.19175 0.0211,-0.35965 0.0636,-0.50347 0.0439,-0.14527 0.10602,-0.26669 0.18655,-0.36401 0.082,-0.0988 0.18156,-0.17261 0.29869,-0.222 0.1186,-0.0494 0.2527,-0.0743 0.40204,-0.0743 z m 5.6379,0 c 0.0922,0 0.17716,0.0163 0.25476,0.0482 0.0776,0.0305 0.14435,0.0811 0.19999,0.15227 0.0556,0.0711 0.099,0.16413 0.12971,0.2789 0.0308,0.11475 0.046,0.25592 0.046,0.42298 v 1.49911 h -0.62373 v -1.50168 c 0,-0.0755 -0.006,-0.13775 -0.0176,-0.18714 -0.0117,-0.0494 -0.0293,-0.0889 -0.0527,-0.11791 -0.022,-0.0291 -0.05,-0.0494 -0.0837,-0.061 -0.0337,-0.0116 -0.073,-0.0175 -0.11834,-0.0175 -0.0586,0 -0.11007,0.0157 -0.154,0.0461 -0.0439,0.0305 -0.0803,0.0723 -0.10955,0.12612 v 1.71291 h -0.62374 v -2.35788 h 0.58395 l 0.0176,0.23327 c 0.0688,-0.0901 0.1496,-0.15807 0.24184,-0.20456 0.0922,-0.0479 0.19534,-0.0723 0.30954,-0.0723 z m 1.80299,0 c 0.11567,0 0.21403,0.0226 0.29456,0.0677 0.0805,0.0436 0.14848,0.10521 0.20412,0.18509 l 0.0243,-0.20918 h 0.55965 v 2.35788 c 0,0.16124 -0.024,0.3001 -0.0724,0.41632 -0.0469,0.11766 -0.1136,0.21413 -0.19998,0.28967 -0.0864,0.0755 -0.19009,0.13133 -0.31161,0.16765 -0.12006,0.0363 -0.25417,0.0544 -0.40205,0.0544 -0.0556,0 -0.11713,-0.006 -0.18448,-0.0175 -0.0674,-0.0116 -0.1347,-0.0291 -0.20206,-0.0523 -0.0674,-0.0217 -0.13177,-0.0497 -0.19327,-0.0846 -0.06,-0.0334 -0.11041,-0.0735 -0.15141,-0.11997 l 0.20878,-0.42708 c 0.0278,0.0291 0.0606,0.0558 0.0987,0.0805 0.0395,0.0261 0.0805,0.0481 0.12299,0.0656 0.0439,0.0188 0.0891,0.0334 0.1359,0.0436 0.0469,0.0116 0.0925,0.0175 0.13643,0.0175 0.063,0 0.1186,-0.008 0.16692,-0.022 0.0498,-0.0131 0.0914,-0.0363 0.12505,-0.0697 0.0337,-0.0334 0.0588,-0.0776 0.0749,-0.1328 0.0176,-0.0553 0.0263,-0.12435 0.0263,-0.20713 v -0.18969 c -0.0571,0.0741 -0.12385,0.13159 -0.19998,0.17226 -0.0747,0.0392 -0.16253,0.0589 -0.26355,0.0589 -0.12592,0 -0.23892,-0.0249 -0.33849,-0.0743 -0.0981,-0.0494 -0.18129,-0.12205 -0.25011,-0.21791 -0.0673,-0.0958 -0.11946,-0.21387 -0.15606,-0.35478 -0.0366,-0.14235 -0.0548,-0.30676 -0.0548,-0.4927 v -0.15483 c 0,-0.3864 0.0703,-0.67462 0.21084,-0.86492 0.14056,-0.1903 0.33736,-0.28557 0.59066,-0.28557 z m 3.80649,0 c 0.0922,0 0.17716,0.0163 0.25476,0.0482 0.0776,0.0305 0.14383,0.0811 0.19947,0.15227 0.0556,0.0711 0.099,0.16413 0.12971,0.2789 0.0307,0.11475 0.046,0.25592 0.046,0.42298 v 1.49911 h -0.62373 v -1.50168 c 0,-0.0755 -0.006,-0.13775 -0.0176,-0.18714 -0.0117,-0.0494 -0.0293,-0.0889 -0.0527,-0.11791 -0.022,-0.0291 -0.0495,-0.0494 -0.0832,-0.061 -0.0337,-0.0116 -0.0735,-0.0175 -0.11886,-0.0175 -0.0586,0 -0.10955,0.0157 -0.15348,0.0461 -0.0439,0.0305 -0.0808,0.0723 -0.11007,0.12612 v 1.71291 h -0.62373 v -2.35788 h 0.58446 l 0.0176,0.23327 c 0.0688,-0.0901 0.14908,-0.15807 0.24132,-0.20456 0.0922,-0.0479 0.19586,-0.0723 0.31006,-0.0723 z m 1.97197,0 c 0.30162,0 0.5277,0.0964 0.67851,0.28967 0.15081,0.19321 0.22634,0.47963 0.22634,0.85876 v 0.28096 h -1.23661 c 0.004,0.0945 0.0172,0.17347 0.0377,0.23738 0.022,0.0639 0.0512,0.11558 0.0879,0.15483 0.0366,0.0392 0.0805,0.0677 0.13177,0.0851 0.0527,0.0175 0.11188,0.0261 0.17777,0.0261 0.10981,0 0.20705,-0.0181 0.29197,-0.0544 0.0864,-0.0378 0.16252,-0.0901 0.22841,-0.15688 l 0.24391,0.37221 c -0.0307,0.0422 -0.0711,0.0845 -0.12092,0.12664 -0.0498,0.0407 -0.10835,0.0779 -0.1757,0.11124 -0.0674,0.0334 -0.14349,0.0601 -0.22841,0.0805 -0.0849,0.0217 -0.17803,0.0328 -0.27905,0.0328 -0.16252,0 -0.30662,-0.0249 -0.43253,-0.0743 -0.12592,-0.0494 -0.23195,-0.12033 -0.31833,-0.21327 -0.0864,-0.093 -0.15253,-0.20629 -0.19792,-0.33993 -0.0439,-0.13509 -0.0656,-0.28848 -0.0656,-0.45989 v -0.19379 c 0,-0.19175 0.0211,-0.35965 0.0636,-0.50347 0.0439,-0.14527 0.10602,-0.26669 0.18655,-0.36401 0.082,-0.0988 0.18156,-0.17261 0.29869,-0.222 0.1186,-0.0494 0.2527,-0.0743 0.40204,-0.0743 z m 2.15232,0 c 0.30162,0 0.5277,0.0964 0.67851,0.28967 0.15081,0.19321 0.22635,0.47963 0.22635,0.85876 v 0.28096 h -1.23662 c 0.004,0.0945 0.0172,0.17347 0.0377,0.23738 0.022,0.0639 0.0512,0.11558 0.0879,0.15483 0.0366,0.0392 0.0805,0.0677 0.13177,0.0851 0.0527,0.0175 0.11188,0.0261 0.17777,0.0261 0.10981,0 0.20705,-0.0181 0.29197,-0.0544 0.0864,-0.0378 0.16253,-0.0901 0.22841,-0.15688 l 0.24392,0.37221 c -0.0308,0.0422 -0.0711,0.0845 -0.12093,0.12664 -0.0498,0.0407 -0.10834,0.0779 -0.1757,0.11124 -0.0674,0.0334 -0.14349,0.0601 -0.22841,0.0805 -0.0849,0.0217 -0.17802,0.0328 -0.27905,0.0328 -0.16252,0 -0.30661,-0.0249 -0.43253,-0.0743 -0.12592,-0.0494 -0.23194,-0.12033 -0.31833,-0.21327 -0.0864,-0.093 -0.15253,-0.20629 -0.19792,-0.33993 -0.0439,-0.13509 -0.0656,-0.28848 -0.0656,-0.45989 v -0.19379 c 0,-0.19175 0.0211,-0.35965 0.0636,-0.50347 0.0439,-0.14527 0.10603,-0.26669 0.18655,-0.36401 0.082,-0.0988 0.18156,-0.17261 0.29869,-0.222 0.1186,-0.0494 0.2527,-0.0743 0.40205,-0.0743 z m 5.0183,0 c 0.0922,0 0.17716,0.0163 0.25477,0.0482 0.0776,0.0305 0.14435,0.0811 0.19998,0.15227 0.0556,0.0711 0.099,0.16413 0.12971,0.2789 0.0308,0.11475 0.046,0.25592 0.046,0.42298 v 1.49911 h -0.62373 v -1.50168 c 0,-0.0755 -0.006,-0.13775 -0.0176,-0.18714 -0.0117,-0.0494 -0.0293,-0.0889 -0.0527,-0.11791 -0.022,-0.0291 -0.0495,-0.0494 -0.0832,-0.061 -0.0337,-0.0116 -0.0735,-0.0175 -0.11886,-0.0175 -0.0586,0 -0.10955,0.0157 -0.15348,0.0461 -0.0439,0.0305 -0.0808,0.0723 -0.11007,0.12612 v 1.71291 h -0.62373 v -2.35788 h 0.58446 l 0.0176,0.23327 c 0.0688,-0.0901 0.14908,-0.15807 0.24133,-0.20456 0.0922,-0.0479 0.19533,-0.0723 0.30954,-0.0723 z m 1.80351,0 c 0.11567,0 0.21351,0.0226 0.29404,0.0677 0.0805,0.0436 0.14848,0.10521 0.20412,0.18509 l 0.0243,-0.20918 h 0.56017 v 2.35788 c 0,0.16124 -0.024,0.3001 -0.0724,0.41632 -0.0469,0.11766 -0.1136,0.21413 -0.19999,0.28967 -0.0864,0.0755 -0.1906,0.13133 -0.31212,0.16765 -0.12006,0.0363 -0.25365,0.0544 -0.40153,0.0544 -0.0556,0 -0.11713,-0.006 -0.18448,-0.0175 -0.0674,-0.0116 -0.1347,-0.0291 -0.20206,-0.0523 -0.0674,-0.0217 -0.13177,-0.0497 -0.19327,-0.0846 -0.06,-0.0334 -0.11093,-0.0735 -0.15193,-0.11997 l 0.20878,-0.42708 c 0.0278,0.0291 0.0606,0.0558 0.0987,0.0805 0.0395,0.0261 0.0805,0.0481 0.12299,0.0656 0.0439,0.0188 0.0896,0.0334 0.13642,0.0436 0.0469,0.0116 0.092,0.0175 0.13591,0.0175 0.063,0 0.1186,-0.008 0.16692,-0.022 0.0498,-0.0131 0.0919,-0.0363 0.12557,-0.0697 0.0337,-0.0334 0.0583,-0.0776 0.0744,-0.1328 0.0176,-0.0553 0.0264,-0.12435 0.0264,-0.20713 v -0.18969 c -0.0571,0.0741 -0.12385,0.13159 -0.19999,0.17226 -0.0747,0.0392 -0.16252,0.0589 -0.26355,0.0589 -0.12592,0 -0.2384,-0.0249 -0.33796,-0.0743 -0.0981,-0.0494 -0.18182,-0.12205 -0.25063,-0.21791 -0.0674,-0.0958 -0.11894,-0.21387 -0.15555,-0.35478 -0.0366,-0.14235 -0.0553,-0.30676 -0.0553,-0.4927 v -0.15483 c 0,-0.3864 0.0703,-0.67462 0.21084,-0.86492 0.14056,-0.1903 0.33788,-0.28557 0.59118,-0.28557 z m -13.18886,0.0435 h 0.62373 v 2.35788 h -0.62373 z m 9.14311,0 h 0.62373 v 2.35788 h -0.62373 z m -34.87229,0.0436 -0.29869,1.131 h 0.59738 z m 2.46238,0.42502 c -0.10835,0 -0.18741,0.0384 -0.23719,0.11536 -0.0483,0.077 -0.077,0.20072 -0.0858,0.37068 h 0.62167 v -0.057 c -0.003,-0.1409 -0.0264,-0.24779 -0.0703,-0.32044 -0.0439,-0.0726 -0.12007,-0.10869 -0.22841,-0.10869 z m 3.55999,0 c -0.10542,0 -0.18801,0.0523 -0.24805,0.15689 -0.0586,0.10314 -0.0879,0.26233 -0.0879,0.47732 v 0.15432 c 0,0.21936 0.0299,0.38025 0.0899,0.48193 0.06,0.10024 0.14324,0.15022 0.25012,0.15022 0.11274,0 0.19766,-0.05 0.25476,-0.15022 0.0571,-0.10168 0.0858,-0.26257 0.0858,-0.48193 v -0.15432 c 0,-0.21499 -0.0299,-0.37418 -0.0899,-0.47732 -0.06,-0.10459 -0.14495,-0.15689 -0.25476,-0.15689 z m 10.69806,0 c -0.10835,0 -0.18742,0.0384 -0.2372,0.11536 -0.0483,0.077 -0.077,0.20072 -0.0858,0.37068 h 0.62167 v -0.057 c -0.003,-0.1409 -0.0264,-0.24729 -0.0703,-0.31992 -0.0439,-0.0726 -0.12006,-0.10921 -0.22841,-0.10921 z m 13.21934,0 c -0.10834,0 -0.18741,0.0384 -0.23719,0.11536 -0.0483,0.077 -0.077,0.20072 -0.0858,0.37068 h 0.62167 v -0.057 c -0.003,-0.1409 -0.0264,-0.24729 -0.0703,-0.31992 -0.0439,-0.0726 -0.12007,-0.10921 -0.22841,-0.10921 z m 2.15233,0 c -0.10835,0 -0.18741,0.0384 -0.2372,0.11536 -0.0483,0.077 -0.077,0.20072 -0.0858,0.37068 h 0.62167 v -0.057 c -0.003,-0.1409 -0.0264,-0.24729 -0.0703,-0.31992 -0.0439,-0.0726 -0.12006,-0.10921 -0.22841,-0.10921 z m -21.77593,0.004 c -0.0659,0 -0.12265,0.014 -0.1695,0.0416 -0.0454,0.0276 -0.0817,0.0671 -0.10956,0.11793 v 1.10434 c 0.0264,0.0479 0.0621,0.0857 0.10749,0.1133 0.0469,0.0261 0.10542,0.0395 0.1757,0.0395 0.12299,0 0.20791,-0.0517 0.25477,-0.15483 0.0483,-0.10313 0.0724,-0.26353 0.0724,-0.48142 v -0.15484 c 0,-0.11184 -0.006,-0.20713 -0.0176,-0.28557 -0.0117,-0.0799 -0.0305,-0.1444 -0.0568,-0.1938 -0.0263,-0.0509 -0.0609,-0.088 -0.10336,-0.11125 -0.041,-0.0232 -0.092,-0.0348 -0.15348,-0.0348 z m 14.0317,5.2e-4 c -0.12299,0 -0.21437,0.05 -0.2744,0.15022 -0.0586,0.10023 -0.0879,0.26122 -0.0879,0.48347 v 0.15483 c 0,0.21789 0.0282,0.37709 0.0853,0.47732 0.0571,0.0988 0.14787,0.14818 0.27233,0.14818 0.0673,0 0.12411,-0.0116 0.1695,-0.0348 0.0468,-0.0247 0.0849,-0.0589 0.1142,-0.10254 v -1.12639 c -0.0307,-0.0479 -0.0699,-0.0851 -0.11678,-0.11126 -0.0454,-0.0261 -0.0993,-0.039 -0.16227,-0.039 z m 14.75207,0 c -0.12299,0 -0.21437,0.05 -0.2744,0.15022 -0.0586,0.10023 -0.0879,0.26122 -0.0879,0.48347 v 0.15483 c 0,0.21789 0.0287,0.37709 0.0858,0.47732 0.0571,0.0988 0.14788,0.14818 0.27233,0.14818 0.0674,0 0.12359,-0.0116 0.16898,-0.0348 0.0468,-0.0247 0.0849,-0.0589 0.11421,-0.10254 v -1.12639 c -0.0308,-0.0479 -0.0694,-0.0851 -0.11627,-0.11126 -0.0454,-0.0261 -0.0998,-0.039 -0.16278,-0.039 z m -26.5591,0.81467 c -0.0586,0 -0.10895,0.009 -0.15142,0.0282 -0.0425,0.0188 -0.0787,0.0449 -0.108,0.0785 -0.0278,0.0334 -0.0489,0.0729 -0.0636,0.11792 -0.0132,0.045 -0.0196,0.0928 -0.0196,0.14355 0,0.0857 0.0176,0.15134 0.0527,0.19637 0.0366,0.0436 0.0876,0.0651 0.15348,0.0651 0.0688,0 0.12738,-0.0139 0.1757,-0.0416 0.0483,-0.0276 0.0846,-0.0601 0.108,-0.0979 v -0.49013 z" /><path
     id="path172"
     style="fill:#808ff7;fill-opacity:1;stroke-width:0.499999;stroke-linejoin:round;stroke-miterlimit:3.4;stroke-dashoffset:19.8539;stroke-opacity:0.509044"
     d="m 50.25923,1.51e-4 v 10.499616 h 1.96474 V 1.51e-4 Z m 2.48253,0 V 10.499767 H 54.7065 V 1.51e-4 Z" /></svg>
