<?xml version="1.0" encoding="UTF-8" standalone="no"?>
<!-- Created with Inkscape (http://www.inkscape.org/) -->

<svg
   width="46.40337mm"
   height="10.499626mm"
   viewBox="0 0 46.40337 10.499626"
   version="1.1"
   id="svg1"
   xml:space="preserve"
   inkscape:version="1.3.1 (91b66b0783, 2023-11-16)"
   sodipodi:docname="assets.svg"
   xmlns:inkscape="http://www.inkscape.org/namespaces/inkscape"
   xmlns:sodipodi="http://sodipodi.sourceforge.net/DTD/sodipodi-0.dtd"
   xmlns="http://www.w3.org/2000/svg"
   xmlns:svg="http://www.w3.org/2000/svg"><sodipodi:namedview
     id="namedview1"
     pagecolor="#ffffff"
     bordercolor="#000000"
     borderopacity="0.25"
     inkscape:showpageshadow="2"
     inkscape:pageopacity="0.0"
     inkscape:pagecheckerboard="0"
     inkscape:deskcolor="#d1d1d1"
     inkscape:document-units="mm"
     inkscape:zoom="2.8284271"
     inkscape:cx="1041.3915"
     inkscape:cy="388.3784"
     inkscape:window-width="2560"
     inkscape:window-height="1346"
     inkscape:window-x="-11"
     inkscape:window-y="-11"
     inkscape:window-maximized="1"
     inkscape:current-layer="layer1"
     showgrid="true"><inkscape:grid
       id="grid668"
       units="mm"
       originx="-445.94023"
       originy="-110.14683"
       spacingx="0.5"
       spacingy="0.5"
       empcolor="#0099e5"
       empopacity="0.30196078"
       color="#0099e5"
       opacity="0.14901961"
       empspacing="5"
       dotted="false"
       gridanglex="30"
       gridanglez="30"
       visible="true" /></sodipodi:namedview><defs
     id="defs1" /><g
     inkscape:label="Layer 1"
     inkscape:groupmode="layer"
     id="layer1"
     transform="translate(-445.94023,-110.14684)"><g
       id="g13"><rect
         style="fill:#f9f9f9;stroke-width:0.499999;stroke-linejoin:round;stroke-miterlimit:3.4;stroke-dashoffset:19.8539"
         id="rect9"
         width="37.697754"
         height="6.4863281"
         x="448.65112"
         y="112.01753" /><path
         id="path744"
         style="fill:#2c2c6f;fill-opacity:1;stroke-width:0.264583"
         d="m 449.47592,110.14684 c -1.95262,0 -3.5357,1.6108 -3.5357,3.59772 v 3.30419 c 0,1.98692 1.58308,3.59771 3.5357,3.59771 h 40.38513 v -10.49962 z m 40.90293,0 v 10.49962 h 1.96474 v -10.49962 z m -28.39206,3.56723 h 0.62373 v 3.43286 h -0.62373 z m 9.16274,0.0537 c 0.0513,0 0.0975,0.007 0.1385,0.0238 0.0425,0.0164 0.0782,0.04 0.10748,0.0698 0.0293,0.0298 0.0521,0.0653 0.0682,0.10697 0.0161,0.0402 0.0243,0.0852 0.0243,0.13436 0,0.0492 -0.008,0.0942 -0.0243,0.13591 -0.0161,0.0402 -0.0389,0.0762 -0.0682,0.10749 -0.0293,0.0298 -0.065,0.0529 -0.10748,0.0692 -0.041,0.0164 -0.0872,0.0248 -0.1385,0.0248 -0.0512,0 -0.0981,-0.008 -0.14056,-0.0248 -0.041,-0.0164 -0.0761,-0.0394 -0.10542,-0.0692 -0.0293,-0.0313 -0.0516,-0.0673 -0.0677,-0.10749 -0.0161,-0.0417 -0.0243,-0.0867 -0.0243,-0.13591 0,-0.0492 0.008,-0.0941 0.0243,-0.13436 0.0161,-0.0417 0.0384,-0.0772 0.0677,-0.10697 0.0293,-0.0298 0.0644,-0.0534 0.10542,-0.0698 0.0425,-0.0164 0.0893,-0.0238 0.14056,-0.0238 z m 9.14311,0 c 0.0513,0 0.0975,0.007 0.1385,0.0238 0.0425,0.0164 0.0782,0.04 0.10748,0.0698 0.0293,0.0298 0.0521,0.0653 0.0682,0.10697 0.0161,0.0402 0.0243,0.0852 0.0243,0.13436 0,0.0492 -0.008,0.0942 -0.0243,0.13591 -0.0161,0.0402 -0.0389,0.0762 -0.0682,0.10749 -0.0293,0.0298 -0.065,0.0529 -0.10748,0.0692 -0.041,0.0164 -0.0872,0.0248 -0.1385,0.0248 -0.0513,0 -0.0981,-0.008 -0.14056,-0.0248 -0.041,-0.0164 -0.0761,-0.0394 -0.10542,-0.0692 -0.0293,-0.0313 -0.0521,-0.0673 -0.0682,-0.10749 -0.0161,-0.0417 -0.0238,-0.0867 -0.0238,-0.13591 0,-0.0492 0.008,-0.0941 0.0238,-0.13436 0.0161,-0.0417 0.0389,-0.0772 0.0682,-0.10697 0.0293,-0.0298 0.0644,-0.0534 0.10542,-0.0698 0.0425,-0.0164 0.0893,-0.0238 0.14056,-0.0238 z m -29.28245,0.0801 c 0.34847,0 0.61263,0.099 0.79272,0.29715 0.18156,0.19815 0.28465,0.48271 0.30954,0.85369 h -0.6475 c -0.003,-0.11621 -0.0134,-0.21295 -0.031,-0.29043 -0.0161,-0.079 -0.0419,-0.1414 -0.077,-0.18758 -0.0351,-0.0462 -0.0809,-0.0793 -0.13797,-0.0987 -0.0556,-0.0194 -0.12532,-0.0284 -0.20878,-0.0284 -0.0864,0 -0.1602,0.0146 -0.22169,0.0444 -0.06,0.0298 -0.10921,0.0782 -0.14728,0.14521 -0.0381,0.0656 -0.0667,0.15273 -0.0858,0.26149 -0.0176,0.10727 -0.0263,0.23888 -0.0263,0.39532 v 0.55914 c 0,0.15198 0.008,0.28083 0.0222,0.3881 0.0146,0.10726 0.0399,0.19552 0.0765,0.26407 0.0366,0.067 0.0852,0.11599 0.14521,0.14726 0.06,0.0313 0.13617,0.0476 0.22841,0.0476 0.0791,0 0.14641,-0.008 0.20205,-0.0248 0.0571,-0.0179 0.10395,-0.0483 0.14056,-0.0915 0.0366,-0.0432 0.0642,-0.10282 0.0832,-0.17881 0.019,-0.076 0.0308,-0.17266 0.0351,-0.28887 h 0.64596 c -0.0161,0.37098 -0.11861,0.65214 -0.30748,0.84285 -0.18888,0.1907 -0.45535,0.28628 -0.79943,0.28628 -0.17716,0 -0.33529,-0.0298 -0.47439,-0.0894 -0.13909,-0.0596 -0.25623,-0.14843 -0.3514,-0.26613 -0.0952,-0.1177 -0.16839,-0.26281 -0.21963,-0.43563 -0.0498,-0.17432 -0.0749,-0.37454 -0.0749,-0.601 v -0.55449 c 0,-0.22646 0.0257,-0.42668 0.077,-0.60099 0.0527,-0.17432 0.12824,-0.32051 0.22634,-0.43822 0.0981,-0.1177 0.21645,-0.20654 0.35554,-0.26613 0.1391,-0.0611 0.29601,-0.0915 0.47025,-0.0915 z m 13.14907,0.045 h 1.83142 v 0.54725 h -1.18598 v 0.76894 h 1.00614 v 0.52916 h -1.00614 v 0.863 h 1.19063 v 0.5457 h -1.83607 z m -7.13135,0.24133 h 0.62167 v 0.59427 h 0.31833 v 0.47594 h -0.31833 v 1.20045 c 0,0.0507 0.003,0.0923 0.009,0.12505 0.007,0.0328 0.0179,0.0582 0.0326,0.0775 0.0161,0.0179 0.036,0.0313 0.0594,0.0388 0.0234,0.006 0.0521,0.009 0.0858,0.009 0.0308,0 0.0583,-0.002 0.0832,-0.005 0.0264,-0.003 0.048,-0.007 0.0641,-0.0114 l -0.005,0.49196 c -0.0469,0.0179 -0.0972,0.0319 -0.15141,0.0424 -0.0542,0.0119 -0.11799,0.0181 -0.1912,0.0181 -0.0922,0 -0.17544,-0.014 -0.25012,-0.0408 -0.0747,-0.0253 -0.13909,-0.0664 -0.19327,-0.12299 -0.0527,-0.0581 -0.0937,-0.13236 -0.12299,-0.22324 -0.0278,-0.0909 -0.0419,-0.20002 -0.0419,-0.32815 v -1.27176 h -0.2744 v -0.47594 h 0.2744 z m -3.6654,0.54932 c 0.14788,0 0.28085,0.0264 0.39945,0.0785 0.11859,0.0507 0.21988,0.12549 0.30334,0.22531 0.0835,0.0998 0.14788,0.22297 0.19327,0.36896 0.0454,0.14601 0.0677,0.31413 0.0677,0.50334 v 0.15813 c 0,0.1907 -0.0223,0.35938 -0.0677,0.5054 -0.0439,0.14452 -0.10774,0.26656 -0.1912,0.36638 -0.0835,0.0998 -0.18474,0.17465 -0.30334,0.22531 -0.11859,0.0507 -0.25097,0.0765 -0.39739,0.0765 -0.14788,0 -0.28086,-0.0258 -0.39946,-0.0765 -0.1186,-0.0507 -0.21988,-0.12548 -0.30334,-0.22531 -0.0835,-0.0998 -0.14788,-0.22186 -0.19327,-0.36638 -0.0454,-0.14601 -0.0682,-0.3147 -0.0682,-0.5054 v -0.15813 c 0,-0.18921 0.0228,-0.35732 0.0682,-0.50334 0.0454,-0.14599 0.10981,-0.26913 0.19327,-0.36896 0.0835,-0.0998 0.18362,-0.17466 0.30076,-0.22531 0.1186,-0.0522 0.25149,-0.0785 0.39791,-0.0785 z m 2.48822,0 c 0.0922,0 0.17716,0.0168 0.25476,0.0496 0.0776,0.0313 0.14435,0.083 0.19999,0.15606 0.0556,0.073 0.0984,0.16858 0.12919,0.28629 0.0307,0.1177 0.0465,0.26222 0.0465,0.43356 v 1.53789 h -0.62374 v -1.54047 c 0,-0.0775 -0.006,-0.14107 -0.0176,-0.19172 -0.0117,-0.0507 -0.0293,-0.0911 -0.0527,-0.12093 -0.022,-0.0298 -0.05,-0.0506 -0.0837,-0.0625 -0.0337,-0.0119 -0.0729,-0.0181 -0.11834,-0.0181 -0.0586,0 -0.11008,0.0162 -0.154,0.0475 -0.0439,0.0313 -0.0803,0.0741 -0.10955,0.12919 v 1.757 h -0.62374 v -2.41846 h 0.58395 l 0.0176,0.23927 c 0.0688,-0.0924 0.14959,-0.16265 0.24184,-0.21033 0.0922,-0.0492 0.19534,-0.0739 0.30955,-0.0739 z m 3.46542,0 c 0.0278,0 0.0582,0.003 0.0904,0.009 0.0337,0.005 0.0606,0.0112 0.0811,0.0202 l -0.007,0.6258 c -0.0278,-0.003 -0.0624,-0.006 -0.10335,-0.0109 -0.0395,-0.005 -0.0735,-0.007 -0.10284,-0.007 -0.0893,0 -0.16192,0.0196 -0.21756,0.0584 -0.0556,0.0387 -0.0984,0.0955 -0.12764,0.17002 v 1.59835 h -0.62373 v -2.41846 h 0.58652 l 0.0181,0.26149 c 0.0468,-0.0968 0.10422,-0.17219 0.17157,-0.22583 0.0688,-0.0536 0.14676,-0.0806 0.23461,-0.0806 z m 1.29139,0 c 0.14788,0 0.28138,0.0264 0.39998,0.0785 0.1186,0.0507 0.21936,0.12549 0.30282,0.22531 0.0835,0.0998 0.14788,0.22297 0.19327,0.36896 0.0454,0.14601 0.0682,0.31413 0.0682,0.50334 v 0.15813 c 0,0.1907 -0.0228,0.35938 -0.0682,0.5054 -0.0439,0.14452 -0.10724,0.26656 -0.19069,0.36638 -0.0835,0.0998 -0.18475,0.17465 -0.30334,0.22531 -0.1186,0.0507 -0.25097,0.0765 -0.39739,0.0765 -0.14788,0 -0.28138,-0.0258 -0.39997,-0.0765 -0.1186,-0.0507 -0.21937,-0.12548 -0.30283,-0.22531 -0.0835,-0.0998 -0.14788,-0.22186 -0.19327,-0.36638 -0.0454,-0.14601 -0.0682,-0.3147 -0.0682,-0.5054 v -0.15813 c 0,-0.18921 0.0228,-0.35732 0.0682,-0.50334 0.0454,-0.14599 0.10981,-0.26913 0.19327,-0.36896 0.0835,-0.0998 0.18363,-0.17466 0.30076,-0.22531 0.1186,-0.0522 0.25098,-0.0785 0.39739,-0.0785 z m 6.86573,0 c 0.0922,0 0.17717,0.0168 0.25477,0.0496 0.0776,0.0313 0.14434,0.083 0.19998,0.15606 0.0556,0.073 0.0984,0.16858 0.1292,0.28629 0.0308,0.1177 0.0465,0.26222 0.0465,0.43356 v 1.53789 h -0.62373 v -1.54047 c 0,-0.0775 -0.006,-0.14107 -0.0176,-0.19172 -0.0117,-0.0507 -0.0293,-0.0911 -0.0527,-0.12093 -0.022,-0.0298 -0.05,-0.0506 -0.0837,-0.0625 -0.0337,-0.0119 -0.073,-0.0181 -0.11834,-0.0181 -0.0586,0 -0.11007,0.0162 -0.15399,0.0475 -0.0439,0.0313 -0.0803,0.0741 -0.10955,0.12919 v 1.757 h -0.62374 v -2.41846 h 0.58394 l 0.0176,0.23927 c 0.0688,-0.0924 0.14961,-0.16265 0.24185,-0.21033 0.0922,-0.0492 0.19534,-0.0739 0.30954,-0.0739 z m 1.80299,0 c 0.11567,0 0.21403,0.0236 0.29456,0.0698 0.0805,0.0447 0.14848,0.10771 0.20412,0.18965 l 0.0243,-0.21446 h 0.55965 v 2.41847 c 0,0.16538 -0.0239,0.30714 -0.0723,0.42633 -0.0469,0.12068 -0.1136,0.22019 -0.19999,0.29766 -0.0864,0.0775 -0.19008,0.13432 -0.31161,0.17156 -0.12006,0.0373 -0.25416,0.0558 -0.40204,0.0558 -0.0556,0 -0.11714,-0.006 -0.18449,-0.0176 -0.0674,-0.0119 -0.1347,-0.0299 -0.20205,-0.0537 -0.0674,-0.0223 -0.13178,-0.0516 -0.19327,-0.0873 -0.06,-0.0343 -0.11042,-0.0748 -0.15141,-0.12247 l 0.20877,-0.43822 c 0.0278,0.0298 0.0606,0.0574 0.0987,0.0827 0.0395,0.0268 0.0805,0.0488 0.12299,0.0667 0.0439,0.0194 0.0891,0.0345 0.13591,0.045 0.0468,0.0119 0.0925,0.0176 0.13643,0.0176 0.063,0 0.11859,-0.007 0.16691,-0.0217 0.0498,-0.0134 0.0914,-0.0376 0.12506,-0.0718 0.0337,-0.0343 0.0588,-0.0793 0.0749,-0.13591 0.0176,-0.0566 0.0264,-0.12747 0.0264,-0.21239 v -0.19482 c -0.0571,0.076 -0.12384,0.13502 -0.19998,0.17673 -0.0747,0.0402 -0.16252,0.0605 -0.26355,0.0605 -0.12592,0 -0.23893,-0.0258 -0.33849,-0.0765 -0.0981,-0.0507 -0.18129,-0.12491 -0.25011,-0.22324 -0.0673,-0.0983 -0.11946,-0.2198 -0.15606,-0.36432 -0.0366,-0.146 -0.0548,-0.31416 -0.0548,-0.50488 v -0.15864 c 0,-0.39631 0.0703,-0.69211 0.21084,-0.88729 0.14056,-0.19517 0.33736,-0.293 0.59066,-0.293 z m 3.80597,0 c 0.0922,0 0.17717,0.0168 0.25477,0.0496 0.0776,0.0313 0.14434,0.083 0.19998,0.15606 0.0556,0.073 0.099,0.16858 0.12971,0.28629 0.0307,0.1177 0.046,0.26222 0.046,0.43356 v 1.53789 h -0.62373 v -1.54047 c 0,-0.0775 -0.006,-0.14107 -0.0176,-0.19172 -0.0117,-0.0507 -0.0293,-0.0911 -0.0527,-0.12093 -0.022,-0.0298 -0.0495,-0.0506 -0.0832,-0.0625 -0.0337,-0.0119 -0.0735,-0.0181 -0.11886,-0.0181 -0.0586,0 -0.10954,0.0162 -0.15347,0.0475 -0.0439,0.0313 -0.0808,0.0741 -0.11007,0.12919 v 1.757 h -0.62374 v -2.41846 h 0.58446 l 0.0176,0.23927 c 0.0688,-0.0924 0.14909,-0.16265 0.24133,-0.21033 0.0922,-0.0492 0.19534,-0.0739 0.30954,-0.0739 z m 1.97249,0 c 0.30162,0 0.5277,0.099 0.67851,0.29714 0.15081,0.19815 0.22635,0.49222 0.22635,0.88108 v 0.28784 h -1.23662 c 0.004,0.0968 0.0167,0.17784 0.0372,0.24339 0.022,0.0656 0.0512,0.11894 0.0879,0.15917 0.0366,0.0402 0.0805,0.0695 0.13177,0.0873 0.0527,0.0179 0.11239,0.0264 0.17828,0.0264 0.10981,0 0.20706,-0.018 0.29198,-0.0553 0.0864,-0.0387 0.16252,-0.0927 0.22841,-0.16123 l 0.24391,0.38189 c -0.0307,0.0432 -0.0711,0.0865 -0.12092,0.12971 -0.0498,0.0417 -0.10835,0.0799 -0.1757,0.1142 -0.0674,0.0343 -0.14349,0.0618 -0.22841,0.0827 -0.0849,0.0223 -0.17804,0.0336 -0.27906,0.0336 -0.16252,0 -0.30662,-0.0258 -0.43253,-0.0765 -0.12592,-0.0507 -0.23195,-0.12325 -0.31833,-0.2186 -0.0864,-0.0953 -0.15253,-0.21173 -0.19792,-0.3488 -0.0439,-0.13857 -0.0656,-0.29549 -0.0656,-0.47129 v -0.19896 c 0,-0.19667 0.0211,-0.36876 0.0636,-0.51626 0.0439,-0.14898 0.10602,-0.27379 0.18655,-0.37362 0.082,-0.10131 0.18156,-0.17671 0.29869,-0.22737 0.1186,-0.0507 0.2527,-0.0765 0.40204,-0.0765 z m 2.15232,0 c 0.30161,0 0.52771,0.099 0.67852,0.29714 0.15081,0.19815 0.22634,0.49222 0.22634,0.88108 v 0.28784 h -1.23662 c 0.004,0.0968 0.0167,0.17784 0.0372,0.24339 0.022,0.0656 0.0512,0.11894 0.0879,0.15917 0.0366,0.0402 0.0805,0.0695 0.13177,0.0873 0.0527,0.0179 0.1124,0.0264 0.17829,0.0264 0.10981,0 0.20705,-0.018 0.29197,-0.0553 0.0864,-0.0387 0.16253,-0.0927 0.22841,-0.16123 l 0.24391,0.38189 c -0.0308,0.0432 -0.0711,0.0865 -0.12092,0.12971 -0.0498,0.0417 -0.10834,0.0799 -0.1757,0.1142 -0.0674,0.0343 -0.14348,0.0618 -0.22841,0.0827 -0.0849,0.0223 -0.17802,0.0336 -0.27905,0.0336 -0.16252,0 -0.30662,-0.0258 -0.43254,-0.0765 -0.12591,-0.0507 -0.23193,-0.12325 -0.31832,-0.2186 -0.0864,-0.0953 -0.15253,-0.21173 -0.19792,-0.3488 -0.0439,-0.13857 -0.0656,-0.29549 -0.0656,-0.47129 v -0.19896 c 0,-0.19667 0.0211,-0.36876 0.0636,-0.51626 0.0439,-0.14898 0.10603,-0.27379 0.18655,-0.37362 0.082,-0.10131 0.18156,-0.17671 0.29869,-0.22737 0.1186,-0.0507 0.25269,-0.0765 0.40204,-0.0765 z m 2.26447,0 c 0.0278,0 0.0577,0.003 0.0899,0.009 0.0337,0.005 0.0606,0.0112 0.0811,0.0202 l -0.007,0.6258 c -0.0278,-0.003 -0.0623,-0.006 -0.10336,-0.0109 -0.0395,-0.005 -0.0736,-0.007 -0.10283,-0.007 -0.0893,0 -0.16244,0.0196 -0.21808,0.0584 -0.0556,0.0387 -0.0973,0.0955 -0.1266,0.17002 v 1.59835 h -0.62426 v -2.41846 h 0.58602 l 0.0181,0.26149 c 0.0469,-0.0968 0.10422,-0.17219 0.17157,-0.22583 0.0688,-0.0536 0.14728,-0.0806 0.23513,-0.0806 z m 2.75383,0 c 0.0922,0 0.17717,0.0168 0.25477,0.0496 0.0776,0.0313 0.14435,0.083 0.19999,0.15606 0.0556,0.073 0.099,0.16858 0.1297,0.28629 0.0308,0.1177 0.046,0.26222 0.046,0.43356 v 1.53789 h -0.62374 v -1.54047 c 0,-0.0775 -0.006,-0.14107 -0.0176,-0.19172 -0.0117,-0.0507 -0.0293,-0.0911 -0.0527,-0.12093 -0.022,-0.0298 -0.05,-0.0506 -0.0837,-0.0625 -0.0337,-0.0119 -0.0729,-0.0181 -0.11834,-0.0181 -0.0586,0 -0.11008,0.0162 -0.154,0.0475 -0.0439,0.0313 -0.0803,0.0741 -0.10955,0.12919 v 1.757 h -0.62374 v -2.41846 h 0.58395 l 0.0176,0.23927 c 0.0688,-0.0924 0.14959,-0.16265 0.24184,-0.21033 0.0922,-0.0492 0.19533,-0.0739 0.30954,-0.0739 z m 1.80299,0 c 0.11566,0 0.21403,0.0236 0.29456,0.0698 0.0805,0.0447 0.14848,0.10771 0.20412,0.18965 l 0.0243,-0.21446 h 0.56017 v 2.41847 c 0,0.16538 -0.0245,0.30714 -0.0729,0.42633 -0.0469,0.12068 -0.11308,0.22019 -0.19947,0.29766 -0.0864,0.0775 -0.19061,0.13432 -0.31213,0.17156 -0.12006,0.0373 -0.25416,0.0558 -0.40204,0.0558 -0.0556,0 -0.11714,-0.006 -0.18449,-0.0176 -0.0674,-0.0119 -0.1347,-0.0299 -0.20205,-0.0537 -0.0674,-0.0223 -0.13178,-0.0516 -0.19327,-0.0873 -0.06,-0.0343 -0.11041,-0.0748 -0.15141,-0.12247 l 0.20877,-0.43822 c 0.0278,0.0298 0.0606,0.0574 0.0987,0.0827 0.0395,0.0268 0.0805,0.0488 0.12299,0.0667 0.0439,0.0194 0.0896,0.0345 0.13643,0.045 0.0469,0.0119 0.092,0.0176 0.13591,0.0176 0.063,0 0.11859,-0.007 0.16691,-0.0217 0.0498,-0.0134 0.0914,-0.0376 0.12506,-0.0718 0.0337,-0.0343 0.0588,-0.0793 0.0749,-0.13591 0.0176,-0.0566 0.0264,-0.12747 0.0264,-0.21239 v -0.19482 c -0.0571,0.076 -0.12384,0.13502 -0.19998,0.17673 -0.0747,0.0402 -0.16253,0.0605 -0.26355,0.0605 -0.12592,0 -0.2384,-0.0258 -0.33797,-0.0765 -0.0981,-0.0507 -0.18181,-0.12491 -0.25063,-0.22324 -0.0674,-0.0983 -0.11946,-0.2198 -0.15606,-0.36432 -0.0366,-0.146 -0.0548,-0.31416 -0.0548,-0.50488 v -0.15864 c 0,-0.39631 0.0703,-0.69211 0.21084,-0.88729 0.14056,-0.19517 0.33736,-0.293 0.59066,-0.293 z m -13.18834,0.045 h 0.62374 v 2.41847 h -0.62374 z m 9.14311,0 h 0.62374 v 2.41847 h -0.62374 z m -26.62059,0.48061 c -0.10542,0 -0.18854,0.0534 -0.24857,0.16071 -0.0586,0.10578 -0.0879,0.26886 -0.0879,0.48938 v 0.15864 c 0,0.22497 0.0304,0.38973 0.0904,0.49403 0.06,0.1028 0.14322,0.15399 0.25011,0.15399 0.11274,0 0.19766,-0.0512 0.25476,-0.15399 0.0571,-0.10429 0.0858,-0.26906 0.0858,-0.49403 v -0.15864 c 0,-0.22051 -0.0299,-0.3836 -0.0899,-0.48938 -0.06,-0.10727 -0.14495,-0.16071 -0.25476,-0.16071 z m 7.24503,0 c -0.10542,0 -0.18802,0.0534 -0.24805,0.16071 -0.0586,0.10578 -0.0879,0.26886 -0.0879,0.48938 v 0.15864 c 0,0.22497 0.0299,0.38973 0.0899,0.49403 0.06,0.1028 0.14375,0.15399 0.25063,0.15399 0.11274,0 0.19767,-0.0512 0.25477,-0.15399 0.0571,-0.10429 0.0858,-0.26906 0.0858,-0.49403 v -0.15864 c 0,-0.22051 -0.0304,-0.3836 -0.0904,-0.48938 -0.06,-0.10727 -0.14496,-0.16071 -0.25477,-0.16071 z m 14.44253,0 c -0.10835,0 -0.18741,0.0394 -0.23719,0.11832 -0.0483,0.079 -0.0765,0.20551 -0.0853,0.37983 h 0.62115 v -0.0584 c -0.003,-0.14452 -0.0264,-0.25417 -0.0703,-0.32866 -0.0439,-0.0745 -0.12007,-0.1111 -0.22841,-0.1111 z m 2.15232,0 c -0.10835,0 -0.18741,0.0394 -0.23719,0.11832 -0.0483,0.079 -0.0765,0.20551 -0.0853,0.37983 h 0.62115 v -0.0584 c -0.003,-0.14452 -0.0264,-0.25417 -0.0703,-0.32866 -0.0439,-0.0745 -0.12006,-0.1111 -0.22841,-0.1111 z m -7.74371,0.004 c -0.12299,0 -0.21437,0.0517 -0.2744,0.15451 -0.0586,0.1028 -0.0879,0.26814 -0.0879,0.4961 v 0.15864 c 0,0.22348 0.0282,0.38658 0.0853,0.48939 0.0571,0.10131 0.14789,0.15192 0.27234,0.15192 0.0673,0 0.12411,-0.0118 0.1695,-0.0357 0.0468,-0.0253 0.0849,-0.0602 0.1142,-0.1049 v -1.15549 c -0.0307,-0.0492 -0.0699,-0.0874 -0.11679,-0.1142 -0.0454,-0.0268 -0.0993,-0.0403 -0.16226,-0.0403 z m 14.75207,0 c -0.12299,0 -0.21437,0.0517 -0.2744,0.15451 -0.0586,0.1028 -0.0878,0.26814 -0.0878,0.4961 v 0.15864 c 0,0.22348 0.0287,0.38658 0.0858,0.48939 0.0571,0.10131 0.14788,0.15192 0.27234,0.15192 0.0674,0 0.12359,-0.0118 0.16898,-0.0357 0.0468,-0.0253 0.0849,-0.0602 0.1142,-0.1049 v -1.15549 c -0.0307,-0.0492 -0.0694,-0.0874 -0.11627,-0.1142 -0.0454,-0.0268 -0.0998,-0.0403 -0.16278,-0.0403 z" /><path
         id="path150"
         style="fill:#2c2c6f;fill-opacity:1;stroke-width:0.264583"
         d="m 449.47592,110.14684 c -1.95262,0 -3.5357,1.6108 -3.5357,3.59772 v 3.30419 c 0,1.98692 1.58308,3.59771 3.5357,3.59771 h 40.38513 v -10.49962 z m 40.90293,0 v 10.49962 h 1.96474 v -10.49962 z m -28.39206,3.56723 h 0.62373 v 3.43286 h -0.62373 z m 9.16274,0.0537 c 0.0513,0 0.0975,0.007 0.1385,0.0238 0.0425,0.0164 0.0782,0.04 0.10748,0.0698 0.0293,0.0298 0.0521,0.0653 0.0682,0.10697 0.0161,0.0402 0.0243,0.0852 0.0243,0.13436 0,0.0492 -0.008,0.0942 -0.0243,0.13591 -0.0161,0.0402 -0.0389,0.0762 -0.0682,0.10749 -0.0293,0.0298 -0.065,0.0529 -0.10748,0.0692 -0.041,0.0164 -0.0872,0.0248 -0.1385,0.0248 -0.0512,0 -0.0981,-0.008 -0.14056,-0.0248 -0.041,-0.0164 -0.0761,-0.0394 -0.10542,-0.0692 -0.0293,-0.0313 -0.0516,-0.0673 -0.0677,-0.10749 -0.0161,-0.0417 -0.0243,-0.0867 -0.0243,-0.13591 0,-0.0492 0.008,-0.0941 0.0243,-0.13436 0.0161,-0.0417 0.0384,-0.0772 0.0677,-0.10697 0.0293,-0.0298 0.0644,-0.0534 0.10542,-0.0698 0.0425,-0.0164 0.0893,-0.0238 0.14056,-0.0238 z m 9.14311,0 c 0.0513,0 0.0975,0.007 0.1385,0.0238 0.0425,0.0164 0.0782,0.04 0.10748,0.0698 0.0293,0.0298 0.0521,0.0653 0.0682,0.10697 0.0161,0.0402 0.0243,0.0852 0.0243,0.13436 0,0.0492 -0.008,0.0942 -0.0243,0.13591 -0.0161,0.0402 -0.0389,0.0762 -0.0682,0.10749 -0.0293,0.0298 -0.065,0.0529 -0.10748,0.0692 -0.041,0.0164 -0.0872,0.0248 -0.1385,0.0248 -0.0513,0 -0.0981,-0.008 -0.14056,-0.0248 -0.041,-0.0164 -0.0761,-0.0394 -0.10542,-0.0692 -0.0293,-0.0313 -0.0521,-0.0673 -0.0682,-0.10749 -0.0161,-0.0417 -0.0238,-0.0867 -0.0238,-0.13591 0,-0.0492 0.008,-0.0941 0.0238,-0.13436 0.0161,-0.0417 0.0389,-0.0772 0.0682,-0.10697 0.0293,-0.0298 0.0644,-0.0534 0.10542,-0.0698 0.0425,-0.0164 0.0893,-0.0238 0.14056,-0.0238 z m -29.28245,0.0801 c 0.34847,0 0.61263,0.099 0.79272,0.29715 0.18156,0.19815 0.28465,0.48271 0.30954,0.85369 h -0.6475 c -0.003,-0.11621 -0.0134,-0.21295 -0.031,-0.29043 -0.0161,-0.079 -0.0419,-0.1414 -0.077,-0.18758 -0.0351,-0.0462 -0.0809,-0.0793 -0.13797,-0.0987 -0.0556,-0.0194 -0.12532,-0.0284 -0.20878,-0.0284 -0.0864,0 -0.1602,0.0146 -0.22169,0.0444 -0.06,0.0298 -0.10921,0.0782 -0.14728,0.14521 -0.0381,0.0656 -0.0667,0.15273 -0.0858,0.26149 -0.0176,0.10727 -0.0263,0.23888 -0.0263,0.39532 v 0.55914 c 0,0.15198 0.008,0.28083 0.0222,0.3881 0.0146,0.10726 0.0399,0.19552 0.0765,0.26407 0.0366,0.067 0.0852,0.11599 0.14521,0.14726 0.06,0.0313 0.13617,0.0476 0.22841,0.0476 0.0791,0 0.14641,-0.008 0.20205,-0.0248 0.0571,-0.0179 0.10395,-0.0483 0.14056,-0.0915 0.0366,-0.0432 0.0642,-0.10282 0.0832,-0.17881 0.019,-0.076 0.0308,-0.17266 0.0351,-0.28887 h 0.64596 c -0.0161,0.37098 -0.11861,0.65214 -0.30748,0.84285 -0.18888,0.1907 -0.45535,0.28628 -0.79943,0.28628 -0.17716,0 -0.33529,-0.0298 -0.47439,-0.0894 -0.13909,-0.0596 -0.25623,-0.14843 -0.3514,-0.26613 -0.0952,-0.1177 -0.16839,-0.26281 -0.21963,-0.43563 -0.0498,-0.17432 -0.0749,-0.37454 -0.0749,-0.601 v -0.55449 c 0,-0.22646 0.0257,-0.42668 0.077,-0.60099 0.0527,-0.17432 0.12824,-0.32051 0.22634,-0.43822 0.0981,-0.1177 0.21645,-0.20654 0.35554,-0.26613 0.1391,-0.0611 0.29601,-0.0915 0.47025,-0.0915 z m 13.14907,0.045 h 1.83142 v 0.54725 h -1.18598 v 0.76894 h 1.00614 v 0.52916 h -1.00614 v 0.863 h 1.19063 v 0.5457 h -1.83607 z m -7.13135,0.24133 h 0.62167 v 0.59427 h 0.31833 v 0.47594 h -0.31833 v 1.20045 c 0,0.0507 0.003,0.0923 0.009,0.12505 0.007,0.0328 0.0179,0.0582 0.0326,0.0775 0.0161,0.0179 0.036,0.0313 0.0594,0.0388 0.0234,0.006 0.0521,0.009 0.0858,0.009 0.0308,0 0.0583,-0.002 0.0832,-0.005 0.0264,-0.003 0.048,-0.007 0.0641,-0.0114 l -0.005,0.49196 c -0.0469,0.0179 -0.0972,0.0319 -0.15141,0.0424 -0.0542,0.0119 -0.11799,0.0181 -0.1912,0.0181 -0.0922,0 -0.17544,-0.014 -0.25012,-0.0408 -0.0747,-0.0253 -0.13909,-0.0664 -0.19327,-0.12299 -0.0527,-0.0581 -0.0937,-0.13236 -0.12299,-0.22324 -0.0278,-0.0909 -0.0419,-0.20002 -0.0419,-0.32815 v -1.27176 h -0.2744 v -0.47594 h 0.2744 z m -3.6654,0.54932 c 0.14788,0 0.28085,0.0264 0.39945,0.0785 0.11859,0.0507 0.21988,0.12549 0.30334,0.22531 0.0835,0.0998 0.14788,0.22297 0.19327,0.36896 0.0454,0.14601 0.0677,0.31413 0.0677,0.50334 v 0.15813 c 0,0.1907 -0.0223,0.35938 -0.0677,0.5054 -0.0439,0.14452 -0.10774,0.26656 -0.1912,0.36638 -0.0835,0.0998 -0.18474,0.17465 -0.30334,0.22531 -0.11859,0.0507 -0.25097,0.0765 -0.39739,0.0765 -0.14788,0 -0.28086,-0.0258 -0.39946,-0.0765 -0.1186,-0.0507 -0.21988,-0.12548 -0.30334,-0.22531 -0.0835,-0.0998 -0.14788,-0.22186 -0.19327,-0.36638 -0.0454,-0.14601 -0.0682,-0.3147 -0.0682,-0.5054 v -0.15813 c 0,-0.18921 0.0228,-0.35732 0.0682,-0.50334 0.0454,-0.14599 0.10981,-0.26913 0.19327,-0.36896 0.0835,-0.0998 0.18362,-0.17466 0.30076,-0.22531 0.1186,-0.0522 0.25149,-0.0785 0.39791,-0.0785 z m 2.48822,0 c 0.0922,0 0.17716,0.0168 0.25476,0.0496 0.0776,0.0313 0.14435,0.083 0.19999,0.15606 0.0556,0.073 0.0984,0.16858 0.12919,0.28629 0.0307,0.1177 0.0465,0.26222 0.0465,0.43356 v 1.53789 h -0.62374 v -1.54047 c 0,-0.0775 -0.006,-0.14107 -0.0176,-0.19172 -0.0117,-0.0507 -0.0293,-0.0911 -0.0527,-0.12093 -0.022,-0.0298 -0.05,-0.0506 -0.0837,-0.0625 -0.0337,-0.0119 -0.0729,-0.0181 -0.11834,-0.0181 -0.0586,0 -0.11008,0.0162 -0.154,0.0475 -0.0439,0.0313 -0.0803,0.0741 -0.10955,0.12919 v 1.757 h -0.62374 v -2.41846 h 0.58395 l 0.0176,0.23927 c 0.0688,-0.0924 0.14959,-0.16265 0.24184,-0.21033 0.0922,-0.0492 0.19534,-0.0739 0.30955,-0.0739 z m 3.46542,0 c 0.0278,0 0.0582,0.003 0.0904,0.009 0.0337,0.005 0.0606,0.0112 0.0811,0.0202 l -0.007,0.6258 c -0.0278,-0.003 -0.0624,-0.006 -0.10335,-0.0109 -0.0395,-0.005 -0.0735,-0.007 -0.10284,-0.007 -0.0893,0 -0.16192,0.0196 -0.21756,0.0584 -0.0556,0.0387 -0.0984,0.0955 -0.12764,0.17002 v 1.59835 h -0.62373 v -2.41846 h 0.58652 l 0.0181,0.26149 c 0.0468,-0.0968 0.10422,-0.17219 0.17157,-0.22583 0.0688,-0.0536 0.14676,-0.0806 0.23461,-0.0806 z m 1.29139,0 c 0.14788,0 0.28138,0.0264 0.39998,0.0785 0.1186,0.0507 0.21936,0.12549 0.30282,0.22531 0.0835,0.0998 0.14788,0.22297 0.19327,0.36896 0.0454,0.14601 0.0682,0.31413 0.0682,0.50334 v 0.15813 c 0,0.1907 -0.0228,0.35938 -0.0682,0.5054 -0.0439,0.14452 -0.10724,0.26656 -0.19069,0.36638 -0.0835,0.0998 -0.18475,0.17465 -0.30334,0.22531 -0.1186,0.0507 -0.25097,0.0765 -0.39739,0.0765 -0.14788,0 -0.28138,-0.0258 -0.39997,-0.0765 -0.1186,-0.0507 -0.21937,-0.12548 -0.30283,-0.22531 -0.0835,-0.0998 -0.14788,-0.22186 -0.19327,-0.36638 -0.0454,-0.14601 -0.0682,-0.3147 -0.0682,-0.5054 v -0.15813 c 0,-0.18921 0.0228,-0.35732 0.0682,-0.50334 0.0454,-0.14599 0.10981,-0.26913 0.19327,-0.36896 0.0835,-0.0998 0.18363,-0.17466 0.30076,-0.22531 0.1186,-0.0522 0.25098,-0.0785 0.39739,-0.0785 z m 6.86573,0 c 0.0922,0 0.17717,0.0168 0.25477,0.0496 0.0776,0.0313 0.14434,0.083 0.19998,0.15606 0.0556,0.073 0.0984,0.16858 0.1292,0.28629 0.0308,0.1177 0.0465,0.26222 0.0465,0.43356 v 1.53789 h -0.62373 v -1.54047 c 0,-0.0775 -0.006,-0.14107 -0.0176,-0.19172 -0.0117,-0.0507 -0.0293,-0.0911 -0.0527,-0.12093 -0.022,-0.0298 -0.05,-0.0506 -0.0837,-0.0625 -0.0337,-0.0119 -0.073,-0.0181 -0.11834,-0.0181 -0.0586,0 -0.11007,0.0162 -0.15399,0.0475 -0.0439,0.0313 -0.0803,0.0741 -0.10955,0.12919 v 1.757 h -0.62374 v -2.41846 h 0.58394 l 0.0176,0.23927 c 0.0688,-0.0924 0.14961,-0.16265 0.24185,-0.21033 0.0922,-0.0492 0.19534,-0.0739 0.30954,-0.0739 z m 1.80299,0 c 0.11567,0 0.21403,0.0236 0.29456,0.0698 0.0805,0.0447 0.14848,0.10771 0.20412,0.18965 l 0.0243,-0.21446 h 0.55965 v 2.41847 c 0,0.16538 -0.0239,0.30714 -0.0723,0.42633 -0.0469,0.12068 -0.1136,0.22019 -0.19999,0.29766 -0.0864,0.0775 -0.19008,0.13432 -0.31161,0.17156 -0.12006,0.0373 -0.25416,0.0558 -0.40204,0.0558 -0.0556,0 -0.11714,-0.006 -0.18449,-0.0176 -0.0674,-0.0119 -0.1347,-0.0299 -0.20205,-0.0537 -0.0674,-0.0223 -0.13178,-0.0516 -0.19327,-0.0873 -0.06,-0.0343 -0.11042,-0.0748 -0.15141,-0.12247 l 0.20877,-0.43822 c 0.0278,0.0298 0.0606,0.0574 0.0987,0.0827 0.0395,0.0268 0.0805,0.0488 0.12299,0.0667 0.0439,0.0194 0.0891,0.0345 0.13591,0.045 0.0468,0.0119 0.0925,0.0176 0.13643,0.0176 0.063,0 0.11859,-0.007 0.16691,-0.0217 0.0498,-0.0134 0.0914,-0.0376 0.12506,-0.0718 0.0337,-0.0343 0.0588,-0.0793 0.0749,-0.13591 0.0176,-0.0566 0.0264,-0.12747 0.0264,-0.21239 v -0.19482 c -0.0571,0.076 -0.12384,0.13502 -0.19998,0.17673 -0.0747,0.0402 -0.16252,0.0605 -0.26355,0.0605 -0.12592,0 -0.23893,-0.0258 -0.33849,-0.0765 -0.0981,-0.0507 -0.18129,-0.12491 -0.25011,-0.22324 -0.0673,-0.0983 -0.11946,-0.2198 -0.15606,-0.36432 -0.0366,-0.146 -0.0548,-0.31416 -0.0548,-0.50488 v -0.15864 c 0,-0.39631 0.0703,-0.69211 0.21084,-0.88729 0.14056,-0.19517 0.33736,-0.293 0.59066,-0.293 z m 3.80597,0 c 0.0922,0 0.17717,0.0168 0.25477,0.0496 0.0776,0.0313 0.14434,0.083 0.19998,0.15606 0.0556,0.073 0.099,0.16858 0.12971,0.28629 0.0307,0.1177 0.046,0.26222 0.046,0.43356 v 1.53789 h -0.62373 v -1.54047 c 0,-0.0775 -0.006,-0.14107 -0.0176,-0.19172 -0.0117,-0.0507 -0.0293,-0.0911 -0.0527,-0.12093 -0.022,-0.0298 -0.0495,-0.0506 -0.0832,-0.0625 -0.0337,-0.0119 -0.0735,-0.0181 -0.11886,-0.0181 -0.0586,0 -0.10954,0.0162 -0.15347,0.0475 -0.0439,0.0313 -0.0808,0.0741 -0.11007,0.12919 v 1.757 h -0.62374 v -2.41846 h 0.58446 l 0.0176,0.23927 c 0.0688,-0.0924 0.14909,-0.16265 0.24133,-0.21033 0.0922,-0.0492 0.19534,-0.0739 0.30954,-0.0739 z m 1.97249,0 c 0.30162,0 0.5277,0.099 0.67851,0.29714 0.15081,0.19815 0.22635,0.49222 0.22635,0.88108 v 0.28784 h -1.23662 c 0.004,0.0968 0.0167,0.17784 0.0372,0.24339 0.022,0.0656 0.0512,0.11894 0.0879,0.15917 0.0366,0.0402 0.0805,0.0695 0.13177,0.0873 0.0527,0.0179 0.11239,0.0264 0.17828,0.0264 0.10981,0 0.20706,-0.018 0.29198,-0.0553 0.0864,-0.0387 0.16252,-0.0927 0.22841,-0.16123 l 0.24391,0.38189 c -0.0307,0.0432 -0.0711,0.0865 -0.12092,0.12971 -0.0498,0.0417 -0.10835,0.0799 -0.1757,0.1142 -0.0674,0.0343 -0.14349,0.0618 -0.22841,0.0827 -0.0849,0.0223 -0.17804,0.0336 -0.27906,0.0336 -0.16252,0 -0.30662,-0.0258 -0.43253,-0.0765 -0.12592,-0.0507 -0.23195,-0.12325 -0.31833,-0.2186 -0.0864,-0.0953 -0.15253,-0.21173 -0.19792,-0.3488 -0.0439,-0.13857 -0.0656,-0.29549 -0.0656,-0.47129 v -0.19896 c 0,-0.19667 0.0211,-0.36876 0.0636,-0.51626 0.0439,-0.14898 0.10602,-0.27379 0.18655,-0.37362 0.082,-0.10131 0.18156,-0.17671 0.29869,-0.22737 0.1186,-0.0507 0.2527,-0.0765 0.40204,-0.0765 z m 2.15232,0 c 0.30161,0 0.52771,0.099 0.67852,0.29714 0.15081,0.19815 0.22634,0.49222 0.22634,0.88108 v 0.28784 h -1.23662 c 0.004,0.0968 0.0167,0.17784 0.0372,0.24339 0.022,0.0656 0.0512,0.11894 0.0879,0.15917 0.0366,0.0402 0.0805,0.0695 0.13177,0.0873 0.0527,0.0179 0.1124,0.0264 0.17829,0.0264 0.10981,0 0.20705,-0.018 0.29197,-0.0553 0.0864,-0.0387 0.16253,-0.0927 0.22841,-0.16123 l 0.24391,0.38189 c -0.0308,0.0432 -0.0711,0.0865 -0.12092,0.12971 -0.0498,0.0417 -0.10834,0.0799 -0.1757,0.1142 -0.0674,0.0343 -0.14348,0.0618 -0.22841,0.0827 -0.0849,0.0223 -0.17802,0.0336 -0.27905,0.0336 -0.16252,0 -0.30662,-0.0258 -0.43254,-0.0765 -0.12591,-0.0507 -0.23193,-0.12325 -0.31832,-0.2186 -0.0864,-0.0953 -0.15253,-0.21173 -0.19792,-0.3488 -0.0439,-0.13857 -0.0656,-0.29549 -0.0656,-0.47129 v -0.19896 c 0,-0.19667 0.0211,-0.36876 0.0636,-0.51626 0.0439,-0.14898 0.10603,-0.27379 0.18655,-0.37362 0.082,-0.10131 0.18156,-0.17671 0.29869,-0.22737 0.1186,-0.0507 0.25269,-0.0765 0.40204,-0.0765 z m 2.26447,0 c 0.0278,0 0.0577,0.003 0.0899,0.009 0.0337,0.005 0.0606,0.0112 0.0811,0.0202 l -0.007,0.6258 c -0.0278,-0.003 -0.0623,-0.006 -0.10336,-0.0109 -0.0395,-0.005 -0.0736,-0.007 -0.10283,-0.007 -0.0893,0 -0.16244,0.0196 -0.21808,0.0584 -0.0556,0.0387 -0.0973,0.0955 -0.1266,0.17002 v 1.59835 h -0.62426 v -2.41846 h 0.58602 l 0.0181,0.26149 c 0.0469,-0.0968 0.10422,-0.17219 0.17157,-0.22583 0.0688,-0.0536 0.14728,-0.0806 0.23513,-0.0806 z m 2.75383,0 c 0.0922,0 0.17717,0.0168 0.25477,0.0496 0.0776,0.0313 0.14435,0.083 0.19999,0.15606 0.0556,0.073 0.099,0.16858 0.1297,0.28629 0.0308,0.1177 0.046,0.26222 0.046,0.43356 v 1.53789 h -0.62374 v -1.54047 c 0,-0.0775 -0.006,-0.14107 -0.0176,-0.19172 -0.0117,-0.0507 -0.0293,-0.0911 -0.0527,-0.12093 -0.022,-0.0298 -0.05,-0.0506 -0.0837,-0.0625 -0.0337,-0.0119 -0.0729,-0.0181 -0.11834,-0.0181 -0.0586,0 -0.11008,0.0162 -0.154,0.0475 -0.0439,0.0313 -0.0803,0.0741 -0.10955,0.12919 v 1.757 h -0.62374 v -2.41846 h 0.58395 l 0.0176,0.23927 c 0.0688,-0.0924 0.14959,-0.16265 0.24184,-0.21033 0.0922,-0.0492 0.19533,-0.0739 0.30954,-0.0739 z m 1.80299,0 c 0.11566,0 0.21403,0.0236 0.29456,0.0698 0.0805,0.0447 0.14848,0.10771 0.20412,0.18965 l 0.0243,-0.21446 h 0.56017 v 2.41847 c 0,0.16538 -0.0245,0.30714 -0.0729,0.42633 -0.0469,0.12068 -0.11308,0.22019 -0.19947,0.29766 -0.0864,0.0775 -0.19061,0.13432 -0.31213,0.17156 -0.12006,0.0373 -0.25416,0.0558 -0.40204,0.0558 -0.0556,0 -0.11714,-0.006 -0.18449,-0.0176 -0.0674,-0.0119 -0.1347,-0.0299 -0.20205,-0.0537 -0.0674,-0.0223 -0.13178,-0.0516 -0.19327,-0.0873 -0.06,-0.0343 -0.11041,-0.0748 -0.15141,-0.12247 l 0.20877,-0.43822 c 0.0278,0.0298 0.0606,0.0574 0.0987,0.0827 0.0395,0.0268 0.0805,0.0488 0.12299,0.0667 0.0439,0.0194 0.0896,0.0345 0.13643,0.045 0.0469,0.0119 0.092,0.0176 0.13591,0.0176 0.063,0 0.11859,-0.007 0.16691,-0.0217 0.0498,-0.0134 0.0914,-0.0376 0.12506,-0.0718 0.0337,-0.0343 0.0588,-0.0793 0.0749,-0.13591 0.0176,-0.0566 0.0264,-0.12747 0.0264,-0.21239 v -0.19482 c -0.0571,0.076 -0.12384,0.13502 -0.19998,0.17673 -0.0747,0.0402 -0.16253,0.0605 -0.26355,0.0605 -0.12592,0 -0.2384,-0.0258 -0.33797,-0.0765 -0.0981,-0.0507 -0.18181,-0.12491 -0.25063,-0.22324 -0.0674,-0.0983 -0.11946,-0.2198 -0.15606,-0.36432 -0.0366,-0.146 -0.0548,-0.31416 -0.0548,-0.50488 v -0.15864 c 0,-0.39631 0.0703,-0.69211 0.21084,-0.88729 0.14056,-0.19517 0.33736,-0.293 0.59066,-0.293 z m -13.18834,0.045 h 0.62374 v 2.41847 h -0.62374 z m 9.14311,0 h 0.62374 v 2.41847 h -0.62374 z m -26.62059,0.48061 c -0.10542,0 -0.18854,0.0534 -0.24857,0.16071 -0.0586,0.10578 -0.0879,0.26886 -0.0879,0.48938 v 0.15864 c 0,0.22497 0.0304,0.38973 0.0904,0.49403 0.06,0.1028 0.14322,0.15399 0.25011,0.15399 0.11274,0 0.19766,-0.0512 0.25476,-0.15399 0.0571,-0.10429 0.0858,-0.26906 0.0858,-0.49403 v -0.15864 c 0,-0.22051 -0.0299,-0.3836 -0.0899,-0.48938 -0.06,-0.10727 -0.14495,-0.16071 -0.25476,-0.16071 z m 7.24503,0 c -0.10542,0 -0.18802,0.0534 -0.24805,0.16071 -0.0586,0.10578 -0.0879,0.26886 -0.0879,0.48938 v 0.15864 c 0,0.22497 0.0299,0.38973 0.0899,0.49403 0.06,0.1028 0.14375,0.15399 0.25063,0.15399 0.11274,0 0.19767,-0.0512 0.25477,-0.15399 0.0571,-0.10429 0.0858,-0.26906 0.0858,-0.49403 v -0.15864 c 0,-0.22051 -0.0304,-0.3836 -0.0904,-0.48938 -0.06,-0.10727 -0.14496,-0.16071 -0.25477,-0.16071 z m 14.44253,0 c -0.10835,0 -0.18741,0.0394 -0.23719,0.11832 -0.0483,0.079 -0.0765,0.20551 -0.0853,0.37983 h 0.62115 v -0.0584 c -0.003,-0.14452 -0.0264,-0.25417 -0.0703,-0.32866 -0.0439,-0.0745 -0.12007,-0.1111 -0.22841,-0.1111 z m 2.15232,0 c -0.10835,0 -0.18741,0.0394 -0.23719,0.11832 -0.0483,0.079 -0.0765,0.20551 -0.0853,0.37983 h 0.62115 v -0.0584 c -0.003,-0.14452 -0.0264,-0.25417 -0.0703,-0.32866 -0.0439,-0.0745 -0.12006,-0.1111 -0.22841,-0.1111 z m -7.74371,0.004 c -0.12299,0 -0.21437,0.0517 -0.2744,0.15451 -0.0586,0.1028 -0.0879,0.26814 -0.0879,0.4961 v 0.15864 c 0,0.22348 0.0282,0.38658 0.0853,0.48939 0.0571,0.10131 0.14789,0.15192 0.27234,0.15192 0.0673,0 0.12411,-0.0118 0.1695,-0.0357 0.0468,-0.0253 0.0849,-0.0602 0.1142,-0.1049 v -1.15549 c -0.0307,-0.0492 -0.0699,-0.0874 -0.11679,-0.1142 -0.0454,-0.0268 -0.0993,-0.0403 -0.16226,-0.0403 z m 14.75207,0 c -0.12299,0 -0.21437,0.0517 -0.2744,0.15451 -0.0586,0.1028 -0.0878,0.26814 -0.0878,0.4961 v 0.15864 c 0,0.22348 0.0287,0.38658 0.0858,0.48939 0.0571,0.10131 0.14788,0.15192 0.27234,0.15192 0.0674,0 0.12359,-0.0118 0.16898,-0.0357 0.0468,-0.0253 0.0849,-0.0602 0.1142,-0.1049 v -1.15549 c -0.0307,-0.0492 -0.0694,-0.0874 -0.11627,-0.1142 -0.0454,-0.0268 -0.0998,-0.0403 -0.16278,-0.0403 z" /></g></g></svg>
