<?xml version="1.0" encoding="UTF-8" standalone="no"?>
<!-- Created with Inkscape (http://www.inkscape.org/) -->

<svg
   width="26.295034mm"
   height="10.500135mm"
   viewBox="0 0 26.295034 10.500135"
   version="1.1"
   id="svg1"
   xml:space="preserve"
   inkscape:version="1.3.1 (91b66b0783, 2023-11-16)"
   sodipodi:docname="assets.svg"
   xmlns:inkscape="http://www.inkscape.org/namespaces/inkscape"
   xmlns:sodipodi="http://sodipodi.sourceforge.net/DTD/sodipodi-0.dtd"
   xmlns="http://www.w3.org/2000/svg"
   xmlns:svg="http://www.w3.org/2000/svg"><sodipodi:namedview
     id="namedview1"
     pagecolor="#ffffff"
     bordercolor="#000000"
     borderopacity="0.25"
     inkscape:showpageshadow="2"
     inkscape:pageopacity="0.0"
     inkscape:pagecheckerboard="0"
     inkscape:deskcolor="#d1d1d1"
     inkscape:document-units="mm"
     inkscape:zoom="1"
     inkscape:cx="1883.5"
     inkscape:cy="284.5"
     inkscape:window-width="2560"
     inkscape:window-height="1346"
     inkscape:window-x="-11"
     inkscape:window-y="-11"
     inkscape:window-maximized="1"
     inkscape:current-layer="layer1"
     showgrid="true"><inkscape:grid
       id="grid668"
       units="mm"
       originx="-426.95668"
       originy="-124.61601"
       spacingx="0.5"
       spacingy="0.5"
       empcolor="#0099e5"
       empopacity="0.30196078"
       color="#0099e5"
       opacity="0.14901961"
       empspacing="5"
       dotted="false"
       gridanglex="30"
       gridanglez="30"
       visible="true" /></sodipodi:namedview><defs
     id="defs1" /><g
     inkscape:label="Layer 1"
     inkscape:groupmode="layer"
     id="layer1"
     transform="translate(-426.95667,-124.61602)"><rect
       style="fill:#f9f9f9;stroke-width:0.499999;stroke-linejoin:round;stroke-miterlimit:3.4;stroke-dashoffset:19.8539"
       id="rect17"
       width="17.631355"
       height="7.1517849"
       x="429.86865"
       y="126.21391"
       inkscape:export-filename="topic_14.svg"
       inkscape:export-xdpi="96"
       inkscape:export-ydpi="96" /><path
       id="path749"
       style="fill:#2c2c6f;fill-opacity:1;stroke-width:0.264583"
       d="m 430.49239,124.61601 c -1.95261,0 -3.5357,1.61081 -3.5357,3.59772 v 3.30471 c 0,1.98692 1.58309,3.59771 3.5357,3.59771 h 20.2768 v -10.50014 z m 20.7946,0 v 10.50014 h 1.96474 v -10.50014 z m -12.33051,3.29799 h 0.6258 v 3.43287 h -0.56431 l -0.0284,-0.24598 c -0.06,0.0909 -0.13092,0.16231 -0.21291,0.21446 -0.0805,0.0507 -0.17363,0.0765 -0.27905,0.0765 -0.25184,0 -0.4439,-0.0995 -0.57568,-0.29766 -0.13031,-0.19815 -0.19533,-0.48887 -0.19533,-0.87178 v -0.15865 c 0,-0.39631 0.0661,-0.69159 0.19792,-0.88676 0.13177,-0.19517 0.32333,-0.29301 0.57516,-0.29301 0.0966,0 0.18215,0.0213 0.25683,0.0646 0.0761,0.0418 0.14289,0.10077 0.19999,0.17673 z m -7.05435,0.13333 v 5.2e-4 c 0.18156,0 0.33847,0.023 0.47025,0.0692 0.13177,0.0462 0.24133,0.11538 0.32918,0.20774 0.0879,0.0909 0.15521,0.20445 0.20206,0.34003 0.0468,0.13409 0.0767,0.28876 0.0899,0.46457 h -0.62787 c -0.009,-0.10281 -0.0234,-0.1883 -0.0439,-0.25683 -0.019,-0.0685 -0.0471,-0.12308 -0.0837,-0.1633 -0.0351,-0.0418 -0.0791,-0.0714 -0.13177,-0.0894 -0.0513,-0.0179 -0.11274,-0.0269 -0.18449,-0.0269 -0.0849,0 -0.15873,0.0153 -0.22169,0.0465 -0.063,0.0299 -0.11567,0.0793 -0.15813,0.1478 -0.041,0.0671 -0.0715,0.15476 -0.092,0.26355 -0.0205,0.10727 -0.031,0.23774 -0.031,0.39119 v 0.55448 c 0,0.15495 0.0111,0.286 0.0331,0.39326 0.0234,0.10727 0.058,0.19554 0.10335,0.26407 0.0469,0.0671 0.10542,0.11598 0.1757,0.14728 0.0703,0.0298 0.15288,0.0444 0.24805,0.0444 0.0571,0 0.10516,-0.004 0.14469,-0.0134 0.041,-0.009 0.0755,-0.0195 0.10335,-0.0315 0.0293,-0.0134 0.0527,-0.0264 0.0703,-0.0398 0.019,-0.0134 0.0354,-0.0246 0.0486,-0.0336 v -0.59686 h -0.45269 v -0.4961 h 1.10019 v 1.34307 c -0.0337,0.0372 -0.0788,0.08 -0.13591,0.12764 -0.0571,0.0477 -0.1291,0.0932 -0.21549,0.13643 -0.0849,0.0417 -0.18508,0.0765 -0.30075,0.1049 -0.11567,0.0299 -0.24865,0.045 -0.39946,0.045 -0.17863,0 -0.33969,-0.0288 -0.48318,-0.0853 -0.14349,-0.0566 -0.26648,-0.14266 -0.36897,-0.25735 -0.10249,-0.11473 -0.18155,-0.25873 -0.23719,-0.43305 -0.0542,-0.1758 -0.0816,-0.3822 -0.0816,-0.61909 v -0.54983 c 0,-0.23689 0.0264,-0.4427 0.0791,-0.61702 0.0527,-0.1758 0.12764,-0.32149 0.22427,-0.4377 0.0981,-0.11622 0.21643,-0.2028 0.35553,-0.25941 0.14056,-0.0566 0.2981,-0.0853 0.47233,-0.0853 z m 11.07787,0.83612 v 5.2e-4 c 0.13324,0 0.2527,0.0186 0.35812,0.0558 0.10688,0.0357 0.19767,0.0869 0.27234,0.154 0.0747,0.0655 0.13152,0.14537 0.17105,0.23926 0.0395,0.0924 0.0594,0.19528 0.0594,0.30851 h -0.62166 c 0,-0.0924 -0.0182,-0.1649 -0.0548,-0.21704 -0.0366,-0.0522 -0.0987,-0.078 -0.18655,-0.078 -0.0659,0 -0.12032,0.0207 -0.16278,0.0625 -0.0425,0.0417 -0.0636,0.0996 -0.0636,0.17415 0,0.0312 0.007,0.06 0.0196,0.0853 0.0146,0.0238 0.0375,0.0474 0.0682,0.0713 0.0322,0.0238 0.0738,0.0484 0.12506,0.0739 0.0512,0.0253 0.11447,0.0545 0.18914,0.0873 0.1186,0.0447 0.22108,0.0919 0.30747,0.14108 0.0878,0.0491 0.16045,0.10378 0.21756,0.16485 0.0571,0.0596 0.0993,0.12765 0.12712,0.2036 0.0278,0.076 0.0419,0.16373 0.0419,0.26355 0,0.10727 -0.0205,0.2046 -0.0615,0.29249 -0.041,0.0879 -0.0996,0.16325 -0.1757,0.22583 -0.0747,0.0626 -0.16545,0.112 -0.27234,0.14779 -0.10688,0.0343 -0.22635,0.0517 -0.35812,0.0517 -0.14496,0 -0.27319,-0.0229 -0.38447,-0.0677 -0.10981,-0.0462 -0.2018,-0.10639 -0.27647,-0.18087 -0.0747,-0.076 -0.13091,-0.1609 -0.16898,-0.25476 -0.0381,-0.0953 -0.0574,-0.19208 -0.0574,-0.29042 h 0.59066 c 0.001,0.0655 0.0103,0.11954 0.0264,0.16278 0.0161,0.0417 0.0377,0.0754 0.0641,0.10077 0.0278,0.0253 0.06,0.0428 0.0966,0.0532 0.0381,0.009 0.0791,0.014 0.12299,0.014 0.16692,0 0.25011,-0.077 0.25011,-0.23048 0,-0.0313 -0.008,-0.0594 -0.0243,-0.0848 -0.0146,-0.0268 -0.0386,-0.0526 -0.0723,-0.078 -0.0322,-0.0268 -0.0744,-0.0538 -0.12713,-0.0806 -0.0527,-0.0268 -0.11592,-0.0564 -0.18913,-0.0894 -0.10835,-0.0447 -0.20438,-0.0908 -0.28784,-0.13694 -0.0835,-0.0477 -0.15374,-0.10009 -0.21084,-0.15813 -0.0571,-0.0595 -0.0999,-0.12642 -0.12919,-0.19947 -0.0293,-0.0745 -0.0439,-0.15946 -0.0439,-0.25631 0,-0.10136 0.0182,-0.19631 0.0548,-0.28422 0.0381,-0.0894 0.092,-0.167 0.16227,-0.23255 0.0703,-0.0671 0.15633,-0.11931 0.25735,-0.15658 0.10249,-0.0388 0.2179,-0.0579 0.34674,-0.0579 z m -8.66407,5.2e-4 c 0.30162,0 0.52771,0.0989 0.67851,0.29714 0.15081,0.19816 0.22635,0.49171 0.22635,0.88057 v 0.28835 h -1.23662 c 0.004,0.0968 0.0167,0.17785 0.0372,0.2434 0.022,0.0655 0.0512,0.1184 0.0879,0.15864 0.0366,0.0402 0.0805,0.0695 0.13177,0.0873 0.0527,0.018 0.1124,0.0269 0.17829,0.0269 0.10982,0 0.20704,-0.0186 0.29197,-0.0558 0.0864,-0.0388 0.16252,-0.0922 0.22841,-0.16072 l 0.24391,0.38189 c -0.0308,0.0433 -0.0711,0.0865 -0.12092,0.12971 -0.0498,0.0417 -0.10835,0.08 -0.1757,0.11421 -0.0674,0.0343 -0.14349,0.0614 -0.22841,0.0822 -0.0849,0.0223 -0.17802,0.0341 -0.27905,0.0341 -0.16252,0 -0.30662,-0.0258 -0.43254,-0.0765 -0.12592,-0.0507 -0.23193,-0.12324 -0.31832,-0.21859 -0.0864,-0.0953 -0.15253,-0.21176 -0.19792,-0.34882 -0.0439,-0.13856 -0.0656,-0.29599 -0.0656,-0.47181 v -0.19843 c 0,-0.19666 0.0211,-0.36874 0.0636,-0.51625 0.0439,-0.14898 0.10602,-0.27379 0.18655,-0.37362 0.082,-0.10134 0.18155,-0.17724 0.29869,-0.22789 0.11859,-0.0507 0.25269,-0.076 0.40204,-0.076 z m 2.14354,0 c 0.14788,0 0.28086,0.0264 0.39946,0.0786 0.11859,0.0507 0.21988,0.12552 0.30334,0.22531 0.0835,0.0998 0.14788,0.22245 0.19327,0.36845 0.0454,0.14601 0.0682,0.31412 0.0682,0.50333 v 0.15813 c 0,0.19071 -0.0228,0.35941 -0.0682,0.5054 -0.0439,0.14453 -0.10774,0.26707 -0.1912,0.3669 -0.0835,0.0998 -0.18423,0.17465 -0.30283,0.22531 -0.1186,0.0507 -0.25148,0.0765 -0.3979,0.0765 -0.14788,0 -0.28086,-0.0258 -0.39946,-0.0765 -0.1186,-0.0507 -0.21988,-0.12551 -0.30334,-0.22531 -0.0835,-0.0998 -0.14788,-0.22237 -0.19327,-0.3669 -0.0454,-0.14599 -0.0677,-0.31469 -0.0677,-0.5054 v -0.15813 c 0,-0.18921 0.0223,-0.35732 0.0677,-0.50333 0.0454,-0.146 0.10981,-0.26862 0.19327,-0.36845 0.0835,-0.0998 0.18414,-0.17466 0.30127,-0.22531 0.1186,-0.0522 0.25097,-0.0786 0.39739,-0.0786 z m 4.4757,0 c 0.30162,0 0.52822,0.0989 0.67903,0.29714 0.15081,0.19816 0.22582,0.49171 0.22582,0.88057 v 0.28835 h -1.2361 c 0.004,0.0968 0.0167,0.17785 0.0372,0.2434 0.022,0.0655 0.0512,0.1184 0.0879,0.15864 0.0366,0.0402 0.0805,0.0695 0.13177,0.0873 0.0527,0.018 0.11188,0.0269 0.17777,0.0269 0.10981,0 0.20705,-0.0186 0.29197,-0.0558 0.0864,-0.0388 0.16252,-0.0922 0.22841,-0.16072 l 0.24391,0.38189 c -0.0307,0.0433 -0.0711,0.0865 -0.12092,0.12971 -0.0498,0.0417 -0.10835,0.08 -0.1757,0.11421 -0.0674,0.0343 -0.14349,0.0614 -0.22841,0.0822 -0.0849,0.0223 -0.1775,0.0341 -0.27853,0.0341 -0.16252,0 -0.30714,-0.0258 -0.43305,-0.0765 -0.12592,-0.0507 -0.23195,-0.12324 -0.31833,-0.21859 -0.0864,-0.0953 -0.15201,-0.21176 -0.1974,-0.34882 -0.0439,-0.13856 -0.0661,-0.29599 -0.0661,-0.47181 v -0.19843 c 0,-0.19666 0.0211,-0.36874 0.0636,-0.51625 0.0439,-0.14898 0.10655,-0.27379 0.18707,-0.37362 0.082,-0.10134 0.18156,-0.17724 0.29869,-0.22789 0.1186,-0.0507 0.25218,-0.076 0.40153,-0.076 z m 3.10782,0.0444 h 0.66766 l 0.28577,1.36581 0.31626,-1.36581 h 0.66301 l -0.78187,2.78019 c -0.0176,0.061 -0.0415,0.12742 -0.0723,0.19896 -0.0293,0.0715 -0.0697,0.13787 -0.12093,0.19895 -0.0512,0.0626 -0.11506,0.11374 -0.1912,0.154 -0.0761,0.0418 -0.16812,0.063 -0.27647,0.063 -0.0278,0 -0.053,-10e-4 -0.0749,-0.004 -0.0205,-9.9e-4 -0.0399,-0.003 -0.0589,-0.007 -0.0176,-0.003 -0.0363,-0.007 -0.0553,-0.0134 -0.019,-0.005 -0.0407,-0.0109 -0.0656,-0.0181 v -0.49351 c 0.0117,9.9e-4 0.0234,0.002 0.0351,0.002 h 0.0372 c 0.0498,0 0.0931,-0.005 0.12971,-0.016 0.0366,-0.009 0.0671,-0.0237 0.092,-0.0444 0.0264,-0.0208 0.048,-0.0477 0.0641,-0.0806 0.0176,-0.0313 0.0322,-0.0696 0.0439,-0.1142 l 0.0481,-0.16278 z m -9.73171,0.48059 c -0.10835,0 -0.18741,0.0394 -0.23719,0.11834 -0.0483,0.079 -0.0765,0.20603 -0.0853,0.38034 h 0.62115 v -0.0584 c -0.003,-0.14453 -0.0264,-0.25417 -0.0703,-0.32867 -0.0439,-0.0745 -0.12006,-0.11162 -0.22841,-0.11162 z m 2.14819,0 c -0.10542,0 -0.18802,0.0539 -0.24805,0.16123 -0.0586,0.10577 -0.0879,0.26888 -0.0879,0.48938 v 0.15813 c 0,0.22497 0.0299,0.39024 0.0899,0.49454 0.06,0.1028 0.14324,0.154 0.25012,0.154 0.11274,0 0.19766,-0.0512 0.25476,-0.154 0.0571,-0.1043 0.0858,-0.26957 0.0858,-0.49454 v -0.15813 c 0,-0.2205 -0.0299,-0.38361 -0.0899,-0.48938 -0.06,-0.10728 -0.14496,-0.16123 -0.25477,-0.16123 z m 4.47156,0 c -0.10835,0 -0.18741,0.0394 -0.23719,0.11834 -0.0483,0.079 -0.077,0.20603 -0.0858,0.38034 h 0.62166 v -0.0584 c -0.003,-0.14453 -0.0264,-0.25417 -0.0703,-0.32867 -0.0439,-0.0745 -0.12006,-0.11162 -0.22841,-0.11162 z m -2.25102,0.004 c -0.0615,0 -0.1136,0.0129 -0.15606,0.0382 -0.041,0.0253 -0.0749,0.0641 -0.10129,0.11627 -0.0264,0.0522 -0.0451,0.11968 -0.0568,0.20309 -0.0103,0.0819 -0.0155,0.17977 -0.0155,0.293 v 0.15865 c 0,0.11176 0.005,0.20789 0.0155,0.28836 0.0102,0.0805 0.0278,0.14738 0.0527,0.20102 0.0264,0.0522 0.0598,0.0909 0.10076,0.11627 0.0425,0.0238 0.0952,0.0357 0.15813,0.0357 0.0659,0 0.12153,-0.0148 0.16692,-0.0445 0.0454,-0.0299 0.0828,-0.0708 0.11214,-0.12299 v -1.10432 c -0.0293,-0.0566 -0.0674,-0.10003 -0.11421,-0.13126 -0.0454,-0.0312 -0.0993,-0.0475 -0.16226,-0.0475 z" /><path
       id="path161"
       style="fill:#2c2c6f;fill-opacity:1;stroke-width:0.264583"
       d="m 430.49239,124.61601 c -1.95261,0 -3.5357,1.61081 -3.5357,3.59772 v 3.30471 c 0,1.98692 1.58309,3.59771 3.5357,3.59771 h 20.2768 v -10.50014 z m 20.7946,0 v 10.50014 h 1.96474 v -10.50014 z m -12.33051,3.29799 h 0.6258 v 3.43287 h -0.56431 l -0.0284,-0.24598 c -0.06,0.0909 -0.13092,0.16231 -0.21291,0.21446 -0.0805,0.0507 -0.17363,0.0765 -0.27905,0.0765 -0.25184,0 -0.4439,-0.0995 -0.57568,-0.29766 -0.13031,-0.19815 -0.19533,-0.48887 -0.19533,-0.87178 v -0.15865 c 0,-0.39631 0.0661,-0.69159 0.19792,-0.88676 0.13177,-0.19517 0.32333,-0.29301 0.57516,-0.29301 0.0966,0 0.18215,0.0213 0.25683,0.0646 0.0761,0.0418 0.14289,0.10077 0.19999,0.17673 z m -7.05435,0.13333 v 5.2e-4 c 0.18156,0 0.33847,0.023 0.47025,0.0692 0.13177,0.0462 0.24133,0.11538 0.32918,0.20774 0.0879,0.0909 0.15521,0.20445 0.20206,0.34003 0.0468,0.13409 0.0767,0.28876 0.0899,0.46457 h -0.62787 c -0.009,-0.10281 -0.0234,-0.1883 -0.0439,-0.25683 -0.019,-0.0685 -0.0471,-0.12308 -0.0837,-0.1633 -0.0351,-0.0418 -0.0791,-0.0714 -0.13177,-0.0894 -0.0513,-0.0179 -0.11274,-0.0269 -0.18449,-0.0269 -0.0849,0 -0.15873,0.0153 -0.22169,0.0465 -0.063,0.0299 -0.11567,0.0793 -0.15813,0.1478 -0.041,0.0671 -0.0715,0.15476 -0.092,0.26355 -0.0205,0.10727 -0.031,0.23774 -0.031,0.39119 v 0.55448 c 0,0.15495 0.0111,0.286 0.0331,0.39326 0.0234,0.10727 0.058,0.19554 0.10335,0.26407 0.0469,0.0671 0.10542,0.11598 0.1757,0.14728 0.0703,0.0298 0.15288,0.0444 0.24805,0.0444 0.0571,0 0.10516,-0.004 0.14469,-0.0134 0.041,-0.009 0.0755,-0.0195 0.10335,-0.0315 0.0293,-0.0134 0.0527,-0.0264 0.0703,-0.0398 0.019,-0.0134 0.0354,-0.0246 0.0486,-0.0336 v -0.59686 h -0.45269 v -0.4961 h 1.10019 v 1.34307 c -0.0337,0.0372 -0.0788,0.08 -0.13591,0.12764 -0.0571,0.0477 -0.1291,0.0932 -0.21549,0.13643 -0.0849,0.0417 -0.18508,0.0765 -0.30075,0.1049 -0.11567,0.0299 -0.24865,0.045 -0.39946,0.045 -0.17863,0 -0.33969,-0.0288 -0.48318,-0.0853 -0.14349,-0.0566 -0.26648,-0.14266 -0.36897,-0.25735 -0.10249,-0.11473 -0.18155,-0.25873 -0.23719,-0.43305 -0.0542,-0.1758 -0.0816,-0.3822 -0.0816,-0.61909 v -0.54983 c 0,-0.23689 0.0264,-0.4427 0.0791,-0.61702 0.0527,-0.1758 0.12764,-0.32149 0.22427,-0.4377 0.0981,-0.11622 0.21643,-0.2028 0.35553,-0.25941 0.14056,-0.0566 0.2981,-0.0853 0.47233,-0.0853 z m 11.07787,0.83612 v 5.2e-4 c 0.13324,0 0.2527,0.0186 0.35812,0.0558 0.10688,0.0357 0.19767,0.0869 0.27234,0.154 0.0747,0.0655 0.13152,0.14537 0.17105,0.23926 0.0395,0.0924 0.0594,0.19528 0.0594,0.30851 h -0.62166 c 0,-0.0924 -0.0182,-0.1649 -0.0548,-0.21704 -0.0366,-0.0522 -0.0987,-0.078 -0.18655,-0.078 -0.0659,0 -0.12032,0.0207 -0.16278,0.0625 -0.0425,0.0417 -0.0636,0.0996 -0.0636,0.17415 0,0.0312 0.007,0.06 0.0196,0.0853 0.0146,0.0238 0.0375,0.0474 0.0682,0.0713 0.0322,0.0238 0.0738,0.0484 0.12506,0.0739 0.0512,0.0253 0.11447,0.0545 0.18914,0.0873 0.1186,0.0447 0.22108,0.0919 0.30747,0.14108 0.0878,0.0491 0.16045,0.10378 0.21756,0.16485 0.0571,0.0596 0.0993,0.12765 0.12712,0.2036 0.0278,0.076 0.0419,0.16373 0.0419,0.26355 0,0.10727 -0.0205,0.2046 -0.0615,0.29249 -0.041,0.0879 -0.0996,0.16325 -0.1757,0.22583 -0.0747,0.0626 -0.16545,0.112 -0.27234,0.14779 -0.10688,0.0343 -0.22635,0.0517 -0.35812,0.0517 -0.14496,0 -0.27319,-0.0229 -0.38447,-0.0677 -0.10981,-0.0462 -0.2018,-0.10639 -0.27647,-0.18087 -0.0747,-0.076 -0.13091,-0.1609 -0.16898,-0.25476 -0.0381,-0.0953 -0.0574,-0.19208 -0.0574,-0.29042 h 0.59066 c 0.001,0.0655 0.0103,0.11954 0.0264,0.16278 0.0161,0.0417 0.0377,0.0754 0.0641,0.10077 0.0278,0.0253 0.06,0.0428 0.0966,0.0532 0.0381,0.009 0.0791,0.014 0.12299,0.014 0.16692,0 0.25011,-0.077 0.25011,-0.23048 0,-0.0313 -0.008,-0.0594 -0.0243,-0.0848 -0.0146,-0.0268 -0.0386,-0.0526 -0.0723,-0.078 -0.0322,-0.0268 -0.0744,-0.0538 -0.12713,-0.0806 -0.0527,-0.0268 -0.11592,-0.0564 -0.18913,-0.0894 -0.10835,-0.0447 -0.20438,-0.0908 -0.28784,-0.13694 -0.0835,-0.0477 -0.15374,-0.10009 -0.21084,-0.15813 -0.0571,-0.0595 -0.0999,-0.12642 -0.12919,-0.19947 -0.0293,-0.0745 -0.0439,-0.15946 -0.0439,-0.25631 0,-0.10136 0.0182,-0.19631 0.0548,-0.28422 0.0381,-0.0894 0.092,-0.167 0.16227,-0.23255 0.0703,-0.0671 0.15633,-0.11931 0.25735,-0.15658 0.10249,-0.0388 0.2179,-0.0579 0.34674,-0.0579 z m -8.66407,5.2e-4 c 0.30162,0 0.52771,0.0989 0.67851,0.29714 0.15081,0.19816 0.22635,0.49171 0.22635,0.88057 v 0.28835 h -1.23662 c 0.004,0.0968 0.0167,0.17785 0.0372,0.2434 0.022,0.0655 0.0512,0.1184 0.0879,0.15864 0.0366,0.0402 0.0805,0.0695 0.13177,0.0873 0.0527,0.018 0.1124,0.0269 0.17829,0.0269 0.10982,0 0.20704,-0.0186 0.29197,-0.0558 0.0864,-0.0388 0.16252,-0.0922 0.22841,-0.16072 l 0.24391,0.38189 c -0.0308,0.0433 -0.0711,0.0865 -0.12092,0.12971 -0.0498,0.0417 -0.10835,0.08 -0.1757,0.11421 -0.0674,0.0343 -0.14349,0.0614 -0.22841,0.0822 -0.0849,0.0223 -0.17802,0.0341 -0.27905,0.0341 -0.16252,0 -0.30662,-0.0258 -0.43254,-0.0765 -0.12592,-0.0507 -0.23193,-0.12324 -0.31832,-0.21859 -0.0864,-0.0953 -0.15253,-0.21176 -0.19792,-0.34882 -0.0439,-0.13856 -0.0656,-0.29599 -0.0656,-0.47181 v -0.19843 c 0,-0.19666 0.0211,-0.36874 0.0636,-0.51625 0.0439,-0.14898 0.10602,-0.27379 0.18655,-0.37362 0.082,-0.10134 0.18155,-0.17724 0.29869,-0.22789 0.11859,-0.0507 0.25269,-0.076 0.40204,-0.076 z m 2.14354,0 c 0.14788,0 0.28086,0.0264 0.39946,0.0786 0.11859,0.0507 0.21988,0.12552 0.30334,0.22531 0.0835,0.0998 0.14788,0.22245 0.19327,0.36845 0.0454,0.14601 0.0682,0.31412 0.0682,0.50333 v 0.15813 c 0,0.19071 -0.0228,0.35941 -0.0682,0.5054 -0.0439,0.14453 -0.10774,0.26707 -0.1912,0.3669 -0.0835,0.0998 -0.18423,0.17465 -0.30283,0.22531 -0.1186,0.0507 -0.25148,0.0765 -0.3979,0.0765 -0.14788,0 -0.28086,-0.0258 -0.39946,-0.0765 -0.1186,-0.0507 -0.21988,-0.12551 -0.30334,-0.22531 -0.0835,-0.0998 -0.14788,-0.22237 -0.19327,-0.3669 -0.0454,-0.14599 -0.0677,-0.31469 -0.0677,-0.5054 v -0.15813 c 0,-0.18921 0.0223,-0.35732 0.0677,-0.50333 0.0454,-0.146 0.10981,-0.26862 0.19327,-0.36845 0.0835,-0.0998 0.18414,-0.17466 0.30127,-0.22531 0.1186,-0.0522 0.25097,-0.0786 0.39739,-0.0786 z m 4.4757,0 c 0.30162,0 0.52822,0.0989 0.67903,0.29714 0.15081,0.19816 0.22582,0.49171 0.22582,0.88057 v 0.28835 h -1.2361 c 0.004,0.0968 0.0167,0.17785 0.0372,0.2434 0.022,0.0655 0.0512,0.1184 0.0879,0.15864 0.0366,0.0402 0.0805,0.0695 0.13177,0.0873 0.0527,0.018 0.11188,0.0269 0.17777,0.0269 0.10981,0 0.20705,-0.0186 0.29197,-0.0558 0.0864,-0.0388 0.16252,-0.0922 0.22841,-0.16072 l 0.24391,0.38189 c -0.0307,0.0433 -0.0711,0.0865 -0.12092,0.12971 -0.0498,0.0417 -0.10835,0.08 -0.1757,0.11421 -0.0674,0.0343 -0.14349,0.0614 -0.22841,0.0822 -0.0849,0.0223 -0.1775,0.0341 -0.27853,0.0341 -0.16252,0 -0.30714,-0.0258 -0.43305,-0.0765 -0.12592,-0.0507 -0.23195,-0.12324 -0.31833,-0.21859 -0.0864,-0.0953 -0.15201,-0.21176 -0.1974,-0.34882 -0.0439,-0.13856 -0.0661,-0.29599 -0.0661,-0.47181 v -0.19843 c 0,-0.19666 0.0211,-0.36874 0.0636,-0.51625 0.0439,-0.14898 0.10655,-0.27379 0.18707,-0.37362 0.082,-0.10134 0.18156,-0.17724 0.29869,-0.22789 0.1186,-0.0507 0.25218,-0.076 0.40153,-0.076 z m 3.10782,0.0444 h 0.66766 l 0.28577,1.36581 0.31626,-1.36581 h 0.66301 l -0.78187,2.78019 c -0.0176,0.061 -0.0415,0.12742 -0.0723,0.19896 -0.0293,0.0715 -0.0697,0.13787 -0.12093,0.19895 -0.0512,0.0626 -0.11506,0.11374 -0.1912,0.154 -0.0761,0.0418 -0.16812,0.063 -0.27647,0.063 -0.0278,0 -0.053,-10e-4 -0.0749,-0.004 -0.0205,-9.9e-4 -0.0399,-0.003 -0.0589,-0.007 -0.0176,-0.003 -0.0363,-0.007 -0.0553,-0.0134 -0.019,-0.005 -0.0407,-0.0109 -0.0656,-0.0181 v -0.49351 c 0.0117,9.9e-4 0.0234,0.002 0.0351,0.002 h 0.0372 c 0.0498,0 0.0931,-0.005 0.12971,-0.016 0.0366,-0.009 0.0671,-0.0237 0.092,-0.0444 0.0264,-0.0208 0.048,-0.0477 0.0641,-0.0806 0.0176,-0.0313 0.0322,-0.0696 0.0439,-0.1142 l 0.0481,-0.16278 z m -9.73171,0.48059 c -0.10835,0 -0.18741,0.0394 -0.23719,0.11834 -0.0483,0.079 -0.0765,0.20603 -0.0853,0.38034 h 0.62115 v -0.0584 c -0.003,-0.14453 -0.0264,-0.25417 -0.0703,-0.32867 -0.0439,-0.0745 -0.12006,-0.11162 -0.22841,-0.11162 z m 2.14819,0 c -0.10542,0 -0.18802,0.0539 -0.24805,0.16123 -0.0586,0.10577 -0.0879,0.26888 -0.0879,0.48938 v 0.15813 c 0,0.22497 0.0299,0.39024 0.0899,0.49454 0.06,0.1028 0.14324,0.154 0.25012,0.154 0.11274,0 0.19766,-0.0512 0.25476,-0.154 0.0571,-0.1043 0.0858,-0.26957 0.0858,-0.49454 v -0.15813 c 0,-0.2205 -0.0299,-0.38361 -0.0899,-0.48938 -0.06,-0.10728 -0.14496,-0.16123 -0.25477,-0.16123 z m 4.47156,0 c -0.10835,0 -0.18741,0.0394 -0.23719,0.11834 -0.0483,0.079 -0.077,0.20603 -0.0858,0.38034 h 0.62166 v -0.0584 c -0.003,-0.14453 -0.0264,-0.25417 -0.0703,-0.32867 -0.0439,-0.0745 -0.12006,-0.11162 -0.22841,-0.11162 z m -2.25102,0.004 c -0.0615,0 -0.1136,0.0129 -0.15606,0.0382 -0.041,0.0253 -0.0749,0.0641 -0.10129,0.11627 -0.0264,0.0522 -0.0451,0.11968 -0.0568,0.20309 -0.0103,0.0819 -0.0155,0.17977 -0.0155,0.293 v 0.15865 c 0,0.11176 0.005,0.20789 0.0155,0.28836 0.0102,0.0805 0.0278,0.14738 0.0527,0.20102 0.0264,0.0522 0.0598,0.0909 0.10076,0.11627 0.0425,0.0238 0.0952,0.0357 0.15813,0.0357 0.0659,0 0.12153,-0.0148 0.16692,-0.0445 0.0454,-0.0299 0.0828,-0.0708 0.11214,-0.12299 v -1.10432 c -0.0293,-0.0566 -0.0674,-0.10003 -0.11421,-0.13126 -0.0454,-0.0312 -0.0993,-0.0475 -0.16226,-0.0475 z" /></g></svg>
