<?xml version="1.0" encoding="UTF-8" standalone="no"?>
<!-- Created with Inkscape (http://www.inkscape.org/) -->

<svg
   width="50.362816mm"
   height="10.500135mm"
   viewBox="0 0 50.362816 10.500135"
   version="1.1"
   id="svg1"
   xml:space="preserve"
   inkscape:version="1.3.1 (91b66b0783, 2023-11-16)"
   sodipodi:docname="assets.svg"
   xmlns:inkscape="http://www.inkscape.org/namespaces/inkscape"
   xmlns:sodipodi="http://sodipodi.sourceforge.net/DTD/sodipodi-0.dtd"
   xmlns="http://www.w3.org/2000/svg"
   xmlns:svg="http://www.w3.org/2000/svg"><sodipodi:namedview
     id="namedview1"
     pagecolor="#ffffff"
     bordercolor="#000000"
     borderopacity="0.25"
     inkscape:showpageshadow="2"
     inkscape:pageopacity="0.0"
     inkscape:pagecheckerboard="0"
     inkscape:deskcolor="#d1d1d1"
     inkscape:document-units="mm"
     inkscape:zoom="2.8284271"
     inkscape:cx="1041.3915"
     inkscape:cy="388.3784"
     inkscape:window-width="2560"
     inkscape:window-height="1346"
     inkscape:window-x="-11"
     inkscape:window-y="-11"
     inkscape:window-maximized="1"
     inkscape:current-layer="layer1"
     showgrid="true"><inkscape:grid
       id="grid668"
       units="mm"
       originx="-496.31283"
       originy="-110.14658"
       spacingx="0.5"
       spacingy="0.5"
       empcolor="#0099e5"
       empopacity="0.30196078"
       color="#0099e5"
       opacity="0.14901961"
       empspacing="5"
       dotted="false"
       gridanglex="30"
       gridanglez="30"
       visible="true" /></sodipodi:namedview><defs
     id="defs1" /><g
     inkscape:label="Layer 1"
     inkscape:groupmode="layer"
     id="layer1"
     transform="translate(-496.31285,-110.14658)"><g
       id="g14"><rect
         style="fill:#f9f9f9;stroke-width:0.499999;stroke-linejoin:round;stroke-miterlimit:3.4;stroke-dashoffset:19.8539"
         id="rect10"
         width="37.697754"
         height="6.4863281"
         x="499.04248"
         y="112.47768" /><path
         id="path754"
         style="fill:#2c2c6f;fill-opacity:1;stroke-width:0.264583"
         d="m 499.93901,110.14658 c -2.00263,0 -3.62614,1.61162 -3.62614,3.59874 v 3.30212 c 0,1.98712 1.62351,3.59927 3.62614,3.59927 h 39.23636 v -10.50013 z m 39.75416,0 v 10.50013 h 1.96474 v -10.50013 z m 2.48254,0 v 10.50013 h 1.99987 v -10.50013 z m 2.49959,0 v 10.50013 h 2.00039 v -10.50013 z m -37.43803,3.53053 c 0.0512,0 0.0975,0.008 0.13849,0.0232 0.0425,0.016 0.0782,0.0386 0.10749,0.0677 0.0293,0.0291 0.0521,0.0642 0.0682,0.10489 0.0161,0.0392 0.0243,0.0828 0.0243,0.13074 0,0.0479 -0.008,0.0922 -0.0243,0.13281 -0.0161,0.0392 -0.0389,0.0739 -0.0682,0.10439 -0.0293,0.0291 -0.065,0.0517 -0.10749,0.0677 -0.041,0.016 -0.0873,0.0243 -0.13849,0.0243 -0.0513,0 -0.0981,-0.008 -0.14056,-0.0243 -0.041,-0.016 -0.0761,-0.0386 -0.10542,-0.0677 -0.0293,-0.0305 -0.0521,-0.0652 -0.0682,-0.10439 -0.0161,-0.0407 -0.0238,-0.0848 -0.0238,-0.13281 0,-0.0479 0.008,-0.0916 0.0238,-0.13074 0.0161,-0.0407 0.0389,-0.0758 0.0682,-0.10489 0.0293,-0.0291 0.0644,-0.0517 0.10542,-0.0677 0.0425,-0.016 0.0893,-0.0232 0.14056,-0.0232 z m 13.3289,0 c 0.0512,0 0.0975,0.008 0.1385,0.0232 0.0425,0.016 0.0782,0.0386 0.10748,0.0677 0.0293,0.0291 0.0521,0.0642 0.0682,0.10489 0.0161,0.0392 0.0243,0.0828 0.0243,0.13074 0,0.0479 -0.008,0.0922 -0.0243,0.13281 -0.0161,0.0392 -0.0389,0.0739 -0.0682,0.10439 -0.0293,0.0291 -0.065,0.0517 -0.10748,0.0677 -0.041,0.016 -0.0872,0.0243 -0.1385,0.0243 -0.0513,0 -0.0981,-0.008 -0.14056,-0.0243 -0.041,-0.016 -0.0761,-0.0386 -0.10542,-0.0677 -0.0293,-0.0305 -0.0516,-0.0652 -0.0677,-0.10439 -0.0161,-0.0407 -0.0243,-0.0848 -0.0243,-0.13281 0,-0.0479 0.008,-0.0916 0.0243,-0.13074 0.0161,-0.0407 0.0384,-0.0758 0.0677,-0.10489 0.0293,-0.0291 0.0644,-0.0517 0.10542,-0.0677 0.0425,-0.016 0.0893,-0.0232 0.14056,-0.0232 z m 9.14311,0 c 0.0513,0 0.0975,0.008 0.1385,0.0232 0.0425,0.016 0.0782,0.0386 0.10748,0.0677 0.0293,0.0291 0.0521,0.0642 0.0682,0.10489 0.0161,0.0392 0.0243,0.0828 0.0243,0.13074 0,0.0479 -0.008,0.0922 -0.0243,0.13281 -0.0161,0.0392 -0.0389,0.0739 -0.0682,0.10439 -0.0293,0.0291 -0.065,0.0517 -0.10748,0.0677 -0.041,0.016 -0.0872,0.0243 -0.1385,0.0243 -0.0512,0 -0.0981,-0.008 -0.14056,-0.0243 -0.041,-0.016 -0.0761,-0.0386 -0.10542,-0.0677 -0.0293,-0.0305 -0.0521,-0.0652 -0.0682,-0.10439 -0.0161,-0.0407 -0.0238,-0.0848 -0.0238,-0.13281 0,-0.0479 0.008,-0.0916 0.0238,-0.13074 0.0161,-0.0407 0.0389,-0.0758 0.0682,-0.10489 0.0293,-0.0291 0.0644,-0.0517 0.10542,-0.0677 0.0425,-0.016 0.0893,-0.0232 0.14056,-0.0232 z m -29.51551,0.12195 h 0.84595 c 0.18448,0 0.352,0.0305 0.50281,0.0915 0.15227,0.0595 0.28171,0.14669 0.3886,0.26148 0.10834,0.11332 0.19207,0.25309 0.25064,0.42013 0.06,0.16561 0.0899,0.35543 0.0899,0.56897 v 0.49248 c 0,0.21353 -0.0293,0.40282 -0.0879,0.56844 -0.0586,0.16559 -0.14229,0.3064 -0.25063,0.42115 -0.10835,0.11332 -0.23839,0.19935 -0.39067,0.25891 -0.15227,0.0595 -0.32211,0.0894 -0.50953,0.0894 h -0.83923 z m 13.38213,0 h 1.83141 v 0.53382 h -1.18597 v 0.74931 h 1.00614 v 0.51626 h -1.00614 v 0.84128 h 1.19063 v 0.53175 h -1.83607 z m -12.73617,0.53382 v 2.10685 h 0.19327 c 0.1142,0 0.20912,-0.0143 0.28525,-0.0434 0.0761,-0.0305 0.13703,-0.0788 0.18242,-0.14419 0.0454,-0.0654 0.0776,-0.14893 0.0966,-0.25063 0.019,-0.10167 0.0284,-0.2241 0.0284,-0.36793 v -0.49713 c 0,-0.14526 -0.009,-0.26831 -0.0284,-0.37 -0.019,-0.10167 -0.0512,-0.18464 -0.0966,-0.24857 -0.0454,-0.0639 -0.10628,-0.11044 -0.18242,-0.13952 -0.0747,-0.0305 -0.16726,-0.0455 -0.27853,-0.0455 z m 28.04842,0.23616 v 5.2e-4 c 0.0278,0 0.0577,0.003 0.0899,0.009 0.0337,0.005 0.0606,0.0111 0.0811,0.0196 l -0.007,0.6103 c -0.0278,-0.003 -0.0623,-0.006 -0.10336,-0.0109 -0.0395,-0.005 -0.0736,-0.007 -0.10283,-0.007 -0.0893,0 -0.16244,0.0186 -0.21808,0.0563 -0.0556,0.0378 -0.0973,0.0933 -0.1266,0.16588 v 1.55805 h -0.62426 v -2.358 h 0.58601 l 0.0181,0.25528 c 0.0469,-0.0944 0.10422,-0.16785 0.17157,-0.22014 0.0688,-0.0523 0.14728,-0.0785 0.23513,-0.0785 z m -23.24303,5.2e-4 v 5.2e-4 c 0.13324,0 0.2527,0.018 0.35812,0.0543 0.10688,0.0348 0.19766,0.085 0.27233,0.15038 0.0747,0.0639 0.13152,0.14152 0.17105,0.23307 0.0395,0.0901 0.0594,0.19086 0.0594,0.30126 h -0.62167 c 0,-0.0901 -0.0182,-0.16104 -0.0548,-0.21187 -0.0366,-0.0509 -0.0992,-0.076 -0.18706,-0.076 -0.0659,0 -0.11981,0.0203 -0.16227,0.061 -0.0425,0.0407 -0.0636,0.0973 -0.0636,0.17 0,0.0305 0.006,0.058 0.0196,0.0827 0.0146,0.0232 0.0375,0.0465 0.0682,0.0698 0.0322,0.0232 0.0738,0.0471 0.12506,0.0718 0.0513,0.0247 0.11395,0.0533 0.18862,0.0853 0.1186,0.0436 0.22109,0.089 0.30747,0.13694 0.0878,0.0479 0.16046,0.10169 0.21756,0.16123 0.0571,0.0581 0.0998,0.12438 0.12764,0.19844 0.0278,0.0741 0.0413,0.1595 0.0413,0.25683 0,0.10459 -0.02,0.20006 -0.061,0.28577 -0.041,0.0857 -0.0996,0.15861 -0.1757,0.21962 -0.0747,0.061 -0.16545,0.10929 -0.27233,0.14418 -0.10689,0.0334 -0.22635,0.0501 -0.35812,0.0501 -0.14495,0 -0.2732,-0.022 -0.38447,-0.0656 -0.10982,-0.0451 -0.2018,-0.10359 -0.27647,-0.17622 -0.0747,-0.0741 -0.13143,-0.15705 -0.1695,-0.24856 -0.0381,-0.093 -0.0568,-0.18732 -0.0568,-0.28319 h 0.59066 c 0.002,0.0639 0.0103,0.11703 0.0263,0.15917 0.0161,0.0407 0.0372,0.073 0.0636,0.0977 0.0278,0.0247 0.06,0.0421 0.0966,0.0522 0.0381,0.009 0.0791,0.0134 0.12299,0.0134 0.16692,0 0.25063,-0.0751 0.25063,-0.22479 0,-0.0305 -0.008,-0.0575 -0.0243,-0.0822 -0.0146,-0.0261 -0.0387,-0.0518 -0.0724,-0.0765 -0.0322,-0.0261 -0.0749,-0.0523 -0.12764,-0.0785 -0.0527,-0.0261 -0.11541,-0.0553 -0.18862,-0.0873 -0.10835,-0.0435 -0.20437,-0.0883 -0.28783,-0.13332 -0.0835,-0.0465 -0.15373,-0.0974 -0.21084,-0.154 -0.0571,-0.0581 -0.10043,-0.12317 -0.12971,-0.1943 -0.0293,-0.0726 -0.0439,-0.15622 -0.0439,-0.25063 0,-0.0988 0.0182,-0.19076 0.0548,-0.27647 0.0381,-0.0871 0.0925,-0.16294 0.16278,-0.22686 0.0703,-0.0654 0.1558,-0.11612 0.25683,-0.15245 0.10249,-0.0378 0.21843,-0.0568 0.34727,-0.0568 z m -2.04484,5.2e-4 c 0.30162,0 0.5277,0.0966 0.67851,0.2899 0.15081,0.1932 0.22635,0.47921 0.22635,0.85835 v 0.28112 h -1.23662 c 0.004,0.0945 0.0172,0.17328 0.0377,0.23719 0.022,0.0639 0.0512,0.11578 0.0879,0.15503 0.0366,0.0392 0.0805,0.0679 0.13178,0.0853 0.0527,0.0175 0.11188,0.0258 0.17777,0.0258 0.10982,0 0.20704,-0.018 0.29197,-0.0543 0.0864,-0.0378 0.16252,-0.0898 0.22841,-0.15658 l 0.24391,0.37207 c -0.0308,0.0422 -0.0711,0.0845 -0.12092,0.12661 -0.0498,0.0407 -0.10835,0.0778 -0.1757,0.11111 -0.0673,0.0334 -0.14349,0.0602 -0.22841,0.0806 -0.0849,0.0217 -0.17802,0.0326 -0.27905,0.0326 -0.16252,0 -0.30662,-0.0245 -0.43254,-0.0739 -0.12592,-0.0494 -0.23193,-0.12047 -0.31832,-0.21342 -0.0864,-0.093 -0.15253,-0.20639 -0.19792,-0.34003 -0.0439,-0.13508 -0.0656,-0.28851 -0.0656,-0.45992 v -0.19379 c 0,-0.19175 0.0211,-0.35952 0.0636,-0.50333 0.0439,-0.14527 0.10602,-0.267 0.18655,-0.36432 0.082,-0.0988 0.18156,-0.1723 0.29869,-0.22169 0.1186,-0.0494 0.25269,-0.0744 0.40204,-0.0744 z m 5.15886,0 c 0.11567,0 0.21403,0.0226 0.29456,0.0677 0.0805,0.0436 0.14848,0.10512 0.20412,0.185 l 0.0243,-0.20929 h 0.56017 v 2.358 c 0,0.16124 -0.0245,0.29979 -0.0729,0.41599 -0.0469,0.11767 -0.11309,0.21437 -0.19948,0.28991 -0.0864,0.0755 -0.1906,0.13164 -0.31212,0.16795 -0.12007,0.0363 -0.25416,0.0543 -0.40204,0.0543 -0.0556,0 -0.11714,-0.006 -0.18449,-0.0176 -0.0673,-0.0116 -0.13469,-0.029 -0.20205,-0.0522 -0.0674,-0.0217 -0.13177,-0.0504 -0.19327,-0.0853 -0.06,-0.0334 -0.11042,-0.0728 -0.15142,-0.11937 l 0.20878,-0.42685 c 0.0278,0.0291 0.0606,0.0554 0.0987,0.0801 0.0395,0.0261 0.0805,0.0486 0.12299,0.0661 0.0439,0.0188 0.0896,0.0331 0.13643,0.0434 0.0469,0.0116 0.092,0.0176 0.1359,0.0176 0.063,0 0.11861,-0.008 0.16692,-0.0222 0.0498,-0.0131 0.0914,-0.0364 0.12506,-0.0698 0.0337,-0.0334 0.0588,-0.0776 0.0749,-0.13281 0.0176,-0.0553 0.0263,-0.12394 0.0263,-0.20671 v -0.19017 c -0.0571,0.0741 -0.12385,0.13193 -0.19999,0.1726 -0.0747,0.0392 -0.16252,0.0589 -0.26355,0.0589 -0.12591,0 -0.23891,-0.025 -0.33848,-0.0744 -0.0981,-0.0494 -0.18129,-0.12222 -0.25011,-0.21807 -0.0674,-0.0958 -0.11946,-0.21411 -0.15606,-0.35502 -0.0366,-0.14236 -0.0548,-0.30655 -0.0548,-0.49248 v -0.15451 c 0,-0.3864 0.0703,-0.67476 0.21084,-0.86506 0.14056,-0.19029 0.33736,-0.28577 0.59066,-0.28577 z m 2.67322,0 c 0.0922,0 0.17717,0.0162 0.25477,0.048 0.0776,0.0305 0.14383,0.0813 0.19947,0.15245 0.0556,0.0712 0.099,0.16429 0.12971,0.27905 0.0308,0.11476 0.046,0.25566 0.046,0.42272 v 1.49913 h -0.62374 v -1.50172 c 0,-0.0755 -0.006,-0.13767 -0.0176,-0.18707 -0.0117,-0.0494 -0.0293,-0.0888 -0.0527,-0.11782 -0.022,-0.0291 -0.0495,-0.0494 -0.0832,-0.061 -0.0337,-0.0116 -0.0735,-0.0176 -0.11886,-0.0176 -0.0586,0 -0.10955,0.0151 -0.15348,0.0455 -0.0439,0.0305 -0.0808,0.0729 -0.11007,0.12661 v 1.71255 h -0.62373 v -2.35748 h 0.58446 l 0.0176,0.23358 c 0.0688,-0.0901 0.14908,-0.15867 0.24132,-0.20515 0.0922,-0.0479 0.19586,-0.0718 0.31006,-0.0718 z m 5.45755,0 c 0.0922,0 0.17717,0.0162 0.25477,0.048 0.0776,0.0305 0.14434,0.0813 0.19998,0.15245 0.0556,0.0712 0.0984,0.16429 0.12919,0.27905 0.0308,0.11476 0.0465,0.25566 0.0465,0.42272 v 1.49913 h -0.62373 v -1.50172 c 0,-0.0755 -0.006,-0.13767 -0.0176,-0.18707 -0.0117,-0.0494 -0.0293,-0.0888 -0.0527,-0.11782 -0.022,-0.0291 -0.05,-0.0494 -0.0837,-0.061 -0.0337,-0.0116 -0.0729,-0.0176 -0.11834,-0.0176 -0.0586,0 -0.11007,0.0151 -0.15399,0.0455 -0.0439,0.0305 -0.0803,0.0729 -0.10956,0.12661 v 1.71255 H 515.737 v -2.35748 h 0.58394 l 0.0176,0.23358 c 0.0688,-0.0901 0.14961,-0.15867 0.24185,-0.20515 0.0922,-0.0479 0.19534,-0.0718 0.30954,-0.0718 z m 1.80299,0 c 0.11567,0 0.21403,0.0226 0.29456,0.0677 0.0805,0.0436 0.14848,0.10512 0.20412,0.185 l 0.0243,-0.20929 h 0.55965 v 2.358 c 0,0.16124 -0.0239,0.29979 -0.0723,0.41599 -0.0468,0.11767 -0.11361,0.21437 -0.19999,0.28991 -0.0864,0.0755 -0.19008,0.13164 -0.31161,0.16795 -0.12006,0.0363 -0.25416,0.0543 -0.40204,0.0543 -0.0556,0 -0.11714,-0.006 -0.18449,-0.0176 -0.0674,-0.0116 -0.1347,-0.029 -0.20205,-0.0522 -0.0674,-0.0217 -0.13178,-0.0504 -0.19327,-0.0853 -0.06,-0.0334 -0.11042,-0.0728 -0.15141,-0.11937 l 0.20877,-0.42685 c 0.0278,0.0291 0.0606,0.0554 0.0987,0.0801 0.0395,0.0261 0.0805,0.0486 0.12299,0.0661 0.0439,0.0188 0.0891,0.0331 0.13591,0.0434 0.0469,0.0116 0.0925,0.0176 0.13642,0.0176 0.063,0 0.1186,-0.008 0.16692,-0.0222 0.0498,-0.0131 0.0914,-0.0364 0.12506,-0.0698 0.0337,-0.0334 0.0588,-0.0776 0.0749,-0.13281 0.0176,-0.0553 0.0263,-0.12394 0.0263,-0.20671 v -0.19017 c -0.0571,0.0741 -0.12385,0.13193 -0.19999,0.1726 -0.0747,0.0392 -0.16252,0.0589 -0.26355,0.0589 -0.12592,0 -0.23892,-0.025 -0.33848,-0.0744 -0.0981,-0.0494 -0.18129,-0.12222 -0.25011,-0.21807 -0.0674,-0.0958 -0.11946,-0.21411 -0.15606,-0.35502 -0.0366,-0.14236 -0.0548,-0.30655 -0.0548,-0.49248 v -0.15451 c 0,-0.3864 0.0703,-0.67476 0.21084,-0.86506 0.14056,-0.19029 0.33736,-0.28577 0.59066,-0.28577 z m 3.80597,0 c 0.0922,0 0.17717,0.0162 0.25477,0.048 0.0776,0.0305 0.14434,0.0813 0.19998,0.15245 0.0556,0.0712 0.099,0.16429 0.12971,0.27905 0.0307,0.11476 0.046,0.25566 0.046,0.42272 v 1.49913 h -0.62373 v -1.50172 c 0,-0.0755 -0.006,-0.13767 -0.0176,-0.18707 -0.0117,-0.0494 -0.0293,-0.0888 -0.0527,-0.11782 -0.022,-0.0291 -0.0495,-0.0494 -0.0832,-0.061 -0.0337,-0.0116 -0.0735,-0.0176 -0.11886,-0.0176 -0.0586,0 -0.10954,0.0151 -0.15347,0.0455 -0.0439,0.0305 -0.0808,0.0729 -0.11008,0.12661 v 1.71255 h -0.62373 v -2.35748 h 0.58446 l 0.0176,0.23358 c 0.0688,-0.0901 0.14908,-0.15867 0.24133,-0.20515 0.0922,-0.0479 0.19533,-0.0718 0.30954,-0.0718 z m 1.97249,0 c 0.30162,0 0.5277,0.0966 0.67851,0.2899 0.15081,0.1932 0.22634,0.47921 0.22634,0.85835 v 0.28112 h -1.23661 c 0.004,0.0945 0.0167,0.17328 0.0372,0.23719 0.022,0.0639 0.0512,0.11578 0.0879,0.15503 0.0366,0.0392 0.0805,0.0679 0.13178,0.0853 0.0527,0.0175 0.11239,0.0258 0.17828,0.0258 0.10981,0 0.20706,-0.018 0.29198,-0.0543 0.0864,-0.0378 0.16252,-0.0898 0.22841,-0.15658 l 0.24391,0.37207 c -0.0307,0.0422 -0.0711,0.0845 -0.12092,0.12661 -0.0498,0.0407 -0.10835,0.0778 -0.1757,0.11111 -0.0674,0.0334 -0.14349,0.0602 -0.22841,0.0806 -0.0849,0.0217 -0.17804,0.0326 -0.27906,0.0326 -0.16253,0 -0.30662,-0.0245 -0.43253,-0.0739 -0.12592,-0.0494 -0.23195,-0.12047 -0.31833,-0.21342 -0.0864,-0.093 -0.15253,-0.20639 -0.19792,-0.34003 -0.0439,-0.13508 -0.0656,-0.28851 -0.0656,-0.45992 v -0.19379 c 0,-0.19175 0.0211,-0.35952 0.0636,-0.50333 0.0439,-0.14527 0.10602,-0.267 0.18655,-0.36432 0.082,-0.0988 0.18156,-0.1723 0.29869,-0.22169 0.1186,-0.0494 0.2527,-0.0744 0.40204,-0.0744 z m 2.15232,0 c 0.30161,0 0.52771,0.0966 0.67852,0.2899 0.15081,0.1932 0.22634,0.47921 0.22634,0.85835 v 0.28112 h -1.23662 c 0.004,0.0945 0.0167,0.17328 0.0372,0.23719 0.022,0.0639 0.0512,0.11578 0.0879,0.15503 0.0366,0.0392 0.0805,0.0679 0.13177,0.0853 0.0527,0.0175 0.1124,0.0258 0.17829,0.0258 0.10981,0 0.20705,-0.018 0.29197,-0.0543 0.0864,-0.0378 0.16253,-0.0898 0.22841,-0.15658 l 0.24391,0.37207 c -0.0307,0.0422 -0.0711,0.0845 -0.12092,0.12661 -0.0498,0.0407 -0.10834,0.0778 -0.1757,0.11111 -0.0674,0.0334 -0.14348,0.0602 -0.22841,0.0806 -0.0849,0.0217 -0.17802,0.0326 -0.27905,0.0326 -0.16252,0 -0.30662,-0.0245 -0.43254,-0.0739 -0.12592,-0.0494 -0.23193,-0.12047 -0.31832,-0.21342 -0.0864,-0.093 -0.15253,-0.20639 -0.19792,-0.34003 -0.0439,-0.13508 -0.0656,-0.28851 -0.0656,-0.45992 v -0.19379 c 0,-0.19175 0.0211,-0.35952 0.0636,-0.50333 0.0439,-0.14527 0.10603,-0.267 0.18655,-0.36432 0.082,-0.0988 0.18156,-0.1723 0.29869,-0.22169 0.1186,-0.0494 0.25269,-0.0744 0.40204,-0.0744 z m 5.0183,0 c 0.0922,0 0.17717,0.0162 0.25477,0.048 0.0776,0.0305 0.14434,0.0813 0.19998,0.15245 0.0556,0.0712 0.099,0.16429 0.12971,0.27905 0.0307,0.11476 0.046,0.25566 0.046,0.42272 v 1.49913 h -0.62373 v -1.50172 c 0,-0.0755 -0.006,-0.13767 -0.0176,-0.18707 -0.0117,-0.0494 -0.0293,-0.0888 -0.0527,-0.11782 -0.022,-0.0291 -0.05,-0.0494 -0.0837,-0.061 -0.0337,-0.0116 -0.073,-0.0176 -0.11833,-0.0176 -0.0586,0 -0.11008,0.0151 -0.154,0.0455 -0.0439,0.0305 -0.0803,0.0729 -0.10955,0.12661 v 1.71255 h -0.62374 v -2.35748 h 0.58394 l 0.0176,0.23358 c 0.0688,-0.0901 0.1496,-0.15867 0.24185,-0.20515 0.0922,-0.0479 0.19533,-0.0718 0.30954,-0.0718 z m 1.80299,0 c 0.11567,0 0.21403,0.0226 0.29456,0.0677 0.0805,0.0436 0.14848,0.10512 0.20412,0.185 l 0.0243,-0.20929 h 0.56017 v 2.358 c 0,0.16124 -0.0245,0.29979 -0.0729,0.41599 -0.0468,0.11767 -0.11308,0.21437 -0.19947,0.28991 -0.0864,0.0755 -0.19061,0.13164 -0.31213,0.16795 -0.12006,0.0363 -0.25416,0.0543 -0.40204,0.0543 -0.0556,0 -0.11714,-0.006 -0.18449,-0.0176 -0.0674,-0.0116 -0.1347,-0.029 -0.20205,-0.0522 -0.0674,-0.0217 -0.13178,-0.0504 -0.19327,-0.0853 -0.06,-0.0334 -0.11041,-0.0728 -0.15141,-0.11937 l 0.20877,-0.42685 c 0.0278,0.0291 0.0606,0.0554 0.0987,0.0801 0.0395,0.0261 0.0805,0.0486 0.12299,0.0661 0.0439,0.0188 0.0896,0.0331 0.13643,0.0434 0.0469,0.0116 0.092,0.0176 0.13591,0.0176 0.063,0 0.11859,-0.008 0.16691,-0.0222 0.0498,-0.0131 0.0914,-0.0364 0.12506,-0.0698 0.0337,-0.0334 0.0588,-0.0776 0.0749,-0.13281 0.0176,-0.0553 0.0264,-0.12394 0.0264,-0.20671 v -0.19017 c -0.0571,0.0741 -0.12384,0.13193 -0.19998,0.1726 -0.0747,0.0392 -0.16253,0.0589 -0.26355,0.0589 -0.12592,0 -0.2384,-0.025 -0.33797,-0.0744 -0.0981,-0.0494 -0.18181,-0.12222 -0.25063,-0.21807 -0.0674,-0.0958 -0.11946,-0.21411 -0.15606,-0.35502 -0.0366,-0.14236 -0.0548,-0.30655 -0.0548,-0.49248 v -0.15451 c 0,-0.3864 0.0703,-0.67476 0.21084,-0.86506 0.14056,-0.19029 0.33736,-0.28577 0.59066,-0.28577 z m -26.51724,0.0434 h 0.62373 v 2.358 h -0.62373 z m 13.3289,0 h 0.62374 v 2.358 h -0.62374 z m 9.14311,0 h 0.62374 v 2.358 h -0.62374 z m -25.80359,0.46871 c -0.10835,0 -0.18742,0.0383 -0.2372,0.11524 -0.0483,0.077 -0.077,0.20108 -0.0858,0.37103 h 0.62167 v -0.0574 c -0.003,-0.1409 -0.0264,-0.24776 -0.0703,-0.32039 -0.0439,-0.0726 -0.12006,-0.10852 -0.22841,-0.10852 z m 20.87056,0 c -0.10835,0 -0.18742,0.0383 -0.2372,0.11524 -0.0483,0.077 -0.0765,0.20108 -0.0853,0.37103 h 0.62115 v -0.0574 c -0.003,-0.1409 -0.0264,-0.24776 -0.0703,-0.32039 -0.0439,-0.0726 -0.12007,-0.10852 -0.22841,-0.10852 z m 2.15232,0 c -0.10834,0 -0.18741,0.0383 -0.23719,0.11524 -0.0483,0.077 -0.0765,0.20108 -0.0853,0.37103 h 0.62115 v -0.0574 c -0.003,-0.1409 -0.0264,-0.24776 -0.0703,-0.32039 -0.0439,-0.0726 -0.12006,-0.10852 -0.22841,-0.10852 z m -17.67747,0.005 c -0.12299,0 -0.21437,0.0502 -0.2744,0.15038 -0.0586,0.10024 -0.0879,0.26092 -0.0879,0.48317 v 0.15503 c 0,0.21789 0.0287,0.37674 0.0858,0.47697 0.0571,0.0988 0.14789,0.14831 0.27234,0.14831 0.0674,0 0.12359,-0.0114 0.16898,-0.0346 0.0469,-0.0247 0.0849,-0.0592 0.1142,-0.10284 v -1.12602 c -0.0308,-0.0479 -0.0694,-0.0855 -0.11627,-0.11163 -0.0454,-0.0261 -0.0998,-0.0387 -0.16278,-0.0387 z m 9.93376,0 c -0.12299,0 -0.21437,0.0502 -0.2744,0.15038 -0.0586,0.10024 -0.0879,0.26092 -0.0879,0.48317 v 0.15503 c 0,0.21789 0.0282,0.37674 0.0853,0.47697 0.0571,0.0988 0.14789,0.14831 0.27234,0.14831 0.0674,0 0.12411,-0.0114 0.1695,-0.0346 0.0469,-0.0247 0.0849,-0.0592 0.1142,-0.10284 v -1.12602 c -0.0307,-0.0479 -0.0699,-0.0855 -0.11679,-0.11163 -0.0454,-0.0261 -0.0993,-0.0387 -0.16226,-0.0387 z m 14.75207,0 c -0.12299,0 -0.21437,0.0502 -0.2744,0.15038 -0.0586,0.10024 -0.0879,0.26092 -0.0879,0.48317 v 0.15503 c 0,0.21789 0.0287,0.37674 0.0858,0.47697 0.0571,0.0988 0.14788,0.14831 0.27234,0.14831 0.0674,0 0.12359,-0.0114 0.16898,-0.0346 0.0469,-0.0247 0.0849,-0.0592 0.1142,-0.10284 v -1.12602 c -0.0307,-0.0479 -0.0694,-0.0855 -0.11627,-0.11163 -0.0454,-0.0261 -0.0998,-0.0387 -0.16278,-0.0387 z" /><path
         id="path152"
         style="fill:#2c2c6f;fill-opacity:1;stroke-width:0.264583"
         d="m 499.93901,110.14658 c -2.00263,0 -3.62614,1.61162 -3.62614,3.59874 v 3.30212 c 0,1.98712 1.62351,3.59927 3.62614,3.59927 h 39.23636 v -10.50013 z m 39.75416,0 v 10.50013 h 1.96474 v -10.50013 z m 2.48254,0 v 10.50013 h 1.99987 v -10.50013 z m 2.49959,0 v 10.50013 h 2.00039 v -10.50013 z m -37.43803,3.53053 c 0.0512,0 0.0975,0.008 0.13849,0.0232 0.0425,0.016 0.0782,0.0386 0.10749,0.0677 0.0293,0.0291 0.0521,0.0642 0.0682,0.10489 0.0161,0.0392 0.0243,0.0828 0.0243,0.13074 0,0.0479 -0.008,0.0922 -0.0243,0.13281 -0.0161,0.0392 -0.0389,0.0739 -0.0682,0.10439 -0.0293,0.0291 -0.065,0.0517 -0.10749,0.0677 -0.041,0.016 -0.0873,0.0243 -0.13849,0.0243 -0.0513,0 -0.0981,-0.008 -0.14056,-0.0243 -0.041,-0.016 -0.0761,-0.0386 -0.10542,-0.0677 -0.0293,-0.0305 -0.0521,-0.0652 -0.0682,-0.10439 -0.0161,-0.0407 -0.0238,-0.0848 -0.0238,-0.13281 0,-0.0479 0.008,-0.0916 0.0238,-0.13074 0.0161,-0.0407 0.0389,-0.0758 0.0682,-0.10489 0.0293,-0.0291 0.0644,-0.0517 0.10542,-0.0677 0.0425,-0.016 0.0893,-0.0232 0.14056,-0.0232 z m 13.3289,0 c 0.0512,0 0.0975,0.008 0.1385,0.0232 0.0425,0.016 0.0782,0.0386 0.10748,0.0677 0.0293,0.0291 0.0521,0.0642 0.0682,0.10489 0.0161,0.0392 0.0243,0.0828 0.0243,0.13074 0,0.0479 -0.008,0.0922 -0.0243,0.13281 -0.0161,0.0392 -0.0389,0.0739 -0.0682,0.10439 -0.0293,0.0291 -0.065,0.0517 -0.10748,0.0677 -0.041,0.016 -0.0872,0.0243 -0.1385,0.0243 -0.0513,0 -0.0981,-0.008 -0.14056,-0.0243 -0.041,-0.016 -0.0761,-0.0386 -0.10542,-0.0677 -0.0293,-0.0305 -0.0516,-0.0652 -0.0677,-0.10439 -0.0161,-0.0407 -0.0243,-0.0848 -0.0243,-0.13281 0,-0.0479 0.008,-0.0916 0.0243,-0.13074 0.0161,-0.0407 0.0384,-0.0758 0.0677,-0.10489 0.0293,-0.0291 0.0644,-0.0517 0.10542,-0.0677 0.0425,-0.016 0.0893,-0.0232 0.14056,-0.0232 z m 9.14311,0 c 0.0513,0 0.0975,0.008 0.1385,0.0232 0.0425,0.016 0.0782,0.0386 0.10748,0.0677 0.0293,0.0291 0.0521,0.0642 0.0682,0.10489 0.0161,0.0392 0.0243,0.0828 0.0243,0.13074 0,0.0479 -0.008,0.0922 -0.0243,0.13281 -0.0161,0.0392 -0.0389,0.0739 -0.0682,0.10439 -0.0293,0.0291 -0.065,0.0517 -0.10748,0.0677 -0.041,0.016 -0.0872,0.0243 -0.1385,0.0243 -0.0512,0 -0.0981,-0.008 -0.14056,-0.0243 -0.041,-0.016 -0.0761,-0.0386 -0.10542,-0.0677 -0.0293,-0.0305 -0.0521,-0.0652 -0.0682,-0.10439 -0.0161,-0.0407 -0.0238,-0.0848 -0.0238,-0.13281 0,-0.0479 0.008,-0.0916 0.0238,-0.13074 0.0161,-0.0407 0.0389,-0.0758 0.0682,-0.10489 0.0293,-0.0291 0.0644,-0.0517 0.10542,-0.0677 0.0425,-0.016 0.0893,-0.0232 0.14056,-0.0232 z m -29.51551,0.12195 h 0.84595 c 0.18448,0 0.352,0.0305 0.50281,0.0915 0.15227,0.0595 0.28171,0.14669 0.3886,0.26148 0.10834,0.11332 0.19207,0.25309 0.25064,0.42013 0.06,0.16561 0.0899,0.35543 0.0899,0.56897 v 0.49248 c 0,0.21353 -0.0293,0.40282 -0.0879,0.56844 -0.0586,0.16559 -0.14229,0.3064 -0.25063,0.42115 -0.10835,0.11332 -0.23839,0.19935 -0.39067,0.25891 -0.15227,0.0595 -0.32211,0.0894 -0.50953,0.0894 h -0.83923 z m 13.38213,0 h 1.83141 v 0.53382 h -1.18597 v 0.74931 h 1.00614 v 0.51626 h -1.00614 v 0.84128 h 1.19063 v 0.53175 h -1.83607 z m -12.73617,0.53382 v 2.10685 h 0.19327 c 0.1142,0 0.20912,-0.0143 0.28525,-0.0434 0.0761,-0.0305 0.13703,-0.0788 0.18242,-0.14419 0.0454,-0.0654 0.0776,-0.14893 0.0966,-0.25063 0.019,-0.10167 0.0284,-0.2241 0.0284,-0.36793 v -0.49713 c 0,-0.14526 -0.009,-0.26831 -0.0284,-0.37 -0.019,-0.10167 -0.0512,-0.18464 -0.0966,-0.24857 -0.0454,-0.0639 -0.10628,-0.11044 -0.18242,-0.13952 -0.0747,-0.0305 -0.16726,-0.0455 -0.27853,-0.0455 z m 28.04842,0.23616 v 5.2e-4 c 0.0278,0 0.0577,0.003 0.0899,0.009 0.0337,0.005 0.0606,0.0111 0.0811,0.0196 l -0.007,0.6103 c -0.0278,-0.003 -0.0623,-0.006 -0.10336,-0.0109 -0.0395,-0.005 -0.0736,-0.007 -0.10283,-0.007 -0.0893,0 -0.16244,0.0186 -0.21808,0.0563 -0.0556,0.0378 -0.0973,0.0933 -0.1266,0.16588 v 1.55805 h -0.62426 v -2.358 h 0.58601 l 0.0181,0.25528 c 0.0469,-0.0944 0.10422,-0.16785 0.17157,-0.22014 0.0688,-0.0523 0.14728,-0.0785 0.23513,-0.0785 z m -23.24303,5.2e-4 v 5.2e-4 c 0.13324,0 0.2527,0.018 0.35812,0.0543 0.10688,0.0348 0.19766,0.085 0.27233,0.15038 0.0747,0.0639 0.13152,0.14152 0.17105,0.23307 0.0395,0.0901 0.0594,0.19086 0.0594,0.30126 h -0.62167 c 0,-0.0901 -0.0182,-0.16104 -0.0548,-0.21187 -0.0366,-0.0509 -0.0992,-0.076 -0.18706,-0.076 -0.0659,0 -0.11981,0.0203 -0.16227,0.061 -0.0425,0.0407 -0.0636,0.0973 -0.0636,0.17 0,0.0305 0.006,0.058 0.0196,0.0827 0.0146,0.0232 0.0375,0.0465 0.0682,0.0698 0.0322,0.0232 0.0738,0.0471 0.12506,0.0718 0.0513,0.0247 0.11395,0.0533 0.18862,0.0853 0.1186,0.0436 0.22109,0.089 0.30747,0.13694 0.0878,0.0479 0.16046,0.10169 0.21756,0.16123 0.0571,0.0581 0.0998,0.12438 0.12764,0.19844 0.0278,0.0741 0.0413,0.1595 0.0413,0.25683 0,0.10459 -0.02,0.20006 -0.061,0.28577 -0.041,0.0857 -0.0996,0.15861 -0.1757,0.21962 -0.0747,0.061 -0.16545,0.10929 -0.27233,0.14418 -0.10689,0.0334 -0.22635,0.0501 -0.35812,0.0501 -0.14495,0 -0.2732,-0.022 -0.38447,-0.0656 -0.10982,-0.0451 -0.2018,-0.10359 -0.27647,-0.17622 -0.0747,-0.0741 -0.13143,-0.15705 -0.1695,-0.24856 -0.0381,-0.093 -0.0568,-0.18732 -0.0568,-0.28319 h 0.59066 c 0.002,0.0639 0.0103,0.11703 0.0263,0.15917 0.0161,0.0407 0.0372,0.073 0.0636,0.0977 0.0278,0.0247 0.06,0.0421 0.0966,0.0522 0.0381,0.009 0.0791,0.0134 0.12299,0.0134 0.16692,0 0.25063,-0.0751 0.25063,-0.22479 0,-0.0305 -0.008,-0.0575 -0.0243,-0.0822 -0.0146,-0.0261 -0.0387,-0.0518 -0.0724,-0.0765 -0.0322,-0.0261 -0.0749,-0.0523 -0.12764,-0.0785 -0.0527,-0.0261 -0.11541,-0.0553 -0.18862,-0.0873 -0.10835,-0.0435 -0.20437,-0.0883 -0.28783,-0.13332 -0.0835,-0.0465 -0.15373,-0.0974 -0.21084,-0.154 -0.0571,-0.0581 -0.10043,-0.12317 -0.12971,-0.1943 -0.0293,-0.0726 -0.0439,-0.15622 -0.0439,-0.25063 0,-0.0988 0.0182,-0.19076 0.0548,-0.27647 0.0381,-0.0871 0.0925,-0.16294 0.16278,-0.22686 0.0703,-0.0654 0.1558,-0.11612 0.25683,-0.15245 0.10249,-0.0378 0.21843,-0.0568 0.34727,-0.0568 z m -2.04484,5.2e-4 c 0.30162,0 0.5277,0.0966 0.67851,0.2899 0.15081,0.1932 0.22635,0.47921 0.22635,0.85835 v 0.28112 h -1.23662 c 0.004,0.0945 0.0172,0.17328 0.0377,0.23719 0.022,0.0639 0.0512,0.11578 0.0879,0.15503 0.0366,0.0392 0.0805,0.0679 0.13178,0.0853 0.0527,0.0175 0.11188,0.0258 0.17777,0.0258 0.10982,0 0.20704,-0.018 0.29197,-0.0543 0.0864,-0.0378 0.16252,-0.0898 0.22841,-0.15658 l 0.24391,0.37207 c -0.0308,0.0422 -0.0711,0.0845 -0.12092,0.12661 -0.0498,0.0407 -0.10835,0.0778 -0.1757,0.11111 -0.0673,0.0334 -0.14349,0.0602 -0.22841,0.0806 -0.0849,0.0217 -0.17802,0.0326 -0.27905,0.0326 -0.16252,0 -0.30662,-0.0245 -0.43254,-0.0739 -0.12592,-0.0494 -0.23193,-0.12047 -0.31832,-0.21342 -0.0864,-0.093 -0.15253,-0.20639 -0.19792,-0.34003 -0.0439,-0.13508 -0.0656,-0.28851 -0.0656,-0.45992 v -0.19379 c 0,-0.19175 0.0211,-0.35952 0.0636,-0.50333 0.0439,-0.14527 0.10602,-0.267 0.18655,-0.36432 0.082,-0.0988 0.18156,-0.1723 0.29869,-0.22169 0.1186,-0.0494 0.25269,-0.0744 0.40204,-0.0744 z m 5.15886,0 c 0.11567,0 0.21403,0.0226 0.29456,0.0677 0.0805,0.0436 0.14848,0.10512 0.20412,0.185 l 0.0243,-0.20929 h 0.56017 v 2.358 c 0,0.16124 -0.0245,0.29979 -0.0729,0.41599 -0.0469,0.11767 -0.11309,0.21437 -0.19948,0.28991 -0.0864,0.0755 -0.1906,0.13164 -0.31212,0.16795 -0.12007,0.0363 -0.25416,0.0543 -0.40204,0.0543 -0.0556,0 -0.11714,-0.006 -0.18449,-0.0176 -0.0673,-0.0116 -0.13469,-0.029 -0.20205,-0.0522 -0.0674,-0.0217 -0.13177,-0.0504 -0.19327,-0.0853 -0.06,-0.0334 -0.11042,-0.0728 -0.15142,-0.11937 l 0.20878,-0.42685 c 0.0278,0.0291 0.0606,0.0554 0.0987,0.0801 0.0395,0.0261 0.0805,0.0486 0.12299,0.0661 0.0439,0.0188 0.0896,0.0331 0.13643,0.0434 0.0469,0.0116 0.092,0.0176 0.1359,0.0176 0.063,0 0.11861,-0.008 0.16692,-0.0222 0.0498,-0.0131 0.0914,-0.0364 0.12506,-0.0698 0.0337,-0.0334 0.0588,-0.0776 0.0749,-0.13281 0.0176,-0.0553 0.0263,-0.12394 0.0263,-0.20671 v -0.19017 c -0.0571,0.0741 -0.12385,0.13193 -0.19999,0.1726 -0.0747,0.0392 -0.16252,0.0589 -0.26355,0.0589 -0.12591,0 -0.23891,-0.025 -0.33848,-0.0744 -0.0981,-0.0494 -0.18129,-0.12222 -0.25011,-0.21807 -0.0674,-0.0958 -0.11946,-0.21411 -0.15606,-0.35502 -0.0366,-0.14236 -0.0548,-0.30655 -0.0548,-0.49248 v -0.15451 c 0,-0.3864 0.0703,-0.67476 0.21084,-0.86506 0.14056,-0.19029 0.33736,-0.28577 0.59066,-0.28577 z m 2.67322,0 c 0.0922,0 0.17717,0.0162 0.25477,0.048 0.0776,0.0305 0.14383,0.0813 0.19947,0.15245 0.0556,0.0712 0.099,0.16429 0.12971,0.27905 0.0308,0.11476 0.046,0.25566 0.046,0.42272 v 1.49913 h -0.62374 v -1.50172 c 0,-0.0755 -0.006,-0.13767 -0.0176,-0.18707 -0.0117,-0.0494 -0.0293,-0.0888 -0.0527,-0.11782 -0.022,-0.0291 -0.0495,-0.0494 -0.0832,-0.061 -0.0337,-0.0116 -0.0735,-0.0176 -0.11886,-0.0176 -0.0586,0 -0.10955,0.0151 -0.15348,0.0455 -0.0439,0.0305 -0.0808,0.0729 -0.11007,0.12661 v 1.71255 h -0.62373 v -2.35748 h 0.58446 l 0.0176,0.23358 c 0.0688,-0.0901 0.14908,-0.15867 0.24132,-0.20515 0.0922,-0.0479 0.19586,-0.0718 0.31006,-0.0718 z m 5.45755,0 c 0.0922,0 0.17717,0.0162 0.25477,0.048 0.0776,0.0305 0.14434,0.0813 0.19998,0.15245 0.0556,0.0712 0.0984,0.16429 0.12919,0.27905 0.0308,0.11476 0.0465,0.25566 0.0465,0.42272 v 1.49913 h -0.62373 v -1.50172 c 0,-0.0755 -0.006,-0.13767 -0.0176,-0.18707 -0.0117,-0.0494 -0.0293,-0.0888 -0.0527,-0.11782 -0.022,-0.0291 -0.05,-0.0494 -0.0837,-0.061 -0.0337,-0.0116 -0.0729,-0.0176 -0.11834,-0.0176 -0.0586,0 -0.11007,0.0151 -0.15399,0.0455 -0.0439,0.0305 -0.0803,0.0729 -0.10956,0.12661 v 1.71255 H 515.737 v -2.35748 h 0.58394 l 0.0176,0.23358 c 0.0688,-0.0901 0.14961,-0.15867 0.24185,-0.20515 0.0922,-0.0479 0.19534,-0.0718 0.30954,-0.0718 z m 1.80299,0 c 0.11567,0 0.21403,0.0226 0.29456,0.0677 0.0805,0.0436 0.14848,0.10512 0.20412,0.185 l 0.0243,-0.20929 h 0.55965 v 2.358 c 0,0.16124 -0.0239,0.29979 -0.0723,0.41599 -0.0468,0.11767 -0.11361,0.21437 -0.19999,0.28991 -0.0864,0.0755 -0.19008,0.13164 -0.31161,0.16795 -0.12006,0.0363 -0.25416,0.0543 -0.40204,0.0543 -0.0556,0 -0.11714,-0.006 -0.18449,-0.0176 -0.0674,-0.0116 -0.1347,-0.029 -0.20205,-0.0522 -0.0674,-0.0217 -0.13178,-0.0504 -0.19327,-0.0853 -0.06,-0.0334 -0.11042,-0.0728 -0.15141,-0.11937 l 0.20877,-0.42685 c 0.0278,0.0291 0.0606,0.0554 0.0987,0.0801 0.0395,0.0261 0.0805,0.0486 0.12299,0.0661 0.0439,0.0188 0.0891,0.0331 0.13591,0.0434 0.0469,0.0116 0.0925,0.0176 0.13642,0.0176 0.063,0 0.1186,-0.008 0.16692,-0.0222 0.0498,-0.0131 0.0914,-0.0364 0.12506,-0.0698 0.0337,-0.0334 0.0588,-0.0776 0.0749,-0.13281 0.0176,-0.0553 0.0263,-0.12394 0.0263,-0.20671 v -0.19017 c -0.0571,0.0741 -0.12385,0.13193 -0.19999,0.1726 -0.0747,0.0392 -0.16252,0.0589 -0.26355,0.0589 -0.12592,0 -0.23892,-0.025 -0.33848,-0.0744 -0.0981,-0.0494 -0.18129,-0.12222 -0.25011,-0.21807 -0.0674,-0.0958 -0.11946,-0.21411 -0.15606,-0.35502 -0.0366,-0.14236 -0.0548,-0.30655 -0.0548,-0.49248 v -0.15451 c 0,-0.3864 0.0703,-0.67476 0.21084,-0.86506 0.14056,-0.19029 0.33736,-0.28577 0.59066,-0.28577 z m 3.80597,0 c 0.0922,0 0.17717,0.0162 0.25477,0.048 0.0776,0.0305 0.14434,0.0813 0.19998,0.15245 0.0556,0.0712 0.099,0.16429 0.12971,0.27905 0.0307,0.11476 0.046,0.25566 0.046,0.42272 v 1.49913 h -0.62373 v -1.50172 c 0,-0.0755 -0.006,-0.13767 -0.0176,-0.18707 -0.0117,-0.0494 -0.0293,-0.0888 -0.0527,-0.11782 -0.022,-0.0291 -0.0495,-0.0494 -0.0832,-0.061 -0.0337,-0.0116 -0.0735,-0.0176 -0.11886,-0.0176 -0.0586,0 -0.10954,0.0151 -0.15347,0.0455 -0.0439,0.0305 -0.0808,0.0729 -0.11008,0.12661 v 1.71255 h -0.62373 v -2.35748 h 0.58446 l 0.0176,0.23358 c 0.0688,-0.0901 0.14908,-0.15867 0.24133,-0.20515 0.0922,-0.0479 0.19533,-0.0718 0.30954,-0.0718 z m 1.97249,0 c 0.30162,0 0.5277,0.0966 0.67851,0.2899 0.15081,0.1932 0.22634,0.47921 0.22634,0.85835 v 0.28112 h -1.23661 c 0.004,0.0945 0.0167,0.17328 0.0372,0.23719 0.022,0.0639 0.0512,0.11578 0.0879,0.15503 0.0366,0.0392 0.0805,0.0679 0.13178,0.0853 0.0527,0.0175 0.11239,0.0258 0.17828,0.0258 0.10981,0 0.20706,-0.018 0.29198,-0.0543 0.0864,-0.0378 0.16252,-0.0898 0.22841,-0.15658 l 0.24391,0.37207 c -0.0307,0.0422 -0.0711,0.0845 -0.12092,0.12661 -0.0498,0.0407 -0.10835,0.0778 -0.1757,0.11111 -0.0674,0.0334 -0.14349,0.0602 -0.22841,0.0806 -0.0849,0.0217 -0.17804,0.0326 -0.27906,0.0326 -0.16253,0 -0.30662,-0.0245 -0.43253,-0.0739 -0.12592,-0.0494 -0.23195,-0.12047 -0.31833,-0.21342 -0.0864,-0.093 -0.15253,-0.20639 -0.19792,-0.34003 -0.0439,-0.13508 -0.0656,-0.28851 -0.0656,-0.45992 v -0.19379 c 0,-0.19175 0.0211,-0.35952 0.0636,-0.50333 0.0439,-0.14527 0.10602,-0.267 0.18655,-0.36432 0.082,-0.0988 0.18156,-0.1723 0.29869,-0.22169 0.1186,-0.0494 0.2527,-0.0744 0.40204,-0.0744 z m 2.15232,0 c 0.30161,0 0.52771,0.0966 0.67852,0.2899 0.15081,0.1932 0.22634,0.47921 0.22634,0.85835 v 0.28112 h -1.23662 c 0.004,0.0945 0.0167,0.17328 0.0372,0.23719 0.022,0.0639 0.0512,0.11578 0.0879,0.15503 0.0366,0.0392 0.0805,0.0679 0.13177,0.0853 0.0527,0.0175 0.1124,0.0258 0.17829,0.0258 0.10981,0 0.20705,-0.018 0.29197,-0.0543 0.0864,-0.0378 0.16253,-0.0898 0.22841,-0.15658 l 0.24391,0.37207 c -0.0307,0.0422 -0.0711,0.0845 -0.12092,0.12661 -0.0498,0.0407 -0.10834,0.0778 -0.1757,0.11111 -0.0674,0.0334 -0.14348,0.0602 -0.22841,0.0806 -0.0849,0.0217 -0.17802,0.0326 -0.27905,0.0326 -0.16252,0 -0.30662,-0.0245 -0.43254,-0.0739 -0.12592,-0.0494 -0.23193,-0.12047 -0.31832,-0.21342 -0.0864,-0.093 -0.15253,-0.20639 -0.19792,-0.34003 -0.0439,-0.13508 -0.0656,-0.28851 -0.0656,-0.45992 v -0.19379 c 0,-0.19175 0.0211,-0.35952 0.0636,-0.50333 0.0439,-0.14527 0.10603,-0.267 0.18655,-0.36432 0.082,-0.0988 0.18156,-0.1723 0.29869,-0.22169 0.1186,-0.0494 0.25269,-0.0744 0.40204,-0.0744 z m 5.0183,0 c 0.0922,0 0.17717,0.0162 0.25477,0.048 0.0776,0.0305 0.14434,0.0813 0.19998,0.15245 0.0556,0.0712 0.099,0.16429 0.12971,0.27905 0.0307,0.11476 0.046,0.25566 0.046,0.42272 v 1.49913 h -0.62373 v -1.50172 c 0,-0.0755 -0.006,-0.13767 -0.0176,-0.18707 -0.0117,-0.0494 -0.0293,-0.0888 -0.0527,-0.11782 -0.022,-0.0291 -0.05,-0.0494 -0.0837,-0.061 -0.0337,-0.0116 -0.073,-0.0176 -0.11833,-0.0176 -0.0586,0 -0.11008,0.0151 -0.154,0.0455 -0.0439,0.0305 -0.0803,0.0729 -0.10955,0.12661 v 1.71255 h -0.62374 v -2.35748 h 0.58394 l 0.0176,0.23358 c 0.0688,-0.0901 0.1496,-0.15867 0.24185,-0.20515 0.0922,-0.0479 0.19533,-0.0718 0.30954,-0.0718 z m 1.80299,0 c 0.11567,0 0.21403,0.0226 0.29456,0.0677 0.0805,0.0436 0.14848,0.10512 0.20412,0.185 l 0.0243,-0.20929 h 0.56017 v 2.358 c 0,0.16124 -0.0245,0.29979 -0.0729,0.41599 -0.0468,0.11767 -0.11308,0.21437 -0.19947,0.28991 -0.0864,0.0755 -0.19061,0.13164 -0.31213,0.16795 -0.12006,0.0363 -0.25416,0.0543 -0.40204,0.0543 -0.0556,0 -0.11714,-0.006 -0.18449,-0.0176 -0.0674,-0.0116 -0.1347,-0.029 -0.20205,-0.0522 -0.0674,-0.0217 -0.13178,-0.0504 -0.19327,-0.0853 -0.06,-0.0334 -0.11041,-0.0728 -0.15141,-0.11937 l 0.20877,-0.42685 c 0.0278,0.0291 0.0606,0.0554 0.0987,0.0801 0.0395,0.0261 0.0805,0.0486 0.12299,0.0661 0.0439,0.0188 0.0896,0.0331 0.13643,0.0434 0.0469,0.0116 0.092,0.0176 0.13591,0.0176 0.063,0 0.11859,-0.008 0.16691,-0.0222 0.0498,-0.0131 0.0914,-0.0364 0.12506,-0.0698 0.0337,-0.0334 0.0588,-0.0776 0.0749,-0.13281 0.0176,-0.0553 0.0264,-0.12394 0.0264,-0.20671 v -0.19017 c -0.0571,0.0741 -0.12384,0.13193 -0.19998,0.1726 -0.0747,0.0392 -0.16253,0.0589 -0.26355,0.0589 -0.12592,0 -0.2384,-0.025 -0.33797,-0.0744 -0.0981,-0.0494 -0.18181,-0.12222 -0.25063,-0.21807 -0.0674,-0.0958 -0.11946,-0.21411 -0.15606,-0.35502 -0.0366,-0.14236 -0.0548,-0.30655 -0.0548,-0.49248 v -0.15451 c 0,-0.3864 0.0703,-0.67476 0.21084,-0.86506 0.14056,-0.19029 0.33736,-0.28577 0.59066,-0.28577 z m -26.51724,0.0434 h 0.62373 v 2.358 h -0.62373 z m 13.3289,0 h 0.62374 v 2.358 h -0.62374 z m 9.14311,0 h 0.62374 v 2.358 h -0.62374 z m -25.80359,0.46871 c -0.10835,0 -0.18742,0.0383 -0.2372,0.11524 -0.0483,0.077 -0.077,0.20108 -0.0858,0.37103 h 0.62167 v -0.0574 c -0.003,-0.1409 -0.0264,-0.24776 -0.0703,-0.32039 -0.0439,-0.0726 -0.12006,-0.10852 -0.22841,-0.10852 z m 20.87056,0 c -0.10835,0 -0.18742,0.0383 -0.2372,0.11524 -0.0483,0.077 -0.0765,0.20108 -0.0853,0.37103 h 0.62115 v -0.0574 c -0.003,-0.1409 -0.0264,-0.24776 -0.0703,-0.32039 -0.0439,-0.0726 -0.12007,-0.10852 -0.22841,-0.10852 z m 2.15232,0 c -0.10834,0 -0.18741,0.0383 -0.23719,0.11524 -0.0483,0.077 -0.0765,0.20108 -0.0853,0.37103 h 0.62115 v -0.0574 c -0.003,-0.1409 -0.0264,-0.24776 -0.0703,-0.32039 -0.0439,-0.0726 -0.12006,-0.10852 -0.22841,-0.10852 z m -17.67747,0.005 c -0.12299,0 -0.21437,0.0502 -0.2744,0.15038 -0.0586,0.10024 -0.0879,0.26092 -0.0879,0.48317 v 0.15503 c 0,0.21789 0.0287,0.37674 0.0858,0.47697 0.0571,0.0988 0.14789,0.14831 0.27234,0.14831 0.0674,0 0.12359,-0.0114 0.16898,-0.0346 0.0469,-0.0247 0.0849,-0.0592 0.1142,-0.10284 v -1.12602 c -0.0308,-0.0479 -0.0694,-0.0855 -0.11627,-0.11163 -0.0454,-0.0261 -0.0998,-0.0387 -0.16278,-0.0387 z m 9.93376,0 c -0.12299,0 -0.21437,0.0502 -0.2744,0.15038 -0.0586,0.10024 -0.0879,0.26092 -0.0879,0.48317 v 0.15503 c 0,0.21789 0.0282,0.37674 0.0853,0.47697 0.0571,0.0988 0.14789,0.14831 0.27234,0.14831 0.0674,0 0.12411,-0.0114 0.1695,-0.0346 0.0469,-0.0247 0.0849,-0.0592 0.1142,-0.10284 v -1.12602 c -0.0307,-0.0479 -0.0699,-0.0855 -0.11679,-0.11163 -0.0454,-0.0261 -0.0993,-0.0387 -0.16226,-0.0387 z m 14.75207,0 c -0.12299,0 -0.21437,0.0502 -0.2744,0.15038 -0.0586,0.10024 -0.0879,0.26092 -0.0879,0.48317 v 0.15503 c 0,0.21789 0.0287,0.37674 0.0858,0.47697 0.0571,0.0988 0.14788,0.14831 0.27234,0.14831 0.0674,0 0.12359,-0.0114 0.16898,-0.0346 0.0469,-0.0247 0.0849,-0.0592 0.1142,-0.10284 v -1.12602 c -0.0307,-0.0479 -0.0694,-0.0855 -0.11627,-0.11163 -0.0454,-0.0261 -0.0998,-0.0387 -0.16278,-0.0387 z" /></g></g></svg>
