<?xml version="1.0" encoding="UTF-8" standalone="no"?>
<!-- Created with Inkscape (http://www.inkscape.org/) -->

<svg
   width="61.056671mm"
   height="10.500183mm"
   viewBox="0 0 61.056671 10.500183"
   version="1.1"
   id="svg1"
   xml:space="preserve"
   inkscape:version="1.3.1 (91b66b0783, 2023-11-16)"
   sodipodi:docname="assets.svg"
   xmlns:inkscape="http://www.inkscape.org/namespaces/inkscape"
   xmlns:sodipodi="http://sodipodi.sourceforge.net/DTD/sodipodi-0.dtd"
   xmlns="http://www.w3.org/2000/svg"
   xmlns:svg="http://www.w3.org/2000/svg"><sodipodi:namedview
     id="namedview1"
     pagecolor="#ffffff"
     bordercolor="#000000"
     borderopacity="0.25"
     inkscape:showpageshadow="2"
     inkscape:pageopacity="0.0"
     inkscape:pagecheckerboard="0"
     inkscape:deskcolor="#d1d1d1"
     inkscape:document-units="mm"
     inkscape:zoom="1"
     inkscape:cx="1883.5"
     inkscape:cy="284.5"
     inkscape:window-width="2560"
     inkscape:window-height="1346"
     inkscape:window-x="-11"
     inkscape:window-y="-11"
     inkscape:window-maximized="1"
     inkscape:current-layer="layer1"
     showgrid="true"><inkscape:grid
       id="grid668"
       units="mm"
       originx="-623.90341"
       originy="-124.61599"
       spacingx="0.5"
       spacingy="0.5"
       empcolor="#0099e5"
       empopacity="0.30196078"
       color="#0099e5"
       opacity="0.14901961"
       empspacing="5"
       dotted="false"
       gridanglex="30"
       gridanglez="30"
       visible="true" /></sodipodi:namedview><defs
     id="defs1" /><g
     inkscape:label="Layer 1"
     inkscape:groupmode="layer"
     id="layer1"
     transform="translate(-623.9034,-124.61599)"><rect
       style="fill:#f9f9f9;stroke-width:0.5;stroke-linejoin:round;stroke-miterlimit:3.4;stroke-dashoffset:19.8539"
       id="rect21"
       width="49.000019"
       height="7.1517849"
       x="627.5"
       y="126.42411" /><g
       id="g1"><path
         id="path849"
         style="fill:#2c2c6f;fill-opacity:1;stroke-width:0.264583"
         d="m 627.52951,124.61599 c -2.00263,0 -3.62614,1.61073 -3.62614,3.59758 v 3.30485 c 0,1.98685 1.62351,3.59757 3.62614,3.59757 h 52.46553 v -10.5 z m 11.14867,3.43199 c 0.0512,0 0.0998,0.005 0.14521,0.0133 0.0454,0.009 0.0905,0.0186 0.13591,0.0303 l -0.004,0.4927 c -0.0425,-0.0131 -0.0928,-0.0194 -0.15141,-0.0194 -0.0893,0 -0.15839,0.0267 -0.2067,0.0805 -0.0468,0.0538 -0.0703,0.13222 -0.0703,0.23532 v 0.20252 h 0.37103 v 0.46399 h -0.37103 v 1.89389 h -0.62374 v -1.89389 h -0.28787 v -0.46399 h 0.28784 v -0.20252 c 0,-0.13509 0.0176,-0.25421 0.0527,-0.35734 0.0366,-0.10314 0.0887,-0.1897 0.15606,-0.25943 0.0674,-0.0711 0.14874,-0.12467 0.24391,-0.16099 0.0966,-0.0363 0.20387,-0.0549 0.32246,-0.0549 z m 22.79499,0.0456 h 0.62167 v 1.19663 c 0.0644,-0.0799 0.13764,-0.14151 0.21963,-0.18508 0.0835,-0.0436 0.17544,-0.0657 0.27647,-0.0657 0.0981,0 0.18827,0.0169 0.27026,0.0502 0.082,0.0334 0.15228,0.0863 0.21084,0.15894 0.0586,0.0726 0.10422,0.16731 0.13643,0.28352 0.0322,0.11621 0.0481,0.25746 0.0481,0.42451 v 1.48425 h -0.62374 v -1.48835 c 0,-0.0755 -0.006,-0.13886 -0.0176,-0.18969 -0.0117,-0.0509 -0.0293,-0.0916 -0.0527,-0.12202 -0.0234,-0.0305 -0.0521,-0.052 -0.0858,-0.0651 -0.0337,-0.0131 -0.0729,-0.02 -0.11833,-0.02 -0.0615,0 -0.11361,0.014 -0.15607,0.0416 -0.0425,0.0276 -0.0782,0.0654 -0.10748,0.11331 v 1.72983 h -0.62167 z m 6.70967,5.1e-4 h 0.62374 v 3.34687 h -0.62374 z m -19.33784,0.0518 c 0.0512,0 0.097,0.008 0.13798,0.0241 0.0425,0.016 0.0787,0.0386 0.108,0.0677 0.0293,0.0291 0.0516,0.0639 0.0677,0.10459 0.0161,0.0392 0.0243,0.0828 0.0243,0.13074 0,0.0479 -0.008,0.0922 -0.0243,0.13279 -0.0161,0.0392 -0.0384,0.0741 -0.0677,0.10459 -0.0293,0.0291 -0.0656,0.0517 -0.108,0.0677 -0.041,0.016 -0.0867,0.0241 -0.13798,0.0241 -0.0513,0 -0.0981,-0.008 -0.14056,-0.0241 -0.041,-0.016 -0.0761,-0.0386 -0.10542,-0.0677 -0.0293,-0.0305 -0.0521,-0.0654 -0.0682,-0.10459 -0.0161,-0.0407 -0.0243,-0.0848 -0.0243,-0.13279 0,-0.0479 0.008,-0.0916 0.0243,-0.13074 0.0161,-0.0407 0.0389,-0.0755 0.0682,-0.10459 0.0293,-0.0291 0.0644,-0.0517 0.10542,-0.0677 0.0425,-0.016 0.0893,-0.0241 0.14056,-0.0241 z m -21.00957,0.12254 h 0.84336 l 0.6041,2.29431 0.60151,-2.29431 h 0.84336 v 3.17255 h -0.6475 v -0.85876 l 0.0589,-1.32276 -0.63872,2.18152 h -0.43925 l -0.63924,-2.18152 0.0594,1.32276 v 0.85876 h -0.64595 z m 27.07122,0 h 2.21589 v 0.53371 h -0.79065 v 2.63884 h -0.64803 v -2.63884 h -0.77721 z m -10.7642,0.2353 v 0.57935 h 0.31884 v 0.46399 h -0.31884 v 1.17048 c 0,0.0494 0.003,0.0901 0.009,0.12202 0.007,0.032 0.0184,0.057 0.0331,0.0759 0.0161,0.0175 0.036,0.0303 0.0594,0.0374 0.0234,0.006 0.0521,0.009 0.0858,0.009 0.0307,0 0.0583,-9.9e-4 0.0832,-0.004 0.0264,-0.003 0.0474,-0.006 0.0636,-0.0108 l -0.004,0.47938 c -0.0468,0.0175 -0.0972,0.0314 -0.15141,0.0416 -0.0542,0.0116 -0.118,0.0175 -0.19121,0.0175 -0.0922,0 -0.17595,-0.0134 -0.25063,-0.0395 -0.0747,-0.0247 -0.13909,-0.0643 -0.19327,-0.11946 -0.0527,-0.0567 -0.0937,-0.12931 -0.12299,-0.2179 -0.0278,-0.0886 -0.0413,-0.1955 -0.0413,-0.32043 v -1.2397 h -0.27491 v -0.4645 h 0.27491 v -0.57935 z m 3.8809,0.53525 c 0.0278,0 0.0577,0.003 0.0899,0.009 0.0337,0.005 0.0611,0.011 0.0816,0.0194 l -0.007,0.61011 c -0.0278,-0.003 -0.0624,-0.006 -0.10335,-0.0108 -0.0395,-0.005 -0.0741,-0.007 -0.10336,-0.007 -0.0893,0 -0.1614,0.0191 -0.21704,0.0569 -0.0556,0.0378 -0.0984,0.093 -0.12764,0.1656 v 1.55809 h -0.62373 v -2.35789 h 0.58652 l 0.0176,0.25532 c 0.0469,-0.0944 0.1037,-0.16816 0.17105,-0.22046 0.0688,-0.0523 0.14728,-0.0785 0.23513,-0.0785 z m -15.96027,5.2e-4 c 0.1186,0 0.22807,0.0152 0.32763,0.0456 0.0996,0.0291 0.18569,0.0755 0.2589,0.13945 0.0732,0.0624 0.13057,0.14318 0.17157,0.242 0.041,0.0973 0.0615,0.21524 0.0615,0.35325 v 1.0459 c 0,0.0682 10e-4,0.12928 0.004,0.18302 0.004,0.0523 0.0103,0.1 0.0176,0.14355 0.007,0.0422 0.0161,0.0805 0.0264,0.11537 0.0117,0.0334 0.0251,0.0654 0.0398,0.0958 v 0.0369 l -0.62632,5.1e-4 c -0.0117,-0.0247 -0.0217,-0.0525 -0.0305,-0.083 -0.007,-0.0319 -0.0149,-0.0651 -0.0222,-0.1 -0.0469,0.0639 -0.10723,0.11738 -0.1819,0.16099 -0.0732,0.0436 -0.16339,0.0656 -0.27027,0.0656 -0.0966,0 -0.18741,-0.0169 -0.27234,-0.0502 -0.0835,-0.0334 -0.15666,-0.0805 -0.21962,-0.1415 -0.0615,-0.061 -0.11067,-0.13473 -0.14728,-0.22046 -0.0351,-0.0872 -0.0527,-0.18422 -0.0527,-0.29173 0,-0.11911 0.0193,-0.22661 0.0574,-0.32248 0.0395,-0.0973 0.0981,-0.17928 0.1757,-0.2461 0.0791,-0.0683 0.17691,-0.12056 0.29404,-0.15688 0.1186,-0.0363 0.25795,-0.0549 0.41755,-0.0549 h 0.16898 v -0.18918 c 0,-0.10604 -0.0182,-0.18099 -0.0548,-0.22456 -0.0366,-0.0436 -0.0904,-0.0657 -0.16072,-0.0657 -0.0805,0 -0.13969,0.0243 -0.17776,0.0723 -0.0366,0.0465 -0.0548,0.1122 -0.0548,0.1979 h -0.62167 c 0,-0.10314 0.0199,-0.19961 0.0594,-0.28967 0.041,-0.0916 0.0996,-0.17116 0.1757,-0.23943 0.0761,-0.0683 0.16752,-0.12229 0.2744,-0.1615 0.10689,-0.0407 0.22755,-0.061 0.36225,-0.061 z m 2.40709,0 c 0.0922,0 0.17717,0.0163 0.25477,0.0482 0.0776,0.0304 0.14435,0.081 0.19998,0.15227 0.0556,0.0711 0.099,0.16413 0.12971,0.2789 0.0307,0.11475 0.046,0.25592 0.046,0.42298 v 1.49911 h -0.62373 v -1.50168 c 0,-0.0755 -0.006,-0.13774 -0.0176,-0.18714 -0.0117,-0.0494 -0.0293,-0.0889 -0.0527,-0.11791 -0.022,-0.0291 -0.0495,-0.0494 -0.0832,-0.061 -0.0337,-0.0116 -0.0735,-0.0175 -0.11886,-0.0175 -0.0586,0 -0.10955,0.0152 -0.15348,0.0456 -0.0439,0.0305 -0.0808,0.0728 -0.11007,0.12664 v 1.7124 h -0.62373 v -2.35726 h 0.58446 l 0.0176,0.23327 c 0.0688,-0.0901 0.14909,-0.15859 0.24133,-0.20507 0.0922,-0.0479 0.19534,-0.0718 0.30954,-0.0718 z m 5.61155,0 c 0.11859,0 0.22754,0.0152 0.32711,0.0456 0.0996,0.0291 0.1862,0.0755 0.25941,0.13945 0.0732,0.0624 0.13006,0.14318 0.17105,0.242 0.041,0.0973 0.0615,0.21524 0.0615,0.35325 v 1.0459 c 0,0.0682 0.002,0.12928 0.005,0.18302 0.004,0.0523 0.0103,0.1 0.0176,0.14355 0.007,0.0422 0.0161,0.0805 0.0264,0.11537 0.0117,0.0334 0.0246,0.0654 0.0393,0.0958 v 0.0369 l -0.6258,5.1e-4 c -0.0117,-0.0247 -0.0217,-0.0525 -0.0305,-0.083 -0.007,-0.0319 -0.0149,-0.0651 -0.0222,-0.1 -0.0469,0.0639 -0.10775,0.11738 -0.18242,0.16099 -0.0732,0.0436 -0.16286,0.0656 -0.26975,0.0656 -0.0966,0 -0.18741,-0.0169 -0.27233,-0.0502 -0.0835,-0.0334 -0.15667,-0.0805 -0.21963,-0.1415 -0.0615,-0.061 -0.11067,-0.13473 -0.14728,-0.22046 -0.0351,-0.0872 -0.0527,-0.18422 -0.0527,-0.29173 0,-0.11911 0.0188,-0.22661 0.0568,-0.32248 0.0395,-0.0973 0.0981,-0.17928 0.1757,-0.2461 0.0791,-0.0683 0.17743,-0.12056 0.29456,-0.15688 0.1186,-0.0363 0.25743,-0.0549 0.41703,-0.0549 h 0.1695 v -0.18918 c 0,-0.10604 -0.0187,-0.18099 -0.0553,-0.22456 -0.0366,-0.0436 -0.0899,-0.0657 -0.1602,-0.0657 -0.0805,0 -0.1397,0.0243 -0.17777,0.0723 -0.0366,0.0465 -0.0548,0.1122 -0.0548,0.1979 h -0.62167 c 0,-0.10314 0.0199,-0.19961 0.0594,-0.28967 0.041,-0.0916 0.0996,-0.17116 0.1757,-0.23943 0.0761,-0.0683 0.16752,-0.12229 0.27441,-0.1615 0.10688,-0.0407 0.22755,-0.061 0.36225,-0.061 z m 2.13682,0 c 0.12738,0 0.24331,0.0203 0.34726,0.061 0.10542,0.0392 0.19448,0.0979 0.26769,0.17636 0.0747,0.077 0.13203,0.17286 0.17156,0.28763 0.041,0.11475 0.0621,0.24781 0.0636,0.39888 h -0.58394 c -10e-4,-0.13219 -0.0237,-0.23388 -0.0661,-0.30505 -0.0425,-0.0712 -0.11274,-0.10665 -0.21084,-0.10665 -0.0688,0 -0.12385,0.0134 -0.16485,0.041 -0.0395,0.0276 -0.07,0.0683 -0.092,0.12202 -0.0205,0.0523 -0.0345,0.11794 -0.0419,0.19636 -0.006,0.077 -0.009,0.16645 -0.009,0.26814 v 0.16971 c 0,0.10313 0.003,0.19379 0.009,0.27224 0.006,0.077 0.0193,0.14202 0.0398,0.1943 0.022,0.0523 0.053,0.0913 0.094,0.11741 0.041,0.0261 0.0966,0.0395 0.16692,0.0395 0.0864,0 0.15313,-0.0261 0.19998,-0.0785 0.0483,-0.0538 0.0735,-0.14384 0.0749,-0.27019 h 0.58395 c -0.002,0.13365 -0.0243,0.25395 -0.0682,0.36145 -0.0439,0.10605 -0.1037,0.1961 -0.17984,0.27019 -0.0747,0.0741 -0.16312,0.131 -0.26561,0.17021 -0.10249,0.0392 -0.21317,0.0584 -0.33177,0.0584 -0.15959,0 -0.29894,-0.025 -0.41754,-0.0759 -0.1186,-0.0509 -0.21704,-0.1246 -0.29611,-0.22046 -0.0776,-0.0973 -0.13616,-0.21644 -0.1757,-0.35734 -0.0381,-0.14091 -0.0574,-0.3013 -0.0574,-0.48142 v -0.16971 c 0,-0.18013 0.0193,-0.34103 0.0574,-0.48193 0.0395,-0.14236 0.0981,-0.26207 0.1757,-0.3594 0.0776,-0.0973 0.17544,-0.17115 0.29404,-0.222 0.1186,-0.0509 0.25683,-0.0764 0.41496,-0.0764 z m 8.55916,0 c 0.0922,0 0.17717,0.0163 0.25477,0.0482 0.0776,0.0304 0.14383,0.081 0.19947,0.15227 0.0556,0.0711 0.099,0.16413 0.12971,0.2789 0.0307,0.11475 0.046,0.25592 0.046,0.42298 v 1.49911 h -0.62374 v -1.50168 c 0,-0.0755 -0.006,-0.13774 -0.0176,-0.18714 -0.0117,-0.0494 -0.0293,-0.0889 -0.0527,-0.11791 -0.022,-0.0291 -0.0495,-0.0494 -0.0832,-0.061 -0.0337,-0.0116 -0.0735,-0.0175 -0.11885,-0.0175 -0.0586,0 -0.10956,0.0152 -0.15348,0.0456 -0.0439,0.0305 -0.0808,0.0728 -0.11007,0.12664 v 1.7124 h -0.62374 v -2.35726 h 0.58446 l 0.0176,0.23327 c 0.0688,-0.0901 0.14909,-0.15859 0.24133,-0.20507 0.0922,-0.0479 0.19586,-0.0718 0.31006,-0.0718 z m 1.80299,0 c 0.11567,0 0.21351,0.0226 0.29404,0.0677 0.0805,0.0436 0.149,0.1052 0.20464,0.18509 l 0.0238,-0.20918 h 0.56017 v 2.35788 c 0,0.16124 -0.024,0.29959 -0.0724,0.4158 -0.0469,0.11767 -0.1136,0.21466 -0.19998,0.29019 -0.0864,0.0755 -0.19009,0.13134 -0.31161,0.16765 -0.12006,0.0363 -0.25416,0.0544 -0.40205,0.0544 -0.0556,0 -0.11713,-0.006 -0.18448,-0.0175 -0.0674,-0.0116 -0.1347,-0.0291 -0.20205,-0.0523 -0.0674,-0.0217 -0.13178,-0.0502 -0.19327,-0.0851 -0.06,-0.0334 -0.11042,-0.0735 -0.15142,-0.11997 l 0.20826,-0.42707 c 0.0278,0.0291 0.0611,0.0562 0.0992,0.0811 0.0395,0.0261 0.0805,0.0476 0.12299,0.0651 0.0439,0.0189 0.0891,0.0333 0.13591,0.0435 0.0469,0.0116 0.0925,0.0175 0.13642,0.0175 0.063,0 0.1186,-0.007 0.16692,-0.0215 0.0498,-0.0131 0.0914,-0.0363 0.12506,-0.0697 0.0337,-0.0334 0.0583,-0.0781 0.0744,-0.13331 0.0176,-0.0553 0.0264,-0.12383 0.0264,-0.20662 v -0.18969 c -0.0571,0.0741 -0.12334,0.1316 -0.19948,0.17226 -0.0747,0.0392 -0.16252,0.0584 -0.26355,0.0584 -0.12591,0 -0.23891,-0.0244 -0.33848,-0.0738 -0.0981,-0.0494 -0.18129,-0.12204 -0.25011,-0.2179 -0.0674,-0.0958 -0.11946,-0.21438 -0.15606,-0.35529 -0.0366,-0.14237 -0.0548,-0.30625 -0.0548,-0.49219 v -0.15483 c 0,-0.38641 0.0703,-0.67462 0.21084,-0.86492 0.14056,-0.1903 0.33736,-0.28557 0.59066,-0.28557 z m 5.58261,0 c 0.30162,0 0.52822,0.0964 0.67903,0.28967 0.15081,0.19321 0.22582,0.47963 0.22582,0.85876 v 0.28096 h -1.2361 c 0.004,0.0945 0.0167,0.17347 0.0372,0.23738 0.022,0.0639 0.0512,0.11558 0.0879,0.15483 0.0366,0.0392 0.0805,0.0677 0.13178,0.0851 0.0527,0.0175 0.11187,0.0261 0.17776,0.0261 0.10982,0 0.20706,-0.0181 0.29198,-0.0544 0.0864,-0.0378 0.16252,-0.0901 0.22841,-0.15688 l 0.24391,0.37221 c -0.0307,0.0422 -0.0711,0.0845 -0.12092,0.12664 -0.0498,0.0407 -0.10835,0.0779 -0.1757,0.11124 -0.0674,0.0334 -0.14349,0.0601 -0.22841,0.0805 -0.0849,0.0217 -0.17751,0.0328 -0.27854,0.0328 -0.16252,0 -0.30713,-0.0249 -0.43305,-0.0743 -0.12592,-0.0494 -0.23194,-0.12033 -0.31832,-0.21327 -0.0864,-0.093 -0.15202,-0.20628 -0.19741,-0.33992 -0.0439,-0.1351 -0.0661,-0.28848 -0.0661,-0.4599 v -0.19379 c 0,-0.19176 0.0211,-0.35965 0.0636,-0.50347 0.0439,-0.14526 0.10654,-0.26669 0.18707,-0.36401 0.082,-0.0988 0.18156,-0.1726 0.29869,-0.222 0.1186,-0.0494 0.25218,-0.0743 0.40153,-0.0743 z m 2.1239,0 c 0.12738,0 0.24331,0.0203 0.34727,0.061 0.10542,0.0392 0.19447,0.0979 0.26768,0.17636 0.0747,0.077 0.13203,0.17286 0.17157,0.28763 0.041,0.11475 0.0621,0.24781 0.0636,0.39888 h -0.58446 c -10e-4,-0.13219 -0.0232,-0.23388 -0.0656,-0.30505 -0.0425,-0.0712 -0.11274,-0.10665 -0.21084,-0.10665 -0.0688,0 -0.12386,0.0134 -0.16485,0.041 -0.0395,0.0276 -0.07,0.0683 -0.092,0.12202 -0.0205,0.0523 -0.0345,0.11794 -0.0419,0.19636 -0.006,0.077 -0.009,0.16645 -0.009,0.26814 v 0.16971 c 0,0.10313 0.003,0.19379 0.009,0.27224 0.006,0.077 0.0188,0.14202 0.0393,0.1943 0.022,0.0523 0.0536,0.0913 0.0946,0.11741 0.041,0.0261 0.0966,0.0395 0.16691,0.0395 0.0864,0 0.15314,-0.0261 0.19999,-0.0785 0.0483,-0.0538 0.0729,-0.14384 0.0744,-0.27019 h 0.58446 c -0.002,0.13365 -0.0243,0.25395 -0.0682,0.36145 -0.0439,0.10605 -0.1037,0.1961 -0.17983,0.27019 -0.0747,0.0741 -0.16365,0.131 -0.26614,0.17021 -0.10249,0.0392 -0.21265,0.0584 -0.33124,0.0584 -0.1596,0 -0.29895,-0.025 -0.41755,-0.0759 -0.1186,-0.0509 -0.21756,-0.1246 -0.29662,-0.22046 -0.0776,-0.0973 -0.13617,-0.21644 -0.1757,-0.35734 -0.0381,-0.14091 -0.0568,-0.3013 -0.0568,-0.48142 v -0.16971 c 0,-0.18013 0.0188,-0.34103 0.0568,-0.48193 0.0395,-0.14236 0.0981,-0.26207 0.1757,-0.3594 0.0776,-0.0973 0.17596,-0.17115 0.29455,-0.222 0.1186,-0.0509 0.25684,-0.0764 0.41497,-0.0764 z m 4.55269,0 c 0.0922,0 0.17717,0.0163 0.25477,0.0482 0.0776,0.0304 0.14435,0.081 0.19999,0.15227 0.0556,0.0711 0.099,0.16413 0.1297,0.2789 0.0308,0.11475 0.046,0.25592 0.046,0.42298 v 1.49911 h -0.62373 v -1.50168 c 0,-0.0755 -0.006,-0.13774 -0.0176,-0.18714 -0.0117,-0.0494 -0.0293,-0.0889 -0.0527,-0.11791 -0.022,-0.0291 -0.0495,-0.0494 -0.0832,-0.061 -0.0337,-0.0116 -0.0735,-0.0175 -0.11886,-0.0175 -0.0586,0 -0.10955,0.0152 -0.15347,0.0456 -0.0439,0.0305 -0.0808,0.0728 -0.11008,0.12664 v 1.7124 h -0.62373 v -2.35726 h 0.58446 l 0.0176,0.23327 c 0.0688,-0.0901 0.14909,-0.15859 0.24133,-0.20507 0.0922,-0.0479 0.19534,-0.0718 0.30954,-0.0718 z m 1.96371,0 c 0.14788,0 0.28086,0.0255 0.39946,0.0764 0.11859,0.0494 0.21988,0.12264 0.30334,0.21995 0.0835,0.0973 0.14788,0.21704 0.19327,0.35939 0.0454,0.14236 0.0682,0.30616 0.0682,0.49066 v 0.15432 c 0,0.18594 -0.0228,0.35035 -0.0682,0.4927 -0.0439,0.14091 -0.10775,0.26002 -0.19121,0.35735 -0.0835,0.0973 -0.18422,0.17056 -0.30282,0.21994 -0.1186,0.0494 -0.25149,0.0743 -0.39791,0.0743 -0.14788,0 -0.28086,-0.0249 -0.39946,-0.0743 -0.11859,-0.0494 -0.21988,-0.12263 -0.30334,-0.21994 -0.0835,-0.0973 -0.14788,-0.21644 -0.19327,-0.35735 -0.0454,-0.14235 -0.0677,-0.30676 -0.0677,-0.4927 v -0.15432 c 0,-0.1845 0.0223,-0.3483 0.0677,-0.49066 0.0454,-0.14235 0.10981,-0.26207 0.19327,-0.35939 0.0835,-0.0973 0.18414,-0.17056 0.30128,-0.21995 0.11859,-0.0509 0.25097,-0.0764 0.39739,-0.0764 z m 3.37137,0 c 0.14788,0 0.28086,0.0255 0.39946,0.0764 0.1186,0.0494 0.21988,0.12264 0.30334,0.21995 0.0835,0.0973 0.14788,0.21704 0.19327,0.35939 0.0454,0.14236 0.0677,0.30616 0.0677,0.49066 v 0.15432 c 0,0.18594 -0.0223,0.35035 -0.0677,0.4927 -0.0439,0.14091 -0.10775,0.26002 -0.1912,0.35735 -0.0835,0.0973 -0.18475,0.17056 -0.30335,0.21994 -0.11859,0.0494 -0.25097,0.0743 -0.39739,0.0743 -0.14788,0 -0.28086,-0.0249 -0.39946,-0.0743 -0.11859,-0.0494 -0.21988,-0.12263 -0.30334,-0.21994 -0.0835,-0.0973 -0.14788,-0.21644 -0.19327,-0.35735 -0.0454,-0.14235 -0.0682,-0.30676 -0.0682,-0.4927 v -0.15432 c 0,-0.1845 0.0228,-0.3483 0.0682,-0.49066 0.0454,-0.14235 0.10981,-0.26207 0.19327,-0.35939 0.0835,-0.0973 0.18363,-0.17056 0.30076,-0.21995 0.1186,-0.0509 0.25149,-0.0764 0.39791,-0.0764 z m 2.07739,0 c 0.11567,0 0.21403,0.0226 0.29456,0.0677 0.0805,0.0436 0.14848,0.1052 0.20412,0.18509 l 0.0243,-0.20918 h 0.55966 v 2.35788 c 0,0.16124 -0.024,0.29959 -0.0723,0.4158 -0.0469,0.11767 -0.11361,0.21466 -0.19999,0.29019 -0.0864,0.0755 -0.19009,0.13134 -0.31161,0.16765 -0.12006,0.0363 -0.25416,0.0544 -0.40204,0.0544 -0.0556,0 -0.11714,-0.006 -0.18449,-0.0175 -0.0673,-0.0116 -0.1347,-0.0291 -0.20205,-0.0523 -0.0673,-0.0217 -0.13178,-0.0502 -0.19327,-0.0851 -0.06,-0.0334 -0.11042,-0.0735 -0.15142,-0.11997 l 0.20878,-0.42707 c 0.0278,0.0291 0.0606,0.0562 0.0987,0.0811 0.0395,0.0261 0.0805,0.0476 0.12299,0.0651 0.0439,0.0189 0.0891,0.0333 0.13591,0.0435 0.0468,0.0116 0.0925,0.0175 0.13642,0.0175 0.063,0 0.1186,-0.007 0.16692,-0.0215 0.0498,-0.0131 0.0914,-0.0363 0.12505,-0.0697 0.0337,-0.0334 0.0588,-0.0781 0.0749,-0.13331 0.0176,-0.0553 0.0263,-0.12383 0.0263,-0.20662 v -0.18969 c -0.0571,0.0741 -0.12384,0.1316 -0.19998,0.17226 -0.0747,0.0392 -0.16253,0.0584 -0.26355,0.0584 -0.12592,0 -0.23892,-0.0244 -0.33848,-0.0738 -0.0981,-0.0494 -0.1813,-0.12204 -0.25012,-0.2179 -0.0673,-0.0958 -0.11946,-0.21438 -0.15606,-0.35529 -0.0366,-0.14237 -0.0548,-0.30625 -0.0548,-0.49219 v -0.15483 c 0,-0.38641 0.0703,-0.67462 0.21084,-0.86492 0.14056,-0.1903 0.33736,-0.28557 0.59066,-0.28557 z m -36.72127,0.0435 h 0.62167 v 1.52988 c 0,0.12929 0.0211,0.22115 0.0636,0.27635 0.0425,0.0538 0.0981,0.081 0.16691,0.081 0.0761,0 0.13935,-0.0163 0.18914,-0.0482 0.0498,-0.0334 0.0891,-0.0782 0.11834,-0.13484 v -1.7042 h 0.6258 v 2.35788 h -0.58395 l -0.0176,-0.21584 c -0.0615,0.0828 -0.1353,0.14672 -0.22169,0.19175 -0.0849,0.045 -0.18388,0.0677 -0.29662,0.0677 -0.0996,0 -0.19034,-0.0163 -0.27234,-0.0482 -0.0805,-0.0334 -0.1502,-0.0851 -0.20877,-0.15483 -0.0586,-0.0711 -0.1037,-0.16184 -0.13591,-0.27224 -0.0322,-0.11186 -0.0486,-0.24549 -0.0486,-0.40093 z m 9.25525,0 h 0.62115 v 1.52988 c 0,0.12929 0.0216,0.22115 0.0641,0.27635 0.0425,0.0538 0.0981,0.081 0.16691,0.081 0.0761,0 0.13884,-0.0163 0.18862,-0.0482 0.0498,-0.0334 0.0896,-0.0782 0.11886,-0.13484 v -1.7042 h 0.6258 v 2.35788 h -0.58446 l -0.0176,-0.21584 c -0.0615,0.0828 -0.13531,0.14672 -0.22169,0.19175 -0.0849,0.045 -0.18388,0.0677 -0.29663,0.0677 -0.0996,0 -0.19034,-0.0163 -0.27233,-0.0482 -0.0805,-0.0334 -0.14969,-0.0851 -0.20826,-0.15483 -0.0586,-0.0711 -0.10421,-0.16184 -0.13642,-0.27224 -0.0322,-0.11186 -0.0481,-0.24549 -0.0481,-0.40093 z m 3.74861,0 h 0.62373 v 2.35788 h -0.62373 z m 25.06152,0 h 0.66765 l 0.28578,1.33147 0.31626,-1.33147 h 0.663 l -0.78186,2.71062 c -0.0176,0.0595 -0.0416,0.12404 -0.0723,0.1938 -0.0293,0.0697 -0.0697,0.13475 -0.12092,0.19431 -0.0512,0.061 -0.11507,0.11097 -0.19121,0.15022 -0.0761,0.0407 -0.16812,0.061 -0.27646,0.061 -0.0278,0 -0.053,-9.9e-4 -0.0749,-0.004 -0.0205,-0.001 -0.0399,-0.003 -0.0589,-0.007 -0.0176,-0.003 -0.0363,-0.007 -0.0553,-0.0133 -0.019,-0.005 -0.0407,-0.0104 -0.0656,-0.0175 v -0.48142 c 0.0117,9.9e-4 0.0234,0.002 0.0351,0.002 h 0.0372 c 0.0498,0 0.0931,-0.005 0.1297,-0.0154 0.0366,-0.009 0.0671,-0.0233 0.092,-0.0435 0.0264,-0.0203 0.048,-0.0464 0.0641,-0.0785 0.0176,-0.0305 0.0322,-0.0677 0.0439,-0.11126 l 0.0481,-0.15893 z m -15.43731,0.4686 c -0.10834,0 -0.18741,0.0384 -0.23719,0.11536 -0.0483,0.077 -0.077,0.20072 -0.0858,0.37068 h 0.62167 v -0.057 c -0.003,-0.14091 -0.0264,-0.2478 -0.0703,-0.32044 -0.0439,-0.0726 -0.12007,-0.10869 -0.22841,-0.10869 z m 8.64444,0 c -0.10542,0 -0.18802,0.0523 -0.24805,0.15689 -0.0586,0.10313 -0.0879,0.26233 -0.0879,0.47732 v 0.15432 c 0,0.21936 0.0299,0.38025 0.0899,0.48193 0.06,0.10024 0.14323,0.15022 0.25012,0.15022 0.11274,0 0.19766,-0.05 0.25476,-0.15022 0.0571,-0.10168 0.0858,-0.26257 0.0858,-0.48193 v -0.15432 c 0,-0.21499 -0.0299,-0.37419 -0.0899,-0.47732 -0.06,-0.10459 -0.14495,-0.15689 -0.25476,-0.15689 z m 3.37137,0 c -0.10542,0 -0.18853,0.0523 -0.24856,0.15689 -0.0586,0.10313 -0.0879,0.26233 -0.0879,0.47732 v 0.15432 c 0,0.21936 0.0304,0.38025 0.0904,0.48193 0.06,0.10024 0.14323,0.15022 0.25011,0.15022 0.11274,0 0.19766,-0.05 0.25476,-0.15022 0.0571,-0.10168 0.0858,-0.26257 0.0858,-0.48193 v -0.15432 c 0,-0.21499 -0.0299,-0.37419 -0.0899,-0.47732 -0.06,-0.10459 -0.14495,-0.15689 -0.25476,-0.15689 z m -17.41186,0.004 c -0.12299,0 -0.21489,0.0505 -0.27492,0.15074 -0.0586,0.10023 -0.0879,0.26121 -0.0879,0.48347 v 0.15483 c 0,0.2179 0.0287,0.37709 0.0858,0.47732 0.0571,0.0988 0.14788,0.14818 0.27234,0.14818 0.0674,0 0.12359,-0.0116 0.16898,-0.0348 0.0469,-0.0247 0.0849,-0.0589 0.1142,-0.10254 v -1.12639 c -0.0308,-0.0479 -0.0694,-0.0851 -0.11627,-0.11126 -0.0454,-0.0261 -0.0993,-0.0395 -0.16226,-0.0395 z m 19.67167,0 c -0.12299,0 -0.21437,0.0505 -0.2744,0.15074 -0.0586,0.10023 -0.0879,0.26121 -0.0879,0.48347 v 0.15483 c 0,0.2179 0.0282,0.37709 0.0853,0.47732 0.0571,0.0988 0.14788,0.14818 0.27233,0.14818 0.0673,0 0.12411,-0.0116 0.1695,-0.0348 0.0468,-0.0247 0.0849,-0.0589 0.11421,-0.10254 v -1.12639 c -0.0307,-0.0479 -0.0699,-0.0851 -0.11679,-0.11126 -0.0454,-0.0261 -0.0993,-0.0395 -0.16227,-0.0395 z m -40.32105,0.81519 c -0.0586,0 -0.10895,0.009 -0.15142,0.0282 -0.0425,0.0189 -0.0782,0.0449 -0.10748,0.0785 -0.0278,0.0334 -0.0494,0.0729 -0.0641,0.11792 -0.0132,0.045 -0.0196,0.0928 -0.0196,0.14355 0,0.0857 0.0176,0.15133 0.0527,0.19637 0.0366,0.0436 0.0881,0.0651 0.15399,0.0651 0.0688,0 0.12739,-0.014 0.1757,-0.0416 0.0483,-0.0276 0.0841,-0.0601 0.10749,-0.0979 v -0.49013 z m 8.01863,0 c -0.0586,0 -0.10895,0.009 -0.15141,0.0282 -0.0425,0.0189 -0.0787,0.0449 -0.10801,0.0785 -0.0278,0.0334 -0.0489,0.0729 -0.0636,0.11792 -0.0132,0.045 -0.0196,0.0928 -0.0196,0.14355 0,0.0857 0.0176,0.15133 0.0527,0.19637 0.0366,0.0436 0.0876,0.0651 0.15348,0.0651 0.0688,0 0.12738,-0.014 0.1757,-0.0416 0.0483,-0.0276 0.0846,-0.0601 0.10801,-0.0979 v -0.49013 z" /><path
         id="rect849"
         style="fill:#2c2c6f;fill-opacity:1;stroke-width:0.499999;stroke-linejoin:round;stroke-miterlimit:3.4;stroke-dashoffset:19.8539;stroke-opacity:0.509044"
         d="m 680.51277,124.61604 v 10.50013 h 1.96474 v -10.50013 z m 2.48202,0 v 10.50013 h 1.96525 v -10.50013 z" /><path
         id="path165"
         style="fill:#2c2c6f;fill-opacity:1;stroke-width:0.264583"
         d="m 627.52951,124.61599 c -2.00263,0 -3.62614,1.61073 -3.62614,3.59758 v 3.30485 c 0,1.98685 1.62351,3.59757 3.62614,3.59757 h 52.46553 v -10.5 z m 11.14867,3.43199 c 0.0512,0 0.0998,0.005 0.14521,0.0133 0.0454,0.009 0.0905,0.0186 0.13591,0.0303 l -0.004,0.4927 c -0.0425,-0.0131 -0.0928,-0.0194 -0.15141,-0.0194 -0.0893,0 -0.15839,0.0267 -0.2067,0.0805 -0.0468,0.0538 -0.0703,0.13222 -0.0703,0.23532 v 0.20252 h 0.37103 v 0.46399 h -0.37103 v 1.89389 h -0.62374 v -1.89389 h -0.28787 v -0.46399 h 0.28784 v -0.20252 c 0,-0.13509 0.0176,-0.25421 0.0527,-0.35734 0.0366,-0.10314 0.0887,-0.1897 0.15606,-0.25943 0.0674,-0.0711 0.14874,-0.12467 0.24391,-0.16099 0.0966,-0.0363 0.20387,-0.0549 0.32246,-0.0549 z m 22.79499,0.0456 h 0.62167 v 1.19663 c 0.0644,-0.0799 0.13764,-0.14151 0.21963,-0.18508 0.0835,-0.0436 0.17544,-0.0657 0.27647,-0.0657 0.0981,0 0.18827,0.0169 0.27026,0.0502 0.082,0.0334 0.15228,0.0863 0.21084,0.15894 0.0586,0.0726 0.10422,0.16731 0.13643,0.28352 0.0322,0.11621 0.0481,0.25746 0.0481,0.42451 v 1.48425 h -0.62374 v -1.48835 c 0,-0.0755 -0.006,-0.13886 -0.0176,-0.18969 -0.0117,-0.0509 -0.0293,-0.0916 -0.0527,-0.12202 -0.0234,-0.0305 -0.0521,-0.052 -0.0858,-0.0651 -0.0337,-0.0131 -0.0729,-0.02 -0.11833,-0.02 -0.0615,0 -0.11361,0.014 -0.15607,0.0416 -0.0425,0.0276 -0.0782,0.0654 -0.10748,0.11331 v 1.72983 h -0.62167 z m 6.70967,5.1e-4 h 0.62374 v 3.34687 h -0.62374 z m -19.33784,0.0518 c 0.0512,0 0.097,0.008 0.13798,0.0241 0.0425,0.016 0.0787,0.0386 0.108,0.0677 0.0293,0.0291 0.0516,0.0639 0.0677,0.10459 0.0161,0.0392 0.0243,0.0828 0.0243,0.13074 0,0.0479 -0.008,0.0922 -0.0243,0.13279 -0.0161,0.0392 -0.0384,0.0741 -0.0677,0.10459 -0.0293,0.0291 -0.0656,0.0517 -0.108,0.0677 -0.041,0.016 -0.0867,0.0241 -0.13798,0.0241 -0.0513,0 -0.0981,-0.008 -0.14056,-0.0241 -0.041,-0.016 -0.0761,-0.0386 -0.10542,-0.0677 -0.0293,-0.0305 -0.0521,-0.0654 -0.0682,-0.10459 -0.0161,-0.0407 -0.0243,-0.0848 -0.0243,-0.13279 0,-0.0479 0.008,-0.0916 0.0243,-0.13074 0.0161,-0.0407 0.0389,-0.0755 0.0682,-0.10459 0.0293,-0.0291 0.0644,-0.0517 0.10542,-0.0677 0.0425,-0.016 0.0893,-0.0241 0.14056,-0.0241 z m -21.00957,0.12254 h 0.84336 l 0.6041,2.29431 0.60151,-2.29431 h 0.84336 v 3.17255 h -0.6475 v -0.85876 l 0.0589,-1.32276 -0.63872,2.18152 h -0.43925 l -0.63924,-2.18152 0.0594,1.32276 v 0.85876 h -0.64595 z m 27.07122,0 h 2.21589 v 0.53371 h -0.79065 v 2.63884 h -0.64803 v -2.63884 h -0.77721 z m -10.7642,0.2353 v 0.57935 h 0.31884 v 0.46399 h -0.31884 v 1.17048 c 0,0.0494 0.003,0.0901 0.009,0.12202 0.007,0.032 0.0184,0.057 0.0331,0.0759 0.0161,0.0175 0.036,0.0303 0.0594,0.0374 0.0234,0.006 0.0521,0.009 0.0858,0.009 0.0307,0 0.0583,-9.9e-4 0.0832,-0.004 0.0264,-0.003 0.0474,-0.006 0.0636,-0.0108 l -0.004,0.47938 c -0.0468,0.0175 -0.0972,0.0314 -0.15141,0.0416 -0.0542,0.0116 -0.118,0.0175 -0.19121,0.0175 -0.0922,0 -0.17595,-0.0134 -0.25063,-0.0395 -0.0747,-0.0247 -0.13909,-0.0643 -0.19327,-0.11946 -0.0527,-0.0567 -0.0937,-0.12931 -0.12299,-0.2179 -0.0278,-0.0886 -0.0413,-0.1955 -0.0413,-0.32043 v -1.2397 h -0.27491 v -0.4645 h 0.27491 v -0.57935 z m 3.8809,0.53525 c 0.0278,0 0.0577,0.003 0.0899,0.009 0.0337,0.005 0.0611,0.011 0.0816,0.0194 l -0.007,0.61011 c -0.0278,-0.003 -0.0624,-0.006 -0.10335,-0.0108 -0.0395,-0.005 -0.0741,-0.007 -0.10336,-0.007 -0.0893,0 -0.1614,0.0191 -0.21704,0.0569 -0.0556,0.0378 -0.0984,0.093 -0.12764,0.1656 v 1.55809 h -0.62373 v -2.35789 h 0.58652 l 0.0176,0.25532 c 0.0469,-0.0944 0.1037,-0.16816 0.17105,-0.22046 0.0688,-0.0523 0.14728,-0.0785 0.23513,-0.0785 z m -15.96027,5.2e-4 c 0.1186,0 0.22807,0.0152 0.32763,0.0456 0.0996,0.0291 0.18569,0.0755 0.2589,0.13945 0.0732,0.0624 0.13057,0.14318 0.17157,0.242 0.041,0.0973 0.0615,0.21524 0.0615,0.35325 v 1.0459 c 0,0.0682 10e-4,0.12928 0.004,0.18302 0.004,0.0523 0.0103,0.1 0.0176,0.14355 0.007,0.0422 0.0161,0.0805 0.0264,0.11537 0.0117,0.0334 0.0251,0.0654 0.0398,0.0958 v 0.0369 l -0.62632,5.1e-4 c -0.0117,-0.0247 -0.0217,-0.0525 -0.0305,-0.083 -0.007,-0.0319 -0.0149,-0.0651 -0.0222,-0.1 -0.0469,0.0639 -0.10723,0.11738 -0.1819,0.16099 -0.0732,0.0436 -0.16339,0.0656 -0.27027,0.0656 -0.0966,0 -0.18741,-0.0169 -0.27234,-0.0502 -0.0835,-0.0334 -0.15666,-0.0805 -0.21962,-0.1415 -0.0615,-0.061 -0.11067,-0.13473 -0.14728,-0.22046 -0.0351,-0.0872 -0.0527,-0.18422 -0.0527,-0.29173 0,-0.11911 0.0193,-0.22661 0.0574,-0.32248 0.0395,-0.0973 0.0981,-0.17928 0.1757,-0.2461 0.0791,-0.0683 0.17691,-0.12056 0.29404,-0.15688 0.1186,-0.0363 0.25795,-0.0549 0.41755,-0.0549 h 0.16898 v -0.18918 c 0,-0.10604 -0.0182,-0.18099 -0.0548,-0.22456 -0.0366,-0.0436 -0.0904,-0.0657 -0.16072,-0.0657 -0.0805,0 -0.13969,0.0243 -0.17776,0.0723 -0.0366,0.0465 -0.0548,0.1122 -0.0548,0.1979 h -0.62167 c 0,-0.10314 0.0199,-0.19961 0.0594,-0.28967 0.041,-0.0916 0.0996,-0.17116 0.1757,-0.23943 0.0761,-0.0683 0.16752,-0.12229 0.2744,-0.1615 0.10689,-0.0407 0.22755,-0.061 0.36225,-0.061 z m 2.40709,0 c 0.0922,0 0.17717,0.0163 0.25477,0.0482 0.0776,0.0304 0.14435,0.081 0.19998,0.15227 0.0556,0.0711 0.099,0.16413 0.12971,0.2789 0.0307,0.11475 0.046,0.25592 0.046,0.42298 v 1.49911 h -0.62373 v -1.50168 c 0,-0.0755 -0.006,-0.13774 -0.0176,-0.18714 -0.0117,-0.0494 -0.0293,-0.0889 -0.0527,-0.11791 -0.022,-0.0291 -0.0495,-0.0494 -0.0832,-0.061 -0.0337,-0.0116 -0.0735,-0.0175 -0.11886,-0.0175 -0.0586,0 -0.10955,0.0152 -0.15348,0.0456 -0.0439,0.0305 -0.0808,0.0728 -0.11007,0.12664 v 1.7124 h -0.62373 v -2.35726 h 0.58446 l 0.0176,0.23327 c 0.0688,-0.0901 0.14909,-0.15859 0.24133,-0.20507 0.0922,-0.0479 0.19534,-0.0718 0.30954,-0.0718 z m 5.61155,0 c 0.11859,0 0.22754,0.0152 0.32711,0.0456 0.0996,0.0291 0.1862,0.0755 0.25941,0.13945 0.0732,0.0624 0.13006,0.14318 0.17105,0.242 0.041,0.0973 0.0615,0.21524 0.0615,0.35325 v 1.0459 c 0,0.0682 0.002,0.12928 0.005,0.18302 0.004,0.0523 0.0103,0.1 0.0176,0.14355 0.007,0.0422 0.0161,0.0805 0.0264,0.11537 0.0117,0.0334 0.0246,0.0654 0.0393,0.0958 v 0.0369 l -0.6258,5.1e-4 c -0.0117,-0.0247 -0.0217,-0.0525 -0.0305,-0.083 -0.007,-0.0319 -0.0149,-0.0651 -0.0222,-0.1 -0.0469,0.0639 -0.10775,0.11738 -0.18242,0.16099 -0.0732,0.0436 -0.16286,0.0656 -0.26975,0.0656 -0.0966,0 -0.18741,-0.0169 -0.27233,-0.0502 -0.0835,-0.0334 -0.15667,-0.0805 -0.21963,-0.1415 -0.0615,-0.061 -0.11067,-0.13473 -0.14728,-0.22046 -0.0351,-0.0872 -0.0527,-0.18422 -0.0527,-0.29173 0,-0.11911 0.0188,-0.22661 0.0568,-0.32248 0.0395,-0.0973 0.0981,-0.17928 0.1757,-0.2461 0.0791,-0.0683 0.17743,-0.12056 0.29456,-0.15688 0.1186,-0.0363 0.25743,-0.0549 0.41703,-0.0549 h 0.1695 v -0.18918 c 0,-0.10604 -0.0187,-0.18099 -0.0553,-0.22456 -0.0366,-0.0436 -0.0899,-0.0657 -0.1602,-0.0657 -0.0805,0 -0.1397,0.0243 -0.17777,0.0723 -0.0366,0.0465 -0.0548,0.1122 -0.0548,0.1979 h -0.62167 c 0,-0.10314 0.0199,-0.19961 0.0594,-0.28967 0.041,-0.0916 0.0996,-0.17116 0.1757,-0.23943 0.0761,-0.0683 0.16752,-0.12229 0.27441,-0.1615 0.10688,-0.0407 0.22755,-0.061 0.36225,-0.061 z m 2.13682,0 c 0.12738,0 0.24331,0.0203 0.34726,0.061 0.10542,0.0392 0.19448,0.0979 0.26769,0.17636 0.0747,0.077 0.13203,0.17286 0.17156,0.28763 0.041,0.11475 0.0621,0.24781 0.0636,0.39888 h -0.58394 c -10e-4,-0.13219 -0.0237,-0.23388 -0.0661,-0.30505 -0.0425,-0.0712 -0.11274,-0.10665 -0.21084,-0.10665 -0.0688,0 -0.12385,0.0134 -0.16485,0.041 -0.0395,0.0276 -0.07,0.0683 -0.092,0.12202 -0.0205,0.0523 -0.0345,0.11794 -0.0419,0.19636 -0.006,0.077 -0.009,0.16645 -0.009,0.26814 v 0.16971 c 0,0.10313 0.003,0.19379 0.009,0.27224 0.006,0.077 0.0193,0.14202 0.0398,0.1943 0.022,0.0523 0.053,0.0913 0.094,0.11741 0.041,0.0261 0.0966,0.0395 0.16692,0.0395 0.0864,0 0.15313,-0.0261 0.19998,-0.0785 0.0483,-0.0538 0.0735,-0.14384 0.0749,-0.27019 h 0.58395 c -0.002,0.13365 -0.0243,0.25395 -0.0682,0.36145 -0.0439,0.10605 -0.1037,0.1961 -0.17984,0.27019 -0.0747,0.0741 -0.16312,0.131 -0.26561,0.17021 -0.10249,0.0392 -0.21317,0.0584 -0.33177,0.0584 -0.15959,0 -0.29894,-0.025 -0.41754,-0.0759 -0.1186,-0.0509 -0.21704,-0.1246 -0.29611,-0.22046 -0.0776,-0.0973 -0.13616,-0.21644 -0.1757,-0.35734 -0.0381,-0.14091 -0.0574,-0.3013 -0.0574,-0.48142 v -0.16971 c 0,-0.18013 0.0193,-0.34103 0.0574,-0.48193 0.0395,-0.14236 0.0981,-0.26207 0.1757,-0.3594 0.0776,-0.0973 0.17544,-0.17115 0.29404,-0.222 0.1186,-0.0509 0.25683,-0.0764 0.41496,-0.0764 z m 8.55916,0 c 0.0922,0 0.17717,0.0163 0.25477,0.0482 0.0776,0.0304 0.14383,0.081 0.19947,0.15227 0.0556,0.0711 0.099,0.16413 0.12971,0.2789 0.0307,0.11475 0.046,0.25592 0.046,0.42298 v 1.49911 h -0.62374 v -1.50168 c 0,-0.0755 -0.006,-0.13774 -0.0176,-0.18714 -0.0117,-0.0494 -0.0293,-0.0889 -0.0527,-0.11791 -0.022,-0.0291 -0.0495,-0.0494 -0.0832,-0.061 -0.0337,-0.0116 -0.0735,-0.0175 -0.11885,-0.0175 -0.0586,0 -0.10956,0.0152 -0.15348,0.0456 -0.0439,0.0305 -0.0808,0.0728 -0.11007,0.12664 v 1.7124 h -0.62374 v -2.35726 h 0.58446 l 0.0176,0.23327 c 0.0688,-0.0901 0.14909,-0.15859 0.24133,-0.20507 0.0922,-0.0479 0.19586,-0.0718 0.31006,-0.0718 z m 1.80299,0 c 0.11567,0 0.21351,0.0226 0.29404,0.0677 0.0805,0.0436 0.149,0.1052 0.20464,0.18509 l 0.0238,-0.20918 h 0.56017 v 2.35788 c 0,0.16124 -0.024,0.29959 -0.0724,0.4158 -0.0469,0.11767 -0.1136,0.21466 -0.19998,0.29019 -0.0864,0.0755 -0.19009,0.13134 -0.31161,0.16765 -0.12006,0.0363 -0.25416,0.0544 -0.40205,0.0544 -0.0556,0 -0.11713,-0.006 -0.18448,-0.0175 -0.0674,-0.0116 -0.1347,-0.0291 -0.20205,-0.0523 -0.0674,-0.0217 -0.13178,-0.0502 -0.19327,-0.0851 -0.06,-0.0334 -0.11042,-0.0735 -0.15142,-0.11997 l 0.20826,-0.42707 c 0.0278,0.0291 0.0611,0.0562 0.0992,0.0811 0.0395,0.0261 0.0805,0.0476 0.12299,0.0651 0.0439,0.0189 0.0891,0.0333 0.13591,0.0435 0.0469,0.0116 0.0925,0.0175 0.13642,0.0175 0.063,0 0.1186,-0.007 0.16692,-0.0215 0.0498,-0.0131 0.0914,-0.0363 0.12506,-0.0697 0.0337,-0.0334 0.0583,-0.0781 0.0744,-0.13331 0.0176,-0.0553 0.0264,-0.12383 0.0264,-0.20662 v -0.18969 c -0.0571,0.0741 -0.12334,0.1316 -0.19948,0.17226 -0.0747,0.0392 -0.16252,0.0584 -0.26355,0.0584 -0.12591,0 -0.23891,-0.0244 -0.33848,-0.0738 -0.0981,-0.0494 -0.18129,-0.12204 -0.25011,-0.2179 -0.0674,-0.0958 -0.11946,-0.21438 -0.15606,-0.35529 -0.0366,-0.14237 -0.0548,-0.30625 -0.0548,-0.49219 v -0.15483 c 0,-0.38641 0.0703,-0.67462 0.21084,-0.86492 0.14056,-0.1903 0.33736,-0.28557 0.59066,-0.28557 z m 5.58261,0 c 0.30162,0 0.52822,0.0964 0.67903,0.28967 0.15081,0.19321 0.22582,0.47963 0.22582,0.85876 v 0.28096 h -1.2361 c 0.004,0.0945 0.0167,0.17347 0.0372,0.23738 0.022,0.0639 0.0512,0.11558 0.0879,0.15483 0.0366,0.0392 0.0805,0.0677 0.13178,0.0851 0.0527,0.0175 0.11187,0.0261 0.17776,0.0261 0.10982,0 0.20706,-0.0181 0.29198,-0.0544 0.0864,-0.0378 0.16252,-0.0901 0.22841,-0.15688 l 0.24391,0.37221 c -0.0307,0.0422 -0.0711,0.0845 -0.12092,0.12664 -0.0498,0.0407 -0.10835,0.0779 -0.1757,0.11124 -0.0674,0.0334 -0.14349,0.0601 -0.22841,0.0805 -0.0849,0.0217 -0.17751,0.0328 -0.27854,0.0328 -0.16252,0 -0.30713,-0.0249 -0.43305,-0.0743 -0.12592,-0.0494 -0.23194,-0.12033 -0.31832,-0.21327 -0.0864,-0.093 -0.15202,-0.20628 -0.19741,-0.33992 -0.0439,-0.1351 -0.0661,-0.28848 -0.0661,-0.4599 v -0.19379 c 0,-0.19176 0.0211,-0.35965 0.0636,-0.50347 0.0439,-0.14526 0.10654,-0.26669 0.18707,-0.36401 0.082,-0.0988 0.18156,-0.1726 0.29869,-0.222 0.1186,-0.0494 0.25218,-0.0743 0.40153,-0.0743 z m 2.1239,0 c 0.12738,0 0.24331,0.0203 0.34727,0.061 0.10542,0.0392 0.19447,0.0979 0.26768,0.17636 0.0747,0.077 0.13203,0.17286 0.17157,0.28763 0.041,0.11475 0.0621,0.24781 0.0636,0.39888 h -0.58446 c -10e-4,-0.13219 -0.0232,-0.23388 -0.0656,-0.30505 -0.0425,-0.0712 -0.11274,-0.10665 -0.21084,-0.10665 -0.0688,0 -0.12386,0.0134 -0.16485,0.041 -0.0395,0.0276 -0.07,0.0683 -0.092,0.12202 -0.0205,0.0523 -0.0345,0.11794 -0.0419,0.19636 -0.006,0.077 -0.009,0.16645 -0.009,0.26814 v 0.16971 c 0,0.10313 0.003,0.19379 0.009,0.27224 0.006,0.077 0.0188,0.14202 0.0393,0.1943 0.022,0.0523 0.0536,0.0913 0.0946,0.11741 0.041,0.0261 0.0966,0.0395 0.16691,0.0395 0.0864,0 0.15314,-0.0261 0.19999,-0.0785 0.0483,-0.0538 0.0729,-0.14384 0.0744,-0.27019 h 0.58446 c -0.002,0.13365 -0.0243,0.25395 -0.0682,0.36145 -0.0439,0.10605 -0.1037,0.1961 -0.17983,0.27019 -0.0747,0.0741 -0.16365,0.131 -0.26614,0.17021 -0.10249,0.0392 -0.21265,0.0584 -0.33124,0.0584 -0.1596,0 -0.29895,-0.025 -0.41755,-0.0759 -0.1186,-0.0509 -0.21756,-0.1246 -0.29662,-0.22046 -0.0776,-0.0973 -0.13617,-0.21644 -0.1757,-0.35734 -0.0381,-0.14091 -0.0568,-0.3013 -0.0568,-0.48142 v -0.16971 c 0,-0.18013 0.0188,-0.34103 0.0568,-0.48193 0.0395,-0.14236 0.0981,-0.26207 0.1757,-0.3594 0.0776,-0.0973 0.17596,-0.17115 0.29455,-0.222 0.1186,-0.0509 0.25684,-0.0764 0.41497,-0.0764 z m 4.55269,0 c 0.0922,0 0.17717,0.0163 0.25477,0.0482 0.0776,0.0304 0.14435,0.081 0.19999,0.15227 0.0556,0.0711 0.099,0.16413 0.1297,0.2789 0.0308,0.11475 0.046,0.25592 0.046,0.42298 v 1.49911 h -0.62373 v -1.50168 c 0,-0.0755 -0.006,-0.13774 -0.0176,-0.18714 -0.0117,-0.0494 -0.0293,-0.0889 -0.0527,-0.11791 -0.022,-0.0291 -0.0495,-0.0494 -0.0832,-0.061 -0.0337,-0.0116 -0.0735,-0.0175 -0.11886,-0.0175 -0.0586,0 -0.10955,0.0152 -0.15347,0.0456 -0.0439,0.0305 -0.0808,0.0728 -0.11008,0.12664 v 1.7124 h -0.62373 v -2.35726 h 0.58446 l 0.0176,0.23327 c 0.0688,-0.0901 0.14909,-0.15859 0.24133,-0.20507 0.0922,-0.0479 0.19534,-0.0718 0.30954,-0.0718 z m 1.96371,0 c 0.14788,0 0.28086,0.0255 0.39946,0.0764 0.11859,0.0494 0.21988,0.12264 0.30334,0.21995 0.0835,0.0973 0.14788,0.21704 0.19327,0.35939 0.0454,0.14236 0.0682,0.30616 0.0682,0.49066 v 0.15432 c 0,0.18594 -0.0228,0.35035 -0.0682,0.4927 -0.0439,0.14091 -0.10775,0.26002 -0.19121,0.35735 -0.0835,0.0973 -0.18422,0.17056 -0.30282,0.21994 -0.1186,0.0494 -0.25149,0.0743 -0.39791,0.0743 -0.14788,0 -0.28086,-0.0249 -0.39946,-0.0743 -0.11859,-0.0494 -0.21988,-0.12263 -0.30334,-0.21994 -0.0835,-0.0973 -0.14788,-0.21644 -0.19327,-0.35735 -0.0454,-0.14235 -0.0677,-0.30676 -0.0677,-0.4927 v -0.15432 c 0,-0.1845 0.0223,-0.3483 0.0677,-0.49066 0.0454,-0.14235 0.10981,-0.26207 0.19327,-0.35939 0.0835,-0.0973 0.18414,-0.17056 0.30128,-0.21995 0.11859,-0.0509 0.25097,-0.0764 0.39739,-0.0764 z m 3.37137,0 c 0.14788,0 0.28086,0.0255 0.39946,0.0764 0.1186,0.0494 0.21988,0.12264 0.30334,0.21995 0.0835,0.0973 0.14788,0.21704 0.19327,0.35939 0.0454,0.14236 0.0677,0.30616 0.0677,0.49066 v 0.15432 c 0,0.18594 -0.0223,0.35035 -0.0677,0.4927 -0.0439,0.14091 -0.10775,0.26002 -0.1912,0.35735 -0.0835,0.0973 -0.18475,0.17056 -0.30335,0.21994 -0.11859,0.0494 -0.25097,0.0743 -0.39739,0.0743 -0.14788,0 -0.28086,-0.0249 -0.39946,-0.0743 -0.11859,-0.0494 -0.21988,-0.12263 -0.30334,-0.21994 -0.0835,-0.0973 -0.14788,-0.21644 -0.19327,-0.35735 -0.0454,-0.14235 -0.0682,-0.30676 -0.0682,-0.4927 v -0.15432 c 0,-0.1845 0.0228,-0.3483 0.0682,-0.49066 0.0454,-0.14235 0.10981,-0.26207 0.19327,-0.35939 0.0835,-0.0973 0.18363,-0.17056 0.30076,-0.21995 0.1186,-0.0509 0.25149,-0.0764 0.39791,-0.0764 z m 2.07739,0 c 0.11567,0 0.21403,0.0226 0.29456,0.0677 0.0805,0.0436 0.14848,0.1052 0.20412,0.18509 l 0.0243,-0.20918 h 0.55966 v 2.35788 c 0,0.16124 -0.024,0.29959 -0.0723,0.4158 -0.0469,0.11767 -0.11361,0.21466 -0.19999,0.29019 -0.0864,0.0755 -0.19009,0.13134 -0.31161,0.16765 -0.12006,0.0363 -0.25416,0.0544 -0.40204,0.0544 -0.0556,0 -0.11714,-0.006 -0.18449,-0.0175 -0.0673,-0.0116 -0.1347,-0.0291 -0.20205,-0.0523 -0.0673,-0.0217 -0.13178,-0.0502 -0.19327,-0.0851 -0.06,-0.0334 -0.11042,-0.0735 -0.15142,-0.11997 l 0.20878,-0.42707 c 0.0278,0.0291 0.0606,0.0562 0.0987,0.0811 0.0395,0.0261 0.0805,0.0476 0.12299,0.0651 0.0439,0.0189 0.0891,0.0333 0.13591,0.0435 0.0468,0.0116 0.0925,0.0175 0.13642,0.0175 0.063,0 0.1186,-0.007 0.16692,-0.0215 0.0498,-0.0131 0.0914,-0.0363 0.12505,-0.0697 0.0337,-0.0334 0.0588,-0.0781 0.0749,-0.13331 0.0176,-0.0553 0.0263,-0.12383 0.0263,-0.20662 v -0.18969 c -0.0571,0.0741 -0.12384,0.1316 -0.19998,0.17226 -0.0747,0.0392 -0.16253,0.0584 -0.26355,0.0584 -0.12592,0 -0.23892,-0.0244 -0.33848,-0.0738 -0.0981,-0.0494 -0.1813,-0.12204 -0.25012,-0.2179 -0.0673,-0.0958 -0.11946,-0.21438 -0.15606,-0.35529 -0.0366,-0.14237 -0.0548,-0.30625 -0.0548,-0.49219 v -0.15483 c 0,-0.38641 0.0703,-0.67462 0.21084,-0.86492 0.14056,-0.1903 0.33736,-0.28557 0.59066,-0.28557 z m -36.72127,0.0435 h 0.62167 v 1.52988 c 0,0.12929 0.0211,0.22115 0.0636,0.27635 0.0425,0.0538 0.0981,0.081 0.16691,0.081 0.0761,0 0.13935,-0.0163 0.18914,-0.0482 0.0498,-0.0334 0.0891,-0.0782 0.11834,-0.13484 v -1.7042 h 0.6258 v 2.35788 h -0.58395 l -0.0176,-0.21584 c -0.0615,0.0828 -0.1353,0.14672 -0.22169,0.19175 -0.0849,0.045 -0.18388,0.0677 -0.29662,0.0677 -0.0996,0 -0.19034,-0.0163 -0.27234,-0.0482 -0.0805,-0.0334 -0.1502,-0.0851 -0.20877,-0.15483 -0.0586,-0.0711 -0.1037,-0.16184 -0.13591,-0.27224 -0.0322,-0.11186 -0.0486,-0.24549 -0.0486,-0.40093 z m 9.25525,0 h 0.62115 v 1.52988 c 0,0.12929 0.0216,0.22115 0.0641,0.27635 0.0425,0.0538 0.0981,0.081 0.16691,0.081 0.0761,0 0.13884,-0.0163 0.18862,-0.0482 0.0498,-0.0334 0.0896,-0.0782 0.11886,-0.13484 v -1.7042 h 0.6258 v 2.35788 h -0.58446 l -0.0176,-0.21584 c -0.0615,0.0828 -0.13531,0.14672 -0.22169,0.19175 -0.0849,0.045 -0.18388,0.0677 -0.29663,0.0677 -0.0996,0 -0.19034,-0.0163 -0.27233,-0.0482 -0.0805,-0.0334 -0.14969,-0.0851 -0.20826,-0.15483 -0.0586,-0.0711 -0.10421,-0.16184 -0.13642,-0.27224 -0.0322,-0.11186 -0.0481,-0.24549 -0.0481,-0.40093 z m 3.74861,0 h 0.62373 v 2.35788 h -0.62373 z m 25.06152,0 h 0.66765 l 0.28578,1.33147 0.31626,-1.33147 h 0.663 l -0.78186,2.71062 c -0.0176,0.0595 -0.0416,0.12404 -0.0723,0.1938 -0.0293,0.0697 -0.0697,0.13475 -0.12092,0.19431 -0.0512,0.061 -0.11507,0.11097 -0.19121,0.15022 -0.0761,0.0407 -0.16812,0.061 -0.27646,0.061 -0.0278,0 -0.053,-9.9e-4 -0.0749,-0.004 -0.0205,-0.001 -0.0399,-0.003 -0.0589,-0.007 -0.0176,-0.003 -0.0363,-0.007 -0.0553,-0.0133 -0.019,-0.005 -0.0407,-0.0104 -0.0656,-0.0175 v -0.48142 c 0.0117,9.9e-4 0.0234,0.002 0.0351,0.002 h 0.0372 c 0.0498,0 0.0931,-0.005 0.1297,-0.0154 0.0366,-0.009 0.0671,-0.0233 0.092,-0.0435 0.0264,-0.0203 0.048,-0.0464 0.0641,-0.0785 0.0176,-0.0305 0.0322,-0.0677 0.0439,-0.11126 l 0.0481,-0.15893 z m -15.43731,0.4686 c -0.10834,0 -0.18741,0.0384 -0.23719,0.11536 -0.0483,0.077 -0.077,0.20072 -0.0858,0.37068 h 0.62167 v -0.057 c -0.003,-0.14091 -0.0264,-0.2478 -0.0703,-0.32044 -0.0439,-0.0726 -0.12007,-0.10869 -0.22841,-0.10869 z m 8.64444,0 c -0.10542,0 -0.18802,0.0523 -0.24805,0.15689 -0.0586,0.10313 -0.0879,0.26233 -0.0879,0.47732 v 0.15432 c 0,0.21936 0.0299,0.38025 0.0899,0.48193 0.06,0.10024 0.14323,0.15022 0.25012,0.15022 0.11274,0 0.19766,-0.05 0.25476,-0.15022 0.0571,-0.10168 0.0858,-0.26257 0.0858,-0.48193 v -0.15432 c 0,-0.21499 -0.0299,-0.37419 -0.0899,-0.47732 -0.06,-0.10459 -0.14495,-0.15689 -0.25476,-0.15689 z m 3.37137,0 c -0.10542,0 -0.18853,0.0523 -0.24856,0.15689 -0.0586,0.10313 -0.0879,0.26233 -0.0879,0.47732 v 0.15432 c 0,0.21936 0.0304,0.38025 0.0904,0.48193 0.06,0.10024 0.14323,0.15022 0.25011,0.15022 0.11274,0 0.19766,-0.05 0.25476,-0.15022 0.0571,-0.10168 0.0858,-0.26257 0.0858,-0.48193 v -0.15432 c 0,-0.21499 -0.0299,-0.37419 -0.0899,-0.47732 -0.06,-0.10459 -0.14495,-0.15689 -0.25476,-0.15689 z m -17.41186,0.004 c -0.12299,0 -0.21489,0.0505 -0.27492,0.15074 -0.0586,0.10023 -0.0879,0.26121 -0.0879,0.48347 v 0.15483 c 0,0.2179 0.0287,0.37709 0.0858,0.47732 0.0571,0.0988 0.14788,0.14818 0.27234,0.14818 0.0674,0 0.12359,-0.0116 0.16898,-0.0348 0.0469,-0.0247 0.0849,-0.0589 0.1142,-0.10254 v -1.12639 c -0.0308,-0.0479 -0.0694,-0.0851 -0.11627,-0.11126 -0.0454,-0.0261 -0.0993,-0.0395 -0.16226,-0.0395 z m 19.67167,0 c -0.12299,0 -0.21437,0.0505 -0.2744,0.15074 -0.0586,0.10023 -0.0879,0.26121 -0.0879,0.48347 v 0.15483 c 0,0.2179 0.0282,0.37709 0.0853,0.47732 0.0571,0.0988 0.14788,0.14818 0.27233,0.14818 0.0673,0 0.12411,-0.0116 0.1695,-0.0348 0.0468,-0.0247 0.0849,-0.0589 0.11421,-0.10254 v -1.12639 c -0.0307,-0.0479 -0.0699,-0.0851 -0.11679,-0.11126 -0.0454,-0.0261 -0.0993,-0.0395 -0.16227,-0.0395 z m -40.32105,0.81519 c -0.0586,0 -0.10895,0.009 -0.15142,0.0282 -0.0425,0.0189 -0.0782,0.0449 -0.10748,0.0785 -0.0278,0.0334 -0.0494,0.0729 -0.0641,0.11792 -0.0132,0.045 -0.0196,0.0928 -0.0196,0.14355 0,0.0857 0.0176,0.15133 0.0527,0.19637 0.0366,0.0436 0.0881,0.0651 0.15399,0.0651 0.0688,0 0.12739,-0.014 0.1757,-0.0416 0.0483,-0.0276 0.0841,-0.0601 0.10749,-0.0979 v -0.49013 z m 8.01863,0 c -0.0586,0 -0.10895,0.009 -0.15141,0.0282 -0.0425,0.0189 -0.0787,0.0449 -0.10801,0.0785 -0.0278,0.0334 -0.0489,0.0729 -0.0636,0.11792 -0.0132,0.045 -0.0196,0.0928 -0.0196,0.14355 0,0.0857 0.0176,0.15133 0.0527,0.19637 0.0366,0.0436 0.0876,0.0651 0.15348,0.0651 0.0688,0 0.12738,-0.014 0.1757,-0.0416 0.0483,-0.0276 0.0846,-0.0601 0.10801,-0.0979 v -0.49013 z" /><path
         id="path166"
         style="fill:#2c2c6f;fill-opacity:1;stroke-width:0.499999;stroke-linejoin:round;stroke-miterlimit:3.4;stroke-dashoffset:19.8539;stroke-opacity:0.509044"
         d="m 680.51277,124.61604 v 10.50013 h 1.96474 v -10.50013 z m 2.48202,0 v 10.50013 h 1.96525 v -10.50013 z" /></g></g></svg>
