<?xml version="1.0" encoding="UTF-8" standalone="no"?>
<!-- Created with Inkscape (http://www.inkscape.org/) -->

<svg
   width="59.860428mm"
   height="10.500135mm"
   viewBox="0 0 59.860428 10.500135"
   version="1.1"
   id="svg1"
   xml:space="preserve"
   inkscape:version="1.3.1 (91b66b0783, 2023-11-16)"
   sodipodi:docname="assets.svg"
   xmlns:inkscape="http://www.inkscape.org/namespaces/inkscape"
   xmlns:sodipodi="http://sodipodi.sourceforge.net/DTD/sodipodi-0.dtd"
   xmlns="http://www.w3.org/2000/svg"
   xmlns:svg="http://www.w3.org/2000/svg"><sodipodi:namedview
     id="namedview1"
     pagecolor="#ffffff"
     bordercolor="#000000"
     borderopacity="0.25"
     inkscape:showpageshadow="2"
     inkscape:pageopacity="0.0"
     inkscape:pagecheckerboard="0"
     inkscape:deskcolor="#d1d1d1"
     inkscape:document-units="mm"
     inkscape:zoom="2.8284271"
     inkscape:cx="1041.3915"
     inkscape:cy="388.3784"
     inkscape:window-width="2560"
     inkscape:window-height="1346"
     inkscape:window-x="-11"
     inkscape:window-y="-11"
     inkscape:window-maximized="1"
     inkscape:current-layer="layer1"
     showgrid="true"><inkscape:grid
       id="grid668"
       units="mm"
       originx="-550.64496"
       originy="-110.14658"
       spacingx="0.5"
       spacingy="0.5"
       empcolor="#0099e5"
       empopacity="0.30196078"
       color="#0099e5"
       opacity="0.14901961"
       empspacing="5"
       dotted="false"
       gridanglex="30"
       gridanglez="30"
       visible="true" /></sodipodi:namedview><defs
     id="defs1" /><g
     inkscape:label="Layer 1"
     inkscape:groupmode="layer"
     id="layer1"
     transform="translate(-550.64497,-110.14658)"><g
       id="g15"><rect
         style="fill:#f9f9f9;stroke-width:0.499999;stroke-linejoin:round;stroke-miterlimit:3.4;stroke-dashoffset:19.8539"
         id="rect11"
         width="41.481094"
         height="6.4863281"
         x="553.51892"
         y="112.3661" /><path
         id="path738"
         style="fill:#2c2c6f;fill-opacity:1;stroke-width:0.264583"
         d="m 554.18067,110.14658 c -1.95262,0 -3.5357,1.61131 -3.5357,3.59823 v 3.30419 c 0,1.98692 1.58308,3.59771 3.5357,3.59771 h 43.82471 v -10.50013 z m 44.34251,0 v 10.50013 h 1.96474 v -10.50013 z m 2.48254,0 v 10.50013 h 1.99987 v -10.50013 z m 2.49959,0 v 10.50013 h 2.00039 v -10.50013 z m 2.5001,0 v 10.50013 h 1.99988 v -10.50013 z m 2.50011,0 v 10.50013 h 1.99987 v -10.50013 z m -51.70434,3.56774 h 0.62373 v 3.43235 h -0.62373 z m 13.54646,0 h 0.62373 v 3.43235 h -0.62373 z m -5.00951,0.0532 c 0.0512,0 0.0975,0.008 0.13849,0.0243 0.0425,0.0164 0.0782,0.0394 0.10749,0.0692 0.0293,0.0298 0.0521,0.0658 0.0682,0.10748 0.0161,0.0402 0.0243,0.0847 0.0243,0.13385 0,0.0492 -0.008,0.0947 -0.0243,0.13642 -0.0161,0.0402 -0.0389,0.0762 -0.0682,0.10749 -0.0293,0.0298 -0.065,0.0529 -0.10749,0.0693 -0.041,0.0164 -0.0872,0.0248 -0.13849,0.0248 -0.0513,0 -0.0981,-0.008 -0.14056,-0.0248 -0.041,-0.0164 -0.0761,-0.0394 -0.10542,-0.0693 -0.0293,-0.0313 -0.0521,-0.0673 -0.0682,-0.10749 -0.0161,-0.0417 -0.0238,-0.0873 -0.0238,-0.13642 0,-0.0492 0.008,-0.0936 0.0238,-0.13385 0.0161,-0.0417 0.0389,-0.0777 0.0682,-0.10748 0.0293,-0.0298 0.0644,-0.0529 0.10542,-0.0692 0.0425,-0.0164 0.0893,-0.0243 0.14056,-0.0243 z m 14.17226,0 c 0.0513,0 0.0975,0.008 0.13849,0.0243 0.0425,0.0164 0.0782,0.0394 0.10749,0.0692 0.0293,0.0298 0.0521,0.0658 0.0682,0.10748 0.0161,0.0402 0.0243,0.0847 0.0243,0.13385 0,0.0492 -0.008,0.0947 -0.0243,0.13642 -0.0161,0.0402 -0.0389,0.0762 -0.0682,0.10749 -0.0293,0.0298 -0.065,0.0529 -0.10749,0.0693 -0.041,0.0164 -0.0872,0.0248 -0.13849,0.0248 -0.0513,0 -0.0981,-0.008 -0.14056,-0.0248 -0.041,-0.0164 -0.0761,-0.0394 -0.10542,-0.0693 -0.0293,-0.0313 -0.0516,-0.0673 -0.0677,-0.10749 -0.0161,-0.0417 -0.0243,-0.0873 -0.0243,-0.13642 0,-0.0492 0.008,-0.0936 0.0243,-0.13385 0.0161,-0.0417 0.0384,-0.0777 0.0677,-0.10748 0.0293,-0.0298 0.0644,-0.0529 0.10542,-0.0692 0.0425,-0.0164 0.0893,-0.0243 0.14056,-0.0243 z m 9.14311,0 c 0.0512,0 0.0975,0.008 0.13849,0.0243 0.0425,0.0164 0.0782,0.0394 0.10749,0.0692 0.0293,0.0298 0.0521,0.0658 0.0682,0.10748 0.0161,0.0402 0.0243,0.0847 0.0243,0.13385 0,0.0492 -0.008,0.0947 -0.0243,0.13642 -0.0161,0.0402 -0.0389,0.0762 -0.0682,0.10749 -0.0293,0.0298 -0.065,0.0529 -0.10749,0.0693 -0.041,0.0164 -0.0872,0.0248 -0.13849,0.0248 -0.0513,0 -0.0981,-0.008 -0.14056,-0.0248 -0.041,-0.0164 -0.0761,-0.0394 -0.10542,-0.0693 -0.0293,-0.0313 -0.0521,-0.0673 -0.0682,-0.10749 -0.0161,-0.0417 -0.0238,-0.0873 -0.0238,-0.13642 0,-0.0492 0.008,-0.0936 0.0238,-0.13385 0.0161,-0.0417 0.0389,-0.0777 0.0682,-0.10748 0.0293,-0.0298 0.0644,-0.0529 0.10542,-0.0692 0.0425,-0.0164 0.0893,-0.0243 0.14056,-0.0243 z m -34.05735,0.12506 h 1.83193 v 0.54777 h -1.18598 v 0.76843 h 1.00562 v 0.52968 h -1.00562 v 0.863 h 1.19011 v 0.54521 h -1.83606 z m 17.92397,0 h 1.83141 v 0.54777 h -1.18597 v 0.76843 h 1.00614 v 0.52968 h -1.00614 v 0.863 h 1.19062 v 0.54521 h -1.83606 z m -10.29188,0.24185 h 0.62167 v 0.59376 h 0.31832 v 0.47594 h -0.31832 v 1.20044 c 0,0.0507 0.003,0.0928 0.009,0.12558 0.007,0.0328 0.0184,0.0582 0.0331,0.0775 0.0161,0.0179 0.0355,0.0308 0.0589,0.0382 0.0234,0.006 0.0521,0.009 0.0858,0.009 0.0307,0 0.0588,-0.002 0.0837,-0.005 0.0264,-0.003 0.0475,-0.006 0.0636,-0.0109 l -0.005,0.49145 c -0.0469,0.0179 -0.0972,0.0325 -0.15141,0.0429 -0.0542,0.0119 -0.11799,0.0176 -0.1912,0.0176 -0.0922,0 -0.17544,-0.0135 -0.25011,-0.0403 -0.0747,-0.0253 -0.1391,-0.0664 -0.19327,-0.12299 -0.0527,-0.0581 -0.0937,-0.13236 -0.12299,-0.22324 -0.0278,-0.0909 -0.0419,-0.20002 -0.0419,-0.32815 v -1.27227 h -0.2744 v -0.47594 h 0.2744 z m -3.42615,0.54932 c 0.30162,0 0.52771,0.099 0.67851,0.29714 0.15081,0.19815 0.22635,0.4917 0.22635,0.88056 v 0.28836 h -1.23662 c 0.004,0.0968 0.0172,0.17784 0.0377,0.24339 0.022,0.0656 0.0512,0.11843 0.0879,0.15865 0.0366,0.0402 0.0805,0.0695 0.13178,0.0873 0.0527,0.0179 0.11188,0.0269 0.17776,0.0269 0.10981,0 0.20706,-0.0186 0.29198,-0.0558 0.0864,-0.0387 0.16253,-0.0922 0.22841,-0.16071 l 0.24391,0.38189 c -0.0307,0.0432 -0.0711,0.0865 -0.12092,0.12971 -0.0498,0.0417 -0.10834,0.0799 -0.1757,0.1142 -0.0674,0.0343 -0.14349,0.0618 -0.22841,0.0827 -0.0849,0.0223 -0.17803,0.0336 -0.27906,0.0336 -0.16252,0 -0.30661,-0.0258 -0.43253,-0.0765 -0.12592,-0.0507 -0.23194,-0.12324 -0.31833,-0.21859 -0.0864,-0.0953 -0.15253,-0.21174 -0.19792,-0.34881 -0.0439,-0.13856 -0.0656,-0.296 -0.0656,-0.47181 v -0.19844 c 0,-0.19666 0.0211,-0.36875 0.0636,-0.51625 0.0439,-0.14899 0.10603,-0.27379 0.18655,-0.37362 0.082,-0.10131 0.18156,-0.17723 0.29869,-0.22789 0.1186,-0.0506 0.25269,-0.076 0.40204,-0.076 z m 2.1239,0 c 0.12739,0 0.2428,0.0208 0.34675,0.0625 0.10542,0.0402 0.19499,0.10041 0.2682,0.18086 0.0747,0.079 0.13152,0.17738 0.17105,0.29508 0.041,0.1177 0.0626,0.25433 0.0641,0.40927 h -0.58446 c -10e-4,-0.13558 -0.0232,-0.24015 -0.0656,-0.31316 -0.0425,-0.073 -0.11274,-0.10955 -0.21084,-0.10955 -0.0688,0 -0.12385,0.0146 -0.16485,0.0429 -0.0395,0.0283 -0.0705,0.0699 -0.0925,0.12506 -0.0205,0.0536 -0.034,0.12056 -0.0413,0.20102 -0.006,0.079 -0.009,0.17063 -0.009,0.27492 v 0.17415 c 0,0.10578 0.003,0.19911 0.009,0.27957 0.006,0.079 0.0188,0.14531 0.0393,0.19895 0.022,0.0536 0.0536,0.0936 0.0946,0.12041 0.041,0.0268 0.0966,0.0403 0.16692,0.0403 0.0864,0 0.15313,-0.027 0.19998,-0.0806 0.0483,-0.0551 0.0729,-0.14737 0.0744,-0.27699 h 0.58446 c -10e-4,0.13707 -0.0243,0.26079 -0.0682,0.37104 -0.0439,0.10876 -0.10422,0.201 -0.18035,0.27699 -0.0747,0.076 -0.16313,0.13444 -0.26562,0.17466 -0.10249,0.0402 -0.21316,0.0605 -0.33176,0.0605 -0.1596,0 -0.29843,-0.0264 -0.41703,-0.0785 -0.1186,-0.0521 -0.21757,-0.12698 -0.29663,-0.22531 -0.0776,-0.0998 -0.13617,-0.22239 -0.1757,-0.36691 -0.0381,-0.14451 -0.0563,-0.30928 -0.0563,-0.49402 v -0.17415 c 0,-0.18475 0.0183,-0.34951 0.0563,-0.49403 0.0395,-0.14601 0.0981,-0.26914 0.1757,-0.36897 0.0776,-0.0998 0.17596,-0.17523 0.29456,-0.22738 0.1186,-0.0521 0.25683,-0.0785 0.41496,-0.0785 z m 3.591,0 c 0.0278,0 0.0577,0.003 0.0899,0.009 0.0337,0.004 0.0606,0.0112 0.0811,0.0202 l -0.007,0.6258 c -0.0278,-0.003 -0.0618,-0.007 -0.10283,-0.0114 -0.0395,-0.005 -0.0741,-0.007 -0.10336,-0.007 -0.0893,0 -0.16192,0.0196 -0.21756,0.0584 -0.0556,0.0388 -0.0973,0.0955 -0.1266,0.17002 v 1.5979 h -0.62425 v -2.41846 h 0.58601 l 0.0181,0.26148 c 0.0469,-0.0968 0.10422,-0.17167 0.17157,-0.22531 0.0688,-0.0536 0.14728,-0.0806 0.23513,-0.0806 z m 2.48357,0 c 0.12738,0 0.24331,0.0208 0.34726,0.0625 0.10542,0.0402 0.19448,0.10041 0.26769,0.18086 0.0747,0.079 0.13203,0.17738 0.17156,0.29508 0.041,0.1177 0.0621,0.25433 0.0636,0.40927 h -0.58394 c -0.002,-0.13558 -0.0236,-0.24015 -0.0661,-0.31316 -0.0425,-0.073 -0.11274,-0.10955 -0.21084,-0.10955 -0.0688,0 -0.12384,0.0146 -0.16484,0.0429 -0.0395,0.0283 -0.07,0.0699 -0.092,0.12506 -0.0205,0.0536 -0.0345,0.12056 -0.0419,0.20102 -0.006,0.079 -0.009,0.17063 -0.009,0.27492 v 0.17415 c 0,0.10578 0.003,0.19911 0.009,0.27957 0.006,0.079 0.0193,0.14531 0.0398,0.19895 0.022,0.0536 0.053,0.0936 0.094,0.12041 0.041,0.0268 0.0966,0.0403 0.16691,0.0403 0.0864,0 0.15314,-0.027 0.19999,-0.0806 0.0483,-0.0551 0.0735,-0.14737 0.0749,-0.27699 h 0.58394 c -10e-4,0.13707 -0.0243,0.26079 -0.0682,0.37104 -0.0439,0.10876 -0.10369,0.201 -0.17983,0.27699 -0.0747,0.076 -0.16313,0.13444 -0.26562,0.17466 -0.10249,0.0402 -0.21317,0.0605 -0.33176,0.0605 -0.1596,0 -0.29895,-0.0264 -0.41755,-0.0785 -0.1186,-0.0521 -0.21703,-0.12698 -0.2961,-0.22531 -0.0776,-0.0998 -0.13616,-0.22239 -0.1757,-0.36691 -0.0381,-0.14451 -0.0574,-0.30928 -0.0574,-0.49402 v -0.17415 c 0,-0.18475 0.0193,-0.34951 0.0574,-0.49403 0.0395,-0.14601 0.0981,-0.26914 0.1757,-0.36897 0.0776,-0.0998 0.17545,-0.17523 0.29404,-0.22738 0.11859,-0.0521 0.25683,-0.0785 0.41496,-0.0785 z m 2.04948,0 c 0.11859,0 0.22755,0.0152 0.32712,0.0465 0.0996,0.0298 0.18568,0.0776 0.25889,0.14314 0.0732,0.0641 0.13058,0.14725 0.17157,0.24856 0.041,0.0998 0.0615,0.22072 0.0615,0.36226 v 1.07228 c 0,0.07 0.001,0.13298 0.004,0.1881 0.004,0.0536 0.0103,0.10258 0.0176,0.14728 0.007,0.0432 0.0161,0.0826 0.0263,0.11834 0.0117,0.0343 0.0251,0.0669 0.0398,0.0982 v 0.0383 h -0.62581 c -0.0117,-0.0253 -0.0222,-0.054 -0.031,-0.0853 -0.007,-0.0328 -0.0144,-0.0666 -0.0217,-0.10232 -0.0469,0.0656 -0.10774,0.12016 -0.18241,0.16485 -0.0732,0.0447 -0.16339,0.0677 -0.27027,0.0677 -0.0966,0 -0.18741,-0.0174 -0.27234,-0.0517 -0.0835,-0.0343 -0.15666,-0.0826 -0.21962,-0.14521 -0.0615,-0.0626 -0.11067,-0.13792 -0.14728,-0.22583 -0.0351,-0.0894 -0.0527,-0.18895 -0.0527,-0.29921 0,-0.12217 0.0193,-0.23291 0.0574,-0.33124 0.0395,-0.0998 0.0981,-0.18365 0.1757,-0.25218 0.0791,-0.07 0.17691,-0.12347 0.29404,-0.16072 0.1186,-0.0373 0.25795,-0.0563 0.41755,-0.0563 h 0.16898 v -0.19431 c 0,-0.10876 -0.0182,-0.18526 -0.0548,-0.22996 -0.0366,-0.0447 -0.0899,-0.0677 -0.1602,-0.0677 -0.0805,0 -0.14021,0.0252 -0.17828,0.0744 -0.0366,0.0477 -0.0548,0.11519 -0.0548,0.20309 h -0.62166 c 0,-0.10578 0.0199,-0.20477 0.0594,-0.29714 0.041,-0.0938 0.0996,-0.17596 0.1757,-0.24598 0.0761,-0.07 0.16753,-0.12514 0.27441,-0.16536 0.10689,-0.0417 0.22806,-0.0625 0.36276,-0.0625 z m 6.78409,0 c 0.0922,0 0.17716,0.0168 0.25476,0.0496 0.0776,0.0313 0.14435,0.0831 0.19999,0.15606 0.0556,0.073 0.0984,0.16807 0.12919,0.28577 0.0308,0.1177 0.0465,0.26275 0.0465,0.43408 v 1.53741 h -0.62374 v -1.53996 c 0,-0.0775 -0.006,-0.14158 -0.0176,-0.19224 -0.0117,-0.0507 -0.0293,-0.0911 -0.0527,-0.12092 -0.022,-0.0298 -0.05,-0.0506 -0.0837,-0.0625 -0.0337,-0.0119 -0.0729,-0.0176 -0.11834,-0.0176 -0.0586,0 -0.11007,0.0157 -0.154,0.047 -0.0439,0.0313 -0.0803,0.0741 -0.10955,0.12919 v 1.75703 h -0.62374 v -2.41846 h 0.58395 l 0.0176,0.23926 c 0.0688,-0.0924 0.14959,-0.16265 0.24184,-0.21032 0.0922,-0.0492 0.19534,-0.0734 0.30955,-0.0734 z m 1.80299,0 c 0.11567,0 0.21402,0.0231 0.29455,0.0692 0.0805,0.0447 0.14848,0.10823 0.20412,0.19017 l 0.0243,-0.21497 h 0.55966 v 2.41852 c 0,0.16537 -0.024,0.30714 -0.0724,0.42633 -0.0469,0.12068 -0.1136,0.22018 -0.19999,0.29765 -0.0864,0.0775 -0.19008,0.13484 -0.31161,0.17209 -0.12006,0.0373 -0.25416,0.0558 -0.40204,0.0558 -0.0556,0 -0.11713,-0.006 -0.18448,-0.0181 -0.0674,-0.0119 -0.13471,-0.0294 -0.20206,-0.0532 -0.0673,-0.0223 -0.13177,-0.0516 -0.19327,-0.0873 -0.06,-0.0343 -0.11042,-0.0748 -0.15141,-0.12247 l 0.20877,-0.43822 c 0.0278,0.0298 0.0606,0.0574 0.0987,0.0827 0.0395,0.0268 0.0805,0.0488 0.12298,0.0667 0.0439,0.0194 0.0891,0.034 0.13591,0.0445 0.0468,0.0119 0.0925,0.0181 0.13643,0.0181 0.063,0 0.1186,-0.007 0.16691,-0.0222 0.0498,-0.0134 0.0914,-0.037 0.12506,-0.0713 0.0337,-0.0343 0.0588,-0.0798 0.0749,-0.13643 0.0176,-0.0566 0.0264,-0.12747 0.0264,-0.21239 v -0.1943 c -0.0571,0.076 -0.12385,0.13502 -0.19999,0.17673 -0.0747,0.0402 -0.16252,0.0605 -0.26355,0.0605 -0.12592,0 -0.23892,-0.0258 -0.33848,-0.0765 -0.0981,-0.0507 -0.1813,-0.1249 -0.25011,-0.22324 -0.0674,-0.0983 -0.11946,-0.22031 -0.15607,-0.36483 -0.0366,-0.14601 -0.0548,-0.31366 -0.0548,-0.50437 v -0.15916 c 0,-0.39631 0.0703,-0.69159 0.21084,-0.88677 0.14056,-0.19517 0.33736,-0.293 0.59066,-0.293 z m 3.80597,0 c 0.0922,0 0.17716,0.0168 0.25476,0.0496 0.0776,0.0313 0.14435,0.0831 0.19999,0.15606 0.0556,0.073 0.099,0.16807 0.12971,0.28577 0.0308,0.1177 0.046,0.26275 0.046,0.43408 v 1.53741 h -0.62374 v -1.53996 c 0,-0.0775 -0.006,-0.14158 -0.0176,-0.19224 -0.0117,-0.0507 -0.0293,-0.0911 -0.0527,-0.12092 -0.022,-0.0298 -0.0495,-0.0506 -0.0832,-0.0625 -0.0337,-0.0119 -0.0735,-0.0176 -0.11886,-0.0176 -0.0586,0 -0.10955,0.0157 -0.15348,0.047 -0.0439,0.0313 -0.0808,0.0741 -0.11007,0.12919 v 1.75703 h -0.62374 v -2.41846 h 0.58447 l 0.0176,0.23926 c 0.0688,-0.0924 0.14907,-0.16265 0.24132,-0.21032 0.0922,-0.0492 0.19534,-0.0734 0.30955,-0.0734 z m 1.97249,0 c 0.30161,0 0.5277,0.099 0.67851,0.29714 0.15081,0.19815 0.22634,0.4917 0.22634,0.88056 v 0.28836 h -1.23662 c 0.004,0.0968 0.0167,0.17784 0.0372,0.24339 0.022,0.0656 0.0513,0.11843 0.0879,0.15865 0.0366,0.0402 0.0805,0.0695 0.13177,0.0873 0.0527,0.0179 0.1124,0.0269 0.17829,0.0269 0.10982,0 0.20705,-0.0186 0.29197,-0.0558 0.0864,-0.0387 0.16253,-0.0922 0.22841,-0.16071 l 0.24391,0.38189 c -0.0308,0.0432 -0.0711,0.0865 -0.12092,0.12971 -0.0498,0.0417 -0.10834,0.0799 -0.1757,0.1142 -0.0674,0.0343 -0.14348,0.0618 -0.22841,0.0827 -0.0849,0.0223 -0.17802,0.0336 -0.27905,0.0336 -0.16252,0 -0.30661,-0.0258 -0.43253,-0.0765 -0.12592,-0.0507 -0.23194,-0.12324 -0.31833,-0.21859 -0.0864,-0.0953 -0.15253,-0.21174 -0.19792,-0.34881 -0.0439,-0.13856 -0.0656,-0.296 -0.0656,-0.47181 v -0.19844 c 0,-0.19666 0.0211,-0.36875 0.0636,-0.51625 0.0439,-0.14899 0.10603,-0.27379 0.18655,-0.37362 0.082,-0.10131 0.18156,-0.17723 0.29869,-0.22789 0.1186,-0.0506 0.2527,-0.076 0.40205,-0.076 z m 2.15232,0 c 0.30162,0 0.5277,0.099 0.67851,0.29714 0.15081,0.19815 0.22634,0.4917 0.22634,0.88056 v 0.28836 h -1.23661 c 0.004,0.0968 0.0167,0.17784 0.0372,0.24339 0.022,0.0656 0.0512,0.11843 0.0879,0.15865 0.0366,0.0402 0.0805,0.0695 0.13178,0.0873 0.0527,0.0179 0.11239,0.0269 0.17828,0.0269 0.10981,0 0.20705,-0.0186 0.29197,-0.0558 0.0864,-0.0387 0.16252,-0.0922 0.22841,-0.16071 l 0.24392,0.38189 c -0.0308,0.0432 -0.0711,0.0865 -0.12093,0.12971 -0.0498,0.0417 -0.10835,0.0799 -0.1757,0.1142 -0.0674,0.0343 -0.14349,0.0618 -0.22841,0.0827 -0.0849,0.0223 -0.17803,0.0336 -0.27905,0.0336 -0.16253,0 -0.30661,-0.0258 -0.43253,-0.0765 -0.12591,-0.0507 -0.23195,-0.12324 -0.31833,-0.21859 -0.0864,-0.0953 -0.15254,-0.21174 -0.19792,-0.34881 -0.0439,-0.13856 -0.0656,-0.296 -0.0656,-0.47181 v -0.19844 c 0,-0.19666 0.0211,-0.36875 0.0636,-0.51625 0.0439,-0.14899 0.10603,-0.27379 0.18656,-0.37362 0.082,-0.10131 0.18155,-0.17723 0.29869,-0.22789 0.11859,-0.0506 0.2527,-0.076 0.40204,-0.076 z m 2.26446,0 c 0.0278,0 0.0577,0.003 0.0899,0.009 0.0337,0.004 0.0606,0.0112 0.0811,0.0202 l -0.006,0.6258 c -0.0278,-0.003 -0.0624,-0.007 -0.10335,-0.0114 -0.0395,-0.005 -0.0741,-0.007 -0.10336,-0.007 -0.0893,0 -0.16192,0.0196 -0.21756,0.0584 -0.0556,0.0388 -0.0978,0.0955 -0.12712,0.17002 v 1.5979 h -0.62373 v -2.41846 h 0.58601 l 0.0176,0.26148 c 0.0469,-0.0968 0.10421,-0.17167 0.17156,-0.22531 0.0688,-0.0536 0.14728,-0.0806 0.23513,-0.0806 z m 2.75384,0 c 0.0922,0 0.17716,0.0168 0.25476,0.0496 0.0776,0.0313 0.14435,0.0831 0.19999,0.15606 0.0556,0.073 0.099,0.16807 0.12971,0.28577 0.0308,0.1177 0.046,0.26275 0.046,0.43408 v 1.53741 h -0.62373 v -1.53996 c 0,-0.0775 -0.006,-0.14158 -0.0176,-0.19224 -0.0117,-0.0507 -0.0293,-0.0911 -0.0527,-0.12092 -0.022,-0.0298 -0.05,-0.0506 -0.0837,-0.0625 -0.0337,-0.0119 -0.0729,-0.0176 -0.11834,-0.0176 -0.0586,0 -0.11007,0.0157 -0.154,0.047 -0.0439,0.0313 -0.0803,0.0741 -0.10955,0.12919 v 1.75703 h -0.62373 v -2.41846 h 0.58394 l 0.0176,0.23926 c 0.0688,-0.0924 0.1496,-0.16265 0.24185,-0.21032 0.0922,-0.0492 0.19533,-0.0734 0.30954,-0.0734 z m 1.80299,0 c 0.11567,0 0.21403,0.0231 0.29455,0.0692 0.0805,0.0447 0.14849,0.10823 0.20413,0.19017 l 0.0243,-0.21497 h 0.56018 v 2.41852 c 0,0.16537 -0.0245,0.30714 -0.0729,0.42633 -0.0469,0.12068 -0.11309,0.22018 -0.19947,0.29765 -0.0864,0.0775 -0.19059,0.13484 -0.31212,0.17209 -0.12006,0.0373 -0.25417,0.0558 -0.40205,0.0558 -0.0556,0 -0.11713,-0.006 -0.18448,-0.0181 -0.0674,-0.0119 -0.13471,-0.0294 -0.20206,-0.0532 -0.0674,-0.0223 -0.13177,-0.0516 -0.19327,-0.0873 -0.06,-0.0343 -0.11042,-0.0748 -0.15141,-0.12247 l 0.20877,-0.43822 c 0.0278,0.0298 0.0606,0.0574 0.0987,0.0827 0.0395,0.0268 0.0805,0.0488 0.12299,0.0667 0.0439,0.0194 0.0896,0.034 0.13642,0.0445 0.0468,0.0119 0.092,0.0181 0.13591,0.0181 0.063,0 0.1186,-0.007 0.16692,-0.0222 0.0498,-0.0134 0.0914,-0.037 0.12505,-0.0713 0.0337,-0.0343 0.0588,-0.0798 0.0749,-0.13643 0.0176,-0.0566 0.0264,-0.12747 0.0264,-0.21239 v -0.1943 c -0.0571,0.076 -0.12385,0.13502 -0.19999,0.17673 -0.0747,0.0402 -0.16252,0.0605 -0.26355,0.0605 -0.12592,0 -0.2384,-0.0258 -0.33796,-0.0765 -0.0981,-0.0507 -0.18182,-0.1249 -0.25063,-0.22324 -0.0674,-0.0983 -0.11946,-0.22031 -0.15607,-0.36483 -0.0366,-0.14601 -0.0548,-0.31366 -0.0548,-0.50437 v -0.15916 c 0,-0.39631 0.0703,-0.69159 0.21084,-0.88677 0.14056,-0.19517 0.33735,-0.293 0.59066,-0.293 z m -27.36061,0.0444 h 0.62374 v 2.41852 h -0.62374 z m 14.17227,0 h 0.62373 v 2.41852 h -0.62373 z m 9.14311,0 h 0.62373 v 2.41852 h -0.62373 z m -29.546,0.48059 c -0.10835,0 -0.18742,0.0394 -0.2372,0.11834 -0.0483,0.079 -0.077,0.20602 -0.0858,0.38034 h 0.62167 v -0.0584 c -0.003,-0.14452 -0.0264,-0.25416 -0.0703,-0.32866 -0.0439,-0.0745 -0.12006,-0.11162 -0.22841,-0.11162 z m 24.61296,0 c -0.10835,0 -0.18741,0.0394 -0.23719,0.11834 -0.0483,0.079 -0.0765,0.20602 -0.0853,0.38034 h 0.62167 v -0.0584 c -0.003,-0.14452 -0.0264,-0.25416 -0.0703,-0.32866 -0.0439,-0.0745 -0.12006,-0.11162 -0.22841,-0.11162 z m 2.15284,0 c -0.10835,0 -0.18741,0.0394 -0.23719,0.11834 -0.0483,0.079 -0.077,0.20602 -0.0858,0.38034 h 0.62166 v -0.0584 c -0.003,-0.14452 -0.0264,-0.25416 -0.0703,-0.32866 -0.0439,-0.0745 -0.12006,-0.11162 -0.22841,-0.11162 z m -7.74423,0.005 c -0.12299,0 -0.21437,0.0517 -0.2744,0.15451 -0.0586,0.1028 -0.0879,0.26763 -0.0879,0.49558 v 0.15916 c 0,0.22349 0.0282,0.38658 0.0853,0.48938 0.0571,0.10131 0.14787,0.15193 0.27233,0.15193 0.0674,0 0.12411,-0.0118 0.1695,-0.0357 0.0469,-0.0253 0.0849,-0.0607 0.11421,-0.10542 v -1.15497 c -0.0308,-0.0492 -0.0699,-0.0874 -0.11679,-0.1142 -0.0454,-0.0268 -0.0993,-0.0403 -0.16227,-0.0403 z m 14.75208,0 c -0.12299,0 -0.21438,0.0517 -0.27441,0.15451 -0.0586,0.1028 -0.0879,0.26763 -0.0879,0.49558 v 0.15916 c 0,0.22349 0.0287,0.38658 0.0858,0.48938 0.0571,0.10131 0.14787,0.15193 0.27233,0.15193 0.0673,0 0.12359,-0.0118 0.16898,-0.0357 0.0469,-0.0253 0.0849,-0.0607 0.11421,-0.10542 v -1.15497 c -0.0308,-0.0492 -0.0694,-0.0874 -0.11627,-0.1142 -0.0454,-0.0268 -0.0998,-0.0403 -0.16278,-0.0403 z m -23.47144,0.83561 c -0.0586,0 -0.10895,0.01 -0.15141,0.0289 -0.0425,0.0194 -0.0782,0.0463 -0.10749,0.0806 -0.0278,0.0343 -0.0489,0.0747 -0.0636,0.12093 -0.0132,0.0462 -0.0201,0.0951 -0.0201,0.14727 0,0.0879 0.0176,0.15536 0.0527,0.20154 0.0366,0.0447 0.0881,0.0667 0.15399,0.0667 0.0688,0 0.12738,-0.0141 0.1757,-0.0424 0.0483,-0.0283 0.0841,-0.062 0.10749,-0.10077 v -0.50281 z" /><path
         id="path148"
         style="fill:#2c2c6f;fill-opacity:1;stroke-width:0.264583"
         d="m 554.18067,110.14658 c -1.95262,0 -3.5357,1.61131 -3.5357,3.59823 v 3.30419 c 0,1.98692 1.58308,3.59771 3.5357,3.59771 h 43.82471 v -10.50013 z m 44.34251,0 v 10.50013 h 1.96474 v -10.50013 z m 2.48254,0 v 10.50013 h 1.99987 v -10.50013 z m 2.49959,0 v 10.50013 h 2.00039 v -10.50013 z m 2.5001,0 v 10.50013 h 1.99988 v -10.50013 z m 2.50011,0 v 10.50013 h 1.99987 v -10.50013 z m -51.70434,3.56774 h 0.62373 v 3.43235 h -0.62373 z m 13.54646,0 h 0.62373 v 3.43235 h -0.62373 z m -5.00951,0.0532 c 0.0512,0 0.0975,0.008 0.13849,0.0243 0.0425,0.0164 0.0782,0.0394 0.10749,0.0692 0.0293,0.0298 0.0521,0.0658 0.0682,0.10748 0.0161,0.0402 0.0243,0.0847 0.0243,0.13385 0,0.0492 -0.008,0.0947 -0.0243,0.13642 -0.0161,0.0402 -0.0389,0.0762 -0.0682,0.10749 -0.0293,0.0298 -0.065,0.0529 -0.10749,0.0693 -0.041,0.0164 -0.0872,0.0248 -0.13849,0.0248 -0.0513,0 -0.0981,-0.008 -0.14056,-0.0248 -0.041,-0.0164 -0.0761,-0.0394 -0.10542,-0.0693 -0.0293,-0.0313 -0.0521,-0.0673 -0.0682,-0.10749 -0.0161,-0.0417 -0.0238,-0.0873 -0.0238,-0.13642 0,-0.0492 0.008,-0.0936 0.0238,-0.13385 0.0161,-0.0417 0.0389,-0.0777 0.0682,-0.10748 0.0293,-0.0298 0.0644,-0.0529 0.10542,-0.0692 0.0425,-0.0164 0.0893,-0.0243 0.14056,-0.0243 z m 14.17226,0 c 0.0513,0 0.0975,0.008 0.13849,0.0243 0.0425,0.0164 0.0782,0.0394 0.10749,0.0692 0.0293,0.0298 0.0521,0.0658 0.0682,0.10748 0.0161,0.0402 0.0243,0.0847 0.0243,0.13385 0,0.0492 -0.008,0.0947 -0.0243,0.13642 -0.0161,0.0402 -0.0389,0.0762 -0.0682,0.10749 -0.0293,0.0298 -0.065,0.0529 -0.10749,0.0693 -0.041,0.0164 -0.0872,0.0248 -0.13849,0.0248 -0.0513,0 -0.0981,-0.008 -0.14056,-0.0248 -0.041,-0.0164 -0.0761,-0.0394 -0.10542,-0.0693 -0.0293,-0.0313 -0.0516,-0.0673 -0.0677,-0.10749 -0.0161,-0.0417 -0.0243,-0.0873 -0.0243,-0.13642 0,-0.0492 0.008,-0.0936 0.0243,-0.13385 0.0161,-0.0417 0.0384,-0.0777 0.0677,-0.10748 0.0293,-0.0298 0.0644,-0.0529 0.10542,-0.0692 0.0425,-0.0164 0.0893,-0.0243 0.14056,-0.0243 z m 9.14311,0 c 0.0512,0 0.0975,0.008 0.13849,0.0243 0.0425,0.0164 0.0782,0.0394 0.10749,0.0692 0.0293,0.0298 0.0521,0.0658 0.0682,0.10748 0.0161,0.0402 0.0243,0.0847 0.0243,0.13385 0,0.0492 -0.008,0.0947 -0.0243,0.13642 -0.0161,0.0402 -0.0389,0.0762 -0.0682,0.10749 -0.0293,0.0298 -0.065,0.0529 -0.10749,0.0693 -0.041,0.0164 -0.0872,0.0248 -0.13849,0.0248 -0.0513,0 -0.0981,-0.008 -0.14056,-0.0248 -0.041,-0.0164 -0.0761,-0.0394 -0.10542,-0.0693 -0.0293,-0.0313 -0.0521,-0.0673 -0.0682,-0.10749 -0.0161,-0.0417 -0.0238,-0.0873 -0.0238,-0.13642 0,-0.0492 0.008,-0.0936 0.0238,-0.13385 0.0161,-0.0417 0.0389,-0.0777 0.0682,-0.10748 0.0293,-0.0298 0.0644,-0.0529 0.10542,-0.0692 0.0425,-0.0164 0.0893,-0.0243 0.14056,-0.0243 z m -34.05735,0.12506 h 1.83193 v 0.54777 h -1.18598 v 0.76843 h 1.00562 v 0.52968 h -1.00562 v 0.863 h 1.19011 v 0.54521 h -1.83606 z m 17.92397,0 h 1.83141 v 0.54777 h -1.18597 v 0.76843 h 1.00614 v 0.52968 h -1.00614 v 0.863 h 1.19062 v 0.54521 h -1.83606 z m -10.29188,0.24185 h 0.62167 v 0.59376 h 0.31832 v 0.47594 h -0.31832 v 1.20044 c 0,0.0507 0.003,0.0928 0.009,0.12558 0.007,0.0328 0.0184,0.0582 0.0331,0.0775 0.0161,0.0179 0.0355,0.0308 0.0589,0.0382 0.0234,0.006 0.0521,0.009 0.0858,0.009 0.0307,0 0.0588,-0.002 0.0837,-0.005 0.0264,-0.003 0.0475,-0.006 0.0636,-0.0109 l -0.005,0.49145 c -0.0469,0.0179 -0.0972,0.0325 -0.15141,0.0429 -0.0542,0.0119 -0.11799,0.0176 -0.1912,0.0176 -0.0922,0 -0.17544,-0.0135 -0.25011,-0.0403 -0.0747,-0.0253 -0.1391,-0.0664 -0.19327,-0.12299 -0.0527,-0.0581 -0.0937,-0.13236 -0.12299,-0.22324 -0.0278,-0.0909 -0.0419,-0.20002 -0.0419,-0.32815 v -1.27227 h -0.2744 v -0.47594 h 0.2744 z m -3.42615,0.54932 c 0.30162,0 0.52771,0.099 0.67851,0.29714 0.15081,0.19815 0.22635,0.4917 0.22635,0.88056 v 0.28836 h -1.23662 c 0.004,0.0968 0.0172,0.17784 0.0377,0.24339 0.022,0.0656 0.0512,0.11843 0.0879,0.15865 0.0366,0.0402 0.0805,0.0695 0.13178,0.0873 0.0527,0.0179 0.11188,0.0269 0.17776,0.0269 0.10981,0 0.20706,-0.0186 0.29198,-0.0558 0.0864,-0.0387 0.16253,-0.0922 0.22841,-0.16071 l 0.24391,0.38189 c -0.0307,0.0432 -0.0711,0.0865 -0.12092,0.12971 -0.0498,0.0417 -0.10834,0.0799 -0.1757,0.1142 -0.0674,0.0343 -0.14349,0.0618 -0.22841,0.0827 -0.0849,0.0223 -0.17803,0.0336 -0.27906,0.0336 -0.16252,0 -0.30661,-0.0258 -0.43253,-0.0765 -0.12592,-0.0507 -0.23194,-0.12324 -0.31833,-0.21859 -0.0864,-0.0953 -0.15253,-0.21174 -0.19792,-0.34881 -0.0439,-0.13856 -0.0656,-0.296 -0.0656,-0.47181 v -0.19844 c 0,-0.19666 0.0211,-0.36875 0.0636,-0.51625 0.0439,-0.14899 0.10603,-0.27379 0.18655,-0.37362 0.082,-0.10131 0.18156,-0.17723 0.29869,-0.22789 0.1186,-0.0506 0.25269,-0.076 0.40204,-0.076 z m 2.1239,0 c 0.12739,0 0.2428,0.0208 0.34675,0.0625 0.10542,0.0402 0.19499,0.10041 0.2682,0.18086 0.0747,0.079 0.13152,0.17738 0.17105,0.29508 0.041,0.1177 0.0626,0.25433 0.0641,0.40927 h -0.58446 c -10e-4,-0.13558 -0.0232,-0.24015 -0.0656,-0.31316 -0.0425,-0.073 -0.11274,-0.10955 -0.21084,-0.10955 -0.0688,0 -0.12385,0.0146 -0.16485,0.0429 -0.0395,0.0283 -0.0705,0.0699 -0.0925,0.12506 -0.0205,0.0536 -0.034,0.12056 -0.0413,0.20102 -0.006,0.079 -0.009,0.17063 -0.009,0.27492 v 0.17415 c 0,0.10578 0.003,0.19911 0.009,0.27957 0.006,0.079 0.0188,0.14531 0.0393,0.19895 0.022,0.0536 0.0536,0.0936 0.0946,0.12041 0.041,0.0268 0.0966,0.0403 0.16692,0.0403 0.0864,0 0.15313,-0.027 0.19998,-0.0806 0.0483,-0.0551 0.0729,-0.14737 0.0744,-0.27699 h 0.58446 c -10e-4,0.13707 -0.0243,0.26079 -0.0682,0.37104 -0.0439,0.10876 -0.10422,0.201 -0.18035,0.27699 -0.0747,0.076 -0.16313,0.13444 -0.26562,0.17466 -0.10249,0.0402 -0.21316,0.0605 -0.33176,0.0605 -0.1596,0 -0.29843,-0.0264 -0.41703,-0.0785 -0.1186,-0.0521 -0.21757,-0.12698 -0.29663,-0.22531 -0.0776,-0.0998 -0.13617,-0.22239 -0.1757,-0.36691 -0.0381,-0.14451 -0.0563,-0.30928 -0.0563,-0.49402 v -0.17415 c 0,-0.18475 0.0183,-0.34951 0.0563,-0.49403 0.0395,-0.14601 0.0981,-0.26914 0.1757,-0.36897 0.0776,-0.0998 0.17596,-0.17523 0.29456,-0.22738 0.1186,-0.0521 0.25683,-0.0785 0.41496,-0.0785 z m 3.591,0 c 0.0278,0 0.0577,0.003 0.0899,0.009 0.0337,0.004 0.0606,0.0112 0.0811,0.0202 l -0.007,0.6258 c -0.0278,-0.003 -0.0618,-0.007 -0.10283,-0.0114 -0.0395,-0.005 -0.0741,-0.007 -0.10336,-0.007 -0.0893,0 -0.16192,0.0196 -0.21756,0.0584 -0.0556,0.0388 -0.0973,0.0955 -0.1266,0.17002 v 1.5979 h -0.62425 v -2.41846 h 0.58601 l 0.0181,0.26148 c 0.0469,-0.0968 0.10422,-0.17167 0.17157,-0.22531 0.0688,-0.0536 0.14728,-0.0806 0.23513,-0.0806 z m 2.48357,0 c 0.12738,0 0.24331,0.0208 0.34726,0.0625 0.10542,0.0402 0.19448,0.10041 0.26769,0.18086 0.0747,0.079 0.13203,0.17738 0.17156,0.29508 0.041,0.1177 0.0621,0.25433 0.0636,0.40927 h -0.58394 c -0.002,-0.13558 -0.0236,-0.24015 -0.0661,-0.31316 -0.0425,-0.073 -0.11274,-0.10955 -0.21084,-0.10955 -0.0688,0 -0.12384,0.0146 -0.16484,0.0429 -0.0395,0.0283 -0.07,0.0699 -0.092,0.12506 -0.0205,0.0536 -0.0345,0.12056 -0.0419,0.20102 -0.006,0.079 -0.009,0.17063 -0.009,0.27492 v 0.17415 c 0,0.10578 0.003,0.19911 0.009,0.27957 0.006,0.079 0.0193,0.14531 0.0398,0.19895 0.022,0.0536 0.053,0.0936 0.094,0.12041 0.041,0.0268 0.0966,0.0403 0.16691,0.0403 0.0864,0 0.15314,-0.027 0.19999,-0.0806 0.0483,-0.0551 0.0735,-0.14737 0.0749,-0.27699 h 0.58394 c -10e-4,0.13707 -0.0243,0.26079 -0.0682,0.37104 -0.0439,0.10876 -0.10369,0.201 -0.17983,0.27699 -0.0747,0.076 -0.16313,0.13444 -0.26562,0.17466 -0.10249,0.0402 -0.21317,0.0605 -0.33176,0.0605 -0.1596,0 -0.29895,-0.0264 -0.41755,-0.0785 -0.1186,-0.0521 -0.21703,-0.12698 -0.2961,-0.22531 -0.0776,-0.0998 -0.13616,-0.22239 -0.1757,-0.36691 -0.0381,-0.14451 -0.0574,-0.30928 -0.0574,-0.49402 v -0.17415 c 0,-0.18475 0.0193,-0.34951 0.0574,-0.49403 0.0395,-0.14601 0.0981,-0.26914 0.1757,-0.36897 0.0776,-0.0998 0.17545,-0.17523 0.29404,-0.22738 0.11859,-0.0521 0.25683,-0.0785 0.41496,-0.0785 z m 2.04948,0 c 0.11859,0 0.22755,0.0152 0.32712,0.0465 0.0996,0.0298 0.18568,0.0776 0.25889,0.14314 0.0732,0.0641 0.13058,0.14725 0.17157,0.24856 0.041,0.0998 0.0615,0.22072 0.0615,0.36226 v 1.07228 c 0,0.07 0.001,0.13298 0.004,0.1881 0.004,0.0536 0.0103,0.10258 0.0176,0.14728 0.007,0.0432 0.0161,0.0826 0.0263,0.11834 0.0117,0.0343 0.0251,0.0669 0.0398,0.0982 v 0.0383 h -0.62581 c -0.0117,-0.0253 -0.0222,-0.054 -0.031,-0.0853 -0.007,-0.0328 -0.0144,-0.0666 -0.0217,-0.10232 -0.0469,0.0656 -0.10774,0.12016 -0.18241,0.16485 -0.0732,0.0447 -0.16339,0.0677 -0.27027,0.0677 -0.0966,0 -0.18741,-0.0174 -0.27234,-0.0517 -0.0835,-0.0343 -0.15666,-0.0826 -0.21962,-0.14521 -0.0615,-0.0626 -0.11067,-0.13792 -0.14728,-0.22583 -0.0351,-0.0894 -0.0527,-0.18895 -0.0527,-0.29921 0,-0.12217 0.0193,-0.23291 0.0574,-0.33124 0.0395,-0.0998 0.0981,-0.18365 0.1757,-0.25218 0.0791,-0.07 0.17691,-0.12347 0.29404,-0.16072 0.1186,-0.0373 0.25795,-0.0563 0.41755,-0.0563 h 0.16898 v -0.19431 c 0,-0.10876 -0.0182,-0.18526 -0.0548,-0.22996 -0.0366,-0.0447 -0.0899,-0.0677 -0.1602,-0.0677 -0.0805,0 -0.14021,0.0252 -0.17828,0.0744 -0.0366,0.0477 -0.0548,0.11519 -0.0548,0.20309 h -0.62166 c 0,-0.10578 0.0199,-0.20477 0.0594,-0.29714 0.041,-0.0938 0.0996,-0.17596 0.1757,-0.24598 0.0761,-0.07 0.16753,-0.12514 0.27441,-0.16536 0.10689,-0.0417 0.22806,-0.0625 0.36276,-0.0625 z m 6.78409,0 c 0.0922,0 0.17716,0.0168 0.25476,0.0496 0.0776,0.0313 0.14435,0.0831 0.19999,0.15606 0.0556,0.073 0.0984,0.16807 0.12919,0.28577 0.0308,0.1177 0.0465,0.26275 0.0465,0.43408 v 1.53741 h -0.62374 v -1.53996 c 0,-0.0775 -0.006,-0.14158 -0.0176,-0.19224 -0.0117,-0.0507 -0.0293,-0.0911 -0.0527,-0.12092 -0.022,-0.0298 -0.05,-0.0506 -0.0837,-0.0625 -0.0337,-0.0119 -0.0729,-0.0176 -0.11834,-0.0176 -0.0586,0 -0.11007,0.0157 -0.154,0.047 -0.0439,0.0313 -0.0803,0.0741 -0.10955,0.12919 v 1.75703 h -0.62374 v -2.41846 h 0.58395 l 0.0176,0.23926 c 0.0688,-0.0924 0.14959,-0.16265 0.24184,-0.21032 0.0922,-0.0492 0.19534,-0.0734 0.30955,-0.0734 z m 1.80299,0 c 0.11567,0 0.21402,0.0231 0.29455,0.0692 0.0805,0.0447 0.14848,0.10823 0.20412,0.19017 l 0.0243,-0.21497 h 0.55966 v 2.41852 c 0,0.16537 -0.024,0.30714 -0.0724,0.42633 -0.0469,0.12068 -0.1136,0.22018 -0.19999,0.29765 -0.0864,0.0775 -0.19008,0.13484 -0.31161,0.17209 -0.12006,0.0373 -0.25416,0.0558 -0.40204,0.0558 -0.0556,0 -0.11713,-0.006 -0.18448,-0.0181 -0.0674,-0.0119 -0.13471,-0.0294 -0.20206,-0.0532 -0.0673,-0.0223 -0.13177,-0.0516 -0.19327,-0.0873 -0.06,-0.0343 -0.11042,-0.0748 -0.15141,-0.12247 l 0.20877,-0.43822 c 0.0278,0.0298 0.0606,0.0574 0.0987,0.0827 0.0395,0.0268 0.0805,0.0488 0.12298,0.0667 0.0439,0.0194 0.0891,0.034 0.13591,0.0445 0.0468,0.0119 0.0925,0.0181 0.13643,0.0181 0.063,0 0.1186,-0.007 0.16691,-0.0222 0.0498,-0.0134 0.0914,-0.037 0.12506,-0.0713 0.0337,-0.0343 0.0588,-0.0798 0.0749,-0.13643 0.0176,-0.0566 0.0264,-0.12747 0.0264,-0.21239 v -0.1943 c -0.0571,0.076 -0.12385,0.13502 -0.19999,0.17673 -0.0747,0.0402 -0.16252,0.0605 -0.26355,0.0605 -0.12592,0 -0.23892,-0.0258 -0.33848,-0.0765 -0.0981,-0.0507 -0.1813,-0.1249 -0.25011,-0.22324 -0.0674,-0.0983 -0.11946,-0.22031 -0.15607,-0.36483 -0.0366,-0.14601 -0.0548,-0.31366 -0.0548,-0.50437 v -0.15916 c 0,-0.39631 0.0703,-0.69159 0.21084,-0.88677 0.14056,-0.19517 0.33736,-0.293 0.59066,-0.293 z m 3.80597,0 c 0.0922,0 0.17716,0.0168 0.25476,0.0496 0.0776,0.0313 0.14435,0.0831 0.19999,0.15606 0.0556,0.073 0.099,0.16807 0.12971,0.28577 0.0308,0.1177 0.046,0.26275 0.046,0.43408 v 1.53741 h -0.62374 v -1.53996 c 0,-0.0775 -0.006,-0.14158 -0.0176,-0.19224 -0.0117,-0.0507 -0.0293,-0.0911 -0.0527,-0.12092 -0.022,-0.0298 -0.0495,-0.0506 -0.0832,-0.0625 -0.0337,-0.0119 -0.0735,-0.0176 -0.11886,-0.0176 -0.0586,0 -0.10955,0.0157 -0.15348,0.047 -0.0439,0.0313 -0.0808,0.0741 -0.11007,0.12919 v 1.75703 h -0.62374 v -2.41846 h 0.58447 l 0.0176,0.23926 c 0.0688,-0.0924 0.14907,-0.16265 0.24132,-0.21032 0.0922,-0.0492 0.19534,-0.0734 0.30955,-0.0734 z m 1.97249,0 c 0.30161,0 0.5277,0.099 0.67851,0.29714 0.15081,0.19815 0.22634,0.4917 0.22634,0.88056 v 0.28836 h -1.23662 c 0.004,0.0968 0.0167,0.17784 0.0372,0.24339 0.022,0.0656 0.0513,0.11843 0.0879,0.15865 0.0366,0.0402 0.0805,0.0695 0.13177,0.0873 0.0527,0.0179 0.1124,0.0269 0.17829,0.0269 0.10982,0 0.20705,-0.0186 0.29197,-0.0558 0.0864,-0.0387 0.16253,-0.0922 0.22841,-0.16071 l 0.24391,0.38189 c -0.0308,0.0432 -0.0711,0.0865 -0.12092,0.12971 -0.0498,0.0417 -0.10834,0.0799 -0.1757,0.1142 -0.0674,0.0343 -0.14348,0.0618 -0.22841,0.0827 -0.0849,0.0223 -0.17802,0.0336 -0.27905,0.0336 -0.16252,0 -0.30661,-0.0258 -0.43253,-0.0765 -0.12592,-0.0507 -0.23194,-0.12324 -0.31833,-0.21859 -0.0864,-0.0953 -0.15253,-0.21174 -0.19792,-0.34881 -0.0439,-0.13856 -0.0656,-0.296 -0.0656,-0.47181 v -0.19844 c 0,-0.19666 0.0211,-0.36875 0.0636,-0.51625 0.0439,-0.14899 0.10603,-0.27379 0.18655,-0.37362 0.082,-0.10131 0.18156,-0.17723 0.29869,-0.22789 0.1186,-0.0506 0.2527,-0.076 0.40205,-0.076 z m 2.15232,0 c 0.30162,0 0.5277,0.099 0.67851,0.29714 0.15081,0.19815 0.22634,0.4917 0.22634,0.88056 v 0.28836 h -1.23661 c 0.004,0.0968 0.0167,0.17784 0.0372,0.24339 0.022,0.0656 0.0512,0.11843 0.0879,0.15865 0.0366,0.0402 0.0805,0.0695 0.13178,0.0873 0.0527,0.0179 0.11239,0.0269 0.17828,0.0269 0.10981,0 0.20705,-0.0186 0.29197,-0.0558 0.0864,-0.0387 0.16252,-0.0922 0.22841,-0.16071 l 0.24392,0.38189 c -0.0308,0.0432 -0.0711,0.0865 -0.12093,0.12971 -0.0498,0.0417 -0.10835,0.0799 -0.1757,0.1142 -0.0674,0.0343 -0.14349,0.0618 -0.22841,0.0827 -0.0849,0.0223 -0.17803,0.0336 -0.27905,0.0336 -0.16253,0 -0.30661,-0.0258 -0.43253,-0.0765 -0.12591,-0.0507 -0.23195,-0.12324 -0.31833,-0.21859 -0.0864,-0.0953 -0.15254,-0.21174 -0.19792,-0.34881 -0.0439,-0.13856 -0.0656,-0.296 -0.0656,-0.47181 v -0.19844 c 0,-0.19666 0.0211,-0.36875 0.0636,-0.51625 0.0439,-0.14899 0.10603,-0.27379 0.18656,-0.37362 0.082,-0.10131 0.18155,-0.17723 0.29869,-0.22789 0.11859,-0.0506 0.2527,-0.076 0.40204,-0.076 z m 2.26446,0 c 0.0278,0 0.0577,0.003 0.0899,0.009 0.0337,0.004 0.0606,0.0112 0.0811,0.0202 l -0.006,0.6258 c -0.0278,-0.003 -0.0624,-0.007 -0.10335,-0.0114 -0.0395,-0.005 -0.0741,-0.007 -0.10336,-0.007 -0.0893,0 -0.16192,0.0196 -0.21756,0.0584 -0.0556,0.0388 -0.0978,0.0955 -0.12712,0.17002 v 1.5979 h -0.62373 v -2.41846 h 0.58601 l 0.0176,0.26148 c 0.0469,-0.0968 0.10421,-0.17167 0.17156,-0.22531 0.0688,-0.0536 0.14728,-0.0806 0.23513,-0.0806 z m 2.75384,0 c 0.0922,0 0.17716,0.0168 0.25476,0.0496 0.0776,0.0313 0.14435,0.0831 0.19999,0.15606 0.0556,0.073 0.099,0.16807 0.12971,0.28577 0.0308,0.1177 0.046,0.26275 0.046,0.43408 v 1.53741 h -0.62373 v -1.53996 c 0,-0.0775 -0.006,-0.14158 -0.0176,-0.19224 -0.0117,-0.0507 -0.0293,-0.0911 -0.0527,-0.12092 -0.022,-0.0298 -0.05,-0.0506 -0.0837,-0.0625 -0.0337,-0.0119 -0.0729,-0.0176 -0.11834,-0.0176 -0.0586,0 -0.11007,0.0157 -0.154,0.047 -0.0439,0.0313 -0.0803,0.0741 -0.10955,0.12919 v 1.75703 h -0.62373 v -2.41846 h 0.58394 l 0.0176,0.23926 c 0.0688,-0.0924 0.1496,-0.16265 0.24185,-0.21032 0.0922,-0.0492 0.19533,-0.0734 0.30954,-0.0734 z m 1.80299,0 c 0.11567,0 0.21403,0.0231 0.29455,0.0692 0.0805,0.0447 0.14849,0.10823 0.20413,0.19017 l 0.0243,-0.21497 h 0.56018 v 2.41852 c 0,0.16537 -0.0245,0.30714 -0.0729,0.42633 -0.0469,0.12068 -0.11309,0.22018 -0.19947,0.29765 -0.0864,0.0775 -0.19059,0.13484 -0.31212,0.17209 -0.12006,0.0373 -0.25417,0.0558 -0.40205,0.0558 -0.0556,0 -0.11713,-0.006 -0.18448,-0.0181 -0.0674,-0.0119 -0.13471,-0.0294 -0.20206,-0.0532 -0.0674,-0.0223 -0.13177,-0.0516 -0.19327,-0.0873 -0.06,-0.0343 -0.11042,-0.0748 -0.15141,-0.12247 l 0.20877,-0.43822 c 0.0278,0.0298 0.0606,0.0574 0.0987,0.0827 0.0395,0.0268 0.0805,0.0488 0.12299,0.0667 0.0439,0.0194 0.0896,0.034 0.13642,0.0445 0.0468,0.0119 0.092,0.0181 0.13591,0.0181 0.063,0 0.1186,-0.007 0.16692,-0.0222 0.0498,-0.0134 0.0914,-0.037 0.12505,-0.0713 0.0337,-0.0343 0.0588,-0.0798 0.0749,-0.13643 0.0176,-0.0566 0.0264,-0.12747 0.0264,-0.21239 v -0.1943 c -0.0571,0.076 -0.12385,0.13502 -0.19999,0.17673 -0.0747,0.0402 -0.16252,0.0605 -0.26355,0.0605 -0.12592,0 -0.2384,-0.0258 -0.33796,-0.0765 -0.0981,-0.0507 -0.18182,-0.1249 -0.25063,-0.22324 -0.0674,-0.0983 -0.11946,-0.22031 -0.15607,-0.36483 -0.0366,-0.14601 -0.0548,-0.31366 -0.0548,-0.50437 v -0.15916 c 0,-0.39631 0.0703,-0.69159 0.21084,-0.88677 0.14056,-0.19517 0.33735,-0.293 0.59066,-0.293 z m -27.36061,0.0444 h 0.62374 v 2.41852 h -0.62374 z m 14.17227,0 h 0.62373 v 2.41852 h -0.62373 z m 9.14311,0 h 0.62373 v 2.41852 h -0.62373 z m -29.546,0.48059 c -0.10835,0 -0.18742,0.0394 -0.2372,0.11834 -0.0483,0.079 -0.077,0.20602 -0.0858,0.38034 h 0.62167 v -0.0584 c -0.003,-0.14452 -0.0264,-0.25416 -0.0703,-0.32866 -0.0439,-0.0745 -0.12006,-0.11162 -0.22841,-0.11162 z m 24.61296,0 c -0.10835,0 -0.18741,0.0394 -0.23719,0.11834 -0.0483,0.079 -0.0765,0.20602 -0.0853,0.38034 h 0.62167 v -0.0584 c -0.003,-0.14452 -0.0264,-0.25416 -0.0703,-0.32866 -0.0439,-0.0745 -0.12006,-0.11162 -0.22841,-0.11162 z m 2.15284,0 c -0.10835,0 -0.18741,0.0394 -0.23719,0.11834 -0.0483,0.079 -0.077,0.20602 -0.0858,0.38034 h 0.62166 v -0.0584 c -0.003,-0.14452 -0.0264,-0.25416 -0.0703,-0.32866 -0.0439,-0.0745 -0.12006,-0.11162 -0.22841,-0.11162 z m -7.74423,0.005 c -0.12299,0 -0.21437,0.0517 -0.2744,0.15451 -0.0586,0.1028 -0.0879,0.26763 -0.0879,0.49558 v 0.15916 c 0,0.22349 0.0282,0.38658 0.0853,0.48938 0.0571,0.10131 0.14787,0.15193 0.27233,0.15193 0.0674,0 0.12411,-0.0118 0.1695,-0.0357 0.0469,-0.0253 0.0849,-0.0607 0.11421,-0.10542 v -1.15497 c -0.0308,-0.0492 -0.0699,-0.0874 -0.11679,-0.1142 -0.0454,-0.0268 -0.0993,-0.0403 -0.16227,-0.0403 z m 14.75208,0 c -0.12299,0 -0.21438,0.0517 -0.27441,0.15451 -0.0586,0.1028 -0.0879,0.26763 -0.0879,0.49558 v 0.15916 c 0,0.22349 0.0287,0.38658 0.0858,0.48938 0.0571,0.10131 0.14787,0.15193 0.27233,0.15193 0.0673,0 0.12359,-0.0118 0.16898,-0.0357 0.0469,-0.0253 0.0849,-0.0607 0.11421,-0.10542 v -1.15497 c -0.0308,-0.0492 -0.0694,-0.0874 -0.11627,-0.1142 -0.0454,-0.0268 -0.0998,-0.0403 -0.16278,-0.0403 z m -23.47144,0.83561 c -0.0586,0 -0.10895,0.01 -0.15141,0.0289 -0.0425,0.0194 -0.0782,0.0463 -0.10749,0.0806 -0.0278,0.0343 -0.0489,0.0747 -0.0636,0.12093 -0.0132,0.0462 -0.0201,0.0951 -0.0201,0.14727 0,0.0879 0.0176,0.15536 0.0527,0.20154 0.0366,0.0447 0.0881,0.0667 0.15399,0.0667 0.0688,0 0.12738,-0.0141 0.1757,-0.0424 0.0483,-0.0283 0.0841,-0.062 0.10749,-0.10077 v -0.50281 z" /></g></g></svg>
