<?xml version="1.0" encoding="UTF-8" standalone="no"?>
<!-- Created with Inkscape (http://www.inkscape.org/) -->

<svg
   width="58.564899mm"
   height="10.500135mm"
   viewBox="0 0 58.564899 10.500135"
   version="1.1"
   id="svg1"
   xml:space="preserve"
   inkscape:version="1.3.1 (91b66b0783, 2023-11-16)"
   sodipodi:docname="assets.svg"
   xmlns:inkscape="http://www.inkscape.org/namespaces/inkscape"
   xmlns:sodipodi="http://sodipodi.sourceforge.net/DTD/sodipodi-0.dtd"
   xmlns="http://www.w3.org/2000/svg"
   xmlns:svg="http://www.w3.org/2000/svg"><sodipodi:namedview
     id="namedview1"
     pagecolor="#ffffff"
     bordercolor="#000000"
     borderopacity="0.25"
     inkscape:showpageshadow="2"
     inkscape:pageopacity="0.0"
     inkscape:pagecheckerboard="0"
     inkscape:deskcolor="#d1d1d1"
     inkscape:document-units="mm"
     inkscape:zoom="1"
     inkscape:cx="1883.5"
     inkscape:cy="284.5"
     inkscape:window-width="2560"
     inkscape:window-height="1346"
     inkscape:window-x="-11"
     inkscape:window-y="-11"
     inkscape:window-maximized="1"
     inkscape:current-layer="layer1"
     showgrid="true"><inkscape:grid
       id="grid668"
       units="mm"
       originx="-482.90506"
       originy="-139.08546"
       spacingx="0.5"
       spacingy="0.5"
       empcolor="#0099e5"
       empopacity="0.30196078"
       color="#0099e5"
       opacity="0.14901961"
       empspacing="5"
       dotted="false"
       gridanglex="30"
       gridanglez="30"
       visible="true" /></sodipodi:namedview><defs
     id="defs1" /><g
     inkscape:label="Layer 1"
     inkscape:groupmode="layer"
     id="layer1"
     transform="translate(-482.90507,-139.08546)"><rect
       style="fill:#f9f9f9;stroke-width:0.499999;stroke-linejoin:round;stroke-miterlimit:3.4;stroke-dashoffset:19.8539"
       id="rect25"
       width="43.084881"
       height="7.1517849"
       x="486.91516"
       y="140.74854" /><path
       id="path745"
       style="fill:#2c2c6f;fill-opacity:1;stroke-width:0.264583"
       d="m 486.53121,139.08546 c -2.00262,0 -3.62613,1.61086 -3.62613,3.59771 v 3.30471 c 0,1.98684 1.62351,3.59771 3.62613,3.59771 h 47.43845 v -10.50013 z m 47.95625,0 v 10.50013 h 1.96474 v -10.50013 z m 2.48254,0 v 10.50013 h 1.99987 v -10.50013 z m 2.49959,0 v 10.50013 h 2.00039 v -10.50013 z m -44.96884,3.47782 h 0.62167 v 1.19683 c 0.0644,-0.0799 0.13764,-0.14195 0.21963,-0.18552 0.0835,-0.0436 0.17544,-0.0651 0.27647,-0.0651 0.0981,0 0.18827,0.0168 0.27026,0.0501 0.082,0.0334 0.15228,0.086 0.21084,0.15865 0.0586,0.0726 0.10422,0.16749 0.13643,0.2837 0.0322,0.11621 0.0481,0.25721 0.0481,0.42426 v 1.48467 h -0.62374 v -1.4888 c 0,-0.0755 -0.006,-0.13882 -0.0176,-0.18965 -0.0117,-0.0509 -0.0293,-0.0915 -0.0527,-0.12196 -0.0234,-0.0305 -0.0521,-0.052 -0.0858,-0.0651 -0.0337,-0.0131 -0.0729,-0.0196 -0.11834,-0.0196 -0.0615,0 -0.11359,0.0137 -0.15606,0.0413 -0.0425,0.0276 -0.0782,0.0653 -0.10749,0.11317 v 1.73013 h -0.62167 z m 11.90832,5.2e-4 h 0.62374 v 3.34708 h -0.62374 z m -5.01003,0.0522 c 0.0512,0 0.0975,0.008 0.13849,0.0238 0.0425,0.016 0.0782,0.0386 0.10749,0.0677 0.0293,0.0291 0.0521,0.0637 0.0682,0.10438 0.0161,0.0392 0.0243,0.0828 0.0243,0.13074 0,0.0479 -0.008,0.0921 -0.0243,0.13281 -0.0161,0.0392 -0.0389,0.0744 -0.0682,0.10491 -0.0293,0.0291 -0.065,0.0517 -0.10749,0.0677 -0.041,0.016 -0.0872,0.0238 -0.13849,0.0238 -0.0513,0 -0.0981,-0.008 -0.14056,-0.0238 -0.041,-0.016 -0.0761,-0.0386 -0.10542,-0.0677 -0.0293,-0.0305 -0.0516,-0.0657 -0.0677,-0.10491 -0.0161,-0.0407 -0.0243,-0.0848 -0.0243,-0.13281 0,-0.0479 0.008,-0.0916 0.0243,-0.13074 0.0161,-0.0407 0.0384,-0.0753 0.0677,-0.10438 0.0293,-0.0291 0.0644,-0.0517 0.10542,-0.0677 0.0425,-0.016 0.0893,-0.0238 0.14056,-0.0238 z m 14.17278,0 c 0.0513,0 0.097,0.008 0.13798,0.0238 0.0425,0.016 0.0787,0.0386 0.108,0.0677 0.0293,0.0291 0.0516,0.0637 0.0677,0.10438 0.0161,0.0392 0.0243,0.0828 0.0243,0.13074 0,0.0479 -0.008,0.0921 -0.0243,0.13281 -0.0161,0.0392 -0.0384,0.0744 -0.0677,0.10491 -0.0293,0.0291 -0.0655,0.0517 -0.108,0.0677 -0.041,0.016 -0.0867,0.0238 -0.13798,0.0238 -0.0513,0 -0.0981,-0.008 -0.14056,-0.0238 -0.041,-0.016 -0.0761,-0.0386 -0.10542,-0.0677 -0.0293,-0.0305 -0.0521,-0.0657 -0.0682,-0.10491 -0.0161,-0.0407 -0.0243,-0.0848 -0.0243,-0.13281 0,-0.0479 0.008,-0.0916 0.0243,-0.13074 0.0161,-0.0407 0.0389,-0.0753 0.0682,-0.10438 0.0293,-0.0291 0.0644,-0.0517 0.10542,-0.0677 0.0425,-0.016 0.0893,-0.0238 0.14056,-0.0238 z m 9.14259,0 c 0.0512,0 0.0975,0.008 0.1385,0.0238 0.0425,0.016 0.0782,0.0386 0.10748,0.0677 0.0293,0.0291 0.0521,0.0637 0.0682,0.10438 0.0161,0.0392 0.0243,0.0828 0.0243,0.13074 0,0.0479 -0.008,0.0921 -0.0243,0.13281 -0.0161,0.0392 -0.0389,0.0744 -0.0682,0.10491 -0.0293,0.0291 -0.065,0.0517 -0.10748,0.0677 -0.041,0.016 -0.0873,0.0238 -0.1385,0.0238 -0.0513,0 -0.0981,-0.008 -0.14056,-0.0238 -0.041,-0.016 -0.0761,-0.0386 -0.10542,-0.0677 -0.0293,-0.0305 -0.0516,-0.0657 -0.0677,-0.10491 -0.0161,-0.0407 -0.0243,-0.0848 -0.0243,-0.13281 0,-0.0479 0.008,-0.0916 0.0243,-0.13074 0.0161,-0.0407 0.0384,-0.0753 0.0677,-0.10438 0.0293,-0.0291 0.0644,-0.0517 0.10542,-0.0677 0.0425,-0.016 0.0893,-0.0238 0.14056,-0.0238 z m -37.79924,0.12196 h 0.84336 l 0.60358,2.29443 0.60203,-2.29443 h 0.84336 v 3.17293 h -0.64802 v -0.85886 l 0.0594,-1.32292 -0.63924,2.18178 h -0.43925 l -0.63924,-2.18178 0.0594,1.32292 v 0.85886 h -0.64544 z m 21.66586,0 h 1.83141 v 0.53381 h -1.18597 v 0.74983 h 1.00614 v 0.51625 h -1.00614 v 0.84129 h 1.19063 v 0.53175 h -1.83607 z m 15.31225,0.76997 v 5.2e-4 c 0.0278,0 0.0577,0.003 0.0899,0.009 0.0337,0.005 0.0606,0.0111 0.0811,0.0196 l -0.006,0.60978 c -0.0278,-0.003 -0.0624,-0.006 -0.10335,-0.0103 -0.0395,-0.005 -0.0741,-0.007 -0.10335,-0.007 -0.0893,0 -0.16192,0.0186 -0.21756,0.0563 -0.0556,0.0378 -0.0978,0.0928 -0.12712,0.16536 v 1.55805 h -0.62374 v -2.35747 h 0.58653 l 0.0176,0.25528 c 0.0469,-0.0945 0.1037,-0.16837 0.17105,-0.22066 0.0688,-0.0523 0.14728,-0.0785 0.23513,-0.0785 z m -32.7024,0.001 c 0.30162,0 0.52822,0.0966 0.67903,0.2899 0.15081,0.19321 0.22582,0.47974 0.22582,0.85886 v 0.28111 h -1.2361 c 0.004,0.0945 0.0167,0.1733 0.0372,0.23721 0.022,0.0639 0.0511,0.11527 0.0878,0.1545 0.0366,0.0392 0.0805,0.0679 0.13177,0.0853 0.0527,0.0175 0.11188,0.0264 0.17777,0.0264 0.10981,0 0.20705,-0.018 0.29197,-0.0543 0.0864,-0.0378 0.16252,-0.0903 0.22841,-0.15709 l 0.24392,0.37207 c -0.0307,0.0422 -0.0711,0.0845 -0.12093,0.1266 -0.0498,0.0407 -0.10835,0.0783 -0.1757,0.11163 -0.0674,0.0334 -0.14349,0.0597 -0.22841,0.0801 -0.0849,0.0217 -0.1775,0.0331 -0.27853,0.0331 -0.16252,0 -0.30713,-0.025 -0.43305,-0.0744 -0.12592,-0.0494 -0.23195,-0.12048 -0.31833,-0.21342 -0.0864,-0.093 -0.15201,-0.20587 -0.1974,-0.33952 -0.0439,-0.13509 -0.0661,-0.2885 -0.0661,-0.45992 v -0.19378 c 0,-0.19176 0.0211,-0.36003 0.0636,-0.50385 0.0439,-0.14526 0.10654,-0.26648 0.18707,-0.3638 0.082,-0.0988 0.18156,-0.17282 0.29869,-0.22221 0.1186,-0.0494 0.25218,-0.0739 0.40153,-0.0739 z m 2.1239,0 c 0.12738,0 0.24331,0.0208 0.34727,0.0615 0.10542,0.0392 0.19447,0.0978 0.26768,0.17622 0.0747,0.077 0.13203,0.17255 0.17157,0.28732 0.041,0.11475 0.0621,0.24787 0.0636,0.39894 h -0.58446 c -0.001,-0.13219 -0.0232,-0.23372 -0.0656,-0.30489 -0.0425,-0.0711 -0.11274,-0.10645 -0.21084,-0.10645 -0.0688,0 -0.12385,0.0132 -0.16485,0.0408 -0.0395,0.0276 -0.07,0.0682 -0.092,0.12196 -0.0205,0.0523 -0.0345,0.11795 -0.0419,0.19637 -0.006,0.077 -0.009,0.16651 -0.009,0.2682 v 0.1695 c 0,0.10313 0.003,0.19388 0.009,0.27233 0.006,0.077 0.0188,0.14203 0.0393,0.19431 0.022,0.0523 0.0536,0.0912 0.0946,0.1173 0.041,0.0261 0.0966,0.0398 0.16691,0.0398 0.0864,0 0.15314,-0.0262 0.19999,-0.0786 0.0483,-0.0538 0.073,-0.14391 0.0744,-0.27026 h 0.58446 c -0.001,0.13365 -0.0243,0.25372 -0.0682,0.36122 -0.0439,0.10605 -0.1037,0.19617 -0.17983,0.27026 -0.0747,0.0741 -0.16363,0.13132 -0.26613,0.17054 -0.10249,0.0392 -0.21265,0.0589 -0.33125,0.0589 -0.1596,0 -0.29895,-0.0256 -0.41754,-0.0765 -0.11859,-0.0509 -0.21756,-0.1243 -0.29663,-0.22015 -0.0776,-0.0973 -0.13617,-0.21618 -0.1757,-0.35708 -0.0381,-0.14091 -0.0568,-0.30202 -0.0568,-0.48214 v -0.1695 c 0,-0.18013 0.0188,-0.34072 0.0568,-0.48162 0.0395,-0.14237 0.0981,-0.26235 0.1757,-0.35967 0.0776,-0.0973 0.17596,-0.17136 0.29456,-0.22221 0.11859,-0.0509 0.25683,-0.0765 0.41496,-0.0765 z m 4.26279,0 c 0.1186,0 0.22807,0.0156 0.32763,0.046 0.0996,0.0291 0.18569,0.0756 0.2589,0.13953 0.0732,0.0624 0.13057,0.14303 0.17156,0.24184 0.041,0.0973 0.0615,0.21494 0.0615,0.35295 v 1.04593 c 0,0.0683 0.001,0.12971 0.004,0.18345 0.004,0.0523 0.0103,0.0996 0.0176,0.14315 0.007,0.0422 0.0162,0.0809 0.0264,0.11574 0.0117,0.0334 0.0252,0.0652 0.0398,0.0956 v 0.0367 l -0.62632,5.2e-4 c -0.0117,-0.0247 -0.0217,-0.0522 -0.0305,-0.0827 -0.007,-0.0319 -0.0149,-0.0654 -0.0222,-0.10025 -0.0468,0.0639 -0.10722,0.11763 -0.1819,0.16123 -0.0732,0.0435 -0.16339,0.0656 -0.27027,0.0656 -0.0966,0 -0.18742,-0.0168 -0.27234,-0.0501 -0.0835,-0.0334 -0.15666,-0.0806 -0.21962,-0.14159 -0.0615,-0.061 -0.11068,-0.13494 -0.14728,-0.22066 -0.0351,-0.0872 -0.0527,-0.18395 -0.0527,-0.29146 0,-0.11911 0.0193,-0.22659 0.0574,-0.32246 0.0395,-0.0973 0.0981,-0.17916 0.1757,-0.24598 0.0791,-0.0683 0.1769,-0.12077 0.29404,-0.15709 0.1186,-0.0363 0.25796,-0.0548 0.41755,-0.0548 h 0.16898 v -0.18914 c 0,-0.10604 -0.0182,-0.18122 -0.0548,-0.22479 -0.0366,-0.0436 -0.0904,-0.0656 -0.16071,-0.0656 -0.0805,0 -0.1397,0.0243 -0.17777,0.0724 -0.0366,0.0465 -0.0548,0.11222 -0.0548,0.19792 h -0.62166 c 0,-0.10314 0.0199,-0.19984 0.0594,-0.28991 0.041,-0.0915 0.0996,-0.17099 0.1757,-0.23926 0.0761,-0.0683 0.16751,-0.12252 0.2744,-0.16174 0.10688,-0.0407 0.22755,-0.061 0.36225,-0.061 z m 2.40709,0 c 0.0922,0 0.17716,0.0167 0.25476,0.0486 0.0776,0.0305 0.14435,0.0808 0.19999,0.15193 0.0556,0.0711 0.099,0.1643 0.12971,0.27905 0.0308,0.11476 0.046,0.25618 0.046,0.42323 v 1.49914 h -0.62374 v -1.50172 c 0,-0.0755 -0.006,-0.13767 -0.0176,-0.18707 -0.0117,-0.0494 -0.0293,-0.0893 -0.0527,-0.11834 -0.022,-0.0291 -0.0495,-0.0494 -0.0832,-0.061 -0.0337,-0.0116 -0.0735,-0.0176 -0.11886,-0.0176 -0.0586,0 -0.10956,0.0156 -0.15348,0.046 -0.0439,0.0305 -0.0808,0.0729 -0.11007,0.1266 v 1.71204 h -0.62373 v -2.35696 h 0.58446 l 0.0176,0.23306 c 0.0688,-0.0901 0.14909,-0.15867 0.24133,-0.20515 0.0922,-0.0479 0.19533,-0.0718 0.30954,-0.0718 z m 3.07733,0 c 0.12738,0 0.24279,0.0208 0.34675,0.0615 0.10542,0.0392 0.19499,0.0978 0.2682,0.17622 0.0747,0.077 0.13152,0.17255 0.17105,0.28732 0.041,0.11475 0.0621,0.24787 0.0636,0.39894 h -0.58394 c -0.002,-0.13219 -0.0237,-0.23372 -0.0662,-0.30489 -0.0425,-0.0711 -0.11275,-0.10645 -0.21084,-0.10645 -0.0688,0 -0.12333,0.0132 -0.16433,0.0408 -0.0395,0.0276 -0.0705,0.0682 -0.0925,0.12196 -0.0205,0.0523 -0.0345,0.11795 -0.0419,0.19637 -0.006,0.077 -0.009,0.16651 -0.009,0.2682 v 0.1695 c 0,0.10313 0.003,0.19388 0.009,0.27233 0.006,0.077 0.0193,0.14203 0.0398,0.19431 0.022,0.0523 0.0536,0.0912 0.0946,0.1173 0.041,0.0261 0.0966,0.0398 0.16691,0.0398 0.0864,0 0.15262,-0.0262 0.19947,-0.0786 0.0483,-0.0538 0.0735,-0.14391 0.0749,-0.27026 h 0.58394 c -10e-4,0.13365 -0.0238,0.25372 -0.0677,0.36122 -0.0439,0.10605 -0.10421,0.19617 -0.18035,0.27026 -0.0747,0.0741 -0.16312,0.13132 -0.26561,0.17054 -0.1025,0.0392 -0.21317,0.0589 -0.33177,0.0589 -0.15959,0 -0.29843,-0.0256 -0.41703,-0.0765 -0.11859,-0.0509 -0.21755,-0.1243 -0.29662,-0.22015 -0.0776,-0.0973 -0.13617,-0.21618 -0.1757,-0.35708 -0.0381,-0.14091 -0.0574,-0.30202 -0.0574,-0.48214 v -0.1695 c 0,-0.18013 0.0193,-0.34072 0.0574,-0.48162 0.0395,-0.14237 0.0981,-0.26235 0.1757,-0.35967 0.0776,-0.0973 0.17544,-0.17136 0.29404,-0.22221 0.1186,-0.0509 0.25735,-0.0765 0.41548,-0.0765 z m 2.04897,0 h 5.2e-4 c 0.11838,4e-5 0.22719,0.0156 0.32659,0.046 0.0996,0.0291 0.18621,0.0756 0.25942,0.13953 0.0732,0.0624 0.13005,0.14303 0.17105,0.24184 0.041,0.0973 0.0615,0.21494 0.0615,0.35295 v 1.04593 c 0,0.0683 0.002,0.12971 0.005,0.18345 0.004,0.0523 0.0103,0.0996 0.0176,0.14315 0.007,0.0422 0.0161,0.0809 0.0263,0.11574 0.0117,0.0334 0.0246,0.0652 0.0393,0.0956 v 0.0367 l -0.6258,5.2e-4 c -0.0117,-0.0247 -0.0222,-0.0522 -0.031,-0.0827 -0.007,-0.0319 -0.0144,-0.0654 -0.0217,-0.10025 -0.0469,0.0639 -0.10775,0.11763 -0.18242,0.16123 -0.0732,0.0435 -0.16339,0.0656 -0.27027,0.0656 -0.0966,0 -0.1874,-0.0168 -0.27233,-0.0501 -0.0835,-0.0334 -0.15667,-0.0806 -0.21963,-0.14159 -0.0615,-0.061 -0.11016,-0.13494 -0.14676,-0.22066 -0.0351,-0.0872 -0.0527,-0.18395 -0.0527,-0.29146 0,-0.11911 0.0188,-0.22659 0.0568,-0.32246 0.0395,-0.0973 0.0981,-0.17916 0.1757,-0.24598 0.0791,-0.0683 0.17743,-0.12077 0.29456,-0.15709 0.1186,-0.0363 0.25744,-0.0548 0.41703,-0.0548 h 0.16898 v -0.18914 c 0,-0.10604 -0.0182,-0.18122 -0.0548,-0.22479 -0.0366,-0.0436 -0.0899,-0.0656 -0.16019,-0.0656 -0.0805,0 -0.1397,0.0243 -0.17777,0.0724 -0.0366,0.0465 -0.0553,0.11222 -0.0553,0.19792 h -0.62116 c 0,-0.10314 0.0194,-0.19984 0.0589,-0.28991 0.041,-0.0915 0.0996,-0.17099 0.1757,-0.23926 0.0761,-0.0683 0.16802,-0.12252 0.27491,-0.16174 0.10674,-0.0406 0.22726,-0.0609 0.36174,-0.061 z m 6.78408,0 c 0.0922,0 0.17717,0.0167 0.25477,0.0486 0.0776,0.0305 0.14434,0.0808 0.19998,0.15193 0.0556,0.0711 0.099,0.1643 0.12971,0.27905 0.0308,0.11476 0.046,0.25618 0.046,0.42323 v 1.49914 h -0.62373 v -1.50172 c 0,-0.0755 -0.006,-0.13767 -0.0176,-0.18707 -0.0117,-0.0494 -0.0293,-0.0893 -0.0527,-0.11834 -0.022,-0.0291 -0.05,-0.0494 -0.0837,-0.061 -0.0337,-0.0116 -0.0729,-0.0176 -0.11834,-0.0176 -0.0586,0 -0.11006,0.0156 -0.15399,0.046 -0.0439,0.0305 -0.0803,0.0729 -0.10956,0.1266 v 1.71204 h -0.62373 v -2.35696 h 0.58394 l 0.0176,0.23306 c 0.0688,-0.0901 0.14961,-0.15867 0.24185,-0.20515 0.0922,-0.0479 0.19533,-0.0718 0.30954,-0.0718 z m 1.80299,0 c 0.11567,0 0.21403,0.0226 0.29456,0.0677 0.0805,0.0436 0.14848,0.10564 0.20412,0.18552 l 0.0243,-0.20929 h 0.56017 v 2.358 c 0,0.16124 -0.0245,0.29927 -0.0729,0.41548 -0.0469,0.11767 -0.11309,0.21489 -0.19948,0.29042 -0.0864,0.0755 -0.1906,0.13112 -0.31212,0.16743 -0.12007,0.0363 -0.25416,0.0548 -0.40204,0.0548 -0.0556,0 -0.11714,-0.006 -0.18449,-0.0176 -0.0674,-0.0116 -0.13469,-0.0295 -0.20205,-0.0527 -0.0674,-0.0217 -0.13177,-0.0498 -0.19327,-0.0847 -0.06,-0.0334 -0.11041,-0.0728 -0.15141,-0.11937 l 0.20877,-0.42737 c 0.0278,0.0291 0.0606,0.0559 0.0987,0.0806 0.0395,0.0261 0.0805,0.0476 0.12299,0.0651 0.0439,0.019 0.0896,0.0333 0.13643,0.0434 0.0468,0.0116 0.092,0.0176 0.1359,0.0176 0.063,0 0.11861,-0.007 0.16692,-0.0217 0.0498,-0.0131 0.0914,-0.0364 0.12506,-0.0698 0.0337,-0.0334 0.0588,-0.0776 0.0749,-0.13281 0.0176,-0.0553 0.0264,-0.12391 0.0264,-0.2067 v -0.18966 c -0.0571,0.0741 -0.12385,0.13143 -0.19999,0.17209 -0.0747,0.0392 -0.16252,0.0589 -0.26355,0.0589 -0.12591,0 -0.2384,-0.025 -0.33796,-0.0744 -0.0981,-0.0494 -0.18181,-0.12221 -0.25063,-0.21807 -0.0674,-0.0958 -0.11946,-0.21411 -0.15606,-0.35502 -0.0366,-0.14237 -0.0548,-0.30654 -0.0548,-0.49248 v -0.15451 c 0,-0.3864 0.0703,-0.67476 0.21084,-0.86506 0.14056,-0.1903 0.33736,-0.28526 0.59066,-0.28526 z m 3.80649,0 c 0.0922,0 0.17716,0.0167 0.25476,0.0486 0.0776,0.0305 0.14384,0.0808 0.19947,0.15193 0.0556,0.0711 0.099,0.1643 0.12971,0.27905 0.0308,0.11476 0.046,0.25618 0.046,0.42323 v 1.49914 h -0.62373 v -1.50172 c 0,-0.0755 -0.006,-0.13767 -0.0176,-0.18707 -0.0117,-0.0494 -0.0293,-0.0893 -0.0527,-0.11834 -0.022,-0.0291 -0.0495,-0.0494 -0.0832,-0.061 -0.0337,-0.0116 -0.0735,-0.0176 -0.11886,-0.0176 -0.0586,0 -0.10954,0.0156 -0.15347,0.046 -0.0439,0.0305 -0.0808,0.0729 -0.11008,0.1266 v 1.71204 h -0.62373 v -2.35696 h 0.58446 l 0.0176,0.23306 c 0.0688,-0.0901 0.14909,-0.15867 0.24133,-0.20515 0.0922,-0.0479 0.19585,-0.0718 0.31006,-0.0718 z m 1.97197,0 c 0.30162,0 0.5277,0.0966 0.67851,0.2899 0.15081,0.19321 0.22634,0.47974 0.22634,0.85886 v 0.28111 h -1.23661 c 0.004,0.0945 0.0172,0.1733 0.0377,0.23721 0.022,0.0639 0.0513,0.11527 0.0879,0.1545 0.0366,0.0392 0.0805,0.0679 0.13178,0.0853 0.0527,0.0175 0.11187,0.0264 0.17776,0.0264 0.10981,0 0.20706,-0.018 0.29198,-0.0543 0.0864,-0.0378 0.16253,-0.0903 0.2284,-0.15709 l 0.24392,0.37207 c -0.0308,0.0422 -0.0711,0.0845 -0.12093,0.1266 -0.0498,0.0407 -0.10834,0.0783 -0.1757,0.11163 -0.0674,0.0334 -0.14348,0.0597 -0.2284,0.0801 -0.0849,0.0217 -0.17803,0.0331 -0.27906,0.0331 -0.16252,0 -0.30661,-0.025 -0.43253,-0.0744 -0.12592,-0.0494 -0.23194,-0.12048 -0.31833,-0.21342 -0.0864,-0.093 -0.15253,-0.20587 -0.19792,-0.33952 -0.0439,-0.13509 -0.0656,-0.2885 -0.0656,-0.45992 v -0.19378 c 0,-0.19176 0.0211,-0.36003 0.0636,-0.50385 0.0439,-0.14526 0.10603,-0.26648 0.18655,-0.3638 0.082,-0.0988 0.18156,-0.17282 0.29869,-0.22221 0.1186,-0.0494 0.25269,-0.0739 0.40204,-0.0739 z m 2.15232,0 c 0.30161,0 0.52771,0.0966 0.67852,0.2899 0.15081,0.19321 0.22634,0.47974 0.22634,0.85886 v 0.28111 h -1.23662 c 0.004,0.0945 0.0172,0.1733 0.0377,0.23721 0.022,0.0639 0.0512,0.11527 0.0879,0.1545 0.0366,0.0392 0.0805,0.0679 0.13178,0.0853 0.0527,0.0175 0.11188,0.0264 0.17777,0.0264 0.10982,0 0.20704,-0.018 0.29197,-0.0543 0.0864,-0.0378 0.16252,-0.0903 0.22841,-0.15709 l 0.24391,0.37207 c -0.0308,0.0422 -0.0711,0.0845 -0.12092,0.1266 -0.0498,0.0407 -0.10835,0.0783 -0.1757,0.11163 -0.0673,0.0334 -0.14349,0.0597 -0.22841,0.0801 -0.0849,0.0217 -0.17802,0.0331 -0.27905,0.0331 -0.16252,0 -0.30662,-0.025 -0.43254,-0.0744 -0.12592,-0.0494 -0.23193,-0.12048 -0.31832,-0.21342 -0.0864,-0.093 -0.15253,-0.20587 -0.19792,-0.33952 -0.0439,-0.13509 -0.0656,-0.2885 -0.0656,-0.45992 v -0.19378 c 0,-0.19176 0.0211,-0.36003 0.0636,-0.50385 0.0439,-0.14526 0.10602,-0.26648 0.18655,-0.3638 0.082,-0.0988 0.18155,-0.17282 0.29869,-0.22221 0.11859,-0.0494 0.25269,-0.0739 0.40204,-0.0739 z m 5.0183,0 c 0.0922,0 0.17717,0.0167 0.25477,0.0486 0.0776,0.0305 0.14434,0.0808 0.19998,0.15193 0.0556,0.0711 0.099,0.1643 0.12971,0.27905 0.0308,0.11476 0.046,0.25618 0.046,0.42323 v 1.49914 h -0.62373 v -1.50172 c 0,-0.0755 -0.006,-0.13767 -0.0176,-0.18707 -0.0117,-0.0494 -0.0293,-0.0893 -0.0527,-0.11834 -0.022,-0.0291 -0.0495,-0.0494 -0.0832,-0.061 -0.0337,-0.0116 -0.0735,-0.0176 -0.11885,-0.0176 -0.0586,0 -0.10955,0.0156 -0.15348,0.046 -0.0439,0.0305 -0.0808,0.0729 -0.11007,0.1266 v 1.71204 h -0.62374 v -2.35696 h 0.58446 l 0.0176,0.23306 c 0.0688,-0.0901 0.14909,-0.15867 0.24133,-0.20515 0.0922,-0.0479 0.19533,-0.0718 0.30954,-0.0718 z m 1.80351,0 c 0.11567,0 0.21351,0.0226 0.29404,0.0677 0.0805,0.0436 0.14848,0.10564 0.20412,0.18552 l 0.0243,-0.20929 h 0.56017 v 2.358 c 0,0.16124 -0.024,0.29927 -0.0724,0.41548 -0.0469,0.11767 -0.1136,0.21489 -0.19998,0.29042 -0.0864,0.0755 -0.1906,0.13112 -0.31213,0.16743 -0.12006,0.0363 -0.25364,0.0548 -0.40153,0.0548 -0.0556,0 -0.11713,-0.006 -0.18448,-0.0176 -0.0674,-0.0116 -0.13471,-0.0295 -0.20206,-0.0527 -0.0674,-0.0217 -0.13178,-0.0498 -0.19326,-0.0847 -0.06,-0.0334 -0.11094,-0.0728 -0.15193,-0.11937 l 0.20877,-0.42737 c 0.0278,0.0291 0.0606,0.0559 0.0987,0.0806 0.0395,0.0261 0.0805,0.0476 0.12299,0.0651 0.0439,0.019 0.0896,0.0333 0.13643,0.0434 0.0469,0.0116 0.092,0.0176 0.13591,0.0176 0.063,0 0.11859,-0.007 0.16691,-0.0217 0.0498,-0.0131 0.0919,-0.0364 0.12557,-0.0698 0.0337,-0.0334 0.0583,-0.0776 0.0744,-0.13281 0.0176,-0.0553 0.0264,-0.12391 0.0264,-0.2067 v -0.18966 c -0.0571,0.0741 -0.12385,0.13143 -0.19998,0.17209 -0.0747,0.0392 -0.16253,0.0589 -0.26355,0.0589 -0.12592,0 -0.23841,-0.025 -0.33797,-0.0744 -0.0981,-0.0494 -0.18181,-0.12221 -0.25063,-0.21807 -0.0674,-0.0958 -0.11893,-0.21411 -0.15554,-0.35502 -0.0366,-0.14237 -0.0553,-0.30654 -0.0553,-0.49248 v -0.15451 c 0,-0.3864 0.0703,-0.67476 0.21084,-0.86506 0.14056,-0.1903 0.33788,-0.28526 0.59118,-0.28526 z m -27.36112,0.0439 h 0.62373 v 2.35748 h -0.62373 z m 14.17226,0 h 0.62374 v 2.35748 h -0.62374 z m 9.14311,0 h 0.62374 v 2.35748 h -0.62374 z m -33.21813,0.46819 c -0.10835,0 -0.18741,0.0388 -0.23719,0.11576 -0.0483,0.077 -0.077,0.20056 -0.0858,0.37052 h 0.62166 v -0.0568 c -0.003,-0.14091 -0.0264,-0.24775 -0.0703,-0.32039 -0.0439,-0.0726 -0.12006,-0.10904 -0.22841,-0.10904 z m 28.28562,0 c -0.10835,0 -0.18742,0.0388 -0.2372,0.11576 -0.0483,0.077 -0.077,0.20056 -0.0858,0.37052 h 0.62167 v -0.0568 c -0.003,-0.14091 -0.0264,-0.24775 -0.0703,-0.32039 -0.0439,-0.0726 -0.12006,-0.10904 -0.22841,-0.10904 z m 2.15232,0 c -0.10835,0 -0.18742,0.0388 -0.2372,0.11576 -0.0483,0.077 -0.077,0.20056 -0.0858,0.37052 h 0.62167 v -0.0568 c -0.003,-0.14091 -0.0264,-0.24775 -0.0703,-0.32039 -0.0439,-0.0726 -0.12006,-0.10904 -0.22841,-0.10904 z m -7.74423,0.005 c -0.12299,0 -0.21437,0.0502 -0.2744,0.15038 -0.0586,0.10024 -0.0879,0.26091 -0.0879,0.48317 v 0.15503 c 0,0.2179 0.0287,0.37725 0.0858,0.47749 0.0571,0.0988 0.14789,0.1478 0.27234,0.1478 0.0673,0 0.12359,-0.0114 0.16898,-0.0346 0.0469,-0.0247 0.0849,-0.0587 0.1142,-0.10232 v -1.12654 c -0.0308,-0.0479 -0.0694,-0.085 -0.11627,-0.11111 -0.0454,-0.0261 -0.0998,-0.0393 -0.16278,-0.0393 z m 14.75207,0 c -0.12299,0 -0.21437,0.0502 -0.2744,0.15038 -0.0586,0.10024 -0.0879,0.26091 -0.0879,0.48317 v 0.15503 c 0,0.2179 0.0287,0.37725 0.0858,0.47749 0.0571,0.0988 0.14789,0.1478 0.27234,0.1478 0.0674,0 0.12359,-0.0114 0.16898,-0.0346 0.0469,-0.0247 0.0849,-0.0587 0.1142,-0.10232 v -1.12654 c -0.0308,-0.0479 -0.0694,-0.085 -0.11627,-0.11111 -0.0454,-0.0261 -0.0998,-0.0393 -0.16278,-0.0393 z m -31.00431,0.81494 c -0.0586,0 -0.10895,0.009 -0.15141,0.0279 -0.0425,0.0189 -0.0782,0.0451 -0.10749,0.0786 -0.0278,0.0334 -0.0494,0.0728 -0.0641,0.11782 -0.0132,0.045 -0.0196,0.0929 -0.0196,0.14366 0,0.0857 0.0176,0.15133 0.0527,0.19637 0.0366,0.0436 0.0881,0.0651 0.15399,0.0651 0.0688,0 0.12738,-0.0137 0.1757,-0.0413 0.0483,-0.0276 0.0841,-0.0604 0.10749,-0.0982 v -0.48989 z m 7.53339,0 c -0.0586,0 -0.10946,0.009 -0.15193,0.0279 -0.0425,0.0189 -0.0782,0.0451 -0.10748,0.0786 -0.0278,0.0334 -0.0489,0.0728 -0.0636,0.11782 -0.0132,0.045 -0.0196,0.0929 -0.0196,0.14366 0,0.0857 0.0176,0.15133 0.0527,0.19637 0.0366,0.0436 0.0876,0.0651 0.15348,0.0651 0.0688,0 0.12738,-0.0137 0.1757,-0.0413 0.0483,-0.0276 0.0841,-0.0604 0.10748,-0.0982 v -0.48989 z" /><path
       id="path157"
       style="fill:#2c2c6f;fill-opacity:1;stroke-width:0.264583"
       d="m 486.53121,139.08546 c -2.00262,0 -3.62613,1.61086 -3.62613,3.59771 v 3.30471 c 0,1.98684 1.62351,3.59771 3.62613,3.59771 h 47.43845 v -10.50013 z m 47.95625,0 v 10.50013 h 1.96474 v -10.50013 z m 2.48254,0 v 10.50013 h 1.99987 v -10.50013 z m 2.49959,0 v 10.50013 h 2.00039 v -10.50013 z m -44.96884,3.47782 h 0.62167 v 1.19683 c 0.0644,-0.0799 0.13764,-0.14195 0.21963,-0.18552 0.0835,-0.0436 0.17544,-0.0651 0.27647,-0.0651 0.0981,0 0.18827,0.0168 0.27026,0.0501 0.082,0.0334 0.15228,0.086 0.21084,0.15865 0.0586,0.0726 0.10422,0.16749 0.13643,0.2837 0.0322,0.11621 0.0481,0.25721 0.0481,0.42426 v 1.48467 h -0.62374 v -1.4888 c 0,-0.0755 -0.006,-0.13882 -0.0176,-0.18965 -0.0117,-0.0509 -0.0293,-0.0915 -0.0527,-0.12196 -0.0234,-0.0305 -0.0521,-0.052 -0.0858,-0.0651 -0.0337,-0.0131 -0.0729,-0.0196 -0.11834,-0.0196 -0.0615,0 -0.11359,0.0137 -0.15606,0.0413 -0.0425,0.0276 -0.0782,0.0653 -0.10749,0.11317 v 1.73013 h -0.62167 z m 11.90832,5.2e-4 h 0.62374 v 3.34708 h -0.62374 z m -5.01003,0.0522 c 0.0512,0 0.0975,0.008 0.13849,0.0238 0.0425,0.016 0.0782,0.0386 0.10749,0.0677 0.0293,0.0291 0.0521,0.0637 0.0682,0.10438 0.0161,0.0392 0.0243,0.0828 0.0243,0.13074 0,0.0479 -0.008,0.0921 -0.0243,0.13281 -0.0161,0.0392 -0.0389,0.0744 -0.0682,0.10491 -0.0293,0.0291 -0.065,0.0517 -0.10749,0.0677 -0.041,0.016 -0.0872,0.0238 -0.13849,0.0238 -0.0513,0 -0.0981,-0.008 -0.14056,-0.0238 -0.041,-0.016 -0.0761,-0.0386 -0.10542,-0.0677 -0.0293,-0.0305 -0.0516,-0.0657 -0.0677,-0.10491 -0.0161,-0.0407 -0.0243,-0.0848 -0.0243,-0.13281 0,-0.0479 0.008,-0.0916 0.0243,-0.13074 0.0161,-0.0407 0.0384,-0.0753 0.0677,-0.10438 0.0293,-0.0291 0.0644,-0.0517 0.10542,-0.0677 0.0425,-0.016 0.0893,-0.0238 0.14056,-0.0238 z m 14.17278,0 c 0.0513,0 0.097,0.008 0.13798,0.0238 0.0425,0.016 0.0787,0.0386 0.108,0.0677 0.0293,0.0291 0.0516,0.0637 0.0677,0.10438 0.0161,0.0392 0.0243,0.0828 0.0243,0.13074 0,0.0479 -0.008,0.0921 -0.0243,0.13281 -0.0161,0.0392 -0.0384,0.0744 -0.0677,0.10491 -0.0293,0.0291 -0.0655,0.0517 -0.108,0.0677 -0.041,0.016 -0.0867,0.0238 -0.13798,0.0238 -0.0513,0 -0.0981,-0.008 -0.14056,-0.0238 -0.041,-0.016 -0.0761,-0.0386 -0.10542,-0.0677 -0.0293,-0.0305 -0.0521,-0.0657 -0.0682,-0.10491 -0.0161,-0.0407 -0.0243,-0.0848 -0.0243,-0.13281 0,-0.0479 0.008,-0.0916 0.0243,-0.13074 0.0161,-0.0407 0.0389,-0.0753 0.0682,-0.10438 0.0293,-0.0291 0.0644,-0.0517 0.10542,-0.0677 0.0425,-0.016 0.0893,-0.0238 0.14056,-0.0238 z m 9.14259,0 c 0.0512,0 0.0975,0.008 0.1385,0.0238 0.0425,0.016 0.0782,0.0386 0.10748,0.0677 0.0293,0.0291 0.0521,0.0637 0.0682,0.10438 0.0161,0.0392 0.0243,0.0828 0.0243,0.13074 0,0.0479 -0.008,0.0921 -0.0243,0.13281 -0.0161,0.0392 -0.0389,0.0744 -0.0682,0.10491 -0.0293,0.0291 -0.065,0.0517 -0.10748,0.0677 -0.041,0.016 -0.0873,0.0238 -0.1385,0.0238 -0.0513,0 -0.0981,-0.008 -0.14056,-0.0238 -0.041,-0.016 -0.0761,-0.0386 -0.10542,-0.0677 -0.0293,-0.0305 -0.0516,-0.0657 -0.0677,-0.10491 -0.0161,-0.0407 -0.0243,-0.0848 -0.0243,-0.13281 0,-0.0479 0.008,-0.0916 0.0243,-0.13074 0.0161,-0.0407 0.0384,-0.0753 0.0677,-0.10438 0.0293,-0.0291 0.0644,-0.0517 0.10542,-0.0677 0.0425,-0.016 0.0893,-0.0238 0.14056,-0.0238 z m -37.79924,0.12196 h 0.84336 l 0.60358,2.29443 0.60203,-2.29443 h 0.84336 v 3.17293 h -0.64802 v -0.85886 l 0.0594,-1.32292 -0.63924,2.18178 h -0.43925 l -0.63924,-2.18178 0.0594,1.32292 v 0.85886 h -0.64544 z m 21.66586,0 h 1.83141 v 0.53381 h -1.18597 v 0.74983 h 1.00614 v 0.51625 h -1.00614 v 0.84129 h 1.19063 v 0.53175 h -1.83607 z m 15.31225,0.76997 v 5.2e-4 c 0.0278,0 0.0577,0.003 0.0899,0.009 0.0337,0.005 0.0606,0.0111 0.0811,0.0196 l -0.006,0.60978 c -0.0278,-0.003 -0.0624,-0.006 -0.10335,-0.0103 -0.0395,-0.005 -0.0741,-0.007 -0.10335,-0.007 -0.0893,0 -0.16192,0.0186 -0.21756,0.0563 -0.0556,0.0378 -0.0978,0.0928 -0.12712,0.16536 v 1.55805 h -0.62374 v -2.35747 h 0.58653 l 0.0176,0.25528 c 0.0469,-0.0945 0.1037,-0.16837 0.17105,-0.22066 0.0688,-0.0523 0.14728,-0.0785 0.23513,-0.0785 z m -32.7024,0.001 c 0.30162,0 0.52822,0.0966 0.67903,0.2899 0.15081,0.19321 0.22582,0.47974 0.22582,0.85886 v 0.28111 h -1.2361 c 0.004,0.0945 0.0167,0.1733 0.0372,0.23721 0.022,0.0639 0.0511,0.11527 0.0878,0.1545 0.0366,0.0392 0.0805,0.0679 0.13177,0.0853 0.0527,0.0175 0.11188,0.0264 0.17777,0.0264 0.10981,0 0.20705,-0.018 0.29197,-0.0543 0.0864,-0.0378 0.16252,-0.0903 0.22841,-0.15709 l 0.24392,0.37207 c -0.0307,0.0422 -0.0711,0.0845 -0.12093,0.1266 -0.0498,0.0407 -0.10835,0.0783 -0.1757,0.11163 -0.0674,0.0334 -0.14349,0.0597 -0.22841,0.0801 -0.0849,0.0217 -0.1775,0.0331 -0.27853,0.0331 -0.16252,0 -0.30713,-0.025 -0.43305,-0.0744 -0.12592,-0.0494 -0.23195,-0.12048 -0.31833,-0.21342 -0.0864,-0.093 -0.15201,-0.20587 -0.1974,-0.33952 -0.0439,-0.13509 -0.0661,-0.2885 -0.0661,-0.45992 v -0.19378 c 0,-0.19176 0.0211,-0.36003 0.0636,-0.50385 0.0439,-0.14526 0.10654,-0.26648 0.18707,-0.3638 0.082,-0.0988 0.18156,-0.17282 0.29869,-0.22221 0.1186,-0.0494 0.25218,-0.0739 0.40153,-0.0739 z m 2.1239,0 c 0.12738,0 0.24331,0.0208 0.34727,0.0615 0.10542,0.0392 0.19447,0.0978 0.26768,0.17622 0.0747,0.077 0.13203,0.17255 0.17157,0.28732 0.041,0.11475 0.0621,0.24787 0.0636,0.39894 h -0.58446 c -0.001,-0.13219 -0.0232,-0.23372 -0.0656,-0.30489 -0.0425,-0.0711 -0.11274,-0.10645 -0.21084,-0.10645 -0.0688,0 -0.12385,0.0132 -0.16485,0.0408 -0.0395,0.0276 -0.07,0.0682 -0.092,0.12196 -0.0205,0.0523 -0.0345,0.11795 -0.0419,0.19637 -0.006,0.077 -0.009,0.16651 -0.009,0.2682 v 0.1695 c 0,0.10313 0.003,0.19388 0.009,0.27233 0.006,0.077 0.0188,0.14203 0.0393,0.19431 0.022,0.0523 0.0536,0.0912 0.0946,0.1173 0.041,0.0261 0.0966,0.0398 0.16691,0.0398 0.0864,0 0.15314,-0.0262 0.19999,-0.0786 0.0483,-0.0538 0.073,-0.14391 0.0744,-0.27026 h 0.58446 c -0.001,0.13365 -0.0243,0.25372 -0.0682,0.36122 -0.0439,0.10605 -0.1037,0.19617 -0.17983,0.27026 -0.0747,0.0741 -0.16363,0.13132 -0.26613,0.17054 -0.10249,0.0392 -0.21265,0.0589 -0.33125,0.0589 -0.1596,0 -0.29895,-0.0256 -0.41754,-0.0765 -0.11859,-0.0509 -0.21756,-0.1243 -0.29663,-0.22015 -0.0776,-0.0973 -0.13617,-0.21618 -0.1757,-0.35708 -0.0381,-0.14091 -0.0568,-0.30202 -0.0568,-0.48214 v -0.1695 c 0,-0.18013 0.0188,-0.34072 0.0568,-0.48162 0.0395,-0.14237 0.0981,-0.26235 0.1757,-0.35967 0.0776,-0.0973 0.17596,-0.17136 0.29456,-0.22221 0.11859,-0.0509 0.25683,-0.0765 0.41496,-0.0765 z m 4.26279,0 c 0.1186,0 0.22807,0.0156 0.32763,0.046 0.0996,0.0291 0.18569,0.0756 0.2589,0.13953 0.0732,0.0624 0.13057,0.14303 0.17156,0.24184 0.041,0.0973 0.0615,0.21494 0.0615,0.35295 v 1.04593 c 0,0.0683 0.001,0.12971 0.004,0.18345 0.004,0.0523 0.0103,0.0996 0.0176,0.14315 0.007,0.0422 0.0162,0.0809 0.0264,0.11574 0.0117,0.0334 0.0252,0.0652 0.0398,0.0956 v 0.0367 l -0.62632,5.2e-4 c -0.0117,-0.0247 -0.0217,-0.0522 -0.0305,-0.0827 -0.007,-0.0319 -0.0149,-0.0654 -0.0222,-0.10025 -0.0468,0.0639 -0.10722,0.11763 -0.1819,0.16123 -0.0732,0.0435 -0.16339,0.0656 -0.27027,0.0656 -0.0966,0 -0.18742,-0.0168 -0.27234,-0.0501 -0.0835,-0.0334 -0.15666,-0.0806 -0.21962,-0.14159 -0.0615,-0.061 -0.11068,-0.13494 -0.14728,-0.22066 -0.0351,-0.0872 -0.0527,-0.18395 -0.0527,-0.29146 0,-0.11911 0.0193,-0.22659 0.0574,-0.32246 0.0395,-0.0973 0.0981,-0.17916 0.1757,-0.24598 0.0791,-0.0683 0.1769,-0.12077 0.29404,-0.15709 0.1186,-0.0363 0.25796,-0.0548 0.41755,-0.0548 h 0.16898 v -0.18914 c 0,-0.10604 -0.0182,-0.18122 -0.0548,-0.22479 -0.0366,-0.0436 -0.0904,-0.0656 -0.16071,-0.0656 -0.0805,0 -0.1397,0.0243 -0.17777,0.0724 -0.0366,0.0465 -0.0548,0.11222 -0.0548,0.19792 h -0.62166 c 0,-0.10314 0.0199,-0.19984 0.0594,-0.28991 0.041,-0.0915 0.0996,-0.17099 0.1757,-0.23926 0.0761,-0.0683 0.16751,-0.12252 0.2744,-0.16174 0.10688,-0.0407 0.22755,-0.061 0.36225,-0.061 z m 2.40709,0 c 0.0922,0 0.17716,0.0167 0.25476,0.0486 0.0776,0.0305 0.14435,0.0808 0.19999,0.15193 0.0556,0.0711 0.099,0.1643 0.12971,0.27905 0.0308,0.11476 0.046,0.25618 0.046,0.42323 v 1.49914 h -0.62374 v -1.50172 c 0,-0.0755 -0.006,-0.13767 -0.0176,-0.18707 -0.0117,-0.0494 -0.0293,-0.0893 -0.0527,-0.11834 -0.022,-0.0291 -0.0495,-0.0494 -0.0832,-0.061 -0.0337,-0.0116 -0.0735,-0.0176 -0.11886,-0.0176 -0.0586,0 -0.10956,0.0156 -0.15348,0.046 -0.0439,0.0305 -0.0808,0.0729 -0.11007,0.1266 v 1.71204 h -0.62373 v -2.35696 h 0.58446 l 0.0176,0.23306 c 0.0688,-0.0901 0.14909,-0.15867 0.24133,-0.20515 0.0922,-0.0479 0.19533,-0.0718 0.30954,-0.0718 z m 3.07733,0 c 0.12738,0 0.24279,0.0208 0.34675,0.0615 0.10542,0.0392 0.19499,0.0978 0.2682,0.17622 0.0747,0.077 0.13152,0.17255 0.17105,0.28732 0.041,0.11475 0.0621,0.24787 0.0636,0.39894 h -0.58394 c -0.002,-0.13219 -0.0237,-0.23372 -0.0662,-0.30489 -0.0425,-0.0711 -0.11275,-0.10645 -0.21084,-0.10645 -0.0688,0 -0.12333,0.0132 -0.16433,0.0408 -0.0395,0.0276 -0.0705,0.0682 -0.0925,0.12196 -0.0205,0.0523 -0.0345,0.11795 -0.0419,0.19637 -0.006,0.077 -0.009,0.16651 -0.009,0.2682 v 0.1695 c 0,0.10313 0.003,0.19388 0.009,0.27233 0.006,0.077 0.0193,0.14203 0.0398,0.19431 0.022,0.0523 0.0536,0.0912 0.0946,0.1173 0.041,0.0261 0.0966,0.0398 0.16691,0.0398 0.0864,0 0.15262,-0.0262 0.19947,-0.0786 0.0483,-0.0538 0.0735,-0.14391 0.0749,-0.27026 h 0.58394 c -10e-4,0.13365 -0.0238,0.25372 -0.0677,0.36122 -0.0439,0.10605 -0.10421,0.19617 -0.18035,0.27026 -0.0747,0.0741 -0.16312,0.13132 -0.26561,0.17054 -0.1025,0.0392 -0.21317,0.0589 -0.33177,0.0589 -0.15959,0 -0.29843,-0.0256 -0.41703,-0.0765 -0.11859,-0.0509 -0.21755,-0.1243 -0.29662,-0.22015 -0.0776,-0.0973 -0.13617,-0.21618 -0.1757,-0.35708 -0.0381,-0.14091 -0.0574,-0.30202 -0.0574,-0.48214 v -0.1695 c 0,-0.18013 0.0193,-0.34072 0.0574,-0.48162 0.0395,-0.14237 0.0981,-0.26235 0.1757,-0.35967 0.0776,-0.0973 0.17544,-0.17136 0.29404,-0.22221 0.1186,-0.0509 0.25735,-0.0765 0.41548,-0.0765 z m 2.04897,0 h 5.2e-4 c 0.11838,4e-5 0.22719,0.0156 0.32659,0.046 0.0996,0.0291 0.18621,0.0756 0.25942,0.13953 0.0732,0.0624 0.13005,0.14303 0.17105,0.24184 0.041,0.0973 0.0615,0.21494 0.0615,0.35295 v 1.04593 c 0,0.0683 0.002,0.12971 0.005,0.18345 0.004,0.0523 0.0103,0.0996 0.0176,0.14315 0.007,0.0422 0.0161,0.0809 0.0263,0.11574 0.0117,0.0334 0.0246,0.0652 0.0393,0.0956 v 0.0367 l -0.6258,5.2e-4 c -0.0117,-0.0247 -0.0222,-0.0522 -0.031,-0.0827 -0.007,-0.0319 -0.0144,-0.0654 -0.0217,-0.10025 -0.0469,0.0639 -0.10775,0.11763 -0.18242,0.16123 -0.0732,0.0435 -0.16339,0.0656 -0.27027,0.0656 -0.0966,0 -0.1874,-0.0168 -0.27233,-0.0501 -0.0835,-0.0334 -0.15667,-0.0806 -0.21963,-0.14159 -0.0615,-0.061 -0.11016,-0.13494 -0.14676,-0.22066 -0.0351,-0.0872 -0.0527,-0.18395 -0.0527,-0.29146 0,-0.11911 0.0188,-0.22659 0.0568,-0.32246 0.0395,-0.0973 0.0981,-0.17916 0.1757,-0.24598 0.0791,-0.0683 0.17743,-0.12077 0.29456,-0.15709 0.1186,-0.0363 0.25744,-0.0548 0.41703,-0.0548 h 0.16898 v -0.18914 c 0,-0.10604 -0.0182,-0.18122 -0.0548,-0.22479 -0.0366,-0.0436 -0.0899,-0.0656 -0.16019,-0.0656 -0.0805,0 -0.1397,0.0243 -0.17777,0.0724 -0.0366,0.0465 -0.0553,0.11222 -0.0553,0.19792 h -0.62116 c 0,-0.10314 0.0194,-0.19984 0.0589,-0.28991 0.041,-0.0915 0.0996,-0.17099 0.1757,-0.23926 0.0761,-0.0683 0.16802,-0.12252 0.27491,-0.16174 0.10674,-0.0406 0.22726,-0.0609 0.36174,-0.061 z m 6.78408,0 c 0.0922,0 0.17717,0.0167 0.25477,0.0486 0.0776,0.0305 0.14434,0.0808 0.19998,0.15193 0.0556,0.0711 0.099,0.1643 0.12971,0.27905 0.0308,0.11476 0.046,0.25618 0.046,0.42323 v 1.49914 h -0.62373 v -1.50172 c 0,-0.0755 -0.006,-0.13767 -0.0176,-0.18707 -0.0117,-0.0494 -0.0293,-0.0893 -0.0527,-0.11834 -0.022,-0.0291 -0.05,-0.0494 -0.0837,-0.061 -0.0337,-0.0116 -0.0729,-0.0176 -0.11834,-0.0176 -0.0586,0 -0.11006,0.0156 -0.15399,0.046 -0.0439,0.0305 -0.0803,0.0729 -0.10956,0.1266 v 1.71204 h -0.62373 v -2.35696 h 0.58394 l 0.0176,0.23306 c 0.0688,-0.0901 0.14961,-0.15867 0.24185,-0.20515 0.0922,-0.0479 0.19533,-0.0718 0.30954,-0.0718 z m 1.80299,0 c 0.11567,0 0.21403,0.0226 0.29456,0.0677 0.0805,0.0436 0.14848,0.10564 0.20412,0.18552 l 0.0243,-0.20929 h 0.56017 v 2.358 c 0,0.16124 -0.0245,0.29927 -0.0729,0.41548 -0.0469,0.11767 -0.11309,0.21489 -0.19948,0.29042 -0.0864,0.0755 -0.1906,0.13112 -0.31212,0.16743 -0.12007,0.0363 -0.25416,0.0548 -0.40204,0.0548 -0.0556,0 -0.11714,-0.006 -0.18449,-0.0176 -0.0674,-0.0116 -0.13469,-0.0295 -0.20205,-0.0527 -0.0674,-0.0217 -0.13177,-0.0498 -0.19327,-0.0847 -0.06,-0.0334 -0.11041,-0.0728 -0.15141,-0.11937 l 0.20877,-0.42737 c 0.0278,0.0291 0.0606,0.0559 0.0987,0.0806 0.0395,0.0261 0.0805,0.0476 0.12299,0.0651 0.0439,0.019 0.0896,0.0333 0.13643,0.0434 0.0468,0.0116 0.092,0.0176 0.1359,0.0176 0.063,0 0.11861,-0.007 0.16692,-0.0217 0.0498,-0.0131 0.0914,-0.0364 0.12506,-0.0698 0.0337,-0.0334 0.0588,-0.0776 0.0749,-0.13281 0.0176,-0.0553 0.0264,-0.12391 0.0264,-0.2067 v -0.18966 c -0.0571,0.0741 -0.12385,0.13143 -0.19999,0.17209 -0.0747,0.0392 -0.16252,0.0589 -0.26355,0.0589 -0.12591,0 -0.2384,-0.025 -0.33796,-0.0744 -0.0981,-0.0494 -0.18181,-0.12221 -0.25063,-0.21807 -0.0674,-0.0958 -0.11946,-0.21411 -0.15606,-0.35502 -0.0366,-0.14237 -0.0548,-0.30654 -0.0548,-0.49248 v -0.15451 c 0,-0.3864 0.0703,-0.67476 0.21084,-0.86506 0.14056,-0.1903 0.33736,-0.28526 0.59066,-0.28526 z m 3.80649,0 c 0.0922,0 0.17716,0.0167 0.25476,0.0486 0.0776,0.0305 0.14384,0.0808 0.19947,0.15193 0.0556,0.0711 0.099,0.1643 0.12971,0.27905 0.0308,0.11476 0.046,0.25618 0.046,0.42323 v 1.49914 h -0.62373 v -1.50172 c 0,-0.0755 -0.006,-0.13767 -0.0176,-0.18707 -0.0117,-0.0494 -0.0293,-0.0893 -0.0527,-0.11834 -0.022,-0.0291 -0.0495,-0.0494 -0.0832,-0.061 -0.0337,-0.0116 -0.0735,-0.0176 -0.11886,-0.0176 -0.0586,0 -0.10954,0.0156 -0.15347,0.046 -0.0439,0.0305 -0.0808,0.0729 -0.11008,0.1266 v 1.71204 h -0.62373 v -2.35696 h 0.58446 l 0.0176,0.23306 c 0.0688,-0.0901 0.14909,-0.15867 0.24133,-0.20515 0.0922,-0.0479 0.19585,-0.0718 0.31006,-0.0718 z m 1.97197,0 c 0.30162,0 0.5277,0.0966 0.67851,0.2899 0.15081,0.19321 0.22634,0.47974 0.22634,0.85886 v 0.28111 h -1.23661 c 0.004,0.0945 0.0172,0.1733 0.0377,0.23721 0.022,0.0639 0.0513,0.11527 0.0879,0.1545 0.0366,0.0392 0.0805,0.0679 0.13178,0.0853 0.0527,0.0175 0.11187,0.0264 0.17776,0.0264 0.10981,0 0.20706,-0.018 0.29198,-0.0543 0.0864,-0.0378 0.16253,-0.0903 0.2284,-0.15709 l 0.24392,0.37207 c -0.0308,0.0422 -0.0711,0.0845 -0.12093,0.1266 -0.0498,0.0407 -0.10834,0.0783 -0.1757,0.11163 -0.0674,0.0334 -0.14348,0.0597 -0.2284,0.0801 -0.0849,0.0217 -0.17803,0.0331 -0.27906,0.0331 -0.16252,0 -0.30661,-0.025 -0.43253,-0.0744 -0.12592,-0.0494 -0.23194,-0.12048 -0.31833,-0.21342 -0.0864,-0.093 -0.15253,-0.20587 -0.19792,-0.33952 -0.0439,-0.13509 -0.0656,-0.2885 -0.0656,-0.45992 v -0.19378 c 0,-0.19176 0.0211,-0.36003 0.0636,-0.50385 0.0439,-0.14526 0.10603,-0.26648 0.18655,-0.3638 0.082,-0.0988 0.18156,-0.17282 0.29869,-0.22221 0.1186,-0.0494 0.25269,-0.0739 0.40204,-0.0739 z m 2.15232,0 c 0.30161,0 0.52771,0.0966 0.67852,0.2899 0.15081,0.19321 0.22634,0.47974 0.22634,0.85886 v 0.28111 h -1.23662 c 0.004,0.0945 0.0172,0.1733 0.0377,0.23721 0.022,0.0639 0.0512,0.11527 0.0879,0.1545 0.0366,0.0392 0.0805,0.0679 0.13178,0.0853 0.0527,0.0175 0.11188,0.0264 0.17777,0.0264 0.10982,0 0.20704,-0.018 0.29197,-0.0543 0.0864,-0.0378 0.16252,-0.0903 0.22841,-0.15709 l 0.24391,0.37207 c -0.0308,0.0422 -0.0711,0.0845 -0.12092,0.1266 -0.0498,0.0407 -0.10835,0.0783 -0.1757,0.11163 -0.0673,0.0334 -0.14349,0.0597 -0.22841,0.0801 -0.0849,0.0217 -0.17802,0.0331 -0.27905,0.0331 -0.16252,0 -0.30662,-0.025 -0.43254,-0.0744 -0.12592,-0.0494 -0.23193,-0.12048 -0.31832,-0.21342 -0.0864,-0.093 -0.15253,-0.20587 -0.19792,-0.33952 -0.0439,-0.13509 -0.0656,-0.2885 -0.0656,-0.45992 v -0.19378 c 0,-0.19176 0.0211,-0.36003 0.0636,-0.50385 0.0439,-0.14526 0.10602,-0.26648 0.18655,-0.3638 0.082,-0.0988 0.18155,-0.17282 0.29869,-0.22221 0.11859,-0.0494 0.25269,-0.0739 0.40204,-0.0739 z m 5.0183,0 c 0.0922,0 0.17717,0.0167 0.25477,0.0486 0.0776,0.0305 0.14434,0.0808 0.19998,0.15193 0.0556,0.0711 0.099,0.1643 0.12971,0.27905 0.0308,0.11476 0.046,0.25618 0.046,0.42323 v 1.49914 h -0.62373 v -1.50172 c 0,-0.0755 -0.006,-0.13767 -0.0176,-0.18707 -0.0117,-0.0494 -0.0293,-0.0893 -0.0527,-0.11834 -0.022,-0.0291 -0.0495,-0.0494 -0.0832,-0.061 -0.0337,-0.0116 -0.0735,-0.0176 -0.11885,-0.0176 -0.0586,0 -0.10955,0.0156 -0.15348,0.046 -0.0439,0.0305 -0.0808,0.0729 -0.11007,0.1266 v 1.71204 h -0.62374 v -2.35696 h 0.58446 l 0.0176,0.23306 c 0.0688,-0.0901 0.14909,-0.15867 0.24133,-0.20515 0.0922,-0.0479 0.19533,-0.0718 0.30954,-0.0718 z m 1.80351,0 c 0.11567,0 0.21351,0.0226 0.29404,0.0677 0.0805,0.0436 0.14848,0.10564 0.20412,0.18552 l 0.0243,-0.20929 h 0.56017 v 2.358 c 0,0.16124 -0.024,0.29927 -0.0724,0.41548 -0.0469,0.11767 -0.1136,0.21489 -0.19998,0.29042 -0.0864,0.0755 -0.1906,0.13112 -0.31213,0.16743 -0.12006,0.0363 -0.25364,0.0548 -0.40153,0.0548 -0.0556,0 -0.11713,-0.006 -0.18448,-0.0176 -0.0674,-0.0116 -0.13471,-0.0295 -0.20206,-0.0527 -0.0674,-0.0217 -0.13178,-0.0498 -0.19326,-0.0847 -0.06,-0.0334 -0.11094,-0.0728 -0.15193,-0.11937 l 0.20877,-0.42737 c 0.0278,0.0291 0.0606,0.0559 0.0987,0.0806 0.0395,0.0261 0.0805,0.0476 0.12299,0.0651 0.0439,0.019 0.0896,0.0333 0.13643,0.0434 0.0469,0.0116 0.092,0.0176 0.13591,0.0176 0.063,0 0.11859,-0.007 0.16691,-0.0217 0.0498,-0.0131 0.0919,-0.0364 0.12557,-0.0698 0.0337,-0.0334 0.0583,-0.0776 0.0744,-0.13281 0.0176,-0.0553 0.0264,-0.12391 0.0264,-0.2067 v -0.18966 c -0.0571,0.0741 -0.12385,0.13143 -0.19998,0.17209 -0.0747,0.0392 -0.16253,0.0589 -0.26355,0.0589 -0.12592,0 -0.23841,-0.025 -0.33797,-0.0744 -0.0981,-0.0494 -0.18181,-0.12221 -0.25063,-0.21807 -0.0674,-0.0958 -0.11893,-0.21411 -0.15554,-0.35502 -0.0366,-0.14237 -0.0553,-0.30654 -0.0553,-0.49248 v -0.15451 c 0,-0.3864 0.0703,-0.67476 0.21084,-0.86506 0.14056,-0.1903 0.33788,-0.28526 0.59118,-0.28526 z m -27.36112,0.0439 h 0.62373 v 2.35748 h -0.62373 z m 14.17226,0 h 0.62374 v 2.35748 h -0.62374 z m 9.14311,0 h 0.62374 v 2.35748 h -0.62374 z m -33.21813,0.46819 c -0.10835,0 -0.18741,0.0388 -0.23719,0.11576 -0.0483,0.077 -0.077,0.20056 -0.0858,0.37052 h 0.62166 v -0.0568 c -0.003,-0.14091 -0.0264,-0.24775 -0.0703,-0.32039 -0.0439,-0.0726 -0.12006,-0.10904 -0.22841,-0.10904 z m 28.28562,0 c -0.10835,0 -0.18742,0.0388 -0.2372,0.11576 -0.0483,0.077 -0.077,0.20056 -0.0858,0.37052 h 0.62167 v -0.0568 c -0.003,-0.14091 -0.0264,-0.24775 -0.0703,-0.32039 -0.0439,-0.0726 -0.12006,-0.10904 -0.22841,-0.10904 z m 2.15232,0 c -0.10835,0 -0.18742,0.0388 -0.2372,0.11576 -0.0483,0.077 -0.077,0.20056 -0.0858,0.37052 h 0.62167 v -0.0568 c -0.003,-0.14091 -0.0264,-0.24775 -0.0703,-0.32039 -0.0439,-0.0726 -0.12006,-0.10904 -0.22841,-0.10904 z m -7.74423,0.005 c -0.12299,0 -0.21437,0.0502 -0.2744,0.15038 -0.0586,0.10024 -0.0879,0.26091 -0.0879,0.48317 v 0.15503 c 0,0.2179 0.0287,0.37725 0.0858,0.47749 0.0571,0.0988 0.14789,0.1478 0.27234,0.1478 0.0673,0 0.12359,-0.0114 0.16898,-0.0346 0.0469,-0.0247 0.0849,-0.0587 0.1142,-0.10232 v -1.12654 c -0.0308,-0.0479 -0.0694,-0.085 -0.11627,-0.11111 -0.0454,-0.0261 -0.0998,-0.0393 -0.16278,-0.0393 z m 14.75207,0 c -0.12299,0 -0.21437,0.0502 -0.2744,0.15038 -0.0586,0.10024 -0.0879,0.26091 -0.0879,0.48317 v 0.15503 c 0,0.2179 0.0287,0.37725 0.0858,0.47749 0.0571,0.0988 0.14789,0.1478 0.27234,0.1478 0.0674,0 0.12359,-0.0114 0.16898,-0.0346 0.0469,-0.0247 0.0849,-0.0587 0.1142,-0.10232 v -1.12654 c -0.0308,-0.0479 -0.0694,-0.085 -0.11627,-0.11111 -0.0454,-0.0261 -0.0998,-0.0393 -0.16278,-0.0393 z m -31.00431,0.81494 c -0.0586,0 -0.10895,0.009 -0.15141,0.0279 -0.0425,0.0189 -0.0782,0.0451 -0.10749,0.0786 -0.0278,0.0334 -0.0494,0.0728 -0.0641,0.11782 -0.0132,0.045 -0.0196,0.0929 -0.0196,0.14366 0,0.0857 0.0176,0.15133 0.0527,0.19637 0.0366,0.0436 0.0881,0.0651 0.15399,0.0651 0.0688,0 0.12738,-0.0137 0.1757,-0.0413 0.0483,-0.0276 0.0841,-0.0604 0.10749,-0.0982 v -0.48989 z m 7.53339,0 c -0.0586,0 -0.10946,0.009 -0.15193,0.0279 -0.0425,0.0189 -0.0782,0.0451 -0.10748,0.0786 -0.0278,0.0334 -0.0489,0.0728 -0.0636,0.11782 -0.0132,0.045 -0.0196,0.0929 -0.0196,0.14366 0,0.0857 0.0176,0.15133 0.0527,0.19637 0.0366,0.0436 0.0876,0.0651 0.15348,0.0651 0.0688,0 0.12738,-0.0137 0.1757,-0.0413 0.0483,-0.0276 0.0841,-0.0604 0.10748,-0.0982 v -0.48989 z" /></g></svg>
