<?xml version="1.0" encoding="UTF-8" standalone="no"?>
<!-- Created with Inkscape (http://www.inkscape.org/) -->

<svg
   width="54.249916mm"
   height="10.500135mm"
   viewBox="0 0 54.249916 10.500135"
   version="1.1"
   id="svg1"
   xml:space="preserve"
   inkscape:version="1.3.1 (91b66b0783, 2023-11-16)"
   sodipodi:docname="topic_21.svg"
   xmlns:inkscape="http://www.inkscape.org/namespaces/inkscape"
   xmlns:sodipodi="http://sodipodi.sourceforge.net/DTD/sodipodi-0.dtd"
   xmlns="http://www.w3.org/2000/svg"
   xmlns:svg="http://www.w3.org/2000/svg"><sodipodi:namedview
     id="namedview1"
     pagecolor="#ffffff"
     bordercolor="#000000"
     borderopacity="0.25"
     inkscape:showpageshadow="2"
     inkscape:pageopacity="0.0"
     inkscape:pagecheckerboard="0"
     inkscape:deskcolor="#d1d1d1"
     inkscape:document-units="mm"
     inkscape:zoom="2.8284271"
     inkscape:cx="64.16994"
     inkscape:cy="-114.72808"
     inkscape:window-width="2560"
     inkscape:window-height="1346"
     inkscape:window-x="-11"
     inkscape:window-y="-11"
     inkscape:window-maximized="1"
     inkscape:current-layer="layer1"
     showgrid="true"><inkscape:grid
       id="grid668"
       units="mm"
       originx="-424.6859"
       originy="-139.08546"
       spacingx="0.5"
       spacingy="0.5"
       empcolor="#0099e5"
       empopacity="0.30196078"
       color="#0099e5"
       opacity="0.14901961"
       empspacing="5"
       dotted="false"
       gridanglex="30"
       gridanglez="30"
       visible="true" /></sodipodi:namedview><defs
     id="defs1" /><g
     inkscape:label="Layer 1"
     inkscape:groupmode="layer"
     id="layer1"
     transform="translate(-424.68589,-139.08546)"><rect
       style="fill:#f9f9f9;stroke-width:0.499999;stroke-linejoin:round;stroke-miterlimit:3.4;stroke-dashoffset:19.8539"
       id="rect26"
       width="27.007425"
       height="7.1517849"
       x="427.99258"
       y="140.45811" /><path
       id="path735"
       style="fill:#2c2c6f;fill-opacity:1;stroke-width:0.264583"
       d="m 428.31203,139.08545 c -2.00263,0 -3.62614,1.61081 -3.62614,3.59772 v 3.30471 c 0,1.9869 1.62351,3.59771 3.62614,3.59771 h 28.12386 v -10.50014 z m 28.64166,0 v 10.50014 h 1.96474 v -10.50014 z m 2.48254,0 v 10.50014 h 1.99987 v -10.50014 z m 2.49959,0 v 10.50014 h 2.00039 v -10.50014 z m 2.5001,0 v 10.50014 h 1.99988 v -10.50014 z m 2.50011,0 v 10.50014 h 1.99987 v -10.50014 z m 2.5001,0 v 10.50014 h 1.99988 v -10.50014 z m 2.50011,0 v 10.50014 h 1.99988 v -10.50014 z m 2.49959,0 v 10.50014 h 2.00039 v -10.50014 z m 2.5001,0 v 10.50014 h 1.99988 v -10.50014 z m -41.40419,3.47834 h 0.62167 v 1.19579 c 0.0644,-0.0799 0.13763,-0.14142 0.21962,-0.185 0.0835,-0.0436 0.17544,-0.0656 0.27647,-0.0656 0.0981,0 0.18828,0.0167 0.27027,0.0501 0.082,0.0334 0.15227,0.0865 0.21084,0.15916 0.0586,0.0726 0.10422,0.16749 0.13643,0.28371 0.0322,0.11622 0.0481,0.2572 0.0481,0.42427 v 1.48415 h -0.62374 v -1.48829 c 0,-0.0755 -0.006,-0.13882 -0.0176,-0.18965 -0.0117,-0.0508 -0.0293,-0.0914 -0.0527,-0.12195 -0.0234,-0.0305 -0.0521,-0.052 -0.0858,-0.0651 -0.0337,-0.0131 -0.073,-0.0201 -0.11834,-0.0201 -0.0615,0 -0.1136,0.0143 -0.15606,0.0419 -0.0425,0.0276 -0.0782,0.0652 -0.10749,0.11317 v 1.73013 h -0.62167 z m 11.55434,0.0522 c 0.0512,0 0.0975,0.008 0.13849,0.0238 0.0425,0.016 0.0782,0.0387 0.10749,0.0677 0.0293,0.0291 0.0521,0.0637 0.0682,0.10439 0.0161,0.0392 0.0243,0.0828 0.0243,0.13074 0,0.0479 -0.008,0.0921 -0.0243,0.13281 -0.0161,0.0392 -0.0389,0.0739 -0.0682,0.10438 -0.0293,0.0291 -0.065,0.0517 -0.10749,0.0677 -0.041,0.016 -0.0872,0.0243 -0.13849,0.0243 -0.0513,0 -0.0981,-0.008 -0.14056,-0.0243 -0.041,-0.016 -0.0761,-0.0386 -0.10542,-0.0677 -0.0293,-0.0305 -0.0516,-0.0652 -0.0677,-0.10438 -0.0161,-0.0407 -0.0243,-0.0849 -0.0243,-0.13281 0,-0.0479 0.008,-0.0915 0.0243,-0.13074 0.0161,-0.0407 0.0384,-0.0753 0.0677,-0.10439 0.0293,-0.0291 0.0644,-0.0517 0.10542,-0.0677 0.0425,-0.016 0.0893,-0.0238 0.14056,-0.0238 z m -18.41748,0.12196 h 0.84335 l 0.6041,2.29444 0.60152,-2.29444 h 0.84336 v 3.17242 h -0.64803 v -0.85835 l 0.0594,-1.32292 -0.63924,2.18127 h -0.43925 l -0.63872,-2.18127 0.0589,1.32292 v 0.85835 h -0.64543 z m 5.5981,0.23513 h 0.62167 v 0.57982 h 0.31833 v 0.46352 h -0.31833 v 1.17048 c 0,0.0494 0.003,0.0905 0.009,0.12247 0.007,0.032 0.0184,0.0566 0.0331,0.0754 0.0161,0.0174 0.0355,0.0305 0.0589,0.0377 0.0234,0.006 0.0521,0.009 0.0858,0.009 0.0308,0 0.0588,-0.002 0.0837,-0.005 0.0264,-0.003 0.0475,-0.006 0.0636,-0.0109 l -0.005,0.47904 c -0.0469,0.0174 -0.0972,0.0317 -0.15141,0.0419 -0.0542,0.0116 -0.118,0.017 -0.19121,0.017 -0.0922,0 -0.17544,-0.0131 -0.25011,-0.0393 -0.0747,-0.0247 -0.1391,-0.0647 -0.19327,-0.11989 -0.0527,-0.0566 -0.0937,-0.12946 -0.12299,-0.21807 -0.0278,-0.0886 -0.0419,-0.19495 -0.0419,-0.31988 v -1.24024 h -0.2744 v -0.46405 h 0.2744 z m 11.20087,0 h 0.62167 v 0.57982 h 0.31832 v 0.46352 h -0.31832 v 1.17048 c 0,0.0494 0.003,0.0905 0.009,0.12247 0.007,0.032 0.0184,0.0566 0.0331,0.0754 0.0161,0.0174 0.0355,0.0305 0.0589,0.0377 0.0234,0.006 0.0521,0.009 0.0858,0.009 0.0307,0 0.0588,-0.002 0.0837,-0.005 0.0264,-0.003 0.0474,-0.006 0.0636,-0.0109 l -0.005,0.47904 c -0.0469,0.0174 -0.0972,0.0317 -0.15142,0.0419 -0.0542,0.0116 -0.11799,0.017 -0.1912,0.017 -0.0922,0 -0.17544,-0.0131 -0.25011,-0.0393 -0.0747,-0.0247 -0.1391,-0.0647 -0.19327,-0.11989 -0.0527,-0.0566 -0.0937,-0.12946 -0.12299,-0.21807 -0.0278,-0.0886 -0.0419,-0.19495 -0.0419,-0.31988 v -1.24024 h -0.2744 v -0.46405 h 0.2744 z m -12.57133,0.53588 h 5.2e-4 c 0.11839,5e-5 0.22719,0.0155 0.3266,0.046 0.0996,0.0291 0.1862,0.0751 0.25941,0.13901 0.0732,0.0625 0.13005,0.14359 0.17105,0.24237 0.041,0.0973 0.0615,0.21495 0.0615,0.35295 v 1.04593 c 0,0.0683 0.002,0.12918 0.005,0.18293 0.004,0.0523 0.0103,0.10008 0.0176,0.14366 0.007,0.0421 0.0162,0.0804 0.0264,0.11524 0.0117,0.0334 0.0246,0.0656 0.0393,0.0961 v 0.0372 h -0.6258 c -0.0117,-0.0247 -0.0217,-0.0522 -0.0305,-0.0827 -0.007,-0.032 -0.0149,-0.0654 -0.0222,-0.10025 -0.0468,0.0639 -0.10775,0.11765 -0.18242,0.16123 -0.0732,0.0436 -0.16287,0.0656 -0.26975,0.0656 -0.0966,0 -0.18741,-0.0172 -0.27233,-0.0506 -0.0835,-0.0334 -0.15667,-0.0801 -0.21963,-0.14108 -0.0615,-0.061 -0.11067,-0.13495 -0.14728,-0.22066 -0.0351,-0.0872 -0.0527,-0.18397 -0.0527,-0.29145 0,-0.11912 0.0188,-0.22711 0.0568,-0.32298 0.0395,-0.0973 0.0981,-0.17916 0.1757,-0.24598 0.0791,-0.0683 0.17741,-0.12026 0.29455,-0.15658 0.11859,-0.0363 0.25743,-0.0548 0.41703,-0.0548 h 0.1695 v -0.18965 c 0,-0.10604 -0.0187,-0.1807 -0.0553,-0.22427 -0.0366,-0.0436 -0.0899,-0.0656 -0.1602,-0.0656 -0.0805,0 -0.1397,0.0244 -0.17777,0.0723 -0.0366,0.0465 -0.0548,0.11222 -0.0548,0.19792 h -0.62167 c 0,-0.10313 0.0199,-0.19984 0.0594,-0.2899 0.041,-0.0915 0.0996,-0.17099 0.1757,-0.23926 0.0761,-0.0683 0.16752,-0.12253 0.2744,-0.16175 0.10675,-0.0406 0.22724,-0.0609 0.36173,-0.061 z m 5.76089,0 c 0.30162,0 0.5277,0.0967 0.67851,0.28991 0.1508,0.1932 0.22635,0.47972 0.22635,0.85886 v 0.2806 h -1.23662 c 0.004,0.0944 0.0167,0.1738 0.0372,0.23771 0.022,0.0639 0.0511,0.11529 0.0879,0.15452 0.0366,0.0392 0.0805,0.0678 0.13177,0.0853 0.0527,0.0174 0.1124,0.0264 0.17829,0.0264 0.10981,0 0.20705,-0.0185 0.29197,-0.0548 0.0864,-0.0378 0.16252,-0.0898 0.22841,-0.15658 l 0.24391,0.37207 c -0.0307,0.0421 -0.0711,0.0845 -0.12092,0.12661 -0.0498,0.0407 -0.10835,0.0777 -0.1757,0.1111 -0.0674,0.0334 -0.14349,0.0603 -0.22841,0.0806 -0.0849,0.0218 -0.17804,0.0331 -0.27906,0.0331 -0.16252,0 -0.30661,-0.025 -0.43253,-0.0744 -0.12591,-0.0494 -0.23194,-0.12046 -0.31832,-0.21343 -0.0864,-0.093 -0.15253,-0.20639 -0.19792,-0.34003 -0.0439,-0.13509 -0.0656,-0.28851 -0.0656,-0.45992 v -0.19379 c 0,-0.19174 0.0211,-0.35951 0.0636,-0.50332 0.0439,-0.14527 0.10602,-0.26648 0.18655,-0.36381 0.082,-0.0988 0.18156,-0.17281 0.29869,-0.2222 0.1186,-0.0494 0.2527,-0.0744 0.40204,-0.0744 z m 2.40864,0 h 5.2e-4 c 0.10981,0 0.20817,0.0256 0.29455,0.0765 0.0879,0.0508 0.15701,0.13145 0.20826,0.24185 0.0644,-0.10023 0.14461,-0.17786 0.23978,-0.23305 0.0966,-0.0567 0.21084,-0.0853 0.34261,-0.0853 0.0966,0 0.18337,0.0166 0.26097,0.0486 0.0791,0.032 0.14641,0.0828 0.20205,0.15398 0.0556,0.0712 0.099,0.1643 0.12971,0.27906 0.0307,0.11475 0.046,0.25504 0.046,0.42064 v 1.49914 h -0.62115 v -1.50172 c 0,-0.0785 -0.006,-0.14233 -0.0176,-0.19172 -0.0102,-0.0494 -0.0266,-0.0876 -0.0486,-0.11524 -0.022,-0.0291 -0.0483,-0.0487 -0.0791,-0.0589 -0.0308,-0.0116 -0.0659,-0.0176 -0.10542,-0.0176 -0.0615,0 -0.1136,0.0191 -0.15606,0.0568 -0.0425,0.0378 -0.0765,0.0897 -0.10284,0.15503 0.002,0.016 0.002,0.0322 0.002,0.0496 10e-4,0.0174 0.002,0.0353 0.002,0.0527 v 1.57096 h -0.62167 v -1.49707 c 0,-0.0784 -0.006,-0.14233 -0.0176,-0.19172 -0.0103,-0.0508 -0.0261,-0.0908 -0.0481,-0.11989 -0.0205,-0.0291 -0.0469,-0.0487 -0.0791,-0.0589 -0.0307,-0.0116 -0.0659,-0.0176 -0.10542,-0.0176 -0.0571,0 -0.10689,0.016 -0.14935,0.0465 -0.041,0.0305 -0.0761,0.0724 -0.10542,0.12609 v 1.71256 h -0.62166 v -2.35748 h 0.58187 l 0.0176,0.21754 c 0.0659,-0.0828 0.14435,-0.14668 0.23513,-0.19172 0.0922,-0.0465 0.19766,-0.0698 0.31626,-0.0698 z m 3.03134,0 h 5.2e-4 c 0.11839,5e-5 0.22718,0.0155 0.32659,0.046 0.0996,0.0291 0.18621,0.0751 0.25942,0.13901 0.0732,0.0625 0.13005,0.14359 0.17105,0.24237 0.041,0.0973 0.0615,0.21495 0.0615,0.35295 v 1.04593 c 0,0.0683 0.002,0.12918 0.005,0.18293 0.004,0.0523 0.0103,0.10008 0.0176,0.14366 0.007,0.0421 0.016,0.0804 0.0263,0.11524 0.0117,0.0334 0.0246,0.0656 0.0393,0.0961 v 0.0372 h -0.6258 c -0.0117,-0.0247 -0.0217,-0.0522 -0.0305,-0.0827 -0.007,-0.032 -0.0149,-0.0654 -0.0222,-0.10025 -0.0469,0.0639 -0.10775,0.11765 -0.18242,0.16123 -0.0732,0.0436 -0.16286,0.0656 -0.26975,0.0656 -0.0966,0 -0.18742,-0.0172 -0.27234,-0.0506 -0.0835,-0.0334 -0.15667,-0.0801 -0.21962,-0.14108 -0.0615,-0.061 -0.11068,-0.13495 -0.14728,-0.22066 -0.0351,-0.0872 -0.0527,-0.18397 -0.0527,-0.29145 0,-0.11912 0.019,-0.22711 0.0569,-0.32298 0.0395,-0.0973 0.0981,-0.17916 0.1757,-0.24598 0.0791,-0.0683 0.17742,-0.12026 0.29455,-0.15658 0.1186,-0.0363 0.25744,-0.0548 0.41703,-0.0548 h 0.1695 v -0.18965 c 0,-0.10604 -0.0187,-0.1807 -0.0553,-0.22427 -0.0366,-0.0436 -0.0899,-0.0656 -0.16019,-0.0656 -0.0805,0 -0.13971,0.0244 -0.17777,0.0723 -0.0366,0.0465 -0.0548,0.11222 -0.0548,0.19792 h -0.62166 c 0,-0.10313 0.0199,-0.19984 0.0594,-0.2899 0.041,-0.0915 0.0996,-0.17099 0.1757,-0.23926 0.0761,-0.0683 0.16753,-0.12253 0.27441,-0.16175 0.10674,-0.0406 0.22725,-0.0609 0.36173,-0.061 z m 4.65191,0 c 0.12738,0 0.24279,0.0203 0.34675,0.061 0.10542,0.0392 0.19499,0.0983 0.2682,0.17673 0.0747,0.077 0.13152,0.17257 0.17105,0.28732 0.041,0.11476 0.0621,0.24787 0.0636,0.39895 h -0.58394 c -0.002,-0.13219 -0.0236,-0.23372 -0.0661,-0.30489 -0.0425,-0.0712 -0.11274,-0.10696 -0.21084,-0.10696 -0.0688,0 -0.12334,0.0142 -0.16433,0.0418 -0.0395,0.0276 -0.0705,0.0682 -0.0925,0.12196 -0.0205,0.0523 -0.0345,0.11742 -0.0419,0.19586 -0.006,0.077 -0.009,0.16651 -0.009,0.2682 v 0.1695 c 0,0.10314 0.003,0.19441 0.009,0.27285 0.006,0.077 0.0193,0.1415 0.0398,0.19379 0.022,0.0523 0.0536,0.0912 0.0946,0.11731 0.041,0.0261 0.0966,0.0398 0.16692,0.0398 0.0864,0 0.15262,-0.0263 0.19947,-0.0786 0.0483,-0.0537 0.0735,-0.14389 0.0749,-0.27027 h 0.58394 c -10e-4,0.13364 -0.0238,0.25372 -0.0677,0.36122 -0.0439,0.10604 -0.10421,0.19618 -0.18035,0.27027 -0.0747,0.0741 -0.16313,0.13131 -0.26562,0.17053 -0.10249,0.0392 -0.21316,0.0589 -0.33176,0.0589 -0.15959,0 -0.29844,-0.0256 -0.41703,-0.0765 -0.1186,-0.0508 -0.21755,-0.12427 -0.29662,-0.22014 -0.0776,-0.0973 -0.13616,-0.21618 -0.1757,-0.35709 -0.0381,-0.1409 -0.0574,-0.30201 -0.0574,-0.48214 v -0.1695 c 0,-0.18012 0.0193,-0.34072 0.0574,-0.48162 0.0395,-0.14236 0.0981,-0.26234 0.1757,-0.35967 0.0776,-0.0973 0.17543,-0.17137 0.29403,-0.22221 0.1186,-0.0508 0.25735,-0.0765 0.41548,-0.0765 z m 1.98955,0 c 0.13324,0 0.25269,0.0179 0.35811,0.0543 0.10689,0.0349 0.19766,0.0855 0.27234,0.15091 0.0747,0.0639 0.13151,0.14153 0.17105,0.23306 0.0395,0.0901 0.0594,0.19034 0.0594,0.30074 h -0.62167 c 0,-0.0901 -0.0182,-0.1605 -0.0548,-0.21135 -0.0366,-0.0509 -0.0987,-0.0765 -0.18655,-0.0765 -0.0659,0 -0.12032,0.0203 -0.16278,0.061 -0.0425,0.0407 -0.0636,0.0974 -0.0636,0.17001 0,0.0305 0.006,0.0585 0.0196,0.0832 0.0146,0.0232 0.0375,0.046 0.0682,0.0692 0.0322,0.0232 0.0738,0.0471 0.12505,0.0718 0.0513,0.0247 0.11446,0.0533 0.18914,0.0853 0.11859,0.0436 0.22108,0.0895 0.30747,0.13746 0.0879,0.0479 0.16046,0.10116 0.21756,0.16072 0.0571,0.0581 0.0993,0.12435 0.12713,0.19843 0.0278,0.0741 0.0418,0.15951 0.0418,0.25683 0,0.10459 -0.0205,0.20007 -0.0615,0.28578 -0.041,0.0857 -0.0996,0.15913 -0.1757,0.22014 -0.0747,0.061 -0.16546,0.10879 -0.27234,0.14366 -0.10689,0.0334 -0.22633,0.0506 -0.35811,0.0506 -0.14495,0 -0.27321,-0.022 -0.38448,-0.0656 -0.10982,-0.045 -0.2018,-0.1041 -0.27647,-0.17673 -0.0747,-0.0741 -0.13092,-0.15705 -0.16898,-0.24857 -0.0381,-0.093 -0.0574,-0.18679 -0.0574,-0.28267 h 0.59066 c 0.002,0.0639 0.0103,0.11653 0.0264,0.15865 0.0161,0.0407 0.0377,0.0735 0.0641,0.0982 0.0278,0.0247 0.06,0.042 0.0966,0.0522 0.0381,0.009 0.0791,0.0134 0.12299,0.0134 0.16691,0 0.25012,-0.0752 0.25012,-0.2248 0,-0.0305 -0.008,-0.058 -0.0243,-0.0827 -0.0146,-0.0261 -0.0386,-0.0513 -0.0724,-0.076 -0.0322,-0.0261 -0.0744,-0.0524 -0.12712,-0.0786 -0.0527,-0.0261 -0.11592,-0.0554 -0.18914,-0.0873 -0.10834,-0.0436 -0.20439,-0.0878 -0.28784,-0.1328 -0.0835,-0.0465 -0.15374,-0.0984 -0.21084,-0.15503 -0.0571,-0.0581 -0.0999,-0.12261 -0.12919,-0.19379 -0.0293,-0.0726 -0.0439,-0.15621 -0.0439,-0.25063 0,-0.0988 0.0182,-0.19077 0.0548,-0.27647 0.0381,-0.0872 0.092,-0.16294 0.16227,-0.22686 0.0703,-0.0654 0.15632,-0.11613 0.25735,-0.15244 0.10249,-0.0378 0.2179,-0.0568 0.34675,-0.0568 z m -3.96204,0.0439 h 0.62374 v 2.35749 h -0.62374 z m -8.12405,0.46819 c -0.10835,0 -0.18741,0.0388 -0.23719,0.11575 -0.0483,0.077 -0.0765,0.20056 -0.0853,0.37052 h 0.62115 v -0.0568 c -0.003,-0.14091 -0.0264,-0.24777 -0.0703,-0.3204 -0.0439,-0.0726 -0.12007,-0.10903 -0.22841,-0.10903 z m -5.70559,0.81958 c -0.0586,0 -0.10895,0.009 -0.15141,0.0279 -0.0425,0.0189 -0.0787,0.0451 -0.10801,0.0786 -0.0278,0.0334 -0.0489,0.0728 -0.0636,0.11782 -0.0132,0.045 -0.0196,0.0928 -0.0196,0.14366 0,0.0857 0.0176,0.15134 0.0527,0.19637 0.0366,0.0436 0.0876,0.0651 0.15348,0.0651 0.0688,0 0.12738,-0.0137 0.1757,-0.0413 0.0483,-0.0276 0.0846,-0.0604 0.108,-0.0982 v -0.4899 z m 11.20086,0 c -0.0586,0 -0.10895,0.009 -0.15141,0.0279 -0.0425,0.0189 -0.0787,0.0451 -0.108,0.0786 -0.0278,0.0334 -0.0489,0.0728 -0.0636,0.11782 -0.0132,0.045 -0.0196,0.0928 -0.0196,0.14366 0,0.0857 0.0176,0.15134 0.0527,0.19637 0.0366,0.0436 0.0876,0.0651 0.15348,0.0651 0.0688,0 0.12739,-0.0137 0.1757,-0.0413 0.0483,-0.0276 0.0846,-0.0604 0.108,-0.0982 v -0.4899 z" /><path
       id="path156"
       style="fill:#808ff7;fill-opacity:1;stroke-width:0.264583"
       d="m 428.31203,139.08545 c -2.00263,0 -3.62614,1.61081 -3.62614,3.59772 v 3.30471 c 0,1.9869 1.62351,3.59771 3.62614,3.59771 h 28.12386 v -10.50014 z m 28.64166,0 v 10.50014 h 1.96474 v -10.50014 z m 2.48254,0 v 10.50014 h 1.99987 v -10.50014 z m 2.49959,0 v 10.50014 h 2.00039 v -10.50014 z m 2.5001,0 v 10.50014 h 1.99988 v -10.50014 z m 2.50011,0 v 10.50014 h 1.99987 v -10.50014 z m 2.5001,0 v 10.50014 h 1.99988 v -10.50014 z m 2.50011,0 v 10.50014 h 1.99988 v -10.50014 z m 2.49959,0 v 10.50014 h 2.00039 v -10.50014 z m 2.5001,0 v 10.50014 h 1.99988 v -10.50014 z m -41.40419,3.47834 h 0.62167 v 1.19579 c 0.0644,-0.0799 0.13763,-0.14142 0.21962,-0.185 0.0835,-0.0436 0.17544,-0.0656 0.27647,-0.0656 0.0981,0 0.18828,0.0167 0.27027,0.0501 0.082,0.0334 0.15227,0.0865 0.21084,0.15916 0.0586,0.0726 0.10422,0.16749 0.13643,0.28371 0.0322,0.11622 0.0481,0.2572 0.0481,0.42427 v 1.48415 h -0.62374 v -1.48829 c 0,-0.0755 -0.006,-0.13882 -0.0176,-0.18965 -0.0117,-0.0508 -0.0293,-0.0914 -0.0527,-0.12195 -0.0234,-0.0305 -0.0521,-0.052 -0.0858,-0.0651 -0.0337,-0.0131 -0.073,-0.0201 -0.11834,-0.0201 -0.0615,0 -0.1136,0.0143 -0.15606,0.0419 -0.0425,0.0276 -0.0782,0.0652 -0.10749,0.11317 v 1.73013 h -0.62167 z m 11.55434,0.0522 c 0.0512,0 0.0975,0.008 0.13849,0.0238 0.0425,0.016 0.0782,0.0387 0.10749,0.0677 0.0293,0.0291 0.0521,0.0637 0.0682,0.10439 0.0161,0.0392 0.0243,0.0828 0.0243,0.13074 0,0.0479 -0.008,0.0921 -0.0243,0.13281 -0.0161,0.0392 -0.0389,0.0739 -0.0682,0.10438 -0.0293,0.0291 -0.065,0.0517 -0.10749,0.0677 -0.041,0.016 -0.0872,0.0243 -0.13849,0.0243 -0.0513,0 -0.0981,-0.008 -0.14056,-0.0243 -0.041,-0.016 -0.0761,-0.0386 -0.10542,-0.0677 -0.0293,-0.0305 -0.0516,-0.0652 -0.0677,-0.10438 -0.0161,-0.0407 -0.0243,-0.0849 -0.0243,-0.13281 0,-0.0479 0.008,-0.0915 0.0243,-0.13074 0.0161,-0.0407 0.0384,-0.0753 0.0677,-0.10439 0.0293,-0.0291 0.0644,-0.0517 0.10542,-0.0677 0.0425,-0.016 0.0893,-0.0238 0.14056,-0.0238 z m -18.41748,0.12196 h 0.84335 l 0.6041,2.29444 0.60152,-2.29444 h 0.84336 v 3.17242 h -0.64803 v -0.85835 l 0.0594,-1.32292 -0.63924,2.18127 h -0.43925 l -0.63872,-2.18127 0.0589,1.32292 v 0.85835 h -0.64543 z m 5.5981,0.23513 h 0.62167 v 0.57982 h 0.31833 v 0.46352 h -0.31833 v 1.17048 c 0,0.0494 0.003,0.0905 0.009,0.12247 0.007,0.032 0.0184,0.0566 0.0331,0.0754 0.0161,0.0174 0.0355,0.0305 0.0589,0.0377 0.0234,0.006 0.0521,0.009 0.0858,0.009 0.0308,0 0.0588,-0.002 0.0837,-0.005 0.0264,-0.003 0.0475,-0.006 0.0636,-0.0109 l -0.005,0.47904 c -0.0469,0.0174 -0.0972,0.0317 -0.15141,0.0419 -0.0542,0.0116 -0.118,0.017 -0.19121,0.017 -0.0922,0 -0.17544,-0.0131 -0.25011,-0.0393 -0.0747,-0.0247 -0.1391,-0.0647 -0.19327,-0.11989 -0.0527,-0.0566 -0.0937,-0.12946 -0.12299,-0.21807 -0.0278,-0.0886 -0.0419,-0.19495 -0.0419,-0.31988 v -1.24024 h -0.2744 v -0.46405 h 0.2744 z m 11.20087,0 h 0.62167 v 0.57982 h 0.31832 v 0.46352 h -0.31832 v 1.17048 c 0,0.0494 0.003,0.0905 0.009,0.12247 0.007,0.032 0.0184,0.0566 0.0331,0.0754 0.0161,0.0174 0.0355,0.0305 0.0589,0.0377 0.0234,0.006 0.0521,0.009 0.0858,0.009 0.0307,0 0.0588,-0.002 0.0837,-0.005 0.0264,-0.003 0.0474,-0.006 0.0636,-0.0109 l -0.005,0.47904 c -0.0469,0.0174 -0.0972,0.0317 -0.15142,0.0419 -0.0542,0.0116 -0.11799,0.017 -0.1912,0.017 -0.0922,0 -0.17544,-0.0131 -0.25011,-0.0393 -0.0747,-0.0247 -0.1391,-0.0647 -0.19327,-0.11989 -0.0527,-0.0566 -0.0937,-0.12946 -0.12299,-0.21807 -0.0278,-0.0886 -0.0419,-0.19495 -0.0419,-0.31988 v -1.24024 h -0.2744 v -0.46405 h 0.2744 z m -12.57133,0.53588 h 5.2e-4 c 0.11839,5e-5 0.22719,0.0155 0.3266,0.046 0.0996,0.0291 0.1862,0.0751 0.25941,0.13901 0.0732,0.0625 0.13005,0.14359 0.17105,0.24237 0.041,0.0973 0.0615,0.21495 0.0615,0.35295 v 1.04593 c 0,0.0683 0.002,0.12918 0.005,0.18293 0.004,0.0523 0.0103,0.10008 0.0176,0.14366 0.007,0.0421 0.0162,0.0804 0.0264,0.11524 0.0117,0.0334 0.0246,0.0656 0.0393,0.0961 v 0.0372 h -0.6258 c -0.0117,-0.0247 -0.0217,-0.0522 -0.0305,-0.0827 -0.007,-0.032 -0.0149,-0.0654 -0.0222,-0.10025 -0.0468,0.0639 -0.10775,0.11765 -0.18242,0.16123 -0.0732,0.0436 -0.16287,0.0656 -0.26975,0.0656 -0.0966,0 -0.18741,-0.0172 -0.27233,-0.0506 -0.0835,-0.0334 -0.15667,-0.0801 -0.21963,-0.14108 -0.0615,-0.061 -0.11067,-0.13495 -0.14728,-0.22066 -0.0351,-0.0872 -0.0527,-0.18397 -0.0527,-0.29145 0,-0.11912 0.0188,-0.22711 0.0568,-0.32298 0.0395,-0.0973 0.0981,-0.17916 0.1757,-0.24598 0.0791,-0.0683 0.17741,-0.12026 0.29455,-0.15658 0.11859,-0.0363 0.25743,-0.0548 0.41703,-0.0548 h 0.1695 v -0.18965 c 0,-0.10604 -0.0187,-0.1807 -0.0553,-0.22427 -0.0366,-0.0436 -0.0899,-0.0656 -0.1602,-0.0656 -0.0805,0 -0.1397,0.0244 -0.17777,0.0723 -0.0366,0.0465 -0.0548,0.11222 -0.0548,0.19792 h -0.62167 c 0,-0.10313 0.0199,-0.19984 0.0594,-0.2899 0.041,-0.0915 0.0996,-0.17099 0.1757,-0.23926 0.0761,-0.0683 0.16752,-0.12253 0.2744,-0.16175 0.10675,-0.0406 0.22724,-0.0609 0.36173,-0.061 z m 5.76089,0 c 0.30162,0 0.5277,0.0967 0.67851,0.28991 0.1508,0.1932 0.22635,0.47972 0.22635,0.85886 v 0.2806 h -1.23662 c 0.004,0.0944 0.0167,0.1738 0.0372,0.23771 0.022,0.0639 0.0511,0.11529 0.0879,0.15452 0.0366,0.0392 0.0805,0.0678 0.13177,0.0853 0.0527,0.0174 0.1124,0.0264 0.17829,0.0264 0.10981,0 0.20705,-0.0185 0.29197,-0.0548 0.0864,-0.0378 0.16252,-0.0898 0.22841,-0.15658 l 0.24391,0.37207 c -0.0307,0.0421 -0.0711,0.0845 -0.12092,0.12661 -0.0498,0.0407 -0.10835,0.0777 -0.1757,0.1111 -0.0674,0.0334 -0.14349,0.0603 -0.22841,0.0806 -0.0849,0.0218 -0.17804,0.0331 -0.27906,0.0331 -0.16252,0 -0.30661,-0.025 -0.43253,-0.0744 -0.12591,-0.0494 -0.23194,-0.12046 -0.31832,-0.21343 -0.0864,-0.093 -0.15253,-0.20639 -0.19792,-0.34003 -0.0439,-0.13509 -0.0656,-0.28851 -0.0656,-0.45992 v -0.19379 c 0,-0.19174 0.0211,-0.35951 0.0636,-0.50332 0.0439,-0.14527 0.10602,-0.26648 0.18655,-0.36381 0.082,-0.0988 0.18156,-0.17281 0.29869,-0.2222 0.1186,-0.0494 0.2527,-0.0744 0.40204,-0.0744 z m 2.40864,0 h 5.2e-4 c 0.10981,0 0.20817,0.0256 0.29455,0.0765 0.0879,0.0508 0.15701,0.13145 0.20826,0.24185 0.0644,-0.10023 0.14461,-0.17786 0.23978,-0.23305 0.0966,-0.0567 0.21084,-0.0853 0.34261,-0.0853 0.0966,0 0.18337,0.0166 0.26097,0.0486 0.0791,0.032 0.14641,0.0828 0.20205,0.15398 0.0556,0.0712 0.099,0.1643 0.12971,0.27906 0.0307,0.11475 0.046,0.25504 0.046,0.42064 v 1.49914 h -0.62115 v -1.50172 c 0,-0.0785 -0.006,-0.14233 -0.0176,-0.19172 -0.0102,-0.0494 -0.0266,-0.0876 -0.0486,-0.11524 -0.022,-0.0291 -0.0483,-0.0487 -0.0791,-0.0589 -0.0308,-0.0116 -0.0659,-0.0176 -0.10542,-0.0176 -0.0615,0 -0.1136,0.0191 -0.15606,0.0568 -0.0425,0.0378 -0.0765,0.0897 -0.10284,0.15503 0.002,0.016 0.002,0.0322 0.002,0.0496 10e-4,0.0174 0.002,0.0353 0.002,0.0527 v 1.57096 h -0.62167 v -1.49707 c 0,-0.0784 -0.006,-0.14233 -0.0176,-0.19172 -0.0103,-0.0508 -0.0261,-0.0908 -0.0481,-0.11989 -0.0205,-0.0291 -0.0469,-0.0487 -0.0791,-0.0589 -0.0307,-0.0116 -0.0659,-0.0176 -0.10542,-0.0176 -0.0571,0 -0.10689,0.016 -0.14935,0.0465 -0.041,0.0305 -0.0761,0.0724 -0.10542,0.12609 v 1.71256 h -0.62166 v -2.35748 h 0.58187 l 0.0176,0.21754 c 0.0659,-0.0828 0.14435,-0.14668 0.23513,-0.19172 0.0922,-0.0465 0.19766,-0.0698 0.31626,-0.0698 z m 3.03134,0 h 5.2e-4 c 0.11839,5e-5 0.22718,0.0155 0.32659,0.046 0.0996,0.0291 0.18621,0.0751 0.25942,0.13901 0.0732,0.0625 0.13005,0.14359 0.17105,0.24237 0.041,0.0973 0.0615,0.21495 0.0615,0.35295 v 1.04593 c 0,0.0683 0.002,0.12918 0.005,0.18293 0.004,0.0523 0.0103,0.10008 0.0176,0.14366 0.007,0.0421 0.016,0.0804 0.0263,0.11524 0.0117,0.0334 0.0246,0.0656 0.0393,0.0961 v 0.0372 h -0.6258 c -0.0117,-0.0247 -0.0217,-0.0522 -0.0305,-0.0827 -0.007,-0.032 -0.0149,-0.0654 -0.0222,-0.10025 -0.0469,0.0639 -0.10775,0.11765 -0.18242,0.16123 -0.0732,0.0436 -0.16286,0.0656 -0.26975,0.0656 -0.0966,0 -0.18742,-0.0172 -0.27234,-0.0506 -0.0835,-0.0334 -0.15667,-0.0801 -0.21962,-0.14108 -0.0615,-0.061 -0.11068,-0.13495 -0.14728,-0.22066 -0.0351,-0.0872 -0.0527,-0.18397 -0.0527,-0.29145 0,-0.11912 0.019,-0.22711 0.0569,-0.32298 0.0395,-0.0973 0.0981,-0.17916 0.1757,-0.24598 0.0791,-0.0683 0.17742,-0.12026 0.29455,-0.15658 0.1186,-0.0363 0.25744,-0.0548 0.41703,-0.0548 h 0.1695 v -0.18965 c 0,-0.10604 -0.0187,-0.1807 -0.0553,-0.22427 -0.0366,-0.0436 -0.0899,-0.0656 -0.16019,-0.0656 -0.0805,0 -0.13971,0.0244 -0.17777,0.0723 -0.0366,0.0465 -0.0548,0.11222 -0.0548,0.19792 h -0.62166 c 0,-0.10313 0.0199,-0.19984 0.0594,-0.2899 0.041,-0.0915 0.0996,-0.17099 0.1757,-0.23926 0.0761,-0.0683 0.16753,-0.12253 0.27441,-0.16175 0.10674,-0.0406 0.22725,-0.0609 0.36173,-0.061 z m 4.65191,0 c 0.12738,0 0.24279,0.0203 0.34675,0.061 0.10542,0.0392 0.19499,0.0983 0.2682,0.17673 0.0747,0.077 0.13152,0.17257 0.17105,0.28732 0.041,0.11476 0.0621,0.24787 0.0636,0.39895 h -0.58394 c -0.002,-0.13219 -0.0236,-0.23372 -0.0661,-0.30489 -0.0425,-0.0712 -0.11274,-0.10696 -0.21084,-0.10696 -0.0688,0 -0.12334,0.0142 -0.16433,0.0418 -0.0395,0.0276 -0.0705,0.0682 -0.0925,0.12196 -0.0205,0.0523 -0.0345,0.11742 -0.0419,0.19586 -0.006,0.077 -0.009,0.16651 -0.009,0.2682 v 0.1695 c 0,0.10314 0.003,0.19441 0.009,0.27285 0.006,0.077 0.0193,0.1415 0.0398,0.19379 0.022,0.0523 0.0536,0.0912 0.0946,0.11731 0.041,0.0261 0.0966,0.0398 0.16692,0.0398 0.0864,0 0.15262,-0.0263 0.19947,-0.0786 0.0483,-0.0537 0.0735,-0.14389 0.0749,-0.27027 h 0.58394 c -10e-4,0.13364 -0.0238,0.25372 -0.0677,0.36122 -0.0439,0.10604 -0.10421,0.19618 -0.18035,0.27027 -0.0747,0.0741 -0.16313,0.13131 -0.26562,0.17053 -0.10249,0.0392 -0.21316,0.0589 -0.33176,0.0589 -0.15959,0 -0.29844,-0.0256 -0.41703,-0.0765 -0.1186,-0.0508 -0.21755,-0.12427 -0.29662,-0.22014 -0.0776,-0.0973 -0.13616,-0.21618 -0.1757,-0.35709 -0.0381,-0.1409 -0.0574,-0.30201 -0.0574,-0.48214 v -0.1695 c 0,-0.18012 0.0193,-0.34072 0.0574,-0.48162 0.0395,-0.14236 0.0981,-0.26234 0.1757,-0.35967 0.0776,-0.0973 0.17543,-0.17137 0.29403,-0.22221 0.1186,-0.0508 0.25735,-0.0765 0.41548,-0.0765 z m 1.98955,0 c 0.13324,0 0.25269,0.0179 0.35811,0.0543 0.10689,0.0349 0.19766,0.0855 0.27234,0.15091 0.0747,0.0639 0.13151,0.14153 0.17105,0.23306 0.0395,0.0901 0.0594,0.19034 0.0594,0.30074 h -0.62167 c 0,-0.0901 -0.0182,-0.1605 -0.0548,-0.21135 -0.0366,-0.0509 -0.0987,-0.0765 -0.18655,-0.0765 -0.0659,0 -0.12032,0.0203 -0.16278,0.061 -0.0425,0.0407 -0.0636,0.0974 -0.0636,0.17001 0,0.0305 0.006,0.0585 0.0196,0.0832 0.0146,0.0232 0.0375,0.046 0.0682,0.0692 0.0322,0.0232 0.0738,0.0471 0.12505,0.0718 0.0513,0.0247 0.11446,0.0533 0.18914,0.0853 0.11859,0.0436 0.22108,0.0895 0.30747,0.13746 0.0879,0.0479 0.16046,0.10116 0.21756,0.16072 0.0571,0.0581 0.0993,0.12435 0.12713,0.19843 0.0278,0.0741 0.0418,0.15951 0.0418,0.25683 0,0.10459 -0.0205,0.20007 -0.0615,0.28578 -0.041,0.0857 -0.0996,0.15913 -0.1757,0.22014 -0.0747,0.061 -0.16546,0.10879 -0.27234,0.14366 -0.10689,0.0334 -0.22633,0.0506 -0.35811,0.0506 -0.14495,0 -0.27321,-0.022 -0.38448,-0.0656 -0.10982,-0.045 -0.2018,-0.1041 -0.27647,-0.17673 -0.0747,-0.0741 -0.13092,-0.15705 -0.16898,-0.24857 -0.0381,-0.093 -0.0574,-0.18679 -0.0574,-0.28267 h 0.59066 c 0.002,0.0639 0.0103,0.11653 0.0264,0.15865 0.0161,0.0407 0.0377,0.0735 0.0641,0.0982 0.0278,0.0247 0.06,0.042 0.0966,0.0522 0.0381,0.009 0.0791,0.0134 0.12299,0.0134 0.16691,0 0.25012,-0.0752 0.25012,-0.2248 0,-0.0305 -0.008,-0.058 -0.0243,-0.0827 -0.0146,-0.0261 -0.0386,-0.0513 -0.0724,-0.076 -0.0322,-0.0261 -0.0744,-0.0524 -0.12712,-0.0786 -0.0527,-0.0261 -0.11592,-0.0554 -0.18914,-0.0873 -0.10834,-0.0436 -0.20439,-0.0878 -0.28784,-0.1328 -0.0835,-0.0465 -0.15374,-0.0984 -0.21084,-0.15503 -0.0571,-0.0581 -0.0999,-0.12261 -0.12919,-0.19379 -0.0293,-0.0726 -0.0439,-0.15621 -0.0439,-0.25063 0,-0.0988 0.0182,-0.19077 0.0548,-0.27647 0.0381,-0.0872 0.092,-0.16294 0.16227,-0.22686 0.0703,-0.0654 0.15632,-0.11613 0.25735,-0.15244 0.10249,-0.0378 0.2179,-0.0568 0.34675,-0.0568 z m -3.96204,0.0439 h 0.62374 v 2.35749 h -0.62374 z m -8.12405,0.46819 c -0.10835,0 -0.18741,0.0388 -0.23719,0.11575 -0.0483,0.077 -0.0765,0.20056 -0.0853,0.37052 h 0.62115 v -0.0568 c -0.003,-0.14091 -0.0264,-0.24777 -0.0703,-0.3204 -0.0439,-0.0726 -0.12007,-0.10903 -0.22841,-0.10903 z m -5.70559,0.81958 c -0.0586,0 -0.10895,0.009 -0.15141,0.0279 -0.0425,0.0189 -0.0787,0.0451 -0.10801,0.0786 -0.0278,0.0334 -0.0489,0.0728 -0.0636,0.11782 -0.0132,0.045 -0.0196,0.0928 -0.0196,0.14366 0,0.0857 0.0176,0.15134 0.0527,0.19637 0.0366,0.0436 0.0876,0.0651 0.15348,0.0651 0.0688,0 0.12738,-0.0137 0.1757,-0.0413 0.0483,-0.0276 0.0846,-0.0604 0.108,-0.0982 v -0.4899 z m 11.20086,0 c -0.0586,0 -0.10895,0.009 -0.15141,0.0279 -0.0425,0.0189 -0.0787,0.0451 -0.108,0.0786 -0.0278,0.0334 -0.0489,0.0728 -0.0636,0.11782 -0.0132,0.045 -0.0196,0.0928 -0.0196,0.14366 0,0.0857 0.0176,0.15134 0.0527,0.19637 0.0366,0.0436 0.0876,0.0651 0.15348,0.0651 0.0688,0 0.12739,-0.0137 0.1757,-0.0413 0.0483,-0.0276 0.0846,-0.0604 0.108,-0.0982 v -0.4899 z" /></g></svg>
