<?xml version="1.0" encoding="UTF-8" standalone="no"?>
<!-- Created with Inkscape (http://www.inkscape.org/) -->

<svg
   width="81.16507mm"
   height="10.500135mm"
   viewBox="0 0 81.16507 10.500135"
   version="1.1"
   id="svg1"
   xml:space="preserve"
   inkscape:version="1.3.1 (91b66b0783, 2023-11-16)"
   sodipodi:docname="topic_13.svg"
   xmlns:inkscape="http://www.inkscape.org/namespaces/inkscape"
   xmlns:sodipodi="http://sodipodi.sourceforge.net/DTD/sodipodi-0.dtd"
   xmlns="http://www.w3.org/2000/svg"
   xmlns:svg="http://www.w3.org/2000/svg"><sodipodi:namedview
     id="namedview1"
     pagecolor="#ffffff"
     bordercolor="#000000"
     borderopacity="0.25"
     inkscape:showpageshadow="2"
     inkscape:pageopacity="0.0"
     inkscape:pagecheckerboard="0"
     inkscape:deskcolor="#d1d1d1"
     inkscape:document-units="mm"
     inkscape:zoom="2.8284271"
     inkscape:cx="255.97265"
     inkscape:cy="-32.703689"
     inkscape:window-width="2560"
     inkscape:window-height="1346"
     inkscape:window-x="-11"
     inkscape:window-y="-11"
     inkscape:window-maximized="1"
     inkscape:current-layer="layer1"
     showgrid="true"><inkscape:grid
       id="grid668"
       units="mm"
       originx="-341.82233"
       originy="-124.61601"
       spacingx="0.5"
       spacingy="0.5"
       empcolor="#0099e5"
       empopacity="0.30196078"
       color="#0099e5"
       opacity="0.14901961"
       empspacing="5"
       dotted="false"
       gridanglex="30"
       gridanglez="30"
       visible="true" /></sodipodi:namedview><defs
     id="defs1" /><g
     inkscape:label="Layer 1"
     inkscape:groupmode="layer"
     id="layer1"
     transform="translate(-341.82233,-124.61602)"><rect
       style="fill:#f9f9f9;stroke-width:0.499999;stroke-linejoin:round;stroke-miterlimit:3.4;stroke-dashoffset:19.8539"
       id="rect16"
       width="69.90374"
       height="7.1517849"
       x="345.09625"
       y="126.4241"
       inkscape:export-filename="topic_13.svg"
       inkscape:export-xdpi="96"
       inkscape:export-ydpi="96" /><path
       id="path742"
       style="fill:#2c2c6f;fill-opacity:1;stroke-width:0.264583"
       d="m 345.35753,124.61601 c -1.95236,0 -3.53519,1.6108 -3.53519,3.59772 v 3.30471 c 0,1.98664 1.58283,3.59771 3.53519,3.59771 h 72.66481 v -10.50014 z m 73.18261,0 v 10.50014 h 1.96474 v -10.50014 z m 2.48202,0 v 10.50014 h 1.96525 v -10.50014 z m -35.41489,3.25097 h 5.1e-4 c 0.0512,0 0.0993,0.004 0.1447,0.0134 0.0454,0.009 0.091,0.0191 0.13642,0.031 l -0.005,0.5054 c -0.0425,-0.0134 -0.0928,-0.0196 -0.15142,-0.0196 -0.0893,0 -0.15838,0.027 -0.2067,0.0822 -0.0469,0.0551 -0.0703,0.13555 -0.0703,0.24133 v 0.20774 h 0.37155 v 0.47594 h -0.37155 v 1.94252 h -0.62374 v -1.94252 h -0.28732 v -0.47594 h 0.28732 v -0.20774 c 0,-0.13856 0.0176,-0.2606 0.0527,-0.36638 0.0366,-0.10578 0.0887,-0.19462 0.15607,-0.26614 0.0674,-0.073 0.14874,-0.1276 0.24391,-0.16484 0.0966,-0.0373 0.20438,-0.0563 0.32298,-0.0563 z m -15.20218,0.047 h 0.62374 v 3.43287 h -0.62374 z m 7.61866,0 h 0.62632 v 3.43287 h -0.56482 l -0.0284,-0.24598 c -0.06,0.0909 -0.13091,0.16231 -0.2129,0.21446 -0.0805,0.0507 -0.17364,0.0765 -0.27906,0.0765 -0.25184,0 -0.44339,-0.0995 -0.57515,-0.29766 -0.13031,-0.19815 -0.19586,-0.48836 -0.19586,-0.87126 v -0.15917 c 0,-0.39631 0.0661,-0.69159 0.19792,-0.88676 0.13177,-0.19518 0.32333,-0.29301 0.57516,-0.29301 0.0966,0 0.18268,0.0214 0.25735,0.0646 0.0761,0.0417 0.14237,0.10075 0.19947,0.17673 z m -25.50697,0.0538 c 0.0513,0 0.0975,0.008 0.13849,0.0243 0.0425,0.0164 0.0782,0.0394 0.10749,0.0692 0.0293,0.0298 0.0521,0.0658 0.0682,0.10749 0.0161,0.0402 0.0238,0.0847 0.0238,0.13384 0,0.0492 -0.008,0.0947 -0.0238,0.13643 -0.0161,0.0402 -0.0389,0.0762 -0.0682,0.10748 -0.0293,0.0298 -0.065,0.0529 -0.10749,0.0693 -0.041,0.0164 -0.0872,0.0248 -0.13849,0.0248 -0.0513,0 -0.0981,-0.008 -0.14056,-0.0248 -0.041,-0.0164 -0.0761,-0.0395 -0.10542,-0.0693 -0.0293,-0.0313 -0.0521,-0.0673 -0.0682,-0.10748 -0.0161,-0.0417 -0.0243,-0.0873 -0.0243,-0.13643 0,-0.0492 0.008,-0.0936 0.0243,-0.13384 0.0161,-0.0417 0.0389,-0.0777 0.0682,-0.10749 0.0293,-0.0298 0.0644,-0.0529 0.10542,-0.0692 0.0425,-0.0164 0.0893,-0.0243 0.14056,-0.0243 z m 47.19299,0 c 0.0512,0 0.0975,0.008 0.13849,0.0243 0.0425,0.0164 0.0782,0.0394 0.10749,0.0692 0.0293,0.0298 0.0521,0.0658 0.0682,0.10749 0.0161,0.0402 0.0238,0.0847 0.0238,0.13384 0,0.0492 -0.008,0.0947 -0.0238,0.13643 -0.0161,0.0402 -0.0389,0.0762 -0.0682,0.10748 -0.0293,0.0298 -0.065,0.0529 -0.10749,0.0693 -0.041,0.0164 -0.0872,0.0248 -0.13849,0.0248 -0.0513,0 -0.0981,-0.008 -0.14056,-0.0248 -0.041,-0.0164 -0.0761,-0.0395 -0.10542,-0.0693 -0.0293,-0.0313 -0.0521,-0.0673 -0.0682,-0.10748 -0.0161,-0.0417 -0.0243,-0.0873 -0.0243,-0.13643 0,-0.0492 0.008,-0.0936 0.0243,-0.13384 0.0161,-0.0417 0.0389,-0.0777 0.0682,-0.10749 0.0293,-0.0298 0.0644,-0.0529 0.10542,-0.0692 0.0425,-0.0164 0.0893,-0.0243 0.14056,-0.0243 z m 9.14311,0 c 0.0512,0 0.0975,0.008 0.13849,0.0243 0.0425,0.0164 0.0782,0.0394 0.10749,0.0692 0.0293,0.0298 0.0521,0.0658 0.0682,0.10749 0.0161,0.0402 0.0238,0.0847 0.0238,0.13384 0,0.0492 -0.008,0.0947 -0.0238,0.13643 -0.0161,0.0402 -0.0389,0.0762 -0.0682,0.10748 -0.0293,0.0298 -0.065,0.0529 -0.10749,0.0693 -0.041,0.0164 -0.0873,0.0248 -0.13849,0.0248 -0.0513,0 -0.0981,-0.008 -0.14056,-0.0248 -0.041,-0.0164 -0.0761,-0.0395 -0.10542,-0.0693 -0.0293,-0.0313 -0.0521,-0.0673 -0.0682,-0.10748 -0.0161,-0.0417 -0.0243,-0.0873 -0.0243,-0.13643 0,-0.0492 0.008,-0.0936 0.0243,-0.13384 0.0161,-0.0417 0.0389,-0.0777 0.0682,-0.10749 0.0293,-0.0298 0.0644,-0.0529 0.10542,-0.0692 0.0425,-0.0164 0.0893,-0.0243 0.14056,-0.0243 z m -27.67945,0.0806 c 0.15374,0 0.29197,0.0248 0.41496,0.0754 0.12446,0.0492 0.22988,0.11835 0.31626,0.20774 0.0879,0.0879 0.1552,0.19415 0.20206,0.31781 0.0469,0.12217 0.0703,0.25661 0.0703,0.40411 h -0.64338 c 0,-0.0685 -0.008,-0.13097 -0.0222,-0.18759 -0.0132,-0.0581 -0.0349,-0.10704 -0.0656,-0.14727 -0.0293,-0.0417 -0.0674,-0.0738 -0.1142,-0.0961 -0.0469,-0.0238 -0.10309,-0.0357 -0.16898,-0.0357 -0.0615,0 -0.11532,0.01 -0.16072,0.0289 -0.0439,0.0194 -0.0803,0.0458 -0.10955,0.0801 -0.0293,0.0328 -0.0516,0.0722 -0.0661,0.11834 -0.0146,0.0462 -0.0217,0.0956 -0.0217,0.14779 0,0.0536 0.0111,0.102 0.0331,0.14521 0.0234,0.0432 0.0556,0.0837 0.0966,0.12093 0.0425,0.0373 0.0928,0.0721 0.15141,0.1049 0.06,0.0328 0.12565,0.0648 0.1974,0.0961 0.14934,0.0551 0.27991,0.1164 0.39119,0.18345 0.11127,0.067 0.20439,0.14297 0.27906,0.22789 0.0747,0.0849 0.13031,0.18057 0.16691,0.28784 0.0366,0.10578 0.0548,0.2261 0.0548,0.36018 0,0.14303 -0.0234,0.27015 -0.0703,0.38189 -0.0454,0.11174 -0.11153,0.20675 -0.19792,0.28422 -0.0849,0.076 -0.18801,0.13502 -0.30954,0.17674 -0.12152,0.0402 -0.25855,0.0605 -0.41083,0.0605 -0.13763,0 -0.27294,-0.0213 -0.40618,-0.0631 -0.13178,-0.0432 -0.24951,-0.10846 -0.35347,-0.19637 -0.10395,-0.0879 -0.18826,-0.19922 -0.25269,-0.33331 -0.063,-0.13409 -0.0946,-0.29326 -0.0946,-0.47801 h 0.64802 c 0,0.0983 0.009,0.18158 0.0284,0.25012 0.019,0.0685 0.0477,0.12474 0.0858,0.16794 0.0395,0.0417 0.0881,0.0721 0.14521,0.0915 0.0571,0.0179 0.12333,0.0269 0.19947,0.0269 0.0615,0 0.1136,-0.009 0.15606,-0.0269 0.0439,-0.0194 0.0791,-0.0452 0.10542,-0.0765 0.0278,-0.0328 0.0477,-0.0716 0.0594,-0.11627 0.0117,-0.0447 0.0176,-0.0925 0.0176,-0.1447 0,-0.0566 -0.005,-0.10774 -0.0155,-0.15244 -0.0102,-0.0447 -0.0319,-0.0863 -0.0656,-0.12506 -0.0322,-0.0402 -0.0791,-0.079 -0.14056,-0.11627 -0.06,-0.0373 -0.14082,-0.0766 -0.24185,-0.11834 -0.12006,-0.0462 -0.23486,-0.0991 -0.34468,-0.15865 -0.10835,-0.0596 -0.20439,-0.12935 -0.28784,-0.2098 -0.082,-0.0819 -0.14762,-0.17586 -0.1974,-0.28164 -0.0483,-0.10727 -0.0729,-0.23208 -0.0729,-0.37362 0,-0.13558 0.0251,-0.25878 0.0749,-0.37052 0.0498,-0.11323 0.11947,-0.20939 0.20878,-0.28835 0.0908,-0.079 0.1974,-0.14025 0.32039,-0.18345 0.12445,-0.0447 0.26148,-0.0667 0.41083,-0.0667 z m -35.40559,0.0444 h 1.83141 v 0.54777 h -1.18597 v 0.76843 h 1.00614 v 0.52969 h -1.00614 v 0.86299 h 1.19062 v 0.54519 h -1.83606 z m 46.95114,0 h 1.83193 v 0.54777 h -1.18598 v 0.76843 h 1.00563 v 0.52969 h -1.00563 v 0.86299 h 1.19011 v 0.54519 h -1.83606 z m -25.74003,0.24133 h 0.62166 v 0.59428 h 0.31833 v 0.47594 h -0.31833 v 1.20045 c 0,0.0507 0.003,0.0923 0.009,0.12505 0.007,0.0328 0.0184,0.0587 0.0331,0.078 0.0161,0.0179 0.0355,0.0308 0.0589,0.0382 0.0234,0.006 0.0521,0.009 0.0858,0.009 0.0308,0 0.0588,-0.002 0.0837,-0.005 0.0264,-0.003 0.0474,-0.006 0.0636,-0.0109 l -0.005,0.49144 c -0.0469,0.0179 -0.0972,0.0325 -0.15141,0.0429 -0.0542,0.0119 -0.11799,0.0176 -0.1912,0.0176 -0.0922,0 -0.17545,-0.0135 -0.25012,-0.0403 -0.0747,-0.0253 -0.1391,-0.0664 -0.19327,-0.12299 -0.0527,-0.0581 -0.0937,-0.13287 -0.12299,-0.22376 -0.0278,-0.0909 -0.0418,-0.20001 -0.0418,-0.32814 v -1.27176 h -0.27441 v -0.47594 h 0.27441 z m 21.38474,0 h 0.62167 v 0.59428 h 0.31832 v 0.47594 h -0.31832 v 1.20045 c 0,0.0507 0.003,0.0923 0.009,0.12505 0.007,0.0328 0.0184,0.0587 0.0331,0.078 0.0161,0.0179 0.036,0.0308 0.0594,0.0382 0.0234,0.006 0.0521,0.009 0.0858,0.009 0.0307,0 0.0583,-0.002 0.0832,-0.005 0.0263,-0.003 0.0474,-0.006 0.0636,-0.0109 l -0.004,0.49144 c -0.0468,0.0179 -0.0978,0.0325 -0.15193,0.0429 -0.0542,0.0119 -0.11748,0.0176 -0.19069,0.0176 -0.0922,0 -0.17596,-0.0135 -0.25063,-0.0403 -0.0747,-0.0253 -0.1391,-0.0664 -0.19327,-0.12299 -0.0527,-0.0581 -0.0937,-0.13287 -0.12299,-0.22376 -0.0278,-0.0909 -0.0419,-0.20001 -0.0419,-0.32814 v -1.27176 h -0.2744 v -0.47594 h 0.2744 z m -39.28184,0.54984 c 0.0922,0 0.17716,0.0163 0.25476,0.0491 0.0776,0.0313 0.14435,0.0836 0.19999,0.15658 0.0556,0.073 0.0984,0.16807 0.12919,0.28577 0.0308,0.1177 0.0465,0.26275 0.0465,0.43409 v 1.53737 h -0.62373 v -1.53996 c 0,-0.0775 -0.006,-0.14158 -0.0176,-0.19223 -0.0117,-0.0507 -0.0293,-0.0911 -0.0527,-0.12093 -0.022,-0.0298 -0.05,-0.0506 -0.0837,-0.0625 -0.0337,-0.0119 -0.0729,-0.0181 -0.11834,-0.0181 -0.0586,0 -0.11006,0.0162 -0.15399,0.0475 -0.0439,0.0313 -0.0803,0.0741 -0.10956,0.12919 v 1.757 h -0.62373 v -2.41846 h 0.58394 l 0.0176,0.23926 c 0.0688,-0.0924 0.14961,-0.16264 0.24185,-0.21032 0.0922,-0.0492 0.19533,-0.0734 0.30954,-0.0734 z m 5.23792,0 c 0.0278,0 0.0577,0.003 0.0899,0.009 0.0337,0.005 0.0611,0.0112 0.0816,0.0202 l -0.007,0.6258 c -0.0278,-0.003 -0.0624,-0.007 -0.10335,-0.0114 -0.0395,-0.004 -0.0741,-0.007 -0.10335,-0.007 -0.0893,0 -0.16141,0.0197 -0.21704,0.0584 -0.0556,0.0387 -0.0984,0.0955 -0.12765,0.17001 v 1.59784 h -0.62373 v -2.41846 h 0.58653 l 0.0181,0.26149 c 0.0469,-0.0968 0.1037,-0.17219 0.17105,-0.22583 0.0688,-0.0536 0.14728,-0.0801 0.23513,-0.0801 z m 1.2914,0 c 0.14787,0 0.28137,0.0259 0.39997,0.078 0.1186,0.0507 0.21936,0.126 0.30282,0.22583 0.0835,0.0998 0.14788,0.22244 0.19327,0.36845 0.0454,0.14601 0.0682,0.31411 0.0682,0.50333 v 0.15813 c 0,0.1907 -0.0228,0.35939 -0.0682,0.50539 -0.0439,0.14452 -0.10774,0.26657 -0.1912,0.36639 -0.0835,0.0998 -0.18422,0.17517 -0.30282,0.22583 -0.1186,0.0507 -0.25098,0.0765 -0.39739,0.0765 -0.14788,0 -0.28138,-0.0258 -0.39998,-0.0765 -0.1186,-0.0507 -0.21936,-0.12601 -0.30282,-0.22583 -0.0835,-0.0998 -0.14788,-0.22187 -0.19327,-0.36639 -0.0454,-0.146 -0.0682,-0.31469 -0.0682,-0.50539 v -0.15813 c 0,-0.18922 0.0228,-0.35732 0.0682,-0.50333 0.0454,-0.14601 0.10981,-0.26863 0.19327,-0.36845 0.0835,-0.0998 0.18362,-0.17517 0.30075,-0.22583 0.1186,-0.0521 0.25098,-0.078 0.3974,-0.078 z m 2.48822,0 c 0.0922,0 0.17716,0.0163 0.25476,0.0491 0.0776,0.0313 0.14435,0.0836 0.19999,0.15658 0.0556,0.073 0.099,0.16807 0.12971,0.28577 0.0308,0.1177 0.046,0.26275 0.046,0.43409 v 1.53737 h -0.62374 v -1.53996 c 0,-0.0775 -0.006,-0.14158 -0.0176,-0.19223 -0.0117,-0.0507 -0.0293,-0.0911 -0.0527,-0.12093 -0.022,-0.0298 -0.0495,-0.0506 -0.0832,-0.0625 -0.0337,-0.0119 -0.0735,-0.0181 -0.11885,-0.0181 -0.0586,0 -0.10956,0.0162 -0.15348,0.0475 -0.0439,0.0313 -0.0808,0.0741 -0.11007,0.12919 v 1.757 h -0.62374 v -2.41846 h 0.58446 l 0.0176,0.23926 c 0.0688,-0.0924 0.14909,-0.16264 0.24133,-0.21032 0.0922,-0.0492 0.19534,-0.0734 0.30955,-0.0734 z m 2.2288,0 h 5.2e-4 c 0.10981,0 0.20817,0.0259 0.29455,0.078 0.0879,0.0522 0.15701,0.13534 0.20826,0.24857 0.0644,-0.10281 0.1446,-0.18265 0.23978,-0.23927 0.0966,-0.0581 0.21084,-0.0873 0.34261,-0.0873 0.0966,0 0.18337,0.0163 0.26097,0.0491 0.0791,0.0328 0.14642,0.0856 0.20205,0.15865 0.0556,0.073 0.099,0.16807 0.12971,0.28577 0.0308,0.1177 0.046,0.26217 0.046,0.43202 v 1.53737 h -0.62115 v -1.53996 c 0,-0.0805 -0.006,-0.14623 -0.0176,-0.19689 -0.0103,-0.0507 -0.0266,-0.09 -0.0486,-0.11833 -0.022,-0.0298 -0.0483,-0.05 -0.0791,-0.0605 -0.0307,-0.0119 -0.0659,-0.0181 -0.10542,-0.0181 -0.0615,0 -0.1136,0.0196 -0.15606,0.0584 -0.0425,0.0387 -0.0765,0.0921 -0.10284,0.15917 10e-4,0.0164 0.002,0.0327 0.002,0.0506 10e-4,0.0179 0.002,0.0359 0.002,0.0537 v 1.61179 h -0.62167 v -1.53531 c 0,-0.0804 -0.006,-0.14623 -0.0176,-0.19688 -0.0103,-0.0522 -0.0266,-0.0932 -0.0486,-0.12299 -0.0205,-0.0298 -0.0469,-0.05 -0.0791,-0.0605 -0.0308,-0.0119 -0.0659,-0.0181 -0.10542,-0.0181 -0.0571,0 -0.10689,0.0162 -0.14935,0.0475 -0.041,0.0313 -0.0761,0.0741 -0.10542,0.12919 v 1.757 h -0.62166 v -2.41846 h 0.58187 l 0.0176,0.22376 c 0.0659,-0.0849 0.14435,-0.1507 0.23513,-0.19689 0.0922,-0.0477 0.19767,-0.0713 0.31626,-0.0713 z m 3.07992,0 c 0.3016,0 0.5277,0.099 0.67851,0.29714 0.15081,0.19815 0.22634,0.49171 0.22634,0.88057 v 0.28835 h -1.23662 c 0.004,0.0968 0.0167,0.17784 0.0372,0.2434 0.022,0.0656 0.0512,0.11841 0.0879,0.15864 0.0366,0.0402 0.0805,0.0695 0.13177,0.0873 0.0527,0.0179 0.11188,0.0269 0.17777,0.0269 0.10981,0 0.20757,-0.0186 0.29249,-0.0558 0.0864,-0.0387 0.16253,-0.0922 0.22841,-0.16072 l 0.2434,0.38189 c -0.0308,0.0432 -0.0706,0.0865 -0.12041,0.12971 -0.0498,0.0417 -0.10834,0.0799 -0.1757,0.11421 -0.0674,0.0343 -0.14348,0.0613 -0.22841,0.0822 -0.0849,0.0223 -0.17802,0.0341 -0.27905,0.0341 -0.16252,0 -0.30661,-0.0258 -0.43253,-0.0765 -0.12592,-0.0507 -0.23247,-0.12324 -0.31885,-0.21859 -0.0864,-0.0953 -0.15201,-0.21175 -0.1974,-0.34882 -0.0439,-0.13856 -0.0662,-0.296 -0.0662,-0.47181 v -0.19843 c 0,-0.19667 0.0216,-0.36927 0.0641,-0.51677 0.0439,-0.14899 0.10603,-0.27328 0.18655,-0.3731 0.082,-0.10131 0.18156,-0.17724 0.29869,-0.2279 0.1186,-0.0506 0.2527,-0.076 0.40205,-0.076 z m 2.39365,0 c 0.0922,0 0.17716,0.0163 0.25476,0.0491 0.0776,0.0313 0.14435,0.0836 0.19999,0.15658 0.0556,0.073 0.099,0.16807 0.12971,0.28577 0.0308,0.1177 0.046,0.26275 0.046,0.43409 v 1.53737 h -0.62373 v -1.53996 c 0,-0.0775 -0.006,-0.14158 -0.0176,-0.19223 -0.0117,-0.0507 -0.0293,-0.0911 -0.0527,-0.12093 -0.022,-0.0298 -0.05,-0.0506 -0.0837,-0.0625 -0.0337,-0.0119 -0.0729,-0.0181 -0.11834,-0.0181 -0.0586,0 -0.11008,0.0162 -0.154,0.0475 -0.0439,0.0313 -0.0803,0.0741 -0.10955,0.12919 v 1.757 h -0.62373 v -2.41846 h 0.58394 l 0.0176,0.23926 c 0.0688,-0.0924 0.14961,-0.16264 0.24185,-0.21032 0.0922,-0.0492 0.19534,-0.0734 0.30954,-0.0734 z m 3.30522,0 c 0.1186,0 0.22807,0.0152 0.32763,0.0465 0.0996,0.0298 0.18569,0.0776 0.2589,0.14314 0.0732,0.0641 0.13057,0.14674 0.17157,0.24805 0.041,0.0998 0.0615,0.22123 0.0615,0.36277 v 1.07228 c 0,0.07 10e-4,0.13298 0.004,0.18811 0.004,0.0536 0.0103,0.10257 0.0176,0.14727 0.007,0.0432 0.0161,0.0821 0.0264,0.11783 0.0117,0.0343 0.0251,0.0674 0.0398,0.0987 v 0.0382 h -0.62632 c -0.0117,-0.0253 -0.0217,-0.054 -0.0305,-0.0853 -0.007,-0.0328 -0.0149,-0.0666 -0.0222,-0.10232 -0.0469,0.0656 -0.10723,0.12016 -0.1819,0.16485 -0.0732,0.0447 -0.16339,0.0677 -0.27027,0.0677 -0.0966,0 -0.1874,-0.0174 -0.27233,-0.0517 -0.0835,-0.0343 -0.15667,-0.0826 -0.21963,-0.14521 -0.0615,-0.0626 -0.11066,-0.13844 -0.14727,-0.22634 -0.0351,-0.0894 -0.0527,-0.18896 -0.0527,-0.29921 0,-0.12217 0.0193,-0.23239 0.0574,-0.33073 0.0395,-0.0998 0.0981,-0.18364 0.1757,-0.25218 0.0791,-0.07 0.17691,-0.12346 0.29404,-0.16071 0.1186,-0.0373 0.25794,-0.0563 0.41754,-0.0563 h 0.16898 v -0.1943 c 0,-0.10876 -0.0182,-0.18527 -0.0548,-0.22996 -0.0366,-0.0447 -0.0904,-0.0677 -0.16072,-0.0677 -0.0805,0 -0.13969,0.0252 -0.17776,0.0744 -0.0366,0.0477 -0.0548,0.11519 -0.0548,0.20309 h -0.62167 c 0,-0.10578 0.0199,-0.20476 0.0594,-0.29714 0.041,-0.0939 0.0996,-0.17595 0.1757,-0.24598 0.0761,-0.07 0.16752,-0.12513 0.2744,-0.16536 0.10689,-0.0417 0.22754,-0.0625 0.36225,-0.0625 z m 4.28708,0 c 0.1186,0 0.22807,0.0152 0.32763,0.0465 0.0996,0.0298 0.18569,0.0776 0.2589,0.14314 0.0732,0.0641 0.13057,0.14674 0.17156,0.24805 0.041,0.0998 0.0615,0.22123 0.0615,0.36277 v 1.07228 c 0,0.07 0.001,0.13298 0.004,0.18811 0.004,0.0536 0.0103,0.10257 0.0176,0.14727 0.007,0.0432 0.0161,0.0821 0.0264,0.11783 0.0117,0.0343 0.0251,0.0674 0.0398,0.0987 v 0.0382 h -0.62632 c -0.0117,-0.0253 -0.0217,-0.054 -0.0305,-0.0853 -0.007,-0.0328 -0.0149,-0.0666 -0.0222,-0.10232 -0.0469,0.0656 -0.10722,0.12016 -0.1819,0.16485 -0.0732,0.0447 -0.16339,0.0677 -0.27027,0.0677 -0.0966,0 -0.18741,-0.0174 -0.27233,-0.0517 -0.0835,-0.0343 -0.15667,-0.0826 -0.21963,-0.14521 -0.0615,-0.0626 -0.11068,-0.13844 -0.14728,-0.22634 -0.0351,-0.0894 -0.0527,-0.18896 -0.0527,-0.29921 0,-0.12217 0.0193,-0.23239 0.0574,-0.33073 0.0395,-0.0998 0.0981,-0.18364 0.1757,-0.25218 0.0791,-0.07 0.1769,-0.12346 0.29404,-0.16071 0.11859,-0.0373 0.25796,-0.0563 0.41755,-0.0563 h 0.16898 v -0.1943 c 0,-0.10876 -0.0182,-0.18527 -0.0548,-0.22996 -0.0366,-0.0447 -0.0904,-0.0677 -0.16071,-0.0677 -0.0805,0 -0.1397,0.0252 -0.17777,0.0744 -0.0366,0.0477 -0.0548,0.11519 -0.0548,0.20309 h -0.62166 c 0,-0.10578 0.0199,-0.20476 0.0594,-0.29714 0.041,-0.0939 0.0996,-0.17595 0.1757,-0.24598 0.0761,-0.07 0.16751,-0.12513 0.2744,-0.16536 0.10688,-0.0417 0.22755,-0.0625 0.36225,-0.0625 z m 2.40709,0 c 0.0922,0 0.17716,0.0163 0.25476,0.0491 0.0776,0.0313 0.14435,0.0836 0.19999,0.15658 0.0556,0.073 0.099,0.16807 0.12971,0.28577 0.0308,0.1177 0.046,0.26275 0.046,0.43409 v 1.53737 h -0.62373 v -1.53996 c 0,-0.0775 -0.006,-0.14158 -0.0176,-0.19223 -0.0117,-0.0507 -0.0293,-0.0911 -0.0527,-0.12093 -0.022,-0.0298 -0.0495,-0.0506 -0.0832,-0.0625 -0.0337,-0.0119 -0.0735,-0.0181 -0.11886,-0.0181 -0.0586,0 -0.10956,0.0162 -0.15348,0.0475 -0.0439,0.0313 -0.0808,0.0741 -0.11007,0.12919 v 1.757 h -0.62373 v -2.41846 h 0.58446 l 0.0176,0.23926 c 0.0688,-0.0924 0.14909,-0.16264 0.24133,-0.21032 0.0922,-0.0492 0.19533,-0.0734 0.30954,-0.0734 z m 7.61917,0 c 0.1186,0 0.22755,0.0152 0.32711,0.0465 0.0996,0.0298 0.18569,0.0776 0.2589,0.14314 0.0732,0.0641 0.13057,0.14674 0.17157,0.24805 0.041,0.0998 0.0615,0.22123 0.0615,0.36277 v 1.07228 c 0,0.07 0.001,0.13298 0.004,0.18811 0.004,0.0536 0.0103,0.10257 0.0176,0.14727 0.007,0.0432 0.016,0.0821 0.0263,0.11783 0.0117,0.0343 0.0251,0.0674 0.0398,0.0987 v 0.0382 h -0.6258 c -0.0117,-0.0253 -0.0222,-0.054 -0.031,-0.0853 -0.007,-0.0328 -0.0144,-0.0666 -0.0217,-0.10232 -0.0469,0.0656 -0.10775,0.12016 -0.18242,0.16485 -0.0732,0.0447 -0.16338,0.0677 -0.27027,0.0677 -0.0966,0 -0.18741,-0.0174 -0.27233,-0.0517 -0.0835,-0.0343 -0.15667,-0.0826 -0.21963,-0.14521 -0.0615,-0.0626 -0.11066,-0.13844 -0.14727,-0.22634 -0.0351,-0.0894 -0.0527,-0.18896 -0.0527,-0.29921 0,-0.12217 0.0193,-0.23239 0.0574,-0.33073 0.0395,-0.0998 0.0981,-0.18364 0.1757,-0.25218 0.0791,-0.07 0.17691,-0.12346 0.29404,-0.16071 0.1186,-0.0373 0.25794,-0.0563 0.41754,-0.0563 h 0.16898 v -0.1943 c 0,-0.10876 -0.0182,-0.18527 -0.0548,-0.22996 -0.0366,-0.0447 -0.0899,-0.0677 -0.1602,-0.0677 -0.0805,0 -0.14021,0.0252 -0.17828,0.0744 -0.0366,0.0477 -0.0548,0.11519 -0.0548,0.20309 h -0.62167 c 0,-0.10578 0.0199,-0.20476 0.0594,-0.29714 0.041,-0.0939 0.0996,-0.17595 0.1757,-0.24598 0.0761,-0.07 0.16752,-0.12513 0.2744,-0.16536 0.10689,-0.0417 0.22807,-0.0625 0.36277,-0.0625 z m 3.58634,0 c 0.30161,0 0.52771,0.099 0.67852,0.29714 0.15081,0.19815 0.22634,0.49171 0.22634,0.88057 v 0.28835 h -1.23662 c 0.004,0.0968 0.0167,0.17784 0.0372,0.2434 0.022,0.0656 0.0512,0.11841 0.0879,0.15864 0.0366,0.0402 0.0805,0.0695 0.13177,0.0873 0.0527,0.0179 0.11241,0.0269 0.17829,0.0269 0.10981,0 0.20705,-0.0186 0.29197,-0.0558 0.0864,-0.0387 0.16253,-0.0922 0.22841,-0.16072 l 0.24391,0.38189 c -0.0307,0.0432 -0.0711,0.0865 -0.12092,0.12971 -0.0498,0.0417 -0.10834,0.0799 -0.1757,0.11421 -0.0674,0.0343 -0.14348,0.0613 -0.22841,0.0822 -0.0849,0.0223 -0.17802,0.0341 -0.27905,0.0341 -0.16252,0 -0.30662,-0.0258 -0.43254,-0.0765 -0.12591,-0.0507 -0.23193,-0.12324 -0.31832,-0.21859 -0.0864,-0.0953 -0.15253,-0.21175 -0.19792,-0.34882 -0.0439,-0.13856 -0.0656,-0.296 -0.0656,-0.47181 v -0.19843 c 0,-0.19667 0.0211,-0.36927 0.0636,-0.51677 0.0439,-0.14899 0.10603,-0.27328 0.18655,-0.3731 0.082,-0.10131 0.18156,-0.17724 0.29869,-0.2279 0.1186,-0.0506 0.25269,-0.076 0.40204,-0.076 z m 9.02684,0 c 0.0922,0 0.17717,0.0163 0.25477,0.0491 0.0776,0.0313 0.14383,0.0836 0.19947,0.15658 0.0556,0.073 0.099,0.16807 0.12971,0.28577 0.0307,0.1177 0.046,0.26275 0.046,0.43409 v 1.53737 h -0.62373 v -1.53996 c 0,-0.0775 -0.006,-0.14158 -0.0176,-0.19223 -0.0117,-0.0507 -0.0293,-0.0911 -0.0527,-0.12093 -0.022,-0.0298 -0.0495,-0.0506 -0.0832,-0.0625 -0.0337,-0.0119 -0.0735,-0.0181 -0.11886,-0.0181 -0.0586,0 -0.10956,0.0162 -0.15348,0.0475 -0.0439,0.0313 -0.0808,0.0741 -0.11007,0.12919 v 1.757 h -0.62373 v -2.41846 h 0.58446 l 0.0176,0.23926 c 0.0688,-0.0924 0.14909,-0.16264 0.24133,-0.21032 0.0922,-0.0492 0.19585,-0.0734 0.31005,-0.0734 z m 1.80299,0 c 0.11567,0 0.21352,0.0231 0.29404,0.0692 0.0805,0.0447 0.149,0.10771 0.20464,0.18965 l 0.0238,-0.21446 h 0.56018 v 2.41846 c 0,0.16538 -0.024,0.30714 -0.0724,0.42633 -0.0469,0.12068 -0.11361,0.22018 -0.19999,0.29766 -0.0864,0.0775 -0.19059,0.13483 -0.31212,0.17208 -0.12006,0.0373 -0.25365,0.0558 -0.40153,0.0558 -0.0556,0 -0.11714,-0.006 -0.18449,-0.0181 -0.0674,-0.0119 -0.1347,-0.0299 -0.20205,-0.0537 -0.0674,-0.0223 -0.13178,-0.0511 -0.19327,-0.0868 -0.06,-0.0343 -0.11094,-0.0753 -0.15193,-0.12299 l 0.20877,-0.4377 c 0.0278,0.0298 0.0606,0.0574 0.0987,0.0827 0.0395,0.0268 0.0805,0.0488 0.12299,0.0667 0.0439,0.0194 0.0896,0.034 0.13642,0.0444 0.0469,0.0119 0.092,0.0181 0.13591,0.0181 0.063,0 0.1186,-0.007 0.16692,-0.0222 0.0498,-0.0134 0.0919,-0.0371 0.12557,-0.0713 0.0337,-0.0343 0.0583,-0.0798 0.0744,-0.13642 0.0176,-0.0566 0.0264,-0.12747 0.0264,-0.21239 v -0.19431 c -0.0571,0.076 -0.12385,0.13502 -0.19999,0.17674 -0.0747,0.0402 -0.16252,0.0605 -0.26355,0.0605 -0.12592,0 -0.2384,-0.0258 -0.33796,-0.0765 -0.0981,-0.0507 -0.18182,-0.12491 -0.25063,-0.22325 -0.0674,-0.0983 -0.11895,-0.22031 -0.15555,-0.36483 -0.0366,-0.14601 -0.0553,-0.31366 -0.0553,-0.50436 v -0.15917 c 0,-0.39631 0.0703,-0.69159 0.21084,-0.88676 0.14056,-0.19518 0.33787,-0.29301 0.59117,-0.29301 z m 3.80597,0 c 0.0922,0 0.17717,0.0163 0.25477,0.0491 0.0776,0.0313 0.14435,0.0836 0.19999,0.15658 0.0556,0.073 0.099,0.16807 0.1297,0.28577 0.0308,0.1177 0.046,0.26275 0.046,0.43409 v 1.53737 h -0.62374 v -1.53996 c 0,-0.0775 -0.006,-0.14158 -0.0176,-0.19223 -0.0117,-0.0507 -0.0293,-0.0911 -0.0527,-0.12093 -0.022,-0.0298 -0.05,-0.0506 -0.0837,-0.0625 -0.0337,-0.0119 -0.0729,-0.0181 -0.11834,-0.0181 -0.0586,0 -0.11008,0.0162 -0.154,0.0475 -0.0439,0.0313 -0.0803,0.0741 -0.10955,0.12919 v 1.757 h -0.62374 v -2.41846 h 0.58395 l 0.0176,0.23926 c 0.0688,-0.0924 0.1496,-0.16264 0.24184,-0.21032 0.0922,-0.0492 0.19533,-0.0734 0.30954,-0.0734 z m 1.97198,0 c 0.30162,0 0.52822,0.099 0.67902,0.29714 0.15081,0.19815 0.22583,0.49171 0.22583,0.88057 v 0.28835 h -1.2361 c 0.004,0.0968 0.0167,0.17784 0.0372,0.2434 0.022,0.0656 0.0512,0.11841 0.0879,0.15864 0.0366,0.0402 0.0805,0.0695 0.13177,0.0873 0.0527,0.0179 0.11188,0.0269 0.17777,0.0269 0.10982,0 0.20757,-0.0186 0.29249,-0.0558 0.0864,-0.0387 0.16252,-0.0922 0.22841,-0.16072 l 0.24339,0.38189 c -0.0308,0.0432 -0.0706,0.0865 -0.1204,0.12971 -0.0498,0.0417 -0.10834,0.0799 -0.1757,0.11421 -0.0673,0.0343 -0.14349,0.0613 -0.22841,0.0822 -0.0849,0.0223 -0.17802,0.0341 -0.27905,0.0341 -0.16252,0 -0.30713,-0.0258 -0.43305,-0.0765 -0.12592,-0.0507 -0.23194,-0.12324 -0.31833,-0.21859 -0.0864,-0.0953 -0.15201,-0.21175 -0.1974,-0.34882 -0.0439,-0.13856 -0.0661,-0.296 -0.0661,-0.47181 v -0.19843 c 0,-0.19667 0.0211,-0.36927 0.0636,-0.51677 0.0439,-0.14899 0.10654,-0.27328 0.18707,-0.3731 0.082,-0.10131 0.18156,-0.17724 0.29869,-0.2279 0.1186,-0.0506 0.25219,-0.076 0.40153,-0.076 z m 2.15284,0 c 0.30162,0 0.5277,0.099 0.67851,0.29714 0.15081,0.19815 0.22634,0.49171 0.22634,0.88057 v 0.28835 h -1.23662 c 0.004,0.0968 0.0167,0.17784 0.0372,0.2434 0.022,0.0656 0.0512,0.11841 0.0879,0.15864 0.0366,0.0402 0.0805,0.0695 0.13178,0.0873 0.0527,0.0179 0.11187,0.0269 0.17776,0.0269 0.10981,0 0.20756,-0.0186 0.29249,-0.0558 0.0864,-0.0387 0.16252,-0.0922 0.22841,-0.16072 l 0.2434,0.38189 c -0.0307,0.0432 -0.0706,0.0865 -0.12041,0.12971 -0.0498,0.0417 -0.10835,0.0799 -0.1757,0.11421 -0.0674,0.0343 -0.14349,0.0613 -0.22841,0.0822 -0.0849,0.0223 -0.17802,0.0341 -0.27905,0.0341 -0.16252,0 -0.30661,-0.0258 -0.43253,-0.0765 -0.12592,-0.0507 -0.23247,-0.12324 -0.31885,-0.21859 -0.0864,-0.0953 -0.15201,-0.21175 -0.1974,-0.34882 -0.0439,-0.13856 -0.0661,-0.296 -0.0661,-0.47181 v -0.19843 c 0,-0.19667 0.0216,-0.36927 0.0641,-0.51677 0.0439,-0.14899 0.10602,-0.27328 0.18655,-0.3731 0.082,-0.10131 0.18155,-0.17724 0.29869,-0.2279 0.11859,-0.0506 0.2527,-0.076 0.40205,-0.076 z m 2.26394,0 c 0.0278,0 0.0582,0.003 0.0904,0.009 0.0337,0.005 0.0606,0.0112 0.0811,0.0202 l -0.007,0.6258 c -0.0278,-0.003 -0.0624,-0.007 -0.10335,-0.0114 -0.0395,-0.004 -0.0736,-0.007 -0.10284,-0.007 -0.0893,0 -0.16192,0.0197 -0.21755,0.0584 -0.0556,0.0387 -0.0984,0.0955 -0.12765,0.17001 v 1.59784 h -0.62373 v -2.41846 h 0.58653 l 0.0181,0.26149 c 0.0469,-0.0968 0.10422,-0.17219 0.17157,-0.22583 0.0688,-0.0536 0.14676,-0.0801 0.23461,-0.0801 z m 2.75436,0 c 0.0922,0 0.17716,0.0163 0.25476,0.0491 0.0776,0.0313 0.14435,0.0836 0.19999,0.15658 0.0556,0.073 0.0984,0.16807 0.12919,0.28577 0.0307,0.1177 0.0465,0.26275 0.0465,0.43409 v 1.53737 h -0.62374 v -1.53996 c 0,-0.0775 -0.006,-0.14158 -0.0176,-0.19223 -0.0117,-0.0507 -0.0293,-0.0911 -0.0527,-0.12093 -0.022,-0.0298 -0.05,-0.0506 -0.0837,-0.0625 -0.0337,-0.0119 -0.0729,-0.0181 -0.11834,-0.0181 -0.0586,0 -0.11007,0.0162 -0.154,0.0475 -0.0439,0.0313 -0.0803,0.0741 -0.10955,0.12919 v 1.757 h -0.62374 v -2.41846 h 0.58395 l 0.0176,0.23926 c 0.0688,-0.0924 0.1496,-0.16264 0.24184,-0.21032 0.0922,-0.0492 0.19534,-0.0734 0.30955,-0.0734 z m 1.80299,0 c 0.11567,0 0.21402,0.0231 0.29455,0.0692 0.0805,0.0447 0.14849,0.10771 0.20412,0.18965 l 0.0243,-0.21446 h 0.55966 v 2.41846 c 0,0.16538 -0.024,0.30714 -0.0724,0.42633 -0.0469,0.12068 -0.1136,0.22018 -0.19999,0.29766 -0.0864,0.0775 -0.19008,0.13483 -0.31161,0.17208 -0.12006,0.0373 -0.25416,0.0558 -0.40204,0.0558 -0.0556,0 -0.11713,-0.006 -0.18448,-0.0181 -0.0673,-0.0119 -0.13471,-0.0299 -0.20206,-0.0537 -0.0674,-0.0223 -0.13177,-0.0511 -0.19327,-0.0868 -0.06,-0.0343 -0.11042,-0.0753 -0.15141,-0.12299 l 0.20877,-0.4377 c 0.0278,0.0298 0.0606,0.0574 0.0987,0.0827 0.0395,0.0268 0.0805,0.0488 0.12299,0.0667 0.0439,0.0194 0.0891,0.034 0.13591,0.0444 0.0469,0.0119 0.0925,0.0181 0.13643,0.0181 0.063,0 0.1186,-0.007 0.16691,-0.0222 0.0498,-0.0134 0.0914,-0.0371 0.12506,-0.0713 0.0337,-0.0343 0.0588,-0.0798 0.0749,-0.13642 0.0176,-0.0566 0.0258,-0.12747 0.0258,-0.21239 v -0.19431 c -0.0571,0.076 -0.12333,0.13502 -0.19947,0.17674 -0.0747,0.0402 -0.16252,0.0605 -0.26355,0.0605 -0.12592,0 -0.23892,-0.0258 -0.33848,-0.0765 -0.0981,-0.0507 -0.1813,-0.12491 -0.25012,-0.22325 -0.0674,-0.0983 -0.11945,-0.22031 -0.15606,-0.36483 -0.0366,-0.14601 -0.0548,-0.31366 -0.0548,-0.50436 v -0.15917 c 0,-0.39631 0.0703,-0.69159 0.21084,-0.88676 0.14056,-0.19518 0.33737,-0.29301 0.59067,-0.29301 z m -62.60187,0.0444 h 0.65009 l 0.30076,1.52446 0.30076,-1.52446 h 0.64802 l -0.65216,2.41846 h -0.59324 z m 2.22054,0 h 0.62373 v 2.41846 h -0.62373 z m 37.24579,0 h 0.66766 l 0.28577,1.36581 0.31626,-1.36581 h 0.66301 l -0.78187,2.78019 c -0.0176,0.0611 -0.0416,0.12745 -0.0724,0.19896 -0.0293,0.0715 -0.0697,0.13787 -0.12092,0.19895 -0.0513,0.0626 -0.11454,0.11429 -0.19068,0.15452 -0.0761,0.0417 -0.16864,0.0625 -0.27699,0.0625 -0.0278,0 -0.0524,-0.002 -0.0744,-0.005 -0.0205,-0.001 -0.0404,-0.003 -0.0594,-0.006 -0.0176,-0.003 -0.0357,-0.007 -0.0548,-0.0134 -0.019,-0.004 -0.0412,-0.0106 -0.0661,-0.0181 v -0.49351 c 0.0117,10e-4 0.0234,0.002 0.0351,0.002 h 0.0372 c 0.0498,0 0.0931,-0.006 0.12971,-0.016 0.0366,-0.009 0.0676,-0.0236 0.0925,-0.0444 0.0263,-0.0209 0.0475,-0.0479 0.0636,-0.0806 0.0176,-0.0313 0.0322,-0.069 0.0439,-0.11369 l 0.0481,-0.16329 z m 9.94719,0 h 0.62374 v 2.41846 h -0.62374 z m 9.14311,0 h 0.62374 v 2.41846 h -0.62374 z m -52.93216,0.48059 c -0.10542,0 -0.18802,0.054 -0.24805,0.16123 -0.0586,0.10579 -0.0879,0.26888 -0.0879,0.48938 v 0.15813 c 0,0.22497 0.0299,0.39025 0.0899,0.49454 0.06,0.1028 0.14375,0.154 0.25063,0.154 0.11274,0 0.19765,-0.0512 0.25476,-0.154 0.0571,-0.10429 0.0853,-0.26957 0.0853,-0.49454 v -0.15813 c 0,-0.2205 -0.0299,-0.38359 -0.0899,-0.48938 -0.06,-0.10727 -0.14496,-0.16123 -0.25476,-0.16123 z m 7.79228,0 c -0.10835,0 -0.18741,0.0394 -0.23719,0.11834 -0.0483,0.079 -0.077,0.20602 -0.0858,0.38034 h 0.62166 v -0.0584 c -0.003,-0.14452 -0.0264,-0.25417 -0.0703,-0.32867 -0.0439,-0.0745 -0.12006,-0.11162 -0.22841,-0.11162 z m 23.59856,0 c -0.10835,0 -0.18741,0.0394 -0.23719,0.11834 -0.0483,0.079 -0.0765,0.20602 -0.0853,0.38034 h 0.62115 v -0.0584 c -0.003,-0.14452 -0.0264,-0.25417 -0.0703,-0.32867 -0.0439,-0.0745 -0.12006,-0.11162 -0.22841,-0.11162 z m 16.60829,0 c -0.10834,0 -0.18741,0.0394 -0.23719,0.11834 -0.0483,0.079 -0.077,0.20602 -0.0858,0.38034 h 0.62167 v -0.0584 c -0.003,-0.14452 -0.0264,-0.25417 -0.0703,-0.32867 -0.0439,-0.0745 -0.12007,-0.11162 -0.22841,-0.11162 z m 2.15233,0 c -0.10835,0 -0.18742,0.0394 -0.2372,0.11834 -0.0483,0.079 -0.077,0.20602 -0.0858,0.38034 h 0.62167 v -0.0584 c -0.003,-0.14452 -0.0264,-0.25417 -0.0703,-0.32867 -0.0439,-0.0745 -0.12006,-0.11162 -0.22841,-0.11162 z m -28.01535,0.004 c -0.0615,0 -0.1136,0.0134 -0.15606,0.0387 -0.041,0.0253 -0.0744,0.0641 -0.10077,0.11628 -0.0264,0.0522 -0.0456,0.11914 -0.0574,0.20257 -0.0103,0.0819 -0.0155,0.17977 -0.0155,0.293 v 0.15917 c 0,0.11174 0.005,0.20738 0.0155,0.28783 0.0102,0.0804 0.0278,0.14791 0.0527,0.20154 0.0264,0.0522 0.0603,0.0909 0.10128,0.11627 0.0425,0.0238 0.0952,0.0357 0.15813,0.0357 0.0659,0 0.12153,-0.0152 0.16692,-0.045 0.0454,-0.0298 0.0823,-0.0708 0.11162,-0.12299 v -1.10432 c -0.0293,-0.0566 -0.0674,-0.1 -0.1142,-0.13126 -0.0454,-0.0313 -0.0993,-0.0475 -0.16227,-0.0475 z m 20.27112,0 c -0.12299,0 -0.21438,0.0522 -0.27441,0.15503 -0.0586,0.1028 -0.0879,0.26762 -0.0879,0.49557 v 0.15917 c 0,0.22348 0.0287,0.38657 0.0858,0.48937 0.0571,0.10131 0.14787,0.15193 0.27233,0.15193 0.0674,0 0.12359,-0.0118 0.16898,-0.0357 0.0469,-0.0253 0.0849,-0.0607 0.11421,-0.10542 v -1.15496 c -0.0308,-0.0492 -0.0694,-0.0874 -0.11627,-0.11421 -0.0454,-0.0268 -0.0998,-0.0408 -0.16278,-0.0408 z m 14.75258,0 c -0.12298,0 -0.21437,0.0522 -0.2744,0.15503 -0.0586,0.1028 -0.0879,0.26762 -0.0879,0.49557 v 0.15917 c 0,0.22348 0.0282,0.38657 0.0853,0.48937 0.0571,0.10131 0.14787,0.15193 0.27233,0.15193 0.0674,0 0.12411,-0.0118 0.1695,-0.0357 0.0469,-0.0253 0.0849,-0.0607 0.11421,-0.10542 v -1.15496 c -0.0308,-0.0492 -0.0699,-0.0874 -0.11679,-0.11421 -0.0454,-0.0268 -0.0993,-0.0408 -0.16227,-0.0408 z m -43.61335,0.83612 c -0.0586,0 -0.10895,0.01 -0.15142,0.0289 -0.0425,0.0194 -0.0782,0.0463 -0.10748,0.0806 -0.0278,0.0343 -0.0494,0.0747 -0.0641,0.12092 -0.0132,0.0462 -0.0196,0.0951 -0.0196,0.14728 0,0.0879 0.0176,0.15535 0.0527,0.20153 0.0366,0.0447 0.0881,0.0667 0.154,0.0667 0.0688,0 0.12739,-0.0141 0.1757,-0.0424 0.0483,-0.0283 0.0841,-0.062 0.10748,-0.10077 v -0.50281 z m 4.28707,0 c -0.0586,0 -0.10895,0.01 -0.15141,0.0289 -0.0425,0.0194 -0.0782,0.0463 -0.10749,0.0806 -0.0278,0.0343 -0.0494,0.0747 -0.0641,0.12092 -0.0132,0.0462 -0.0196,0.0951 -0.0196,0.14728 0,0.0879 0.0176,0.15535 0.0527,0.20153 0.0366,0.0447 0.0881,0.0667 0.15399,0.0667 0.0688,0 0.12738,-0.0141 0.1757,-0.0424 0.0483,-0.0283 0.0841,-0.062 0.10749,-0.10077 v -0.50281 z m 10.02575,0 c -0.0586,0 -0.10896,0.01 -0.15142,0.0289 -0.0425,0.0194 -0.0782,0.0463 -0.10748,0.0806 -0.0278,0.0343 -0.0489,0.0747 -0.0636,0.12092 -0.0132,0.0462 -0.0202,0.0951 -0.0202,0.14728 0,0.0879 0.0176,0.15535 0.0527,0.20153 0.0366,0.0447 0.0881,0.0667 0.154,0.0667 0.0688,0 0.12739,-0.0141 0.1757,-0.0424 0.0483,-0.0283 0.0841,-0.062 0.10748,-0.10077 v -0.50281 z" /><path
       id="path160"
       style="fill:#808ff7;fill-opacity:1;stroke-width:0.264583"
       d="m 345.35753,124.61601 c -1.95236,0 -3.53519,1.6108 -3.53519,3.59772 v 3.30471 c 0,1.98664 1.58283,3.59771 3.53519,3.59771 h 72.66481 v -10.50014 z m 73.18261,0 v 10.50014 h 1.96474 v -10.50014 z m 2.48202,0 v 10.50014 h 1.96525 v -10.50014 z m -35.41489,3.25097 h 5.1e-4 c 0.0512,0 0.0993,0.004 0.1447,0.0134 0.0454,0.009 0.091,0.0191 0.13642,0.031 l -0.005,0.5054 c -0.0425,-0.0134 -0.0928,-0.0196 -0.15142,-0.0196 -0.0893,0 -0.15838,0.027 -0.2067,0.0822 -0.0469,0.0551 -0.0703,0.13555 -0.0703,0.24133 v 0.20774 h 0.37155 v 0.47594 h -0.37155 v 1.94252 h -0.62374 v -1.94252 h -0.28732 v -0.47594 h 0.28732 v -0.20774 c 0,-0.13856 0.0176,-0.2606 0.0527,-0.36638 0.0366,-0.10578 0.0887,-0.19462 0.15607,-0.26614 0.0674,-0.073 0.14874,-0.1276 0.24391,-0.16484 0.0966,-0.0373 0.20438,-0.0563 0.32298,-0.0563 z m -15.20218,0.047 h 0.62374 v 3.43287 h -0.62374 z m 7.61866,0 h 0.62632 v 3.43287 h -0.56482 l -0.0284,-0.24598 c -0.06,0.0909 -0.13091,0.16231 -0.2129,0.21446 -0.0805,0.0507 -0.17364,0.0765 -0.27906,0.0765 -0.25184,0 -0.44339,-0.0995 -0.57515,-0.29766 -0.13031,-0.19815 -0.19586,-0.48836 -0.19586,-0.87126 v -0.15917 c 0,-0.39631 0.0661,-0.69159 0.19792,-0.88676 0.13177,-0.19518 0.32333,-0.29301 0.57516,-0.29301 0.0966,0 0.18268,0.0214 0.25735,0.0646 0.0761,0.0417 0.14237,0.10075 0.19947,0.17673 z m -25.50697,0.0538 c 0.0513,0 0.0975,0.008 0.13849,0.0243 0.0425,0.0164 0.0782,0.0394 0.10749,0.0692 0.0293,0.0298 0.0521,0.0658 0.0682,0.10749 0.0161,0.0402 0.0238,0.0847 0.0238,0.13384 0,0.0492 -0.008,0.0947 -0.0238,0.13643 -0.0161,0.0402 -0.0389,0.0762 -0.0682,0.10748 -0.0293,0.0298 -0.065,0.0529 -0.10749,0.0693 -0.041,0.0164 -0.0872,0.0248 -0.13849,0.0248 -0.0513,0 -0.0981,-0.008 -0.14056,-0.0248 -0.041,-0.0164 -0.0761,-0.0395 -0.10542,-0.0693 -0.0293,-0.0313 -0.0521,-0.0673 -0.0682,-0.10748 -0.0161,-0.0417 -0.0243,-0.0873 -0.0243,-0.13643 0,-0.0492 0.008,-0.0936 0.0243,-0.13384 0.0161,-0.0417 0.0389,-0.0777 0.0682,-0.10749 0.0293,-0.0298 0.0644,-0.0529 0.10542,-0.0692 0.0425,-0.0164 0.0893,-0.0243 0.14056,-0.0243 z m 47.19299,0 c 0.0512,0 0.0975,0.008 0.13849,0.0243 0.0425,0.0164 0.0782,0.0394 0.10749,0.0692 0.0293,0.0298 0.0521,0.0658 0.0682,0.10749 0.0161,0.0402 0.0238,0.0847 0.0238,0.13384 0,0.0492 -0.008,0.0947 -0.0238,0.13643 -0.0161,0.0402 -0.0389,0.0762 -0.0682,0.10748 -0.0293,0.0298 -0.065,0.0529 -0.10749,0.0693 -0.041,0.0164 -0.0872,0.0248 -0.13849,0.0248 -0.0513,0 -0.0981,-0.008 -0.14056,-0.0248 -0.041,-0.0164 -0.0761,-0.0395 -0.10542,-0.0693 -0.0293,-0.0313 -0.0521,-0.0673 -0.0682,-0.10748 -0.0161,-0.0417 -0.0243,-0.0873 -0.0243,-0.13643 0,-0.0492 0.008,-0.0936 0.0243,-0.13384 0.0161,-0.0417 0.0389,-0.0777 0.0682,-0.10749 0.0293,-0.0298 0.0644,-0.0529 0.10542,-0.0692 0.0425,-0.0164 0.0893,-0.0243 0.14056,-0.0243 z m 9.14311,0 c 0.0512,0 0.0975,0.008 0.13849,0.0243 0.0425,0.0164 0.0782,0.0394 0.10749,0.0692 0.0293,0.0298 0.0521,0.0658 0.0682,0.10749 0.0161,0.0402 0.0238,0.0847 0.0238,0.13384 0,0.0492 -0.008,0.0947 -0.0238,0.13643 -0.0161,0.0402 -0.0389,0.0762 -0.0682,0.10748 -0.0293,0.0298 -0.065,0.0529 -0.10749,0.0693 -0.041,0.0164 -0.0873,0.0248 -0.13849,0.0248 -0.0513,0 -0.0981,-0.008 -0.14056,-0.0248 -0.041,-0.0164 -0.0761,-0.0395 -0.10542,-0.0693 -0.0293,-0.0313 -0.0521,-0.0673 -0.0682,-0.10748 -0.0161,-0.0417 -0.0243,-0.0873 -0.0243,-0.13643 0,-0.0492 0.008,-0.0936 0.0243,-0.13384 0.0161,-0.0417 0.0389,-0.0777 0.0682,-0.10749 0.0293,-0.0298 0.0644,-0.0529 0.10542,-0.0692 0.0425,-0.0164 0.0893,-0.0243 0.14056,-0.0243 z m -27.67945,0.0806 c 0.15374,0 0.29197,0.0248 0.41496,0.0754 0.12446,0.0492 0.22988,0.11835 0.31626,0.20774 0.0879,0.0879 0.1552,0.19415 0.20206,0.31781 0.0469,0.12217 0.0703,0.25661 0.0703,0.40411 h -0.64338 c 0,-0.0685 -0.008,-0.13097 -0.0222,-0.18759 -0.0132,-0.0581 -0.0349,-0.10704 -0.0656,-0.14727 -0.0293,-0.0417 -0.0674,-0.0738 -0.1142,-0.0961 -0.0469,-0.0238 -0.10309,-0.0357 -0.16898,-0.0357 -0.0615,0 -0.11532,0.01 -0.16072,0.0289 -0.0439,0.0194 -0.0803,0.0458 -0.10955,0.0801 -0.0293,0.0328 -0.0516,0.0722 -0.0661,0.11834 -0.0146,0.0462 -0.0217,0.0956 -0.0217,0.14779 0,0.0536 0.0111,0.102 0.0331,0.14521 0.0234,0.0432 0.0556,0.0837 0.0966,0.12093 0.0425,0.0373 0.0928,0.0721 0.15141,0.1049 0.06,0.0328 0.12565,0.0648 0.1974,0.0961 0.14934,0.0551 0.27991,0.1164 0.39119,0.18345 0.11127,0.067 0.20439,0.14297 0.27906,0.22789 0.0747,0.0849 0.13031,0.18057 0.16691,0.28784 0.0366,0.10578 0.0548,0.2261 0.0548,0.36018 0,0.14303 -0.0234,0.27015 -0.0703,0.38189 -0.0454,0.11174 -0.11153,0.20675 -0.19792,0.28422 -0.0849,0.076 -0.18801,0.13502 -0.30954,0.17674 -0.12152,0.0402 -0.25855,0.0605 -0.41083,0.0605 -0.13763,0 -0.27294,-0.0213 -0.40618,-0.0631 -0.13178,-0.0432 -0.24951,-0.10846 -0.35347,-0.19637 -0.10395,-0.0879 -0.18826,-0.19922 -0.25269,-0.33331 -0.063,-0.13409 -0.0946,-0.29326 -0.0946,-0.47801 h 0.64802 c 0,0.0983 0.009,0.18158 0.0284,0.25012 0.019,0.0685 0.0477,0.12474 0.0858,0.16794 0.0395,0.0417 0.0881,0.0721 0.14521,0.0915 0.0571,0.0179 0.12333,0.0269 0.19947,0.0269 0.0615,0 0.1136,-0.009 0.15606,-0.0269 0.0439,-0.0194 0.0791,-0.0452 0.10542,-0.0765 0.0278,-0.0328 0.0477,-0.0716 0.0594,-0.11627 0.0117,-0.0447 0.0176,-0.0925 0.0176,-0.1447 0,-0.0566 -0.005,-0.10774 -0.0155,-0.15244 -0.0102,-0.0447 -0.0319,-0.0863 -0.0656,-0.12506 -0.0322,-0.0402 -0.0791,-0.079 -0.14056,-0.11627 -0.06,-0.0373 -0.14082,-0.0766 -0.24185,-0.11834 -0.12006,-0.0462 -0.23486,-0.0991 -0.34468,-0.15865 -0.10835,-0.0596 -0.20439,-0.12935 -0.28784,-0.2098 -0.082,-0.0819 -0.14762,-0.17586 -0.1974,-0.28164 -0.0483,-0.10727 -0.0729,-0.23208 -0.0729,-0.37362 0,-0.13558 0.0251,-0.25878 0.0749,-0.37052 0.0498,-0.11323 0.11947,-0.20939 0.20878,-0.28835 0.0908,-0.079 0.1974,-0.14025 0.32039,-0.18345 0.12445,-0.0447 0.26148,-0.0667 0.41083,-0.0667 z m -35.40559,0.0444 h 1.83141 v 0.54777 h -1.18597 v 0.76843 h 1.00614 v 0.52969 h -1.00614 v 0.86299 h 1.19062 v 0.54519 h -1.83606 z m 46.95114,0 h 1.83193 v 0.54777 h -1.18598 v 0.76843 h 1.00563 v 0.52969 h -1.00563 v 0.86299 h 1.19011 v 0.54519 h -1.83606 z m -25.74003,0.24133 h 0.62166 v 0.59428 h 0.31833 v 0.47594 h -0.31833 v 1.20045 c 0,0.0507 0.003,0.0923 0.009,0.12505 0.007,0.0328 0.0184,0.0587 0.0331,0.078 0.0161,0.0179 0.0355,0.0308 0.0589,0.0382 0.0234,0.006 0.0521,0.009 0.0858,0.009 0.0308,0 0.0588,-0.002 0.0837,-0.005 0.0264,-0.003 0.0474,-0.006 0.0636,-0.0109 l -0.005,0.49144 c -0.0469,0.0179 -0.0972,0.0325 -0.15141,0.0429 -0.0542,0.0119 -0.11799,0.0176 -0.1912,0.0176 -0.0922,0 -0.17545,-0.0135 -0.25012,-0.0403 -0.0747,-0.0253 -0.1391,-0.0664 -0.19327,-0.12299 -0.0527,-0.0581 -0.0937,-0.13287 -0.12299,-0.22376 -0.0278,-0.0909 -0.0418,-0.20001 -0.0418,-0.32814 v -1.27176 h -0.27441 v -0.47594 h 0.27441 z m 21.38474,0 h 0.62167 v 0.59428 h 0.31832 v 0.47594 h -0.31832 v 1.20045 c 0,0.0507 0.003,0.0923 0.009,0.12505 0.007,0.0328 0.0184,0.0587 0.0331,0.078 0.0161,0.0179 0.036,0.0308 0.0594,0.0382 0.0234,0.006 0.0521,0.009 0.0858,0.009 0.0307,0 0.0583,-0.002 0.0832,-0.005 0.0263,-0.003 0.0474,-0.006 0.0636,-0.0109 l -0.004,0.49144 c -0.0468,0.0179 -0.0978,0.0325 -0.15193,0.0429 -0.0542,0.0119 -0.11748,0.0176 -0.19069,0.0176 -0.0922,0 -0.17596,-0.0135 -0.25063,-0.0403 -0.0747,-0.0253 -0.1391,-0.0664 -0.19327,-0.12299 -0.0527,-0.0581 -0.0937,-0.13287 -0.12299,-0.22376 -0.0278,-0.0909 -0.0419,-0.20001 -0.0419,-0.32814 v -1.27176 h -0.2744 v -0.47594 h 0.2744 z m -39.28184,0.54984 c 0.0922,0 0.17716,0.0163 0.25476,0.0491 0.0776,0.0313 0.14435,0.0836 0.19999,0.15658 0.0556,0.073 0.0984,0.16807 0.12919,0.28577 0.0308,0.1177 0.0465,0.26275 0.0465,0.43409 v 1.53737 h -0.62373 v -1.53996 c 0,-0.0775 -0.006,-0.14158 -0.0176,-0.19223 -0.0117,-0.0507 -0.0293,-0.0911 -0.0527,-0.12093 -0.022,-0.0298 -0.05,-0.0506 -0.0837,-0.0625 -0.0337,-0.0119 -0.0729,-0.0181 -0.11834,-0.0181 -0.0586,0 -0.11006,0.0162 -0.15399,0.0475 -0.0439,0.0313 -0.0803,0.0741 -0.10956,0.12919 v 1.757 h -0.62373 v -2.41846 h 0.58394 l 0.0176,0.23926 c 0.0688,-0.0924 0.14961,-0.16264 0.24185,-0.21032 0.0922,-0.0492 0.19533,-0.0734 0.30954,-0.0734 z m 5.23792,0 c 0.0278,0 0.0577,0.003 0.0899,0.009 0.0337,0.005 0.0611,0.0112 0.0816,0.0202 l -0.007,0.6258 c -0.0278,-0.003 -0.0624,-0.007 -0.10335,-0.0114 -0.0395,-0.004 -0.0741,-0.007 -0.10335,-0.007 -0.0893,0 -0.16141,0.0197 -0.21704,0.0584 -0.0556,0.0387 -0.0984,0.0955 -0.12765,0.17001 v 1.59784 h -0.62373 v -2.41846 h 0.58653 l 0.0181,0.26149 c 0.0469,-0.0968 0.1037,-0.17219 0.17105,-0.22583 0.0688,-0.0536 0.14728,-0.0801 0.23513,-0.0801 z m 1.2914,0 c 0.14787,0 0.28137,0.0259 0.39997,0.078 0.1186,0.0507 0.21936,0.126 0.30282,0.22583 0.0835,0.0998 0.14788,0.22244 0.19327,0.36845 0.0454,0.14601 0.0682,0.31411 0.0682,0.50333 v 0.15813 c 0,0.1907 -0.0228,0.35939 -0.0682,0.50539 -0.0439,0.14452 -0.10774,0.26657 -0.1912,0.36639 -0.0835,0.0998 -0.18422,0.17517 -0.30282,0.22583 -0.1186,0.0507 -0.25098,0.0765 -0.39739,0.0765 -0.14788,0 -0.28138,-0.0258 -0.39998,-0.0765 -0.1186,-0.0507 -0.21936,-0.12601 -0.30282,-0.22583 -0.0835,-0.0998 -0.14788,-0.22187 -0.19327,-0.36639 -0.0454,-0.146 -0.0682,-0.31469 -0.0682,-0.50539 v -0.15813 c 0,-0.18922 0.0228,-0.35732 0.0682,-0.50333 0.0454,-0.14601 0.10981,-0.26863 0.19327,-0.36845 0.0835,-0.0998 0.18362,-0.17517 0.30075,-0.22583 0.1186,-0.0521 0.25098,-0.078 0.3974,-0.078 z m 2.48822,0 c 0.0922,0 0.17716,0.0163 0.25476,0.0491 0.0776,0.0313 0.14435,0.0836 0.19999,0.15658 0.0556,0.073 0.099,0.16807 0.12971,0.28577 0.0308,0.1177 0.046,0.26275 0.046,0.43409 v 1.53737 h -0.62374 v -1.53996 c 0,-0.0775 -0.006,-0.14158 -0.0176,-0.19223 -0.0117,-0.0507 -0.0293,-0.0911 -0.0527,-0.12093 -0.022,-0.0298 -0.0495,-0.0506 -0.0832,-0.0625 -0.0337,-0.0119 -0.0735,-0.0181 -0.11885,-0.0181 -0.0586,0 -0.10956,0.0162 -0.15348,0.0475 -0.0439,0.0313 -0.0808,0.0741 -0.11007,0.12919 v 1.757 h -0.62374 v -2.41846 h 0.58446 l 0.0176,0.23926 c 0.0688,-0.0924 0.14909,-0.16264 0.24133,-0.21032 0.0922,-0.0492 0.19534,-0.0734 0.30955,-0.0734 z m 2.2288,0 h 5.2e-4 c 0.10981,0 0.20817,0.0259 0.29455,0.078 0.0879,0.0522 0.15701,0.13534 0.20826,0.24857 0.0644,-0.10281 0.1446,-0.18265 0.23978,-0.23927 0.0966,-0.0581 0.21084,-0.0873 0.34261,-0.0873 0.0966,0 0.18337,0.0163 0.26097,0.0491 0.0791,0.0328 0.14642,0.0856 0.20205,0.15865 0.0556,0.073 0.099,0.16807 0.12971,0.28577 0.0308,0.1177 0.046,0.26217 0.046,0.43202 v 1.53737 h -0.62115 v -1.53996 c 0,-0.0805 -0.006,-0.14623 -0.0176,-0.19689 -0.0103,-0.0507 -0.0266,-0.09 -0.0486,-0.11833 -0.022,-0.0298 -0.0483,-0.05 -0.0791,-0.0605 -0.0307,-0.0119 -0.0659,-0.0181 -0.10542,-0.0181 -0.0615,0 -0.1136,0.0196 -0.15606,0.0584 -0.0425,0.0387 -0.0765,0.0921 -0.10284,0.15917 10e-4,0.0164 0.002,0.0327 0.002,0.0506 10e-4,0.0179 0.002,0.0359 0.002,0.0537 v 1.61179 h -0.62167 v -1.53531 c 0,-0.0804 -0.006,-0.14623 -0.0176,-0.19688 -0.0103,-0.0522 -0.0266,-0.0932 -0.0486,-0.12299 -0.0205,-0.0298 -0.0469,-0.05 -0.0791,-0.0605 -0.0308,-0.0119 -0.0659,-0.0181 -0.10542,-0.0181 -0.0571,0 -0.10689,0.0162 -0.14935,0.0475 -0.041,0.0313 -0.0761,0.0741 -0.10542,0.12919 v 1.757 h -0.62166 v -2.41846 h 0.58187 l 0.0176,0.22376 c 0.0659,-0.0849 0.14435,-0.1507 0.23513,-0.19689 0.0922,-0.0477 0.19767,-0.0713 0.31626,-0.0713 z m 3.07992,0 c 0.3016,0 0.5277,0.099 0.67851,0.29714 0.15081,0.19815 0.22634,0.49171 0.22634,0.88057 v 0.28835 h -1.23662 c 0.004,0.0968 0.0167,0.17784 0.0372,0.2434 0.022,0.0656 0.0512,0.11841 0.0879,0.15864 0.0366,0.0402 0.0805,0.0695 0.13177,0.0873 0.0527,0.0179 0.11188,0.0269 0.17777,0.0269 0.10981,0 0.20757,-0.0186 0.29249,-0.0558 0.0864,-0.0387 0.16253,-0.0922 0.22841,-0.16072 l 0.2434,0.38189 c -0.0308,0.0432 -0.0706,0.0865 -0.12041,0.12971 -0.0498,0.0417 -0.10834,0.0799 -0.1757,0.11421 -0.0674,0.0343 -0.14348,0.0613 -0.22841,0.0822 -0.0849,0.0223 -0.17802,0.0341 -0.27905,0.0341 -0.16252,0 -0.30661,-0.0258 -0.43253,-0.0765 -0.12592,-0.0507 -0.23247,-0.12324 -0.31885,-0.21859 -0.0864,-0.0953 -0.15201,-0.21175 -0.1974,-0.34882 -0.0439,-0.13856 -0.0662,-0.296 -0.0662,-0.47181 v -0.19843 c 0,-0.19667 0.0216,-0.36927 0.0641,-0.51677 0.0439,-0.14899 0.10603,-0.27328 0.18655,-0.3731 0.082,-0.10131 0.18156,-0.17724 0.29869,-0.2279 0.1186,-0.0506 0.2527,-0.076 0.40205,-0.076 z m 2.39365,0 c 0.0922,0 0.17716,0.0163 0.25476,0.0491 0.0776,0.0313 0.14435,0.0836 0.19999,0.15658 0.0556,0.073 0.099,0.16807 0.12971,0.28577 0.0308,0.1177 0.046,0.26275 0.046,0.43409 v 1.53737 h -0.62373 v -1.53996 c 0,-0.0775 -0.006,-0.14158 -0.0176,-0.19223 -0.0117,-0.0507 -0.0293,-0.0911 -0.0527,-0.12093 -0.022,-0.0298 -0.05,-0.0506 -0.0837,-0.0625 -0.0337,-0.0119 -0.0729,-0.0181 -0.11834,-0.0181 -0.0586,0 -0.11008,0.0162 -0.154,0.0475 -0.0439,0.0313 -0.0803,0.0741 -0.10955,0.12919 v 1.757 h -0.62373 v -2.41846 h 0.58394 l 0.0176,0.23926 c 0.0688,-0.0924 0.14961,-0.16264 0.24185,-0.21032 0.0922,-0.0492 0.19534,-0.0734 0.30954,-0.0734 z m 3.30522,0 c 0.1186,0 0.22807,0.0152 0.32763,0.0465 0.0996,0.0298 0.18569,0.0776 0.2589,0.14314 0.0732,0.0641 0.13057,0.14674 0.17157,0.24805 0.041,0.0998 0.0615,0.22123 0.0615,0.36277 v 1.07228 c 0,0.07 10e-4,0.13298 0.004,0.18811 0.004,0.0536 0.0103,0.10257 0.0176,0.14727 0.007,0.0432 0.0161,0.0821 0.0264,0.11783 0.0117,0.0343 0.0251,0.0674 0.0398,0.0987 v 0.0382 h -0.62632 c -0.0117,-0.0253 -0.0217,-0.054 -0.0305,-0.0853 -0.007,-0.0328 -0.0149,-0.0666 -0.0222,-0.10232 -0.0469,0.0656 -0.10723,0.12016 -0.1819,0.16485 -0.0732,0.0447 -0.16339,0.0677 -0.27027,0.0677 -0.0966,0 -0.1874,-0.0174 -0.27233,-0.0517 -0.0835,-0.0343 -0.15667,-0.0826 -0.21963,-0.14521 -0.0615,-0.0626 -0.11066,-0.13844 -0.14727,-0.22634 -0.0351,-0.0894 -0.0527,-0.18896 -0.0527,-0.29921 0,-0.12217 0.0193,-0.23239 0.0574,-0.33073 0.0395,-0.0998 0.0981,-0.18364 0.1757,-0.25218 0.0791,-0.07 0.17691,-0.12346 0.29404,-0.16071 0.1186,-0.0373 0.25794,-0.0563 0.41754,-0.0563 h 0.16898 v -0.1943 c 0,-0.10876 -0.0182,-0.18527 -0.0548,-0.22996 -0.0366,-0.0447 -0.0904,-0.0677 -0.16072,-0.0677 -0.0805,0 -0.13969,0.0252 -0.17776,0.0744 -0.0366,0.0477 -0.0548,0.11519 -0.0548,0.20309 h -0.62167 c 0,-0.10578 0.0199,-0.20476 0.0594,-0.29714 0.041,-0.0939 0.0996,-0.17595 0.1757,-0.24598 0.0761,-0.07 0.16752,-0.12513 0.2744,-0.16536 0.10689,-0.0417 0.22754,-0.0625 0.36225,-0.0625 z m 4.28708,0 c 0.1186,0 0.22807,0.0152 0.32763,0.0465 0.0996,0.0298 0.18569,0.0776 0.2589,0.14314 0.0732,0.0641 0.13057,0.14674 0.17156,0.24805 0.041,0.0998 0.0615,0.22123 0.0615,0.36277 v 1.07228 c 0,0.07 0.001,0.13298 0.004,0.18811 0.004,0.0536 0.0103,0.10257 0.0176,0.14727 0.007,0.0432 0.0161,0.0821 0.0264,0.11783 0.0117,0.0343 0.0251,0.0674 0.0398,0.0987 v 0.0382 h -0.62632 c -0.0117,-0.0253 -0.0217,-0.054 -0.0305,-0.0853 -0.007,-0.0328 -0.0149,-0.0666 -0.0222,-0.10232 -0.0469,0.0656 -0.10722,0.12016 -0.1819,0.16485 -0.0732,0.0447 -0.16339,0.0677 -0.27027,0.0677 -0.0966,0 -0.18741,-0.0174 -0.27233,-0.0517 -0.0835,-0.0343 -0.15667,-0.0826 -0.21963,-0.14521 -0.0615,-0.0626 -0.11068,-0.13844 -0.14728,-0.22634 -0.0351,-0.0894 -0.0527,-0.18896 -0.0527,-0.29921 0,-0.12217 0.0193,-0.23239 0.0574,-0.33073 0.0395,-0.0998 0.0981,-0.18364 0.1757,-0.25218 0.0791,-0.07 0.1769,-0.12346 0.29404,-0.16071 0.11859,-0.0373 0.25796,-0.0563 0.41755,-0.0563 h 0.16898 v -0.1943 c 0,-0.10876 -0.0182,-0.18527 -0.0548,-0.22996 -0.0366,-0.0447 -0.0904,-0.0677 -0.16071,-0.0677 -0.0805,0 -0.1397,0.0252 -0.17777,0.0744 -0.0366,0.0477 -0.0548,0.11519 -0.0548,0.20309 h -0.62166 c 0,-0.10578 0.0199,-0.20476 0.0594,-0.29714 0.041,-0.0939 0.0996,-0.17595 0.1757,-0.24598 0.0761,-0.07 0.16751,-0.12513 0.2744,-0.16536 0.10688,-0.0417 0.22755,-0.0625 0.36225,-0.0625 z m 2.40709,0 c 0.0922,0 0.17716,0.0163 0.25476,0.0491 0.0776,0.0313 0.14435,0.0836 0.19999,0.15658 0.0556,0.073 0.099,0.16807 0.12971,0.28577 0.0308,0.1177 0.046,0.26275 0.046,0.43409 v 1.53737 h -0.62373 v -1.53996 c 0,-0.0775 -0.006,-0.14158 -0.0176,-0.19223 -0.0117,-0.0507 -0.0293,-0.0911 -0.0527,-0.12093 -0.022,-0.0298 -0.0495,-0.0506 -0.0832,-0.0625 -0.0337,-0.0119 -0.0735,-0.0181 -0.11886,-0.0181 -0.0586,0 -0.10956,0.0162 -0.15348,0.0475 -0.0439,0.0313 -0.0808,0.0741 -0.11007,0.12919 v 1.757 h -0.62373 v -2.41846 h 0.58446 l 0.0176,0.23926 c 0.0688,-0.0924 0.14909,-0.16264 0.24133,-0.21032 0.0922,-0.0492 0.19533,-0.0734 0.30954,-0.0734 z m 7.61917,0 c 0.1186,0 0.22755,0.0152 0.32711,0.0465 0.0996,0.0298 0.18569,0.0776 0.2589,0.14314 0.0732,0.0641 0.13057,0.14674 0.17157,0.24805 0.041,0.0998 0.0615,0.22123 0.0615,0.36277 v 1.07228 c 0,0.07 0.001,0.13298 0.004,0.18811 0.004,0.0536 0.0103,0.10257 0.0176,0.14727 0.007,0.0432 0.016,0.0821 0.0263,0.11783 0.0117,0.0343 0.0251,0.0674 0.0398,0.0987 v 0.0382 h -0.6258 c -0.0117,-0.0253 -0.0222,-0.054 -0.031,-0.0853 -0.007,-0.0328 -0.0144,-0.0666 -0.0217,-0.10232 -0.0469,0.0656 -0.10775,0.12016 -0.18242,0.16485 -0.0732,0.0447 -0.16338,0.0677 -0.27027,0.0677 -0.0966,0 -0.18741,-0.0174 -0.27233,-0.0517 -0.0835,-0.0343 -0.15667,-0.0826 -0.21963,-0.14521 -0.0615,-0.0626 -0.11066,-0.13844 -0.14727,-0.22634 -0.0351,-0.0894 -0.0527,-0.18896 -0.0527,-0.29921 0,-0.12217 0.0193,-0.23239 0.0574,-0.33073 0.0395,-0.0998 0.0981,-0.18364 0.1757,-0.25218 0.0791,-0.07 0.17691,-0.12346 0.29404,-0.16071 0.1186,-0.0373 0.25794,-0.0563 0.41754,-0.0563 h 0.16898 v -0.1943 c 0,-0.10876 -0.0182,-0.18527 -0.0548,-0.22996 -0.0366,-0.0447 -0.0899,-0.0677 -0.1602,-0.0677 -0.0805,0 -0.14021,0.0252 -0.17828,0.0744 -0.0366,0.0477 -0.0548,0.11519 -0.0548,0.20309 h -0.62167 c 0,-0.10578 0.0199,-0.20476 0.0594,-0.29714 0.041,-0.0939 0.0996,-0.17595 0.1757,-0.24598 0.0761,-0.07 0.16752,-0.12513 0.2744,-0.16536 0.10689,-0.0417 0.22807,-0.0625 0.36277,-0.0625 z m 3.58634,0 c 0.30161,0 0.52771,0.099 0.67852,0.29714 0.15081,0.19815 0.22634,0.49171 0.22634,0.88057 v 0.28835 h -1.23662 c 0.004,0.0968 0.0167,0.17784 0.0372,0.2434 0.022,0.0656 0.0512,0.11841 0.0879,0.15864 0.0366,0.0402 0.0805,0.0695 0.13177,0.0873 0.0527,0.0179 0.11241,0.0269 0.17829,0.0269 0.10981,0 0.20705,-0.0186 0.29197,-0.0558 0.0864,-0.0387 0.16253,-0.0922 0.22841,-0.16072 l 0.24391,0.38189 c -0.0307,0.0432 -0.0711,0.0865 -0.12092,0.12971 -0.0498,0.0417 -0.10834,0.0799 -0.1757,0.11421 -0.0674,0.0343 -0.14348,0.0613 -0.22841,0.0822 -0.0849,0.0223 -0.17802,0.0341 -0.27905,0.0341 -0.16252,0 -0.30662,-0.0258 -0.43254,-0.0765 -0.12591,-0.0507 -0.23193,-0.12324 -0.31832,-0.21859 -0.0864,-0.0953 -0.15253,-0.21175 -0.19792,-0.34882 -0.0439,-0.13856 -0.0656,-0.296 -0.0656,-0.47181 v -0.19843 c 0,-0.19667 0.0211,-0.36927 0.0636,-0.51677 0.0439,-0.14899 0.10603,-0.27328 0.18655,-0.3731 0.082,-0.10131 0.18156,-0.17724 0.29869,-0.2279 0.1186,-0.0506 0.25269,-0.076 0.40204,-0.076 z m 9.02684,0 c 0.0922,0 0.17717,0.0163 0.25477,0.0491 0.0776,0.0313 0.14383,0.0836 0.19947,0.15658 0.0556,0.073 0.099,0.16807 0.12971,0.28577 0.0307,0.1177 0.046,0.26275 0.046,0.43409 v 1.53737 h -0.62373 v -1.53996 c 0,-0.0775 -0.006,-0.14158 -0.0176,-0.19223 -0.0117,-0.0507 -0.0293,-0.0911 -0.0527,-0.12093 -0.022,-0.0298 -0.0495,-0.0506 -0.0832,-0.0625 -0.0337,-0.0119 -0.0735,-0.0181 -0.11886,-0.0181 -0.0586,0 -0.10956,0.0162 -0.15348,0.0475 -0.0439,0.0313 -0.0808,0.0741 -0.11007,0.12919 v 1.757 h -0.62373 v -2.41846 h 0.58446 l 0.0176,0.23926 c 0.0688,-0.0924 0.14909,-0.16264 0.24133,-0.21032 0.0922,-0.0492 0.19585,-0.0734 0.31005,-0.0734 z m 1.80299,0 c 0.11567,0 0.21352,0.0231 0.29404,0.0692 0.0805,0.0447 0.149,0.10771 0.20464,0.18965 l 0.0238,-0.21446 h 0.56018 v 2.41846 c 0,0.16538 -0.024,0.30714 -0.0724,0.42633 -0.0469,0.12068 -0.11361,0.22018 -0.19999,0.29766 -0.0864,0.0775 -0.19059,0.13483 -0.31212,0.17208 -0.12006,0.0373 -0.25365,0.0558 -0.40153,0.0558 -0.0556,0 -0.11714,-0.006 -0.18449,-0.0181 -0.0674,-0.0119 -0.1347,-0.0299 -0.20205,-0.0537 -0.0674,-0.0223 -0.13178,-0.0511 -0.19327,-0.0868 -0.06,-0.0343 -0.11094,-0.0753 -0.15193,-0.12299 l 0.20877,-0.4377 c 0.0278,0.0298 0.0606,0.0574 0.0987,0.0827 0.0395,0.0268 0.0805,0.0488 0.12299,0.0667 0.0439,0.0194 0.0896,0.034 0.13642,0.0444 0.0469,0.0119 0.092,0.0181 0.13591,0.0181 0.063,0 0.1186,-0.007 0.16692,-0.0222 0.0498,-0.0134 0.0919,-0.0371 0.12557,-0.0713 0.0337,-0.0343 0.0583,-0.0798 0.0744,-0.13642 0.0176,-0.0566 0.0264,-0.12747 0.0264,-0.21239 v -0.19431 c -0.0571,0.076 -0.12385,0.13502 -0.19999,0.17674 -0.0747,0.0402 -0.16252,0.0605 -0.26355,0.0605 -0.12592,0 -0.2384,-0.0258 -0.33796,-0.0765 -0.0981,-0.0507 -0.18182,-0.12491 -0.25063,-0.22325 -0.0674,-0.0983 -0.11895,-0.22031 -0.15555,-0.36483 -0.0366,-0.14601 -0.0553,-0.31366 -0.0553,-0.50436 v -0.15917 c 0,-0.39631 0.0703,-0.69159 0.21084,-0.88676 0.14056,-0.19518 0.33787,-0.29301 0.59117,-0.29301 z m 3.80597,0 c 0.0922,0 0.17717,0.0163 0.25477,0.0491 0.0776,0.0313 0.14435,0.0836 0.19999,0.15658 0.0556,0.073 0.099,0.16807 0.1297,0.28577 0.0308,0.1177 0.046,0.26275 0.046,0.43409 v 1.53737 h -0.62374 v -1.53996 c 0,-0.0775 -0.006,-0.14158 -0.0176,-0.19223 -0.0117,-0.0507 -0.0293,-0.0911 -0.0527,-0.12093 -0.022,-0.0298 -0.05,-0.0506 -0.0837,-0.0625 -0.0337,-0.0119 -0.0729,-0.0181 -0.11834,-0.0181 -0.0586,0 -0.11008,0.0162 -0.154,0.0475 -0.0439,0.0313 -0.0803,0.0741 -0.10955,0.12919 v 1.757 h -0.62374 v -2.41846 h 0.58395 l 0.0176,0.23926 c 0.0688,-0.0924 0.1496,-0.16264 0.24184,-0.21032 0.0922,-0.0492 0.19533,-0.0734 0.30954,-0.0734 z m 1.97198,0 c 0.30162,0 0.52822,0.099 0.67902,0.29714 0.15081,0.19815 0.22583,0.49171 0.22583,0.88057 v 0.28835 h -1.2361 c 0.004,0.0968 0.0167,0.17784 0.0372,0.2434 0.022,0.0656 0.0512,0.11841 0.0879,0.15864 0.0366,0.0402 0.0805,0.0695 0.13177,0.0873 0.0527,0.0179 0.11188,0.0269 0.17777,0.0269 0.10982,0 0.20757,-0.0186 0.29249,-0.0558 0.0864,-0.0387 0.16252,-0.0922 0.22841,-0.16072 l 0.24339,0.38189 c -0.0308,0.0432 -0.0706,0.0865 -0.1204,0.12971 -0.0498,0.0417 -0.10834,0.0799 -0.1757,0.11421 -0.0673,0.0343 -0.14349,0.0613 -0.22841,0.0822 -0.0849,0.0223 -0.17802,0.0341 -0.27905,0.0341 -0.16252,0 -0.30713,-0.0258 -0.43305,-0.0765 -0.12592,-0.0507 -0.23194,-0.12324 -0.31833,-0.21859 -0.0864,-0.0953 -0.15201,-0.21175 -0.1974,-0.34882 -0.0439,-0.13856 -0.0661,-0.296 -0.0661,-0.47181 v -0.19843 c 0,-0.19667 0.0211,-0.36927 0.0636,-0.51677 0.0439,-0.14899 0.10654,-0.27328 0.18707,-0.3731 0.082,-0.10131 0.18156,-0.17724 0.29869,-0.2279 0.1186,-0.0506 0.25219,-0.076 0.40153,-0.076 z m 2.15284,0 c 0.30162,0 0.5277,0.099 0.67851,0.29714 0.15081,0.19815 0.22634,0.49171 0.22634,0.88057 v 0.28835 h -1.23662 c 0.004,0.0968 0.0167,0.17784 0.0372,0.2434 0.022,0.0656 0.0512,0.11841 0.0879,0.15864 0.0366,0.0402 0.0805,0.0695 0.13178,0.0873 0.0527,0.0179 0.11187,0.0269 0.17776,0.0269 0.10981,0 0.20756,-0.0186 0.29249,-0.0558 0.0864,-0.0387 0.16252,-0.0922 0.22841,-0.16072 l 0.2434,0.38189 c -0.0307,0.0432 -0.0706,0.0865 -0.12041,0.12971 -0.0498,0.0417 -0.10835,0.0799 -0.1757,0.11421 -0.0674,0.0343 -0.14349,0.0613 -0.22841,0.0822 -0.0849,0.0223 -0.17802,0.0341 -0.27905,0.0341 -0.16252,0 -0.30661,-0.0258 -0.43253,-0.0765 -0.12592,-0.0507 -0.23247,-0.12324 -0.31885,-0.21859 -0.0864,-0.0953 -0.15201,-0.21175 -0.1974,-0.34882 -0.0439,-0.13856 -0.0661,-0.296 -0.0661,-0.47181 v -0.19843 c 0,-0.19667 0.0216,-0.36927 0.0641,-0.51677 0.0439,-0.14899 0.10602,-0.27328 0.18655,-0.3731 0.082,-0.10131 0.18155,-0.17724 0.29869,-0.2279 0.11859,-0.0506 0.2527,-0.076 0.40205,-0.076 z m 2.26394,0 c 0.0278,0 0.0582,0.003 0.0904,0.009 0.0337,0.005 0.0606,0.0112 0.0811,0.0202 l -0.007,0.6258 c -0.0278,-0.003 -0.0624,-0.007 -0.10335,-0.0114 -0.0395,-0.004 -0.0736,-0.007 -0.10284,-0.007 -0.0893,0 -0.16192,0.0197 -0.21755,0.0584 -0.0556,0.0387 -0.0984,0.0955 -0.12765,0.17001 v 1.59784 h -0.62373 v -2.41846 h 0.58653 l 0.0181,0.26149 c 0.0469,-0.0968 0.10422,-0.17219 0.17157,-0.22583 0.0688,-0.0536 0.14676,-0.0801 0.23461,-0.0801 z m 2.75436,0 c 0.0922,0 0.17716,0.0163 0.25476,0.0491 0.0776,0.0313 0.14435,0.0836 0.19999,0.15658 0.0556,0.073 0.0984,0.16807 0.12919,0.28577 0.0307,0.1177 0.0465,0.26275 0.0465,0.43409 v 1.53737 h -0.62374 v -1.53996 c 0,-0.0775 -0.006,-0.14158 -0.0176,-0.19223 -0.0117,-0.0507 -0.0293,-0.0911 -0.0527,-0.12093 -0.022,-0.0298 -0.05,-0.0506 -0.0837,-0.0625 -0.0337,-0.0119 -0.0729,-0.0181 -0.11834,-0.0181 -0.0586,0 -0.11007,0.0162 -0.154,0.0475 -0.0439,0.0313 -0.0803,0.0741 -0.10955,0.12919 v 1.757 h -0.62374 v -2.41846 h 0.58395 l 0.0176,0.23926 c 0.0688,-0.0924 0.1496,-0.16264 0.24184,-0.21032 0.0922,-0.0492 0.19534,-0.0734 0.30955,-0.0734 z m 1.80299,0 c 0.11567,0 0.21402,0.0231 0.29455,0.0692 0.0805,0.0447 0.14849,0.10771 0.20412,0.18965 l 0.0243,-0.21446 h 0.55966 v 2.41846 c 0,0.16538 -0.024,0.30714 -0.0724,0.42633 -0.0469,0.12068 -0.1136,0.22018 -0.19999,0.29766 -0.0864,0.0775 -0.19008,0.13483 -0.31161,0.17208 -0.12006,0.0373 -0.25416,0.0558 -0.40204,0.0558 -0.0556,0 -0.11713,-0.006 -0.18448,-0.0181 -0.0673,-0.0119 -0.13471,-0.0299 -0.20206,-0.0537 -0.0674,-0.0223 -0.13177,-0.0511 -0.19327,-0.0868 -0.06,-0.0343 -0.11042,-0.0753 -0.15141,-0.12299 l 0.20877,-0.4377 c 0.0278,0.0298 0.0606,0.0574 0.0987,0.0827 0.0395,0.0268 0.0805,0.0488 0.12299,0.0667 0.0439,0.0194 0.0891,0.034 0.13591,0.0444 0.0469,0.0119 0.0925,0.0181 0.13643,0.0181 0.063,0 0.1186,-0.007 0.16691,-0.0222 0.0498,-0.0134 0.0914,-0.0371 0.12506,-0.0713 0.0337,-0.0343 0.0588,-0.0798 0.0749,-0.13642 0.0176,-0.0566 0.0258,-0.12747 0.0258,-0.21239 v -0.19431 c -0.0571,0.076 -0.12333,0.13502 -0.19947,0.17674 -0.0747,0.0402 -0.16252,0.0605 -0.26355,0.0605 -0.12592,0 -0.23892,-0.0258 -0.33848,-0.0765 -0.0981,-0.0507 -0.1813,-0.12491 -0.25012,-0.22325 -0.0674,-0.0983 -0.11945,-0.22031 -0.15606,-0.36483 -0.0366,-0.14601 -0.0548,-0.31366 -0.0548,-0.50436 v -0.15917 c 0,-0.39631 0.0703,-0.69159 0.21084,-0.88676 0.14056,-0.19518 0.33737,-0.29301 0.59067,-0.29301 z m -62.60187,0.0444 h 0.65009 l 0.30076,1.52446 0.30076,-1.52446 h 0.64802 l -0.65216,2.41846 h -0.59324 z m 2.22054,0 h 0.62373 v 2.41846 h -0.62373 z m 37.24579,0 h 0.66766 l 0.28577,1.36581 0.31626,-1.36581 h 0.66301 l -0.78187,2.78019 c -0.0176,0.0611 -0.0416,0.12745 -0.0724,0.19896 -0.0293,0.0715 -0.0697,0.13787 -0.12092,0.19895 -0.0513,0.0626 -0.11454,0.11429 -0.19068,0.15452 -0.0761,0.0417 -0.16864,0.0625 -0.27699,0.0625 -0.0278,0 -0.0524,-0.002 -0.0744,-0.005 -0.0205,-0.001 -0.0404,-0.003 -0.0594,-0.006 -0.0176,-0.003 -0.0357,-0.007 -0.0548,-0.0134 -0.019,-0.004 -0.0412,-0.0106 -0.0661,-0.0181 v -0.49351 c 0.0117,10e-4 0.0234,0.002 0.0351,0.002 h 0.0372 c 0.0498,0 0.0931,-0.006 0.12971,-0.016 0.0366,-0.009 0.0676,-0.0236 0.0925,-0.0444 0.0263,-0.0209 0.0475,-0.0479 0.0636,-0.0806 0.0176,-0.0313 0.0322,-0.069 0.0439,-0.11369 l 0.0481,-0.16329 z m 9.94719,0 h 0.62374 v 2.41846 h -0.62374 z m 9.14311,0 h 0.62374 v 2.41846 h -0.62374 z m -52.93216,0.48059 c -0.10542,0 -0.18802,0.054 -0.24805,0.16123 -0.0586,0.10579 -0.0879,0.26888 -0.0879,0.48938 v 0.15813 c 0,0.22497 0.0299,0.39025 0.0899,0.49454 0.06,0.1028 0.14375,0.154 0.25063,0.154 0.11274,0 0.19765,-0.0512 0.25476,-0.154 0.0571,-0.10429 0.0853,-0.26957 0.0853,-0.49454 v -0.15813 c 0,-0.2205 -0.0299,-0.38359 -0.0899,-0.48938 -0.06,-0.10727 -0.14496,-0.16123 -0.25476,-0.16123 z m 7.79228,0 c -0.10835,0 -0.18741,0.0394 -0.23719,0.11834 -0.0483,0.079 -0.077,0.20602 -0.0858,0.38034 h 0.62166 v -0.0584 c -0.003,-0.14452 -0.0264,-0.25417 -0.0703,-0.32867 -0.0439,-0.0745 -0.12006,-0.11162 -0.22841,-0.11162 z m 23.59856,0 c -0.10835,0 -0.18741,0.0394 -0.23719,0.11834 -0.0483,0.079 -0.0765,0.20602 -0.0853,0.38034 h 0.62115 v -0.0584 c -0.003,-0.14452 -0.0264,-0.25417 -0.0703,-0.32867 -0.0439,-0.0745 -0.12006,-0.11162 -0.22841,-0.11162 z m 16.60829,0 c -0.10834,0 -0.18741,0.0394 -0.23719,0.11834 -0.0483,0.079 -0.077,0.20602 -0.0858,0.38034 h 0.62167 v -0.0584 c -0.003,-0.14452 -0.0264,-0.25417 -0.0703,-0.32867 -0.0439,-0.0745 -0.12007,-0.11162 -0.22841,-0.11162 z m 2.15233,0 c -0.10835,0 -0.18742,0.0394 -0.2372,0.11834 -0.0483,0.079 -0.077,0.20602 -0.0858,0.38034 h 0.62167 v -0.0584 c -0.003,-0.14452 -0.0264,-0.25417 -0.0703,-0.32867 -0.0439,-0.0745 -0.12006,-0.11162 -0.22841,-0.11162 z m -28.01535,0.004 c -0.0615,0 -0.1136,0.0134 -0.15606,0.0387 -0.041,0.0253 -0.0744,0.0641 -0.10077,0.11628 -0.0264,0.0522 -0.0456,0.11914 -0.0574,0.20257 -0.0103,0.0819 -0.0155,0.17977 -0.0155,0.293 v 0.15917 c 0,0.11174 0.005,0.20738 0.0155,0.28783 0.0102,0.0804 0.0278,0.14791 0.0527,0.20154 0.0264,0.0522 0.0603,0.0909 0.10128,0.11627 0.0425,0.0238 0.0952,0.0357 0.15813,0.0357 0.0659,0 0.12153,-0.0152 0.16692,-0.045 0.0454,-0.0298 0.0823,-0.0708 0.11162,-0.12299 v -1.10432 c -0.0293,-0.0566 -0.0674,-0.1 -0.1142,-0.13126 -0.0454,-0.0313 -0.0993,-0.0475 -0.16227,-0.0475 z m 20.27112,0 c -0.12299,0 -0.21438,0.0522 -0.27441,0.15503 -0.0586,0.1028 -0.0879,0.26762 -0.0879,0.49557 v 0.15917 c 0,0.22348 0.0287,0.38657 0.0858,0.48937 0.0571,0.10131 0.14787,0.15193 0.27233,0.15193 0.0674,0 0.12359,-0.0118 0.16898,-0.0357 0.0469,-0.0253 0.0849,-0.0607 0.11421,-0.10542 v -1.15496 c -0.0308,-0.0492 -0.0694,-0.0874 -0.11627,-0.11421 -0.0454,-0.0268 -0.0998,-0.0408 -0.16278,-0.0408 z m 14.75258,0 c -0.12298,0 -0.21437,0.0522 -0.2744,0.15503 -0.0586,0.1028 -0.0879,0.26762 -0.0879,0.49557 v 0.15917 c 0,0.22348 0.0282,0.38657 0.0853,0.48937 0.0571,0.10131 0.14787,0.15193 0.27233,0.15193 0.0674,0 0.12411,-0.0118 0.1695,-0.0357 0.0469,-0.0253 0.0849,-0.0607 0.11421,-0.10542 v -1.15496 c -0.0308,-0.0492 -0.0699,-0.0874 -0.11679,-0.11421 -0.0454,-0.0268 -0.0993,-0.0408 -0.16227,-0.0408 z m -43.61335,0.83612 c -0.0586,0 -0.10895,0.01 -0.15142,0.0289 -0.0425,0.0194 -0.0782,0.0463 -0.10748,0.0806 -0.0278,0.0343 -0.0494,0.0747 -0.0641,0.12092 -0.0132,0.0462 -0.0196,0.0951 -0.0196,0.14728 0,0.0879 0.0176,0.15535 0.0527,0.20153 0.0366,0.0447 0.0881,0.0667 0.154,0.0667 0.0688,0 0.12739,-0.0141 0.1757,-0.0424 0.0483,-0.0283 0.0841,-0.062 0.10748,-0.10077 v -0.50281 z m 4.28707,0 c -0.0586,0 -0.10895,0.01 -0.15141,0.0289 -0.0425,0.0194 -0.0782,0.0463 -0.10749,0.0806 -0.0278,0.0343 -0.0494,0.0747 -0.0641,0.12092 -0.0132,0.0462 -0.0196,0.0951 -0.0196,0.14728 0,0.0879 0.0176,0.15535 0.0527,0.20153 0.0366,0.0447 0.0881,0.0667 0.15399,0.0667 0.0688,0 0.12738,-0.0141 0.1757,-0.0424 0.0483,-0.0283 0.0841,-0.062 0.10749,-0.10077 v -0.50281 z m 10.02575,0 c -0.0586,0 -0.10896,0.01 -0.15142,0.0289 -0.0425,0.0194 -0.0782,0.0463 -0.10748,0.0806 -0.0278,0.0343 -0.0489,0.0747 -0.0636,0.12092 -0.0132,0.0462 -0.0202,0.0951 -0.0202,0.14728 0,0.0879 0.0176,0.15535 0.0527,0.20153 0.0366,0.0447 0.0881,0.0667 0.154,0.0667 0.0688,0 0.12739,-0.0141 0.1757,-0.0424 0.0483,-0.0283 0.0841,-0.062 0.10748,-0.10077 v -0.50281 z" /></g></svg>
