<?xml version="1.0" encoding="UTF-8" standalone="no"?>
<!-- Created with Inkscape (http://www.inkscape.org/) -->

<svg
   width="54.870068mm"
   height="10.500135mm"
   viewBox="0 0 54.870068 10.500135"
   version="1.1"
   id="svg1"
   xml:space="preserve"
   inkscape:version="1.3.1 (91b66b0783, 2023-11-16)"
   sodipodi:docname="topic_16.svg"
   xmlns:inkscape="http://www.inkscape.org/namespaces/inkscape"
   xmlns:sodipodi="http://sodipodi.sourceforge.net/DTD/sodipodi-0.dtd"
   xmlns="http://www.w3.org/2000/svg"
   xmlns:svg="http://www.w3.org/2000/svg"><sodipodi:namedview
     id="namedview1"
     pagecolor="#ffffff"
     bordercolor="#000000"
     borderopacity="0.25"
     inkscape:showpageshadow="2"
     inkscape:pageopacity="0.0"
     inkscape:pagecheckerboard="0"
     inkscape:deskcolor="#d1d1d1"
     inkscape:document-units="mm"
     inkscape:zoom="2"
     inkscape:cx="61.5"
     inkscape:cy="3.25"
     inkscape:window-width="2560"
     inkscape:window-height="1346"
     inkscape:window-x="-11"
     inkscape:window-y="-11"
     inkscape:window-maximized="1"
     inkscape:current-layer="layer1"
     showgrid="true"><inkscape:grid
       id="grid668"
       units="mm"
       originx="-499.91145"
       originy="-124.61601"
       spacingx="0.5"
       spacingy="0.5"
       empcolor="#0099e5"
       empopacity="0.30196078"
       color="#0099e5"
       opacity="0.14901961"
       empspacing="5"
       dotted="false"
       gridanglex="30"
       gridanglez="30"
       visible="true" /></sodipodi:namedview><defs
     id="defs1" /><g
     inkscape:label="Layer 1"
     inkscape:groupmode="layer"
     id="layer1"
     transform="translate(-499.91145,-124.61602)"><rect
       style="fill:#f9f9f9;stroke-width:0.5;stroke-linejoin:round;stroke-miterlimit:3.4;stroke-dashoffset:19.8539"
       id="rect19"
       width="46.969357"
       height="7.1517849"
       x="503.0307"
       y="126.4241"
       inkscape:export-filename="topic_16.svg"
       inkscape:export-xdpi="96"
       inkscape:export-ydpi="96" /><path
       id="path757"
       style="fill:#2c2c6f;fill-opacity:1;stroke-width:0.264583"
       d="m 503.44714,124.61601 c -1.95262,0 -3.5357,1.60977 -3.5357,3.59668 v 3.30626 c 0,1.98693 1.58308,3.5972 3.5357,3.5972 h 48.8518 v -10.50014 z m 49.3696,0 v 10.50014 h 1.96474 v -10.50014 z m -35.13687,3.56723 h 0.62632 v 3.43286 h -0.56483 l -0.0284,-0.24598 c -0.06,0.0909 -0.13092,0.16231 -0.21291,0.21446 -0.0805,0.0507 -0.17363,0.076 -0.27905,0.076 -0.25183,0 -0.44339,-0.0995 -0.57516,-0.29765 -0.13032,-0.19817 -0.19585,-0.48837 -0.19585,-0.87127 v -0.15864 c 0,-0.39631 0.0662,-0.69212 0.19792,-0.88729 0.13178,-0.19518 0.32332,-0.29249 0.57516,-0.29249 0.0966,0 0.18268,0.0213 0.25735,0.0646 0.0761,0.0418 0.14237,0.10079 0.19947,0.17673 z m 6.91637,0 h 0.62374 v 3.43286 h -0.62374 z m 1.44281,0.0532 c 0.0513,0 0.0975,0.008 0.13849,0.0248 0.0425,0.0164 0.0782,0.0393 0.10749,0.0692 0.0293,0.0299 0.0521,0.0658 0.0682,0.10748 0.0161,0.0402 0.0238,0.0847 0.0238,0.13384 0,0.0491 -0.008,0.0947 -0.0238,0.13643 -0.0161,0.0402 -0.0389,0.0757 -0.0682,0.10697 -0.0293,0.0299 -0.065,0.0533 -0.10749,0.0698 -0.041,0.0164 -0.0872,0.0248 -0.13849,0.0248 -0.0512,0 -0.0981,-0.008 -0.14056,-0.0248 -0.041,-0.0164 -0.0761,-0.0399 -0.10542,-0.0698 -0.0293,-0.0312 -0.0521,-0.0668 -0.0682,-0.10697 -0.0161,-0.0418 -0.0243,-0.0872 -0.0243,-0.13643 0,-0.0491 0.008,-0.0938 0.0243,-0.13384 0.0161,-0.0418 0.0389,-0.0777 0.0682,-0.10748 0.0293,-0.0298 0.0644,-0.0527 0.10542,-0.0692 0.0425,-0.0164 0.0893,-0.0248 0.14056,-0.0248 z m 10.74404,0 c 0.0513,0 0.0975,0.008 0.1385,0.0248 0.0425,0.0164 0.0782,0.0393 0.10748,0.0692 0.0293,0.0299 0.0521,0.0658 0.0682,0.10748 0.0161,0.0402 0.0238,0.0847 0.0238,0.13384 0,0.0491 -0.008,0.0947 -0.0238,0.13643 -0.0161,0.0402 -0.0389,0.0757 -0.0682,0.10697 -0.0293,0.0299 -0.065,0.0533 -0.10748,0.0698 -0.041,0.0164 -0.0872,0.0248 -0.1385,0.0248 -0.0513,0 -0.0981,-0.008 -0.14056,-0.0248 -0.041,-0.0164 -0.0761,-0.0399 -0.10542,-0.0698 -0.0293,-0.0312 -0.0521,-0.0668 -0.0682,-0.10697 -0.0161,-0.0418 -0.0243,-0.0872 -0.0243,-0.13643 0,-0.0491 0.008,-0.0938 0.0243,-0.13384 0.0161,-0.0418 0.0389,-0.0777 0.0682,-0.10748 0.0293,-0.0298 0.0644,-0.0527 0.10542,-0.0692 0.0425,-0.0164 0.0893,-0.0248 0.14056,-0.0248 z m -3.80597,0.0811 c 0.15373,0 0.29198,0.0247 0.41497,0.0754 0.12445,0.0491 0.22987,0.11837 0.31626,0.20774 0.0879,0.0879 0.1552,0.19414 0.20205,0.31781 0.0469,0.12218 0.0703,0.25662 0.0703,0.40411 h -0.64337 c 0,-0.0685 -0.008,-0.13097 -0.0222,-0.18758 -0.0132,-0.0581 -0.0349,-0.10702 -0.0656,-0.14728 -0.0293,-0.0418 -0.0674,-0.0738 -0.11421,-0.0961 -0.0469,-0.0238 -0.10361,-0.0357 -0.16949,-0.0357 -0.0615,0 -0.11481,0.009 -0.1602,0.0289 -0.0439,0.0193 -0.0803,0.0462 -0.10956,0.0806 -0.0293,0.0327 -0.0514,0.0726 -0.0661,0.11885 -0.0146,0.0462 -0.0217,0.0946 -0.0217,0.14677 0,0.0537 0.0106,0.10203 0.0326,0.14521 0.0234,0.0433 0.0556,0.0837 0.0966,0.12092 0.0425,0.0372 0.0934,0.0726 0.15192,0.10542 0.06,0.0327 0.12567,0.0643 0.19741,0.0956 0.14934,0.0552 0.27991,0.11644 0.39119,0.18345 0.11128,0.0671 0.20386,0.14296 0.27854,0.2279 0.0747,0.0849 0.13031,0.18056 0.16691,0.28783 0.0366,0.10578 0.0553,0.2261 0.0553,0.36019 0,0.14303 -0.0234,0.27015 -0.0703,0.38189 -0.0454,0.11174 -0.11153,0.20674 -0.19792,0.28422 -0.0849,0.076 -0.18802,0.13502 -0.30954,0.17673 -0.12153,0.0402 -0.25856,0.0599 -0.41083,0.0599 -0.13763,0 -0.27293,-0.0207 -0.40617,-0.0625 -0.13177,-0.0433 -0.24952,-0.10847 -0.35347,-0.19637 -0.10396,-0.0879 -0.18828,-0.19922 -0.2527,-0.33332 -0.063,-0.13409 -0.0946,-0.29324 -0.0946,-0.478 h 0.64803 c 0,0.0983 0.009,0.18157 0.0284,0.25011 0.019,0.0686 0.0477,0.12475 0.0858,0.16795 0.0395,0.0418 0.0876,0.0721 0.1447,0.0915 0.0571,0.018 0.12384,0.0269 0.19998,0.0269 0.0615,0 0.1136,-0.009 0.15607,-0.0269 0.0439,-0.0194 0.0791,-0.0451 0.10542,-0.0765 0.0278,-0.0327 0.0477,-0.0716 0.0594,-0.11627 0.0117,-0.0446 0.0176,-0.0931 0.0176,-0.14521 0,-0.0566 -0.005,-0.10726 -0.0155,-0.15193 -0.0103,-0.0446 -0.0324,-0.0863 -0.0661,-0.12505 -0.0322,-0.0402 -0.0791,-0.0791 -0.14056,-0.11628 -0.06,-0.0372 -0.14031,-0.0766 -0.24133,-0.11833 -0.12006,-0.0462 -0.23488,-0.099 -0.34469,-0.15865 -0.10834,-0.0596 -0.20438,-0.12939 -0.28783,-0.20981 -0.082,-0.082 -0.14814,-0.17585 -0.19792,-0.28163 -0.0483,-0.10727 -0.0724,-0.23208 -0.0724,-0.37362 0,-0.13557 0.0251,-0.25879 0.0749,-0.37052 0.0498,-0.11323 0.11895,-0.20939 0.20826,-0.28836 0.0908,-0.079 0.19792,-0.14025 0.32091,-0.18345 0.12446,-0.0446 0.26148,-0.0667 0.41082,-0.0667 z m -28.89642,0.0444 h 0.64595 v 2.70888 h 1.13327 v 0.54518 h -1.77922 z m 15.74942,0 h 1.08934 c 0.16253,0 0.30774,0.0269 0.43512,0.0806 0.12885,0.0537 0.2378,0.12901 0.32711,0.22583 0.0893,0.0953 0.15727,0.20898 0.20412,0.34158 0.0483,0.13111 0.0724,0.27397 0.0724,0.42892 0,0.15793 -0.024,0.3013 -0.0724,0.42943 -0.0469,0.12664 -0.1148,0.2341 -0.20412,0.32349 -0.0893,0.0894 -0.19826,0.15909 -0.32711,0.20826 -0.12885,0.0477 -0.27406,0.0718 -0.43512,0.0718 h -0.44338 v 1.14411 h -0.64596 z m 0.64596,0.54777 v 1.01389 h 0.44338 c 0.0674,0 0.12532,-0.0119 0.17364,-0.0357 0.0498,-0.0238 0.0902,-0.0564 0.12092,-0.0982 0.0322,-0.0433 0.0556,-0.094 0.0703,-0.15193 0.0146,-0.0596 0.0217,-0.1238 0.0217,-0.19379 0,-0.07 -0.007,-0.13748 -0.0217,-0.20154 -0.0146,-0.064 -0.0381,-0.12081 -0.0703,-0.17001 -0.0307,-0.0491 -0.0711,-0.0885 -0.12092,-0.11834 -0.0483,-0.0298 -0.10629,-0.0444 -0.17364,-0.0444 z m 7.2254,0.24288 v 5.1e-4 c 0.12738,0 0.24331,0.0207 0.34726,0.0625 0.10542,0.0402 0.19448,0.10041 0.26769,0.18087 0.0747,0.079 0.13203,0.17737 0.17156,0.29507 0.041,0.1177 0.0621,0.25381 0.0636,0.40876 h -0.58446 c -10e-4,-0.13558 -0.0232,-0.23963 -0.0656,-0.31264 -0.0425,-0.0729 -0.11274,-0.10955 -0.21084,-0.10955 -0.0688,0 -0.12386,0.014 -0.16485,0.0424 -0.0395,0.0283 -0.07,0.0699 -0.092,0.12506 -0.0205,0.0537 -0.0344,0.12111 -0.0419,0.20154 -0.006,0.079 -0.009,0.17063 -0.009,0.27492 v 0.17414 c 0,0.10578 0.003,0.1986 0.009,0.27906 0.006,0.079 0.0188,0.14584 0.0393,0.19947 0.022,0.0537 0.0536,0.0937 0.0946,0.1204 0.041,0.0268 0.0966,0.0403 0.16691,0.0403 0.0864,0 0.15314,-0.0269 0.19999,-0.0806 0.0483,-0.0552 0.0729,-0.1474 0.0744,-0.277 h 0.58446 c -10e-4,0.13708 -0.0243,0.26027 -0.0682,0.37052 -0.0439,0.10876 -0.1037,0.20153 -0.17983,0.2775 -0.0747,0.076 -0.16364,0.13393 -0.26614,0.17415 -0.10249,0.0402 -0.21264,0.0605 -0.33124,0.0605 -0.1596,0 -0.29895,-0.0258 -0.41755,-0.078 -0.11859,-0.0522 -0.21756,-0.12803 -0.29662,-0.22634 -0.0776,-0.0998 -0.13617,-0.22187 -0.1757,-0.36639 -0.0381,-0.14451 -0.0568,-0.30927 -0.0568,-0.49402 v -0.17363 c 0,-0.18475 0.0188,-0.35003 0.0568,-0.49455 0.0395,-0.14603 0.0981,-0.26863 0.1757,-0.36845 0.0776,-0.0998 0.17596,-0.17576 0.29456,-0.22789 0.11859,-0.0522 0.25683,-0.0786 0.41496,-0.0786 z m 7.54217,0 v 5.1e-4 c 0.12739,0 0.2428,0.0207 0.34675,0.0625 0.10542,0.0402 0.195,0.10041 0.2682,0.18087 0.0747,0.079 0.13152,0.17737 0.17105,0.29507 0.041,0.1177 0.0621,0.25381 0.0636,0.40876 h -0.58394 c -10e-4,-0.13558 -0.0238,-0.23963 -0.0661,-0.31264 -0.0425,-0.0729 -0.11274,-0.10955 -0.21084,-0.10955 -0.0688,0 -0.12333,0.014 -0.16433,0.0424 -0.0395,0.0283 -0.0705,0.0699 -0.0925,0.12506 -0.0205,0.0537 -0.0345,0.12111 -0.0419,0.20154 -0.006,0.079 -0.009,0.17063 -0.009,0.27492 v 0.17414 c 0,0.10578 0.003,0.1986 0.009,0.27906 0.006,0.079 0.0193,0.14584 0.0398,0.19947 0.022,0.0537 0.0536,0.0937 0.0946,0.1204 0.041,0.0268 0.0966,0.0403 0.16692,0.0403 0.0864,0 0.15262,-0.0269 0.19947,-0.0806 0.0483,-0.0552 0.0735,-0.1474 0.0749,-0.277 h 0.58394 c -0.002,0.13708 -0.0238,0.26027 -0.0677,0.37052 -0.0439,0.10876 -0.10422,0.20153 -0.18035,0.2775 -0.0747,0.076 -0.16313,0.13393 -0.26562,0.17415 -0.10249,0.0402 -0.21316,0.0605 -0.33176,0.0605 -0.1596,0 -0.29843,-0.0258 -0.41703,-0.078 -0.1186,-0.0522 -0.21756,-0.12803 -0.29662,-0.22634 -0.0776,-0.0998 -0.13617,-0.22187 -0.1757,-0.36639 -0.0381,-0.1446 -0.0574,-0.30927 -0.0574,-0.49402 v -0.17415 c 0,-0.18475 0.0193,-0.34951 0.0574,-0.49403 0.0395,-0.14603 0.0981,-0.26863 0.1757,-0.36845 0.0776,-0.0998 0.17544,-0.17576 0.29403,-0.22789 0.1186,-0.0522 0.25735,-0.0786 0.41548,-0.0786 z m 7.56802,0 v 5.1e-4 c 0.12738,0 0.24331,0.0207 0.34726,0.0625 0.10542,0.0402 0.19448,0.10041 0.26769,0.18087 0.0747,0.079 0.13203,0.17737 0.17156,0.29507 0.041,0.1177 0.0621,0.25381 0.0636,0.40876 h -0.58446 c -10e-4,-0.13558 -0.0232,-0.23963 -0.0656,-0.31264 -0.0425,-0.0729 -0.11274,-0.10955 -0.21084,-0.10955 -0.0688,0 -0.12384,0.014 -0.16484,0.0424 -0.0395,0.0283 -0.07,0.0699 -0.092,0.12506 -0.0205,0.0537 -0.0345,0.12111 -0.0419,0.20154 -0.006,0.079 -0.009,0.17063 -0.009,0.27492 v 0.17414 c 0,0.10578 0.003,0.1986 0.009,0.27906 0.006,0.079 0.0188,0.14584 0.0393,0.19947 0.022,0.0537 0.0536,0.0937 0.0946,0.1204 0.041,0.0268 0.0966,0.0403 0.16691,0.0403 0.0864,0 0.15313,-0.0269 0.19999,-0.0806 0.0483,-0.0552 0.073,-0.1474 0.0744,-0.277 h 0.58446 c -10e-4,0.13708 -0.0243,0.26027 -0.0682,0.37052 -0.0439,0.10876 -0.10369,0.20153 -0.17983,0.2775 -0.0747,0.076 -0.16365,0.13393 -0.26614,0.17415 -0.10249,0.0402 -0.21264,0.0605 -0.33124,0.0605 -0.15959,0 -0.29895,-0.0258 -0.41755,-0.078 -0.1186,-0.0522 -0.21756,-0.12803 -0.29662,-0.22634 -0.0776,-0.0998 -0.13617,-0.22187 -0.1757,-0.36639 -0.0381,-0.14451 -0.0568,-0.30927 -0.0568,-0.49402 v -0.17363 c 0,-0.18475 0.0188,-0.35003 0.0568,-0.49455 0.0395,-0.14603 0.0981,-0.26863 0.1757,-0.36845 0.0776,-0.0998 0.17595,-0.17576 0.29455,-0.22789 0.1186,-0.0522 0.25684,-0.0786 0.41497,-0.0786 z m 4.14238,0 v 5.1e-4 c 0.13324,0 0.25218,0.0186 0.3576,0.0558 0.10689,0.0357 0.19766,0.0869 0.27233,0.15399 0.0747,0.0656 0.13204,0.14539 0.17157,0.23926 0.0395,0.0924 0.0594,0.19528 0.0594,0.30851 h -0.62167 c 0,-0.0924 -0.0182,-0.1649 -0.0548,-0.21704 -0.0366,-0.0522 -0.0992,-0.0786 -0.18706,-0.0786 -0.0659,0 -0.11981,0.0207 -0.16227,0.0625 -0.0425,0.0418 -0.0636,0.10022 -0.0636,0.17467 0,0.0312 0.006,0.0594 0.0196,0.0848 0.0146,0.0238 0.0375,0.0474 0.0682,0.0713 0.0322,0.0238 0.0738,0.0489 0.12506,0.0744 0.0512,0.0253 0.11395,0.0541 0.18862,0.0868 0.1186,0.0446 0.22109,0.0914 0.30747,0.14056 0.0878,0.0491 0.16046,0.1048 0.21756,0.16588 0.0571,0.0596 0.0998,0.12714 0.12764,0.20309 0.0278,0.076 0.0413,0.16425 0.0413,0.26407 0,0.10728 -0.0205,0.20459 -0.0615,0.29248 -0.041,0.0879 -0.0996,0.16324 -0.1757,0.22583 -0.0747,0.0626 -0.16545,0.11149 -0.27233,0.14728 -0.10689,0.0343 -0.22583,0.0512 -0.3576,0.0512 -0.14496,0 -0.27319,-0.022 -0.38447,-0.0667 -0.10981,-0.0462 -0.20232,-0.10691 -0.27699,-0.18139 -0.0747,-0.076 -0.13092,-0.16039 -0.16898,-0.25425 -0.0381,-0.0953 -0.0568,-0.1926 -0.0568,-0.29094 h 0.59067 c 0.002,0.0656 0.0103,0.12006 0.0264,0.1633 0.0161,0.0417 0.0372,0.0754 0.0636,0.10077 0.0278,0.0253 0.06,0.0428 0.0966,0.0532 0.0381,0.009 0.0791,0.0134 0.12299,0.0134 0.1667,0 0.25042,-0.0769 0.25063,-0.22996 -9e-5,-0.0311 -0.008,-0.0601 -0.0243,-0.0853 -0.0146,-0.0268 -0.0387,-0.052 -0.0723,-0.0775 -0.0322,-0.0268 -0.0749,-0.0538 -0.12764,-0.0806 -0.0527,-0.0268 -0.11541,-0.0565 -0.18862,-0.0894 -0.10835,-0.0446 -0.20437,-0.0908 -0.28783,-0.13694 -0.0835,-0.0477 -0.15374,-0.10008 -0.21084,-0.15813 -0.0571,-0.0596 -0.10042,-0.12651 -0.12971,-0.19948 -0.0293,-0.0745 -0.0439,-0.15947 -0.0439,-0.25631 0,-0.10135 0.0182,-0.19632 0.0548,-0.28422 0.0381,-0.0895 0.0925,-0.167 0.16278,-0.23255 0.0703,-0.0671 0.15581,-0.11929 0.25683,-0.15657 0.1025,-0.0388 0.21842,-0.0579 0.34727,-0.0579 z m -39.90403,5.1e-4 c 0.11859,0 0.22807,0.0153 0.32763,0.0465 0.0996,0.0298 0.1857,0.0775 0.2589,0.14315 0.0732,0.064 0.13057,0.14672 0.17157,0.24804 0.041,0.0998 0.0615,0.22072 0.0615,0.36226 v 1.0728 c 0,0.07 10e-4,0.13245 0.004,0.18758 0.004,0.0537 0.0103,0.10261 0.0176,0.14728 0.007,0.0433 0.0161,0.0825 0.0263,0.11834 0.0117,0.0343 0.0251,0.0675 0.0398,0.0987 v 0.0377 l -0.62632,5.1e-4 c -0.0117,-0.0253 -0.0217,-0.0541 -0.0305,-0.0853 -0.007,-0.0327 -0.0149,-0.0666 -0.0222,-0.10232 -0.0468,0.0656 -0.10723,0.12013 -0.1819,0.16485 -0.0732,0.0446 -0.16337,0.0677 -0.27026,0.0677 -0.0966,0 -0.18742,-0.0174 -0.27234,-0.0517 -0.0835,-0.0343 -0.15666,-0.0826 -0.21962,-0.14522 -0.0615,-0.0626 -0.11067,-0.13841 -0.14728,-0.22634 -0.0351,-0.0894 -0.0527,-0.18895 -0.0527,-0.2992 0,-0.12217 0.0193,-0.2324 0.0574,-0.33073 0.0395,-0.0998 0.0981,-0.18365 0.1757,-0.25218 0.0791,-0.07 0.17691,-0.12399 0.29404,-0.16124 0.1186,-0.0372 0.25795,-0.0558 0.41754,-0.0558 h 0.16899 v -0.1943 c 0,-0.10876 -0.0182,-0.18527 -0.0548,-0.22996 -0.0366,-0.0447 -0.0904,-0.0677 -0.16072,-0.0677 -0.0805,0 -0.13969,0.0251 -0.17776,0.0744 -0.0366,0.0477 -0.0548,0.11521 -0.0548,0.20309 h -0.62167 c 0,-0.10579 0.0199,-0.20477 0.0594,-0.29714 0.041,-0.0939 0.0996,-0.17545 0.1757,-0.24547 0.0761,-0.07 0.16752,-0.12564 0.2744,-0.16588 0.10689,-0.0417 0.22755,-0.0625 0.36225,-0.0625 z m 6.00016,0 c 0.11859,0 0.22805,0.0153 0.32762,0.0465 0.0996,0.0298 0.1857,0.0775 0.2589,0.14315 0.0732,0.064 0.13057,0.14672 0.17157,0.24804 0.041,0.0998 0.0615,0.22072 0.0615,0.36226 v 1.0728 c 0,0.07 10e-4,0.13245 0.004,0.18758 0.004,0.0537 0.0103,0.10261 0.0176,0.14728 0.007,0.0433 0.016,0.0825 0.0263,0.11834 0.0117,0.0343 0.0251,0.0675 0.0398,0.0987 v 0.0377 l -0.62631,5.1e-4 c -0.0117,-0.0253 -0.0217,-0.0541 -0.0305,-0.0853 -0.007,-0.0327 -0.0149,-0.0666 -0.0222,-0.10232 -0.0469,0.0656 -0.10724,0.12013 -0.18191,0.16485 -0.0732,0.0446 -0.16337,0.0677 -0.27026,0.0677 -0.0966,0 -0.18742,-0.0174 -0.27234,-0.0517 -0.0835,-0.0343 -0.15666,-0.0826 -0.21962,-0.14522 -0.0615,-0.0626 -0.11068,-0.13841 -0.14728,-0.22634 -0.0351,-0.0894 -0.0527,-0.18895 -0.0527,-0.2992 0,-0.12217 0.0193,-0.2324 0.0574,-0.33073 0.0395,-0.0998 0.0981,-0.18365 0.1757,-0.25218 0.0791,-0.07 0.17691,-0.12399 0.29404,-0.16124 0.1186,-0.0372 0.25795,-0.0558 0.41754,-0.0558 h 0.16899 v -0.1943 c 0,-0.10876 -0.0182,-0.18527 -0.0548,-0.22996 -0.0366,-0.0447 -0.0904,-0.0677 -0.16071,-0.0677 -0.0805,0 -0.1397,0.0251 -0.17777,0.0744 -0.0366,0.0477 -0.0548,0.11521 -0.0548,0.20309 h -0.62167 c 0,-0.10579 0.0199,-0.20477 0.0594,-0.29714 0.041,-0.0939 0.0996,-0.17545 0.1757,-0.24547 0.0761,-0.07 0.16751,-0.12564 0.2744,-0.16588 0.10688,-0.0417 0.22756,-0.0625 0.36226,-0.0625 z m 2.40708,0 c 0.0922,0 0.17717,0.0164 0.25477,0.0491 0.0776,0.0312 0.14435,0.083 0.19999,0.15606 0.0556,0.073 0.099,0.16859 0.1297,0.28629 0.0307,0.1177 0.046,0.26274 0.046,0.43408 v 1.53737 h -0.62374 v -1.54047 c 0,-0.0775 -0.006,-0.14105 -0.0176,-0.19172 -0.0117,-0.0507 -0.0293,-0.0912 -0.0527,-0.12092 -0.022,-0.0299 -0.0495,-0.0506 -0.0832,-0.0625 -0.0337,-0.0119 -0.0735,-0.0181 -0.11885,-0.0181 -0.0586,0 -0.10956,0.0158 -0.15348,0.047 -0.0439,0.0312 -0.0808,0.0746 -0.11007,0.1297 v 1.75649 h -0.62374 v -2.41794 h 0.58446 l 0.0176,0.23926 c 0.0688,-0.0924 0.14909,-0.16265 0.24133,-0.21032 0.0922,-0.0491 0.19534,-0.0734 0.30954,-0.0734 z m 7.75974,0 c 0.14788,0 0.28086,0.0257 0.39946,0.078 0.11859,0.0507 0.21988,0.12602 0.30334,0.22582 0.0835,0.0998 0.14788,0.22245 0.19327,0.36845 0.0454,0.14601 0.0677,0.31412 0.0677,0.50333 v 0.15813 c 0,0.19071 -0.0223,0.35939 -0.0677,0.5054 -0.0439,0.14452 -0.10775,0.26656 -0.19121,0.36638 -0.0835,0.0998 -0.18474,0.17517 -0.30334,0.22583 -0.11859,0.0507 -0.25097,0.076 -0.39739,0.076 -0.14788,0 -0.28086,-0.0253 -0.39946,-0.076 -0.11859,-0.0507 -0.21988,-0.12602 -0.30334,-0.22583 -0.0835,-0.0998 -0.14788,-0.22186 -0.19327,-0.36638 -0.0454,-0.14601 -0.0682,-0.31469 -0.0682,-0.5054 v -0.15813 c 0,-0.18921 0.0228,-0.35732 0.0682,-0.50333 0.0454,-0.146 0.10981,-0.26863 0.19327,-0.36845 0.0835,-0.0998 0.18363,-0.17517 0.30076,-0.22582 0.1186,-0.0522 0.25149,-0.078 0.39791,-0.078 z m 15.25695,0 c 0.30162,0 0.52822,0.099 0.67903,0.29714 0.15079,0.19816 0.22582,0.49171 0.22582,0.88057 v 0.28835 h -1.2361 c 0.004,0.0968 0.0167,0.17785 0.0372,0.2434 0.022,0.0656 0.0512,0.11841 0.0879,0.15865 0.0366,0.0402 0.0805,0.0695 0.13177,0.0873 0.0527,0.0178 0.11188,0.0269 0.17777,0.0269 0.10982,0 0.20704,-0.0191 0.29197,-0.0563 0.0864,-0.0388 0.16252,-0.0922 0.22841,-0.16072 l 0.24391,0.38189 c -0.0308,0.0433 -0.0711,0.0871 -0.12092,0.13022 -0.0498,0.0418 -0.10835,0.0794 -0.1757,0.11369 -0.0674,0.0343 -0.14349,0.0618 -0.22841,0.0827 -0.0849,0.0223 -0.1775,0.0331 -0.27853,0.0331 v 5.1e-4 c -0.16252,0 -0.30713,-0.0253 -0.43305,-0.076 -0.12592,-0.0507 -0.23194,-0.12326 -0.31833,-0.21859 -0.0864,-0.0953 -0.15201,-0.21174 -0.1974,-0.34882 -0.0439,-0.13856 -0.0661,-0.296 -0.0661,-0.4718 v -0.19844 c 0,-0.19666 0.0211,-0.36927 0.0636,-0.51676 0.0439,-0.14899 0.10654,-0.2733 0.18707,-0.37311 0.082,-0.10135 0.18156,-0.17723 0.29869,-0.22789 0.1186,-0.0507 0.25218,-0.076 0.40153,-0.076 z m 2.39417,0 c 0.0922,0 0.17716,0.0164 0.25476,0.0491 0.0776,0.0312 0.14435,0.083 0.19999,0.15606 0.0556,0.073 0.0984,0.16859 0.12919,0.28629 0.0308,0.1177 0.0465,0.26274 0.0465,0.43408 v 1.53737 h -0.62374 v -1.54047 c 0,-0.0775 -0.006,-0.14105 -0.0176,-0.19172 -0.0117,-0.0507 -0.0293,-0.0912 -0.0527,-0.12092 -0.022,-0.0299 -0.05,-0.0506 -0.0837,-0.0625 -0.0337,-0.0119 -0.0729,-0.0181 -0.11834,-0.0181 -0.0586,0 -0.11007,0.0158 -0.154,0.047 -0.0439,0.0312 -0.0803,0.0746 -0.10955,0.1297 v 1.75649 h -0.62374 v -2.41794 h 0.58395 l 0.0176,0.23926 c 0.0688,-0.0924 0.14959,-0.16265 0.24184,-0.21032 0.0922,-0.0491 0.19534,-0.0734 0.30955,-0.0734 z m 4.04109,0 c 0.30162,0 0.5277,0.099 0.67851,0.29714 0.1508,0.19816 0.22635,0.49171 0.22635,0.88057 v 0.28835 h -1.23662 c 0.004,0.0968 0.0167,0.17785 0.0372,0.2434 0.022,0.0656 0.0512,0.11841 0.0879,0.15865 0.0366,0.0402 0.0805,0.0695 0.13177,0.0873 0.0527,0.0178 0.1124,0.0269 0.17829,0.0269 0.10981,0 0.20705,-0.0191 0.29197,-0.0563 0.0864,-0.0388 0.16252,-0.0922 0.22841,-0.16072 l 0.24391,0.38189 c -0.0308,0.0433 -0.0711,0.0871 -0.12092,0.13022 -0.0498,0.0418 -0.10834,0.0794 -0.1757,0.11369 -0.0674,0.0343 -0.14349,0.0618 -0.22841,0.0827 -0.0849,0.0223 -0.17803,0.0331 -0.27906,0.0331 v 5.1e-4 c -0.16252,0 -0.30661,-0.0253 -0.43253,-0.076 -0.12592,-0.0507 -0.23193,-0.12326 -0.31832,-0.21859 -0.0864,-0.0953 -0.15253,-0.21174 -0.19792,-0.34882 -0.0439,-0.13856 -0.0656,-0.296 -0.0656,-0.4718 v -0.19844 c 0,-0.19666 0.0211,-0.36927 0.0636,-0.51676 0.0439,-0.14899 0.10602,-0.2733 0.18655,-0.37311 0.082,-0.10135 0.18156,-0.17723 0.29869,-0.22789 0.1186,-0.0507 0.2527,-0.076 0.40204,-0.076 z m -16.19746,0.0439 h 0.66766 l 0.28577,1.36632 0.31626,-1.3658 h 0.66301 l -0.78186,2.78019 c -0.0176,0.0611 -0.0416,0.12748 -0.0724,0.19895 -0.0293,0.0715 -0.0697,0.13788 -0.12092,0.19896 -0.0513,0.0626 -0.11507,0.11425 -0.19121,0.15451 -0.0761,0.0418 -0.16812,0.0625 -0.27647,0.0625 -0.0278,0 -0.053,-0.001 -0.0749,-0.004 -0.0205,-9.9e-4 -0.0399,-0.003 -0.0589,-0.007 -0.0176,-0.003 -0.0362,-0.007 -0.0553,-0.0134 -0.019,-0.005 -0.0407,-0.0108 -0.0656,-0.0181 v -0.49351 c 0.0117,9.9e-4 0.0234,0.002 0.0351,0.002 h 0.0372 c 0.0498,0 0.0931,-0.005 0.1297,-0.016 0.0366,-0.009 0.0671,-0.0237 0.092,-0.0444 0.0264,-0.0208 0.048,-0.0478 0.0641,-0.0806 0.0176,-0.0312 0.0322,-0.0695 0.0439,-0.11421 l 0.0481,-0.16278 z m -20.54345,5.2e-4 h 0.59738 l 0.21084,1.35909 0.31626,-1.35909 h 0.44132 l 0.31626,1.35702 0.21291,-1.35702 h 0.59531 l -0.49196,2.41845 h -0.51625 l -0.3359,-1.39939 -0.33589,1.39939 h -0.51832 z m 17.5612,0 h 0.62374 v 2.41845 h -0.62374 z m 10.74405,0 h 0.62374 v 2.41845 h -0.62374 z m -13.25655,0.48059 c -0.10542,0 -0.18853,0.054 -0.24857,0.16123 -0.0586,0.10578 -0.0879,0.26887 -0.0879,0.48937 v 0.15813 c 0,0.22498 0.0304,0.39025 0.0904,0.49455 0.06,0.10279 0.14323,0.15399 0.25011,0.15399 0.11274,0 0.19767,-0.0512 0.25477,-0.15399 0.0571,-0.1043 0.0858,-0.26957 0.0858,-0.49455 v -0.15813 c 0,-0.2205 -0.0299,-0.38359 -0.0899,-0.48937 -0.06,-0.10727 -0.14495,-0.16123 -0.25476,-0.16123 z m 15.25281,0 c -0.10834,0 -0.18741,0.0394 -0.23719,0.11834 -0.0483,0.079 -0.077,0.20602 -0.0858,0.38033 h 0.62167 v -0.0584 c -0.003,-0.14453 -0.0264,-0.25417 -0.0703,-0.32866 -0.0439,-0.0745 -0.12007,-0.11162 -0.22841,-0.11162 z m 6.43475,0 c -0.10835,0 -0.18741,0.0394 -0.23719,0.11834 -0.0483,0.079 -0.0765,0.20602 -0.0853,0.38033 h 0.62115 v -0.0584 c -0.003,-0.14453 -0.0264,-0.25417 -0.0703,-0.32866 -0.0439,-0.0745 -0.12006,-0.11162 -0.22841,-0.11162 z m -27.50116,0.004 c -0.0615,0 -0.1136,0.0129 -0.15606,0.0382 -0.041,0.0253 -0.0744,0.0641 -0.10077,0.11627 -0.0264,0.0522 -0.0457,0.11967 -0.0574,0.20309 -0.0102,0.082 -0.0155,0.17976 -0.0155,0.29301 v 0.15864 c 0,0.11173 0.005,0.2079 0.0155,0.28836 0.0103,0.0805 0.0278,0.14739 0.0527,0.20102 0.0263,0.0522 0.0603,0.091 0.10128,0.11627 0.0425,0.0238 0.0952,0.0357 0.15813,0.0357 0.0659,0 0.12153,-0.0148 0.16692,-0.0444 0.0454,-0.0299 0.0823,-0.0708 0.11162,-0.12299 v -1.10433 c -0.0293,-0.0566 -0.0674,-0.10003 -0.11421,-0.13126 -0.0454,-0.0312 -0.0993,-0.0475 -0.16226,-0.0475 z m -10.30273,0.83613 c -0.0586,0 -0.10895,0.009 -0.15141,0.0289 -0.0425,0.0193 -0.0782,0.0462 -0.10749,0.0806 -0.0278,0.0343 -0.0494,0.0748 -0.0641,0.12092 -0.0132,0.0462 -0.0196,0.0952 -0.0196,0.14728 0,0.0879 0.0176,0.15484 0.0527,0.20102 0.0366,0.0446 0.0881,0.0672 0.154,0.0672 0.0688,0 0.12738,-0.0146 0.1757,-0.0429 0.0483,-0.0283 0.0841,-0.0614 0.10749,-0.10025 v -0.50281 z m 6.00015,0 c -0.0586,0 -0.10895,0.009 -0.15141,0.0289 -0.0425,0.0193 -0.0782,0.0462 -0.10749,0.0806 -0.0278,0.0343 -0.0494,0.0748 -0.0641,0.12092 -0.0132,0.0462 -0.0196,0.0952 -0.0196,0.14728 0,0.0879 0.0176,0.15484 0.0527,0.20102 0.0366,0.0446 0.0881,0.0672 0.154,0.0672 0.0688,0 0.12738,-0.0146 0.1757,-0.0429 0.0483,-0.0283 0.0841,-0.0614 0.10749,-0.10025 v -0.50281 z" /><path
       id="path164"
       style="fill:#808ff7;fill-opacity:1;stroke-width:0.264583"
       d="m 503.44714,124.61601 c -1.95262,0 -3.5357,1.60977 -3.5357,3.59668 v 3.30626 c 0,1.98693 1.58308,3.5972 3.5357,3.5972 h 48.8518 v -10.50014 z m 49.3696,0 v 10.50014 h 1.96474 v -10.50014 z m -35.13687,3.56723 h 0.62632 v 3.43286 h -0.56483 l -0.0284,-0.24598 c -0.06,0.0909 -0.13092,0.16231 -0.21291,0.21446 -0.0805,0.0507 -0.17363,0.076 -0.27905,0.076 -0.25183,0 -0.44339,-0.0995 -0.57516,-0.29765 -0.13032,-0.19817 -0.19585,-0.48837 -0.19585,-0.87127 v -0.15864 c 0,-0.39631 0.0662,-0.69212 0.19792,-0.88729 0.13178,-0.19518 0.32332,-0.29249 0.57516,-0.29249 0.0966,0 0.18268,0.0213 0.25735,0.0646 0.0761,0.0418 0.14237,0.10079 0.19947,0.17673 z m 6.91637,0 h 0.62374 v 3.43286 h -0.62374 z m 1.44281,0.0532 c 0.0513,0 0.0975,0.008 0.13849,0.0248 0.0425,0.0164 0.0782,0.0393 0.10749,0.0692 0.0293,0.0299 0.0521,0.0658 0.0682,0.10748 0.0161,0.0402 0.0238,0.0847 0.0238,0.13384 0,0.0491 -0.008,0.0947 -0.0238,0.13643 -0.0161,0.0402 -0.0389,0.0757 -0.0682,0.10697 -0.0293,0.0299 -0.065,0.0533 -0.10749,0.0698 -0.041,0.0164 -0.0872,0.0248 -0.13849,0.0248 -0.0512,0 -0.0981,-0.008 -0.14056,-0.0248 -0.041,-0.0164 -0.0761,-0.0399 -0.10542,-0.0698 -0.0293,-0.0312 -0.0521,-0.0668 -0.0682,-0.10697 -0.0161,-0.0418 -0.0243,-0.0872 -0.0243,-0.13643 0,-0.0491 0.008,-0.0938 0.0243,-0.13384 0.0161,-0.0418 0.0389,-0.0777 0.0682,-0.10748 0.0293,-0.0298 0.0644,-0.0527 0.10542,-0.0692 0.0425,-0.0164 0.0893,-0.0248 0.14056,-0.0248 z m 10.74404,0 c 0.0513,0 0.0975,0.008 0.1385,0.0248 0.0425,0.0164 0.0782,0.0393 0.10748,0.0692 0.0293,0.0299 0.0521,0.0658 0.0682,0.10748 0.0161,0.0402 0.0238,0.0847 0.0238,0.13384 0,0.0491 -0.008,0.0947 -0.0238,0.13643 -0.0161,0.0402 -0.0389,0.0757 -0.0682,0.10697 -0.0293,0.0299 -0.065,0.0533 -0.10748,0.0698 -0.041,0.0164 -0.0872,0.0248 -0.1385,0.0248 -0.0513,0 -0.0981,-0.008 -0.14056,-0.0248 -0.041,-0.0164 -0.0761,-0.0399 -0.10542,-0.0698 -0.0293,-0.0312 -0.0521,-0.0668 -0.0682,-0.10697 -0.0161,-0.0418 -0.0243,-0.0872 -0.0243,-0.13643 0,-0.0491 0.008,-0.0938 0.0243,-0.13384 0.0161,-0.0418 0.0389,-0.0777 0.0682,-0.10748 0.0293,-0.0298 0.0644,-0.0527 0.10542,-0.0692 0.0425,-0.0164 0.0893,-0.0248 0.14056,-0.0248 z m -3.80597,0.0811 c 0.15373,0 0.29198,0.0247 0.41497,0.0754 0.12445,0.0491 0.22987,0.11837 0.31626,0.20774 0.0879,0.0879 0.1552,0.19414 0.20205,0.31781 0.0469,0.12218 0.0703,0.25662 0.0703,0.40411 h -0.64337 c 0,-0.0685 -0.008,-0.13097 -0.0222,-0.18758 -0.0132,-0.0581 -0.0349,-0.10702 -0.0656,-0.14728 -0.0293,-0.0418 -0.0674,-0.0738 -0.11421,-0.0961 -0.0469,-0.0238 -0.10361,-0.0357 -0.16949,-0.0357 -0.0615,0 -0.11481,0.009 -0.1602,0.0289 -0.0439,0.0193 -0.0803,0.0462 -0.10956,0.0806 -0.0293,0.0327 -0.0514,0.0726 -0.0661,0.11885 -0.0146,0.0462 -0.0217,0.0946 -0.0217,0.14677 0,0.0537 0.0106,0.10203 0.0326,0.14521 0.0234,0.0433 0.0556,0.0837 0.0966,0.12092 0.0425,0.0372 0.0934,0.0726 0.15192,0.10542 0.06,0.0327 0.12567,0.0643 0.19741,0.0956 0.14934,0.0552 0.27991,0.11644 0.39119,0.18345 0.11128,0.0671 0.20386,0.14296 0.27854,0.2279 0.0747,0.0849 0.13031,0.18056 0.16691,0.28783 0.0366,0.10578 0.0553,0.2261 0.0553,0.36019 0,0.14303 -0.0234,0.27015 -0.0703,0.38189 -0.0454,0.11174 -0.11153,0.20674 -0.19792,0.28422 -0.0849,0.076 -0.18802,0.13502 -0.30954,0.17673 -0.12153,0.0402 -0.25856,0.0599 -0.41083,0.0599 -0.13763,0 -0.27293,-0.0207 -0.40617,-0.0625 -0.13177,-0.0433 -0.24952,-0.10847 -0.35347,-0.19637 -0.10396,-0.0879 -0.18828,-0.19922 -0.2527,-0.33332 -0.063,-0.13409 -0.0946,-0.29324 -0.0946,-0.478 h 0.64803 c 0,0.0983 0.009,0.18157 0.0284,0.25011 0.019,0.0686 0.0477,0.12475 0.0858,0.16795 0.0395,0.0418 0.0876,0.0721 0.1447,0.0915 0.0571,0.018 0.12384,0.0269 0.19998,0.0269 0.0615,0 0.1136,-0.009 0.15607,-0.0269 0.0439,-0.0194 0.0791,-0.0451 0.10542,-0.0765 0.0278,-0.0327 0.0477,-0.0716 0.0594,-0.11627 0.0117,-0.0446 0.0176,-0.0931 0.0176,-0.14521 0,-0.0566 -0.005,-0.10726 -0.0155,-0.15193 -0.0103,-0.0446 -0.0324,-0.0863 -0.0661,-0.12505 -0.0322,-0.0402 -0.0791,-0.0791 -0.14056,-0.11628 -0.06,-0.0372 -0.14031,-0.0766 -0.24133,-0.11833 -0.12006,-0.0462 -0.23488,-0.099 -0.34469,-0.15865 -0.10834,-0.0596 -0.20438,-0.12939 -0.28783,-0.20981 -0.082,-0.082 -0.14814,-0.17585 -0.19792,-0.28163 -0.0483,-0.10727 -0.0724,-0.23208 -0.0724,-0.37362 0,-0.13557 0.0251,-0.25879 0.0749,-0.37052 0.0498,-0.11323 0.11895,-0.20939 0.20826,-0.28836 0.0908,-0.079 0.19792,-0.14025 0.32091,-0.18345 0.12446,-0.0446 0.26148,-0.0667 0.41082,-0.0667 z m -28.89642,0.0444 h 0.64595 v 2.70888 h 1.13327 v 0.54518 h -1.77922 z m 15.74942,0 h 1.08934 c 0.16253,0 0.30774,0.0269 0.43512,0.0806 0.12885,0.0537 0.2378,0.12901 0.32711,0.22583 0.0893,0.0953 0.15727,0.20898 0.20412,0.34158 0.0483,0.13111 0.0724,0.27397 0.0724,0.42892 0,0.15793 -0.024,0.3013 -0.0724,0.42943 -0.0469,0.12664 -0.1148,0.2341 -0.20412,0.32349 -0.0893,0.0894 -0.19826,0.15909 -0.32711,0.20826 -0.12885,0.0477 -0.27406,0.0718 -0.43512,0.0718 h -0.44338 v 1.14411 h -0.64596 z m 0.64596,0.54777 v 1.01389 h 0.44338 c 0.0674,0 0.12532,-0.0119 0.17364,-0.0357 0.0498,-0.0238 0.0902,-0.0564 0.12092,-0.0982 0.0322,-0.0433 0.0556,-0.094 0.0703,-0.15193 0.0146,-0.0596 0.0217,-0.1238 0.0217,-0.19379 0,-0.07 -0.007,-0.13748 -0.0217,-0.20154 -0.0146,-0.064 -0.0381,-0.12081 -0.0703,-0.17001 -0.0307,-0.0491 -0.0711,-0.0885 -0.12092,-0.11834 -0.0483,-0.0298 -0.10629,-0.0444 -0.17364,-0.0444 z m 7.2254,0.24288 v 5.1e-4 c 0.12738,0 0.24331,0.0207 0.34726,0.0625 0.10542,0.0402 0.19448,0.10041 0.26769,0.18087 0.0747,0.079 0.13203,0.17737 0.17156,0.29507 0.041,0.1177 0.0621,0.25381 0.0636,0.40876 h -0.58446 c -10e-4,-0.13558 -0.0232,-0.23963 -0.0656,-0.31264 -0.0425,-0.0729 -0.11274,-0.10955 -0.21084,-0.10955 -0.0688,0 -0.12386,0.014 -0.16485,0.0424 -0.0395,0.0283 -0.07,0.0699 -0.092,0.12506 -0.0205,0.0537 -0.0344,0.12111 -0.0419,0.20154 -0.006,0.079 -0.009,0.17063 -0.009,0.27492 v 0.17414 c 0,0.10578 0.003,0.1986 0.009,0.27906 0.006,0.079 0.0188,0.14584 0.0393,0.19947 0.022,0.0537 0.0536,0.0937 0.0946,0.1204 0.041,0.0268 0.0966,0.0403 0.16691,0.0403 0.0864,0 0.15314,-0.0269 0.19999,-0.0806 0.0483,-0.0552 0.0729,-0.1474 0.0744,-0.277 h 0.58446 c -10e-4,0.13708 -0.0243,0.26027 -0.0682,0.37052 -0.0439,0.10876 -0.1037,0.20153 -0.17983,0.2775 -0.0747,0.076 -0.16364,0.13393 -0.26614,0.17415 -0.10249,0.0402 -0.21264,0.0605 -0.33124,0.0605 -0.1596,0 -0.29895,-0.0258 -0.41755,-0.078 -0.11859,-0.0522 -0.21756,-0.12803 -0.29662,-0.22634 -0.0776,-0.0998 -0.13617,-0.22187 -0.1757,-0.36639 -0.0381,-0.14451 -0.0568,-0.30927 -0.0568,-0.49402 v -0.17363 c 0,-0.18475 0.0188,-0.35003 0.0568,-0.49455 0.0395,-0.14603 0.0981,-0.26863 0.1757,-0.36845 0.0776,-0.0998 0.17596,-0.17576 0.29456,-0.22789 0.11859,-0.0522 0.25683,-0.0786 0.41496,-0.0786 z m 7.54217,0 v 5.1e-4 c 0.12739,0 0.2428,0.0207 0.34675,0.0625 0.10542,0.0402 0.195,0.10041 0.2682,0.18087 0.0747,0.079 0.13152,0.17737 0.17105,0.29507 0.041,0.1177 0.0621,0.25381 0.0636,0.40876 h -0.58394 c -10e-4,-0.13558 -0.0238,-0.23963 -0.0661,-0.31264 -0.0425,-0.0729 -0.11274,-0.10955 -0.21084,-0.10955 -0.0688,0 -0.12333,0.014 -0.16433,0.0424 -0.0395,0.0283 -0.0705,0.0699 -0.0925,0.12506 -0.0205,0.0537 -0.0345,0.12111 -0.0419,0.20154 -0.006,0.079 -0.009,0.17063 -0.009,0.27492 v 0.17414 c 0,0.10578 0.003,0.1986 0.009,0.27906 0.006,0.079 0.0193,0.14584 0.0398,0.19947 0.022,0.0537 0.0536,0.0937 0.0946,0.1204 0.041,0.0268 0.0966,0.0403 0.16692,0.0403 0.0864,0 0.15262,-0.0269 0.19947,-0.0806 0.0483,-0.0552 0.0735,-0.1474 0.0749,-0.277 h 0.58394 c -0.002,0.13708 -0.0238,0.26027 -0.0677,0.37052 -0.0439,0.10876 -0.10422,0.20153 -0.18035,0.2775 -0.0747,0.076 -0.16313,0.13393 -0.26562,0.17415 -0.10249,0.0402 -0.21316,0.0605 -0.33176,0.0605 -0.1596,0 -0.29843,-0.0258 -0.41703,-0.078 -0.1186,-0.0522 -0.21756,-0.12803 -0.29662,-0.22634 -0.0776,-0.0998 -0.13617,-0.22187 -0.1757,-0.36639 -0.0381,-0.1446 -0.0574,-0.30927 -0.0574,-0.49402 v -0.17415 c 0,-0.18475 0.0193,-0.34951 0.0574,-0.49403 0.0395,-0.14603 0.0981,-0.26863 0.1757,-0.36845 0.0776,-0.0998 0.17544,-0.17576 0.29403,-0.22789 0.1186,-0.0522 0.25735,-0.0786 0.41548,-0.0786 z m 7.56802,0 v 5.1e-4 c 0.12738,0 0.24331,0.0207 0.34726,0.0625 0.10542,0.0402 0.19448,0.10041 0.26769,0.18087 0.0747,0.079 0.13203,0.17737 0.17156,0.29507 0.041,0.1177 0.0621,0.25381 0.0636,0.40876 h -0.58446 c -10e-4,-0.13558 -0.0232,-0.23963 -0.0656,-0.31264 -0.0425,-0.0729 -0.11274,-0.10955 -0.21084,-0.10955 -0.0688,0 -0.12384,0.014 -0.16484,0.0424 -0.0395,0.0283 -0.07,0.0699 -0.092,0.12506 -0.0205,0.0537 -0.0345,0.12111 -0.0419,0.20154 -0.006,0.079 -0.009,0.17063 -0.009,0.27492 v 0.17414 c 0,0.10578 0.003,0.1986 0.009,0.27906 0.006,0.079 0.0188,0.14584 0.0393,0.19947 0.022,0.0537 0.0536,0.0937 0.0946,0.1204 0.041,0.0268 0.0966,0.0403 0.16691,0.0403 0.0864,0 0.15313,-0.0269 0.19999,-0.0806 0.0483,-0.0552 0.073,-0.1474 0.0744,-0.277 h 0.58446 c -10e-4,0.13708 -0.0243,0.26027 -0.0682,0.37052 -0.0439,0.10876 -0.10369,0.20153 -0.17983,0.2775 -0.0747,0.076 -0.16365,0.13393 -0.26614,0.17415 -0.10249,0.0402 -0.21264,0.0605 -0.33124,0.0605 -0.15959,0 -0.29895,-0.0258 -0.41755,-0.078 -0.1186,-0.0522 -0.21756,-0.12803 -0.29662,-0.22634 -0.0776,-0.0998 -0.13617,-0.22187 -0.1757,-0.36639 -0.0381,-0.14451 -0.0568,-0.30927 -0.0568,-0.49402 v -0.17363 c 0,-0.18475 0.0188,-0.35003 0.0568,-0.49455 0.0395,-0.14603 0.0981,-0.26863 0.1757,-0.36845 0.0776,-0.0998 0.17595,-0.17576 0.29455,-0.22789 0.1186,-0.0522 0.25684,-0.0786 0.41497,-0.0786 z m 4.14238,0 v 5.1e-4 c 0.13324,0 0.25218,0.0186 0.3576,0.0558 0.10689,0.0357 0.19766,0.0869 0.27233,0.15399 0.0747,0.0656 0.13204,0.14539 0.17157,0.23926 0.0395,0.0924 0.0594,0.19528 0.0594,0.30851 h -0.62167 c 0,-0.0924 -0.0182,-0.1649 -0.0548,-0.21704 -0.0366,-0.0522 -0.0992,-0.0786 -0.18706,-0.0786 -0.0659,0 -0.11981,0.0207 -0.16227,0.0625 -0.0425,0.0418 -0.0636,0.10022 -0.0636,0.17467 0,0.0312 0.006,0.0594 0.0196,0.0848 0.0146,0.0238 0.0375,0.0474 0.0682,0.0713 0.0322,0.0238 0.0738,0.0489 0.12506,0.0744 0.0512,0.0253 0.11395,0.0541 0.18862,0.0868 0.1186,0.0446 0.22109,0.0914 0.30747,0.14056 0.0878,0.0491 0.16046,0.1048 0.21756,0.16588 0.0571,0.0596 0.0998,0.12714 0.12764,0.20309 0.0278,0.076 0.0413,0.16425 0.0413,0.26407 0,0.10728 -0.0205,0.20459 -0.0615,0.29248 -0.041,0.0879 -0.0996,0.16324 -0.1757,0.22583 -0.0747,0.0626 -0.16545,0.11149 -0.27233,0.14728 -0.10689,0.0343 -0.22583,0.0512 -0.3576,0.0512 -0.14496,0 -0.27319,-0.022 -0.38447,-0.0667 -0.10981,-0.0462 -0.20232,-0.10691 -0.27699,-0.18139 -0.0747,-0.076 -0.13092,-0.16039 -0.16898,-0.25425 -0.0381,-0.0953 -0.0568,-0.1926 -0.0568,-0.29094 h 0.59067 c 0.002,0.0656 0.0103,0.12006 0.0264,0.1633 0.0161,0.0417 0.0372,0.0754 0.0636,0.10077 0.0278,0.0253 0.06,0.0428 0.0966,0.0532 0.0381,0.009 0.0791,0.0134 0.12299,0.0134 0.1667,0 0.25042,-0.0769 0.25063,-0.22996 -9e-5,-0.0311 -0.008,-0.0601 -0.0243,-0.0853 -0.0146,-0.0268 -0.0387,-0.052 -0.0723,-0.0775 -0.0322,-0.0268 -0.0749,-0.0538 -0.12764,-0.0806 -0.0527,-0.0268 -0.11541,-0.0565 -0.18862,-0.0894 -0.10835,-0.0446 -0.20437,-0.0908 -0.28783,-0.13694 -0.0835,-0.0477 -0.15374,-0.10008 -0.21084,-0.15813 -0.0571,-0.0596 -0.10042,-0.12651 -0.12971,-0.19948 -0.0293,-0.0745 -0.0439,-0.15947 -0.0439,-0.25631 0,-0.10135 0.0182,-0.19632 0.0548,-0.28422 0.0381,-0.0895 0.0925,-0.167 0.16278,-0.23255 0.0703,-0.0671 0.15581,-0.11929 0.25683,-0.15657 0.1025,-0.0388 0.21842,-0.0579 0.34727,-0.0579 z m -39.90403,5.1e-4 c 0.11859,0 0.22807,0.0153 0.32763,0.0465 0.0996,0.0298 0.1857,0.0775 0.2589,0.14315 0.0732,0.064 0.13057,0.14672 0.17157,0.24804 0.041,0.0998 0.0615,0.22072 0.0615,0.36226 v 1.0728 c 0,0.07 10e-4,0.13245 0.004,0.18758 0.004,0.0537 0.0103,0.10261 0.0176,0.14728 0.007,0.0433 0.0161,0.0825 0.0263,0.11834 0.0117,0.0343 0.0251,0.0675 0.0398,0.0987 v 0.0377 l -0.62632,5.1e-4 c -0.0117,-0.0253 -0.0217,-0.0541 -0.0305,-0.0853 -0.007,-0.0327 -0.0149,-0.0666 -0.0222,-0.10232 -0.0468,0.0656 -0.10723,0.12013 -0.1819,0.16485 -0.0732,0.0446 -0.16337,0.0677 -0.27026,0.0677 -0.0966,0 -0.18742,-0.0174 -0.27234,-0.0517 -0.0835,-0.0343 -0.15666,-0.0826 -0.21962,-0.14522 -0.0615,-0.0626 -0.11067,-0.13841 -0.14728,-0.22634 -0.0351,-0.0894 -0.0527,-0.18895 -0.0527,-0.2992 0,-0.12217 0.0193,-0.2324 0.0574,-0.33073 0.0395,-0.0998 0.0981,-0.18365 0.1757,-0.25218 0.0791,-0.07 0.17691,-0.12399 0.29404,-0.16124 0.1186,-0.0372 0.25795,-0.0558 0.41754,-0.0558 h 0.16899 v -0.1943 c 0,-0.10876 -0.0182,-0.18527 -0.0548,-0.22996 -0.0366,-0.0447 -0.0904,-0.0677 -0.16072,-0.0677 -0.0805,0 -0.13969,0.0251 -0.17776,0.0744 -0.0366,0.0477 -0.0548,0.11521 -0.0548,0.20309 h -0.62167 c 0,-0.10579 0.0199,-0.20477 0.0594,-0.29714 0.041,-0.0939 0.0996,-0.17545 0.1757,-0.24547 0.0761,-0.07 0.16752,-0.12564 0.2744,-0.16588 0.10689,-0.0417 0.22755,-0.0625 0.36225,-0.0625 z m 6.00016,0 c 0.11859,0 0.22805,0.0153 0.32762,0.0465 0.0996,0.0298 0.1857,0.0775 0.2589,0.14315 0.0732,0.064 0.13057,0.14672 0.17157,0.24804 0.041,0.0998 0.0615,0.22072 0.0615,0.36226 v 1.0728 c 0,0.07 10e-4,0.13245 0.004,0.18758 0.004,0.0537 0.0103,0.10261 0.0176,0.14728 0.007,0.0433 0.016,0.0825 0.0263,0.11834 0.0117,0.0343 0.0251,0.0675 0.0398,0.0987 v 0.0377 l -0.62631,5.1e-4 c -0.0117,-0.0253 -0.0217,-0.0541 -0.0305,-0.0853 -0.007,-0.0327 -0.0149,-0.0666 -0.0222,-0.10232 -0.0469,0.0656 -0.10724,0.12013 -0.18191,0.16485 -0.0732,0.0446 -0.16337,0.0677 -0.27026,0.0677 -0.0966,0 -0.18742,-0.0174 -0.27234,-0.0517 -0.0835,-0.0343 -0.15666,-0.0826 -0.21962,-0.14522 -0.0615,-0.0626 -0.11068,-0.13841 -0.14728,-0.22634 -0.0351,-0.0894 -0.0527,-0.18895 -0.0527,-0.2992 0,-0.12217 0.0193,-0.2324 0.0574,-0.33073 0.0395,-0.0998 0.0981,-0.18365 0.1757,-0.25218 0.0791,-0.07 0.17691,-0.12399 0.29404,-0.16124 0.1186,-0.0372 0.25795,-0.0558 0.41754,-0.0558 h 0.16899 v -0.1943 c 0,-0.10876 -0.0182,-0.18527 -0.0548,-0.22996 -0.0366,-0.0447 -0.0904,-0.0677 -0.16071,-0.0677 -0.0805,0 -0.1397,0.0251 -0.17777,0.0744 -0.0366,0.0477 -0.0548,0.11521 -0.0548,0.20309 h -0.62167 c 0,-0.10579 0.0199,-0.20477 0.0594,-0.29714 0.041,-0.0939 0.0996,-0.17545 0.1757,-0.24547 0.0761,-0.07 0.16751,-0.12564 0.2744,-0.16588 0.10688,-0.0417 0.22756,-0.0625 0.36226,-0.0625 z m 2.40708,0 c 0.0922,0 0.17717,0.0164 0.25477,0.0491 0.0776,0.0312 0.14435,0.083 0.19999,0.15606 0.0556,0.073 0.099,0.16859 0.1297,0.28629 0.0307,0.1177 0.046,0.26274 0.046,0.43408 v 1.53737 h -0.62374 v -1.54047 c 0,-0.0775 -0.006,-0.14105 -0.0176,-0.19172 -0.0117,-0.0507 -0.0293,-0.0912 -0.0527,-0.12092 -0.022,-0.0299 -0.0495,-0.0506 -0.0832,-0.0625 -0.0337,-0.0119 -0.0735,-0.0181 -0.11885,-0.0181 -0.0586,0 -0.10956,0.0158 -0.15348,0.047 -0.0439,0.0312 -0.0808,0.0746 -0.11007,0.1297 v 1.75649 h -0.62374 v -2.41794 h 0.58446 l 0.0176,0.23926 c 0.0688,-0.0924 0.14909,-0.16265 0.24133,-0.21032 0.0922,-0.0491 0.19534,-0.0734 0.30954,-0.0734 z m 7.75974,0 c 0.14788,0 0.28086,0.0257 0.39946,0.078 0.11859,0.0507 0.21988,0.12602 0.30334,0.22582 0.0835,0.0998 0.14788,0.22245 0.19327,0.36845 0.0454,0.14601 0.0677,0.31412 0.0677,0.50333 v 0.15813 c 0,0.19071 -0.0223,0.35939 -0.0677,0.5054 -0.0439,0.14452 -0.10775,0.26656 -0.19121,0.36638 -0.0835,0.0998 -0.18474,0.17517 -0.30334,0.22583 -0.11859,0.0507 -0.25097,0.076 -0.39739,0.076 -0.14788,0 -0.28086,-0.0253 -0.39946,-0.076 -0.11859,-0.0507 -0.21988,-0.12602 -0.30334,-0.22583 -0.0835,-0.0998 -0.14788,-0.22186 -0.19327,-0.36638 -0.0454,-0.14601 -0.0682,-0.31469 -0.0682,-0.5054 v -0.15813 c 0,-0.18921 0.0228,-0.35732 0.0682,-0.50333 0.0454,-0.146 0.10981,-0.26863 0.19327,-0.36845 0.0835,-0.0998 0.18363,-0.17517 0.30076,-0.22582 0.1186,-0.0522 0.25149,-0.078 0.39791,-0.078 z m 15.25695,0 c 0.30162,0 0.52822,0.099 0.67903,0.29714 0.15079,0.19816 0.22582,0.49171 0.22582,0.88057 v 0.28835 h -1.2361 c 0.004,0.0968 0.0167,0.17785 0.0372,0.2434 0.022,0.0656 0.0512,0.11841 0.0879,0.15865 0.0366,0.0402 0.0805,0.0695 0.13177,0.0873 0.0527,0.0178 0.11188,0.0269 0.17777,0.0269 0.10982,0 0.20704,-0.0191 0.29197,-0.0563 0.0864,-0.0388 0.16252,-0.0922 0.22841,-0.16072 l 0.24391,0.38189 c -0.0308,0.0433 -0.0711,0.0871 -0.12092,0.13022 -0.0498,0.0418 -0.10835,0.0794 -0.1757,0.11369 -0.0674,0.0343 -0.14349,0.0618 -0.22841,0.0827 -0.0849,0.0223 -0.1775,0.0331 -0.27853,0.0331 v 5.1e-4 c -0.16252,0 -0.30713,-0.0253 -0.43305,-0.076 -0.12592,-0.0507 -0.23194,-0.12326 -0.31833,-0.21859 -0.0864,-0.0953 -0.15201,-0.21174 -0.1974,-0.34882 -0.0439,-0.13856 -0.0661,-0.296 -0.0661,-0.4718 v -0.19844 c 0,-0.19666 0.0211,-0.36927 0.0636,-0.51676 0.0439,-0.14899 0.10654,-0.2733 0.18707,-0.37311 0.082,-0.10135 0.18156,-0.17723 0.29869,-0.22789 0.1186,-0.0507 0.25218,-0.076 0.40153,-0.076 z m 2.39417,0 c 0.0922,0 0.17716,0.0164 0.25476,0.0491 0.0776,0.0312 0.14435,0.083 0.19999,0.15606 0.0556,0.073 0.0984,0.16859 0.12919,0.28629 0.0308,0.1177 0.0465,0.26274 0.0465,0.43408 v 1.53737 h -0.62374 v -1.54047 c 0,-0.0775 -0.006,-0.14105 -0.0176,-0.19172 -0.0117,-0.0507 -0.0293,-0.0912 -0.0527,-0.12092 -0.022,-0.0299 -0.05,-0.0506 -0.0837,-0.0625 -0.0337,-0.0119 -0.0729,-0.0181 -0.11834,-0.0181 -0.0586,0 -0.11007,0.0158 -0.154,0.047 -0.0439,0.0312 -0.0803,0.0746 -0.10955,0.1297 v 1.75649 h -0.62374 v -2.41794 h 0.58395 l 0.0176,0.23926 c 0.0688,-0.0924 0.14959,-0.16265 0.24184,-0.21032 0.0922,-0.0491 0.19534,-0.0734 0.30955,-0.0734 z m 4.04109,0 c 0.30162,0 0.5277,0.099 0.67851,0.29714 0.1508,0.19816 0.22635,0.49171 0.22635,0.88057 v 0.28835 h -1.23662 c 0.004,0.0968 0.0167,0.17785 0.0372,0.2434 0.022,0.0656 0.0512,0.11841 0.0879,0.15865 0.0366,0.0402 0.0805,0.0695 0.13177,0.0873 0.0527,0.0178 0.1124,0.0269 0.17829,0.0269 0.10981,0 0.20705,-0.0191 0.29197,-0.0563 0.0864,-0.0388 0.16252,-0.0922 0.22841,-0.16072 l 0.24391,0.38189 c -0.0308,0.0433 -0.0711,0.0871 -0.12092,0.13022 -0.0498,0.0418 -0.10834,0.0794 -0.1757,0.11369 -0.0674,0.0343 -0.14349,0.0618 -0.22841,0.0827 -0.0849,0.0223 -0.17803,0.0331 -0.27906,0.0331 v 5.1e-4 c -0.16252,0 -0.30661,-0.0253 -0.43253,-0.076 -0.12592,-0.0507 -0.23193,-0.12326 -0.31832,-0.21859 -0.0864,-0.0953 -0.15253,-0.21174 -0.19792,-0.34882 -0.0439,-0.13856 -0.0656,-0.296 -0.0656,-0.4718 v -0.19844 c 0,-0.19666 0.0211,-0.36927 0.0636,-0.51676 0.0439,-0.14899 0.10602,-0.2733 0.18655,-0.37311 0.082,-0.10135 0.18156,-0.17723 0.29869,-0.22789 0.1186,-0.0507 0.2527,-0.076 0.40204,-0.076 z m -16.19746,0.0439 h 0.66766 l 0.28577,1.36632 0.31626,-1.3658 h 0.66301 l -0.78186,2.78019 c -0.0176,0.0611 -0.0416,0.12748 -0.0724,0.19895 -0.0293,0.0715 -0.0697,0.13788 -0.12092,0.19896 -0.0513,0.0626 -0.11507,0.11425 -0.19121,0.15451 -0.0761,0.0418 -0.16812,0.0625 -0.27647,0.0625 -0.0278,0 -0.053,-0.001 -0.0749,-0.004 -0.0205,-9.9e-4 -0.0399,-0.003 -0.0589,-0.007 -0.0176,-0.003 -0.0362,-0.007 -0.0553,-0.0134 -0.019,-0.005 -0.0407,-0.0108 -0.0656,-0.0181 v -0.49351 c 0.0117,9.9e-4 0.0234,0.002 0.0351,0.002 h 0.0372 c 0.0498,0 0.0931,-0.005 0.1297,-0.016 0.0366,-0.009 0.0671,-0.0237 0.092,-0.0444 0.0264,-0.0208 0.048,-0.0478 0.0641,-0.0806 0.0176,-0.0312 0.0322,-0.0695 0.0439,-0.11421 l 0.0481,-0.16278 z m -20.54345,5.2e-4 h 0.59738 l 0.21084,1.35909 0.31626,-1.35909 h 0.44132 l 0.31626,1.35702 0.21291,-1.35702 h 0.59531 l -0.49196,2.41845 h -0.51625 l -0.3359,-1.39939 -0.33589,1.39939 h -0.51832 z m 17.5612,0 h 0.62374 v 2.41845 h -0.62374 z m 10.74405,0 h 0.62374 v 2.41845 h -0.62374 z m -13.25655,0.48059 c -0.10542,0 -0.18853,0.054 -0.24857,0.16123 -0.0586,0.10578 -0.0879,0.26887 -0.0879,0.48937 v 0.15813 c 0,0.22498 0.0304,0.39025 0.0904,0.49455 0.06,0.10279 0.14323,0.15399 0.25011,0.15399 0.11274,0 0.19767,-0.0512 0.25477,-0.15399 0.0571,-0.1043 0.0858,-0.26957 0.0858,-0.49455 v -0.15813 c 0,-0.2205 -0.0299,-0.38359 -0.0899,-0.48937 -0.06,-0.10727 -0.14495,-0.16123 -0.25476,-0.16123 z m 15.25281,0 c -0.10834,0 -0.18741,0.0394 -0.23719,0.11834 -0.0483,0.079 -0.077,0.20602 -0.0858,0.38033 h 0.62167 v -0.0584 c -0.003,-0.14453 -0.0264,-0.25417 -0.0703,-0.32866 -0.0439,-0.0745 -0.12007,-0.11162 -0.22841,-0.11162 z m 6.43475,0 c -0.10835,0 -0.18741,0.0394 -0.23719,0.11834 -0.0483,0.079 -0.0765,0.20602 -0.0853,0.38033 h 0.62115 v -0.0584 c -0.003,-0.14453 -0.0264,-0.25417 -0.0703,-0.32866 -0.0439,-0.0745 -0.12006,-0.11162 -0.22841,-0.11162 z m -27.50116,0.004 c -0.0615,0 -0.1136,0.0129 -0.15606,0.0382 -0.041,0.0253 -0.0744,0.0641 -0.10077,0.11627 -0.0264,0.0522 -0.0457,0.11967 -0.0574,0.20309 -0.0102,0.082 -0.0155,0.17976 -0.0155,0.29301 v 0.15864 c 0,0.11173 0.005,0.2079 0.0155,0.28836 0.0103,0.0805 0.0278,0.14739 0.0527,0.20102 0.0263,0.0522 0.0603,0.091 0.10128,0.11627 0.0425,0.0238 0.0952,0.0357 0.15813,0.0357 0.0659,0 0.12153,-0.0148 0.16692,-0.0444 0.0454,-0.0299 0.0823,-0.0708 0.11162,-0.12299 v -1.10433 c -0.0293,-0.0566 -0.0674,-0.10003 -0.11421,-0.13126 -0.0454,-0.0312 -0.0993,-0.0475 -0.16226,-0.0475 z m -10.30273,0.83613 c -0.0586,0 -0.10895,0.009 -0.15141,0.0289 -0.0425,0.0193 -0.0782,0.0462 -0.10749,0.0806 -0.0278,0.0343 -0.0494,0.0748 -0.0641,0.12092 -0.0132,0.0462 -0.0196,0.0952 -0.0196,0.14728 0,0.0879 0.0176,0.15484 0.0527,0.20102 0.0366,0.0446 0.0881,0.0672 0.154,0.0672 0.0688,0 0.12738,-0.0146 0.1757,-0.0429 0.0483,-0.0283 0.0841,-0.0614 0.10749,-0.10025 v -0.50281 z m 6.00015,0 c -0.0586,0 -0.10895,0.009 -0.15141,0.0289 -0.0425,0.0193 -0.0782,0.0462 -0.10749,0.0806 -0.0278,0.0343 -0.0494,0.0748 -0.0641,0.12092 -0.0132,0.0462 -0.0196,0.0952 -0.0196,0.14728 0,0.0879 0.0176,0.15484 0.0527,0.20102 0.0366,0.0446 0.0881,0.0672 0.154,0.0672 0.0688,0 0.12738,-0.0146 0.1757,-0.0429 0.0483,-0.0283 0.0841,-0.0614 0.10749,-0.10025 v -0.50281 z" /></g></svg>
