<?xml version="1.0" encoding="UTF-8" standalone="no"?>
<!-- Created with Inkscape (http://www.inkscape.org/) -->

<svg
   width="29.460733mm"
   height="10.499618mm"
   viewBox="0 0 29.460733 10.499618"
   version="1.1"
   id="svg1"
   xml:space="preserve"
   inkscape:version="1.3.1 (91b66b0783, 2023-11-16)"
   sodipodi:docname="topic_4.svg"
   xmlns:inkscape="http://www.inkscape.org/namespaces/inkscape"
   xmlns:sodipodi="http://sodipodi.sourceforge.net/DTD/sodipodi-0.dtd"
   xmlns="http://www.w3.org/2000/svg"
   xmlns:svg="http://www.w3.org/2000/svg"><sodipodi:namedview
     id="namedview1"
     pagecolor="#ffffff"
     bordercolor="#000000"
     borderopacity="0.25"
     inkscape:showpageshadow="2"
     inkscape:pageopacity="0.0"
     inkscape:pagecheckerboard="0"
     inkscape:deskcolor="#d1d1d1"
     inkscape:document-units="mm"
     inkscape:zoom="2.828427"
     inkscape:cx="199.22734"
     inkscape:cy="15.02602"
     inkscape:window-width="2560"
     inkscape:window-height="1346"
     inkscape:window-x="-11"
     inkscape:window-y="-11"
     inkscape:window-maximized="1"
     inkscape:current-layer="layer1"
     showgrid="true"><inkscape:grid
       id="grid668"
       units="mm"
       originx="-541.53881"
       originy="-95.677408"
       spacingx="0.5"
       spacingy="0.5"
       empcolor="#0099e5"
       empopacity="0.30196078"
       color="#0099e5"
       opacity="0.14901961"
       empspacing="5"
       dotted="false"
       gridanglex="30"
       gridanglez="30"
       visible="true" /></sodipodi:namedview><defs
     id="defs1" /><g
     inkscape:label="Layer 1"
     inkscape:groupmode="layer"
     id="layer1"
     transform="translate(-541.53883,-95.677404)"><rect
       style="fill:#f9f9f9;fill-opacity:1;stroke-width:0.499999;stroke-linejoin:round;stroke-miterlimit:3.4;stroke-dashoffset:19.8539"
       id="rect233"
       width="18.446163"
       height="7.4999967"
       x="544.05389"
       y="97.5" /><path
       id="path741"
       style="fill:#2c2c6f;fill-opacity:1;stroke-width:0.264583"
       d="m 545.16497,95.677404 c -2.00263,0 -3.62613,1.610339 -3.62613,3.597197 v 3.305219 c 0,1.98686 1.6235,3.5972 3.62613,3.5972 h 18.33428 V 95.677404 Z m 18.85208,0 v 10.499616 h 1.96474 V 95.677404 Z m 2.48254,0 v 10.499616 h 1.99987 V 95.677404 Z m 2.49959,0 v 10.499616 h 2.00039 V 95.677404 Z m -17.73691,3.477824 h 0.62374 v 3.347082 h -0.62374 z m -3.06183,0.05219 c 0.0513,0 0.0975,0.0078 0.1385,0.02377 0.0425,0.01598 0.0782,0.03865 0.10748,0.0677 0.0293,0.02906 0.0521,0.06372 0.0682,0.104386 0.0161,0.03922 0.0243,0.0828 0.0243,0.130741 0,0.04794 -0.008,0.09214 -0.0243,0.132809 -0.0161,0.03922 -0.0389,0.07439 -0.0682,0.104903 -0.0293,0.02905 -0.065,0.05173 -0.10748,0.0677 -0.041,0.01598 -0.0872,0.02377 -0.1385,0.02377 -0.0513,0 -0.0981,-0.0078 -0.14056,-0.02377 -0.041,-0.01598 -0.0761,-0.03865 -0.10541,-0.0677 -0.0293,-0.03051 -0.0521,-0.06568 -0.0682,-0.104903 -0.0161,-0.04068 -0.0238,-0.08488 -0.0238,-0.132809 0,-0.04794 0.008,-0.09151 0.0238,-0.130741 0.0161,-0.04068 0.0389,-0.07534 0.0682,-0.104386 0.0293,-0.02906 0.0644,-0.05173 0.10541,-0.0677 0.0425,-0.01598 0.0893,-0.02377 0.14056,-0.02377 z m -2.83083,0.121957 h 0.98805 c 0.15959,0 0.30248,0.01784 0.4284,0.05271 0.12738,0.03486 0.23513,0.08809 0.32298,0.160713 0.0879,0.07118 0.1546,0.16132 0.19999,0.270268 0.0469,0.108947 0.0703,0.237334 0.0703,0.385504 0,0.0726 -0.008,0.14247 -0.0243,0.20929 -0.0146,0.0668 -0.0386,0.12948 -0.0724,0.18759 -0.0322,0.0581 -0.0743,0.11123 -0.12557,0.15916 -0.0498,0.0465 -0.10956,0.0847 -0.17984,0.11524 0.082,0.0233 0.15167,0.059 0.20878,0.10697 0.0571,0.0465 0.10283,0.10083 0.13797,0.1633 0.0351,0.0625 0.0609,0.13055 0.077,0.20464 0.0161,0.0726 0.0243,0.1478 0.0243,0.22479 0,0.30796 -0.0855,0.54023 -0.25683,0.69711 -0.16984,0.15689 -0.41695,0.23565 -0.74053,0.23565 h -1.05833 z m 0.64544,0.533817 v 0.793238 h 0.33641 c 0.12884,0 0.22377,-0.0323 0.28526,-0.0977 0.063,-0.0668 0.0946,-0.16466 0.0946,-0.29249 0,-0.14381 -0.0292,-0.24656 -0.0879,-0.309029 -0.0586,-0.06246 -0.15399,-0.09405 -0.28577,-0.09405 z m 3.86798,0.237708 c 0.14789,0 0.28087,0.0251 0.39946,0.076 0.1186,0.0494 0.21989,0.12282 0.30334,0.22015 0.0835,0.0973 0.14788,0.21731 0.19327,0.35966 0.0454,0.14236 0.0677,0.30593 0.0677,0.49041 v 0.15452 c 0,0.18594 -0.0223,0.35012 -0.0677,0.49248 -0.0439,0.1409 -0.10774,0.26027 -0.1912,0.3576 -0.0835,0.0973 -0.18474,0.17023 -0.30334,0.21962 -0.1186,0.0494 -0.25099,0.0744 -0.3974,0.0744 -0.14788,0 -0.28086,-0.025 -0.39946,-0.0744 -0.1186,-0.0494 -0.21988,-0.1223 -0.30334,-0.21962 -0.0835,-0.0973 -0.14788,-0.2167 -0.19327,-0.3576 -0.0454,-0.14236 -0.0682,-0.30654 -0.0682,-0.49248 v -0.15452 c 0,-0.18448 0.0228,-0.34805 0.0682,-0.49041 0.0454,-0.14235 0.10981,-0.26234 0.19327,-0.35966 0.0835,-0.0973 0.18362,-0.17076 0.30076,-0.22015 0.11859,-0.0509 0.2515,-0.076 0.39791,-0.076 z m 3.37085,0 c 0.14788,0 0.28139,0.0251 0.39998,0.076 0.1186,0.0494 0.21936,0.12282 0.30282,0.22015 0.0835,0.0973 0.14788,0.21731 0.19327,0.35966 0.0454,0.14236 0.0682,0.30593 0.0682,0.49041 v 0.15452 c 0,0.18594 -0.0228,0.35012 -0.0682,0.49248 -0.0439,0.1409 -0.10722,0.26027 -0.19068,0.3576 -0.0835,0.0973 -0.18474,0.17023 -0.30334,0.21962 -0.1186,0.0494 -0.25098,0.0744 -0.3974,0.0744 -0.14788,0 -0.28137,-0.025 -0.39997,-0.0744 -0.11859,-0.0494 -0.21937,-0.1223 -0.30283,-0.21962 -0.0835,-0.0973 -0.14788,-0.2167 -0.19327,-0.3576 -0.0454,-0.14236 -0.0682,-0.30654 -0.0682,-0.49248 v -0.15452 c 0,-0.18448 0.0228,-0.34805 0.0682,-0.49041 0.0454,-0.14235 0.10981,-0.26234 0.19327,-0.35966 0.0835,-0.0973 0.18362,-0.17076 0.30076,-0.22015 0.11859,-0.0509 0.25097,-0.076 0.39739,-0.076 z m 2.07791,0 c 0.11567,0 0.21351,0.0227 0.29404,0.0677 0.0805,0.0436 0.14901,0.10511 0.20464,0.18501 l 0.0238,-0.20929 h 0.56017 v 2.35799 c 0,0.16124 -0.0239,0.29927 -0.0723,0.41548 -0.0468,0.11766 -0.1136,0.21488 -0.19999,0.29042 -0.0864,0.0755 -0.19008,0.13111 -0.31161,0.16743 -0.12006,0.0363 -0.25416,0.0543 -0.40204,0.0543 -0.0556,0 -0.11714,-0.006 -0.18449,-0.017 -0.0674,-0.0116 -0.1347,-0.029 -0.20205,-0.0522 -0.0674,-0.0218 -0.13178,-0.0504 -0.19327,-0.0853 -0.06,-0.0334 -0.11042,-0.0729 -0.15141,-0.11937 l 0.20825,-0.42737 c 0.0278,0.029 0.0612,0.0559 0.0992,0.0806 0.0395,0.0261 0.0805,0.0477 0.12299,0.0651 0.0439,0.0189 0.0891,0.0332 0.13591,0.0434 0.0469,0.0116 0.0925,0.0176 0.13643,0.0176 0.063,0 0.1186,-0.007 0.16691,-0.0217 0.0498,-0.0131 0.0914,-0.0363 0.12506,-0.0698 0.0337,-0.0334 0.0583,-0.0771 0.0744,-0.13229 0.0176,-0.0552 0.0264,-0.12443 0.0264,-0.20722 v -0.18966 c -0.0571,0.0741 -0.12333,0.13141 -0.19947,0.17209 -0.0747,0.0392 -0.16252,0.0589 -0.26355,0.0589 -0.12592,0 -0.23893,-0.025 -0.33849,-0.0744 -0.0981,-0.0494 -0.18129,-0.12168 -0.25011,-0.21756 -0.0674,-0.0959 -0.11946,-0.21462 -0.15606,-0.35553 -0.0366,-0.14236 -0.0548,-0.30602 -0.0548,-0.49196 v -0.15503 c 0,-0.3864 0.0703,-0.67476 0.21084,-0.86506 0.14056,-0.19029 0.33736,-0.28525 0.59066,-0.28525 z m -7.44089,0.0434 h 0.62374 v 2.358 h -0.62374 z m 8.785,0 h 0.66766 l 0.28525,1.33119 0.31626,-1.33119 h 0.66353 l -0.78187,2.71043 c -0.0176,0.0596 -0.0416,0.12407 -0.0724,0.19379 -0.0293,0.0697 -0.0697,0.13474 -0.12092,0.1943 -0.0512,0.061 -0.11506,0.11116 -0.1912,0.15038 -0.0761,0.0407 -0.16812,0.061 -0.27647,0.061 -0.0278,0 -0.053,-0.002 -0.0749,-0.005 -0.0205,-0.001 -0.0404,-0.003 -0.0594,-0.006 -0.0176,-0.003 -0.0357,-0.008 -0.0548,-0.0134 -0.019,-0.004 -0.0407,-0.0103 -0.0656,-0.0176 v -0.48111 c 0.0117,0.002 0.0234,0.002 0.0351,0.002 h 0.0372 c 0.0498,0 0.0931,-0.005 0.12971,-0.0155 0.0366,-0.009 0.0671,-0.0231 0.092,-0.0434 0.0264,-0.0203 0.0475,-0.0466 0.0636,-0.0786 0.0176,-0.0305 0.0322,-0.067 0.0439,-0.11059 l 0.0486,-0.15968 z m -6.79287,0.46871 c -0.10542,0 -0.18853,0.052 -0.24856,0.15658 -0.0586,0.10314 -0.0879,0.2625 -0.0879,0.47749 v 0.15451 c 0,0.21935 0.0304,0.37994 0.0904,0.48162 0.06,0.10024 0.14323,0.15038 0.25011,0.15038 0.11274,0 0.19767,-0.0501 0.25477,-0.15038 0.0571,-0.10168 0.0858,-0.26227 0.0858,-0.48162 v -0.15451 c 0,-0.21499 -0.0299,-0.37435 -0.0899,-0.47749 -0.06,-0.10459 -0.14495,-0.15658 -0.25476,-0.15658 z m 3.37085,0 c -0.10542,0 -0.18801,0.052 -0.24804,0.15658 -0.0586,0.10314 -0.0879,0.2625 -0.0879,0.47749 v 0.15451 c 0,0.21935 0.0299,0.37994 0.0899,0.48162 0.06,0.10024 0.14375,0.15038 0.25063,0.15038 0.11274,0 0.19766,-0.0501 0.25477,-0.15038 0.0571,-0.10168 0.0858,-0.26227 0.0858,-0.48162 v -0.15451 c 0,-0.21499 -0.0304,-0.37435 -0.0904,-0.47749 -0.06,-0.10459 -0.14496,-0.15658 -0.25477,-0.15658 z m 2.26033,0.004 c -0.12299,0 -0.21489,0.0502 -0.27492,0.15038 -0.0586,0.10023 -0.0879,0.26144 -0.0879,0.48369 v 0.15503 c 0,0.2179 0.0287,0.37674 0.0858,0.47697 0.0571,0.0988 0.14788,0.14832 0.27234,0.14832 0.0674,0 0.12359,-0.0119 0.16898,-0.0351 0.0468,-0.0247 0.0849,-0.0587 0.11421,-0.10232 v -1.12655 c -0.0307,-0.0479 -0.0694,-0.085 -0.11628,-0.11111 -0.0454,-0.0261 -0.0993,-0.0393 -0.16226,-0.0393 z m -9.49916,0.5054 v 0.84801 h 0.41289 c 0.063,0 0.1168,-0.0107 0.16072,-0.031 0.0454,-0.0203 0.0817,-0.0484 0.10955,-0.0847 0.0293,-0.0378 0.0504,-0.0813 0.0636,-0.13074 0.0132,-0.0494 0.0202,-0.10374 0.0202,-0.1633 0,-0.13509 -0.0257,-0.24195 -0.077,-0.32039 -0.0498,-0.0784 -0.13471,-0.11782 -0.25477,-0.11782 z"
       inkscape:export-filename="topic_tags\topic_4.svg"
       inkscape:export-xdpi="96"
       inkscape:export-ydpi="96" /><path
       id="path168"
       style="fill:#808ff7;fill-opacity:1;stroke-width:0.264583"
       d="m 545.16497,95.677404 c -2.00263,0 -3.62613,1.610339 -3.62613,3.597197 v 3.305219 c 0,1.98686 1.6235,3.5972 3.62613,3.5972 h 18.33428 V 95.677404 Z m 18.85208,0 v 10.499616 h 1.96474 V 95.677404 Z m 2.48254,0 v 10.499616 h 1.99987 V 95.677404 Z m 2.49959,0 v 10.499616 h 2.00039 V 95.677404 Z m -17.73691,3.477824 h 0.62374 v 3.347082 h -0.62374 z m -3.06183,0.05219 c 0.0513,0 0.0975,0.0078 0.1385,0.02377 0.0425,0.01598 0.0782,0.03865 0.10748,0.0677 0.0293,0.02906 0.0521,0.06372 0.0682,0.104386 0.0161,0.03922 0.0243,0.0828 0.0243,0.130741 0,0.04794 -0.008,0.09214 -0.0243,0.132809 -0.0161,0.03922 -0.0389,0.07439 -0.0682,0.104903 -0.0293,0.02905 -0.065,0.05173 -0.10748,0.0677 -0.041,0.01598 -0.0872,0.02377 -0.1385,0.02377 -0.0513,0 -0.0981,-0.0078 -0.14056,-0.02377 -0.041,-0.01598 -0.0761,-0.03865 -0.10541,-0.0677 -0.0293,-0.03051 -0.0521,-0.06568 -0.0682,-0.104903 -0.0161,-0.04068 -0.0238,-0.08488 -0.0238,-0.132809 0,-0.04794 0.008,-0.09151 0.0238,-0.130741 0.0161,-0.04068 0.0389,-0.07534 0.0682,-0.104386 0.0293,-0.02906 0.0644,-0.05173 0.10541,-0.0677 0.0425,-0.01598 0.0893,-0.02377 0.14056,-0.02377 z m -2.83083,0.121957 h 0.98805 c 0.15959,0 0.30248,0.01784 0.4284,0.05271 0.12738,0.03486 0.23513,0.08809 0.32298,0.160713 0.0879,0.07118 0.1546,0.16132 0.19999,0.270268 0.0469,0.108947 0.0703,0.237334 0.0703,0.385504 0,0.0726 -0.008,0.14247 -0.0243,0.20929 -0.0146,0.0668 -0.0386,0.12948 -0.0724,0.18759 -0.0322,0.0581 -0.0743,0.11123 -0.12557,0.15916 -0.0498,0.0465 -0.10956,0.0847 -0.17984,0.11524 0.082,0.0233 0.15167,0.059 0.20878,0.10697 0.0571,0.0465 0.10283,0.10083 0.13797,0.1633 0.0351,0.0625 0.0609,0.13055 0.077,0.20464 0.0161,0.0726 0.0243,0.1478 0.0243,0.22479 0,0.30796 -0.0855,0.54023 -0.25683,0.69711 -0.16984,0.15689 -0.41695,0.23565 -0.74053,0.23565 h -1.05833 z m 0.64544,0.533817 v 0.793238 h 0.33641 c 0.12884,0 0.22377,-0.0323 0.28526,-0.0977 0.063,-0.0668 0.0946,-0.16466 0.0946,-0.29249 0,-0.14381 -0.0292,-0.24656 -0.0879,-0.309029 -0.0586,-0.06246 -0.15399,-0.09405 -0.28577,-0.09405 z m 3.86798,0.237708 c 0.14789,0 0.28087,0.0251 0.39946,0.076 0.1186,0.0494 0.21989,0.12282 0.30334,0.22015 0.0835,0.0973 0.14788,0.21731 0.19327,0.35966 0.0454,0.14236 0.0677,0.30593 0.0677,0.49041 v 0.15452 c 0,0.18594 -0.0223,0.35012 -0.0677,0.49248 -0.0439,0.1409 -0.10774,0.26027 -0.1912,0.3576 -0.0835,0.0973 -0.18474,0.17023 -0.30334,0.21962 -0.1186,0.0494 -0.25099,0.0744 -0.3974,0.0744 -0.14788,0 -0.28086,-0.025 -0.39946,-0.0744 -0.1186,-0.0494 -0.21988,-0.1223 -0.30334,-0.21962 -0.0835,-0.0973 -0.14788,-0.2167 -0.19327,-0.3576 -0.0454,-0.14236 -0.0682,-0.30654 -0.0682,-0.49248 v -0.15452 c 0,-0.18448 0.0228,-0.34805 0.0682,-0.49041 0.0454,-0.14235 0.10981,-0.26234 0.19327,-0.35966 0.0835,-0.0973 0.18362,-0.17076 0.30076,-0.22015 0.11859,-0.0509 0.2515,-0.076 0.39791,-0.076 z m 3.37085,0 c 0.14788,0 0.28139,0.0251 0.39998,0.076 0.1186,0.0494 0.21936,0.12282 0.30282,0.22015 0.0835,0.0973 0.14788,0.21731 0.19327,0.35966 0.0454,0.14236 0.0682,0.30593 0.0682,0.49041 v 0.15452 c 0,0.18594 -0.0228,0.35012 -0.0682,0.49248 -0.0439,0.1409 -0.10722,0.26027 -0.19068,0.3576 -0.0835,0.0973 -0.18474,0.17023 -0.30334,0.21962 -0.1186,0.0494 -0.25098,0.0744 -0.3974,0.0744 -0.14788,0 -0.28137,-0.025 -0.39997,-0.0744 -0.11859,-0.0494 -0.21937,-0.1223 -0.30283,-0.21962 -0.0835,-0.0973 -0.14788,-0.2167 -0.19327,-0.3576 -0.0454,-0.14236 -0.0682,-0.30654 -0.0682,-0.49248 v -0.15452 c 0,-0.18448 0.0228,-0.34805 0.0682,-0.49041 0.0454,-0.14235 0.10981,-0.26234 0.19327,-0.35966 0.0835,-0.0973 0.18362,-0.17076 0.30076,-0.22015 0.11859,-0.0509 0.25097,-0.076 0.39739,-0.076 z m 2.07791,0 c 0.11567,0 0.21351,0.0227 0.29404,0.0677 0.0805,0.0436 0.14901,0.10511 0.20464,0.18501 l 0.0238,-0.20929 h 0.56017 v 2.35799 c 0,0.16124 -0.0239,0.29927 -0.0723,0.41548 -0.0468,0.11766 -0.1136,0.21488 -0.19999,0.29042 -0.0864,0.0755 -0.19008,0.13111 -0.31161,0.16743 -0.12006,0.0363 -0.25416,0.0543 -0.40204,0.0543 -0.0556,0 -0.11714,-0.006 -0.18449,-0.017 -0.0674,-0.0116 -0.1347,-0.029 -0.20205,-0.0522 -0.0674,-0.0218 -0.13178,-0.0504 -0.19327,-0.0853 -0.06,-0.0334 -0.11042,-0.0729 -0.15141,-0.11937 l 0.20825,-0.42737 c 0.0278,0.029 0.0612,0.0559 0.0992,0.0806 0.0395,0.0261 0.0805,0.0477 0.12299,0.0651 0.0439,0.0189 0.0891,0.0332 0.13591,0.0434 0.0469,0.0116 0.0925,0.0176 0.13643,0.0176 0.063,0 0.1186,-0.007 0.16691,-0.0217 0.0498,-0.0131 0.0914,-0.0363 0.12506,-0.0698 0.0337,-0.0334 0.0583,-0.0771 0.0744,-0.13229 0.0176,-0.0552 0.0264,-0.12443 0.0264,-0.20722 v -0.18966 c -0.0571,0.0741 -0.12333,0.13141 -0.19947,0.17209 -0.0747,0.0392 -0.16252,0.0589 -0.26355,0.0589 -0.12592,0 -0.23893,-0.025 -0.33849,-0.0744 -0.0981,-0.0494 -0.18129,-0.12168 -0.25011,-0.21756 -0.0674,-0.0959 -0.11946,-0.21462 -0.15606,-0.35553 -0.0366,-0.14236 -0.0548,-0.30602 -0.0548,-0.49196 v -0.15503 c 0,-0.3864 0.0703,-0.67476 0.21084,-0.86506 0.14056,-0.19029 0.33736,-0.28525 0.59066,-0.28525 z m -7.44089,0.0434 h 0.62374 v 2.358 h -0.62374 z m 8.785,0 h 0.66766 l 0.28525,1.33119 0.31626,-1.33119 h 0.66353 l -0.78187,2.71043 c -0.0176,0.0596 -0.0416,0.12407 -0.0724,0.19379 -0.0293,0.0697 -0.0697,0.13474 -0.12092,0.1943 -0.0512,0.061 -0.11506,0.11116 -0.1912,0.15038 -0.0761,0.0407 -0.16812,0.061 -0.27647,0.061 -0.0278,0 -0.053,-0.002 -0.0749,-0.005 -0.0205,-0.001 -0.0404,-0.003 -0.0594,-0.006 -0.0176,-0.003 -0.0357,-0.008 -0.0548,-0.0134 -0.019,-0.004 -0.0407,-0.0103 -0.0656,-0.0176 v -0.48111 c 0.0117,0.002 0.0234,0.002 0.0351,0.002 h 0.0372 c 0.0498,0 0.0931,-0.005 0.12971,-0.0155 0.0366,-0.009 0.0671,-0.0231 0.092,-0.0434 0.0264,-0.0203 0.0475,-0.0466 0.0636,-0.0786 0.0176,-0.0305 0.0322,-0.067 0.0439,-0.11059 l 0.0486,-0.15968 z m -6.79287,0.46871 c -0.10542,0 -0.18853,0.052 -0.24856,0.15658 -0.0586,0.10314 -0.0879,0.2625 -0.0879,0.47749 v 0.15451 c 0,0.21935 0.0304,0.37994 0.0904,0.48162 0.06,0.10024 0.14323,0.15038 0.25011,0.15038 0.11274,0 0.19767,-0.0501 0.25477,-0.15038 0.0571,-0.10168 0.0858,-0.26227 0.0858,-0.48162 v -0.15451 c 0,-0.21499 -0.0299,-0.37435 -0.0899,-0.47749 -0.06,-0.10459 -0.14495,-0.15658 -0.25476,-0.15658 z m 3.37085,0 c -0.10542,0 -0.18801,0.052 -0.24804,0.15658 -0.0586,0.10314 -0.0879,0.2625 -0.0879,0.47749 v 0.15451 c 0,0.21935 0.0299,0.37994 0.0899,0.48162 0.06,0.10024 0.14375,0.15038 0.25063,0.15038 0.11274,0 0.19766,-0.0501 0.25477,-0.15038 0.0571,-0.10168 0.0858,-0.26227 0.0858,-0.48162 v -0.15451 c 0,-0.21499 -0.0304,-0.37435 -0.0904,-0.47749 -0.06,-0.10459 -0.14496,-0.15658 -0.25477,-0.15658 z m 2.26033,0.004 c -0.12299,0 -0.21489,0.0502 -0.27492,0.15038 -0.0586,0.10023 -0.0879,0.26144 -0.0879,0.48369 v 0.15503 c 0,0.2179 0.0287,0.37674 0.0858,0.47697 0.0571,0.0988 0.14788,0.14832 0.27234,0.14832 0.0674,0 0.12359,-0.0119 0.16898,-0.0351 0.0468,-0.0247 0.0849,-0.0587 0.11421,-0.10232 v -1.12655 c -0.0307,-0.0479 -0.0694,-0.085 -0.11628,-0.11111 -0.0454,-0.0261 -0.0993,-0.0393 -0.16226,-0.0393 z m -9.49916,0.5054 v 0.84801 h 0.41289 c 0.063,0 0.1168,-0.0107 0.16072,-0.031 0.0454,-0.0203 0.0817,-0.0484 0.10955,-0.0847 0.0293,-0.0378 0.0504,-0.0813 0.0636,-0.13074 0.0132,-0.0494 0.0202,-0.10374 0.0202,-0.1633 0,-0.13509 -0.0257,-0.24195 -0.077,-0.32039 -0.0498,-0.0784 -0.13471,-0.11782 -0.25477,-0.11782 z"
       inkscape:export-filename="topic_tags\topic_4.svg"
       inkscape:export-xdpi="96"
       inkscape:export-ydpi="96" /></g></svg>
