<?xml version="1.0" encoding="UTF-8" standalone="no"?>
<!-- Created with Inkscape (http://www.inkscape.org/) -->

<svg
   width="41.987617mm"
   height="10.500135mm"
   viewBox="0 0 41.987617 10.500135"
   version="1.1"
   id="svg1"
   xml:space="preserve"
   inkscape:version="1.3.1 (91b66b0783, 2023-11-16)"
   sodipodi:docname="topic_6.svg"
   xmlns:inkscape="http://www.inkscape.org/namespaces/inkscape"
   xmlns:sodipodi="http://sodipodi.sourceforge.net/DTD/sodipodi-0.dtd"
   xmlns="http://www.w3.org/2000/svg"
   xmlns:svg="http://www.w3.org/2000/svg"><sodipodi:namedview
     id="namedview1"
     pagecolor="#ffffff"
     bordercolor="#000000"
     borderopacity="0.25"
     inkscape:showpageshadow="2"
     inkscape:pageopacity="0.0"
     inkscape:pagecheckerboard="0"
     inkscape:deskcolor="#d1d1d1"
     inkscape:document-units="mm"
     inkscape:zoom="2.828427"
     inkscape:cx="43.310292"
     inkscape:cy="-39.067651"
     inkscape:window-width="2560"
     inkscape:window-height="1346"
     inkscape:window-x="-11"
     inkscape:window-y="-11"
     inkscape:window-maximized="1"
     inkscape:current-layer="layer1"
     showgrid="true"><inkscape:grid
       id="grid668"
       units="mm"
       originx="-633.91717"
       originy="-95.677142"
       spacingx="0.5"
       spacingy="0.5"
       empcolor="#0099e5"
       empopacity="0.30196078"
       color="#0099e5"
       opacity="0.14901961"
       empspacing="5"
       dotted="false"
       gridanglex="30"
       gridanglez="30"
       visible="true" /></sodipodi:namedview><defs
     id="defs1" /><g
     inkscape:label="Layer 1"
     inkscape:groupmode="layer"
     id="layer1"
     transform="translate(-633.91719,-95.677144)"><rect
       style="fill:#f9f9f9;fill-opacity:1;stroke-width:0.499999;stroke-linejoin:round;stroke-miterlimit:3.4;stroke-dashoffset:19.8539"
       id="rect235"
       width="22.500002"
       height="7.5"
       x="637.50006"
       y="97.5" /><path
       id="path740"
       style="fill:#2c2c6f;fill-opacity:1;stroke-width:0.264583"
       d="m 637.54334,95.677146 c -2.00263,0 -3.62614,1.610855 -3.62614,3.597713 v 3.304711 c 0,1.98686 1.62351,3.59771 3.62614,3.59771 H 660.9047 V 95.677146 Z m 23.87916,0 v 10.500134 h 1.96474 V 95.677146 Z m 2.48254,0 v 10.500134 h 1.99987 V 95.677146 Z m 2.49959,0 v 10.500134 h 2.00039 V 95.677146 Z m 2.5001,0 v 10.500134 h 1.99988 V 95.677146 Z m 2.50011,0 v 10.500134 h 1.99987 V 95.677146 Z m 2.5001,0 v 10.500134 h 1.99988 V 95.677146 Z m -33.47186,3.477824 h 0.62167 v 1.19631 c 0.0644,-0.0799 0.13764,-0.14142 0.21963,-0.185 0.0835,-0.0436 0.17545,-0.0656 0.27647,-0.0656 0.0981,0 0.18827,0.0167 0.27026,0.0501 0.082,0.0334 0.15227,0.0865 0.21084,0.15916 0.0586,0.0726 0.1037,0.16698 0.13591,0.28319 0.0322,0.11621 0.0486,0.25773 0.0486,0.42478 v 1.48414 h -0.62374 v -1.48828 c 0,-0.0755 -0.006,-0.13881 -0.0176,-0.18965 -0.0117,-0.0508 -0.0293,-0.0914 -0.0527,-0.12196 -0.0234,-0.0305 -0.0521,-0.052 -0.0858,-0.0651 -0.0337,-0.0131 -0.0729,-0.0202 -0.11834,-0.0202 -0.0615,0 -0.11359,0.0137 -0.15606,0.0413 -0.0425,0.0276 -0.0782,0.0657 -0.10749,0.11369 v 1.73012 h -0.62167 z m 8.05584,0.05271 c 0.0513,0 0.0975,0.0073 0.1385,0.02325 0.0425,0.01598 0.0782,0.03865 0.10748,0.0677 0.0293,0.02906 0.0521,0.06423 0.0682,0.104903 0.0161,0.03922 0.0238,0.0828 0.0238,0.130741 0,0.04794 -0.008,0.09162 -0.0238,0.132292 -0.0161,0.03922 -0.0389,0.07439 -0.0682,0.104903 -0.0293,0.02906 -0.065,0.05173 -0.10748,0.0677 -0.041,0.01598 -0.0872,0.02377 -0.1385,0.02377 -0.0512,0 -0.0981,-0.0078 -0.14056,-0.02377 -0.041,-0.01598 -0.0761,-0.03865 -0.10542,-0.0677 -0.0293,-0.03051 -0.0521,-0.06568 -0.0682,-0.104903 -0.0161,-0.04068 -0.0243,-0.08436 -0.0243,-0.132292 0,-0.04794 0.008,-0.09151 0.0243,-0.130741 0.0161,-0.04068 0.0389,-0.07585 0.0682,-0.104903 0.0293,-0.02905 0.0644,-0.05173 0.10542,-0.0677 0.0425,-0.01598 0.0893,-0.02325 0.14056,-0.02325 z m -9.50536,0.07803 c 0.34847,0 0.61263,0.0967 0.79272,0.289905 0.18156,0.193201 0.28465,0.470285 0.30954,0.831995 h -0.64751 c -0.003,-0.11331 -0.0134,-0.20765 -0.031,-0.28319 -0.0161,-0.077 -0.0419,-0.137905 -0.077,-0.182936 -0.0351,-0.04503 -0.0809,-0.07672 -0.13798,-0.0956 -0.0556,-0.01888 -0.12531,-0.02842 -0.20877,-0.02842 -0.0864,0 -0.1602,0.01487 -0.22169,0.04393 -0.06,0.02906 -0.10921,0.07571 -0.14728,0.141076 -0.0381,0.0639 -0.0667,0.14872 -0.0858,0.25477 -0.0176,0.10459 -0.0264,0.23349 -0.0264,0.38602 v 0.54467 c 0,0.14817 0.007,0.2742 0.0217,0.37879 0.0146,0.10459 0.0404,0.19052 0.077,0.25735 0.0366,0.0654 0.0852,0.11315 0.14522,0.14366 0.06,0.0305 0.13617,0.046 0.22841,0.046 0.0791,0 0.14641,-0.008 0.20205,-0.0238 0.0571,-0.0174 0.10395,-0.0473 0.14056,-0.0894 0.0366,-0.0421 0.0642,-0.10007 0.0832,-0.17415 0.019,-0.0741 0.0308,-0.16834 0.0351,-0.28164 h 0.64595 c -0.0161,0.36171 -0.1186,0.63623 -0.30747,0.82217 -0.18888,0.18594 -0.45536,0.27854 -0.79943,0.27854 -0.17716,0 -0.33529,-0.0287 -0.47439,-0.0868 -0.13909,-0.0581 -0.25622,-0.14466 -0.3514,-0.25942 -0.0952,-0.11476 -0.16838,-0.25679 -0.21963,-0.4253 -0.0498,-0.16995 -0.0749,-0.36521 -0.0749,-0.58601 v -0.54053 c 0,-0.2208 0.0257,-0.41605 0.077,-0.58601 0.0527,-0.169961 0.12824,-0.312093 0.22634,-0.426851 0.0981,-0.114758 0.21643,-0.201309 0.35553,-0.259415 0.13909,-0.05956 0.29603,-0.0894 0.47026,-0.0894 z m 12.44368,0.279053 h 0.62167 v 0.579297 h 0.31833 v 0.46405 h -0.31833 v 1.17047 c 0,0.0494 0.003,0.09 0.009,0.12196 0.007,0.032 0.0184,0.0571 0.0331,0.076 0.0161,0.0174 0.036,0.0299 0.0594,0.0372 0.0234,0.006 0.0516,0.009 0.0853,0.009 0.0307,0 0.0588,-0.002 0.0837,-0.005 0.0264,-0.003 0.0474,-0.007 0.0636,-0.0108 l -0.004,0.47956 c -0.0469,0.0174 -0.0978,0.0312 -0.15192,0.0413 -0.0542,0.0116 -0.11749,0.0176 -0.19069,0.0176 -0.0922,0 -0.17595,-0.0131 -0.25063,-0.0393 -0.0747,-0.0247 -0.13909,-0.0647 -0.19327,-0.1199 -0.0527,-0.0566 -0.0937,-0.12946 -0.12299,-0.21807 -0.0278,-0.0886 -0.0419,-0.19495 -0.0419,-0.31988 v -1.24023 h -0.2744 v -0.46406 h 0.2744 z m -7.86877,0.535887 c 0.30162,0 0.52772,0.0962 0.67852,0.28939 0.15081,0.1932 0.22634,0.47972 0.22634,0.85886 v 0.28112 h -1.23662 c 0.004,0.0944 0.0167,0.17328 0.0372,0.23719 0.022,0.0639 0.0512,0.11582 0.0879,0.15503 0.0366,0.0392 0.0805,0.0678 0.13177,0.0853 0.0527,0.0174 0.11188,0.0258 0.17777,0.0258 0.10981,0 0.20757,-0.0179 0.29249,-0.0543 0.0864,-0.0378 0.16252,-0.0903 0.22841,-0.15709 l 0.2434,0.37258 c -0.0307,0.0421 -0.0706,0.0845 -0.12041,0.12661 -0.0498,0.0407 -0.10835,0.0777 -0.1757,0.1111 -0.0673,0.0334 -0.14349,0.0603 -0.22841,0.0806 -0.0849,0.0218 -0.17803,0.0326 -0.27905,0.0326 -0.16252,0 -0.30663,-0.025 -0.43254,-0.0744 -0.12592,-0.0494 -0.23245,-0.11993 -0.31884,-0.2129 -0.0864,-0.093 -0.15201,-0.20639 -0.1974,-0.34003 -0.0439,-0.1351 -0.0661,-0.28851 -0.0661,-0.45992 v -0.19379 c 0,-0.19175 0.0216,-0.35952 0.0641,-0.50333 0.0439,-0.14526 0.10602,-0.26699 0.18655,-0.36432 0.082,-0.0988 0.18156,-0.1723 0.29869,-0.22169 0.1186,-0.0494 0.2527,-0.0744 0.40204,-0.0744 z m 2.40916,0 c 0.10981,0 0.20765,0.0256 0.29404,0.0765 0.0879,0.0508 0.15752,0.13145 0.20877,0.24184 0.0644,-0.10023 0.14409,-0.17786 0.23926,-0.23306 0.0966,-0.0567 0.21084,-0.0853 0.34262,-0.0853 0.0966,0 0.18388,0.0161 0.26148,0.0481 0.0791,0.032 0.14643,0.0833 0.20206,0.15452 0.0556,0.0712 0.099,0.16377 0.1297,0.27853 0.0308,0.11476 0.046,0.25556 0.046,0.42116 v 1.49914 h -0.62167 v -1.50171 c 0,-0.0784 -0.006,-0.14233 -0.0176,-0.19172 -0.0102,-0.0494 -0.0261,-0.0876 -0.0481,-0.11524 -0.022,-0.029 -0.0483,-0.0487 -0.0791,-0.0589 -0.0307,-0.0116 -0.0659,-0.0176 -0.10542,-0.0176 -0.0615,0 -0.1136,0.0191 -0.15606,0.0568 -0.0425,0.0378 -0.077,0.0897 -0.10335,0.15503 10e-4,0.016 0.003,0.0322 0.003,0.0496 10e-4,0.0174 0.002,0.0348 0.002,0.0522 v 1.57148 h -0.62167 v -1.49706 c 0,-0.0784 -0.006,-0.14233 -0.0181,-0.19172 -0.0103,-0.0508 -0.0261,-0.0908 -0.0481,-0.11989 -0.0205,-0.029 -0.0469,-0.0487 -0.0791,-0.0589 -0.0307,-0.0116 -0.0659,-0.0176 -0.10542,-0.0176 -0.0571,0 -0.10689,0.0155 -0.14935,0.046 -0.041,0.0305 -0.0761,0.0724 -0.10542,0.12609 v 1.71307 h -0.62166 v -2.35799 h 0.58187 l 0.0176,0.21807 c 0.0659,-0.0828 0.14435,-0.14669 0.23513,-0.19172 0.0922,-0.0465 0.19766,-0.0698 0.31626,-0.0698 z m 4.10466,0 c 0.13324,0 0.2527,0.0179 0.35812,0.0543 0.10689,0.0349 0.19766,0.0855 0.27233,0.15089 0.0747,0.0639 0.13152,0.14103 0.17105,0.23255 0.0395,0.0901 0.0594,0.19035 0.0594,0.30075 h -0.62167 c 0,-0.0901 -0.0182,-0.15999 -0.0548,-0.21084 -0.0366,-0.0508 -0.0987,-0.0765 -0.18655,-0.0765 -0.0659,0 -0.12032,0.0203 -0.16278,0.061 -0.0425,0.0407 -0.0636,0.0969 -0.0636,0.1695 0,0.0305 0.007,0.0585 0.0196,0.0832 0.0146,0.0233 0.0375,0.0465 0.0682,0.0698 0.0322,0.0233 0.0738,0.0471 0.12506,0.0718 0.0512,0.0247 0.11446,0.0533 0.18913,0.0853 0.1186,0.0436 0.22109,0.0895 0.30748,0.13746 0.0879,0.0479 0.16045,0.10116 0.21755,0.16072 0.0571,0.0581 0.0993,0.12435 0.12713,0.19843 0.0278,0.0741 0.0419,0.15951 0.0419,0.25684 0,0.10459 -0.0205,0.20006 -0.0615,0.28577 -0.041,0.0857 -0.0996,0.15861 -0.1757,0.21962 -0.0747,0.061 -0.16544,0.10931 -0.27233,0.14418 -0.10688,0.0334 -0.22634,0.0501 -0.35812,0.0501 -0.14495,0 -0.27319,-0.0221 -0.38447,-0.0656 -0.10981,-0.045 -0.20179,-0.10358 -0.27647,-0.17621 -0.0747,-0.0741 -0.13091,-0.15705 -0.16898,-0.24857 -0.0381,-0.093 -0.0574,-0.18731 -0.0574,-0.28318 h 0.59067 c 10e-4,0.0639 0.0103,0.11703 0.0263,0.15916 0.0161,0.0407 0.0377,0.073 0.0641,0.0977 0.0278,0.0247 0.06,0.042 0.0966,0.0522 0.0381,0.009 0.0791,0.0134 0.12299,0.0134 0.16692,0 0.25012,-0.0747 0.25012,-0.22427 0,-0.0305 -0.008,-0.058 -0.0243,-0.0827 -0.0146,-0.0261 -0.0386,-0.0518 -0.0724,-0.0765 -0.0322,-0.0261 -0.0744,-0.0524 -0.12712,-0.0785 -0.0527,-0.0261 -0.11593,-0.0549 -0.18914,-0.0868 -0.10835,-0.0436 -0.20437,-0.0878 -0.28783,-0.13281 -0.0835,-0.0465 -0.15374,-0.0984 -0.21084,-0.15503 -0.0571,-0.0581 -0.0999,-0.12261 -0.12919,-0.19379 -0.0293,-0.0726 -0.0444,-0.15621 -0.0444,-0.25063 0,-0.0988 0.0187,-0.19128 0.0553,-0.27699 0.0381,-0.0872 0.092,-0.16242 0.16226,-0.22634 0.0703,-0.0654 0.15632,-0.11613 0.25735,-0.15244 0.10249,-0.0378 0.2179,-0.0568 0.34675,-0.0568 z m 3.6437,0 c 0.0278,0 0.0577,0.003 0.0899,0.009 0.0337,0.004 0.0606,0.0104 0.0811,0.0191 l -0.006,0.6103 c -0.0278,-0.003 -0.0624,-0.007 -0.10335,-0.0109 -0.0395,-0.004 -0.0741,-0.007 -0.10335,-0.007 -0.0893,0 -0.16192,0.0196 -0.21756,0.0574 -0.0556,0.0378 -0.0978,0.0927 -0.12713,0.16536 v 1.55801 h -0.62373 v -2.35799 h 0.58653 l 0.0176,0.25476 c 0.0468,-0.0944 0.1037,-0.16733 0.17105,-0.21962 0.0688,-0.0523 0.14727,-0.0785 0.23512,-0.0785 z m -5.53661,0.0434 h 0.62374 v 2.35799 h -0.62374 z m 5.86838,0 h 0.66766 l 0.28525,1.3317 0.31626,-1.3317 h 0.66353 l -0.78187,2.71094 c -0.0176,0.0596 -0.0421,0.12407 -0.0729,0.19379 -0.0293,0.0697 -0.0692,0.13475 -0.12041,0.1943 -0.0512,0.061 -0.11506,0.11064 -0.1912,0.14986 -0.0761,0.0407 -0.16864,0.061 -0.27699,0.061 -0.0278,0 -0.0524,-0.002 -0.0744,-0.005 -0.0205,-10e-4 -0.0404,-0.003 -0.0594,-0.006 -0.0176,-0.003 -0.0357,-0.008 -0.0548,-0.0134 -0.019,-0.004 -0.0412,-0.01 -0.0661,-0.0171 v -0.48162 c 0.0117,0.002 0.0234,0.002 0.0351,0.002 h 0.0377 c 0.0498,0 0.0926,-0.005 0.12919,-0.0155 0.0366,-0.009 0.0676,-0.0231 0.0925,-0.0434 0.0263,-0.0203 0.0474,-0.0466 0.0636,-0.0785 0.0176,-0.0305 0.0322,-0.067 0.0439,-0.11059 l 0.0486,-0.15968 z m -10.49394,0.4687 c -0.10835,0 -0.18741,0.0383 -0.23719,0.11524 -0.0483,0.077 -0.077,0.20108 -0.0858,0.37104 h 0.62166 v -0.0574 c -0.003,-0.14091 -0.0264,-0.24776 -0.0703,-0.3204 -0.0439,-0.0726 -0.12006,-0.10852 -0.22841,-0.10852 z"
       inkscape:export-filename="topic_tags\topic_6.svg"
       inkscape:export-xdpi="96"
       inkscape:export-ydpi="96" /><path
       id="path167"
       style="fill:#808ff7;fill-opacity:1;stroke-width:0.264583"
       d="m 637.54334,95.677146 c -2.00263,0 -3.62614,1.610855 -3.62614,3.597713 v 3.304711 c 0,1.98686 1.62351,3.59771 3.62614,3.59771 H 660.9047 V 95.677146 Z m 23.87916,0 v 10.500134 h 1.96474 V 95.677146 Z m 2.48254,0 v 10.500134 h 1.99987 V 95.677146 Z m 2.49959,0 v 10.500134 h 2.00039 V 95.677146 Z m 2.5001,0 v 10.500134 h 1.99988 V 95.677146 Z m 2.50011,0 v 10.500134 h 1.99987 V 95.677146 Z m 2.5001,0 v 10.500134 h 1.99988 V 95.677146 Z m -33.47186,3.477824 h 0.62167 v 1.19631 c 0.0644,-0.0799 0.13764,-0.14142 0.21963,-0.185 0.0835,-0.0436 0.17545,-0.0656 0.27647,-0.0656 0.0981,0 0.18827,0.0167 0.27026,0.0501 0.082,0.0334 0.15227,0.0865 0.21084,0.15916 0.0586,0.0726 0.1037,0.16698 0.13591,0.28319 0.0322,0.11621 0.0486,0.25773 0.0486,0.42478 v 1.48414 h -0.62374 v -1.48828 c 0,-0.0755 -0.006,-0.13881 -0.0176,-0.18965 -0.0117,-0.0508 -0.0293,-0.0914 -0.0527,-0.12196 -0.0234,-0.0305 -0.0521,-0.052 -0.0858,-0.0651 -0.0337,-0.0131 -0.0729,-0.0202 -0.11834,-0.0202 -0.0615,0 -0.11359,0.0137 -0.15606,0.0413 -0.0425,0.0276 -0.0782,0.0657 -0.10749,0.11369 v 1.73012 h -0.62167 z m 8.05584,0.05271 c 0.0513,0 0.0975,0.0073 0.1385,0.02325 0.0425,0.01598 0.0782,0.03865 0.10748,0.0677 0.0293,0.02906 0.0521,0.06423 0.0682,0.104903 0.0161,0.03922 0.0238,0.0828 0.0238,0.130741 0,0.04794 -0.008,0.09162 -0.0238,0.132292 -0.0161,0.03922 -0.0389,0.07439 -0.0682,0.104903 -0.0293,0.02906 -0.065,0.05173 -0.10748,0.0677 -0.041,0.01598 -0.0872,0.02377 -0.1385,0.02377 -0.0512,0 -0.0981,-0.0078 -0.14056,-0.02377 -0.041,-0.01598 -0.0761,-0.03865 -0.10542,-0.0677 -0.0293,-0.03051 -0.0521,-0.06568 -0.0682,-0.104903 -0.0161,-0.04068 -0.0243,-0.08436 -0.0243,-0.132292 0,-0.04794 0.008,-0.09151 0.0243,-0.130741 0.0161,-0.04068 0.0389,-0.07585 0.0682,-0.104903 0.0293,-0.02905 0.0644,-0.05173 0.10542,-0.0677 0.0425,-0.01598 0.0893,-0.02325 0.14056,-0.02325 z m -9.50536,0.07803 c 0.34847,0 0.61263,0.0967 0.79272,0.289905 0.18156,0.193201 0.28465,0.470285 0.30954,0.831995 h -0.64751 c -0.003,-0.11331 -0.0134,-0.20765 -0.031,-0.28319 -0.0161,-0.077 -0.0419,-0.137905 -0.077,-0.182936 -0.0351,-0.04503 -0.0809,-0.07672 -0.13798,-0.0956 -0.0556,-0.01888 -0.12531,-0.02842 -0.20877,-0.02842 -0.0864,0 -0.1602,0.01487 -0.22169,0.04393 -0.06,0.02906 -0.10921,0.07571 -0.14728,0.141076 -0.0381,0.0639 -0.0667,0.14872 -0.0858,0.25477 -0.0176,0.10459 -0.0264,0.23349 -0.0264,0.38602 v 0.54467 c 0,0.14817 0.007,0.2742 0.0217,0.37879 0.0146,0.10459 0.0404,0.19052 0.077,0.25735 0.0366,0.0654 0.0852,0.11315 0.14522,0.14366 0.06,0.0305 0.13617,0.046 0.22841,0.046 0.0791,0 0.14641,-0.008 0.20205,-0.0238 0.0571,-0.0174 0.10395,-0.0473 0.14056,-0.0894 0.0366,-0.0421 0.0642,-0.10007 0.0832,-0.17415 0.019,-0.0741 0.0308,-0.16834 0.0351,-0.28164 h 0.64595 c -0.0161,0.36171 -0.1186,0.63623 -0.30747,0.82217 -0.18888,0.18594 -0.45536,0.27854 -0.79943,0.27854 -0.17716,0 -0.33529,-0.0287 -0.47439,-0.0868 -0.13909,-0.0581 -0.25622,-0.14466 -0.3514,-0.25942 -0.0952,-0.11476 -0.16838,-0.25679 -0.21963,-0.4253 -0.0498,-0.16995 -0.0749,-0.36521 -0.0749,-0.58601 v -0.54053 c 0,-0.2208 0.0257,-0.41605 0.077,-0.58601 0.0527,-0.169961 0.12824,-0.312093 0.22634,-0.426851 0.0981,-0.114758 0.21643,-0.201309 0.35553,-0.259415 0.13909,-0.05956 0.29603,-0.0894 0.47026,-0.0894 z m 12.44368,0.279053 h 0.62167 v 0.579297 h 0.31833 v 0.46405 h -0.31833 v 1.17047 c 0,0.0494 0.003,0.09 0.009,0.12196 0.007,0.032 0.0184,0.0571 0.0331,0.076 0.0161,0.0174 0.036,0.0299 0.0594,0.0372 0.0234,0.006 0.0516,0.009 0.0853,0.009 0.0307,0 0.0588,-0.002 0.0837,-0.005 0.0264,-0.003 0.0474,-0.007 0.0636,-0.0108 l -0.004,0.47956 c -0.0469,0.0174 -0.0978,0.0312 -0.15192,0.0413 -0.0542,0.0116 -0.11749,0.0176 -0.19069,0.0176 -0.0922,0 -0.17595,-0.0131 -0.25063,-0.0393 -0.0747,-0.0247 -0.13909,-0.0647 -0.19327,-0.1199 -0.0527,-0.0566 -0.0937,-0.12946 -0.12299,-0.21807 -0.0278,-0.0886 -0.0419,-0.19495 -0.0419,-0.31988 v -1.24023 h -0.2744 v -0.46406 h 0.2744 z m -7.86877,0.535887 c 0.30162,0 0.52772,0.0962 0.67852,0.28939 0.15081,0.1932 0.22634,0.47972 0.22634,0.85886 v 0.28112 h -1.23662 c 0.004,0.0944 0.0167,0.17328 0.0372,0.23719 0.022,0.0639 0.0512,0.11582 0.0879,0.15503 0.0366,0.0392 0.0805,0.0678 0.13177,0.0853 0.0527,0.0174 0.11188,0.0258 0.17777,0.0258 0.10981,0 0.20757,-0.0179 0.29249,-0.0543 0.0864,-0.0378 0.16252,-0.0903 0.22841,-0.15709 l 0.2434,0.37258 c -0.0307,0.0421 -0.0706,0.0845 -0.12041,0.12661 -0.0498,0.0407 -0.10835,0.0777 -0.1757,0.1111 -0.0673,0.0334 -0.14349,0.0603 -0.22841,0.0806 -0.0849,0.0218 -0.17803,0.0326 -0.27905,0.0326 -0.16252,0 -0.30663,-0.025 -0.43254,-0.0744 -0.12592,-0.0494 -0.23245,-0.11993 -0.31884,-0.2129 -0.0864,-0.093 -0.15201,-0.20639 -0.1974,-0.34003 -0.0439,-0.1351 -0.0661,-0.28851 -0.0661,-0.45992 v -0.19379 c 0,-0.19175 0.0216,-0.35952 0.0641,-0.50333 0.0439,-0.14526 0.10602,-0.26699 0.18655,-0.36432 0.082,-0.0988 0.18156,-0.1723 0.29869,-0.22169 0.1186,-0.0494 0.2527,-0.0744 0.40204,-0.0744 z m 2.40916,0 c 0.10981,0 0.20765,0.0256 0.29404,0.0765 0.0879,0.0508 0.15752,0.13145 0.20877,0.24184 0.0644,-0.10023 0.14409,-0.17786 0.23926,-0.23306 0.0966,-0.0567 0.21084,-0.0853 0.34262,-0.0853 0.0966,0 0.18388,0.0161 0.26148,0.0481 0.0791,0.032 0.14643,0.0833 0.20206,0.15452 0.0556,0.0712 0.099,0.16377 0.1297,0.27853 0.0308,0.11476 0.046,0.25556 0.046,0.42116 v 1.49914 h -0.62167 v -1.50171 c 0,-0.0784 -0.006,-0.14233 -0.0176,-0.19172 -0.0102,-0.0494 -0.0261,-0.0876 -0.0481,-0.11524 -0.022,-0.029 -0.0483,-0.0487 -0.0791,-0.0589 -0.0307,-0.0116 -0.0659,-0.0176 -0.10542,-0.0176 -0.0615,0 -0.1136,0.0191 -0.15606,0.0568 -0.0425,0.0378 -0.077,0.0897 -0.10335,0.15503 10e-4,0.016 0.003,0.0322 0.003,0.0496 10e-4,0.0174 0.002,0.0348 0.002,0.0522 v 1.57148 h -0.62167 v -1.49706 c 0,-0.0784 -0.006,-0.14233 -0.0181,-0.19172 -0.0103,-0.0508 -0.0261,-0.0908 -0.0481,-0.11989 -0.0205,-0.029 -0.0469,-0.0487 -0.0791,-0.0589 -0.0307,-0.0116 -0.0659,-0.0176 -0.10542,-0.0176 -0.0571,0 -0.10689,0.0155 -0.14935,0.046 -0.041,0.0305 -0.0761,0.0724 -0.10542,0.12609 v 1.71307 h -0.62166 v -2.35799 h 0.58187 l 0.0176,0.21807 c 0.0659,-0.0828 0.14435,-0.14669 0.23513,-0.19172 0.0922,-0.0465 0.19766,-0.0698 0.31626,-0.0698 z m 4.10466,0 c 0.13324,0 0.2527,0.0179 0.35812,0.0543 0.10689,0.0349 0.19766,0.0855 0.27233,0.15089 0.0747,0.0639 0.13152,0.14103 0.17105,0.23255 0.0395,0.0901 0.0594,0.19035 0.0594,0.30075 h -0.62167 c 0,-0.0901 -0.0182,-0.15999 -0.0548,-0.21084 -0.0366,-0.0508 -0.0987,-0.0765 -0.18655,-0.0765 -0.0659,0 -0.12032,0.0203 -0.16278,0.061 -0.0425,0.0407 -0.0636,0.0969 -0.0636,0.1695 0,0.0305 0.007,0.0585 0.0196,0.0832 0.0146,0.0233 0.0375,0.0465 0.0682,0.0698 0.0322,0.0233 0.0738,0.0471 0.12506,0.0718 0.0512,0.0247 0.11446,0.0533 0.18913,0.0853 0.1186,0.0436 0.22109,0.0895 0.30748,0.13746 0.0879,0.0479 0.16045,0.10116 0.21755,0.16072 0.0571,0.0581 0.0993,0.12435 0.12713,0.19843 0.0278,0.0741 0.0419,0.15951 0.0419,0.25684 0,0.10459 -0.0205,0.20006 -0.0615,0.28577 -0.041,0.0857 -0.0996,0.15861 -0.1757,0.21962 -0.0747,0.061 -0.16544,0.10931 -0.27233,0.14418 -0.10688,0.0334 -0.22634,0.0501 -0.35812,0.0501 -0.14495,0 -0.27319,-0.0221 -0.38447,-0.0656 -0.10981,-0.045 -0.20179,-0.10358 -0.27647,-0.17621 -0.0747,-0.0741 -0.13091,-0.15705 -0.16898,-0.24857 -0.0381,-0.093 -0.0574,-0.18731 -0.0574,-0.28318 h 0.59067 c 10e-4,0.0639 0.0103,0.11703 0.0263,0.15916 0.0161,0.0407 0.0377,0.073 0.0641,0.0977 0.0278,0.0247 0.06,0.042 0.0966,0.0522 0.0381,0.009 0.0791,0.0134 0.12299,0.0134 0.16692,0 0.25012,-0.0747 0.25012,-0.22427 0,-0.0305 -0.008,-0.058 -0.0243,-0.0827 -0.0146,-0.0261 -0.0386,-0.0518 -0.0724,-0.0765 -0.0322,-0.0261 -0.0744,-0.0524 -0.12712,-0.0785 -0.0527,-0.0261 -0.11593,-0.0549 -0.18914,-0.0868 -0.10835,-0.0436 -0.20437,-0.0878 -0.28783,-0.13281 -0.0835,-0.0465 -0.15374,-0.0984 -0.21084,-0.15503 -0.0571,-0.0581 -0.0999,-0.12261 -0.12919,-0.19379 -0.0293,-0.0726 -0.0444,-0.15621 -0.0444,-0.25063 0,-0.0988 0.0187,-0.19128 0.0553,-0.27699 0.0381,-0.0872 0.092,-0.16242 0.16226,-0.22634 0.0703,-0.0654 0.15632,-0.11613 0.25735,-0.15244 0.10249,-0.0378 0.2179,-0.0568 0.34675,-0.0568 z m 3.6437,0 c 0.0278,0 0.0577,0.003 0.0899,0.009 0.0337,0.004 0.0606,0.0104 0.0811,0.0191 l -0.006,0.6103 c -0.0278,-0.003 -0.0624,-0.007 -0.10335,-0.0109 -0.0395,-0.004 -0.0741,-0.007 -0.10335,-0.007 -0.0893,0 -0.16192,0.0196 -0.21756,0.0574 -0.0556,0.0378 -0.0978,0.0927 -0.12713,0.16536 v 1.55801 h -0.62373 v -2.35799 h 0.58653 l 0.0176,0.25476 c 0.0468,-0.0944 0.1037,-0.16733 0.17105,-0.21962 0.0688,-0.0523 0.14727,-0.0785 0.23512,-0.0785 z m -5.53661,0.0434 h 0.62374 v 2.35799 h -0.62374 z m 5.86838,0 h 0.66766 l 0.28525,1.3317 0.31626,-1.3317 h 0.66353 l -0.78187,2.71094 c -0.0176,0.0596 -0.0421,0.12407 -0.0729,0.19379 -0.0293,0.0697 -0.0692,0.13475 -0.12041,0.1943 -0.0512,0.061 -0.11506,0.11064 -0.1912,0.14986 -0.0761,0.0407 -0.16864,0.061 -0.27699,0.061 -0.0278,0 -0.0524,-0.002 -0.0744,-0.005 -0.0205,-10e-4 -0.0404,-0.003 -0.0594,-0.006 -0.0176,-0.003 -0.0357,-0.008 -0.0548,-0.0134 -0.019,-0.004 -0.0412,-0.01 -0.0661,-0.0171 v -0.48162 c 0.0117,0.002 0.0234,0.002 0.0351,0.002 h 0.0377 c 0.0498,0 0.0926,-0.005 0.12919,-0.0155 0.0366,-0.009 0.0676,-0.0231 0.0925,-0.0434 0.0263,-0.0203 0.0474,-0.0466 0.0636,-0.0785 0.0176,-0.0305 0.0322,-0.067 0.0439,-0.11059 l 0.0486,-0.15968 z m -10.49394,0.4687 c -0.10835,0 -0.18741,0.0383 -0.23719,0.11524 -0.0483,0.077 -0.077,0.20108 -0.0858,0.37104 h 0.62166 v -0.0574 c -0.003,-0.14091 -0.0264,-0.24776 -0.0703,-0.3204 -0.0439,-0.0726 -0.12006,-0.10852 -0.22841,-0.10852 z"
       inkscape:export-filename="topic_tags\topic_6.svg"
       inkscape:export-xdpi="96"
       inkscape:export-ydpi="96" /></g></svg>
