<?xml version="1.0" encoding="UTF-8" standalone="no"?>
<!-- Created with Inkscape (http://www.inkscape.org/) -->

<svg
   width="61.183346mm"
   height="10.500135mm"
   viewBox="0 0 61.183346 10.500135"
   version="1.1"
   id="svg1"
   xml:space="preserve"
   inkscape:version="1.3.1 (91b66b0783, 2023-11-16)"
   sodipodi:docname="topic_17.svg"
   xmlns:inkscape="http://www.inkscape.org/namespaces/inkscape"
   xmlns:sodipodi="http://sodipodi.sourceforge.net/DTD/sodipodi-0.dtd"
   xmlns="http://www.w3.org/2000/svg"
   xmlns:svg="http://www.w3.org/2000/svg"><sodipodi:namedview
     id="namedview1"
     pagecolor="#ffffff"
     bordercolor="#000000"
     borderopacity="0.25"
     inkscape:showpageshadow="2"
     inkscape:pageopacity="0.0"
     inkscape:pagecheckerboard="0"
     inkscape:deskcolor="#d1d1d1"
     inkscape:document-units="mm"
     inkscape:zoom="2.8284271"
     inkscape:cx="176.42314"
     inkscape:cy="94.221979"
     inkscape:window-width="2560"
     inkscape:window-height="1346"
     inkscape:window-x="-11"
     inkscape:window-y="-11"
     inkscape:window-maximized="1"
     inkscape:current-layer="layer1"
     showgrid="true"><inkscape:grid
       id="grid668"
       units="mm"
       originx="-558.75081"
       originy="-124.61601"
       spacingx="0.5"
       spacingy="0.5"
       empcolor="#0099e5"
       empopacity="0.30196078"
       color="#0099e5"
       opacity="0.14901961"
       empspacing="5"
       dotted="false"
       gridanglex="30"
       gridanglez="30"
       visible="true" /></sodipodi:namedview><defs
     id="defs1" /><g
     inkscape:label="Layer 1"
     inkscape:groupmode="layer"
     id="layer1"
     transform="translate(-558.75081,-124.61602)"><rect
       style="fill:#f9f9f9;stroke-width:0.5;stroke-linejoin:round;stroke-miterlimit:3.4;stroke-dashoffset:19.8539"
       id="rect20"
       width="42.688122"
       height="7.1517849"
       x="562.31189"
       y="126.29032" /><path
       id="path756"
       style="fill:#2c2c6f;fill-opacity:1;stroke-width:0.264583"
       d="m 562.28594,124.61601 c -1.95235,0 -3.53518,1.61028 -3.53518,3.5972 v 3.30574 c 0,1.98693 1.58283,3.5972 3.53518,3.5972 h 45.14815 v -10.50014 z m 45.66595,0 v 10.50014 h 1.96474 v -10.50014 z m 2.48254,0 v 10.50014 h 1.99987 v -10.50014 z m 2.49959,0 v 10.50014 h 2.00039 v -10.50014 z m 2.5001,0 v 10.50014 h 1.99988 v -10.50014 z m 2.50011,0 v 10.50014 h 1.99987 v -10.50014 z m -26.02994,3.35174 c 0.0512,0 0.0975,0.008 0.13849,0.0243 0.0425,0.0164 0.0782,0.0399 0.10749,0.0698 0.0293,0.0299 0.0521,0.0653 0.0682,0.10697 0.0161,0.0402 0.0243,0.0852 0.0243,0.13436 0,0.0491 -0.008,0.0942 -0.0243,0.13591 -0.0161,0.0402 -0.0389,0.0762 -0.0682,0.10748 -0.0293,0.0298 -0.065,0.0529 -0.10749,0.0693 -0.041,0.0164 -0.0872,0.0248 -0.13849,0.0248 -0.0513,0 -0.0981,-0.008 -0.14056,-0.0248 -0.041,-0.0164 -0.0761,-0.0394 -0.10542,-0.0693 -0.0293,-0.0312 -0.0516,-0.0673 -0.0677,-0.10748 -0.0161,-0.0417 -0.0243,-0.0867 -0.0243,-0.13591 0,-0.0491 0.008,-0.0943 0.0243,-0.13436 0.0161,-0.0418 0.0384,-0.0772 0.0677,-0.10697 0.0293,-0.0298 0.0644,-0.0533 0.10542,-0.0698 0.0425,-0.0164 0.0893,-0.0243 0.14056,-0.0243 z m -3.80597,0.0806 c 0.15374,0 0.29197,0.0253 0.41496,0.076 0.12445,0.0491 0.22988,0.11837 0.31626,0.20774 0.0879,0.0879 0.15521,0.19363 0.20206,0.31729 0.0469,0.12217 0.0703,0.25714 0.0703,0.40463 h -0.64337 c 0,-0.0686 -0.007,-0.13149 -0.0217,-0.18811 -0.0132,-0.0581 -0.0353,-0.10708 -0.0661,-0.14727 -0.0293,-0.0417 -0.0674,-0.0738 -0.11421,-0.0961 -0.0469,-0.0238 -0.10309,-0.0357 -0.16898,-0.0357 -0.0615,0 -0.11481,0.009 -0.1602,0.0289 -0.0439,0.0194 -0.0808,0.0462 -0.11007,0.0806 -0.0293,0.0327 -0.051,0.0726 -0.0656,0.11885 -0.0146,0.0462 -0.0222,0.0952 -0.0222,0.14728 0,0.0537 0.0111,0.10204 0.0331,0.14521 0.0234,0.0433 0.0556,0.0836 0.0966,0.12092 0.0425,0.0372 0.0928,0.072 0.15141,0.10491 0.06,0.0327 0.12617,0.0643 0.19792,0.0956 0.14934,0.0552 0.2794,0.11694 0.39068,0.18397 0.11128,0.0671 0.20438,0.14244 0.27905,0.22737 0.0747,0.0849 0.1303,0.1816 0.16691,0.28887 0.0366,0.10579 0.0548,0.22558 0.0548,0.35967 0,0.14303 -0.0234,0.27067 -0.0703,0.38241 -0.0454,0.11174 -0.11101,0.20571 -0.1974,0.28318 -0.0849,0.076 -0.18854,0.13502 -0.31006,0.17674 -0.12153,0.0402 -0.25803,0.0605 -0.41031,0.0605 -0.13763,0 -0.27346,-0.0207 -0.4067,-0.0625 -0.13177,-0.0433 -0.2495,-0.10899 -0.35346,-0.19689 -0.10395,-0.0879 -0.18828,-0.19922 -0.2527,-0.33331 -0.063,-0.13409 -0.094,-0.29328 -0.094,-0.47801 h 0.6475 c 0,0.0983 0.01,0.1816 0.0289,0.25012 0.019,0.0686 0.0472,0.12474 0.0853,0.16795 0.0395,0.0418 0.0881,0.0721 0.14521,0.0915 0.0571,0.018 0.12385,0.0269 0.19999,0.0269 0.0615,0 0.11307,-0.009 0.15554,-0.0269 0.0439,-0.0194 0.0791,-0.0446 0.10542,-0.076 0.0278,-0.0327 0.0477,-0.0716 0.0594,-0.11627 0.0117,-0.0446 0.0176,-0.0931 0.0176,-0.14521 0,-0.0567 -0.005,-0.10725 -0.0155,-0.15193 -0.0102,-0.0446 -0.0319,-0.0863 -0.0656,-0.12506 -0.0322,-0.0402 -0.0791,-0.0791 -0.14056,-0.11627 -0.06,-0.0372 -0.14082,-0.0766 -0.24185,-0.11834 -0.12006,-0.0462 -0.23487,-0.0996 -0.34468,-0.15916 -0.10835,-0.0596 -0.20438,-0.12939 -0.28784,-0.20981 -0.082,-0.0819 -0.14762,-0.17586 -0.1974,-0.28164 -0.0483,-0.10728 -0.0723,-0.23155 -0.0723,-0.3731 0,-0.13557 0.0246,-0.25929 0.0744,-0.37104 0.0498,-0.11324 0.11945,-0.20888 0.20877,-0.28784 0.0908,-0.079 0.1974,-0.14076 0.32039,-0.18396 0.12446,-0.0447 0.26149,-0.0667 0.41083,-0.0667 z m -25.39276,0.0444 h 0.84336 l 0.60358,2.35334 0.60203,-2.35334 h 0.84336 v 3.25406 h -0.64803 v -0.88057 l 0.0594,-1.35702 -0.63924,2.23759 h -0.43925 l -0.63923,-2.23759 0.0594,1.35702 v 0.88057 h -0.64544 z m 22.66735,0.24184 v 0.59376 h 0.31832 v 0.47594 h -0.31832 v 1.20045 c 0,0.0507 0.003,0.0923 0.009,0.12505 0.007,0.0327 0.0184,0.0585 0.0331,0.078 0.0161,0.018 0.0355,0.0315 0.0589,0.0388 0.0234,0.006 0.0521,0.009 0.0858,0.009 0.0307,0 0.0588,-0.001 0.0837,-0.004 0.0263,-0.003 0.0474,-0.006 0.0636,-0.0109 l -0.005,0.49144 c -0.0468,0.0179 -0.0972,0.0324 -0.15142,0.0429 -0.0542,0.0119 -0.11799,0.0181 -0.1912,0.0181 -0.0922,0 -0.17544,-0.014 -0.25011,-0.0408 -0.0747,-0.0253 -0.1391,-0.0658 -0.19327,-0.12248 -0.0527,-0.0581 -0.0937,-0.13239 -0.12299,-0.22324 -0.0278,-0.0909 -0.0419,-0.20053 -0.0419,-0.32866 v -1.27176 h -0.2744 v -0.47645 h 0.2744 v -0.59428 z m -16.03262,0.5488 v 5.2e-4 c 0.0922,0 0.17717,0.0164 0.25477,0.0491 0.0776,0.0312 0.14435,0.0835 0.19999,0.15658 0.0556,0.0729 0.0984,0.16808 0.12919,0.28577 0.0308,0.11771 0.0465,0.26276 0.0465,0.43409 v 1.53737 H 569.347 v -1.53996 c 0,-0.0774 -0.006,-0.14157 -0.0176,-0.19223 -0.0117,-0.0507 -0.0293,-0.0912 -0.0527,-0.12093 -0.022,-0.0298 -0.05,-0.0506 -0.0837,-0.0625 -0.0337,-0.0119 -0.0729,-0.0181 -0.11834,-0.0181 -0.0586,0 -0.11008,0.0157 -0.154,0.047 -0.0439,0.0312 -0.0803,0.0746 -0.10955,0.12971 v 1.75648 h -0.62374 v -2.41794 h 0.58395 l 0.0176,0.23926 c 0.0688,-0.0924 0.1496,-0.16265 0.24184,-0.21032 0.0922,-0.0491 0.19534,-0.0739 0.30954,-0.0739 z m 3.92018,0 v 5.2e-4 c 0.11567,0 0.21403,0.023 0.29455,0.0692 0.0805,0.0447 0.14849,0.10772 0.20413,0.18965 l 0.0243,-0.21446 h 0.55966 v 2.41846 c 0,0.16537 -0.0239,0.30715 -0.0723,0.42633 -0.0468,0.12069 -0.1136,0.2202 -0.19999,0.29766 -0.0864,0.0775 -0.19008,0.13484 -0.3116,0.17208 -0.12007,0.0372 -0.25417,0.0558 -0.40205,0.0558 -0.0556,0 -0.11713,-0.006 -0.18448,-0.0181 -0.0674,-0.0119 -0.1347,-0.0299 -0.20206,-0.0537 -0.0674,-0.0223 -0.13177,-0.0515 -0.19327,-0.0873 -0.06,-0.0343 -0.11041,-0.0747 -0.15141,-0.12248 l 0.20877,-0.4377 c 0.0278,0.0299 0.0606,0.0569 0.0987,0.0822 0.0395,0.0268 0.0805,0.0487 0.12299,0.0667 0.0439,0.0194 0.0891,0.0347 0.13591,0.045 0.0469,0.0119 0.0925,0.0176 0.13642,0.0176 0.063,0 0.11861,-0.007 0.16692,-0.0217 0.0498,-0.0134 0.0914,-0.0375 0.12505,-0.0718 0.0337,-0.0343 0.0588,-0.0793 0.0749,-0.13591 0.0176,-0.0566 0.0264,-0.12749 0.0264,-0.21239 v -0.19482 c -0.0571,0.076 -0.12385,0.13501 -0.19999,0.17673 -0.0747,0.0402 -0.16252,0.0605 -0.26355,0.0605 -0.12591,0 -0.23891,-0.0253 -0.33848,-0.076 -0.0981,-0.0507 -0.18129,-0.12544 -0.25011,-0.22376 -0.0674,-0.0983 -0.11947,-0.2198 -0.15607,-0.36432 -0.0366,-0.14602 -0.0548,-0.31418 -0.0548,-0.50488 v -0.15865 c 0,-0.39629 0.0703,-0.6921 0.21084,-0.88728 0.14056,-0.19517 0.33736,-0.29301 0.59066,-0.29301 z m 10.31358,0 v 5.2e-4 c 0.0922,0 0.17717,0.0164 0.25477,0.0491 0.0776,0.0312 0.14435,0.0835 0.19998,0.15658 0.0556,0.0729 0.099,0.16808 0.12971,0.28577 0.0307,0.11771 0.046,0.26276 0.046,0.43409 v 1.53737 h -0.62373 v -1.53996 c 0,-0.0774 -0.006,-0.14157 -0.0176,-0.19223 -0.0117,-0.0507 -0.0293,-0.0912 -0.0527,-0.12093 -0.022,-0.0298 -0.05,-0.0506 -0.0837,-0.0625 -0.0337,-0.0119 -0.073,-0.0181 -0.11834,-0.0181 -0.0586,0 -0.11006,0.0157 -0.15399,0.047 -0.0439,0.0312 -0.0803,0.0746 -0.10956,0.12971 v 1.75648 h -0.62373 v -2.41794 h 0.58394 l 0.0176,0.23926 c 0.0688,-0.0924 0.14961,-0.16265 0.24185,-0.21032 0.0922,-0.0491 0.19533,-0.0739 0.30954,-0.0739 z m 6.7908,0 v 5.2e-4 c 0.12738,0 0.24331,0.0207 0.34727,0.0625 0.10542,0.0402 0.19447,0.10041 0.26768,0.18087 0.0747,0.079 0.13203,0.17737 0.17157,0.29507 0.041,0.11771 0.0621,0.25433 0.0636,0.40928 h -0.58446 c -10e-4,-0.13558 -0.0232,-0.24015 -0.0656,-0.31316 -0.0425,-0.0729 -0.11274,-0.10956 -0.21084,-0.10956 -0.0688,0 -0.12385,0.0141 -0.16485,0.0424 -0.0395,0.0283 -0.07,0.07 -0.092,0.12506 -0.0205,0.0536 -0.0345,0.1211 -0.0419,0.20153 -0.006,0.079 -0.009,0.17063 -0.009,0.27492 v 0.17415 c 0,0.10579 0.003,0.1986 0.009,0.27905 0.006,0.079 0.0188,0.14584 0.0393,0.19948 0.022,0.0536 0.0536,0.0937 0.0946,0.1204 0.041,0.0268 0.0966,0.0403 0.16692,0.0403 0.0864,0 0.15313,-0.0269 0.19998,-0.0806 0.0483,-0.0552 0.0729,-0.14738 0.0744,-0.27698 h 0.58446 c -0.002,0.13707 -0.0243,0.26079 -0.0682,0.37104 -0.0439,0.10875 -0.1037,0.20099 -0.17983,0.27698 -0.0747,0.076 -0.16363,0.13443 -0.26613,0.17467 -0.10249,0.0402 -0.21265,0.0599 -0.33125,0.0599 -0.1596,0 -0.29894,-0.0258 -0.41754,-0.078 -0.1186,-0.0522 -0.21757,-0.12751 -0.29663,-0.22583 -0.0776,-0.0998 -0.13617,-0.22186 -0.1757,-0.36638 -0.0381,-0.14453 -0.0568,-0.3098 -0.0568,-0.49455 v -0.17363 c 0,-0.18475 0.0188,-0.34951 0.0568,-0.49402 0.0395,-0.14601 0.0981,-0.26915 0.1757,-0.36897 0.0776,-0.0998 0.17597,-0.17574 0.29456,-0.2279 0.1186,-0.0522 0.25683,-0.0785 0.41496,-0.0785 z m 5.62446,0 v 5.2e-4 c 0.0922,0 0.17717,0.0164 0.25477,0.0491 0.0776,0.0312 0.14435,0.0835 0.19999,0.15658 0.0556,0.0729 0.099,0.16808 0.1297,0.28577 0.0308,0.11771 0.046,0.26276 0.046,0.43409 v 1.53737 h -0.62374 v -1.53996 c 0,-0.0774 -0.006,-0.14157 -0.0176,-0.19223 -0.0117,-0.0507 -0.0293,-0.0912 -0.0527,-0.12093 -0.022,-0.0298 -0.0495,-0.0506 -0.0832,-0.0625 -0.0337,-0.0119 -0.0735,-0.0181 -0.11885,-0.0181 -0.0586,0 -0.10955,0.0157 -0.15348,0.047 -0.0439,0.0312 -0.0808,0.0746 -0.11007,0.12971 v 1.75648 h -0.62374 v -2.41794 h 0.58446 l 0.0176,0.23926 c 0.0688,-0.0924 0.14909,-0.16265 0.24133,-0.21032 0.0922,-0.0491 0.19534,-0.0739 0.30954,-0.0739 z m 1.94407,0 v 5.2e-4 c 0.12738,0 0.24279,0.0207 0.34675,0.0625 0.10542,0.0402 0.19499,0.10041 0.2682,0.18087 0.0747,0.079 0.13152,0.17737 0.17105,0.29507 0.041,0.11771 0.0621,0.25433 0.0636,0.40928 h -0.58394 c -10e-4,-0.13558 -0.0237,-0.24015 -0.0661,-0.31316 -0.0425,-0.0729 -0.11274,-0.10956 -0.21084,-0.10956 -0.0688,0 -0.12334,0.0141 -0.16433,0.0424 -0.0395,0.0283 -0.0705,0.07 -0.0925,0.12506 -0.0205,0.0536 -0.0345,0.1211 -0.0419,0.20153 -0.006,0.079 -0.009,0.17063 -0.009,0.27492 v 0.17415 c 0,0.10579 0.003,0.1986 0.009,0.27905 0.006,0.079 0.0193,0.14584 0.0398,0.19948 0.022,0.0536 0.0536,0.0937 0.0946,0.1204 0.041,0.0268 0.0966,0.0403 0.16692,0.0403 0.0864,0 0.15262,-0.0269 0.19947,-0.0806 0.0483,-0.0552 0.0735,-0.14738 0.0749,-0.27698 h 0.58394 c -10e-4,0.13707 -0.0238,0.26079 -0.0677,0.37104 -0.0439,0.10875 -0.10421,0.20099 -0.18035,0.27698 -0.0747,0.076 -0.16312,0.13443 -0.26561,0.17467 -0.10249,0.0402 -0.21318,0.0599 -0.33177,0.0599 -0.1596,0 -0.29843,-0.0258 -0.41702,-0.078 -0.1186,-0.0522 -0.21756,-0.12751 -0.29663,-0.22583 -0.0776,-0.0998 -0.13616,-0.22186 -0.1757,-0.36638 -0.0381,-0.14453 -0.0574,-0.3098 -0.0574,-0.49455 v -0.17363 c 0,-0.18475 0.0193,-0.34951 0.0574,-0.49402 0.0395,-0.14601 0.0981,-0.26915 0.1757,-0.36897 0.0776,-0.0998 0.17545,-0.17574 0.29404,-0.2279 0.1186,-0.0522 0.25735,-0.0785 0.41548,-0.0785 z m 4.14187,0 v 5.2e-4 c 0.13324,0 0.25269,0.0187 0.35811,0.0558 0.10688,0.0357 0.19767,0.0874 0.27234,0.15451 0.0747,0.0655 0.13152,0.14487 0.17105,0.23875 0.0395,0.0924 0.0594,0.19527 0.0594,0.30851 h -0.62167 c 0,-0.0924 -0.0182,-0.16438 -0.0548,-0.21653 -0.0366,-0.0522 -0.0987,-0.0785 -0.18655,-0.0785 -0.0659,0 -0.12032,0.0207 -0.16278,0.0625 -0.0425,0.0418 -0.0636,0.0996 -0.0636,0.17415 0,0.0313 0.007,0.06 0.0196,0.0853 0.0146,0.0238 0.0375,0.0474 0.0682,0.0713 0.0322,0.0238 0.0738,0.0485 0.12505,0.0739 0.0512,0.0253 0.11447,0.0541 0.18914,0.0868 0.1186,0.0446 0.22108,0.0919 0.30747,0.14107 0.0879,0.0491 0.16046,0.1043 0.21756,0.16537 0.0571,0.0596 0.0993,0.12713 0.12713,0.20309 0.0278,0.076 0.0419,0.16373 0.0419,0.26355 0,0.10727 -0.0205,0.20508 -0.0615,0.293 -0.041,0.0879 -0.0996,0.16325 -0.1757,0.22583 -0.0747,0.0626 -0.16545,0.11207 -0.27234,0.14779 -0.10688,0.0343 -0.22634,0.0512 -0.35811,0.0512 -0.14496,0 -0.2732,-0.0225 -0.38448,-0.0672 -0.10981,-0.0462 -0.20179,-0.10639 -0.27646,-0.18087 -0.0747,-0.076 -0.13092,-0.16141 -0.16899,-0.25528 -0.0381,-0.0953 -0.0574,-0.19157 -0.0574,-0.2899 h 0.59066 c 0.002,0.0655 0.0103,0.11955 0.0264,0.16278 0.0161,0.0418 0.0377,0.0749 0.0641,0.10025 0.0278,0.0253 0.06,0.0435 0.0966,0.0537 0.0381,0.009 0.0791,0.014 0.12299,0.014 0.16692,0 0.25012,-0.077 0.25012,-0.23048 0,-0.0312 -0.008,-0.0594 -0.0243,-0.0848 -0.0146,-0.0268 -0.0387,-0.0531 -0.0724,-0.0785 -0.0322,-0.0268 -0.0744,-0.0532 -0.12712,-0.0801 -0.0527,-0.0268 -0.11593,-0.0566 -0.18914,-0.0894 -0.10835,-0.0447 -0.20438,-0.0903 -0.28784,-0.13642 -0.0835,-0.0477 -0.15374,-0.10058 -0.21084,-0.15865 -0.0571,-0.0596 -0.0999,-0.12598 -0.12919,-0.19895 -0.0293,-0.0745 -0.0439,-0.15999 -0.0439,-0.25683 0,-0.10136 0.0182,-0.19631 0.0548,-0.28422 0.0381,-0.0894 0.092,-0.16699 0.16226,-0.23255 0.0703,-0.0671 0.15633,-0.11879 0.25735,-0.15606 0.1025,-0.0388 0.21791,-0.0584 0.34675,-0.0584 z m -35.14204,5.2e-4 h 5.1e-4 c 0.11838,5e-5 0.22719,0.0154 0.3266,0.0465 0.0996,0.0298 0.18621,0.0775 0.25941,0.14314 0.0732,0.064 0.13006,0.14671 0.17105,0.24805 0.041,0.0998 0.0615,0.22123 0.0615,0.36277 v 1.07229 c 0,0.07 0.002,0.13298 0.005,0.1881 0.004,0.0537 0.0103,0.10261 0.0176,0.14728 0.007,0.0433 0.0161,0.0825 0.0264,0.11833 0.0117,0.0343 0.0246,0.067 0.0393,0.0982 v 0.0377 l -0.6258,5.2e-4 c -0.0117,-0.0253 -0.0222,-0.054 -0.031,-0.0853 -0.007,-0.0327 -0.0144,-0.0666 -0.0217,-0.10232 -0.0468,0.0655 -0.10774,0.12012 -0.18242,0.16485 -0.0732,0.0446 -0.16338,0.0677 -0.27026,0.0677 -0.0966,0 -0.18742,-0.0175 -0.27234,-0.0517 -0.0835,-0.0343 -0.15666,-0.0826 -0.21962,-0.14521 -0.0615,-0.0626 -0.11016,-0.13788 -0.14676,-0.22582 -0.0351,-0.0893 -0.0527,-0.18896 -0.0527,-0.29921 0,-0.12217 0.0188,-0.23241 0.0568,-0.33073 0.0395,-0.0998 0.0981,-0.18416 0.1757,-0.2527 0.0791,-0.07 0.17743,-0.12346 0.29456,-0.16071 0.1186,-0.0372 0.25743,-0.0563 0.41702,-0.0563 h 0.16899 v -0.1943 c 0,-0.10875 -0.0182,-0.18526 -0.0548,-0.22996 -0.0366,-0.0446 -0.0899,-0.0677 -0.1602,-0.0677 -0.0805,0 -0.13969,0.0251 -0.17776,0.0744 -0.0366,0.0477 -0.0553,0.11518 -0.0553,0.20308 h -0.62115 c 0,-0.10578 0.0194,-0.20476 0.0589,-0.29714 0.041,-0.0939 0.0996,-0.17543 0.1757,-0.24546 0.0761,-0.07 0.16804,-0.12566 0.27492,-0.16588 0.10675,-0.0417 0.22724,-0.0625 0.36174,-0.0625 z m 4.331,0 h 5.1e-4 c 0.1184,5e-5 0.22719,0.0154 0.3266,0.0465 0.0996,0.0298 0.1862,0.0775 0.25941,0.14314 0.0732,0.064 0.13005,0.14671 0.17105,0.24805 0.041,0.0998 0.0615,0.22123 0.0615,0.36277 v 1.07229 c 0,0.07 0.002,0.13298 0.005,0.1881 0.004,0.0537 0.0103,0.10261 0.0176,0.14728 0.007,0.0433 0.016,0.0825 0.0263,0.11833 0.0117,0.0343 0.0246,0.067 0.0393,0.0982 v 0.0377 l -0.62581,5.2e-4 c -0.0117,-0.0253 -0.0222,-0.054 -0.031,-0.0853 -0.007,-0.0327 -0.0144,-0.0666 -0.0217,-0.10232 -0.0469,0.0655 -0.10774,0.12012 -0.18241,0.16485 -0.0732,0.0446 -0.16339,0.0677 -0.27027,0.0677 -0.0966,0 -0.18742,-0.0175 -0.27234,-0.0517 -0.0835,-0.0343 -0.15666,-0.0826 -0.21962,-0.14521 -0.0615,-0.0626 -0.11016,-0.13788 -0.14676,-0.22582 -0.0351,-0.0893 -0.0527,-0.18896 -0.0527,-0.29921 0,-0.12217 0.0188,-0.23241 0.0568,-0.33073 0.0395,-0.0998 0.0981,-0.18416 0.1757,-0.2527 0.0791,-0.07 0.17743,-0.12346 0.29456,-0.16071 0.1186,-0.0372 0.25744,-0.0563 0.41703,-0.0563 h 0.16898 v -0.1943 c 0,-0.10875 -0.0182,-0.18526 -0.0548,-0.22996 -0.0366,-0.0446 -0.0899,-0.0677 -0.1602,-0.0677 -0.0805,0 -0.13969,0.0251 -0.17776,0.0744 -0.0366,0.0477 -0.0553,0.11518 -0.0553,0.20308 h -0.62115 c 0,-0.10578 0.0194,-0.20476 0.0589,-0.29714 0.041,-0.0939 0.0996,-0.17543 0.1757,-0.24546 0.0761,-0.07 0.16803,-0.12566 0.27492,-0.16588 0.10674,-0.0417 0.22726,-0.0625 0.36174,-0.0625 z m 4.42763,0 c 0.30161,0 0.52771,0.0989 0.67852,0.29714 0.15081,0.19814 0.22634,0.4917 0.22634,0.88057 v 0.28835 h -1.23662 c 0.004,0.0968 0.0167,0.17785 0.0372,0.2434 0.022,0.0656 0.0512,0.11839 0.0879,0.15864 0.0366,0.0402 0.0805,0.0694 0.13177,0.0873 0.0527,0.0179 0.1124,0.0269 0.17829,0.0269 0.10981,0 0.20705,-0.0186 0.29197,-0.0558 0.0864,-0.0388 0.16253,-0.0922 0.22841,-0.16072 l 0.24391,0.38189 c -0.0307,0.0433 -0.0711,0.0865 -0.12092,0.12971 -0.0498,0.0418 -0.10834,0.08 -0.1757,0.11421 -0.0674,0.0343 -0.14349,0.0614 -0.22841,0.0822 -0.0849,0.0223 -0.17802,0.0336 -0.27905,0.0336 -0.16252,0 -0.30662,-0.0253 -0.43254,-0.076 -0.12592,-0.0507 -0.23193,-0.12325 -0.31832,-0.21859 -0.0864,-0.0953 -0.15253,-0.21175 -0.19792,-0.34882 -0.0439,-0.13855 -0.0656,-0.296 -0.0656,-0.47181 v -0.19843 c 0,-0.19666 0.0211,-0.36927 0.0636,-0.51677 0.0439,-0.14899 0.10603,-0.27327 0.18655,-0.3731 0.082,-0.10134 0.18156,-0.17724 0.29869,-0.22789 0.1186,-0.0507 0.25269,-0.076 0.40204,-0.076 z m 2.40916,0 c 0.10981,0 0.20817,0.0263 0.29456,0.0785 0.0879,0.0522 0.15701,0.13485 0.20825,0.24805 0.0644,-0.10279 0.14461,-0.18265 0.23978,-0.23927 0.0966,-0.0581 0.21083,-0.0873 0.34261,-0.0873 0.0966,0 0.18337,0.0169 0.26097,0.0496 0.0791,0.0327 0.14642,0.085 0.20206,0.15813 0.0556,0.0729 0.099,0.16807 0.1297,0.28577 0.0307,0.11769 0.046,0.26217 0.046,0.43202 v 1.53737 h -0.62116 v -1.53996 c 0,-0.0805 -0.006,-0.14622 -0.0176,-0.19688 -0.0102,-0.0507 -0.0266,-0.0901 -0.0486,-0.11834 -0.022,-0.0298 -0.0483,-0.0502 -0.0791,-0.0605 -0.0308,-0.0119 -0.0659,-0.0176 -0.10542,-0.0176 -0.0615,0 -0.1136,0.0196 -0.15606,0.0584 -0.0425,0.0388 -0.0765,0.0912 -0.10284,0.15813 10e-4,0.0164 0.002,0.0338 0.002,0.0517 10e-4,0.018 0.002,0.0353 0.002,0.0532 v 1.61127 h -0.62167 v -1.53479 c 0,-0.0805 -0.006,-0.14622 -0.0176,-0.19688 -0.0103,-0.0522 -0.0261,-0.0932 -0.0481,-0.12299 -0.0205,-0.0298 -0.0469,-0.0502 -0.0791,-0.0605 -0.0307,-0.0119 -0.0659,-0.0176 -0.10542,-0.0176 -0.0571,0 -0.10688,0.0152 -0.14935,0.0465 -0.041,0.0312 -0.0761,0.0751 -0.10542,0.13023 v 1.75596 h -0.62166 v -2.41794 h 0.58187 l 0.0176,0.22376 c 0.0659,-0.0849 0.14435,-0.1507 0.23513,-0.19689 0.0922,-0.0477 0.19766,-0.0713 0.31626,-0.0713 z m 3.0794,0 c 0.30162,0 0.5277,0.0989 0.67851,0.29714 0.15081,0.19814 0.22634,0.4917 0.22634,0.88057 v 0.28835 h -1.23661 c 0.004,0.0968 0.0167,0.17785 0.0372,0.2434 0.022,0.0656 0.0512,0.11839 0.0879,0.15864 0.0366,0.0402 0.0805,0.0694 0.13178,0.0873 0.0527,0.0179 0.11187,0.0269 0.17776,0.0269 0.10981,0 0.20757,-0.0186 0.29249,-0.0558 0.0864,-0.0388 0.16252,-0.0922 0.22841,-0.16072 l 0.2434,0.38189 c -0.0307,0.0433 -0.0706,0.0865 -0.12041,0.12971 -0.0498,0.0418 -0.10835,0.08 -0.1757,0.11421 -0.0674,0.0343 -0.14349,0.0614 -0.22841,0.0822 -0.0849,0.0223 -0.17802,0.0336 -0.27905,0.0336 -0.16252,0 -0.30661,-0.0253 -0.43253,-0.076 -0.12592,-0.0507 -0.23247,-0.12325 -0.31885,-0.21859 -0.0864,-0.0953 -0.15202,-0.21175 -0.1974,-0.34882 -0.0439,-0.13855 -0.0661,-0.296 -0.0661,-0.47181 v -0.19843 c 0,-0.19666 0.0216,-0.36927 0.0641,-0.51677 0.0439,-0.14899 0.10603,-0.27327 0.18656,-0.3731 0.082,-0.10134 0.18155,-0.17724 0.29869,-0.22789 0.11859,-0.0507 0.2527,-0.076 0.40204,-0.076 z m 12.41526,0 c 0.30162,0 0.5277,0.0989 0.67851,0.29714 0.15081,0.19814 0.22635,0.4917 0.22635,0.88057 v 0.28835 h -1.23662 c 0.004,0.0968 0.0167,0.17785 0.0372,0.2434 0.022,0.0656 0.0512,0.11839 0.0879,0.15864 0.0366,0.0402 0.0805,0.0694 0.13177,0.0873 0.0527,0.0179 0.11239,0.0269 0.17828,0.0269 0.10981,0 0.20706,-0.0186 0.29198,-0.0558 0.0864,-0.0388 0.16252,-0.0922 0.22841,-0.16072 l 0.24391,0.38189 c -0.0308,0.0433 -0.0711,0.0865 -0.12092,0.12971 -0.0498,0.0418 -0.10835,0.08 -0.1757,0.11421 -0.0674,0.0343 -0.14349,0.0614 -0.22841,0.0822 -0.0849,0.0223 -0.17804,0.0336 -0.27906,0.0336 -0.16253,0 -0.30662,-0.0253 -0.43253,-0.076 -0.12592,-0.0507 -0.23195,-0.12325 -0.31833,-0.21859 -0.0864,-0.0953 -0.15253,-0.21175 -0.19792,-0.34882 -0.0439,-0.13855 -0.0656,-0.296 -0.0656,-0.47181 v -0.19843 c 0,-0.19666 0.0211,-0.36927 0.0636,-0.51677 0.0439,-0.14899 0.10602,-0.27327 0.18655,-0.3731 0.082,-0.10134 0.18156,-0.17724 0.29869,-0.22789 0.1186,-0.0507 0.2527,-0.076 0.40204,-0.076 z m 6.43475,0 c 0.30162,0 0.52822,0.0989 0.67903,0.29714 0.15081,0.19814 0.22582,0.4917 0.22582,0.88057 v 0.28835 h -1.2361 c 0.004,0.0968 0.0167,0.17785 0.0372,0.2434 0.022,0.0656 0.0512,0.11839 0.0879,0.15864 0.0366,0.0402 0.0805,0.0694 0.13178,0.0873 0.0527,0.0179 0.11187,0.0269 0.17776,0.0269 0.10981,0 0.20705,-0.0186 0.29197,-0.0558 0.0864,-0.0388 0.16252,-0.0922 0.22841,-0.16072 l 0.24392,0.38189 c -0.0307,0.0433 -0.0711,0.0865 -0.12093,0.12971 -0.0498,0.0418 -0.10835,0.08 -0.1757,0.11421 -0.0674,0.0343 -0.14349,0.0614 -0.22841,0.0822 -0.0849,0.0223 -0.1775,0.0336 -0.27853,0.0336 -0.16252,0 -0.30713,-0.0253 -0.43305,-0.076 -0.12591,-0.0507 -0.23195,-0.12325 -0.31833,-0.21859 -0.0864,-0.0953 -0.15201,-0.21175 -0.1974,-0.34882 -0.0439,-0.13855 -0.0661,-0.296 -0.0661,-0.47181 v -0.19843 c 0,-0.19666 0.0211,-0.36927 0.0636,-0.51677 0.0439,-0.14899 0.10653,-0.27327 0.18706,-0.3731 0.082,-0.10134 0.18156,-0.17724 0.29869,-0.22789 0.1186,-0.0507 0.25218,-0.076 0.40153,-0.076 z m -8.43566,0.0444 h 0.62373 v 2.41846 h -0.62373 z m -15.90756,0.48059 c -0.10834,0 -0.18741,0.0394 -0.23719,0.11834 -0.0483,0.079 -0.0765,0.20603 -0.0853,0.38034 h 0.62115 v -0.0584 c -0.003,-0.14451 -0.0264,-0.25419 -0.0703,-0.32867 -0.0439,-0.0745 -0.12006,-0.11162 -0.22841,-0.11162 z m 5.48856,0 c -0.10835,0 -0.18741,0.0394 -0.2372,0.11834 -0.0483,0.079 -0.077,0.20603 -0.0858,0.38034 h 0.62167 v -0.0584 c -0.003,-0.14451 -0.0264,-0.25419 -0.0703,-0.32867 -0.0439,-0.0745 -0.12006,-0.11162 -0.22841,-0.11162 z m 12.41526,0 c -0.10835,0 -0.18741,0.0394 -0.23719,0.11834 -0.0483,0.079 -0.0765,0.20603 -0.0853,0.38034 h 0.62115 v -0.0584 c -0.003,-0.14451 -0.0264,-0.25419 -0.0703,-0.32867 -0.0439,-0.0745 -0.12007,-0.11162 -0.22841,-0.11162 z m 6.43527,0 c -0.10835,0 -0.18742,0.0394 -0.2372,0.11834 -0.0483,0.079 -0.077,0.20603 -0.0858,0.38034 h 0.62167 v -0.0584 c -0.003,-0.14451 -0.0264,-0.25419 -0.0703,-0.32867 -0.0439,-0.0745 -0.12006,-0.11162 -0.22841,-0.11162 z m -26.58339,0.005 c -0.12299,0 -0.21438,0.0512 -0.27441,0.154 -0.0586,0.10281 -0.0879,0.26814 -0.0879,0.49609 v 0.15865 c 0,0.22348 0.0282,0.38658 0.0853,0.48937 0.0571,0.10136 0.14788,0.15193 0.27233,0.15193 0.0673,0 0.12411,-0.0118 0.1695,-0.0356 0.0468,-0.0253 0.0849,-0.0602 0.11421,-0.10491 v -1.15548 c -0.0307,-0.0491 -0.0699,-0.0874 -0.11679,-0.11421 -0.0454,-0.0268 -0.0993,-0.0398 -0.16226,-0.0398 z m -6.45904,0.83561 c -0.0586,0 -0.10947,0.009 -0.15193,0.0289 -0.0425,0.0193 -0.0782,0.0457 -0.10749,0.0801 -0.0278,0.0343 -0.0489,0.0753 -0.0636,0.12144 -0.0132,0.0462 -0.0196,0.0946 -0.0196,0.14676 0,0.0879 0.0176,0.15536 0.0527,0.20154 0.0366,0.0446 0.0876,0.0667 0.15348,0.0667 0.0688,0 0.12739,-0.0141 0.1757,-0.0424 0.0483,-0.0283 0.0841,-0.062 0.10749,-0.10077 v -0.50229 z m 4.331,0 c -0.0586,0 -0.10947,0.009 -0.15193,0.0289 -0.0425,0.0193 -0.0782,0.0457 -0.10749,0.0801 -0.0278,0.0343 -0.0489,0.0753 -0.0636,0.12144 -0.0132,0.0462 -0.0196,0.0946 -0.0196,0.14676 0,0.0879 0.0176,0.15536 0.0527,0.20154 0.0366,0.0446 0.0876,0.0667 0.15347,0.0667 0.0688,0 0.12739,-0.0141 0.1757,-0.0424 0.0483,-0.0283 0.0841,-0.062 0.10749,-0.10077 v -0.50229 z" /><path
       id="path163"
       style="fill:#808ff7;fill-opacity:1;stroke-width:0.264583"
       d="m 562.28594,124.61601 c -1.95235,0 -3.53518,1.61028 -3.53518,3.5972 v 3.30574 c 0,1.98693 1.58283,3.5972 3.53518,3.5972 h 45.14815 v -10.50014 z m 45.66595,0 v 10.50014 h 1.96474 v -10.50014 z m 2.48254,0 v 10.50014 h 1.99987 v -10.50014 z m 2.49959,0 v 10.50014 h 2.00039 v -10.50014 z m 2.5001,0 v 10.50014 h 1.99988 v -10.50014 z m 2.50011,0 v 10.50014 h 1.99987 v -10.50014 z m -26.02994,3.35174 c 0.0512,0 0.0975,0.008 0.13849,0.0243 0.0425,0.0164 0.0782,0.0399 0.10749,0.0698 0.0293,0.0299 0.0521,0.0653 0.0682,0.10697 0.0161,0.0402 0.0243,0.0852 0.0243,0.13436 0,0.0491 -0.008,0.0942 -0.0243,0.13591 -0.0161,0.0402 -0.0389,0.0762 -0.0682,0.10748 -0.0293,0.0298 -0.065,0.0529 -0.10749,0.0693 -0.041,0.0164 -0.0872,0.0248 -0.13849,0.0248 -0.0513,0 -0.0981,-0.008 -0.14056,-0.0248 -0.041,-0.0164 -0.0761,-0.0394 -0.10542,-0.0693 -0.0293,-0.0312 -0.0516,-0.0673 -0.0677,-0.10748 -0.0161,-0.0417 -0.0243,-0.0867 -0.0243,-0.13591 0,-0.0491 0.008,-0.0943 0.0243,-0.13436 0.0161,-0.0418 0.0384,-0.0772 0.0677,-0.10697 0.0293,-0.0298 0.0644,-0.0533 0.10542,-0.0698 0.0425,-0.0164 0.0893,-0.0243 0.14056,-0.0243 z m -3.80597,0.0806 c 0.15374,0 0.29197,0.0253 0.41496,0.076 0.12445,0.0491 0.22988,0.11837 0.31626,0.20774 0.0879,0.0879 0.15521,0.19363 0.20206,0.31729 0.0469,0.12217 0.0703,0.25714 0.0703,0.40463 h -0.64337 c 0,-0.0686 -0.007,-0.13149 -0.0217,-0.18811 -0.0132,-0.0581 -0.0353,-0.10708 -0.0661,-0.14727 -0.0293,-0.0417 -0.0674,-0.0738 -0.11421,-0.0961 -0.0469,-0.0238 -0.10309,-0.0357 -0.16898,-0.0357 -0.0615,0 -0.11481,0.009 -0.1602,0.0289 -0.0439,0.0194 -0.0808,0.0462 -0.11007,0.0806 -0.0293,0.0327 -0.051,0.0726 -0.0656,0.11885 -0.0146,0.0462 -0.0222,0.0952 -0.0222,0.14728 0,0.0537 0.0111,0.10204 0.0331,0.14521 0.0234,0.0433 0.0556,0.0836 0.0966,0.12092 0.0425,0.0372 0.0928,0.072 0.15141,0.10491 0.06,0.0327 0.12617,0.0643 0.19792,0.0956 0.14934,0.0552 0.2794,0.11694 0.39068,0.18397 0.11128,0.0671 0.20438,0.14244 0.27905,0.22737 0.0747,0.0849 0.1303,0.1816 0.16691,0.28887 0.0366,0.10579 0.0548,0.22558 0.0548,0.35967 0,0.14303 -0.0234,0.27067 -0.0703,0.38241 -0.0454,0.11174 -0.11101,0.20571 -0.1974,0.28318 -0.0849,0.076 -0.18854,0.13502 -0.31006,0.17674 -0.12153,0.0402 -0.25803,0.0605 -0.41031,0.0605 -0.13763,0 -0.27346,-0.0207 -0.4067,-0.0625 -0.13177,-0.0433 -0.2495,-0.10899 -0.35346,-0.19689 -0.10395,-0.0879 -0.18828,-0.19922 -0.2527,-0.33331 -0.063,-0.13409 -0.094,-0.29328 -0.094,-0.47801 h 0.6475 c 0,0.0983 0.01,0.1816 0.0289,0.25012 0.019,0.0686 0.0472,0.12474 0.0853,0.16795 0.0395,0.0418 0.0881,0.0721 0.14521,0.0915 0.0571,0.018 0.12385,0.0269 0.19999,0.0269 0.0615,0 0.11307,-0.009 0.15554,-0.0269 0.0439,-0.0194 0.0791,-0.0446 0.10542,-0.076 0.0278,-0.0327 0.0477,-0.0716 0.0594,-0.11627 0.0117,-0.0446 0.0176,-0.0931 0.0176,-0.14521 0,-0.0567 -0.005,-0.10725 -0.0155,-0.15193 -0.0102,-0.0446 -0.0319,-0.0863 -0.0656,-0.12506 -0.0322,-0.0402 -0.0791,-0.0791 -0.14056,-0.11627 -0.06,-0.0372 -0.14082,-0.0766 -0.24185,-0.11834 -0.12006,-0.0462 -0.23487,-0.0996 -0.34468,-0.15916 -0.10835,-0.0596 -0.20438,-0.12939 -0.28784,-0.20981 -0.082,-0.0819 -0.14762,-0.17586 -0.1974,-0.28164 -0.0483,-0.10728 -0.0723,-0.23155 -0.0723,-0.3731 0,-0.13557 0.0246,-0.25929 0.0744,-0.37104 0.0498,-0.11324 0.11945,-0.20888 0.20877,-0.28784 0.0908,-0.079 0.1974,-0.14076 0.32039,-0.18396 0.12446,-0.0447 0.26149,-0.0667 0.41083,-0.0667 z m -25.39276,0.0444 h 0.84336 l 0.60358,2.35334 0.60203,-2.35334 h 0.84336 v 3.25406 h -0.64803 v -0.88057 l 0.0594,-1.35702 -0.63924,2.23759 h -0.43925 l -0.63923,-2.23759 0.0594,1.35702 v 0.88057 h -0.64544 z m 22.66735,0.24184 v 0.59376 h 0.31832 v 0.47594 h -0.31832 v 1.20045 c 0,0.0507 0.003,0.0923 0.009,0.12505 0.007,0.0327 0.0184,0.0585 0.0331,0.078 0.0161,0.018 0.0355,0.0315 0.0589,0.0388 0.0234,0.006 0.0521,0.009 0.0858,0.009 0.0307,0 0.0588,-0.001 0.0837,-0.004 0.0263,-0.003 0.0474,-0.006 0.0636,-0.0109 l -0.005,0.49144 c -0.0468,0.0179 -0.0972,0.0324 -0.15142,0.0429 -0.0542,0.0119 -0.11799,0.0181 -0.1912,0.0181 -0.0922,0 -0.17544,-0.014 -0.25011,-0.0408 -0.0747,-0.0253 -0.1391,-0.0658 -0.19327,-0.12248 -0.0527,-0.0581 -0.0937,-0.13239 -0.12299,-0.22324 -0.0278,-0.0909 -0.0419,-0.20053 -0.0419,-0.32866 v -1.27176 h -0.2744 v -0.47645 h 0.2744 v -0.59428 z m -16.03262,0.5488 v 5.2e-4 c 0.0922,0 0.17717,0.0164 0.25477,0.0491 0.0776,0.0312 0.14435,0.0835 0.19999,0.15658 0.0556,0.0729 0.0984,0.16808 0.12919,0.28577 0.0308,0.11771 0.0465,0.26276 0.0465,0.43409 v 1.53737 H 569.347 v -1.53996 c 0,-0.0774 -0.006,-0.14157 -0.0176,-0.19223 -0.0117,-0.0507 -0.0293,-0.0912 -0.0527,-0.12093 -0.022,-0.0298 -0.05,-0.0506 -0.0837,-0.0625 -0.0337,-0.0119 -0.0729,-0.0181 -0.11834,-0.0181 -0.0586,0 -0.11008,0.0157 -0.154,0.047 -0.0439,0.0312 -0.0803,0.0746 -0.10955,0.12971 v 1.75648 h -0.62374 v -2.41794 h 0.58395 l 0.0176,0.23926 c 0.0688,-0.0924 0.1496,-0.16265 0.24184,-0.21032 0.0922,-0.0491 0.19534,-0.0739 0.30954,-0.0739 z m 3.92018,0 v 5.2e-4 c 0.11567,0 0.21403,0.023 0.29455,0.0692 0.0805,0.0447 0.14849,0.10772 0.20413,0.18965 l 0.0243,-0.21446 h 0.55966 v 2.41846 c 0,0.16537 -0.0239,0.30715 -0.0723,0.42633 -0.0468,0.12069 -0.1136,0.2202 -0.19999,0.29766 -0.0864,0.0775 -0.19008,0.13484 -0.3116,0.17208 -0.12007,0.0372 -0.25417,0.0558 -0.40205,0.0558 -0.0556,0 -0.11713,-0.006 -0.18448,-0.0181 -0.0674,-0.0119 -0.1347,-0.0299 -0.20206,-0.0537 -0.0674,-0.0223 -0.13177,-0.0515 -0.19327,-0.0873 -0.06,-0.0343 -0.11041,-0.0747 -0.15141,-0.12248 l 0.20877,-0.4377 c 0.0278,0.0299 0.0606,0.0569 0.0987,0.0822 0.0395,0.0268 0.0805,0.0487 0.12299,0.0667 0.0439,0.0194 0.0891,0.0347 0.13591,0.045 0.0469,0.0119 0.0925,0.0176 0.13642,0.0176 0.063,0 0.11861,-0.007 0.16692,-0.0217 0.0498,-0.0134 0.0914,-0.0375 0.12505,-0.0718 0.0337,-0.0343 0.0588,-0.0793 0.0749,-0.13591 0.0176,-0.0566 0.0264,-0.12749 0.0264,-0.21239 v -0.19482 c -0.0571,0.076 -0.12385,0.13501 -0.19999,0.17673 -0.0747,0.0402 -0.16252,0.0605 -0.26355,0.0605 -0.12591,0 -0.23891,-0.0253 -0.33848,-0.076 -0.0981,-0.0507 -0.18129,-0.12544 -0.25011,-0.22376 -0.0674,-0.0983 -0.11947,-0.2198 -0.15607,-0.36432 -0.0366,-0.14602 -0.0548,-0.31418 -0.0548,-0.50488 v -0.15865 c 0,-0.39629 0.0703,-0.6921 0.21084,-0.88728 0.14056,-0.19517 0.33736,-0.29301 0.59066,-0.29301 z m 10.31358,0 v 5.2e-4 c 0.0922,0 0.17717,0.0164 0.25477,0.0491 0.0776,0.0312 0.14435,0.0835 0.19998,0.15658 0.0556,0.0729 0.099,0.16808 0.12971,0.28577 0.0307,0.11771 0.046,0.26276 0.046,0.43409 v 1.53737 h -0.62373 v -1.53996 c 0,-0.0774 -0.006,-0.14157 -0.0176,-0.19223 -0.0117,-0.0507 -0.0293,-0.0912 -0.0527,-0.12093 -0.022,-0.0298 -0.05,-0.0506 -0.0837,-0.0625 -0.0337,-0.0119 -0.073,-0.0181 -0.11834,-0.0181 -0.0586,0 -0.11006,0.0157 -0.15399,0.047 -0.0439,0.0312 -0.0803,0.0746 -0.10956,0.12971 v 1.75648 h -0.62373 v -2.41794 h 0.58394 l 0.0176,0.23926 c 0.0688,-0.0924 0.14961,-0.16265 0.24185,-0.21032 0.0922,-0.0491 0.19533,-0.0739 0.30954,-0.0739 z m 6.7908,0 v 5.2e-4 c 0.12738,0 0.24331,0.0207 0.34727,0.0625 0.10542,0.0402 0.19447,0.10041 0.26768,0.18087 0.0747,0.079 0.13203,0.17737 0.17157,0.29507 0.041,0.11771 0.0621,0.25433 0.0636,0.40928 h -0.58446 c -10e-4,-0.13558 -0.0232,-0.24015 -0.0656,-0.31316 -0.0425,-0.0729 -0.11274,-0.10956 -0.21084,-0.10956 -0.0688,0 -0.12385,0.0141 -0.16485,0.0424 -0.0395,0.0283 -0.07,0.07 -0.092,0.12506 -0.0205,0.0536 -0.0345,0.1211 -0.0419,0.20153 -0.006,0.079 -0.009,0.17063 -0.009,0.27492 v 0.17415 c 0,0.10579 0.003,0.1986 0.009,0.27905 0.006,0.079 0.0188,0.14584 0.0393,0.19948 0.022,0.0536 0.0536,0.0937 0.0946,0.1204 0.041,0.0268 0.0966,0.0403 0.16692,0.0403 0.0864,0 0.15313,-0.0269 0.19998,-0.0806 0.0483,-0.0552 0.0729,-0.14738 0.0744,-0.27698 h 0.58446 c -0.002,0.13707 -0.0243,0.26079 -0.0682,0.37104 -0.0439,0.10875 -0.1037,0.20099 -0.17983,0.27698 -0.0747,0.076 -0.16363,0.13443 -0.26613,0.17467 -0.10249,0.0402 -0.21265,0.0599 -0.33125,0.0599 -0.1596,0 -0.29894,-0.0258 -0.41754,-0.078 -0.1186,-0.0522 -0.21757,-0.12751 -0.29663,-0.22583 -0.0776,-0.0998 -0.13617,-0.22186 -0.1757,-0.36638 -0.0381,-0.14453 -0.0568,-0.3098 -0.0568,-0.49455 v -0.17363 c 0,-0.18475 0.0188,-0.34951 0.0568,-0.49402 0.0395,-0.14601 0.0981,-0.26915 0.1757,-0.36897 0.0776,-0.0998 0.17597,-0.17574 0.29456,-0.2279 0.1186,-0.0522 0.25683,-0.0785 0.41496,-0.0785 z m 5.62446,0 v 5.2e-4 c 0.0922,0 0.17717,0.0164 0.25477,0.0491 0.0776,0.0312 0.14435,0.0835 0.19999,0.15658 0.0556,0.0729 0.099,0.16808 0.1297,0.28577 0.0308,0.11771 0.046,0.26276 0.046,0.43409 v 1.53737 h -0.62374 v -1.53996 c 0,-0.0774 -0.006,-0.14157 -0.0176,-0.19223 -0.0117,-0.0507 -0.0293,-0.0912 -0.0527,-0.12093 -0.022,-0.0298 -0.0495,-0.0506 -0.0832,-0.0625 -0.0337,-0.0119 -0.0735,-0.0181 -0.11885,-0.0181 -0.0586,0 -0.10955,0.0157 -0.15348,0.047 -0.0439,0.0312 -0.0808,0.0746 -0.11007,0.12971 v 1.75648 h -0.62374 v -2.41794 h 0.58446 l 0.0176,0.23926 c 0.0688,-0.0924 0.14909,-0.16265 0.24133,-0.21032 0.0922,-0.0491 0.19534,-0.0739 0.30954,-0.0739 z m 1.94407,0 v 5.2e-4 c 0.12738,0 0.24279,0.0207 0.34675,0.0625 0.10542,0.0402 0.19499,0.10041 0.2682,0.18087 0.0747,0.079 0.13152,0.17737 0.17105,0.29507 0.041,0.11771 0.0621,0.25433 0.0636,0.40928 h -0.58394 c -10e-4,-0.13558 -0.0237,-0.24015 -0.0661,-0.31316 -0.0425,-0.0729 -0.11274,-0.10956 -0.21084,-0.10956 -0.0688,0 -0.12334,0.0141 -0.16433,0.0424 -0.0395,0.0283 -0.0705,0.07 -0.0925,0.12506 -0.0205,0.0536 -0.0345,0.1211 -0.0419,0.20153 -0.006,0.079 -0.009,0.17063 -0.009,0.27492 v 0.17415 c 0,0.10579 0.003,0.1986 0.009,0.27905 0.006,0.079 0.0193,0.14584 0.0398,0.19948 0.022,0.0536 0.0536,0.0937 0.0946,0.1204 0.041,0.0268 0.0966,0.0403 0.16692,0.0403 0.0864,0 0.15262,-0.0269 0.19947,-0.0806 0.0483,-0.0552 0.0735,-0.14738 0.0749,-0.27698 h 0.58394 c -10e-4,0.13707 -0.0238,0.26079 -0.0677,0.37104 -0.0439,0.10875 -0.10421,0.20099 -0.18035,0.27698 -0.0747,0.076 -0.16312,0.13443 -0.26561,0.17467 -0.10249,0.0402 -0.21318,0.0599 -0.33177,0.0599 -0.1596,0 -0.29843,-0.0258 -0.41702,-0.078 -0.1186,-0.0522 -0.21756,-0.12751 -0.29663,-0.22583 -0.0776,-0.0998 -0.13616,-0.22186 -0.1757,-0.36638 -0.0381,-0.14453 -0.0574,-0.3098 -0.0574,-0.49455 v -0.17363 c 0,-0.18475 0.0193,-0.34951 0.0574,-0.49402 0.0395,-0.14601 0.0981,-0.26915 0.1757,-0.36897 0.0776,-0.0998 0.17545,-0.17574 0.29404,-0.2279 0.1186,-0.0522 0.25735,-0.0785 0.41548,-0.0785 z m 4.14187,0 v 5.2e-4 c 0.13324,0 0.25269,0.0187 0.35811,0.0558 0.10688,0.0357 0.19767,0.0874 0.27234,0.15451 0.0747,0.0655 0.13152,0.14487 0.17105,0.23875 0.0395,0.0924 0.0594,0.19527 0.0594,0.30851 h -0.62167 c 0,-0.0924 -0.0182,-0.16438 -0.0548,-0.21653 -0.0366,-0.0522 -0.0987,-0.0785 -0.18655,-0.0785 -0.0659,0 -0.12032,0.0207 -0.16278,0.0625 -0.0425,0.0418 -0.0636,0.0996 -0.0636,0.17415 0,0.0313 0.007,0.06 0.0196,0.0853 0.0146,0.0238 0.0375,0.0474 0.0682,0.0713 0.0322,0.0238 0.0738,0.0485 0.12505,0.0739 0.0512,0.0253 0.11447,0.0541 0.18914,0.0868 0.1186,0.0446 0.22108,0.0919 0.30747,0.14107 0.0879,0.0491 0.16046,0.1043 0.21756,0.16537 0.0571,0.0596 0.0993,0.12713 0.12713,0.20309 0.0278,0.076 0.0419,0.16373 0.0419,0.26355 0,0.10727 -0.0205,0.20508 -0.0615,0.293 -0.041,0.0879 -0.0996,0.16325 -0.1757,0.22583 -0.0747,0.0626 -0.16545,0.11207 -0.27234,0.14779 -0.10688,0.0343 -0.22634,0.0512 -0.35811,0.0512 -0.14496,0 -0.2732,-0.0225 -0.38448,-0.0672 -0.10981,-0.0462 -0.20179,-0.10639 -0.27646,-0.18087 -0.0747,-0.076 -0.13092,-0.16141 -0.16899,-0.25528 -0.0381,-0.0953 -0.0574,-0.19157 -0.0574,-0.2899 h 0.59066 c 0.002,0.0655 0.0103,0.11955 0.0264,0.16278 0.0161,0.0418 0.0377,0.0749 0.0641,0.10025 0.0278,0.0253 0.06,0.0435 0.0966,0.0537 0.0381,0.009 0.0791,0.014 0.12299,0.014 0.16692,0 0.25012,-0.077 0.25012,-0.23048 0,-0.0312 -0.008,-0.0594 -0.0243,-0.0848 -0.0146,-0.0268 -0.0387,-0.0531 -0.0724,-0.0785 -0.0322,-0.0268 -0.0744,-0.0532 -0.12712,-0.0801 -0.0527,-0.0268 -0.11593,-0.0566 -0.18914,-0.0894 -0.10835,-0.0447 -0.20438,-0.0903 -0.28784,-0.13642 -0.0835,-0.0477 -0.15374,-0.10058 -0.21084,-0.15865 -0.0571,-0.0596 -0.0999,-0.12598 -0.12919,-0.19895 -0.0293,-0.0745 -0.0439,-0.15999 -0.0439,-0.25683 0,-0.10136 0.0182,-0.19631 0.0548,-0.28422 0.0381,-0.0894 0.092,-0.16699 0.16226,-0.23255 0.0703,-0.0671 0.15633,-0.11879 0.25735,-0.15606 0.1025,-0.0388 0.21791,-0.0584 0.34675,-0.0584 z m -35.14204,5.2e-4 h 5.1e-4 c 0.11838,5e-5 0.22719,0.0154 0.3266,0.0465 0.0996,0.0298 0.18621,0.0775 0.25941,0.14314 0.0732,0.064 0.13006,0.14671 0.17105,0.24805 0.041,0.0998 0.0615,0.22123 0.0615,0.36277 v 1.07229 c 0,0.07 0.002,0.13298 0.005,0.1881 0.004,0.0537 0.0103,0.10261 0.0176,0.14728 0.007,0.0433 0.0161,0.0825 0.0264,0.11833 0.0117,0.0343 0.0246,0.067 0.0393,0.0982 v 0.0377 l -0.6258,5.2e-4 c -0.0117,-0.0253 -0.0222,-0.054 -0.031,-0.0853 -0.007,-0.0327 -0.0144,-0.0666 -0.0217,-0.10232 -0.0468,0.0655 -0.10774,0.12012 -0.18242,0.16485 -0.0732,0.0446 -0.16338,0.0677 -0.27026,0.0677 -0.0966,0 -0.18742,-0.0175 -0.27234,-0.0517 -0.0835,-0.0343 -0.15666,-0.0826 -0.21962,-0.14521 -0.0615,-0.0626 -0.11016,-0.13788 -0.14676,-0.22582 -0.0351,-0.0893 -0.0527,-0.18896 -0.0527,-0.29921 0,-0.12217 0.0188,-0.23241 0.0568,-0.33073 0.0395,-0.0998 0.0981,-0.18416 0.1757,-0.2527 0.0791,-0.07 0.17743,-0.12346 0.29456,-0.16071 0.1186,-0.0372 0.25743,-0.0563 0.41702,-0.0563 h 0.16899 v -0.1943 c 0,-0.10875 -0.0182,-0.18526 -0.0548,-0.22996 -0.0366,-0.0446 -0.0899,-0.0677 -0.1602,-0.0677 -0.0805,0 -0.13969,0.0251 -0.17776,0.0744 -0.0366,0.0477 -0.0553,0.11518 -0.0553,0.20308 h -0.62115 c 0,-0.10578 0.0194,-0.20476 0.0589,-0.29714 0.041,-0.0939 0.0996,-0.17543 0.1757,-0.24546 0.0761,-0.07 0.16804,-0.12566 0.27492,-0.16588 0.10675,-0.0417 0.22724,-0.0625 0.36174,-0.0625 z m 4.331,0 h 5.1e-4 c 0.1184,5e-5 0.22719,0.0154 0.3266,0.0465 0.0996,0.0298 0.1862,0.0775 0.25941,0.14314 0.0732,0.064 0.13005,0.14671 0.17105,0.24805 0.041,0.0998 0.0615,0.22123 0.0615,0.36277 v 1.07229 c 0,0.07 0.002,0.13298 0.005,0.1881 0.004,0.0537 0.0103,0.10261 0.0176,0.14728 0.007,0.0433 0.016,0.0825 0.0263,0.11833 0.0117,0.0343 0.0246,0.067 0.0393,0.0982 v 0.0377 l -0.62581,5.2e-4 c -0.0117,-0.0253 -0.0222,-0.054 -0.031,-0.0853 -0.007,-0.0327 -0.0144,-0.0666 -0.0217,-0.10232 -0.0469,0.0655 -0.10774,0.12012 -0.18241,0.16485 -0.0732,0.0446 -0.16339,0.0677 -0.27027,0.0677 -0.0966,0 -0.18742,-0.0175 -0.27234,-0.0517 -0.0835,-0.0343 -0.15666,-0.0826 -0.21962,-0.14521 -0.0615,-0.0626 -0.11016,-0.13788 -0.14676,-0.22582 -0.0351,-0.0893 -0.0527,-0.18896 -0.0527,-0.29921 0,-0.12217 0.0188,-0.23241 0.0568,-0.33073 0.0395,-0.0998 0.0981,-0.18416 0.1757,-0.2527 0.0791,-0.07 0.17743,-0.12346 0.29456,-0.16071 0.1186,-0.0372 0.25744,-0.0563 0.41703,-0.0563 h 0.16898 v -0.1943 c 0,-0.10875 -0.0182,-0.18526 -0.0548,-0.22996 -0.0366,-0.0446 -0.0899,-0.0677 -0.1602,-0.0677 -0.0805,0 -0.13969,0.0251 -0.17776,0.0744 -0.0366,0.0477 -0.0553,0.11518 -0.0553,0.20308 h -0.62115 c 0,-0.10578 0.0194,-0.20476 0.0589,-0.29714 0.041,-0.0939 0.0996,-0.17543 0.1757,-0.24546 0.0761,-0.07 0.16803,-0.12566 0.27492,-0.16588 0.10674,-0.0417 0.22726,-0.0625 0.36174,-0.0625 z m 4.42763,0 c 0.30161,0 0.52771,0.0989 0.67852,0.29714 0.15081,0.19814 0.22634,0.4917 0.22634,0.88057 v 0.28835 h -1.23662 c 0.004,0.0968 0.0167,0.17785 0.0372,0.2434 0.022,0.0656 0.0512,0.11839 0.0879,0.15864 0.0366,0.0402 0.0805,0.0694 0.13177,0.0873 0.0527,0.0179 0.1124,0.0269 0.17829,0.0269 0.10981,0 0.20705,-0.0186 0.29197,-0.0558 0.0864,-0.0388 0.16253,-0.0922 0.22841,-0.16072 l 0.24391,0.38189 c -0.0307,0.0433 -0.0711,0.0865 -0.12092,0.12971 -0.0498,0.0418 -0.10834,0.08 -0.1757,0.11421 -0.0674,0.0343 -0.14349,0.0614 -0.22841,0.0822 -0.0849,0.0223 -0.17802,0.0336 -0.27905,0.0336 -0.16252,0 -0.30662,-0.0253 -0.43254,-0.076 -0.12592,-0.0507 -0.23193,-0.12325 -0.31832,-0.21859 -0.0864,-0.0953 -0.15253,-0.21175 -0.19792,-0.34882 -0.0439,-0.13855 -0.0656,-0.296 -0.0656,-0.47181 v -0.19843 c 0,-0.19666 0.0211,-0.36927 0.0636,-0.51677 0.0439,-0.14899 0.10603,-0.27327 0.18655,-0.3731 0.082,-0.10134 0.18156,-0.17724 0.29869,-0.22789 0.1186,-0.0507 0.25269,-0.076 0.40204,-0.076 z m 2.40916,0 c 0.10981,0 0.20817,0.0263 0.29456,0.0785 0.0879,0.0522 0.15701,0.13485 0.20825,0.24805 0.0644,-0.10279 0.14461,-0.18265 0.23978,-0.23927 0.0966,-0.0581 0.21083,-0.0873 0.34261,-0.0873 0.0966,0 0.18337,0.0169 0.26097,0.0496 0.0791,0.0327 0.14642,0.085 0.20206,0.15813 0.0556,0.0729 0.099,0.16807 0.1297,0.28577 0.0307,0.11769 0.046,0.26217 0.046,0.43202 v 1.53737 h -0.62116 v -1.53996 c 0,-0.0805 -0.006,-0.14622 -0.0176,-0.19688 -0.0102,-0.0507 -0.0266,-0.0901 -0.0486,-0.11834 -0.022,-0.0298 -0.0483,-0.0502 -0.0791,-0.0605 -0.0308,-0.0119 -0.0659,-0.0176 -0.10542,-0.0176 -0.0615,0 -0.1136,0.0196 -0.15606,0.0584 -0.0425,0.0388 -0.0765,0.0912 -0.10284,0.15813 10e-4,0.0164 0.002,0.0338 0.002,0.0517 10e-4,0.018 0.002,0.0353 0.002,0.0532 v 1.61127 h -0.62167 v -1.53479 c 0,-0.0805 -0.006,-0.14622 -0.0176,-0.19688 -0.0103,-0.0522 -0.0261,-0.0932 -0.0481,-0.12299 -0.0205,-0.0298 -0.0469,-0.0502 -0.0791,-0.0605 -0.0307,-0.0119 -0.0659,-0.0176 -0.10542,-0.0176 -0.0571,0 -0.10688,0.0152 -0.14935,0.0465 -0.041,0.0312 -0.0761,0.0751 -0.10542,0.13023 v 1.75596 h -0.62166 v -2.41794 h 0.58187 l 0.0176,0.22376 c 0.0659,-0.0849 0.14435,-0.1507 0.23513,-0.19689 0.0922,-0.0477 0.19766,-0.0713 0.31626,-0.0713 z m 3.0794,0 c 0.30162,0 0.5277,0.0989 0.67851,0.29714 0.15081,0.19814 0.22634,0.4917 0.22634,0.88057 v 0.28835 h -1.23661 c 0.004,0.0968 0.0167,0.17785 0.0372,0.2434 0.022,0.0656 0.0512,0.11839 0.0879,0.15864 0.0366,0.0402 0.0805,0.0694 0.13178,0.0873 0.0527,0.0179 0.11187,0.0269 0.17776,0.0269 0.10981,0 0.20757,-0.0186 0.29249,-0.0558 0.0864,-0.0388 0.16252,-0.0922 0.22841,-0.16072 l 0.2434,0.38189 c -0.0307,0.0433 -0.0706,0.0865 -0.12041,0.12971 -0.0498,0.0418 -0.10835,0.08 -0.1757,0.11421 -0.0674,0.0343 -0.14349,0.0614 -0.22841,0.0822 -0.0849,0.0223 -0.17802,0.0336 -0.27905,0.0336 -0.16252,0 -0.30661,-0.0253 -0.43253,-0.076 -0.12592,-0.0507 -0.23247,-0.12325 -0.31885,-0.21859 -0.0864,-0.0953 -0.15202,-0.21175 -0.1974,-0.34882 -0.0439,-0.13855 -0.0661,-0.296 -0.0661,-0.47181 v -0.19843 c 0,-0.19666 0.0216,-0.36927 0.0641,-0.51677 0.0439,-0.14899 0.10603,-0.27327 0.18656,-0.3731 0.082,-0.10134 0.18155,-0.17724 0.29869,-0.22789 0.11859,-0.0507 0.2527,-0.076 0.40204,-0.076 z m 12.41526,0 c 0.30162,0 0.5277,0.0989 0.67851,0.29714 0.15081,0.19814 0.22635,0.4917 0.22635,0.88057 v 0.28835 h -1.23662 c 0.004,0.0968 0.0167,0.17785 0.0372,0.2434 0.022,0.0656 0.0512,0.11839 0.0879,0.15864 0.0366,0.0402 0.0805,0.0694 0.13177,0.0873 0.0527,0.0179 0.11239,0.0269 0.17828,0.0269 0.10981,0 0.20706,-0.0186 0.29198,-0.0558 0.0864,-0.0388 0.16252,-0.0922 0.22841,-0.16072 l 0.24391,0.38189 c -0.0308,0.0433 -0.0711,0.0865 -0.12092,0.12971 -0.0498,0.0418 -0.10835,0.08 -0.1757,0.11421 -0.0674,0.0343 -0.14349,0.0614 -0.22841,0.0822 -0.0849,0.0223 -0.17804,0.0336 -0.27906,0.0336 -0.16253,0 -0.30662,-0.0253 -0.43253,-0.076 -0.12592,-0.0507 -0.23195,-0.12325 -0.31833,-0.21859 -0.0864,-0.0953 -0.15253,-0.21175 -0.19792,-0.34882 -0.0439,-0.13855 -0.0656,-0.296 -0.0656,-0.47181 v -0.19843 c 0,-0.19666 0.0211,-0.36927 0.0636,-0.51677 0.0439,-0.14899 0.10602,-0.27327 0.18655,-0.3731 0.082,-0.10134 0.18156,-0.17724 0.29869,-0.22789 0.1186,-0.0507 0.2527,-0.076 0.40204,-0.076 z m 6.43475,0 c 0.30162,0 0.52822,0.0989 0.67903,0.29714 0.15081,0.19814 0.22582,0.4917 0.22582,0.88057 v 0.28835 h -1.2361 c 0.004,0.0968 0.0167,0.17785 0.0372,0.2434 0.022,0.0656 0.0512,0.11839 0.0879,0.15864 0.0366,0.0402 0.0805,0.0694 0.13178,0.0873 0.0527,0.0179 0.11187,0.0269 0.17776,0.0269 0.10981,0 0.20705,-0.0186 0.29197,-0.0558 0.0864,-0.0388 0.16252,-0.0922 0.22841,-0.16072 l 0.24392,0.38189 c -0.0307,0.0433 -0.0711,0.0865 -0.12093,0.12971 -0.0498,0.0418 -0.10835,0.08 -0.1757,0.11421 -0.0674,0.0343 -0.14349,0.0614 -0.22841,0.0822 -0.0849,0.0223 -0.1775,0.0336 -0.27853,0.0336 -0.16252,0 -0.30713,-0.0253 -0.43305,-0.076 -0.12591,-0.0507 -0.23195,-0.12325 -0.31833,-0.21859 -0.0864,-0.0953 -0.15201,-0.21175 -0.1974,-0.34882 -0.0439,-0.13855 -0.0661,-0.296 -0.0661,-0.47181 v -0.19843 c 0,-0.19666 0.0211,-0.36927 0.0636,-0.51677 0.0439,-0.14899 0.10653,-0.27327 0.18706,-0.3731 0.082,-0.10134 0.18156,-0.17724 0.29869,-0.22789 0.1186,-0.0507 0.25218,-0.076 0.40153,-0.076 z m -8.43566,0.0444 h 0.62373 v 2.41846 h -0.62373 z m -15.90756,0.48059 c -0.10834,0 -0.18741,0.0394 -0.23719,0.11834 -0.0483,0.079 -0.0765,0.20603 -0.0853,0.38034 h 0.62115 v -0.0584 c -0.003,-0.14451 -0.0264,-0.25419 -0.0703,-0.32867 -0.0439,-0.0745 -0.12006,-0.11162 -0.22841,-0.11162 z m 5.48856,0 c -0.10835,0 -0.18741,0.0394 -0.2372,0.11834 -0.0483,0.079 -0.077,0.20603 -0.0858,0.38034 h 0.62167 v -0.0584 c -0.003,-0.14451 -0.0264,-0.25419 -0.0703,-0.32867 -0.0439,-0.0745 -0.12006,-0.11162 -0.22841,-0.11162 z m 12.41526,0 c -0.10835,0 -0.18741,0.0394 -0.23719,0.11834 -0.0483,0.079 -0.0765,0.20603 -0.0853,0.38034 h 0.62115 v -0.0584 c -0.003,-0.14451 -0.0264,-0.25419 -0.0703,-0.32867 -0.0439,-0.0745 -0.12007,-0.11162 -0.22841,-0.11162 z m 6.43527,0 c -0.10835,0 -0.18742,0.0394 -0.2372,0.11834 -0.0483,0.079 -0.077,0.20603 -0.0858,0.38034 h 0.62167 v -0.0584 c -0.003,-0.14451 -0.0264,-0.25419 -0.0703,-0.32867 -0.0439,-0.0745 -0.12006,-0.11162 -0.22841,-0.11162 z m -26.58339,0.005 c -0.12299,0 -0.21438,0.0512 -0.27441,0.154 -0.0586,0.10281 -0.0879,0.26814 -0.0879,0.49609 v 0.15865 c 0,0.22348 0.0282,0.38658 0.0853,0.48937 0.0571,0.10136 0.14788,0.15193 0.27233,0.15193 0.0673,0 0.12411,-0.0118 0.1695,-0.0356 0.0468,-0.0253 0.0849,-0.0602 0.11421,-0.10491 v -1.15548 c -0.0307,-0.0491 -0.0699,-0.0874 -0.11679,-0.11421 -0.0454,-0.0268 -0.0993,-0.0398 -0.16226,-0.0398 z m -6.45904,0.83561 c -0.0586,0 -0.10947,0.009 -0.15193,0.0289 -0.0425,0.0193 -0.0782,0.0457 -0.10749,0.0801 -0.0278,0.0343 -0.0489,0.0753 -0.0636,0.12144 -0.0132,0.0462 -0.0196,0.0946 -0.0196,0.14676 0,0.0879 0.0176,0.15536 0.0527,0.20154 0.0366,0.0446 0.0876,0.0667 0.15348,0.0667 0.0688,0 0.12739,-0.0141 0.1757,-0.0424 0.0483,-0.0283 0.0841,-0.062 0.10749,-0.10077 v -0.50229 z m 4.331,0 c -0.0586,0 -0.10947,0.009 -0.15193,0.0289 -0.0425,0.0193 -0.0782,0.0457 -0.10749,0.0801 -0.0278,0.0343 -0.0489,0.0753 -0.0636,0.12144 -0.0132,0.0462 -0.0196,0.0946 -0.0196,0.14676 0,0.0879 0.0176,0.15536 0.0527,0.20154 0.0366,0.0446 0.0876,0.0667 0.15347,0.0667 0.0688,0 0.12739,-0.0141 0.1757,-0.0424 0.0483,-0.0283 0.0841,-0.062 0.10749,-0.10077 v -0.50229 z" /></g></svg>
