<?xml version="1.0" encoding="UTF-8" standalone="no"?>
<!-- Created with Inkscape (http://www.inkscape.org/) -->

<svg
   width="54.979073mm"
   height="10.500135mm"
   viewBox="0 0 54.979073 10.500135"
   version="1.1"
   id="svg1"
   xml:space="preserve"
   inkscape:version="1.3.1 (91b66b0783, 2023-11-16)"
   sodipodi:docname="topic_5.svg"
   xmlns:inkscape="http://www.inkscape.org/namespaces/inkscape"
   xmlns:sodipodi="http://sodipodi.sourceforge.net/DTD/sodipodi-0.dtd"
   xmlns="http://www.w3.org/2000/svg"
   xmlns:svg="http://www.w3.org/2000/svg"><sodipodi:namedview
     id="namedview1"
     pagecolor="#ffffff"
     bordercolor="#000000"
     borderopacity="0.25"
     inkscape:showpageshadow="2"
     inkscape:pageopacity="0.0"
     inkscape:pagecheckerboard="0"
     inkscape:deskcolor="#d1d1d1"
     inkscape:document-units="mm"
     inkscape:zoom="3.9999998"
     inkscape:cx="114.375"
     inkscape:cy="25.125001"
     inkscape:window-width="2560"
     inkscape:window-height="1346"
     inkscape:window-x="-11"
     inkscape:window-y="-11"
     inkscape:window-maximized="1"
     inkscape:current-layer="layer1"
     showgrid="true"><inkscape:grid
       id="grid668"
       units="mm"
       originx="-574.96882"
       originy="-95.677142"
       spacingx="0.5"
       spacingy="0.5"
       empcolor="#0099e5"
       empopacity="0.30196078"
       color="#0099e5"
       opacity="0.14901961"
       empspacing="5"
       dotted="false"
       gridanglex="30"
       gridanglez="30"
       visible="true" /></sodipodi:namedview><defs
     id="defs1" /><g
     inkscape:label="Layer 1"
     inkscape:groupmode="layer"
     id="layer1"
     transform="translate(-574.96882,-95.677144)"><rect
       style="fill:#f9f9f9;fill-opacity:1;stroke-width:0.499999;stroke-linejoin:round;stroke-miterlimit:3.4;stroke-dashoffset:19.8539"
       id="rect234"
       width="39.770203"
       height="7.4999967"
       x="577.7298"
       y="97.5" /><path
       id="path752"
       style="fill:#2c2c6f;fill-opacity:1;stroke-width:0.264583"
       d="m 578.59498,95.677147 c -2.00263,0 -3.62613,1.61084 -3.62613,3.59771 v 3.304713 c 0,1.98685 1.6235,3.59771 3.62613,3.59771 h 41.35303 V 95.677147 Z m 41.87083,0 v 10.500133 h 1.96474 V 95.677147 Z m 2.48254,0 v 10.500133 h 1.99987 V 95.677147 Z m 2.49959,0 v 10.500133 h 2.00039 V 95.677147 Z m 2.5001,0 v 10.500133 h 1.99988 V 95.677147 Z m -26.84746,3.47782 h 0.62167 v 1.196833 c 0.0644,-0.0799 0.13764,-0.14143 0.21963,-0.18501 0.0835,-0.0436 0.17544,-0.0656 0.27647,-0.0656 0.0981,0 0.18827,0.0167 0.27026,0.0501 0.082,0.0334 0.15228,0.086 0.21084,0.15865 0.0586,0.0726 0.10422,0.16749 0.13643,0.2837 0.0322,0.11622 0.0481,0.25772 0.0481,0.42478 v 1.48415 h -0.62374 v -1.48828 c 0,-0.0755 -0.006,-0.13882 -0.0176,-0.18966 -0.0117,-0.0509 -0.0293,-0.092 -0.0527,-0.12247 -0.0234,-0.0305 -0.0521,-0.052 -0.0858,-0.0651 -0.0337,-0.0131 -0.0729,-0.0196 -0.11834,-0.0196 -0.0615,0 -0.11359,0.0137 -0.15606,0.0413 -0.0425,0.0276 -0.0782,0.0658 -0.10749,0.11369 v 1.72961 h -0.62167 z m -16.30081,5.19e-4 h 0.62373 v 3.347084 h -0.62373 z m 2.25154,0 h 0.6258 v 3.347084 h -0.5643 l -0.0289,-0.2403 c -0.06,0.0886 -0.13092,0.15846 -0.21291,0.20929 -0.0805,0.0494 -0.17363,0.0744 -0.27905,0.0744 -0.25184,0 -0.44339,-0.0971 -0.57516,-0.29043 -0.13031,-0.19319 -0.19534,-0.47624 -0.19534,-0.84956 v -0.15451 c 0,-0.3864 0.0656,-0.67476 0.19741,-0.86506 0.13177,-0.19029 0.32384,-0.28577 0.57567,-0.28577 0.0966,0 0.18216,0.0214 0.25683,0.0636 0.0761,0.0407 0.14289,0.098 0.19999,0.17208 z m 20.75894,0 h 0.62374 v 3.347084 h -0.62374 z m -23.83369,0.0522 c 0.0513,0 0.097,0.008 0.13798,0.0238 0.0425,0.016 0.0787,0.0386 0.108,0.0677 0.0293,0.0291 0.0516,0.0637 0.0677,0.104381 0.0161,0.0392 0.0243,0.0828 0.0243,0.13074 0,0.0479 -0.008,0.0922 -0.0243,0.13281 -0.0161,0.0392 -0.0384,0.0744 -0.0677,0.10491 -0.0293,0.0291 -0.0656,0.0517 -0.108,0.0677 -0.041,0.016 -0.0867,0.0238 -0.13798,0.0238 -0.0513,0 -0.0981,-0.008 -0.14056,-0.0238 -0.041,-0.016 -0.0761,-0.0386 -0.10541,-0.0677 -0.0293,-0.0305 -0.0521,-0.0657 -0.0682,-0.10491 -0.0161,-0.0407 -0.0243,-0.0848 -0.0243,-0.13281 0,-0.0479 0.008,-0.0916 0.0243,-0.13074 0.0161,-0.0407 0.0389,-0.0753 0.0682,-0.104381 0.0293,-0.0291 0.0644,-0.0517 0.10541,-0.0677 0.0425,-0.016 0.0893,-0.0238 0.14056,-0.0238 z m 4.49534,0 c 0.0513,0 0.0975,0.008 0.13849,0.0238 0.0425,0.016 0.0782,0.0386 0.10749,0.0677 0.0293,0.0291 0.0521,0.0637 0.0682,0.104381 0.0161,0.0392 0.0243,0.0828 0.0243,0.13074 0,0.0479 -0.008,0.0922 -0.0243,0.13281 -0.0161,0.0392 -0.0389,0.0744 -0.0682,0.10491 -0.0293,0.0291 -0.065,0.0517 -0.10749,0.0677 -0.041,0.016 -0.0873,0.0238 -0.13849,0.0238 -0.0512,0 -0.0981,-0.008 -0.14056,-0.0238 -0.041,-0.016 -0.0761,-0.0386 -0.10542,-0.0677 -0.0293,-0.0305 -0.0516,-0.0657 -0.0677,-0.10491 -0.0161,-0.0407 -0.0243,-0.0848 -0.0243,-0.13281 0,-0.0479 0.008,-0.0916 0.0243,-0.13074 0.0161,-0.0407 0.0384,-0.0753 0.0677,-0.104381 0.0293,-0.0291 0.0644,-0.0517 0.10542,-0.0677 0.0425,-0.016 0.0893,-0.0238 0.14056,-0.0238 z m -9.54051,0.121961 h 0.98857 c 0.15959,0 0.30249,0.0179 0.4284,0.0527 0.12739,0.0348 0.23461,0.0881 0.32246,0.160709 0.0879,0.0712 0.1546,0.161331 0.19999,0.27027 0.0469,0.10895 0.0703,0.237344 0.0703,0.385504 0,0.0726 -0.008,0.14247 -0.0243,0.20929 -0.0146,0.0669 -0.0386,0.12949 -0.0723,0.18759 -0.0322,0.0581 -0.0738,0.11125 -0.12506,0.15916 -0.0498,0.0465 -0.11006,0.0847 -0.18035,0.11524 0.082,0.0232 0.15167,0.059 0.20877,0.10697 0.0571,0.0465 0.10335,0.10085 0.13849,0.1633 0.0351,0.0624 0.0609,0.13053 0.077,0.20464 0.0161,0.0726 0.0238,0.1478 0.0238,0.22479 0,0.30797 -0.0855,0.54023 -0.25683,0.69711 -0.16984,0.15689 -0.41643,0.23565 -0.74001,0.23565 h -1.05885 z m 15.60215,0 h 2.21641 v 0.53381 h -0.79065 v 2.639123 h -0.64803 v -2.639123 h -0.77773 z m -14.95619,0.53381 v 0.793243 h 0.3359 c 0.12884,0 0.22427,-0.0323 0.28577,-0.0977 0.063,-0.0668 0.0941,-0.16465 0.0941,-0.29249 0,-0.1438 -0.0292,-0.24657 -0.0879,-0.309033 -0.0586,-0.0624 -0.15349,-0.0941 -0.28526,-0.0941 z m 10.82725,0.237203 v 5.1e-4 c 0.0922,0 0.17716,0.0162 0.25476,0.0481 0.0776,0.0305 0.14435,0.0807 0.19999,0.15193 0.0556,0.0711 0.099,0.1643 0.12971,0.27905 0.0307,0.11476 0.046,0.25618 0.046,0.42323 v 1.49914 h -0.62374 v -1.50172 c 0,-0.0755 -0.006,-0.13768 -0.0176,-0.18707 -0.0117,-0.0494 -0.0293,-0.0893 -0.0527,-0.11834 -0.022,-0.0291 -0.0495,-0.0494 -0.0832,-0.061 -0.0337,-0.0116 -0.0735,-0.0176 -0.11886,-0.0176 -0.0586,0 -0.10955,0.0156 -0.15348,0.046 -0.0439,0.0305 -0.0808,0.0729 -0.11007,0.1266 v 1.71204 h -0.62373 v -2.35696 h 0.58446 l 0.0176,0.23306 c 0.0688,-0.0901 0.14908,-0.15867 0.24132,-0.20515 0.0922,-0.0479 0.19534,-0.0718 0.30955,-0.0718 z m 9.51001,0 v 5.1e-4 c 0.12738,0 0.24331,0.0203 0.34727,0.061 0.10542,0.0392 0.19447,0.0978 0.26768,0.17622 0.0747,0.077 0.13203,0.17256 0.17157,0.28732 0.041,0.11476 0.0621,0.24787 0.0636,0.39894 h -0.58446 c -0.002,-0.13219 -0.0232,-0.23372 -0.0656,-0.30489 -0.0425,-0.0711 -0.11274,-0.10645 -0.21084,-0.10645 -0.0688,0 -0.12385,0.0132 -0.16485,0.0408 -0.0395,0.0276 -0.0705,0.0682 -0.0925,0.12196 -0.0205,0.0523 -0.034,0.11795 -0.0413,0.19637 -0.006,0.077 -0.009,0.16652 -0.009,0.2682 v 0.1695 c 0,0.10313 0.003,0.19389 0.009,0.27233 0.006,0.077 0.0188,0.14201 0.0393,0.19431 0.022,0.0523 0.0536,0.0912 0.0946,0.1173 0.041,0.0261 0.0966,0.0398 0.16692,0.0398 0.0864,0 0.15313,-0.0262 0.19998,-0.0786 0.0483,-0.0538 0.0729,-0.14392 0.0744,-0.27026 h 0.58446 c -0.001,0.13364 -0.0243,0.25424 -0.0682,0.36173 -0.0439,0.10605 -0.1037,0.19567 -0.17983,0.26975 -0.0747,0.0741 -0.16363,0.13131 -0.26613,0.17054 -0.10249,0.0392 -0.21265,0.0589 -0.33125,0.0589 -0.1596,0 -0.29894,-0.0256 -0.41754,-0.0765 -0.11859,-0.0509 -0.21757,-0.12429 -0.29663,-0.22015 -0.0776,-0.0973 -0.13617,-0.21617 -0.1757,-0.35708 -0.0381,-0.14091 -0.0563,-0.30202 -0.0563,-0.48214 v -0.1695 c 0,-0.18012 0.0183,-0.3407 0.0563,-0.48162 0.0395,-0.14236 0.0981,-0.26234 0.1757,-0.35967 0.0776,-0.0973 0.17596,-0.17136 0.29456,-0.22221 0.11859,-0.0509 0.25683,-0.0765 0.41496,-0.0765 z m 4.55269,0 v 5.1e-4 c 0.0922,0 0.17717,0.0162 0.25477,0.0481 0.0776,0.0305 0.14435,0.0807 0.19999,0.15193 0.0556,0.0711 0.099,0.1643 0.1297,0.27905 0.0308,0.11476 0.046,0.25618 0.046,0.42323 v 1.49914 h -0.62374 v -1.50172 c 0,-0.0755 -0.006,-0.13768 -0.0176,-0.18707 -0.0117,-0.0494 -0.0293,-0.0893 -0.0527,-0.11834 -0.022,-0.0291 -0.05,-0.0494 -0.0837,-0.061 -0.0337,-0.0116 -0.0729,-0.0176 -0.11834,-0.0176 -0.0586,0 -0.11008,0.0156 -0.154,0.046 -0.0439,0.0305 -0.0803,0.0729 -0.10955,0.1266 v 1.71204 h -0.62374 v -2.35696 h 0.58446 l 0.0176,0.23306 c 0.0688,-0.0901 0.14908,-0.15867 0.24133,-0.20515 0.0922,-0.0479 0.19533,-0.0718 0.30954,-0.0718 z m -12.2592,5.1e-4 c 0.11566,0 0.21351,0.0226 0.29404,0.0677 0.0805,0.0436 0.14848,0.10512 0.20412,0.185 l 0.0243,-0.20929 h 0.56018 v 2.358 c 0,0.16124 -0.024,0.29927 -0.0724,0.41548 -0.0469,0.11767 -0.1136,0.21489 -0.19999,0.29042 -0.0864,0.0755 -0.1906,0.13112 -0.31213,0.16743 -0.12006,0.0363 -0.25364,0.0548 -0.40152,0.0548 -0.0556,0 -0.11714,-0.006 -0.18449,-0.0176 -0.0673,-0.0116 -0.1347,-0.0295 -0.20205,-0.0527 -0.0674,-0.0217 -0.13178,-0.0498 -0.19327,-0.0847 -0.06,-0.0334 -0.11094,-0.0728 -0.15193,-0.11937 l 0.20877,-0.42737 c 0.0278,0.0291 0.0606,0.0559 0.0987,0.0806 0.0395,0.0261 0.0805,0.0476 0.12299,0.0651 0.0439,0.0189 0.0896,0.0333 0.13642,0.0434 0.0469,0.0116 0.092,0.0176 0.13591,0.0176 0.063,0 0.1186,-0.007 0.16691,-0.0217 0.0498,-0.0131 0.0919,-0.0358 0.12558,-0.0692 0.0337,-0.0334 0.0583,-0.0776 0.0744,-0.13281 0.0176,-0.0553 0.0264,-0.12445 0.0264,-0.20722 v -0.18966 c -0.0571,0.0741 -0.12385,0.13142 -0.19999,0.17209 -0.0747,0.0392 -0.16252,0.0589 -0.26355,0.0589 -0.12592,0 -0.2384,-0.025 -0.33796,-0.0744 -0.0981,-0.0494 -0.18181,-0.12171 -0.25063,-0.21756 -0.0674,-0.0958 -0.11895,-0.21462 -0.15555,-0.35553 -0.0366,-0.14236 -0.0553,-0.30603 -0.0553,-0.49196 v -0.15503 c 0,-0.38639 0.0703,-0.67476 0.21084,-0.86506 0.14056,-0.19029 0.33787,-0.28526 0.59117,-0.28526 z m 5.58261,0 c 0.30162,0 0.5277,0.0961 0.67851,0.28939 0.15081,0.1932 0.22634,0.47972 0.22634,0.85886 v 0.28112 h -1.23661 c 0.004,0.0945 0.0172,0.1733 0.0377,0.2372 0.022,0.0639 0.0512,0.11578 0.0879,0.15503 0.0366,0.0392 0.0805,0.0674 0.13177,0.0847 0.0527,0.0175 0.11188,0.0264 0.17777,0.0264 0.10981,0 0.20705,-0.018 0.29197,-0.0543 0.0864,-0.0378 0.16252,-0.0903 0.22841,-0.15709 l 0.24392,0.37207 c -0.0308,0.0422 -0.0711,0.0845 -0.12093,0.1266 -0.0498,0.0407 -0.10835,0.0783 -0.1757,0.11163 -0.0674,0.0334 -0.14349,0.0597 -0.22841,0.0801 -0.0849,0.0217 -0.17802,0.0331 -0.27905,0.0331 -0.16252,0 -0.30662,-0.025 -0.43253,-0.0744 -0.12592,-0.0494 -0.23194,-0.12047 -0.31833,-0.21342 -0.0864,-0.093 -0.15253,-0.20587 -0.19792,-0.33952 -0.0439,-0.13508 -0.0656,-0.28852 -0.0656,-0.45992 v -0.19378 c 0,-0.19175 0.0211,-0.36005 0.0636,-0.50385 0.0439,-0.14527 0.10603,-0.26648 0.18656,-0.3638 0.082,-0.0988 0.18156,-0.17281 0.29869,-0.22221 0.1186,-0.0494 0.2527,-0.0739 0.40204,-0.0739 z m 8.6403,0 c 0.14788,0 0.28086,0.0251 0.39946,0.076 0.1186,0.0494 0.21988,0.12283 0.30334,0.22014 0.0835,0.0973 0.14788,0.21679 0.19327,0.35915 0.0454,0.14236 0.0677,0.30644 0.0677,0.49093 v 0.15451 c 0,0.18593 -0.0223,0.35011 -0.0677,0.49248 -0.0439,0.1409 -0.10776,0.26027 -0.19121,0.3576 -0.0835,0.0973 -0.18475,0.17024 -0.30334,0.21962 -0.1186,0.0494 -0.25097,0.0744 -0.39739,0.0744 -0.14788,0 -0.28086,-0.025 -0.39946,-0.0744 -0.11859,-0.0494 -0.21988,-0.12231 -0.30334,-0.21962 -0.0835,-0.0973 -0.14788,-0.2167 -0.19327,-0.3576 -0.0454,-0.14237 -0.0677,-0.30655 -0.0677,-0.49248 v -0.15451 c 0,-0.18449 0.0223,-0.34857 0.0677,-0.49093 0.0454,-0.14236 0.10981,-0.26183 0.19327,-0.35915 0.0835,-0.0973 0.18363,-0.17075 0.30076,-0.22014 0.1186,-0.0509 0.25149,-0.076 0.39791,-0.076 z m 3.37137,0 c 0.14788,0 0.28086,0.0251 0.39946,0.076 0.1186,0.0494 0.21988,0.12283 0.30334,0.22014 0.0835,0.0973 0.14788,0.21679 0.19327,0.35915 0.0454,0.14236 0.0677,0.30644 0.0677,0.49093 v 0.15451 c 0,0.18593 -0.0223,0.35011 -0.0677,0.49248 -0.0439,0.1409 -0.10775,0.26027 -0.1912,0.3576 -0.0835,0.0973 -0.18476,0.17024 -0.30335,0.21962 -0.1186,0.0494 -0.25097,0.0744 -0.39739,0.0744 -0.14788,0 -0.28087,-0.025 -0.39946,-0.0744 -0.1186,-0.0494 -0.21988,-0.12231 -0.30334,-0.21962 -0.0835,-0.0973 -0.14788,-0.2167 -0.19327,-0.3576 -0.0454,-0.14237 -0.0682,-0.30655 -0.0682,-0.49248 v -0.15451 c 0,-0.18449 0.0228,-0.34857 0.0682,-0.49093 0.0454,-0.14236 0.10981,-0.26183 0.19327,-0.35915 0.0835,-0.0973 0.18363,-0.17075 0.30076,-0.22014 0.1186,-0.0509 0.25149,-0.076 0.39791,-0.076 z m 2.07739,0 c 0.11567,0 0.21403,0.0226 0.29456,0.0677 0.0805,0.0436 0.14848,0.10512 0.20412,0.185 l 0.0243,-0.20929 h 0.55965 v 2.358 c 0,0.16124 -0.0239,0.29927 -0.0723,0.41548 -0.0468,0.11767 -0.11361,0.21489 -0.19999,0.29042 -0.0864,0.0755 -0.19008,0.13112 -0.31161,0.16743 -0.12006,0.0363 -0.25416,0.0548 -0.40204,0.0548 -0.0556,0 -0.11714,-0.006 -0.18449,-0.0176 -0.0674,-0.0116 -0.1347,-0.0295 -0.20205,-0.0527 -0.0674,-0.0217 -0.13178,-0.0498 -0.19327,-0.0847 -0.06,-0.0334 -0.11043,-0.0728 -0.15142,-0.11937 l 0.20878,-0.42737 c 0.0278,0.0291 0.0606,0.0559 0.0987,0.0806 0.0395,0.0261 0.0805,0.0476 0.12299,0.0651 0.0439,0.0189 0.0891,0.0333 0.13591,0.0434 0.0469,0.0116 0.0925,0.0176 0.13642,0.0176 0.063,0 0.1186,-0.007 0.16692,-0.0217 0.0498,-0.0131 0.0914,-0.0358 0.12506,-0.0692 0.0337,-0.0334 0.0588,-0.0776 0.0749,-0.13281 0.0176,-0.0553 0.0258,-0.12445 0.0258,-0.20722 v -0.18966 c -0.0571,0.0741 -0.12334,0.13142 -0.19948,0.17209 -0.0747,0.0392 -0.16252,0.0589 -0.26355,0.0589 -0.12591,0 -0.23891,-0.025 -0.33848,-0.0744 -0.0981,-0.0494 -0.1813,-0.12171 -0.25011,-0.21756 -0.0674,-0.0958 -0.11946,-0.21462 -0.15606,-0.35553 -0.0366,-0.14236 -0.0548,-0.30603 -0.0548,-0.49196 v -0.15503 c 0,-0.38639 0.0703,-0.67476 0.21084,-0.86506 0.14056,-0.19029 0.33736,-0.28526 0.59066,-0.28526 z m -30.47101,0.0434 h 0.62167 v 1.52963 c 0,0.12929 0.0211,0.22126 0.0636,0.27646 0.0425,0.0538 0.0981,0.0811 0.16692,0.0811 0.0761,0 0.13935,-0.0162 0.18913,-0.0481 0.0498,-0.0334 0.0891,-0.0782 0.11834,-0.13488 v -1.70429 h 0.62632 v 2.358 h -0.58446 l -0.0176,-0.21601 c -0.0615,0.0829 -0.13531,0.14669 -0.22169,0.19172 -0.0849,0.045 -0.18387,0.0677 -0.29662,0.0677 -0.0996,0 -0.19035,-0.0162 -0.27234,-0.0481 -0.0805,-0.0334 -0.15021,-0.0853 -0.20877,-0.15503 -0.0586,-0.0711 -0.1037,-0.16194 -0.13591,-0.27234 -0.0322,-0.11186 -0.0486,-0.24557 -0.0486,-0.40101 z m 2.25775,0 h 0.62373 v 2.358 h -0.62373 z m 4.49585,0 h 0.62373 v 2.358 h -0.62373 z m 25.06152,0 h 0.66765 l 0.28578,1.33119 0.31626,-1.33119 h 0.663 l -0.78186,2.71043 c -0.0176,0.0596 -0.0416,0.1241 -0.0724,0.19379 -0.0293,0.0697 -0.0697,0.13475 -0.12092,0.1943 -0.0513,0.061 -0.11507,0.11119 -0.1912,0.15038 -0.0761,0.0407 -0.16813,0.061 -0.27647,0.061 -0.0278,0 -0.053,-0.001 -0.0749,-0.004 -0.0205,-10e-4 -0.0399,-0.003 -0.0589,-0.007 -0.0176,-0.003 -0.0362,-0.007 -0.0553,-0.0134 -0.019,-0.005 -0.0407,-0.0105 -0.0656,-0.0176 v -0.48111 c 0.0117,9.9e-4 0.0234,0.002 0.0351,0.002 h 0.0372 c 0.0498,0 0.0931,-0.005 0.12971,-0.015 0.0366,-0.009 0.0671,-0.0235 0.092,-0.0439 0.0264,-0.0203 0.048,-0.0464 0.0641,-0.0786 0.0176,-0.0305 0.0322,-0.0675 0.0439,-0.1111 l 0.048,-0.15916 z m -15.43731,0.46871 c -0.10835,0 -0.18741,0.0383 -0.23719,0.11524 -0.0483,0.077 -0.077,0.20057 -0.0858,0.37052 h 0.62166 v -0.0568 c -0.003,-0.1409 -0.0264,-0.24775 -0.0703,-0.32039 -0.0439,-0.0726 -0.12006,-0.10852 -0.22841,-0.10852 z m 8.64444,0 c -0.10542,0 -0.18854,0.052 -0.24857,0.15658 -0.0586,0.10313 -0.0879,0.2625 -0.0879,0.47749 l 5.2e-4,0.15451 c 0,0.21935 0.0299,0.37995 0.0899,0.48162 0.06,0.10025 0.14322,0.15038 0.25011,0.15038 0.11274,0 0.19767,-0.0502 0.25477,-0.15038 0.0571,-0.10167 0.0858,-0.26227 0.0858,-0.48162 v -0.15451 c 0,-0.21499 -0.0299,-0.37436 -0.0899,-0.47749 -0.06,-0.10459 -0.14495,-0.15658 -0.25476,-0.15658 z m 3.37137,0 c -0.10542,0 -0.18854,0.052 -0.24856,0.15658 -0.0586,0.10313 -0.0879,0.2625 -0.0879,0.47749 v 0.15451 c 0,0.21935 0.0304,0.37995 0.0904,0.48162 0.06,0.10025 0.14323,0.15038 0.25011,0.15038 0.11274,0 0.19767,-0.0502 0.25477,-0.15038 0.0571,-0.10167 0.0858,-0.26227 0.0858,-0.48162 v -0.15451 c 0,-0.21499 -0.0299,-0.37436 -0.0899,-0.47749 -0.06,-0.10459 -0.14495,-0.15658 -0.25476,-0.15658 z m -23.02805,0.004 c -0.0615,0 -0.11361,0.0131 -0.15607,0.0377 -0.041,0.0247 -0.0744,0.0623 -0.10076,0.11317 -0.0264,0.0509 -0.0456,0.11658 -0.0574,0.19792 -0.0103,0.0799 -0.015,0.17538 -0.015,0.28577 v 0.15451 c 0,0.10894 0.005,0.20268 0.015,0.28112 0.0102,0.0785 0.0278,0.14409 0.0527,0.19637 0.0264,0.0509 0.0603,0.0885 0.10129,0.11318 0.0425,0.0232 0.0952,0.0351 0.15813,0.0351 0.0659,0 0.12152,-0.0149 0.16691,-0.0439 0.0454,-0.0291 0.0828,-0.0691 0.11214,-0.11989 v -1.07642 c -0.0293,-0.0552 -0.0673,-0.0976 -0.1142,-0.12816 -0.0454,-0.0305 -0.0998,-0.0465 -0.16278,-0.0465 z m 5.61567,5.1e-4 c -0.12299,0 -0.21437,0.0502 -0.2744,0.15038 -0.0586,0.10024 -0.0879,0.26144 -0.0879,0.48369 v 0.15451 c 0,0.21789 0.0287,0.37727 0.0858,0.47749 0.0571,0.0988 0.14787,0.14832 0.27233,0.14832 0.0674,0 0.12359,-0.0119 0.16898,-0.0351 0.0469,-0.0247 0.0849,-0.0587 0.11421,-0.10232 v -1.12655 c -0.0307,-0.0479 -0.0694,-0.0849 -0.11627,-0.1111 -0.0454,-0.0261 -0.0998,-0.0393 -0.16279,-0.0393 z m 19.67219,0 c -0.12299,0 -0.21437,0.0502 -0.2744,0.15038 -0.0586,0.10024 -0.0879,0.26144 -0.0879,0.48369 v 0.15451 c 0,0.21789 0.0282,0.37727 0.0853,0.47749 0.0571,0.0988 0.14789,0.14832 0.27234,0.14832 0.0674,0 0.12411,-0.0119 0.1695,-0.0351 0.0469,-0.0247 0.0849,-0.0587 0.1142,-0.10232 v -1.12655 c -0.0307,-0.0479 -0.0699,-0.0849 -0.11679,-0.1111 -0.0454,-0.0261 -0.0993,-0.0393 -0.16226,-0.0393 z m -32.48484,0.5054 v 0.84801 h 0.41289 c 0.063,0 0.11628,-0.0106 0.1602,-0.031 0.0454,-0.0203 0.0823,-0.049 0.11007,-0.0853 0.0293,-0.0378 0.0504,-0.0813 0.0636,-0.13075 0.0132,-0.0494 0.0196,-0.10324 0.0196,-0.16278 0,-0.1351 -0.0258,-0.24194 -0.077,-0.32039 -0.0498,-0.0785 -0.1347,-0.11782 -0.25476,-0.11782 z"
       inkscape:export-filename="topic_tags\topic_5.svg"
       inkscape:export-xdpi="96"
       inkscape:export-ydpi="96" /><path
       id="path169"
       style="fill:#808ff7;fill-opacity:1;stroke-width:0.264583"
       d="m 578.59498,95.677147 c -2.00263,0 -3.62613,1.61084 -3.62613,3.59771 v 3.304713 c 0,1.98685 1.6235,3.59771 3.62613,3.59771 h 41.35303 V 95.677147 Z m 41.87083,0 v 10.500133 h 1.96474 V 95.677147 Z m 2.48254,0 v 10.500133 h 1.99987 V 95.677147 Z m 2.49959,0 v 10.500133 h 2.00039 V 95.677147 Z m 2.5001,0 v 10.500133 h 1.99988 V 95.677147 Z m -26.84746,3.47782 h 0.62167 v 1.196833 c 0.0644,-0.0799 0.13764,-0.14143 0.21963,-0.18501 0.0835,-0.0436 0.17544,-0.0656 0.27647,-0.0656 0.0981,0 0.18827,0.0167 0.27026,0.0501 0.082,0.0334 0.15228,0.086 0.21084,0.15865 0.0586,0.0726 0.10422,0.16749 0.13643,0.2837 0.0322,0.11622 0.0481,0.25772 0.0481,0.42478 v 1.48415 h -0.62374 v -1.48828 c 0,-0.0755 -0.006,-0.13882 -0.0176,-0.18966 -0.0117,-0.0509 -0.0293,-0.092 -0.0527,-0.12247 -0.0234,-0.0305 -0.0521,-0.052 -0.0858,-0.0651 -0.0337,-0.0131 -0.0729,-0.0196 -0.11834,-0.0196 -0.0615,0 -0.11359,0.0137 -0.15606,0.0413 -0.0425,0.0276 -0.0782,0.0658 -0.10749,0.11369 v 1.72961 h -0.62167 z m -16.30081,5.19e-4 h 0.62373 v 3.347084 h -0.62373 z m 2.25154,0 h 0.6258 v 3.347084 h -0.5643 l -0.0289,-0.2403 c -0.06,0.0886 -0.13092,0.15846 -0.21291,0.20929 -0.0805,0.0494 -0.17363,0.0744 -0.27905,0.0744 -0.25184,0 -0.44339,-0.0971 -0.57516,-0.29043 -0.13031,-0.19319 -0.19534,-0.47624 -0.19534,-0.84956 v -0.15451 c 0,-0.3864 0.0656,-0.67476 0.19741,-0.86506 0.13177,-0.19029 0.32384,-0.28577 0.57567,-0.28577 0.0966,0 0.18216,0.0214 0.25683,0.0636 0.0761,0.0407 0.14289,0.098 0.19999,0.17208 z m 20.75894,0 h 0.62374 v 3.347084 h -0.62374 z m -23.83369,0.0522 c 0.0513,0 0.097,0.008 0.13798,0.0238 0.0425,0.016 0.0787,0.0386 0.108,0.0677 0.0293,0.0291 0.0516,0.0637 0.0677,0.104381 0.0161,0.0392 0.0243,0.0828 0.0243,0.13074 0,0.0479 -0.008,0.0922 -0.0243,0.13281 -0.0161,0.0392 -0.0384,0.0744 -0.0677,0.10491 -0.0293,0.0291 -0.0656,0.0517 -0.108,0.0677 -0.041,0.016 -0.0867,0.0238 -0.13798,0.0238 -0.0513,0 -0.0981,-0.008 -0.14056,-0.0238 -0.041,-0.016 -0.0761,-0.0386 -0.10541,-0.0677 -0.0293,-0.0305 -0.0521,-0.0657 -0.0682,-0.10491 -0.0161,-0.0407 -0.0243,-0.0848 -0.0243,-0.13281 0,-0.0479 0.008,-0.0916 0.0243,-0.13074 0.0161,-0.0407 0.0389,-0.0753 0.0682,-0.104381 0.0293,-0.0291 0.0644,-0.0517 0.10541,-0.0677 0.0425,-0.016 0.0893,-0.0238 0.14056,-0.0238 z m 4.49534,0 c 0.0513,0 0.0975,0.008 0.13849,0.0238 0.0425,0.016 0.0782,0.0386 0.10749,0.0677 0.0293,0.0291 0.0521,0.0637 0.0682,0.104381 0.0161,0.0392 0.0243,0.0828 0.0243,0.13074 0,0.0479 -0.008,0.0922 -0.0243,0.13281 -0.0161,0.0392 -0.0389,0.0744 -0.0682,0.10491 -0.0293,0.0291 -0.065,0.0517 -0.10749,0.0677 -0.041,0.016 -0.0873,0.0238 -0.13849,0.0238 -0.0512,0 -0.0981,-0.008 -0.14056,-0.0238 -0.041,-0.016 -0.0761,-0.0386 -0.10542,-0.0677 -0.0293,-0.0305 -0.0516,-0.0657 -0.0677,-0.10491 -0.0161,-0.0407 -0.0243,-0.0848 -0.0243,-0.13281 0,-0.0479 0.008,-0.0916 0.0243,-0.13074 0.0161,-0.0407 0.0384,-0.0753 0.0677,-0.104381 0.0293,-0.0291 0.0644,-0.0517 0.10542,-0.0677 0.0425,-0.016 0.0893,-0.0238 0.14056,-0.0238 z m -9.54051,0.121961 h 0.98857 c 0.15959,0 0.30249,0.0179 0.4284,0.0527 0.12739,0.0348 0.23461,0.0881 0.32246,0.160709 0.0879,0.0712 0.1546,0.161331 0.19999,0.27027 0.0469,0.10895 0.0703,0.237344 0.0703,0.385504 0,0.0726 -0.008,0.14247 -0.0243,0.20929 -0.0146,0.0669 -0.0386,0.12949 -0.0723,0.18759 -0.0322,0.0581 -0.0738,0.11125 -0.12506,0.15916 -0.0498,0.0465 -0.11006,0.0847 -0.18035,0.11524 0.082,0.0232 0.15167,0.059 0.20877,0.10697 0.0571,0.0465 0.10335,0.10085 0.13849,0.1633 0.0351,0.0624 0.0609,0.13053 0.077,0.20464 0.0161,0.0726 0.0238,0.1478 0.0238,0.22479 0,0.30797 -0.0855,0.54023 -0.25683,0.69711 -0.16984,0.15689 -0.41643,0.23565 -0.74001,0.23565 h -1.05885 z m 15.60215,0 h 2.21641 v 0.53381 h -0.79065 v 2.639123 h -0.64803 v -2.639123 h -0.77773 z m -14.95619,0.53381 v 0.793243 h 0.3359 c 0.12884,0 0.22427,-0.0323 0.28577,-0.0977 0.063,-0.0668 0.0941,-0.16465 0.0941,-0.29249 0,-0.1438 -0.0292,-0.24657 -0.0879,-0.309033 -0.0586,-0.0624 -0.15349,-0.0941 -0.28526,-0.0941 z m 10.82725,0.237203 v 5.1e-4 c 0.0922,0 0.17716,0.0162 0.25476,0.0481 0.0776,0.0305 0.14435,0.0807 0.19999,0.15193 0.0556,0.0711 0.099,0.1643 0.12971,0.27905 0.0307,0.11476 0.046,0.25618 0.046,0.42323 v 1.49914 h -0.62374 v -1.50172 c 0,-0.0755 -0.006,-0.13768 -0.0176,-0.18707 -0.0117,-0.0494 -0.0293,-0.0893 -0.0527,-0.11834 -0.022,-0.0291 -0.0495,-0.0494 -0.0832,-0.061 -0.0337,-0.0116 -0.0735,-0.0176 -0.11886,-0.0176 -0.0586,0 -0.10955,0.0156 -0.15348,0.046 -0.0439,0.0305 -0.0808,0.0729 -0.11007,0.1266 v 1.71204 h -0.62373 v -2.35696 h 0.58446 l 0.0176,0.23306 c 0.0688,-0.0901 0.14908,-0.15867 0.24132,-0.20515 0.0922,-0.0479 0.19534,-0.0718 0.30955,-0.0718 z m 9.51001,0 v 5.1e-4 c 0.12738,0 0.24331,0.0203 0.34727,0.061 0.10542,0.0392 0.19447,0.0978 0.26768,0.17622 0.0747,0.077 0.13203,0.17256 0.17157,0.28732 0.041,0.11476 0.0621,0.24787 0.0636,0.39894 h -0.58446 c -0.002,-0.13219 -0.0232,-0.23372 -0.0656,-0.30489 -0.0425,-0.0711 -0.11274,-0.10645 -0.21084,-0.10645 -0.0688,0 -0.12385,0.0132 -0.16485,0.0408 -0.0395,0.0276 -0.0705,0.0682 -0.0925,0.12196 -0.0205,0.0523 -0.034,0.11795 -0.0413,0.19637 -0.006,0.077 -0.009,0.16652 -0.009,0.2682 v 0.1695 c 0,0.10313 0.003,0.19389 0.009,0.27233 0.006,0.077 0.0188,0.14201 0.0393,0.19431 0.022,0.0523 0.0536,0.0912 0.0946,0.1173 0.041,0.0261 0.0966,0.0398 0.16692,0.0398 0.0864,0 0.15313,-0.0262 0.19998,-0.0786 0.0483,-0.0538 0.0729,-0.14392 0.0744,-0.27026 h 0.58446 c -0.001,0.13364 -0.0243,0.25424 -0.0682,0.36173 -0.0439,0.10605 -0.1037,0.19567 -0.17983,0.26975 -0.0747,0.0741 -0.16363,0.13131 -0.26613,0.17054 -0.10249,0.0392 -0.21265,0.0589 -0.33125,0.0589 -0.1596,0 -0.29894,-0.0256 -0.41754,-0.0765 -0.11859,-0.0509 -0.21757,-0.12429 -0.29663,-0.22015 -0.0776,-0.0973 -0.13617,-0.21617 -0.1757,-0.35708 -0.0381,-0.14091 -0.0563,-0.30202 -0.0563,-0.48214 v -0.1695 c 0,-0.18012 0.0183,-0.3407 0.0563,-0.48162 0.0395,-0.14236 0.0981,-0.26234 0.1757,-0.35967 0.0776,-0.0973 0.17596,-0.17136 0.29456,-0.22221 0.11859,-0.0509 0.25683,-0.0765 0.41496,-0.0765 z m 4.55269,0 v 5.1e-4 c 0.0922,0 0.17717,0.0162 0.25477,0.0481 0.0776,0.0305 0.14435,0.0807 0.19999,0.15193 0.0556,0.0711 0.099,0.1643 0.1297,0.27905 0.0308,0.11476 0.046,0.25618 0.046,0.42323 v 1.49914 h -0.62374 v -1.50172 c 0,-0.0755 -0.006,-0.13768 -0.0176,-0.18707 -0.0117,-0.0494 -0.0293,-0.0893 -0.0527,-0.11834 -0.022,-0.0291 -0.05,-0.0494 -0.0837,-0.061 -0.0337,-0.0116 -0.0729,-0.0176 -0.11834,-0.0176 -0.0586,0 -0.11008,0.0156 -0.154,0.046 -0.0439,0.0305 -0.0803,0.0729 -0.10955,0.1266 v 1.71204 h -0.62374 v -2.35696 h 0.58446 l 0.0176,0.23306 c 0.0688,-0.0901 0.14908,-0.15867 0.24133,-0.20515 0.0922,-0.0479 0.19533,-0.0718 0.30954,-0.0718 z m -12.2592,5.1e-4 c 0.11566,0 0.21351,0.0226 0.29404,0.0677 0.0805,0.0436 0.14848,0.10512 0.20412,0.185 l 0.0243,-0.20929 h 0.56018 v 2.358 c 0,0.16124 -0.024,0.29927 -0.0724,0.41548 -0.0469,0.11767 -0.1136,0.21489 -0.19999,0.29042 -0.0864,0.0755 -0.1906,0.13112 -0.31213,0.16743 -0.12006,0.0363 -0.25364,0.0548 -0.40152,0.0548 -0.0556,0 -0.11714,-0.006 -0.18449,-0.0176 -0.0673,-0.0116 -0.1347,-0.0295 -0.20205,-0.0527 -0.0674,-0.0217 -0.13178,-0.0498 -0.19327,-0.0847 -0.06,-0.0334 -0.11094,-0.0728 -0.15193,-0.11937 l 0.20877,-0.42737 c 0.0278,0.0291 0.0606,0.0559 0.0987,0.0806 0.0395,0.0261 0.0805,0.0476 0.12299,0.0651 0.0439,0.0189 0.0896,0.0333 0.13642,0.0434 0.0469,0.0116 0.092,0.0176 0.13591,0.0176 0.063,0 0.1186,-0.007 0.16691,-0.0217 0.0498,-0.0131 0.0919,-0.0358 0.12558,-0.0692 0.0337,-0.0334 0.0583,-0.0776 0.0744,-0.13281 0.0176,-0.0553 0.0264,-0.12445 0.0264,-0.20722 v -0.18966 c -0.0571,0.0741 -0.12385,0.13142 -0.19999,0.17209 -0.0747,0.0392 -0.16252,0.0589 -0.26355,0.0589 -0.12592,0 -0.2384,-0.025 -0.33796,-0.0744 -0.0981,-0.0494 -0.18181,-0.12171 -0.25063,-0.21756 -0.0674,-0.0958 -0.11895,-0.21462 -0.15555,-0.35553 -0.0366,-0.14236 -0.0553,-0.30603 -0.0553,-0.49196 v -0.15503 c 0,-0.38639 0.0703,-0.67476 0.21084,-0.86506 0.14056,-0.19029 0.33787,-0.28526 0.59117,-0.28526 z m 5.58261,0 c 0.30162,0 0.5277,0.0961 0.67851,0.28939 0.15081,0.1932 0.22634,0.47972 0.22634,0.85886 v 0.28112 h -1.23661 c 0.004,0.0945 0.0172,0.1733 0.0377,0.2372 0.022,0.0639 0.0512,0.11578 0.0879,0.15503 0.0366,0.0392 0.0805,0.0674 0.13177,0.0847 0.0527,0.0175 0.11188,0.0264 0.17777,0.0264 0.10981,0 0.20705,-0.018 0.29197,-0.0543 0.0864,-0.0378 0.16252,-0.0903 0.22841,-0.15709 l 0.24392,0.37207 c -0.0308,0.0422 -0.0711,0.0845 -0.12093,0.1266 -0.0498,0.0407 -0.10835,0.0783 -0.1757,0.11163 -0.0674,0.0334 -0.14349,0.0597 -0.22841,0.0801 -0.0849,0.0217 -0.17802,0.0331 -0.27905,0.0331 -0.16252,0 -0.30662,-0.025 -0.43253,-0.0744 -0.12592,-0.0494 -0.23194,-0.12047 -0.31833,-0.21342 -0.0864,-0.093 -0.15253,-0.20587 -0.19792,-0.33952 -0.0439,-0.13508 -0.0656,-0.28852 -0.0656,-0.45992 v -0.19378 c 0,-0.19175 0.0211,-0.36005 0.0636,-0.50385 0.0439,-0.14527 0.10603,-0.26648 0.18656,-0.3638 0.082,-0.0988 0.18156,-0.17281 0.29869,-0.22221 0.1186,-0.0494 0.2527,-0.0739 0.40204,-0.0739 z m 8.6403,0 c 0.14788,0 0.28086,0.0251 0.39946,0.076 0.1186,0.0494 0.21988,0.12283 0.30334,0.22014 0.0835,0.0973 0.14788,0.21679 0.19327,0.35915 0.0454,0.14236 0.0677,0.30644 0.0677,0.49093 v 0.15451 c 0,0.18593 -0.0223,0.35011 -0.0677,0.49248 -0.0439,0.1409 -0.10776,0.26027 -0.19121,0.3576 -0.0835,0.0973 -0.18475,0.17024 -0.30334,0.21962 -0.1186,0.0494 -0.25097,0.0744 -0.39739,0.0744 -0.14788,0 -0.28086,-0.025 -0.39946,-0.0744 -0.11859,-0.0494 -0.21988,-0.12231 -0.30334,-0.21962 -0.0835,-0.0973 -0.14788,-0.2167 -0.19327,-0.3576 -0.0454,-0.14237 -0.0677,-0.30655 -0.0677,-0.49248 v -0.15451 c 0,-0.18449 0.0223,-0.34857 0.0677,-0.49093 0.0454,-0.14236 0.10981,-0.26183 0.19327,-0.35915 0.0835,-0.0973 0.18363,-0.17075 0.30076,-0.22014 0.1186,-0.0509 0.25149,-0.076 0.39791,-0.076 z m 3.37137,0 c 0.14788,0 0.28086,0.0251 0.39946,0.076 0.1186,0.0494 0.21988,0.12283 0.30334,0.22014 0.0835,0.0973 0.14788,0.21679 0.19327,0.35915 0.0454,0.14236 0.0677,0.30644 0.0677,0.49093 v 0.15451 c 0,0.18593 -0.0223,0.35011 -0.0677,0.49248 -0.0439,0.1409 -0.10775,0.26027 -0.1912,0.3576 -0.0835,0.0973 -0.18476,0.17024 -0.30335,0.21962 -0.1186,0.0494 -0.25097,0.0744 -0.39739,0.0744 -0.14788,0 -0.28087,-0.025 -0.39946,-0.0744 -0.1186,-0.0494 -0.21988,-0.12231 -0.30334,-0.21962 -0.0835,-0.0973 -0.14788,-0.2167 -0.19327,-0.3576 -0.0454,-0.14237 -0.0682,-0.30655 -0.0682,-0.49248 v -0.15451 c 0,-0.18449 0.0228,-0.34857 0.0682,-0.49093 0.0454,-0.14236 0.10981,-0.26183 0.19327,-0.35915 0.0835,-0.0973 0.18363,-0.17075 0.30076,-0.22014 0.1186,-0.0509 0.25149,-0.076 0.39791,-0.076 z m 2.07739,0 c 0.11567,0 0.21403,0.0226 0.29456,0.0677 0.0805,0.0436 0.14848,0.10512 0.20412,0.185 l 0.0243,-0.20929 h 0.55965 v 2.358 c 0,0.16124 -0.0239,0.29927 -0.0723,0.41548 -0.0468,0.11767 -0.11361,0.21489 -0.19999,0.29042 -0.0864,0.0755 -0.19008,0.13112 -0.31161,0.16743 -0.12006,0.0363 -0.25416,0.0548 -0.40204,0.0548 -0.0556,0 -0.11714,-0.006 -0.18449,-0.0176 -0.0674,-0.0116 -0.1347,-0.0295 -0.20205,-0.0527 -0.0674,-0.0217 -0.13178,-0.0498 -0.19327,-0.0847 -0.06,-0.0334 -0.11043,-0.0728 -0.15142,-0.11937 l 0.20878,-0.42737 c 0.0278,0.0291 0.0606,0.0559 0.0987,0.0806 0.0395,0.0261 0.0805,0.0476 0.12299,0.0651 0.0439,0.0189 0.0891,0.0333 0.13591,0.0434 0.0469,0.0116 0.0925,0.0176 0.13642,0.0176 0.063,0 0.1186,-0.007 0.16692,-0.0217 0.0498,-0.0131 0.0914,-0.0358 0.12506,-0.0692 0.0337,-0.0334 0.0588,-0.0776 0.0749,-0.13281 0.0176,-0.0553 0.0258,-0.12445 0.0258,-0.20722 v -0.18966 c -0.0571,0.0741 -0.12334,0.13142 -0.19948,0.17209 -0.0747,0.0392 -0.16252,0.0589 -0.26355,0.0589 -0.12591,0 -0.23891,-0.025 -0.33848,-0.0744 -0.0981,-0.0494 -0.1813,-0.12171 -0.25011,-0.21756 -0.0674,-0.0958 -0.11946,-0.21462 -0.15606,-0.35553 -0.0366,-0.14236 -0.0548,-0.30603 -0.0548,-0.49196 v -0.15503 c 0,-0.38639 0.0703,-0.67476 0.21084,-0.86506 0.14056,-0.19029 0.33736,-0.28526 0.59066,-0.28526 z m -30.47101,0.0434 h 0.62167 v 1.52963 c 0,0.12929 0.0211,0.22126 0.0636,0.27646 0.0425,0.0538 0.0981,0.0811 0.16692,0.0811 0.0761,0 0.13935,-0.0162 0.18913,-0.0481 0.0498,-0.0334 0.0891,-0.0782 0.11834,-0.13488 v -1.70429 h 0.62632 v 2.358 h -0.58446 l -0.0176,-0.21601 c -0.0615,0.0829 -0.13531,0.14669 -0.22169,0.19172 -0.0849,0.045 -0.18387,0.0677 -0.29662,0.0677 -0.0996,0 -0.19035,-0.0162 -0.27234,-0.0481 -0.0805,-0.0334 -0.15021,-0.0853 -0.20877,-0.15503 -0.0586,-0.0711 -0.1037,-0.16194 -0.13591,-0.27234 -0.0322,-0.11186 -0.0486,-0.24557 -0.0486,-0.40101 z m 2.25775,0 h 0.62373 v 2.358 h -0.62373 z m 4.49585,0 h 0.62373 v 2.358 h -0.62373 z m 25.06152,0 h 0.66765 l 0.28578,1.33119 0.31626,-1.33119 h 0.663 l -0.78186,2.71043 c -0.0176,0.0596 -0.0416,0.1241 -0.0724,0.19379 -0.0293,0.0697 -0.0697,0.13475 -0.12092,0.1943 -0.0513,0.061 -0.11507,0.11119 -0.1912,0.15038 -0.0761,0.0407 -0.16813,0.061 -0.27647,0.061 -0.0278,0 -0.053,-0.001 -0.0749,-0.004 -0.0205,-10e-4 -0.0399,-0.003 -0.0589,-0.007 -0.0176,-0.003 -0.0362,-0.007 -0.0553,-0.0134 -0.019,-0.005 -0.0407,-0.0105 -0.0656,-0.0176 v -0.48111 c 0.0117,9.9e-4 0.0234,0.002 0.0351,0.002 h 0.0372 c 0.0498,0 0.0931,-0.005 0.12971,-0.015 0.0366,-0.009 0.0671,-0.0235 0.092,-0.0439 0.0264,-0.0203 0.048,-0.0464 0.0641,-0.0786 0.0176,-0.0305 0.0322,-0.0675 0.0439,-0.1111 l 0.048,-0.15916 z m -15.43731,0.46871 c -0.10835,0 -0.18741,0.0383 -0.23719,0.11524 -0.0483,0.077 -0.077,0.20057 -0.0858,0.37052 h 0.62166 v -0.0568 c -0.003,-0.1409 -0.0264,-0.24775 -0.0703,-0.32039 -0.0439,-0.0726 -0.12006,-0.10852 -0.22841,-0.10852 z m 8.64444,0 c -0.10542,0 -0.18854,0.052 -0.24857,0.15658 -0.0586,0.10313 -0.0879,0.2625 -0.0879,0.47749 l 5.2e-4,0.15451 c 0,0.21935 0.0299,0.37995 0.0899,0.48162 0.06,0.10025 0.14322,0.15038 0.25011,0.15038 0.11274,0 0.19767,-0.0502 0.25477,-0.15038 0.0571,-0.10167 0.0858,-0.26227 0.0858,-0.48162 v -0.15451 c 0,-0.21499 -0.0299,-0.37436 -0.0899,-0.47749 -0.06,-0.10459 -0.14495,-0.15658 -0.25476,-0.15658 z m 3.37137,0 c -0.10542,0 -0.18854,0.052 -0.24856,0.15658 -0.0586,0.10313 -0.0879,0.2625 -0.0879,0.47749 v 0.15451 c 0,0.21935 0.0304,0.37995 0.0904,0.48162 0.06,0.10025 0.14323,0.15038 0.25011,0.15038 0.11274,0 0.19767,-0.0502 0.25477,-0.15038 0.0571,-0.10167 0.0858,-0.26227 0.0858,-0.48162 v -0.15451 c 0,-0.21499 -0.0299,-0.37436 -0.0899,-0.47749 -0.06,-0.10459 -0.14495,-0.15658 -0.25476,-0.15658 z m -23.02805,0.004 c -0.0615,0 -0.11361,0.0131 -0.15607,0.0377 -0.041,0.0247 -0.0744,0.0623 -0.10076,0.11317 -0.0264,0.0509 -0.0456,0.11658 -0.0574,0.19792 -0.0103,0.0799 -0.015,0.17538 -0.015,0.28577 v 0.15451 c 0,0.10894 0.005,0.20268 0.015,0.28112 0.0102,0.0785 0.0278,0.14409 0.0527,0.19637 0.0264,0.0509 0.0603,0.0885 0.10129,0.11318 0.0425,0.0232 0.0952,0.0351 0.15813,0.0351 0.0659,0 0.12152,-0.0149 0.16691,-0.0439 0.0454,-0.0291 0.0828,-0.0691 0.11214,-0.11989 v -1.07642 c -0.0293,-0.0552 -0.0673,-0.0976 -0.1142,-0.12816 -0.0454,-0.0305 -0.0998,-0.0465 -0.16278,-0.0465 z m 5.61567,5.1e-4 c -0.12299,0 -0.21437,0.0502 -0.2744,0.15038 -0.0586,0.10024 -0.0879,0.26144 -0.0879,0.48369 v 0.15451 c 0,0.21789 0.0287,0.37727 0.0858,0.47749 0.0571,0.0988 0.14787,0.14832 0.27233,0.14832 0.0674,0 0.12359,-0.0119 0.16898,-0.0351 0.0469,-0.0247 0.0849,-0.0587 0.11421,-0.10232 v -1.12655 c -0.0307,-0.0479 -0.0694,-0.0849 -0.11627,-0.1111 -0.0454,-0.0261 -0.0998,-0.0393 -0.16279,-0.0393 z m 19.67219,0 c -0.12299,0 -0.21437,0.0502 -0.2744,0.15038 -0.0586,0.10024 -0.0879,0.26144 -0.0879,0.48369 v 0.15451 c 0,0.21789 0.0282,0.37727 0.0853,0.47749 0.0571,0.0988 0.14789,0.14832 0.27234,0.14832 0.0674,0 0.12411,-0.0119 0.1695,-0.0351 0.0469,-0.0247 0.0849,-0.0587 0.1142,-0.10232 v -1.12655 c -0.0307,-0.0479 -0.0699,-0.0849 -0.11679,-0.1111 -0.0454,-0.0261 -0.0993,-0.0393 -0.16226,-0.0393 z m -32.48484,0.5054 v 0.84801 h 0.41289 c 0.063,0 0.11628,-0.0106 0.1602,-0.031 0.0454,-0.0203 0.0823,-0.049 0.11007,-0.0853 0.0293,-0.0378 0.0504,-0.0813 0.0636,-0.13075 0.0132,-0.0494 0.0196,-0.10324 0.0196,-0.16278 0,-0.1351 -0.0258,-0.24194 -0.077,-0.32039 -0.0498,-0.0785 -0.1347,-0.11782 -0.25476,-0.11782 z"
       inkscape:export-filename="topic_tags\topic_5.svg"
       inkscape:export-xdpi="96"
       inkscape:export-ydpi="96" /></g></svg>
